<?xml version="1.0" encoding="UTF-8"?>
<svg id="Layer_2" data-name="Layer 2" xmlns="http://www.w3.org/2000/svg" viewBox="0 0 249.09 222.57">
  <defs>
    <style>
      .cls-1 {
        stroke-width: 1.42px;
      }

      .cls-1, .cls-2, .cls-3, .cls-4, .cls-5, .cls-6, .cls-7, .cls-8, .cls-9, .cls-10, .cls-11, .cls-12, .cls-13, .cls-14, .cls-15, .cls-16, .cls-17, .cls-18, .cls-19, .cls-20, .cls-21, .cls-22, .cls-23, .cls-24, .cls-25, .cls-26, .cls-27, .cls-28, .cls-29, .cls-30, .cls-31 {
        fill: none;
      }

      .cls-1, .cls-2, .cls-3, .cls-4, .cls-5, .cls-6, .cls-7, .cls-8, .cls-10, .cls-11, .cls-12, .cls-13, .cls-14, .cls-15, .cls-16, .cls-17, .cls-18, .cls-19, .cls-21, .cls-23, .cls-25, .cls-26, .cls-27, .cls-28, .cls-29, .cls-30, .cls-31 {
        stroke-linecap: round;
      }

      .cls-1, .cls-2, .cls-3, .cls-4, .cls-5, .cls-6, .cls-7, .cls-8, .cls-10, .cls-11, .cls-12, .cls-13, .cls-14, .cls-15, .cls-17, .cls-18, .cls-19, .cls-21, .cls-23, .cls-25, .cls-26, .cls-27, .cls-28, .cls-29, .cls-30, .cls-31 {
        stroke-linejoin: round;
      }

      .cls-1, .cls-3, .cls-5, .cls-7, .cls-10, .cls-11, .cls-12, .cls-19, .cls-23, .cls-25, .cls-28 {
        stroke: #1f033c;
      }

      .cls-2 {
        stroke: #cff6ff;
      }

      .cls-2, .cls-25 {
        stroke-width: 1.5px;
      }

      .cls-4 {
        stroke: #2f9916;
      }

      .cls-5 {
        stroke-width: 1.47px;
      }

      .cls-6 {
        stroke-width: .75px;
      }

      .cls-6, .cls-9, .cls-14, .cls-15, .cls-30 {
        stroke: #232144;
      }

      .cls-7 {
        stroke-width: .75px;
      }

      .cls-8 {
        stroke: #abe9ff;
      }

      .cls-8, .cls-27 {
        stroke-width: 3px;
      }

      .cls-9, .cls-16, .cls-20, .cls-22, .cls-24 {
        stroke-miterlimit: 10;
      }

      .cls-9, .cls-29, .cls-30 {
        stroke-width: 1.49px;
      }

      .cls-10 {
        stroke-width: 1.43px;
      }

      .cls-11 {
        stroke-width: 1.27px;
      }

      .cls-12 {
        stroke-width: 1.27px;
      }

      .cls-13, .cls-20, .cls-21, .cls-22, .cls-26, .cls-29 {
        stroke: #fff;
      }

      .cls-13, .cls-31 {
        stroke-width: 2.53px;
      }

      .cls-32 {
        fill: #f97906;
      }

      .cls-33 {
        fill: #f6bc58;
      }

      .cls-34 {
        fill: #f784dc;
      }

      .cls-35 {
        fill: #e59015;
      }

      .cls-36, .cls-37, .cls-38 {
        fill: #fff;
      }

      .cls-39 {
        fill: #fff3f0;
      }

      .cls-40 {
        fill: #ffcea1;
      }

      .cls-41 {
        fill: #ffd5c7;
      }

      .cls-42 {
        fill: #ffac73;
      }

      .cls-43 {
        fill: #fea142;
      }

      .cls-44 {
        fill: #97cecc;
      }

      .cls-45 {
        fill: #a0e2f9;
      }

      .cls-46, .cls-47 {
        fill: #9fd3d3;
      }

      .cls-48 {
        fill: #d7e9e9;
      }

      .cls-49 {
        fill: #1f033c;
      }

      .cls-50 {
        fill: #232144;
      }

      .cls-51 {
        fill: #366b77;
      }

      .cls-52 {
        fill: #61dafb;
      }

      .cls-53, .cls-54 {
        fill: #28424f;
      }

      .cls-55 {
        fill: #2695d3;
      }

      .cls-56 {
        fill: #3c5768;
      }

      .cls-57 {
        fill: #37a9d1;
      }

      .cls-58 {
        fill: #578b9b;
      }

      .cls-59 {
        fill: #5cdc41;
      }

      .cls-60 {
        fill: #4f7bfc;
      }

      .cls-61 {
        fill: #79c8ff;
      }

      .cls-14 {
        stroke-width: 1.12px;
      }

      .cls-15 {
        stroke-width: 1.18px;
      }

      .cls-16 {
        stroke-width: 1.88px;
      }

      .cls-16, .cls-18 {
        stroke: #ffab94;
      }

      .cls-17 {
        stroke: #ffac73;
      }

      .cls-17, .cls-20 {
        stroke-width: 2px;
      }

      .cls-18 {
        stroke-width: 4px;
      }

      .cls-19 {
        stroke-width: 1.55px;
      }

      .cls-21 {
        stroke-width: 1.94px;
      }

      .cls-62 {
        opacity: .35;
      }

      .cls-23 {
        stroke-width: 1.55px;
      }

      .cls-24 {
        stroke: #b3ffa1;
        stroke-width: 1.91px;
      }

      .cls-26 {
        stroke-width: 1.51px;
      }

      .cls-54 {
        opacity: .5;
      }

      .cls-27 {
        stroke: #fff3f0;
      }

      .cls-28 {
        stroke-width: 1.08px;
      }

      .cls-37 {
        opacity: .25;
      }

      .cls-38 {
        opacity: .45;
      }

      .cls-31 {
        opacity: .41;
        stroke: #a4e7ff;
      }

      .cls-47 {
        opacity: .4;
      }
    </style>
  </defs>
  <g id="Layer_1-2" data-name="Layer 1">
    <g>
      <path class="cls-41" d="M149.71,109.77c-2.08-.9-3.8-2.3-4.93-3.97"/>
      <path class="cls-41" d="M119.74,100.3l-4.89,7.53-3.11,1.15,8.48,7.7,7.25,3.93h7.62s11.79-6.26,11.79-6.64,2.96-3.88,2.96-3.88l-12.78-8.28"/>
      <g class="cls-62">
        <rect class="cls-45" x="33.86" y="14.33" width="87.6" height="86.44"/>
        <path class="cls-48" d="M33.86,13.54V101.15H121.46V13.54H33.86ZM115.98,96.21H40.5V18.84H115.98V96.21Z"/>
        <rect class="cls-48" x="75.61" y="18.93" width="5.08" height="77.08"/>
        <rect class="cls-48" x="75.9" y="21.19" width="5.08" height="75.4" transform="translate(137.33 -19.55) rotate(90)"/>
        <g>
          <rect class="cls-57" x="40.11" y="91.76" width="75.94" height="4.05"/>
          <rect class="cls-57" x="111.31" y="18.79" width="3.98" height="73.37"/>
        </g>
        <g>
          <path class="cls-38" d="M44.58,39.17c-.7,0-1.27-.57-1.27-1.27v-14.85c0-.7,.57-1.27,1.27-1.27s1.27,.57,1.27,1.27v14.85c0,.7-.57,1.27-1.27,1.27Z"/>
          <path class="cls-38" d="M44.58,35.17c-.7,0-1.27-.57-1.27-1.27v-5.85c0-.7,.57-1.27,1.27-1.27s1.27,.57,1.27,1.27v5.85c0,.7-.57,1.27-1.27,1.27Z"/>
        </g>
        <g>
          <line class="cls-20" x1="65.35" y1="18.84" x2="40.69" y2="67.78"/>
          <line class="cls-20" x1="71.37" y1="18.84" x2="40.69" y2="78.7"/>
        </g>
        <line class="cls-10" x1="80.69" y1="61.91" x2="80.69" y2="95.02"/>
        <polyline class="cls-10" points="75.61 34.75 75.61 18.93 80.69 18.93 80.69 55.58"/>
        <line class="cls-10" x1="75.61" y1="41.9" x2="75.61" y2="39.65"/>
        <line class="cls-10" x1="75.61" y1="55.51" x2="75.61" y2="44.73"/>
        <line class="cls-10" x1="75.61" y1="95.02" x2="75.61" y2="62.33"/>
        <line class="cls-1" x1="61.67" y1="56.35" x2="115.14" y2="56.35"/>
        <polyline class="cls-1" points="64.3 61.43 40.74 61.43 40.74 56.35 58.19 56.35"/>
        <line class="cls-1" x1="115.14" y1="61.43" x2="68.73" y2="61.43"/>
        <rect class="cls-36" x="34.1" y="13.57" width="3.01" height="23.91" rx="1.51" ry="1.51"/>
        <rect class="cls-36" x="34.1" y="57.62" width="3.01" height="23.91" rx="1.51" ry="1.51"/>
        <rect class="cls-47" x="70.55" y="81.59" width="4.24" height="33.66" rx="2.12" ry="2.12" transform="translate(171.09 25.75) rotate(90)"/>
        <rect class="cls-46" x="86.74" y="81.59" width="4.24" height="33.66" rx="2.12" ry="2.12" transform="translate(187.28 9.56) rotate(90)"/>
        <line class="cls-10" x1="33.86" y1="85.72" x2="33.86" y2="42.37"/>
        <polyline class="cls-10" points="44.35 100.77 33.86 100.77 33.86 90.52"/>
        <polyline class="cls-10" points="74.37 13.17 121.46 13.17 121.46 30.7"/>
        <line class="cls-10" x1="56.68" y1="13.17" x2="70.8" y2="13.17"/>
        <polyline class="cls-10" points="33.86 38.7 33.86 13.17 51.41 13.17"/>
        <g>
          <line class="cls-6" x1="50.15" y1="21.65" x2="47.97" y2="25.51"/>
          <line class="cls-6" x1="50.26" y1="24.77" x2="48.57" y2="27.61"/>
        </g>
        <polyline class="cls-10" points="40.5 38.8 40.5 18.46 115.98 18.46 115.98 95.83 40.5 95.83 40.5 42.47"/>
        <polyline class="cls-10" points="121.46 36.73 121.46 100.77 50.75 100.77"/>
      </g>
      <g>
        <path class="cls-43" d="M95.83,62.43s1.13,14.68-.28,17.51-.85,8.47-.85,8.47c0,0,7.84-4.02,7.13-22.38"/>
        <path class="cls-10" d="M95.83,62.43s1.13,14.68-.28,17.51-.85,8.47-.85,8.47c0,0,6.49-1.69,7.06-16.38"/>
      </g>
      <g>
        <path class="cls-43" d="M166.65,62.43s-1.13,14.68,.28,17.51c1.41,2.82,.85,8.47,.85,8.47,0,0-7.84-4.02-7.13-22.38"/>
        <path class="cls-10" d="M166.65,62.43s-1.13,14.68,.28,17.51c1.41,2.82,.85,8.47,.85,8.47,0,0-6.49-1.69-7.06-16.38"/>
      </g>
      <polygon class="cls-55" points="102.04 34.67 92.82 52.74 107.94 56.01 102.04 34.67"/>
      <polygon class="cls-55" points="162.66 34.67 153.43 52.74 168.55 56.01 162.66 34.67"/>
      <polygon class="cls-41" points="92.4 47.17 88.43 53.66 88.43 58.04 93.37 66.48 102.43 66.69 102.88 51.19 92.4 47.17"/>
      <path class="cls-16" d="M95.03,53.14s3.42,.2,4.53,3.92"/>
      <polyline class="cls-26" points="92.92 48.5 90.11 53.53 90.11 57.1"/>
      <path class="cls-10" d="M97.37,49.09l-4.67-2.02-3.96,6.49v4.38l4.42,7.72c.32,.46,.85,.73,1.41,.73h4.14"/>
      <path class="cls-3" d="M94.53,52.07s4.02,.26,5.13,3.99"/>
      <path class="cls-3" d="M93.05,54.61s-1.93,2.46,.21,5.92"/>
      <polygon class="cls-41" points="170.58 47.17 174.54 53.66 174.54 58.04 169.6 66.48 160.55 66.69 160.09 51.19 170.58 47.17"/>
      <path class="cls-16" d="M167.94,53.14s-3.42,.2-4.53,3.92"/>
      <polyline class="cls-26" points="170.05 48.5 172.86 53.53 172.86 57.1"/>
      <path class="cls-10" d="M165.6,49.09l4.67-2.02,3.96,6.49v4.38s-4.42,7.72-4.42,7.72c-.32,.46-.85,.73-1.41,.73h-4.14"/>
      <path class="cls-3" d="M168.44,52.07s-4.02,.26-5.13,3.99"/>
      <path class="cls-3" d="M169.93,54.61s1.93,2.46-.21,5.92"/>
      <path class="cls-61" d="M99.95,29.81s2.94-5.49,6.75-7.89S116.87,.72,132.4,.72s23.44,18.94,23.44,18.94c0,0,5.06,5.49,6.05,9.45"/>
      <ellipse class="cls-59" cx="53.74" cy="173.86" rx="11.65" ry="22.57"/>
      <ellipse class="cls-24" cx="53.74" cy="173.86" rx="11.15" ry="21.6"/>
      <path class="cls-4" d="M56.68,151.88s5.27,10.73,5.27,22.96"/>
      <path class="cls-4" d="M51.86,151.88s-5.27,10.73-5.27,22.96v3.29"/>
      <line class="cls-4" x1="53.76" y1="177.95" x2="53.76" y2="151.6"/>
      <path class="cls-11" d="M50.01,152.38c1.25-.89,2.61-1.38,4.02-1.38,6.43,0,11.65,10.11,11.65,22.57s-5.22,22.57-11.65,22.57c-5.44,0-10.18-7.17-11.46-16.93-.23-1.79-.19-3.71-.19-5.64,0-8.33,2.33-15.6,5.79-19.51"/>
      <rect class="cls-48" x="36.54" y="177.86" width="41.79" height="10.45"/>
      <rect class="cls-48" x="39.93" y="188.47" width="38.4" height="25.89"/>
      <rect class="cls-44" x="39.93" y="188.47" width="38.4" height="3.49"/>
      <rect class="cls-10" x="39.93" y="188.47" width="38.4" height="25.89"/>
      <circle class="cls-44" cx="46.63" cy="192.19" r="1.48"/>
      <circle class="cls-44" cx="50.41" cy="193.56" r=".74"/>
      <circle class="cls-44" cx="48.75" cy="196.7" r=".99"/>
      <rect class="cls-36" x="41.62" y="178.14" width="2.26" height="10.31"/>
      <rect class="cls-36" x="45.29" y="178.14" width="1.61" height="10.31"/>
      <rect class="cls-11" x="36.54" y="177.86" width="41.79" height="10.45"/>
      <path class="cls-58" d="M181.39,130.14l-1.5-8.8c-3.51-4.44-16.24-7.77-21.61-9.55l-1.73-1.02-6.88-1.31-.18,.36c-20.47,24.35-36.71-.38-36.71-.38l-.48,.02-6.01,1.03-1.6,.31c-5.37,1.79-19.1,6.11-22.61,10.55l-1.1,5.98"/>
      <path class="cls-8" d="M112.35,110.52c-26.35,6.02-28.31,11.4-28.31,11.4l-1.69,3.11"/>
      <path class="cls-19" d="M150.19,109.95c26.35,6.02,28.19,11.15,28.19,11.15l1.69,3.11"/>
      <path class="cls-41" d="M119.69,90.19v4.08l-1.84,5.95-2.82,2.97v1.35s8.19,7.03,16.8,6.08c0,0,12.71-1.35,15.67-7.3l-3.67-3.51-.28-8.98-23.86-.65Z"/>
      <path class="cls-18" d="M125.76,97.49c4.66,1.55,6.92,1.55,11.29-.14"/>
      <path class="cls-27" d="M120.23,96.01c-.03,3.86-1.21,6.24-3.84,8.38"/>
      <path class="cls-27" d="M141.75,95.96c-.06,3.86,1.07,6.26,3.65,8.46"/>
      <path class="cls-10" d="M99.23,112.37c-5.96,1.91-13.11,4.82-16.54,8.5l-2.01,3.62"/>
      <path class="cls-10" d="M116.59,106.44c-1.31,1.16-2.98,2.05-4.85,2.54l-8.98,2.33h0"/>
      <path class="cls-41" d="M162.05,32.58v36.17c-2.41,15.7-13.14,24.88-27.47,27.47h-6.69c-14.56-2.02-24.58-12.89-27.47-27.47v-27.57s0-8.59,0-8.59"/>
      <path class="cls-10" d="M100.44,39.42v25.99c0,17.02,13.8,30.81,30.81,30.81h0"/>
      <path class="cls-58" d="M69.92,160.01c-6.22,9.28-8.61,22.2-9.09,35.16l10.49,10.49,18.1-17.11"/>
      <path class="cls-51" d="M74.53,161.14c-6.22,9.28-8.61,22.2-9.21,36.96l10.49,10.49,18.22-18.91"/>
      <path class="cls-10" d="M68.7,161.88c-5.6,9.67-7.14,22.72-6.77,35.68"/>
      <path class="cls-41" d="M51.45,212.18c0-7.6,6.16-13.76,13.76-13.76s13.76,6.16,13.76,13.76"/>
      <path class="cls-21" d="M53.15,208.81s1.28-8.41,9.15-9.47"/>
      <path class="cls-10" d="M51.64,211.63c0-8.57,5.86-13.84,13.09-13.84"/>
      <path class="cls-58" d="M192.62,153.67c4.89,9.93,7.96,20.64,11,31.29,1.05,3.67,2.1,7.39,2.13,11.2,.03,3.86-.98,7.64-2.17,11.31-.55,1.71-1.18,3.46-2.42,4.75-1.79,1.85-4.51,2.39-7.05,2.84-2.99,.53-6.29,1.01-8.89-.57-1.29-.79-2.26-2.01-3.11-3.26-4.17-6.21-5.91-13.83-5.84-21.3,.07-7.47,1.86-14.84,4.28-21.91,1.75-5.12,4.53-10.77,9.78-12.07"/>
      <ellipse class="cls-51" cx="184.8" cy="192.05" rx="16.71" ry="22.93"/>
      <rect class="cls-33" x=".72" y="212.52" width="247.66" height="9.34"/>
      <rect class="cls-35" x=".72" y="217.91" width="247.66" height="3.15"/>
      <path class="cls-56" d="M188.26,202.05v8.29c0,1.19-.96,2.15-2.15,2.15H78.16c-1.19,0-2.15-.96-2.15-2.15v-8.29"/>
      <path class="cls-53" d="M188.26,195.99v8.29c0,1.19-.96,2.15-2.15,2.15H78.16c-1.19,0-2.15-.96-2.15-2.15v-8.29"/>
      <path class="cls-9" d="M188.26,202.05v8.29c0,1.19-.96,2.15-2.15,2.15H78.16c-1.19,0-2.15-.96-2.15-2.15v-8.29"/>
      <rect class="cls-56" x="69.11" y="124.64" width="127.04" height="77.44" rx="8.4" ry="8.4"/>
      <path class="cls-54" d="M195.65,147.86v45.58c0,4.64-3.76,8.4-8.4,8.4H77.01c-4.64,0-8.4-3.76-8.4-8.4v-4.53c69.45-2.8,108.83-26.21,127.04-41.04Z"/>
      <path class="cls-54" d="M195.65,135.68v57.76c0,4.64-3.76,8.4-8.4,8.4H77.01c-4.64,0-8.4-3.76-8.4-8.4v-18.46c69.45-2.8,108.83-24.47,127.04-39.3Z"/>
      <path class="cls-10" d="M188.26,202.05v8.29c0,1.19-.96,2.15-2.15,2.15H78.16c-1.19,0-2.15-.96-2.15-2.15v-8.29"/>
      <path class="cls-10" d="M219.36,212.52h28.07c.52,0,.94,.42,.94,.94v7.45c0,.52-.42,.94-.94,.94H1.66c-.52,0-.94-.42-.94-.94v-7.45c0-.52,.42-.94,.94-.94H14.17"/>
      <line class="cls-10" x1="47.16" y1="212.52" x2="212.81" y2="212.52"/>
      <line class="cls-30" x1="22.09" y1="212.52" x2="42.31" y2="212.52"/>
      <path class="cls-10" d="M203.94,184.78c.76,3.46,1.32,6.91,1.54,10.17"/>
      <path class="cls-10" d="M196.01,158.67c1.62,5.09,4.69,13.3,6.92,21.88"/>
      <path class="cls-10" d="M205.54,199.74c0,10.15-5.18,12.28-5.18,12.28"/>
      <g>
        <line class="cls-6" x1="77.64" y1="131.55" x2="73.99" y2="134.05"/>
        <line class="cls-6" x1="76.37" y1="134.4" x2="73.6" y2="136.2"/>
      </g>
      <g>
        <line class="cls-6" x1="189.18" y1="192.97" x2="185.53" y2="195.47"/>
        <line class="cls-6" x1="187.91" y1="195.82" x2="185.14" y2="197.62"/>
      </g>
      <circle class="cls-50" cx="18.33" cy="212.56" r="1.03"/>
      <line class="cls-29" x1="9.01" y1="215.53" x2="17.67" y2="215.53"/>
      <circle class="cls-36" cx="6.06" cy="215.53" r="1.11"/>
      <g>
        <line class="cls-14" x1="81.7" y1="205.03" x2="81.7" y2="209.2"/>
        <line class="cls-14" x1="85.45" y1="205.03" x2="85.45" y2="209.2"/>
        <line class="cls-14" x1="89.19" y1="205.03" x2="89.19" y2="209.2"/>
      </g>
      <g>
        <line class="cls-14" x1="174.51" y1="205.03" x2="174.51" y2="209.2"/>
        <line class="cls-14" x1="178.25" y1="205.03" x2="178.25" y2="209.2"/>
        <line class="cls-14" x1="182" y1="205.03" x2="182" y2="209.2"/>
      </g>
      <g>
        <line class="cls-31" x1="79.24" y1="126.35" x2="102.19" y2="126.35"/>
        <line class="cls-13" x1="87.01" y1="126.35" x2="93.77" y2="126.35"/>
      </g>
      <path class="cls-10" d="M152.09,124.64h35.17c4.64,0,8.4,3.76,8.4,8.4v60.65c0,4.64-3.76,8.4-8.4,8.4H77.01c-4.64,0-8.4-3.76-8.4-8.4v-60.65c0-4.64,3.76-8.4,8.4-8.4h34.29"/>
      <line class="cls-10" x1="117.95" y1="124.73" x2="145.33" y2="124.73"/>
      <path class="cls-15" d="M131.28,62.66s1.8,5.59,1.8,7.52"/>
      <path class="cls-15" d="M128.7,73.64s2.78,1.6,5.06,0"/>
      <ellipse class="cls-39" cx="106.14" cy="58.27" rx="1.13" ry="1.84"/>
      <circle class="cls-39" cx="107.94" cy="55.34" r=".67"/>
      <ellipse class="cls-39" cx="104.2" cy="53.19" rx="1.52" ry="1.91"/>
      <line class="cls-3" x1="72.96" y1="148.77" x2="72.96" y2="171.64"/>
      <line class="cls-3" x1="170.23" y1="197.76" x2="147.36" y2="197.76"/>
      <line class="cls-3" x1="47.36" y1="206.42" x2="39.69" y2="206.42"/>
      <line class="cls-11" x1="41.27" y1="170.94" x2="42.26" y2="170.94"/>
      <line class="cls-11" x1="41.27" y1="174.47" x2="42.26" y2="174.47"/>
      <line class="cls-11" x1="45.76" y1="155.02" x2="46.52" y2="155.66"/>
      <line class="cls-11" x1="61.68" y1="154.54" x2="60.81" y2="155.01"/>
      <line class="cls-11" x1="44.29" y1="160.04" x2="43.45" y2="159.51"/>
      <line class="cls-11" x1="64.25" y1="159.3" x2="63.39" y2="159.78"/>
      <g>
        <g>
          <circle class="cls-36" cx="96.01" cy="146.57" r="10.54"/>
          <g>
            <path class="cls-52" d="M103.94,146.57c0-1.1-1.21-2.05-3.33-2.65,.54-2.13,.32-3.66-.63-4.21-.93-.54-2.4,.04-3.96,1.56-1.56-1.52-3.03-2.1-3.96-1.56-.95,.55-1.17,2.07-.63,4.21-2.12,.6-3.33,1.55-3.33,2.65s1.21,2.05,3.33,2.65c-.55,2.13-.32,3.66,.63,4.21,.24,.14,.52,.21,.8,.2,.88,0,2-.62,3.17-1.76,1.17,1.14,2.29,1.76,3.17,1.76,.28,0,.55-.07,.8-.2,.95-.55,1.17-2.07,.63-4.21,2.12-.6,3.33-1.55,3.33-2.65Zm-7.93,4.34c-.34-.37-.66-.75-.96-1.14,.32,.02,.64,.03,.96,.03s.63-.01,.96-.03c-.3,.4-.62,.78-.96,1.14Zm0-8.68c.34,.37,.66,.75,.96,1.14-.64-.03-1.27-.03-1.91,0,.3-.4,.62-.78,.96-1.14Zm-1.45,6.85c-.55-.8-1.03-1.64-1.45-2.51,.42-.87,.9-1.71,1.45-2.51,.97-.07,1.94-.07,2.9,0,.55,.8,1.03,1.64,1.45,2.51-.42,.87-.9,1.71-1.45,2.51-.98,.07-1.93,.07-2.9,0Zm-1.35-4.12c-.16,.28-.31,.56-.46,.84-.19-.46-.36-.92-.51-1.4,.49-.11,.98-.19,1.47-.26-.17,.27-.34,.54-.5,.81Zm-.46,2.39c.15,.28,.3,.56,.46,.84,.16,.28,.33,.55,.5,.81-.51-.06-1-.15-1.47-.25,.15-.47,.32-.94,.51-1.4Zm6.51,0c.19,.46,.36,.92,.51,1.4-.49,.11-.97,.19-1.47,.25,.35-.53,.66-1.09,.96-1.65Zm0-1.55c-.29-.57-.61-1.12-.96-1.65,.49,.06,.98,.15,1.47,.26-.15,.47-.32,.94-.51,1.4Zm.38-5.51c.66,.38,.77,1.69,.32,3.47-.67-.15-1.38-.26-2.14-.33h0s0,0,0,0c-.41-.59-.87-1.15-1.35-1.68,1.29-1.26,2.52-1.84,3.17-1.46Zm-7.27,0c.13-.08,.29-.11,.47-.11,.7,0,1.67,.57,2.71,1.57-.49,.53-.94,1.09-1.36,1.68-.72,.06-1.43,.17-2.14,.33-.45-1.78-.34-3.09,.32-3.47Zm-3.63,6.28c0-.76,1.08-1.52,2.85-2.01,.22,.69,.48,1.36,.78,2.01h0s0,0,0,0c-.3,.65-.56,1.32-.78,2.01-1.77-.5-2.85-1.26-2.85-2.01Zm3.63,6.28c-.66-.38-.77-1.7-.32-3.47,.7,.16,1.42,.27,2.14,.33h0s0,0,0,0c.41,.59,.87,1.15,1.36,1.68-1.29,1.26-2.52,1.83-3.17,1.46Zm7.27,0c-.13,.08-.29,.11-.47,.11h0c-.7,0-1.67-.57-2.71-1.57,.49-.53,.94-1.09,1.35-1.68h0s0,0,0,0c.72-.06,1.43-.17,2.14-.33,.45,1.78,.34,3.09-.32,3.47Zm.78-4.27c-.2-.65-.46-1.32-.78-2.01h0s0,0,0,0c.3-.65,.56-1.32,.78-2.01,1.77,.5,2.85,1.26,2.85,2.01s-1.08,1.52-2.85,2.01Z"/>
            <circle class="cls-52" cx="96.01" cy="146.57" r="1.41"/>
          </g>
          <path class="cls-3" d="M85.63,148.41c-.1-.6-.16-1.21-.16-1.84,0-5.82,4.72-10.54,10.54-10.54s10.54,4.72,10.54,10.54-4.72,10.54-10.54,10.54c-1.04,0-2.05-.15-3-.43"/>
          <path class="cls-3" d="M86.41,150.92c-.1-.21-.19-.43-.27-.65"/>
          <path class="cls-3" d="M90.91,155.8c-1.43-.79-2.66-1.91-3.58-3.26"/>
        </g>
        <path class="cls-34" d="M183.49,193.39h0c.25-.67,.22-1.38-.1-2.11,0-.01,0-.02-.01-.03h0l-.02-.03h0s-.18-.37-.18-.37h0s-.02-.06-.02-.06h0s-.02-.03-.03-.04c-.64-1.03-1.97-2.22-4.74-2.62-.07-1.23,.26-2.02,1.24-2.98,.17-.17,.18-.33,.02-.52-.31-.38-.91-.58-1.35-.68-.21-.05-.37,0-.49,.14-.85,1.03-2.12,1.71-3.35,2.36l-.07,.04c.05-1.13,.5-1.79,1.26-2.51,.15-.14,.17-.29,.05-.46-.34-.48-1.11-.67-1.43-.74-.4-.08-1.26,.66-2.27,1.57-.25,.23-.47,.42-.58,.51-.27,.2-.55,.43-.84,.68-.67,.57-1.42,1.2-2.16,1.46,.03-.47,.61-.93,1.18-1.37,.67-.53,1.31-1.02,1.18-1.62-.04-.19-.15-.35-.32-.46-.11-.07-.23-.11-.35-.12,.19-.28,.31-.51,.38-.84,.09-.47-.12-.86-.57-1.08-1.02-.5-2.27-.19-3.14,.15-.58,.23-1.54,.14-2.39,.05-.34-.03-.65-.06-.93-.07-.2-.48-.48-1.01-.79-1.57-.85-1.57-1.82-3.34-1.16-4.73,.97-2.04,3.99-2.27,6.51-2.24,1.91,.02,3.48,.2,4.82,.54,1.87,.48,3.24,1.3,4.07,2.42,.45,.62,.4,1.41-.13,1.98-1.38,1.48-3.95,1.65-5.91,1.31-1.18-.21-2.11-.52-2.84-.96-.92-.55-1.45-1.43-1.67-1.81-.03-.06-.07-.13-.12-.18h-.01c-.05-.06-.13-.07-.19-.05-.11,.05-.15,.19-.16,.27-.12,1.01,.27,1.89,1.15,2.62,.29,.23,.6,.44,.94,.61,2.32,1.21,5.98,1.42,7.65,.89,1.13-.36,2.08-.85,3-2.07,.96-1.27,.52-2.74-.21-3.68-1.78-2.3-4.66-3.26-6.76-3.67-2.46-.47-5.27-.45-7.71,.05-3,.62-4.6,1.81-4.74,3.56-.15,1.79,.89,3.5,1.89,5.15,.32,.53,.63,1.04,.89,1.53-.15,0-.31,0-.47-.01-1.54-.05-3.28-.1-4.63,.6-.98,.51-1.51,1.26-1.56,2.22-.03,.51,.16,.97,.56,1.35,.21,.2,.44,.36,.7,.49,.91,.47,2.1,.63,2.82,.57,1.28-.1,2.32-.59,3.11-1.44,.7-.76,1.1-1.67,1.17-2.64l1.49,.02c-1.56,1.59-1.71,2.95-1.56,3.82,.06,.32,.3,.63,.66,.82s.75,.23,1.05,.1c.58-.25,1.1-.62,1.6-1.01-.19,.32-.34,.67-.38,1.01-.03,.31,.05,.57,.23,.74,.19,.19,.49,.27,.84,.23,1.58-.19,3.38-1.69,4.82-2.89,.2-.17,.4-.34,.59-.49-.14,.65-.2,1.31-.2,1.97,0,.14-.03,.19-.16,.24-.2,.07-.46,.15-.74,.23-.85,.24-1.9,.54-2.3,1.08-.16,.22-.11,.52,.12,.7,.68,.55,1.71,.81,2.76,.69,.95-.11,1.56-.63,1.81-1.54,.24-.88,1.15-1.66,2.71-2.3-.19,.74-.25,1.38-.21,2h-.01c-1.02,.25-2.42,.58-2.8,1.68-.08,.21-.06,.44,.04,.64,.11,.21,.3,.36,.53,.42,1.02,.29,1.91,.26,2.73-.08s.98-1.11,1.09-1.72c1.5,.33,2.66,.95,3.56,1.89,.5,.53,.77,1.11,.77,1.72,0,.77-.45,1.23-1.3,1.3-.26,.02-.39,.05-.45,.14-.03,.04-.03,.1,0,.14,.04,.1,.21,.32,.9,.27,.63-.05,1.12-.31,1.45-.78,.09-.13,.16-.27,.22-.42Zm-21.68-9.65l-.04,.06c-.48,.73-1.22,1.19-2.21,1.39-.62,.12-1.2,.09-1.64-.09-.31-.13-.5-.28-.57-.45-.05-.13-.04-.28,.03-.45,.61-1.38,3.41-1.62,4.82-1.44-.07,.34-.2,.67-.39,.97Zm7.35-.97h0c-.77,1.01-2.43,2.8-3.75,3.15-.06,.02-.11,.01-.12,0s-.02-.04-.01-.07c.06-.84,.78-1.95,1.71-2.63,.71-.52,1.45-.73,2.08-.59,.03,0,.05,.01,.08,.03,.02,0,.04,.02,.05,.04,0,.03,0,.05-.03,.08Zm2.28,6.33c-.26,.09-.48-.06-.39-.09l1.33-.46c-.23,.28-.57,.43-.94,.55h0Zm3.95,1.06c-.1,0-.2-.02-.3-.06,.22-.49,.97-.78,1.61-.9-.14,.56-.66,.96-1.31,.97h0Z"/>
        <rect class="cls-36" x="115.64" y="139.94" width="28.52" height="16.09" rx=".87" ry=".87" transform="translate(36.15 -25.18) rotate(12.84)"/>
        <path class="cls-3" d="M116.66,141.94l.94-4.12c.11-.47,.57-.76,1.04-.66l6.37,1.45"/>
        <path class="cls-3" d="M118.33,153.6l-3.27-.75c-.47-.11-.76-.57-.66-1.04l1.75-7.67"/>
        <path class="cls-3" d="M135.88,141.1l8.86,2.02c.47,.11,.76,.57,.66,1.04l-3.19,13.99c-.11,.47-.57,.76-1.04,.66l-20.15-4.59"/>
        <line class="cls-3" x1="127" y1="139.07" x2="133.82" y2="140.63"/>
        <g>
          <path class="cls-49" d="M125.76,144.02c-.43-.36-.98-.62-1.65-.77l-.66-.15-.54-.12-.98-.22-1.39,6.11,.98,.22,.54,.12,.66,.15c.67,.15,1.28,.16,1.82,.02,.55-.14,1.01-.41,1.38-.8,.37-.4,.63-.91,.77-1.53s.13-1.2-.03-1.72c-.16-.52-.46-.95-.89-1.32Zm-.94,3.48c-.15,.2-.32,.35-.52,.45s-.41,.15-.64,.16c-.23,0-.46-.01-.7-.07l-.61-.14,.8-3.49,.61,.14c.23,.05,.45,.13,.66,.24,.21,.11,.37,.25,.51,.42s.23,.38,.27,.63c.05,.25,.03,.54-.04,.87s-.19,.6-.34,.8Z"/>
          <polygon class="cls-49" points="129.3 144.43 128.32 144.21 126.93 150.32 127.91 150.54 128.34 150.64 130.99 151.25 131.26 150.03 128.62 149.43 128.94 148.02 131.41 148.59 131.68 147.4 129.21 146.84 129.46 145.75 132.1 146.35 132.38 145.14 129.73 144.53 129.3 144.43"/>
          <polygon class="cls-49" points="137.64 146.33 135.31 149.64 134.65 145.65 132.93 145.26 134.66 152.49 139.36 146.73 137.64 146.33"/>
        </g>
      </g>
      <path class="cls-61" d="M131.41,36.55c-23.91,0-35.01,11.11-35.01,11.11-3.2,0-.07-4.08-.07-7.28,0-1.56-.4-3.25-.81-4.57-.47-1.5,.21-3.1,1.58-3.86,8.01-4.39,34.7-16.2,68.15-.85,1.5,.69,2.27,2.38,1.79,3.96-.38,1.28-.74,2.86-.74,4.32,0,3.2,3.13,8.28-.07,8.28,0,0-11.11-11.11-35.01-11.11"/>
      <path class="cls-28" d="M148.35,8.42s.71,2.69,.25,6.34"/>
      <path class="cls-60" d="M103.39,32.06c6.68-3.12,13.91-5.06,21.26-5.71,1.91-.17,1.93-3.17,0-3-7.91,.69-15.58,2.75-22.77,6.12-1.75,.82-.23,3.4,1.51,2.59h0Z"/>
      <path class="cls-25" d="M104.87,28.08s-.19,4.42,1.13,7.72"/>
      <path class="cls-25" d="M114.56,30.15s-.19,4.42,1.13,7.72"/>
      <path class="cls-60" d="M131.02,26.25c6.61-.11,13.06,2.35,19.68,1.51,.8-.1,1.5-.62,1.5-1.5,0-.73-.69-1.6-1.5-1.5-6.62,.84-13.07-1.62-19.68-1.51-1.93,.03-1.93,3.03,0,3h0Z"/>
      <path class="cls-60" d="M157.95,30.58c2.8,.09,5.86,1.79,6.08,4.87,.06,.86-.09,1.72-.14,2.58-.05,.91-.03,1.83,.06,2.74,.19,1.91,.59,3.79,1.01,5.66s3.31,1.09,2.89-.8c-.47-2.08-.94-4.17-.99-6.31-.04-1.95,.45-3.88-.18-5.79-1.24-3.77-4.91-5.83-8.74-5.95-1.93-.06-1.93,2.94,0,3h0Z"/>
      <path class="cls-25" d="M161.43,34.86s.19,4.42-1.13,7.72"/>
      <path class="cls-36" d="M114.7,14.1c1.23-1.28,2.19-2.77,3.45-4.03,1.35-1.34,2.71-2.68,4.23-3.83,2.89-2.19,6.54-3.77,10.21-2.85,1.4,.36,2-1.81,.6-2.17-4-1.02-8.1,.34-11.39,2.67-1.67,1.18-3.19,2.57-4.65,4-.7,.69-1.42,1.37-2.04,2.14-.67,.83-1.27,1.71-2.01,2.48-1,1.04,.58,2.64,1.59,1.59h0Z"/>
      <path class="cls-60" d="M108.83,26.94c4.44-1.92,9.22-3.08,14.04-3.44,.81-.06,1.5-.65,1.5-1.5,0-.76-.69-1.56-1.5-1.5-5.39,.4-10.6,1.71-15.55,3.85-.74,.32-.91,1.41-.54,2.05,.45,.77,1.31,.86,2.05,.54h0Z"/>
      <path class="cls-10" d="M117.33,7.91c3.76-3.96,8.62-7.2,15.07-7.2,15.53,0,23.44,18.94,23.44,18.94,0,0,4.68,4.6,5.67,8.55"/>
      <path class="cls-10" d="M99.95,29.81s2.94-5.49,6.75-7.89c1.99-1.25,4.66-6.95,8.97-12.13"/>
      <path class="cls-25" d="M112.9,13.49s-2.12,6.17-.6,9.76"/>
      <path class="cls-25" d="M125.41,2.13s-7.48,9.76-2.47,21.2"/>
      <path class="cls-60" d="M133.93,23.48c4.98,.97,10.01,1.65,15.07,2.03,.81,.06,1.5-.73,1.5-1.5,0-.86-.69-1.44-1.5-1.5-4.79-.36-9.55-1-14.27-1.92-.79-.15-1.62,.22-1.85,1.05-.2,.74,.25,1.69,1.05,1.85h0Z"/>
      <path class="cls-25" d="M138.9,2.13s7.48,9.76,2.47,21.2"/>
      <path class="cls-28" d="M149.66,19.88c-.2,1.61-.62,3.33-1.4,5.1"/>
      <path class="cls-10" d="M130.09,23.1c6.87-.13,14,2.56,22.5,1.97"/>
      <path class="cls-25" d="M138.09,24.22s1.22,2.26,.28,6.4"/>
      <path class="cls-25" d="M149.57,25.73s.66,4.05-.09,6.87"/>
      <g>
        <rect class="cls-49" x="118.27" y="55.3" width="5.08" height="9.04" rx="2.54" ry="2.54"/>
        <circle class="cls-36" cx="118.2" cy="58.9" r="1.55"/>
      </g>
      <line class="cls-23" x1="101.01" y1="59.61" x2="112.49" y2="59.61"/>
      <line class="cls-23" x1="151.27" y1="59.61" x2="164.07" y2="59.61"/>
      <g>
        <rect class="cls-49" x="140.01" y="55.3" width="5.08" height="9.04" rx="2.54" ry="2.54"/>
        <circle class="cls-36" cx="139.94" cy="58.9" r="1.55"/>
      </g>
      <g>
        <circle class="cls-37" cx="142.55" cy="60.19" r="8.46"/>
        <circle class="cls-23" cx="142.56" cy="60.19" r="8.46"/>
      </g>
      <circle class="cls-37" cx="121.56" cy="60.19" r="8.46"/>
      <path class="cls-43" d="M162.84,70.81c3.08,18.88-8.87,27.45-8.87,27.45-6.83,11.51-22.69,17.14-22.69,17.14h-.43s-15.86-5.62-22.69-17.14c0,0-13.89-9-7.68-34.91l2.47,.21-.14,5.86,1.39,6.55,1.47,8.84s2.95-4.55,5.49-5.22c0,0-1.32,5.95,.82,10.1,0,0,2.47-3.67,5.95-4.47,0,0,3.67,10.71,12.91,10.71h.43c9.24,0,12.83-10.33,12.83-10.33,3.48,.8,6.12,3.76,6.12,3.76,2.14-4.15,.73-9.77,.73-9.77,2.54,.67,5.49,5.22,5.49,5.22l1.47-8.84,1.25-6.76v-5.6h2.49"/>
      <path class="cls-40" d="M163.14,77.42c-.49,13.81-9.35,20.17-9.35,20.17-6.83,11.52-22.69,17.14-22.69,17.14h-.43s-15.86-5.62-22.69-17.14c0,0-8.4-5.44-9.21-20.05,1.97,5.55,5.72,15.48,11.93,18.11,4.52,9.32,12.52,13.46,20.33,15.72,7.44-1.79,17.13-7.62,20.61-16.75,7.15-1.69,9.57-11.69,11.5-17.2Z"/>
      <path class="cls-42" d="M104.12,45.19c5.77-3.04,12.18-5.29,18.7-5.96,5.72-.59,11.67-.52,17.39,.09,1.92,.2,1.9-2.8,0-3-5.91-.63-12.1-.72-18.01-.02-6.86,.81-13.5,3.09-19.6,6.3-1.71,.9-.19,3.49,1.51,2.59h0Z"/>
      <path class="cls-10" d="M131.41,36.17c-23.91,0-35.01,11.11-35.01,11.11-3.2,0-.07-4.08-.07-7.28,0-1.56-.4-3.25-.81-4.57-.47-1.5,.21-3.1,1.58-3.86,4.47-2.45,14.78-7.22,28.85-8.28"/>
      <path class="cls-32" d="M114.26,90.65c.61-.59,1.21-1.18,1.87-1.71,.05-.04,.09-.07,.14-.11,.15-.12-.25,.18-.09,.07,.09-.07,.19-.14,.28-.21,.18-.13,.36-.25,.56-.35,.09-.05,.18-.09,.27-.14,.14-.08-.32,.11-.16,.07,.04-.01,.08-.03,.13-.04,.08-.03,.16-.04,.24-.07,.14-.04,.3-.11,.42-.19,.06-.05,.12-.09,.18-.14,.3-.22,.19-.17-.33,.17h-.8c-.24-.09-.44-.23-.58-.44l.04,.08c.03,.08,.07,.15,.11,.22,.07,.14,.13,.29,.19,.43,.15,.34,.3,.68,.46,1.01,.43,.85,.98,1.57,1.74,2.14,.63,.47,1.7,.12,2.05-.54,.41-.78,.14-1.55-.54-2.05,.38,.28,.07,.05,0-.03-.07-.07-.14-.2-.23-.26,.14,.19,.17,.22,.08,.09-.03-.05-.07-.1-.1-.15-.07-.1-.13-.21-.19-.31-.22-.39-.41-.81-.59-1.22-.2-.45-.37-.94-.71-1.31-.44-.48-1.09-.72-1.73-.56-.22,.05-.65,.23-.79,.44,.16-.23,.72-.34,.33-.23-.99,.28-1.83,.95-2.61,1.59-.62,.51-1.19,1.07-1.76,1.62s-.59,1.58,0,2.12,1.52,.58,2.12,0h0Z"/>
      <path class="cls-15" d="M119.41,102.21c.32,2.76,1.18,6.2,3.31,8.69"/>
      <path class="cls-15" d="M142.35,102.21c-.32,2.76-1.18,6.2-3.31,8.69"/>
      <path class="cls-42" d="M107.91,81.7c.3-.31,.6-.62,.91-.92,.16-.16,.33-.31,.5-.47,.08-.07,.15-.13,.23-.2l.12-.1c-.09,.06-.09,.06,0,0,.34-.25,.7-.47,1.07-.67,.08-.04,.19-.09,.04-.03,.09-.04,.18-.07,.28-.1,.24-.08,.47-.13,.72-.17l-1.85-1.05c.56,1.5,.47,2.87,.48,4.59s.16,3.54,.94,5.18c.33,.7,1.42,.97,2.05,.54,1.26-.87,2.53-1.73,3.79-2.6,.65-.44,1-1.34,.54-2.05-.41-.64-1.36-1.01-2.05-.54-1.26,.87-2.53,1.73-3.79,2.6l2.05,.54c-.08-.17-.09-.19-.04-.07-.04-.1-.07-.19-.11-.29-.07-.19-.12-.39-.17-.59-.04-.17-.08-.35-.11-.53-.02-.11-.02-.1,0,.02-.01-.1-.02-.21-.03-.31-.08-.79-.07-1.58-.07-2.37,0-1.64,0-3.35-.58-4.91-.3-.82-.98-1.19-1.85-1.05-2.12,.36-3.75,1.92-5.18,3.41-.54,.57-.61,1.57,0,2.12s1.54,.6,2.12,0h0Z"/>
      <path class="cls-42" d="M144.42,85.68c.8,.46,1.61,.89,2.39,1.37,.33,.2,.65,.41,.96,.63,.08,.06,.15,.11,.23,.17-.11-.09-.1-.08,.04,.03,.15,.13,.31,.26,.45,.39,.82,.74,2.2,.47,2.51-.66,.69-2.55,.56-5.11,.6-7.71,0-.12,0-.23,.01-.35-.01,.21-.02,.1,.02-.05,.06-.23,.11-.13,0-.04-.07,.12-.16,.2-.29,.24-.11,.1-.23,.14-.38,.12-.23,0-.24,.01-.03,.06l.16,.06c.45,.17-.17-.1,.26,.12,.25,.13,.5,.25,.74,.4,.87,.51,1.75,1.29,2.31,2.05,.48,.65,1.3,.98,2.05,.54,.64-.38,1.02-1.4,.54-2.05-.93-1.26-2.04-2.33-3.39-3.13-1.42-.84-3.56-1.75-4.6,.13-.37,.67-.42,1.44-.42,2.19s.01,1.53,0,2.3c0,1.56-.1,2.86-.5,4.32l2.51-.66c-1.4-1.26-3.05-2.13-4.68-3.06-.7-.4-1.64-.17-2.05,.54s-.17,1.65,.54,2.05h0Z"/>
      <path class="cls-42" d="M147.95,41.16c3.27,1.08,6.43,2.46,9.44,4.14,.5,.28,1.3,.56,1.54,1.12,.28,.65,.22,1.58,.27,2.27,.12,1.85,.11,3.71-.03,5.57-.06,.81,.73,1.5,1.5,1.5,.86,0,1.44-.69,1.5-1.5,.15-2.04,.16-4.08,0-6.12-.08-1.02-.12-2.11-.55-3.05s-1.17-1.48-2-1.97c-3.42-2-7.1-3.6-10.86-4.84-1.84-.61-2.62,2.29-.8,2.89h0Z"/>
      <line class="cls-10" x1="162.05" y1="44.42" x2="162.05" y2="64.69"/>
      <path class="cls-10" d="M157.35,27.54c4.18,.64,5.59,1.3,7.89,3.18,1.28,1.05,2.27,2.38,1.79,3.96-.38,1.28-.74,2.86-.74,4.32,0,3.2,3.13,8.28-.07,8.28,0,0-11.11-11.11-35.01-11.11"/>
      <polyline class="cls-10" points="129.03 51.61 111.72 51.61 110.21 47.66 115.86 47.66"/>
      <polyline class="cls-10" points="135.74 51.61 153.06 51.61 154.56 47.66 148.92 47.66"/>
      <path class="cls-32" d="M124.49,96.6c4.19,1.75,8.91,1.57,13.05-.19,.75-.32,.91-1.42,.54-2.05-.45-.77-1.3-.86-2.05-.54-3.42,1.46-7.35,1.31-10.74-.11-.75-.31-1.65,.34-1.85,1.05-.24,.86,.3,1.53,1.05,1.85h0Z"/>
      <path class="cls-5" d="M99.2,73.16c.18-2.92,.6-6.17,1.33-9.78"/>
      <polyline class="cls-5" points="103.83 73.41 102.99 69.02 102.99 63.37 100.63 63.37"/>
      <path class="cls-5" d="M121.01,90.46c-2.06-2.48-2.96-4.97-2.96-4.97-3.48,.8-5.98,4.05-5.98,4.05-2.14-4.15-.89-10.49-.89-10.49-2.54,.67-5.49,5.22-5.49,5.22l-1.2-7.18"/>
      <path class="cls-5" d="M130.86,95.38c-2.72,0-4.95-.86-6.74-2.06"/>
      <path class="cls-5" d="M141.14,90.46c2.06-2.48,2.96-4.97,2.96-4.97,3.48,.8,5.98,4.05,5.98,4.05,2.14-4.15,.89-10.49,.89-10.49,2.54,.67,5.49,5.22,5.49,5.22l1.47-8.84,1.23-6.41v-5.65h2.35"/>
      <path class="cls-5" d="M131.29,95.38c2.72,0,4.95-.86,6.74-2.06"/>
      <polygon class="cls-36" points="144.69 78.32 137.21 82.57 126.7 82.48 118.05 78.32 126.61 77.16 144.69 78.32"/>
      <polyline class="cls-2" points="120.54 78.9 126.56 78.24 133.43 78.62"/>
      <polygon class="cls-12" points="145.69 78.46 137.23 82.6 126.68 82.6 118.05 78.46 126.61 77.46 145.69 78.46"/>
      <g>
        <path class="cls-36" d="M104.1,88.55c.72,2.57,2.52,4.83,4.89,6.07,.52,.27,1.25,.15,1.54-.4,.27-.52,.15-1.25-.4-1.54-.25-.13-.5-.28-.74-.44-.13-.08-.25-.17-.37-.26-.03-.02-.21-.17-.08-.06s-.05-.04-.08-.07c-.44-.37-.85-.78-1.21-1.22-.02-.03-.17-.21-.07-.08s-.04-.06-.06-.08c-.08-.11-.16-.22-.23-.34-.16-.24-.31-.49-.44-.74-.07-.13-.14-.27-.2-.4-.03-.06-.06-.12-.08-.19-.06-.13,.08,.2,0,0-.11-.28-.2-.57-.29-.86-.16-.57-.8-.97-1.38-.79s-.96,.78-.79,1.38h0Z"/>
        <path class="cls-36" d="M112.25,96.69l1.94,1.21c.24,.15,.59,.19,.87,.11s.54-.27,.67-.52c.14-.26,.21-.58,.11-.87s-.26-.51-.52-.67l-1.94-1.21c-.24-.15-.59-.19-.87-.11s-.54,.27-.67,.52c-.14,.26-.21,.58-.11,.87s.26,.51,.52,.67h0Z"/>
      </g>
      <path class="cls-36" d="M100.14,41.79c1.32-2.45,1.24-5.56-.29-7.9-.32-.49-1.01-.75-1.54-.4-.49,.32-.75,1.01-.4,1.54,.16,.24,.3,.48,.42,.74,.03,.06,.06,.13,.09,.19-.04-.11-.04-.1,0,.02,.05,.13,.1,.27,.14,.4,.08,.27,.15,.55,.2,.82,.01,.07,.02,.14,.03,.21-.02-.12-.02-.12,0,.02,0,.12,.02,.25,.03,.37,.01,.27,0,.53-.01,.8,0,.04-.06,.47-.02,.23-.02,.14-.05,.28-.08,.42-.06,.28-.14,.55-.24,.81-.02,.07-.05,.13-.08,.2,.05-.11,.04-.1-.01,.02-.06,.13-.12,.25-.19,.38-.28,.52-.15,1.25,.4,1.54s1.24,.15,1.54-.4h0Z"/>
      <line class="cls-22" x1="124.49" y1="67.66" x2="124.56" y2="52.41"/>
      <line class="cls-20" x1="126.75" y1="66.66" x2="126.82" y2="53.76"/>
      <circle class="cls-23" cx="121.57" cy="60.19" r="8.46"/>
      <g>
        <line class="cls-6" x1="108.33" y1="113.22" x2="104.03" y2="114.28"/>
        <line class="cls-6" x1="106.14" y1="115.44" x2="102.91" y2="116.15"/>
      </g>
      <g>
        <ellipse class="cls-39" cx="119.97" cy="48.02" rx="1.55" ry="1.22"/>
        <ellipse class="cls-39" cx="123.97" cy="48.4" rx=".96" ry=".75"/>
      </g>
      <g>
        <ellipse class="cls-39" cx="145.06" cy="48.02" rx="1.55" ry="1.22"/>
        <ellipse class="cls-39" cx="141.06" cy="48.4" rx=".96" ry=".75"/>
      </g>
      <line class="cls-7" x1="128.4" y1="85.35" x2="137.24" y2="85.35"/>
      <path class="cls-58" d="M93.86,120.16l.43-4.54c.04-.41,.48-.61,.79-.36l3.68,2.99"/>
      <path class="cls-49" d="M116.78,75.65c-.69,.35-1.37,.85-1.72,1.57-.37,.77-.33,1.63-.11,2.44,.13,.47,.85,.27,.72-.2-.1-.36-.16-.7-.15-1.07,0-.27,.08-.59,.2-.82,.29-.58,.84-.96,1.43-1.27,.18-.09,.23-.35,.13-.51-.11-.18-.33-.23-.51-.13h0Z"/>
      <path class="cls-19" d="M112.49,109.34c20.05,25.88,37.27,.58,37.27,.58"/>
      <line class="cls-5" x1="145.95" y1="106.92" x2="149.55" y2="109.81"/>
      <path class="cls-17" d="M121.17,111.5l9.09,4.46c.46,.21,.99,.21,1.45,0l9.3-4.32"/>
      <path class="cls-5" d="M130.86,114.86s-15.86-5.62-22.69-17.14c0,0-9.11-4.23-9.06-21.55"/>
      <path class="cls-5" d="M131.29,114.86s15.86-5.62,22.69-17.14c0,0,13.37-6.2,7.63-34.35"/>
    </g>
  </g>
</svg>