<?xml version="1.0" encoding="utf-8"?>
<!-- Generator: Adobe Illustrator 27.0.0, SVG Export Plug-In . SVG Version: 6.00 Build 0)  -->
<svg version="1.1" id="Layer_2_00000064333811069857649200000006528382337086910609_"
	 xmlns="http://www.w3.org/2000/svg" xmlns:xlink="http://www.w3.org/1999/xlink" x="0px" y="0px" viewBox="0 0 220.9 478.2"
	 style="enable-background:new 0 0 220.9 478.2;" xml:space="preserve">
<style type="text/css">
	.st0{fill:#FCECC5;}
	.st1{fill:#F4D182;}
	.st2{fill:#CCF5FF;}
	.st3{fill:none;stroke:#7AE3F4;stroke-width:1.3;stroke-miterlimit:10;}
	.st4{fill:#5ECBDD;}
	.st5{fill:#FFFFFF;}
	.st6{fill:none;stroke:#4C4047;stroke-width:0.75;stroke-linecap:round;stroke-linejoin:round;}
	.st7{fill:none;stroke:#4C4047;stroke-width:1.15;stroke-linecap:round;stroke-linejoin:round;}
	.st8{fill:none;stroke:#4C4047;stroke-linecap:round;stroke-linejoin:round;}
	.st9{fill:none;stroke:#4C4047;stroke-linecap:round;stroke-linejoin:round;stroke-dasharray:0,0,2.45,2.45;}
	.st10{fill:none;stroke:#4C4047;stroke-linecap:round;stroke-linejoin:round;stroke-dasharray:0,0,2.19,2.19;}
	.st11{opacity:0.48;fill:#5ECBDD;enable-background:new    ;}
	.st12{opacity:0.45;fill:#F3EBFC;enable-background:new    ;}
	.st13{fill:#FFC639;}
	.st14{fill:#FFDD36;}
	.st15{opacity:0.45;fill:#E5D7F9;enable-background:new    ;}
	.st16{fill:none;stroke:#FFA300;stroke-width:2;stroke-linecap:round;stroke-linejoin:round;}
	.st17{fill:none;stroke:#FFA300;stroke-linecap:round;stroke-linejoin:round;}
	.st18{fill:none;stroke:#FFFFFF;stroke-width:0.75;stroke-linecap:round;stroke-linejoin:round;}
	.st19{fill:#FFEA94;}
	.st20{opacity:0.45;fill:#C6DEE5;enable-background:new    ;}
	
		.st21{opacity:0.29;fill:none;stroke:#FFA300;stroke-width:3;stroke-linecap:round;stroke-linejoin:round;enable-background:new    ;}
	
		.st22{opacity:0.49;fill:none;stroke:#FFA300;stroke-width:3;stroke-linecap:round;stroke-linejoin:round;enable-background:new    ;}
	.st23{fill:none;stroke:#FFA300;stroke-width:3;stroke-linecap:round;stroke-linejoin:round;}
	
		.st24{opacity:0.4;fill:none;stroke:#FFFFFF;stroke-width:2;stroke-linecap:round;stroke-linejoin:round;enable-background:new    ;}
	
		.st25{opacity:0.72;fill:none;stroke:#FFFFFF;stroke-width:2;stroke-linecap:round;stroke-linejoin:round;enable-background:new    ;}
	.st26{fill:#FFD55F;}
	.st27{opacity:0.51;}
	.st28{fill:#7AE3F4;}
	
		.st29{opacity:0.53;fill:none;stroke:#7AE3F4;stroke-width:3;stroke-linecap:round;stroke-linejoin:round;enable-background:new    ;}
	.st30{fill:none;stroke:#7AE3F4;stroke-width:3;stroke-linecap:round;stroke-linejoin:round;}
	.st31{opacity:0.39;}
	.st32{fill:#FFA300;}
	
		.st33{opacity:0.47;fill:none;stroke:#7AE3F4;stroke-width:3;stroke-linecap:round;stroke-linejoin:round;enable-background:new    ;}
	.st34{fill:#87C400;}
	.st35{fill:#9FAF00;}
	.st36{fill:#D8FF33;}
	.st37{fill:none;stroke:#87C400;stroke-width:2;stroke-linecap:round;stroke-linejoin:round;}
	.st38{fill:#FFB966;}
	.st39{fill:none;stroke:#FFFFFF;stroke-width:1.15;stroke-linecap:round;stroke-linejoin:round;}
	.st40{fill:#4C4047;}
	
		.st41{opacity:0.41;fill:none;stroke:#E27A0A;stroke-width:4;stroke-linecap:round;stroke-linejoin:round;enable-background:new    ;}
	.st42{fill:none;stroke:#E27A0A;stroke-width:4;stroke-linecap:round;stroke-linejoin:round;}
	
		.st43{opacity:0.32;fill:none;stroke:#FFFFFF;stroke-width:4;stroke-linecap:round;stroke-linejoin:round;enable-background:new    ;}
	.st44{fill:none;stroke:#FFFFFF;stroke-width:4;stroke-linecap:round;stroke-linejoin:round;}
	
		.st45{opacity:0.4;fill:none;stroke:#E27A0A;stroke-width:2;stroke-linecap:round;stroke-linejoin:round;enable-background:new    ;}
	.st46{fill:#AF694C;}
	.st47{fill:none;stroke:#93482E;stroke-width:1.91;stroke-linecap:round;stroke-linejoin:round;}
	
		.st48{opacity:0.29;fill:none;stroke:#EDA48A;stroke-width:1.91;stroke-linecap:round;stroke-linejoin:round;enable-background:new    ;}
	.st49{fill:none;stroke:#4C4047;stroke-width:0.84;stroke-linecap:round;stroke-linejoin:round;}
	.st50{fill:#FF3939;}
	.st51{opacity:0.26;}
	.st52{opacity:0.23;}
	.st53{fill:#BC0029;}
	.st54{fill:none;stroke:#4C4047;stroke-width:1.1;stroke-linecap:round;stroke-linejoin:round;}
	.st55{opacity:0.2;fill:#FFFFFF;enable-background:new    ;}
	.st56{opacity:0.42;fill:#FFFFFF;enable-background:new    ;}
	.st57{fill:#56FC76;}
	.st58{fill:none;stroke:#4C4047;stroke-width:0.72;stroke-linecap:round;stroke-linejoin:round;}
	
		.st59{opacity:0.69;fill:none;stroke:#FFFFFF;stroke-width:2.86;stroke-linecap:round;stroke-linejoin:round;enable-background:new    ;}
	.st60{fill:#F9AE4B;}
	
		.st61{opacity:0.33;fill:none;stroke:#C6DEE5;stroke-width:3;stroke-linecap:round;stroke-linejoin:round;enable-background:new    ;}
	
		.st62{opacity:0.47;fill:none;stroke:#F79014;stroke-width:2;stroke-linecap:round;stroke-linejoin:round;enable-background:new    ;}
	.st63{fill:none;stroke:#F79014;stroke-width:2;stroke-linecap:round;stroke-linejoin:round;}
	.st64{fill:#ADE700;}
	.st65{fill:#A2CE00;}
	.st66{fill:#C6DEE5;}
	.st67{fill:none;stroke:#4C4047;stroke-width:0.96;stroke-linecap:round;stroke-linejoin:round;}
	.st68{fill:none;stroke:#FFFFFF;stroke-width:1.35;stroke-linecap:round;stroke-linejoin:round;}
	.st69{fill:#EFA603;}
	.st70{fill:#FDFFFF;}
	.st71{fill:none;stroke:#4C4047;stroke-width:1.01;stroke-linecap:round;stroke-linejoin:round;}
	.st72{fill:none;stroke:#4C4047;stroke-width:0.79;stroke-linecap:round;stroke-linejoin:round;}
	.st73{fill:none;stroke:#4C4047;stroke-width:0.99;stroke-linecap:round;stroke-linejoin:round;}
	.st74{fill:#92FF5F;}
	.st75{fill:#FFE5A4;}
	.st76{fill:#80B1BC;}
	.st77{fill:none;stroke:#4C4047;stroke-width:1.25;stroke-linecap:round;stroke-linejoin:round;}
	.st78{fill:#FFE9B8;}
	.st79{fill:#FFC533;}
	.st80{fill:#E59E00;}
	.st81{fill:#F9C662;}
	.st82{fill:none;stroke:#E29700;stroke-width:1.86;stroke-miterlimit:10;}
	.st83{fill:none;stroke:#4C4047;stroke-width:1.16;stroke-linecap:round;stroke-linejoin:round;}
	.st84{fill:none;stroke:#4C4047;stroke-width:0.93;stroke-linecap:round;stroke-linejoin:round;}
	.st85{fill:#FFB000;}
	.st86{fill:none;stroke:#D67A00;stroke-width:1.86;stroke-linecap:round;stroke-linejoin:round;}
	.st87{fill:none;stroke:#FFF1CF;stroke-width:1.86;stroke-linecap:round;stroke-linejoin:round;}
	.st88{fill:#07D329;}
	.st89{fill:#FFD576;}
	.st90{fill:#FFEDCA;}
	
		.st91{opacity:0.42;fill:none;stroke:#FFFFFF;stroke-width:2;stroke-linecap:round;stroke-linejoin:round;enable-background:new    ;}
	.st92{fill:none;stroke:#FFFFFF;stroke-width:2;stroke-linecap:round;stroke-linejoin:round;}
	.st93{fill:none;stroke:#07D329;stroke-width:3;stroke-linecap:round;stroke-linejoin:round;}
	
		.st94{opacity:0.42;fill:none;stroke:#07D329;stroke-width:3;stroke-linecap:round;stroke-linejoin:round;enable-background:new    ;}
	.st95{fill:#ED7D03;}
	.st96{fill:#F3BE75;}
	.st97{fill:#EF9830;}
	.st98{opacity:0.81;}
	
		.st99{opacity:0.47;fill:none;stroke:#FFFFFF;stroke-width:3;stroke-linecap:round;stroke-linejoin:round;enable-background:new    ;}
	
		.st100{opacity:0.62;fill:none;stroke:#FFFFFF;stroke-width:3;stroke-linecap:round;stroke-linejoin:round;enable-background:new    ;}
	
		.st101{opacity:0.35;fill:none;stroke:#EF9830;stroke-width:3;stroke-linecap:round;stroke-linejoin:round;enable-background:new    ;}
	
		.st102{opacity:0.52;fill:none;stroke:#EF9830;stroke-width:3;stroke-linecap:round;stroke-linejoin:round;enable-background:new    ;}
	
		.st103{opacity:0.67;fill:none;stroke:#EF9830;stroke-width:3;stroke-linecap:round;stroke-linejoin:round;enable-background:new    ;}
	.st104{opacity:0.52;fill:#EF9830;enable-background:new    ;}
	
		.st105{opacity:0.31;fill:none;stroke:#FCBB17;stroke-width:2;stroke-linecap:round;stroke-linejoin:round;enable-background:new    ;}
	
		.st106{opacity:0.86;fill:none;stroke:#FCBB17;stroke-width:2;stroke-linecap:round;stroke-linejoin:round;enable-background:new    ;}
	.st107{fill:none;stroke:#FFFFFF;stroke-linecap:round;stroke-linejoin:round;}
	.st108{fill:none;stroke:#F9B200;stroke-linecap:round;stroke-linejoin:round;}
	.st109{fill:none;stroke:#05DD29;stroke-linecap:round;stroke-linejoin:round;}
	.st110{fill:#F48456;}
	.st111{fill:#EA5C2A;}
	.st112{fill:none;stroke:#FFCEBD;stroke-width:2;stroke-linecap:round;stroke-linejoin:round;}
	
		.st113{opacity:0.27;fill:none;stroke:#C63509;stroke-width:2;stroke-linecap:round;stroke-linejoin:round;enable-background:new    ;}
	
		.st114{opacity:0.55;fill:none;stroke:#C63509;stroke-width:2;stroke-linecap:round;stroke-linejoin:round;enable-background:new    ;}
	.st115{opacity:0.31;}
	.st116{opacity:0.52;fill:#DB9905;enable-background:new    ;}
	.st117{fill:#FFCD5F;}
	.st118{fill:#DB9905;}
	.st119{fill:#EAAD00;}
	.st120{fill:#CACAD8;}
	.st121{opacity:0.81;fill:#8080AF;enable-background:new    ;}
	.st122{fill:#A3A3C6;}
	.st123{fill:none;stroke:#FFFFFF;stroke-width:1.41;stroke-linecap:round;stroke-linejoin:round;}
	
		.st124{opacity:0.55;fill:none;stroke:#8080AF;stroke-width:2;stroke-linecap:round;stroke-linejoin:round;enable-background:new    ;}
	.st125{fill:#FFC83E;}
	.st126{fill:none;stroke:#4C4047;stroke-width:1.06;stroke-linecap:round;stroke-linejoin:round;}
	.st127{fill:none;stroke:#4C4047;stroke-width:0.89;stroke-linecap:round;stroke-linejoin:round;}
	.st128{fill:none;stroke:#FFFFFF;stroke-width:1.25;stroke-linecap:round;stroke-linejoin:round;}
	.st129{fill:none;stroke:#4C4047;stroke-width:0.59;stroke-linecap:round;stroke-linejoin:round;}
	.st130{fill:#6B6B6B;}
	.st131{fill:none;stroke:#CE0913;stroke-width:2;stroke-linecap:round;stroke-linejoin:round;}
	
		.st132{opacity:0.5;fill:none;stroke:#CE0913;stroke-width:2;stroke-linecap:round;stroke-linejoin:round;enable-background:new    ;}
	
		.st133{opacity:0.67;fill:none;stroke:#FFABB3;stroke-width:2;stroke-linecap:round;stroke-linejoin:round;enable-background:new    ;}
	.st134{fill:none;stroke:#FFE3E7;stroke-width:2;stroke-linecap:round;stroke-linejoin:round;}
	.st135{fill:none;stroke:#B7B7B7;stroke-linecap:round;stroke-linejoin:round;}
	.st136{opacity:0.55;fill:none;stroke:#424242;stroke-linecap:round;stroke-linejoin:round;enable-background:new    ;}
</style>
<g>
	<path class="st0" d="M174.5,90.6c0.5-1.6,1.4-3.8,3-4.3l1.9-1.2c3.8-1.1,6.8-0.8,10.3-2.7c0.1-0.1,0.3-0.2,0.4-0.2l2.9-0.1
		c1.9,0.8,5.1,0.5,6.7,1.8c1.1,0.8,2.1,1.8,2.6,3.2c0.4,1.1,0.4,2.6,1,3.5"/>
	<ellipse class="st1" cx="189.8" cy="85.2" rx="2" ry="1.1"/>
	<polyline class="st2" points="169.5,96.3 159,96.3 159.4,117.8 164.1,117.8 164.9,101.6 169.6,101.6 	"/>
	<line class="st3" x1="159.6" y1="97.6" x2="168.1" y2="97.6"/>
	<path class="st2" d="M198.4,137.8h-22.3l-4.9-45.3c-0.1-0.8,0.6-1.4,1.4-1.5l29.4-0.4h6.6c-2.3,3.2-3.9,7-4.5,10.9L198.4,137.8z"/>
	<polygon class="st4" points="206.7,93.8 171.8,93.8 171.8,90.9 208.4,90.9 	"/>
	<g>
		<polygon class="st5" points="182.5,138 178.9,138 175.3,90.5 179,90.5 		"/>
		<polygon class="st5" points="184.8,138.1 183.4,138.1 179.7,90.5 181.2,90.5 		"/>
	</g>
	<g>
		<line class="st6" x1="173.9" y1="128.9" x2="179.7" y2="128.9"/>
		<line class="st6" x1="169.3" y1="126.7" x2="176.9" y2="126.7"/>
		<line class="st6" x1="166.8" y1="124.4" x2="173" y2="124.4"/>
	</g>
	<line class="st7" x1="186.4" y1="124.9" x2="199.8" y2="124.9"/>
	<g>
		<line class="st8" x1="189.3" y1="120.3" x2="191.3" y2="120.3"/>
		<line class="st9" x1="193.8" y1="120.3" x2="197.4" y2="120.3"/>
		<line class="st8" x1="198.7" y1="120.3" x2="200.7" y2="120.3"/>
	</g>
	<g>
		<line class="st8" x1="182.2" y1="129.6" x2="183.2" y2="129.6"/>
		<line class="st10" x1="185.4" y1="129.6" x2="197.4" y2="129.6"/>
		<line class="st8" x1="198.6" y1="129.6" x2="199.6" y2="129.6"/>
	</g>
	<g>
		<line class="st8" x1="196.5" y1="111" x2="198.5" y2="111"/>
		<line class="st8" x1="200.8" y1="111" x2="202.8" y2="111"/>
	</g>
	<line class="st7" x1="192.5" y1="115.6" x2="201.8" y2="115.6"/>
	<line class="st7" x1="198.8" y1="106.2" x2="203.2" y2="106.2"/>
	<line class="st7" x1="200.5" y1="101.5" x2="203.9" y2="101.5"/>
	<g>
		<path class="st7" d="M193,81.9c6.7,0,10.3,3.2,10.3,8.4"/>
		<path class="st7" d="M174.5,90.6l0.1-0.3c1.3-3.4,4.4-5.8,8-6.2c2.6-0.3,5.1-0.7,7-1.8"/>
	</g>
	<g>
		<polyline class="st7" points="164.5,108.8 164.9,101.6 169.5,101.6 		"/>
		<polyline class="st7" points="169.5,96.3 159,96.3 159.4,117.8 164.1,117.8 164.3,112.7 		"/>
	</g>
	<circle class="st11" cx="199.4" cy="96.8" r="0.8"/>
	<circle class="st11" cx="195.7" cy="95.7" r="0.8"/>
	<circle class="st11" cx="202.4" cy="93.8" r="0.8"/>
	<circle class="st11" cx="201.6" cy="96.3" r="0.5"/>
	<circle class="st11" cx="197.1" cy="96.9" r="0.5"/>
	<circle class="st11" cx="199.2" cy="95.1" r="0.5"/>
	<ellipse class="st1" cx="192.8" cy="87.3" rx="2" ry="1.1"/>
	<ellipse class="st1" cx="185.8" cy="85.9" rx="0.8" ry="0.4"/>
	<ellipse class="st1" cx="188.2" cy="87.3" rx="0.8" ry="0.4"/>
	<ellipse class="st1" cx="181.8" cy="88.3" rx="0.9" ry="0.5"/>
	<ellipse class="st1" cx="197.5" cy="88.8" rx="0.9" ry="0.5"/>
	<ellipse class="st1" cx="185.5" cy="88.8" rx="0.9" ry="0.5"/>
	<path class="st4" d="M188.3,134.7h7.2c0.8,0,1.4,0.6,1.4,1.4v0c0,0.8-0.6,1.4-1.4,1.4h-7.2c-0.8,0-1.4-0.6-1.4-1.4v0
		C186.8,135.4,187.5,134.7,188.3,134.7z"/>
	<path class="st4" d="M173.4,113l-1.2-11.4c0-0.8,0.6-1.5,1.4-1.5l0,0c0.8,0,1.5,0.6,1.5,1.4l1.2,11.4c0,0.8-0.6,1.4-1.4,1.5h0
		C174.1,114.4,173.4,113.8,173.4,113L173.4,113z"/>
	<path class="st7" d="M197.1,138h-19.4c-0.9,0-1.6-0.7-1.6-1.6l-4.9-44.2c-0.1-0.8,0.6-1.4,1.4-1.4h36c-1.4,1.9-3.2,5-3.2,5
		s-1,4.2-1.2,5.9l-5.5,34.9C198.6,137.4,198,138,197.1,138L197.1,138z"/>
	<line class="st6" x1="159.6" y1="106" x2="162.3" y2="106"/>
	<line class="st6" x1="196.4" y1="97.6" x2="204.4" y2="97.6"/>
</g>
<g>
	<ellipse class="st12" cx="120.2" cy="111" rx="16.8" ry="24.2"/>
	<ellipse class="st13" cx="120.2" cy="116.6" rx="10.1" ry="12"/>
	<ellipse class="st14" cx="118.1" cy="116.6" rx="5.5" ry="6.3"/>
	<ellipse class="st5" cx="115.3" cy="114.3" rx="1.3" ry="1.4"/>
	<ellipse class="st5" cx="117.3" cy="112.1" rx="0.6" ry="0.7"/>
	<path class="st15" d="M137.2,110.5c0,13.4-7.5,24.2-16.8,24.2c-7.6,0-13.9-7.2-16.1-17.1c2.8,7.6,8.4,12.7,14.8,12.7
		c9.3,0,16.8-10.8,16.8-24.2c0-2.5-0.3-4.9-0.7-7.1C136.5,102.5,137.2,106.4,137.2,110.5z"/>
	<path class="st13" d="M125.6,116.1c0,1.2-0.9,2.6-2.4,2.9c-0.8,0.2-1.7-0.1-2.3-0.6c-0.7-0.5-1.1-1.4-1.1-2.3
		c0-0.9,0.4-1.8,1.1-2.3c0.7-0.6,1.6-0.8,2.3-0.6C124.8,113.5,125.6,114.9,125.6,116.1L125.6,116.1z M125.6,116.1
		c0-0.6-0.3-1.3-0.8-1.6c-0.5-0.4-1.1-0.5-1.6-0.3c-1.1,0.3-1.4,1.2-1.4,1.9c0,0.7,0.4,1.6,1.4,1.9c0.5,0.1,1.1,0.1,1.6-0.3
		C125.3,117.4,125.6,116.8,125.6,116.1z"/>
	<path class="st16" d="M117.4,105.9c1-0.4,2.7-0.8,4.8-0.2"/>
	<path class="st7" d="M129.2,111c-0.5-1.9-1.3-3.8-2.4-5.3c-1.6-2.2-3.8-3.9-6.1-4.5"/>
	<path class="st16" d="M121.4,127.3c0,0,4.1,0.1,7.1-6"/>
	<path class="st7" d="M130.3,117.7c-0.5,6.1-4.8,10.9-10.1,10.9c-5.6,0-10.1-5.4-10.1-12c0-3.3,1.1-6.2,2.9-8.4"/>
	<path class="st7" d="M115.4,106c1.4-0.9,3.1-1.4,4.8-1.4c5.2,0,9.5,4.6,10.1,10.6"/>
	<path class="st17" d="M115.8,122.2c0,0,2.4,1.8,5.3-0.4"/>
	<path class="st18" d="M113.9,112.3c0,0,1.6-2.2,4.1-2.1"/>
	<path class="st7" d="M108.8,93.2c3-4,7-6.4,11.4-6.4c9.3,0,16.8,10.8,16.8,24.2s-7.5,24.2-16.8,24.2s-16.8-10.8-16.8-24.2"/>
	<ellipse class="st5" cx="94" cy="111" rx="16.8" ry="24.2"/>
	<ellipse class="st13" cx="94" cy="116.6" rx="10.1" ry="12"/>
	<ellipse class="st14" cx="91.9" cy="116.6" rx="5.5" ry="6.3"/>
	<ellipse class="st19" cx="91.9" cy="116.6" rx="3.1" ry="3.5"/>
	<g>
		<ellipse class="st5" cx="89.9" cy="117.2" rx="1.3" ry="1.4"/>
		<ellipse class="st5" cx="91.9" cy="114.9" rx="0.6" ry="0.7"/>
	</g>
	<path class="st20" d="M111.1,110.5c0,13.4-7.5,24.2-16.8,24.2c-7.6,0-13.9-7.2-16.1-17.1c2.8,7.6,8.4,12.7,14.8,12.7
		c9.3,0,16.8-10.8,16.8-24.2c0-2.5-0.3-4.9-0.7-7.1C110.3,102.5,111.1,106.4,111.1,110.5z"/>
	<path class="st7" d="M86.3,94.5c0.3-0.4,0.7-0.8,1.1-1.2"/>
	<path class="st7" d="M82.5,101.4c0,0,0.8-2.5,2.5-5.2"/>
	<path class="st21" d="M90.8,106.3c1.3-0.7,4.9-1.4,8.2,1.1"/>
	<path class="st22" d="M93.1,105.6c0.8-0.1,1.8,0,2.8,0.2"/>
	<path class="st7" d="M103.6,112.9c-0.8-6.6-6.1-12.4-11.7-11.7c-1.2,0.2-2.4,0.6-3.4,1.2"/>
	<path class="st22" d="M93.6,127.6l1.6-0.2c0,0,2.8-0.2,5.4-3.3c1.2-1.4,2-3.2,2.4-5l0,0"/>
	<path class="st23" d="M97.5,126.7c1.1-0.6,2.6-1.7,3.9-3.8"/>
	<path class="st7" d="M89.2,106c1.4-0.9,3.1-1.4,4.8-1.4c5.6,0,10.1,5.4,10.1,12s-4.5,12-10.1,12s-10.1-5.4-10.1-12
		c0-3.3,1.1-6.2,2.9-8.4"/>
	<path class="st17" d="M89.7,122.2c0,0,2.4,1.8,5.3-0.4"/>
	<path class="st24" d="M88.2,113.4c0,0,1.4-2.4,4.2-2.2"/>
	<path class="st25" d="M89.2,112.3c0.3-0.3,0.8-0.6,1.3-0.8"/>
	<path class="st7" d="M78.8,100.9c1.2-3.7,3-6.8,5.2-9.2"/>
	<path class="st7" d="M77.3,108.8c0.1-1.7,0.3-3.3,0.7-4.9"/>
	<path class="st7" d="M86.1,89.7c2.4-1.8,5.1-2.9,7.9-2.9c9.3,0,16.8,10.8,16.8,24.2s-7.5,24.2-16.8,24.2s-16.3-10.2-16.8-23.1"/>
</g>
<g>
	<path class="st2" d="M39.4,137.1H23c-1.4,0-2.5-1-2.6-2.4L16.4,99h29.2L42,134.7C41.9,136.1,40.8,137.1,39.4,137.1L39.4,137.1z"/>
	<path class="st26" d="M43.4,117.6l-1.5,16.8c-0.1,1.4-1.2,2.4-2.6,2.4H22.9c-1.3,0-2.5-1-2.6-2.4l-1.7-14.7l3.8-1
		c2.5-1,5.6-1,7.4,1c1.2,1.4,3.2,0.8,5,0.8c0.8,0,0.9,0.3,1.6,0L43.4,117.6L43.4,117.6z"/>
	<path class="st2" d="M16.6,96.2c0-7.9,6.4-14.4,14.4-14.4s14.4,6.4,14.4,14.4"/>
	<path class="st5" d="M38.1,83.7l0.2,0.1c-0.4,2.1-3.1,3.7-5.8,3.2c-2.6-0.5-4.5-2.9-4.2-4.9c0.7-0.1,1.6-0.2,2.3-0.2
		C33.3,81.9,35.9,82.4,38.1,83.7L38.1,83.7z"/>
	<path class="st7" d="M43.9,90c0.9,1.9,1.4,4,1.4,6.2"/>
	<line class="st7" x1="36.5" y1="75.1" x2="32.2" y2="86.5"/>
	<path class="st7" d="M38.4,84.1c-0.4,2.1-2.9,3.3-5.6,2.8c-2.6-0.6-4.4-2.7-4-4.8"/>
	<g class="st27">
		<path class="st5" d="M21,89.9c0.2-0.3,0.4-0.7,0.7-1l-0.2,0.3c0.7-0.9,1.5-1.7,2.4-2.4L23.6,87c0.5-0.4,1.1-0.8,1.7-1.1
			c0.7-0.4,1-1.4,0.5-2.1s-1.3-0.9-2-0.5c-2.2,1.2-4,3-5.4,5.1C18.1,89,18.3,90,19,90.4C19.8,90.8,20.6,90.6,21,89.9L21,89.9
			L21,89.9z"/>
	</g>
	<g class="st27">
		<path class="st5" d="M21.8,88.8c0.5-0.6,1.1-1.2,1.6-1.7c0.1-0.1,0.2-0.3,0.3-0.5c0.1-0.2,0.1-0.4,0.1-0.6c0-0.2,0-0.4-0.1-0.6
			c-0.1-0.2-0.2-0.3-0.3-0.5c-0.3-0.3-0.7-0.5-1.1-0.4L22,84.6c-0.2,0.1-0.5,0.2-0.7,0.4c-0.6,0.5-1.1,1.1-1.6,1.7
			c-0.1,0.1-0.2,0.3-0.3,0.5c-0.1,0.2-0.1,0.4-0.1,0.6c0,0.2,0,0.4,0.1,0.6c0.1,0.2,0.2,0.3,0.3,0.5c0.3,0.3,0.7,0.5,1.1,0.4
			l0.4-0.1C21.4,89.1,21.6,89,21.8,88.8C21.8,88.8,21.8,88.8,21.8,88.8z"/>
	</g>
	<path class="st28" d="M35,101.2H16.5V99h28.8C42.1,100.5,38.6,101.2,35,101.2z"/>
	<g>
		<polygon class="st5" points="25.8,137.1 22,137.1 31,99 34.8,99 		"/>
		<polygon class="st5" points="28.1,137.1 26.6,137.1 35.6,99 37.1,99 		"/>
	</g>
	<g>
		<ellipse class="st5" cx="21.8" cy="123.6" rx="1.3" ry="1.4"/>
		<ellipse class="st5" cx="23.9" cy="121.3" rx="0.6" ry="0.7"/>
	</g>
	<g>
		<line class="st29" x1="43.7" y1="102.4" x2="42.5" y2="113.9"/>
		<line class="st30" x1="43.5" y1="104.5" x2="42.9" y2="110.1"/>
	</g>
	<g>
		<line class="st29" x1="18.5" y1="103.4" x2="19.7" y2="114.9"/>
		<line class="st30" x1="18.7" y1="105.5" x2="19.3" y2="111"/>
	</g>
	<polyline class="st7" points="18.1,114 16.4,99 45.6,99 44.7,107.1 	"/>
	<line class="st22" x1="31.1" y1="135.8" x2="39.6" y2="135.8"/>
	<line class="st23" x1="34.6" y1="135.8" x2="37.5" y2="135.8"/>
	<path class="st23" d="M34.3,121.5c0,0,2,0.2,4.3-0.5"/>
	<path class="st7" d="M18.7,119.7l3.1-1c2.7-0.8,5.6-0.6,8.1,0.7l0,0c3.2,1.6,7,1.6,10.2-0.2l3.3-1.8"/>
	<line class="st22" x1="42.1" y1="123.4" x2="41.1" y2="132.2"/>
	<line class="st23" x1="41.7" y1="126.4" x2="41.3" y2="129.5"/>
	<line class="st7" x1="19.7" y1="128.2" x2="18.5" y2="117.6"/>
	<path class="st7" d="M44.4,110.2L42,134.8c-0.1,1.4-1.2,2.4-2.6,2.4H23c-1.4,0-2.5-1-2.6-2.4l-0.4-3.6"/>
	<g class="st31">
		<circle class="st32" cx="33.4" cy="128.6" r="1"/>
		<circle class="st32" cx="34.8" cy="127.1" r="0.5"/>
		<circle class="st32" cx="32.4" cy="132.7" r="0.9"/>
		<circle class="st32" cx="32.7" cy="123.9" r="0.5"/>
		<circle class="st32" cx="37.7" cy="131.1" r="0.6"/>
		<circle class="st32" cx="41.8" cy="120.5" r="0.4"/>
		<circle class="st32" cx="37.2" cy="125" r="0.3"/>
	</g>
	<path class="st2" d="M14.4,95.3h33.2c1.1,0,2,0.9,2,2v0c0,1.1-0.9,2-2,2H14.4c-1.1,0-2-0.9-2-2v0C12.4,96.2,13.3,95.3,14.4,95.3z"
		/>
	<g>
		<line class="st33" x1="28.4" y1="96.2" x2="43.4" y2="96.2"/>
		<line class="st30" x1="33.6" y1="96.2" x2="37.5" y2="96.2"/>
	</g>
	<g>
		<line class="st33" x1="30.6" y1="94.6" x2="40.6" y2="94.6"/>
		<line class="st30" x1="32.8" y1="94.6" x2="36.8" y2="94.6"/>
	</g>
	<path class="st7" d="M26,95.3h21.6c1.1,0,2,0.9,2,2l0,0c0,1.1-0.9,2-2,2H14.4c-1.1,0-2-0.9-2-2l0,0c0-1.1,0.9-2,2-2h8.2"/>
	<path class="st7" d="M38.2,83.8c1.6,0.9,3,2.2,4.1,3.6"/>
	<path class="st7" d="M31,81.9c2,0,3.9,0.4,5.6,1.1"/>
	<path class="st7" d="M16.6,95.3c0.4-6.7,5.5-12.2,12-13.2"/>
</g>
<g>
	<g>
		<path class="st34" d="M47.4,21.2l2.2,1.1c1.6,0.8,1.9,3,0.5,4.1l-6.4,3.9l-2.8-3.5"/>
		<path class="st7" d="M43.3,30.5l6.7-4.1c1.4-1.1,1.1-3.3-0.5-4.1l-2.2-1.1"/>
	</g>
	<path class="st35" d="M37.6,14.1l-1.8-1.7c-1.3-1.2-3.5-0.7-4,1l-1.4,7.4l4.3,1.4"/>
	<path class="st7" d="M30.4,21.2l1.5-7.7c0.6-1.7,2.7-2.2,4-1l1.8,1.7"/>
	<path class="st36" d="M33,20.9l2-10.1c0.2-1,1.3-1.4,2.1-0.9l1,0.7l2.9-3.3l1-1.2c1-1.1,2.7-1.3,3.9-0.5l0,0
		c1.2,0.8,1.6,2.5,0.9,3.8L44,14.8l1.5-0.8c0.8-0.4,1.8-0.4,2.5,0.2l0,0c0.9,0.6,1.2,1.7,0.9,2.7l-1.3,4.3l0,0
		c1.1,0.7,1.1,2.3,0,3.1L43,27.4"/>
	<line class="st37" x1="36.7" y1="22.1" x2="42.4" y2="25.9"/>
	<line class="st37" x1="35.4" y1="14.9" x2="39" y2="17.2"/>
	<line class="st37" x1="45.4" y1="19.9" x2="47.5" y2="21.3"/>
	<path class="st38" d="M32.3,44.2L19.7,58.7c-1.6,2-4.5,2.3-6.6,0.9l0,0c-2.1-1.4-2.7-4.2-1.5-6.4l17.2-32.7c0.5-1,1.8-1.2,2.7-0.6
		l12.1,8.3c0.9,0.6,1.1,1.9,0.4,2.8l-7.3,8.3"/>
	<path class="st39" d="M42,8.1l1-1.2c1-1.1,2.7-1.3,3.9-0.5l0,0"/>
	<line class="st7" x1="35" y1="13.4" x2="39" y2="16.2"/>
	<line class="st7" x1="45.4" y1="18.3" x2="47.9" y2="20"/>
	<circle class="st40" cx="34.4" cy="41.9" r="0.8"/>
	<line class="st41" x1="19.9" y1="56.1" x2="30.2" y2="44.6"/>
	<line class="st42" x1="22.8" y1="52.9" x2="26.9" y2="48.4"/>
	<g>
		<line class="st41" x1="36.5" y1="37" x2="41.5" y2="31.3"/>
		<line class="st42" x1="38.6" y1="34.8" x2="38.6" y2="34.7"/>
	</g>
	<line class="st7" x1="21" y1="50" x2="24.7" y2="52.5"/>
	<line class="st7" x1="36.6" y1="29.3" x2="42" y2="33"/>
	<line class="st43" x1="28.2" y1="24.1" x2="18.2" y2="43.2"/>
	<line class="st44" x1="25.3" y1="29.7" x2="21" y2="37.9"/>
	<line class="st7" x1="22.2" y1="34.4" x2="27.8" y2="38.2"/>
	<g>
		<path class="st7" d="M41.2,7.4l1-1.2c1-1.1,2.7-1.3,3.9-0.5l0,0c1.2,0.8,1.6,2.5,0.9,3.8l-2.9,5.4l1.5-0.8
			c0.8-0.4,1.8-0.4,2.5,0.2l0,0c0.9,0.6,1.2,1.7,0.9,2.7l-1.3,4.3l0,0c1.1,0.7,1.1,2.3,0,3.1l-4.6,3.1"/>
		<path class="st7" d="M33.3,20.7l1.9-9.8c0.2-1,1.3-1.4,2.1-0.9l1,0.7"/>
	</g>
	<path class="st45" d="M11.9,56.5c0,0,1.4,3.4,4.7,3"/>
	<path class="st7" d="M27.1,23.8l1.8-3.4c0.5-1,1.8-1.2,2.7-0.6l12.1,8.3c0.9,0.6,1.1,1.9,0.4,2.8l-7.3,8.3"/>
	<line class="st7" x1="15.1" y1="46.7" x2="25.8" y2="26.3"/>
	<path class="st7" d="M32.3,44.2L19.7,58.7c-1.6,2-4.5,2.3-6.6,0.9l0,0c-2.1-1.4-2.7-4.2-1.5-6.4l1.9-3.7"/>
</g>
<g>
	<path class="st46" d="M102.3,29.6c0,0-5.8-7.5-9.6-9.4l0,0c0.9-1.7,2.6-3.5,4.7-3.8l0,0c0,0,4,3.8,4.5,8.8"/>
	<path class="st47" d="M95.2,21c0.7,0.5,1.8,1.5,2.7,2.5"/>
	<path class="st48" d="M94.6,18.7c0.9-1,2.6-1.6,2.6-1.6"/>
	<path class="st48" d="M95.9,17.7c0.2-0.2,0.5-0.3,0.7-0.4"/>
	<path class="st49" d="M99.6,26.5c0,0-2.9-4.2-6.7-6.1l0,0c0.9-1.7,2.6-3.5,4.7-3.8l0,0c0,0,4,3.8,4.5,8.8"/>
	<path class="st50" d="M123.8,30.2c-1.6-3.2-4.8-5.8-8.7-6.5c-3.9-0.6-8.2,1.1-9.7,4.4h-2.3c-1.4-3.3-6.8-5-10.6-4.4
		c-3.9,0.6-6.1,3.3-7.7,6.5s-1.9,6.8-1.5,10.3c0.5,4.5,3.1,8.9,5.7,12.8c1.5,2.3,3.5,4.6,6.3,5.6c1.4,0.5,2.9,0.5,4.5,0.3
		c2.7-0.5,5.5-0.5,8.2-0.1c2,0.3,4,0.3,5.2-0.2c2.8-1,4.8-3.3,6.3-5.6c2.6-3.9,5.1-8.3,5.7-12.8C125.6,37,125.4,33.4,123.8,30.2
		L123.8,30.2z"/>
	<g class="st51">
		<path class="st5" d="M86.4,39.2c-0.1-0.6-0.2-1.4-0.2-2.2c0-0.4,0-0.7,0.1-1.1c0-0.2,0-0.3,0.1-0.5c0,0.2,0.1-0.3,0.1-0.4
			c0.3-1.6,0.8-2.8,1.6-4.1c0.4-0.7,0.2-1.6-0.5-2s-1.6-0.1-2,0.5c-1.9,3.1-2.5,6.9-1.8,10.4c0.1,0.8,1.1,1.2,1.8,1
			C86.2,40.7,86.6,39.9,86.4,39.2L86.4,39.2L86.4,39.2z"/>
	</g>
	<g class="st51">
		<path class="st5" d="M86.3,36.5c0-0.4,0.1-0.8,0.1-1.2l-0.1,0.4c0.1-0.8,0.3-1.6,0.5-2.3c0.2-0.7-0.3-1.6-1-1.8
			c-0.8-0.2-1.5,0.2-1.8,1c-0.4,1.3-0.6,2.6-0.7,3.9c0,0.8,0.7,1.5,1.4,1.4C85.6,37.9,86.2,37.4,86.3,36.5
			C86.3,36.6,86.3,36.6,86.3,36.5z"/>
	</g>
	<g class="st52">
		<path class="st53" d="M105.5,57.1c0.9,1.6,2.3,2.7,4.2,2.7s3.7-0.5,5.2-1.5c3.3-2.1,5.5-5.4,7.2-8.8c1.8-3.6,3.6-7.4,3.6-11.6
			c0-3.8-1.1-7.8-3.8-10.7c-1.5-1.6-3.4-2.7-5.5-3.3c-2.3-0.6-4.5-0.3-6.8,0.2c-1.8,0.5-1,3.2,0.8,2.8c2-0.5,4-0.8,6,0
			c1.8,0.7,3.4,2,4.4,3.5c2.1,3.2,2.5,7.7,1.5,11.3c-0.6,2-1.5,4-2.5,5.9c-0.9,1.7-1.8,3.5-3,5s-2.6,2.9-4.3,3.7
			c-0.8,0.3-1.6,0.5-2.4,0.5c-1,0-1.6-0.4-2.1-1.3C107.1,54.1,104.6,55.5,105.5,57.1L105.5,57.1L105.5,57.1z"/>
	</g>
	<g class="st27">
		<path class="st53" d="M113.4,23.5c-1.3,0-2.6,0.3-3.8,0.6c-0.7,0.2-1.2,1-1,1.8s1,1.2,1.8,1s1.5-0.4,2.3-0.5l-0.4,0
			c0.4,0,0.7-0.1,1.1-0.1s0.8-0.1,1-0.4c0.2-0.2,0.4-0.7,0.4-1s-0.1-0.8-0.4-1S113.8,23.5,113.4,23.5
			C113.4,23.5,113.4,23.5,113.4,23.5z"/>
	</g>
	<g class="st27">
		<path class="st53" d="M121.8,50.1c1.7-3.4,3.5-6.9,3.9-10.8c0.1-0.8-0.7-1.4-1.4-1.4c-0.8,0-1.4,0.7-1.4,1.4c0,0.1-0.1,0.6,0,0.4
			c0,0.2-0.1,0.4-0.1,0.6c-0.1,0.4-0.2,0.9-0.3,1.3c-0.2,0.8-0.5,1.6-0.8,2.4c-0.6,1.5-1.4,3.1-2.2,4.5c-0.3,0.7-0.2,1.5,0.5,2
			C120.5,51,121.4,50.8,121.8,50.1L121.8,50.1L121.8,50.1z"/>
	</g>
	<g class="st27">
		<path class="st53" d="M105.5,57.1c0.2,0.4,0.4,0.7,0.7,1c0.2,0.2,0.4,0.5,0.7,0.7c0.2,0.2,0.4,0.3,0.6,0.5s0.5,0.2,0.7,0.3
			c0.4,0.2,0.8,0.2,1.2,0.2c0.3,0,0.8-0.2,1-0.4s0.4-0.7,0.4-1s-0.1-0.8-0.4-1s-0.6-0.4-1-0.4c-0.1,0-0.1,0-0.2,0l0.4,0
			c-0.2,0-0.4-0.1-0.7-0.2l0.3,0.1c-0.2-0.1-0.4-0.2-0.7-0.4l0.3,0.2c-0.3-0.2-0.5-0.4-0.7-0.7l0.2,0.3c-0.2-0.2-0.3-0.5-0.4-0.7
			c-0.2-0.3-0.5-0.6-0.9-0.7s-0.8,0-1.1,0.1s-0.6,0.5-0.7,0.9C105.3,56.4,105.3,56.8,105.5,57.1L105.5,57.1L105.5,57.1z"/>
	</g>
	<g>
		<path class="st54" d="M88.2,52.2c0.2,0.4,0.5,0.7,0.7,1.1c1.5,2.3,3.5,4.6,6.3,5.6c1.6,0.6,3.2,0.7,5.4,0.4"/>
		<path class="st54" d="M103.1,28.2c-1.4-3.3-5.8-5-9.7-4.4s-7.1,3.3-8.7,6.5s-1.9,6.8-1.5,10.3c0.3,2.8,1.4,5.5,2.8,8.1"/>
		<path class="st54" d="M106.9,59.3c2.6,0.1,4.5,0.2,6.3-0.4c2.8-1,4.8-3.3,6.3-5.6c2.6-3.9,5.1-8.3,5.7-12.8
			c0.4-3.5,0.2-7.1-1.5-10.3c-1.6-3.2-4.8-5.8-8.7-6.5c-3.9-0.6-8.2,1.1-9.7,4.4"/>
	</g>
	<ellipse class="st55" cx="95.3" cy="34.2" rx="5.3" ry="6"/>
	<ellipse transform="matrix(0.1829 -0.9831 0.9831 0.1829 43.9533 118.2194)" class="st56" cx="93.1" cy="32.7" rx="2.3" ry="2"/>
	<circle class="st40" cx="87.2" cy="50.5" r="0.6"/>
	<path class="st57" d="M113.7,20.6c-2.7,6.2-10.2,8.9-10.2,8.9s-3.3-7.3-0.6-13.5C105.5,9.8,113,7,113,7S116.3,14.4,113.7,20.6z"/>
	<path class="st58" d="M110.9,11.9c-1.1,9.4-7.1,16.9-7.1,16.9"/>
	<circle class="st40" cx="103.6" cy="58.9" r="1.1"/>
	<path class="st59" d="M103,19.4c0,0,0.5-5.8,6.1-9.2"/>
	<path class="st59" d="M104,16.1c0.5-1.1,1.2-2.4,2.4-3.6"/>
	<path class="st54" d="M114.7,15.6c0,1.6-0.3,3.4-1,5c-2.7,6.2-10.2,8.9-10.2,8.9s-3.3-7.3-0.6-13.5C105.5,9.8,113,7,113,7
		s1.2,2.6,1.5,6"/>
	<line class="st58" x1="104.1" y1="23" x2="105.4" y2="25.8"/>
	<line class="st58" x1="107" y1="18.2" x2="107.9" y2="21.3"/>
	<line class="st58" x1="109.1" y1="12.6" x2="110.1" y2="15.6"/>
	<line class="st58" x1="107.2" y1="23.3" x2="109.3" y2="23.3"/>
	<line class="st58" x1="109.6" y1="17.9" x2="111.7" y2="17.9"/>
</g>
<g>
	<path class="st5" d="M192.9,11.6h6c0.9,0,1.7,0.8,1.7,1.7v45.9c0,0.9-0.8,1.7-1.7,1.7h-33.3c-0.9,0-1.7-0.8-1.7-1.7V41.7"/>
	<path class="st54" d="M163.9,20.6v-7.4c0-0.9,0.8-1.7,1.7-1.7h6.2"/>
	<line class="st54" x1="163.9" y1="35.5" x2="163.9" y2="24.3"/>
	<polyline class="st60" points="177.3,16.9 171.8,16.9 171.8,4.8 192.4,4.8 192.4,16.9 180.5,16.9 	"/>
	<line class="st54" x1="178" y1="27" x2="190.9" y2="27"/>
	<line class="st54" x1="178" y1="31.4" x2="186.8" y2="31.4"/>
	<g>
		<line class="st54" x1="178" y1="44.5" x2="190.5" y2="44.5"/>
		<line class="st54" x1="178" y1="48.8" x2="186.4" y2="48.8"/>
	</g>
	<g>
		<line class="st54" x1="178" y1="35.8" x2="193.1" y2="35.8"/>
		<line class="st54" x1="178" y1="40.1" x2="186.4" y2="40.1"/>
	</g>
	<g>
		<circle class="st14" cx="172.4" cy="29" r="1.7"/>
		<circle class="st14" cx="172.4" cy="37.5" r="1.7"/>
		<circle class="st14" cx="172.4" cy="46.6" r="1.7"/>
	</g>
	<circle class="st40" cx="163.9" cy="38.7" r="0.9"/>
	<circle class="st5" cx="176.6" cy="10.5" r="1.7"/>
	<circle class="st5" cx="188.1" cy="10.5" r="1.7"/>
	<circle class="st54" cx="188.2" cy="10.7" r="1.7"/>
	<g>
		<line class="st61" x1="174.3" y1="18.3" x2="184.3" y2="18.3"/>
		<line class="st61" x1="177" y1="18.3" x2="180" y2="18.3"/>
	</g>
	<g>
		<line class="st61" x1="165.3" y1="46" x2="165.3" y2="55.9"/>
		<line class="st61" x1="165.3" y1="48.7" x2="165.3" y2="51.7"/>
	</g>
	<g>
		<line class="st61" x1="199.1" y1="21.9" x2="199.1" y2="31.8"/>
		<line class="st61" x1="199.1" y1="24.5" x2="199.1" y2="27.5"/>
	</g>
	<path class="st54" d="M192.9,11.6h6c0.9,0,1.7,0.8,1.7,1.7v45.9c0,0.9-0.8,1.7-1.7,1.7h-33.3c-0.9,0-1.7-0.8-1.7-1.7V41.7"/>
	<g>
		<line class="st62" x1="174.4" y1="6" x2="189.4" y2="6"/>
		<line class="st63" x1="182.7" y1="6" x2="186.1" y2="6"/>
		<line class="st63" x1="177.1" y1="6" x2="178.6" y2="6"/>
	</g>
	<g>
		<line class="st62" x1="176" y1="15.9" x2="191" y2="15.9"/>
		<line class="st63" x1="184.3" y1="15.9" x2="187.8" y2="15.9"/>
		<line class="st63" x1="178.8" y1="15.9" x2="180.2" y2="15.9"/>
	</g>
	<polyline class="st54" points="177.5,17 172,17 172,4.9 192.6,4.9 192.6,17 180.7,17 	"/>
	<circle class="st54" cx="176.6" cy="10.7" r="1.7"/>
	<g>
		<circle class="st6" cx="172.1" cy="29" r="1.7"/>
		<circle class="st6" cx="172.1" cy="37.5" r="1.7"/>
		<circle class="st6" cx="172.1" cy="46.5" r="1.7"/>
	</g>
	<line class="st6" x1="172" y1="14.8" x2="176.2" y2="14.8"/>
	<line class="st6" x1="188.2" y1="7.4" x2="192.4" y2="7.4"/>
	<line class="st6" x1="196" y1="55.7" x2="200.1" y2="55.7"/>
	<line class="st6" x1="191.7" y1="55.7" x2="193.8" y2="55.7"/>
</g>
<g>
	<path class="st64" d="M34.3,183.9c1.2-2.6,3-4.9,5.2-6.6s5.2-2.6,8-2.3c0.2,0,0.4,0.1,0.5,0.2c0.1,0.1,0.2,0.2,0.2,0.4
		c1.8,5.6-0.6,12.3-5.6,15.5l-8.5,0L34.3,183.9L34.3,183.9z"/>
	<path class="st36" d="M34.4,186.5c0.8-1.7,2-3.3,3.5-4.4c1.5-1.1,3.4-1.8,5.3-1.6c0.1,0,0.3,0,0.4,0.1c0.1,0.1,0.1,0.2,0.1,0.2
		c1.2,3.7-0.4,8.2-3.7,10.3l-5.6,0L34.4,186.5L34.4,186.5z"/>
	<path class="st65" d="M28.4,191.6c-2.6-1.5-6.1-1.4-8.5-3.3c-2.9-2.3-3.2-6.6-2.7-10.3c0.5-3.7,1.4-7.6-0.1-11
		c0.4-0.5,1.1-0.4,1.7-0.2c5,1.6,9.6,4.8,12.4,9.2s4,10,2.7,15.1"/>
	<path class="st36" d="M29.4,191.4c-1.8-1.1-2.2-2.6-3.9-3.8c-2-1.6-4.5-3.2-4.2-5.7s-1.1-8.6-2.1-10.9c0.2-0.3,0.8-0.2,1.1-0.1
		c3.4,1.1,8.6,6.6,10.6,9.7c2,3,2.3,7.6,1.5,11.1"/>
	<path class="st5" d="M57.8,191.6h7.5c0,16.3-13.2,29.4-29.4,29.4S6.4,207.8,6.4,191.6h46.4"/>
	<path class="st66" d="M65,192.9c0,16.3-12.8,28.2-29.1,28.2S6.6,208.8,6.6,192.5l0.3-0.2c2,14.3,14.2,24.6,29.1,24.6
		s26.7-9.7,28.8-24H65L65,192.9z"/>
	<path class="st66" d="M46.5,219.8v1.7c-3.3,1.3-7,2.1-10.8,2.1s-7.5-0.7-10.8-2.1v-2.1h0.4c3.2,1.2,6,1.2,9.7,1.2
		c3.2,0,7.7-1,10.6-1.9L46.5,219.8z"/>
	<g>
		<path class="st66" d="M18.6,206.1h-5.6c-0.4,0-0.7-0.3-0.7-0.7s0.3-0.7,0.7-0.7h5.6c0.4,0,0.7,0.3,0.7,0.7S19,206.1,18.6,206.1
			L18.6,206.1z"/>
		<path class="st66" d="M22.5,203.8H11c-0.4,0-0.7-0.3-0.7-0.7s0.3-0.7,0.7-0.7h11.4c0.4,0,0.7,0.3,0.7,0.7S22.8,203.8,22.5,203.8
			L22.5,203.8z"/>
		<path class="st66" d="M25.4,203.8h-0.6c-0.4,0-0.7-0.3-0.7-0.7s0.3-0.7,0.7-0.7h0.6c0.4,0,0.7,0.3,0.7,0.7S25.7,203.8,25.4,203.8z
			"/>
		<path class="st66" d="M15.3,201.4H8.8c-0.4,0-0.7-0.3-0.7-0.7s0.3-0.7,0.7-0.7h6.5c0.4,0,0.7,0.3,0.7,0.7S15.7,201.4,15.3,201.4z"
			/>
		<path class="st66" d="M17.9,201.4h-0.2c-0.4,0-0.7-0.3-0.7-0.7s0.3-0.7,0.7-0.7h0.2c0.4,0,0.7,0.3,0.7,0.7S18.3,201.4,17.9,201.4z
			"/>
	</g>
	<path class="st67" d="M46.7,219.5v3.9c0,1.2-1,2.2-2.2,2.2H27.2c-1.2,0-2.2-1-2.2-2.2v-4.4"/>
	<path class="st66" d="M32.3,214.2H16.6c-0.2,0-0.5-0.2-0.5-0.4s0.2-0.4,0.5-0.4h15.7c0.2,0,0.5,0.2,0.5,0.4S32.6,214.2,32.3,214.2z
		"/>
	<path class="st67" d="M27.3,191.4c-2.5-1.1-5.5-1.7-7.7-3.4c-2.9-2.3-3.2-6.6-2.7-10.3c0.5-3.7,1.4-7.6-0.1-11
		c0.4-0.5,1.1-0.4,1.7-0.2c5,1.6,9.6,4.8,12.4,9.2s4,10,2.7,15.1"/>
	<path class="st67" d="M34.3,183.9c1.2-2.6,3-4.9,5.2-6.6s5.2-2.6,8-2.3c0.2,0,0.4,0.1,0.5,0.2c0.1,0.1,0.2,0.2,0.2,0.4
		c1.7,5.4-0.9,12.2-5.5,15.6"/>
	<path class="st67" d="M22.3,174.1c4.7,4.5,7.6,11.9,8.4,17.1"/>
	<line class="st68" x1="13.3" y1="193.1" x2="29.9" y2="193.1"/>
	<line class="st67" x1="48.8" y1="191.6" x2="55.5" y2="191.6"/>
	<path class="st67" d="M38.8,220.9c-0.1,0-0.1,0-0.2,0c-0.9,0.1-1.8,0.1-2.8,0.1c-15.5,0-28.2-12-29.4-27.2
		c-0.1-1.2,0.9-2.2,2.1-2.2h37.9"/>
	<path class="st67" d="M57.8,191.6h5.3c1.2,0,2.2,1.1,2.1,2.3c-1,12.8-10.2,23.4-22.4,26.3"/>
	<ellipse class="st36" cx="21.4" cy="180.9" rx="1" ry="1.8"/>
	
		<ellipse transform="matrix(0.7071 -0.7071 0.7071 0.7071 -118.5574 85.3631)" class="st36" cx="43.8" cy="185.8" rx="1.7" ry="1.1"/>
	<ellipse class="st36" cx="39.2" cy="181.9" rx="1" ry="1.8"/>
	<line class="st67" x1="16" y1="213" x2="29.9" y2="213"/>
	<line class="st67" x1="23.1" y1="181" x2="28.1" y2="182.6"/>
	<line class="st67" x1="26.1" y1="184.8" x2="29.4" y2="185.8"/>
	<line class="st67" x1="26.4" y1="179.1" x2="28.1" y2="175.6"/>
	<line class="st67" x1="28.2" y1="182.8" x2="29.9" y2="179.7"/>
	<g>
		<path class="st67" d="M34.2,191.2c3.2-2.7,7.4-6.4,9.9-12.1"/>
		<line class="st67" x1="39.2" y1="181.9" x2="40.2" y2="185"/>
		<line class="st67" x1="37.1" y1="184" x2="38.1" y2="187.6"/>
		<line class="st67" x1="37.8" y1="188.1" x2="40.5" y2="188.5"/>
		<line class="st67" x1="41.3" y1="183.9" x2="44.5" y2="184"/>
		<line class="st67" x1="39.7" y1="186.2" x2="41.8" y2="186.6"/>
	</g>
</g>
<g>
	<rect x="98.2" y="174.8" class="st66" width="23.6" height="1.8"/>
	<rect x="83.8" y="190.1" class="st26" width="51.1" height="26.9"/>
	<rect x="83.8" y="214.1" class="st69" width="51.1" height="2.9"/>
	<g>
		<path class="st70" d="M93.8,195.9h-4.4c-0.3,0-0.5-0.2-0.5-0.5s0.2-0.5,0.5-0.5h4.4c0.3,0,0.5,0.2,0.5,0.5S94.1,195.9,93.8,195.9z
			"/>
		<path class="st70" d="M96.8,194.1h-9c-0.3,0-0.5-0.2-0.5-0.5s0.2-0.5,0.5-0.5h9c0.3,0,0.5,0.2,0.5,0.5S97.1,194.1,96.8,194.1z"/>
		<path class="st70" d="M99.1,194.1h-0.4c-0.3,0-0.5-0.2-0.5-0.5s0.2-0.5,0.5-0.5h0.4c0.3,0,0.5,0.2,0.5,0.5S99.4,194.1,99.1,194.1z
			"/>
		<path class="st70" d="M91.1,192.2H86c-0.3,0-0.5-0.2-0.5-0.5s0.2-0.5,0.5-0.5h5.1c0.3,0,0.5,0.2,0.5,0.5S91.4,192.2,91.1,192.2z"
			/>
		<path class="st70" d="M93.2,192.2H93c-0.3,0-0.5-0.2-0.5-0.5s0.2-0.5,0.5-0.5h0.2c0.3,0,0.5,0.2,0.5,0.5S93.5,192.2,93.2,192.2z"
			/>
	</g>
	<path class="st71" d="M92.7,178.6h33.6c4.7,0,8.4,3.8,8.4,8.4v30.2c0,4.7-3.8,8.4-8.4,8.4H92.7c-4.7,0-8.4-3.8-8.4-8.4V187
		C84.3,182.4,88.1,178.6,92.7,178.6z"/>
	<polyline class="st71" points="121.6,175.7 121.6,178.5 98.4,178.5 98.4,175.3 	"/>
	<line class="st71" x1="104.6" y1="189.6" x2="134.2" y2="189.6"/>
	<line class="st71" x1="84.9" y1="189.6" x2="100.2" y2="189.6"/>
	<line class="st71" x1="84.9" y1="216.7" x2="134.2" y2="216.7"/>
	<g>
		<polygon class="st69" points="100.4,203.2 98.4,198.8 96.4,203.2 94.9,199.2 92.8,199.2 96,206.7 98.4,202.4 100.8,206.7 
			103.9,199.2 101.8,199.2 		"/>
		<polygon class="st69" points="109.7,201.8 106.5,201.8 106.5,199.2 104.8,199.2 104.8,206.3 106.5,206.3 106.5,203.3 109.7,203.3 
			109.7,206.3 111.5,206.3 111.5,199.2 109.7,199.2 		"/>
		<polygon class="st69" points="114.2,199.2 113,199.2 113,206.3 114.2,206.3 114.7,206.3 117.9,206.3 117.9,204.9 114.7,204.9 
			114.7,203.3 117.7,203.3 117.7,201.9 114.7,201.9 114.7,200.6 117.9,200.6 117.9,199.2 114.7,199.2 		"/>
		<polygon class="st69" points="123.5,199.2 122.1,201.9 120.6,199.2 118.6,199.2 121.2,203.4 121.2,206.3 123,206.3 123,203.4 
			125.5,199.2 		"/>
	</g>
	<path class="st66" d="M130.8,170.9c0,1.1-0.4,2-1.1,2.7c-0.7,0.7-1.6,1.1-2.7,1.1H93.6c-2.1,0-3.8-1.7-3.8-3.8
		c0-0.4,0.1-0.8,0.2-1.1c0.5,1.6,1.9,2.7,3.7,2.7h33.3c1.1,0,2-0.4,2.7-1.1c0.4-0.4,0.8-1,1-1.6
		C130.7,170.2,130.8,170.6,130.8,170.9z"/>
	<g>
		<line class="st72" x1="90.5" y1="172.9" x2="99.9" y2="172.9"/>
		<line class="st72" x1="102.6" y1="172.9" x2="105.7" y2="172.9"/>
	</g>
	<line class="st73" x1="84.8" y1="219.3" x2="106.7" y2="219.3"/>
	<line class="st72" x1="112.7" y1="187.1" x2="134.5" y2="187.1"/>
	<path class="st71" d="M93.6,167.5h33.3c2.1,0,3.8,1.7,3.8,3.8l0,0c0,2.1-1.7,3.8-3.8,3.8H93.6c-2.1,0-3.8-1.7-3.8-3.8l0,0
		C89.8,169.2,91.5,167.5,93.6,167.5z"/>
</g>
<path class="st66" d="M39.1,422.5h8.4c1,0,1.9,0.8,1.9,1.9v39.7c0,1-0.8,1.9-1.9,1.9h-8.4c-1,0-1.9-0.8-1.9-1.9v-39.7
	C37.3,423.4,38.1,422.5,39.1,422.5z"/>
<g>
	<path class="st74" d="M185.1,250.9c-2.5,3.6-8.7,3.5-8.7,3.5s-2.1-5.8,0.4-9.4s8.7-3.5,8.7-3.5S187.6,247.3,185.1,250.9z"/>
	<path class="st26" d="M173.1,299.9c-12,0-21.7-9.7-21.7-21.7s9.7-21.7,21.7-21.7"/>
	<path class="st69" d="M179.2,299.9c-12,0-21.7-9.7-21.7-21.7s9.7-21.7,21.7-21.7"/>
	<circle class="st75" cx="186.4" cy="279.1" r="23.2"/>
	<circle class="st71" cx="186.4" cy="279.1" r="23.2"/>
	<path class="st71" d="M151.9,273.9c2-9.9,10.8-17.3,21.2-17.3"/>
	<path class="st71" d="M155.1,290.3c-2.3-3.5-3.7-7.6-3.7-12.1"/>
	<path class="st71" d="M173.1,299.9c-5.6,0-10.8-2.2-14.6-5.7"/>
	<circle class="st26" cx="185.8" cy="279.1" r="19"/>
	<ellipse class="st75" cx="186.4" cy="279.7" rx="2.3" ry="2.2"/>
	<line class="st71" x1="186.4" y1="260.3" x2="186.4" y2="276.6"/>
	<line class="st71" x1="183.5" y1="279.5" x2="167.5" y2="279.5"/>
	<line class="st71" x1="205.2" y1="279.5" x2="189.3" y2="279.5"/>
	<line class="st71" x1="186.4" y1="282" x2="186.4" y2="297.9"/>
	<line class="st71" x1="199.4" y1="292.3" x2="188.5" y2="281.2"/>
	<line class="st71" x1="184.7" y1="277.4" x2="173" y2="265.9"/>
	<line class="st71" x1="188.5" y1="277.4" x2="199.7" y2="266.2"/>
	<line class="st71" x1="173.4" y1="292.4" x2="184.6" y2="281.2"/>
	<path class="st71" d="M167,249.3c0,0,6.6,1.2,7.6,5.8"/>
	<path class="st71" d="M185.1,250.9c-2.5,3.6-8.7,3.5-8.7,3.5s-2.1-5.8,0.4-9.4s8.7-3.5,8.7-3.5S187.6,247.3,185.1,250.9z"/>
	<path class="st71" d="M181.7,247.4c-0.8,3.5-5.3,7-5.3,7"/>
	<circle class="st71" cx="186.4" cy="279.1" r="19"/>
	<ellipse class="st71" cx="186.4" cy="279.3" rx="2.3" ry="2.2"/>
	<path class="st69" d="M170.9,277.2c2.3,0,4.6,0,6.9,0c0.9,0,0.9-1.4,0-1.4c-2.3,0-4.6,0-6.9,0C170,275.8,170,277.2,170.9,277.2
		L170.9,277.2z"/>
	<path class="st69" d="M177.9,293.2c1.7-1.7,3.4-3.4,5.1-5.1c0.3-0.3,0.3-0.7,0-1c-0.3-0.3-0.7-0.3-1,0c-1.7,1.7-3.4,3.4-5.1,5.1
		c-0.3,0.3-0.3,0.7,0,1C177.2,293.4,177.7,293.4,177.9,293.2L177.9,293.2z"/>
	<path class="st5" d="M187.9,264v6.9c0,0.9,1.4,0.9,1.4,0V264C189.3,263.1,187.9,263.1,187.9,264L187.9,264z"/>
	<path class="st69" d="M177.7,267.4l4.3,4.3c0.3,0.3,0.7,0.3,1,0s0.3-0.7,0-1l-4.3-4.3c-0.3-0.3-0.7-0.3-1,0
		C177.4,266.7,177.4,267.2,177.7,267.4L177.7,267.4z"/>
	<path class="st5" d="M194.4,284.4h4.8c0.4,0,0.7-0.3,0.7-0.7c0-0.4-0.3-0.7-0.7-0.7h-4.8c-0.4,0-0.7,0.3-0.7,0.7
		C193.7,284.1,194,284.4,194.4,284.4L194.4,284.4z"/>
	<path class="st69" d="M194.8,277.6h6.8c0.9,0,0.9-1.4,0-1.4h-6.8C193.9,276.2,193.9,277.6,194.8,277.6L194.8,277.6z"/>
	<path class="st5" d="M171.2,282.7c2.1,0,4.3,0,6.4,0c0.9,0,0.9-1.4,0-1.4c-2.1,0-4.3,0-6.4,0C170.2,281.3,170.2,282.7,171.2,282.7
		L171.2,282.7z"/>
	<path class="st5" d="M155.3,274.4c0.1-0.6,0.3-1.2,0.5-1.8c0-0.1,0.1-0.3,0.1-0.4c0-0.1,0-0.1,0.1-0.2s0-0.1,0,0c0,0,0-0.1,0-0.1
		c0.1-0.2,0.2-0.5,0.4-0.7c0.2-0.3,0.1-0.8-0.2-1c-0.3-0.2-0.8-0.1-1,0.2c-0.6,1.1-1,2.3-1.2,3.6c-0.1,0.4,0.1,0.8,0.5,0.9
		C154.8,274.9,155.2,274.7,155.3,274.4L155.3,274.4L155.3,274.4z"/>
</g>
<g>
	<path class="st66" d="M97.2,325.2h25.5c2,0,3.6,1.6,3.6,3.6H93.6C93.6,326.8,95.2,325.2,97.2,325.2z"/>
	<path class="st76" d="M103.1,325.4h9.2c0.9,0,1.5,0.7,1.5,1.6v0c0,0.9-0.7,1.6-1.5,1.6h-9.2c-0.9,0-1.5-0.7-1.5-1.6v0
		C101.5,326.1,102.2,325.4,103.1,325.4z"/>
	<path class="st76" d="M95.1,325.4h2.2c0.9,0,1.5,0.7,1.5,1.6v0c0,0.9-0.7,1.6-1.5,1.6h-2.2c-0.9,0-1.5-0.7-1.5-1.6v0
		C93.6,326.1,94.3,325.4,95.1,325.4z"/>
	<path class="st2" d="M124.3,336.3c0,2.3,0.9,6.8,2.4,8.6l0,0c0.8,1,1.2,2.2,1.2,3.4v30.3c0,1.8-1.5,3.3-3.3,3.3H94.7
		c-1.8,0-3.3-1.5-3.3-3.3v-30.3c0-1.2,0.4-2.5,1.2-3.4l0,0c1.5-1.8,2.3-5,2.3-7.4L124.3,336.3L124.3,336.3z"/>
	<path class="st4" d="M96.4,337.7h12.2c0.9,0,1.5,0.7,1.5,1.6v0c0,0.9-0.7,1.6-1.5,1.6H96.4c-0.9,0-1.5-0.7-1.5-1.6v0
		C94.9,338.4,95.6,337.7,96.4,337.7z"/>
	<rect x="91.4" y="352.1" class="st5" width="36.5" height="3.6"/>
	<rect x="91.4" y="350.4" class="st5" width="36.5" height="0.9"/>
	<rect x="91.4" y="348.2" class="st5" width="36.5" height="0.9"/>
	<line class="st77" x1="123.3" y1="351.3" x2="127.2" y2="351.3"/>
	<line class="st77" x1="91.7" y1="376.1" x2="95.5" y2="376.1"/>
	<rect x="95.9" y="360" class="st5" width="27.5" height="12.8"/>
	<path class="st78" d="M92.7,333.7h-0.9c-1.2,1.9,0.3,4.4,2.5,4.1l5.1-0.5c0.4,0,0.8,0,1.2,0.1l0,0c2.9,1.1,6.1,1.1,8.9-0.1l0.2-0.1
		c0.6-0.3,1.3-0.3,1.9,0l0.9,0.7c1.6,1.2,3.6,1.7,5.6,1.3l2.4-1.5c0.7-0.5,1.5-0.7,2.3-0.4l2.6,0.7c2.3,0.6,4.2-1.8,3.1-3.9
		l-0.3-0.6"/>
	<path class="st77" d="M120.7,337.7c0.7-0.5,1.5-0.7,2.3-0.4l2.6,0.7c2.3,0.6,4.2-1.8,3.1-3.9l-0.3-0.6"/>
	<path class="st77" d="M92.9,333.7H92c-1.2,1.9,0.3,4.4,2.5,4.1l5.1-0.5c0.4,0,0.8,0,1.2,0.1l0,0c2.9,1.1,6.1,1.1,8.9-0.1l0.2-0.1
		c0.6-0.3,1.3-0.3,1.9,0l0.9,0.7c1.6,1.2,3.6,1.7,5.6,1.3"/>
	<path class="st77" d="M97.2,325.2h25.5c2,0,3.6,1.6,3.6,3.6H93.6C93.6,326.8,95.2,325.2,97.2,325.2z"/>
	<path class="st79" d="M92.5,328.5h35.2c1.4,0,2.6,1.2,2.6,2.6l0,0c0,1.4-1.2,2.6-2.6,2.6H92.5c-1.4,0-2.6-1.2-2.6-2.6l0,0
		C89.9,329.7,91.1,328.5,92.5,328.5z"/>
	<path class="st4" d="M99.1,379.1h12.2c0.9,0,1.5,0.7,1.5,1.5v0c0,0.9-0.7,1.5-1.5,1.5H99.1c-0.9,0-1.5-0.7-1.5-1.5v0
		C97.6,379.8,98.3,379.1,99.1,379.1z"/>
	<path class="st4" d="M108.6,372.5h12.2c0.9,0,1.5,0.7,1.5,1.5v0c0,0.9-0.7,1.5-1.5,1.5h-12.2c-0.9,0-1.5-0.7-1.5-1.5v0
		C107.1,373.2,107.8,372.5,108.6,372.5z"/>
	<path class="st66" d="M99.1,360.1h12.2c0.9,0,1.5,0.7,1.5,1.6v0c0,0.9-0.7,1.6-1.5,1.6H99.1c-0.9,0-1.5-0.7-1.5-1.6v0
		C97.6,360.8,98.3,360.1,99.1,360.1z"/>
	<polyline class="st77" points="119.3,360 123.4,360 123.4,372.8 95.9,372.8 95.9,360 115.9,360 	"/>
	<path class="st77" d="M91.4,360v-11.7c0-1.2,0.4-2.5,1.2-3.4l0,0c1.5-1.8,2.3-4.1,2.3-6.4"/>
	<line class="st77" x1="91.4" y1="369.6" x2="91.4" y2="363.2"/>
	<path class="st77" d="M127.9,362.5v16.1c0,1.8-1.5,3.3-3.3,3.3H94.7c-1.8,0-3.3-1.5-3.3-3.3v-5.8"/>
	<path class="st77" d="M124.3,338.3c0,2.3,0.9,4.8,2.4,6.6l0,0c0.8,1,1.2,2.2,1.2,3.4v10.3"/>
	<path class="st80" d="M94,328.5h12.2c0.9,0,1.5,0.7,1.5,1.6v0c0,0.9-0.7,1.6-1.5,1.6H94c-0.9,0-1.5-0.7-1.5-1.6v0
		C92.4,329.2,93.1,328.5,94,328.5z"/>
	<path class="st80" d="M112,328.5h2.2c0.9,0,1.5,0.7,1.5,1.6v0c0,0.9-0.7,1.6-1.5,1.6H112c-0.9,0-1.5-0.7-1.5-1.6v0
		C110.5,329.2,111.2,328.5,112,328.5z"/>
	<path class="st81" d="M113.9,333.2h2.2c0.9,0,1.5,0.7,1.5,1.5v0c0,0.9-0.7,1.5-1.5,1.5h-2.2c-0.9,0-1.5-0.7-1.5-1.5v0
		C112.4,333.9,113.1,333.2,113.9,333.2z"/>
	<path class="st81" d="M94.7,333.2h2.2c0.9,0,1.5,0.7,1.5,1.5v0c0,0.9-0.7,1.5-1.5,1.5h-2.2c-0.9,0-1.5-0.7-1.5-1.5v0
		C93.2,333.9,93.9,333.2,94.7,333.2z"/>
	<path class="st77" d="M104.5,333.7H92.5c-1.4,0-2.6-1.2-2.6-2.6l0,0c0-1.4,1.2-2.6,2.6-2.6h35.2c1.4,0,2.6,1.2,2.6,2.6l0,0
		c0,1.4-1.2,2.6-2.6,2.6h-2.9"/>
	<line class="st77" x1="121.9" y1="333.7" x2="107.1" y2="333.7"/>
	<g>
		<line class="st6" x1="100.6" y1="364.4" x2="104.4" y2="364.4"/>
		<line class="st6" x1="100.6" y1="366.8" x2="111.1" y2="366.8"/>
		<line class="st6" x1="100.6" y1="369.2" x2="111.1" y2="369.2"/>
	</g>
	
		<ellipse transform="matrix(0.5746 -0.8185 0.8185 0.5746 -218.6165 251.5417)" class="st6" cx="132.7" cy="336.1" rx="2.4" ry="4.1"/>
</g>
<g>
	<path class="st26" d="M33.5,352.2c-6,3.5-14.3,5.5-25.6,2.8c-1-0.2-2.1,0.1-2.7,1c0,0-0.1,0.1-0.1,0.1c-0.9,1.3-0.4,3,0.9,3.8
		c4.9,2.7,21.8,10.8,35.4,3c11.7-6.7,13.3-17.2,13.3-22.5c0-1.9-1.1-3.6-2.9-4.3l0,0l-1.8-10l-1,6.6l-4,7.8L41,346l-3.4,3.3
		L33.5,352.2L33.5,352.2z"/>
	<path class="st82" d="M5.2,357.1c0,0,36.7,16.6,48-15.4"/>
	<path class="st83" d="M33.5,352.2c-6,3.5-14.3,5.5-25.6,2.8c-1-0.2-2.1,0.1-2.7,1c0,0-0.1,0.1-0.1,0.1c-0.9,1.3-0.4,3,0.9,3.8
		c4.9,2.7,21.8,10.8,35.4,3c11.7-6.7,13.3-17.2,13.3-22.5c0-1.9-1.1-3.6-2.9-4.3l0,0l-1.8-10"/>
	<path class="st84" d="M5.2,356.7c0,0,36.3,16.1,47.6-15.8"/>
	<path class="st26" d="M51.8,367.4c1.7-1.4,3.2-3,4.5-4.9c7.7-11.1,4.6-21.3,2.4-26c-0.8-1.7-2.6-2.8-4.5-2.7l0,0l-3.1-8.3
		c-0.3-0.9-1.1-1.5-2-1.4l0,0c-1.2,0.1-2.1,1.2-1.9,2.4c0.4,1.7,2.8,8.4,2.7,8.4c0,0,3.6,28.5-27.3,35c-1,0.2-1.9,1-2,2.1
		c0,0,0,0.1,0,0.1c-0.2,1.5,0.9,2.9,2.4,3c4.2,0.2,15.9,0.4,25.2-5.1"/>
	<path class="st85" d="M56.2,362.8c-1.3,1.9-2.8,3.5-4.4,4.8l-3.5,2.5c-9.1,5.4-20.4,5.2-24.6,5c-1.3-0.1-2.3-1.1-2.4-2.4
		c4.9-0.1,20.7-1.7,27.9-16c0.7-1.3,1.3-2.7,2-4.2c2.7-6.4,2.8-13.6,0.4-20.1l-1.7-4.5c0.8,0.1,1.4-1.3,1.7-0.5l2.7,6.5
		c1.9-0.1,3.6,1.7,4.4,3.4C60.8,341.9,63.7,351.9,56.2,362.8L56.2,362.8z"/>
	<path class="st5" d="M24.9,359.4c3.5-0.4,6.8-1.5,10-3.1c1.2-0.6,0.1-2.4-1.1-1.8c-2.8,1.5-5.8,2.5-8.9,2.9c-0.6,0.1-1.1,0.4-1.1,1
		C23.8,358.9,24.3,359.5,24.9,359.4L24.9,359.4L24.9,359.4z"/>
	<path class="st46" d="M49.1,324.4L49.1,324.4c0.9,0,1.7,0.7,1.8,1.6l0,0.3c0,0.9-0.7,1.7-1.6,1.8l0,0c-0.9,0-1.7-0.7-1.8-1.6l0-0.3
		C47.5,325.3,48.2,324.5,49.1,324.4z"/>
	<path class="st83" d="M47.6,327.9c0,0,2.9,0.9,3.9-1.3"/>
	<circle class="st5" cx="37.2" cy="353.7" r="1.1"/>
	<path class="st86" d="M47.9,361.2c0,0,4.1-4.9,4.6-9.3"/>
	<path class="st86" d="M36.6,370.1c0,0,2.1-0.8,3.5-2"/>
	<path class="st86" d="M25.6,373.1c0,0,4-0.5,5.3-0.9"/>
	<path class="st84" d="M20.9,372.5c0,0,28.7,1.7,32.5-28.2"/>
	<path class="st86" d="M59.7,343.3c0,0,1.8,7-2.5,16.1"/>
	<path class="st83" d="M51.8,367.4c1.7-1.4,3.2-3,4.5-4.9c7.7-11.1,4.6-21.3,2.4-26c-0.8-1.7-2.6-2.8-4.5-2.7l0,0l-3.1-8.3
		c-0.3-0.9-1.1-1.5-2-1.4l0,0c-1.2,0.1-2.1,1.2-1.9,2.4c0.4,1.7,2.8,8.4,2.7,8.4c0,0,3.6,28.5-27.3,35c-1,0.2-1.9,1-2,2.1
		c0,0,0,0.1,0,0.1c-0.2,1.5,0.9,2.9,2.4,3c4.2,0.2,15.9,0.4,25.2-5.1"/>
	<path class="st87" d="M45,342.1c0,0-2.2,3.5-4.7,5.8"/>
	<line class="st87" x1="47.7" y1="337.3" x2="46.6" y2="339.6"/>
	<path class="st83" d="M47.6,335.1c0,0-2.6,8.1-10,14.2"/>
</g>
<g>
	<g>
		<path class="st57" d="M182.7,378.7l-20.3-42.6l6.1-4l-6.8,3.3l-3.7-2c-1-0.5-0.9-1.9,0.1-2.4l20.4-9.9c1-0.5,2.1,0.3,1.9,1.4
			l-0.5,4.2l-7,3.3l7.1-2.4l15.3,32.1l1.6,3.4l3.4,7.1L182.7,378.7L182.7,378.7z"/>
		<path class="st57" d="M204.6,375.1l-20.6,9.8c-1,0.5-2.2-0.3-2.1-1.5l0.5-4.6l18.2-8.7l4.1,2.4
			C205.7,373.1,205.7,374.6,204.6,375.1L204.6,375.1z"/>
	</g>
	<path class="st88" d="M165.8,337.3L165.8,337.3c1.1-0.5,2.3,0,2.8,1l2.5,5.3c0.5,1.1,0,2.3-1,2.8l0,0c-1.1,0.5-2.3,0-2.8-1
		l-2.5-5.3C164.3,339.1,164.7,337.8,165.8,337.3z"/>
	<path class="st88" d="M184.2,342.1L184.2,342.1c1.1-0.5,2.3,0,2.8,1l2.5,5.3c0.5,1.1,0,2.3-1,2.8l0,0c-1.1,0.5-2.3,0-2.8-1
		l-2.5-5.3C182.7,343.8,183.1,342.6,184.2,342.1z"/>
	<line class="st77" x1="168.9" y1="336.3" x2="177" y2="332.4"/>
	<line class="st77" x1="181.9" y1="368.9" x2="193.3" y2="363.5"/>
	<path class="st89" d="M176.5,342.9L176.5,342.9c2.5-1.1,5.4-0.1,6.6,2.4l5.7,12.4c1.1,2.5,0.1,5.4-2.4,6.6l0,0
		c-2.5,1.1-5.4,0.1-6.6-2.4l-5.7-12.4C173,347,174,344.1,176.5,342.9z"/>
	<path class="st90" d="M180.3,357.6L180.3,357.6c-1,0.5-2.3,0-2.8-1.1l-3.2-7.3c-0.5-1.1,0-2.3,1-2.8l0,0c1.1-0.5,2.3,0,2.8,1
		l3.2,7.3C181.9,355.8,181.4,357.1,180.3,357.6L180.3,357.6z"/>
	<path class="st77" d="M178.4,358.6l-4.4-9.6c-1.1-2.5-0.1-5.4,2.4-6.6l0,0c2.5-1.1,5.4-0.1,6.5,2.4l5.7,12.4
		c1.1,2.5,0.1,5.4-2.4,6.5l0,0c-2.5,1.2-5.4,0.1-6.5-2.4"/>
	<line class="st91" x1="160" y1="331.8" x2="168.9" y2="327.4"/>
	<line class="st92" x1="162.5" y1="330.5" x2="166.1" y2="328.7"/>
	<line class="st93" x1="187.2" y1="377.8" x2="198.4" y2="372.6"/>
	<g>
		<line class="st94" x1="185.2" y1="376.4" x2="196.4" y2="371.2"/>
		<line class="st94" x1="188.8" y1="374.7" x2="192.1" y2="373.2"/>
	</g>
	<g>
		<line class="st94" x1="166.3" y1="335" x2="177.5" y2="329.7"/>
		<line class="st94" x1="169.9" y1="333.3" x2="173.2" y2="331.7"/>
	</g>
	<g>
		<line class="st77" x1="170.2" y1="352" x2="162.7" y2="336.2"/>
		<polyline class="st77" points="183,378.9 178,368.5 176.5,365.2 171.7,355.1 		"/>
		<line class="st77" x1="197.3" y1="363.4" x2="200.7" y2="370.4"/>
		<line class="st77" x1="180.4" y1="327.8" x2="195.7" y2="359.9"/>
		<path class="st77" d="M168.8,332.2l-6.8,3.3l-3.7-2c-1-0.5-0.9-1.9,0.1-2.4l20.4-9.9c1-0.5,2.1,0.3,1.9,1.4l-0.5,4.2l-7,3.3"/>
		<path class="st77" d="M204.9,375.2l-20.6,9.8c-1,0.5-2.2-0.3-2.1-1.5l0.5-4.6l18.2-8.7l4.1,2.4C206,373.2,206,374.7,204.9,375.2
			L204.9,375.2z"/>
	</g>
	<g>
		<line class="st6" x1="185.1" y1="380.8" x2="186.6" y2="383.9"/>
		<line class="st6" x1="187.5" y1="380" x2="188.9" y2="383.1"/>
		<line class="st6" x1="201.4" y1="373.1" x2="202.8" y2="376.2"/>
		<line class="st6" x1="199.1" y1="373.9" x2="200.5" y2="377"/>
		<line class="st6" x1="189.8" y1="378.6" x2="191.2" y2="381.7"/>
		<line class="st6" x1="192.1" y1="377.5" x2="193.5" y2="380.6"/>
		<line class="st6" x1="194.4" y1="376.4" x2="195.8" y2="379.5"/>
		<line class="st6" x1="196.7" y1="374.9" x2="198.2" y2="378"/>
	</g>
	<g>
		<line class="st6" x1="178.3" y1="325.6" x2="176.9" y2="322.5"/>
		<line class="st6" x1="176" y1="326.4" x2="174.6" y2="323.3"/>
		<line class="st6" x1="162.1" y1="333.3" x2="160.7" y2="330.2"/>
		<line class="st6" x1="164.4" y1="332.6" x2="163" y2="329.5"/>
		<line class="st6" x1="173.7" y1="327.8" x2="172.2" y2="324.7"/>
		<line class="st6" x1="171.3" y1="328.9" x2="169.9" y2="325.8"/>
		<line class="st6" x1="169" y1="330" x2="167.6" y2="326.9"/>
		<line class="st6" x1="166.7" y1="331.5" x2="165.3" y2="328.4"/>
	</g>
</g>
<g>
	<path class="st95" d="M46.9,259.3c4.1-3.2,8.4,3.9,9.1,6.1l0,0c0,0.2,0.1,0.3,0.1,0.5c0.7,2.4-1.2,3.1-2.4,5.3l-0.5,2.1l0,0v25.4
		c0,1-0.8,1.7-1.7,1.7H45"/>
	<path class="st71" d="M53.2,273.3L53.2,273.3v25.4c0,1-0.8,1.7-1.7,1.7h-4.5"/>
	<polyline class="st74" points="49,261.1 51.7,255.4 47.3,253.8 44.9,250 42.3,251.3 37.9,253.5 33.7,251.2 29.4,253.2 25.2,251.2 
		21.8,253.7 18.1,251.6 11.5,256.3 	"/>
	<polyline class="st71" points="46.7,259.8 45.9,254.9 36.9,256.4 	"/>
	<polyline class="st26" points="10.7,264 9.6,256.6 22.1,257.2 	"/>
	<path class="st96" d="M32.8,256.2c5.2,0.1,10.4,1.5,15.2,4.2c1.8,1,3.2,2.8,3.9,5l0,0c0,0.2,0.1,0.3,0.1,0.5
		c0.7,2.4,0.2,2.1-0.9,4.2l-2,2.5l0,0v26.1c0,0.9-0.7,1.6-1.6,1.6H32h-1.9H14.8c-1.1,0-1.9-0.9-1.9-2v-25.7l-0.1-1.3l-1.2-1.1
		c-1.2-2.1-2.3-2-1.6-4.4c0.1-0.2,0.1-0.3,0.1-0.5l0,0c0.7-2.2,2.9-4.7,4.7-5.8c4.8-2.6,9.2-3.3,14.3-3.4"/>
	<polyline class="st26" points="46.6,259.9 45.7,255 36.7,256.5 	"/>
	<polyline class="st71" points="49.1,261.1 51.9,255.4 47.4,253.8 45.1,250 	"/>
	<path class="st97" d="M49,298.8c-0.1,0.7-0.6,1.2-1.3,1.2l-33.2,0.4v0.1c10.6-1.1,18.4-5,23.6-10.2c9-8.9,9.3-23.4,1-33l0,0
		l6.1,1.5l4.1,2.4l2.9,4.2l-0.1,3.6l-1.9,2.3l-1.1,2.2l0.2,22L49,298.8L49,298.8z"/>
	<line class="st71" x1="40.3" y1="275.7" x2="40.3" y2="294.6"/>
	<g class="st52">
		<path class="st5" d="M14,264.8c0.2-0.4,0.4-0.8,0.7-1.1l-0.2,0.3c0.4-0.5,0.8-0.9,1.3-1.3l-0.3,0.2c0.5-0.4,1-0.7,1.6-0.9
			c0.3-0.1,0.6-0.6,0.7-0.9c0.1-0.4,0.1-0.8-0.1-1.2s-0.5-0.6-0.9-0.7l-0.4,0c-0.3,0-0.5,0.1-0.8,0.2c-1.8,0.8-3.3,2.2-4.1,3.9
			c-0.2,0.4-0.3,0.8-0.1,1.2c0.1,0.4,0.4,0.7,0.7,0.9c0.4,0.2,0.8,0.3,1.2,0.1C13.5,265.3,13.8,265.1,14,264.8L14,264.8L14,264.8z"
			/>
	</g>
	<g class="st98">
		<path class="st5" d="M20.4,260.6c0.9-0.3,1.7-0.6,2.6-0.8c0.5-0.1,1-0.2,1.4-0.3c0.1,0,0.2,0,0.4-0.1c0,0,0.5-0.1,0.2,0
			s0.2,0,0.2,0c0.1,0,0.3,0,0.4,0c0.4,0,0.8-0.1,1.1-0.4c0.3-0.3,0.5-0.7,0.4-1.1c0-0.8-0.7-1.6-1.5-1.5c-2.1,0.2-4.1,0.7-6.1,1.4
			c-0.4,0.1-0.7,0.3-0.9,0.7c-0.2,0.3-0.3,0.8-0.1,1.2C18.8,260.3,19.6,260.9,20.4,260.6L20.4,260.6L20.4,260.6z"/>
	</g>
	<g class="st52">
		<path class="st5" d="M14.9,263.4c0.3-0.3,0.6-0.5,0.9-0.8l-0.3,0.2c0.1-0.1,0.2-0.1,0.3-0.2c0.2-0.1,0.3-0.2,0.4-0.4
			c0.1-0.1,0.2-0.3,0.3-0.5c0.1-0.2,0.1-0.4,0-0.6c0-0.2-0.1-0.4-0.2-0.6l-0.2-0.3c-0.2-0.2-0.4-0.3-0.7-0.4l-0.4-0.1
			c-0.3,0-0.5,0.1-0.8,0.2c-0.5,0.4-1,0.8-1.4,1.2c-0.1,0.1-0.2,0.3-0.3,0.5c-0.1,0.2-0.1,0.4-0.1,0.6c0,0.2,0,0.4,0.1,0.6
			c0.1,0.2,0.2,0.4,0.3,0.5l0.3,0.2c0.2,0.1,0.5,0.2,0.8,0.2l0.4,0C14.5,263.7,14.7,263.6,14.9,263.4L14.9,263.4L14.9,263.4z"/>
	</g>
	<path class="st71" d="M12.7,261.1c0,0-5.7,5.6,0,10.3"/>
	<path class="st71" d="M48.8,260.9c0,0,6.4,5.1,1,10.5"/>
	<path class="st71" d="M53.4,261.1c0,0,5.7,5.6,0,10.3"/>
	<circle class="st40" cx="52" cy="259.7" r="0.6"/>
	<line class="st99" x1="14.2" y1="276.1" x2="14.2" y2="289.8"/>
	<line class="st100" x1="14.2" y1="281.8" x2="14.2" y2="285.2"/>
	<g>
		<line class="st101" x1="23.7" y1="276.1" x2="23.7" y2="289.8"/>
		<line class="st101" x1="23.7" y1="281.8" x2="23.7" y2="285.2"/>
	</g>
	<line class="st102" x1="32.9" y1="277.5" x2="32.9" y2="291.2"/>
	<line class="st103" x1="32.9" y1="283.3" x2="32.9" y2="286.7"/>
	<line class="st71" x1="21.9" y1="275.7" x2="21.9" y2="294.6"/>
	<line class="st71" x1="31.1" y1="275.7" x2="31.1" y2="294.6"/>
	<ellipse class="st97" cx="42.3" cy="269.1" rx="1" ry="1.4"/>
	<circle class="st97" cx="41.2" cy="266" r="0.5"/>
	<circle class="st104" cx="39.4" cy="269.5" r="0.9"/>
	<circle class="st104" cx="38.3" cy="266.6" r="0.9"/>
	<circle class="st97" cx="39.8" cy="263.5" r="0.6"/>
	<circle class="st97" cx="42.7" cy="263.3" r="0.8"/>
	<line class="st105" x1="12.6" y1="257.6" x2="15.4" y2="257.9"/>
	<line class="st106" x1="13.7" y1="257.7" x2="14.4" y2="257.8"/>
	<line class="st107" x1="10.7" y1="258.3" x2="11.1" y2="260.8"/>
	<line class="st107" x1="44.9" y1="255.6" x2="42.6" y2="256"/>
	<polyline class="st71" points="10.7,263.8 9.6,256.6 20.8,257.6 	"/>
	<path class="st108" d="M42.2,257.2c1,0.3,2.1,0.7,3,1.2"/>
	<g>
		<path class="st71" d="M15.5,259.8c4.4-2.2,9.1-3.4,13.7-3.5"/>
		<path class="st71" d="M49.3,272.8L49.3,272.8v26c0,0.9-0.7,1.6-1.6,1.6H32.1h-1.9H14.7c-0.9,0-1.6-0.7-1.6-1.6v-26l0,0"/>
		<path class="st71" d="M32.9,256.3c4.9,0.1,9.8,1.4,14.4,3.8"/>
	</g>
	<polyline class="st71" points="46.6,259.5 45.9,254.9 36.9,256.4 	"/>
	<line class="st107" x1="13.8" y1="255.3" x2="17.9" y2="252.7"/>
	<line class="st107" x1="21.9" y1="254.6" x2="25.6" y2="251.9"/>
	<line class="st109" x1="26.7" y1="252.9" x2="29" y2="253.9"/>
	<line class="st109" x1="33.7" y1="252.2" x2="37.5" y2="254.2"/>
	<polyline class="st71" points="42.2,251.3 37.9,253.5 33.6,251.3 29.4,253.2 25.2,251.3 21.6,253.9 18.1,251.6 12.4,255.1 	"/>
</g>
<g>
	<rect x="99.4" y="279.9" class="st66" width="8.4" height="2.9"/>
	<path class="st110" d="M116.7,266.8c1.5-2.2,2.4-4.9,2.4-7.8c0.1-7.8-5.9-14.5-13.7-15.2c-8.9-0.8-16.3,6.2-16.3,14.9
		c0,3,0.9,5.8,2.4,8.2c1.9,3,3,6.3,3,9.8v1.6c0,1,0.8,1.8,1.8,1.8h15.2c1,0,1.8-0.8,1.8-1.8v-1C113.4,273.6,114.6,270,116.7,266.8
		L116.7,266.8z"/>
	<path class="st111" d="M118.8,258.7c0.1,3.2-0.8,6.1-2.4,8.5c-2.1,3.2-3.3,6.8-3.4,10.6v0.1c0,1-0.7,2.3-1.7,2.3l-6-0.1l0.1-2.3
		c0-3.8,1.3-7.4,3.4-10.6c1.5-2.3,2.4-4.9,2.4-7.9c0.1-6.9-4.7-13-11.2-14.7c2-0.5,4.2-0.7,6.5-0.2
		C113.5,245.6,118.6,251.7,118.8,258.7L118.8,258.7z"/>
	<g>
		<line class="st6" x1="113.8" y1="277.4" x2="117.8" y2="277.4"/>
		<line class="st6" x1="111.6" y1="275" x2="115.7" y2="275"/>
		<line class="st6" x1="109.7" y1="272.5" x2="113.6" y2="272.5"/>
	</g>
	<path class="st71" d="M108.8,280.7v9.1c0.1,0,0.2,0,0.3,0c2.9,0,5.2,2.3,5.2,5.2s-2.3,5.2-5.2,5.2c-1.8,0-3.4-1-4.4-2.4
		c-0.9,1.4-2.5,2.4-4.4,2.4c-2.9,0-5.2-2.3-5.2-5.2c0-2.9,2.3-5.2,5.2-5.2c0.1,0,0.2,0,0.3,0v-9.1"/>
	<path class="st71" d="M92.7,249.1c-2,2.3-3.2,5.2-3.5,8.4"/>
	<g>
		<line class="st6" x1="102" y1="280.4" x2="102" y2="285"/>
		<line class="st6" x1="102" y1="286.8" x2="102" y2="288.1"/>
	</g>
	<path class="st5" d="M97,250.4C97,250.4,97,250.3,97,250.4L97,250.4L97,250.4L97,250.4c0,0,0.2-0.2,0.3-0.2
		c0.1-0.1,0.3-0.3,0.3-0.5l0-0.3l0-0.3l-0.1-0.3l-0.2-0.2l-0.2-0.2c-0.1,0-0.2-0.1-0.3-0.1l-0.3,0l0,0l0,0l-0.3,0l0,0c0,0,0,0,0,0
		c-0.1,0-0.2,0.1-0.3,0.1c0,0,0,0,0,0l0,0l0,0l0,0l-0.2,0.2c-0.1,0.1-0.1,0.2-0.2,0.2l-0.1,0.3l0,0.3l0,0.3c0,0.1,0.1,0.3,0.2,0.4
		c0,0.1,0.1,0.1,0.2,0.2c0.1,0.1,0.1,0.1,0.2,0.1c0.1,0.1,0.2,0.1,0.3,0.1c0.1,0,0.3,0,0.5,0C96.8,250.4,96.9,250.4,97,250.4
		c0.2-0.1,0.3-0.2,0.4-0.3c0.1-0.1,0.2-0.2,0.2-0.4c0-0.2,0-0.3,0-0.4c0-0.2,0-0.3-0.1-0.4l-0.2-0.2c-0.1-0.1-0.3-0.2-0.5-0.3
		l-0.3,0c-0.2,0-0.4,0.1-0.6,0.2c0,0,0,0,0,0l0.3-0.1l0,0l1.3,1.7l0,0C97.2,250,97.1,250.2,97,250.4C97,250.3,97,250.3,97,250.4
		l-0.3,0.1c0,0,0,0,0,0l-0.3,0l0,0l-0.3,0l0,0l-0.3-0.1l0,0l-0.2-0.2l0,0c-0.1-0.1-0.1-0.1-0.2-0.2l0,0c0-0.1-0.1-0.2-0.1-0.3l0,0
		c0-0.1,0-0.2,0-0.3l0,0l0-0.3l0,0l0.1-0.3l0,0l0.2-0.2l0,0l0.2-0.2c0,0,0,0,0,0c-0.1,0.1-0.2,0.2-0.3,0.3c-0.1,0.1-0.2,0.2-0.2,0.4
		c0,0.2,0,0.3,0,0.5c0,0.1,0,0.3,0.1,0.4l0.2,0.2c0.1,0.1,0.3,0.2,0.5,0.3l0.3,0C96.6,250.5,96.8,250.4,97,250.4L97,250.4L97,250.4z
		"/>
	<path class="st5" d="M94,254.4c0.3-0.6,0.6-1.1,1-1.7c0.1-0.1,0.1-0.3,0.1-0.4c0-0.1,0-0.3,0-0.4c-0.1-0.3-0.3-0.5-0.5-0.7
		c-0.3-0.1-0.6-0.2-0.9-0.1l-0.3,0.1c-0.2,0.1-0.3,0.2-0.4,0.4c-0.4,0.5-0.7,1.1-1,1.7c-0.1,0.1-0.1,0.3-0.1,0.4c0,0.1,0,0.3,0,0.4
		c0.1,0.3,0.3,0.5,0.5,0.7c0.3,0.1,0.6,0.2,0.9,0.1C93.6,254.8,93.9,254.6,94,254.4L94,254.4L94,254.4z"/>
	<path class="st112" d="M91.9,266.3c0,0,2.3,3.3,2.9,6.9"/>
	<line class="st112" x1="90" y1="261.1" x2="90.3" y2="262.5"/>
	<path class="st71" d="M89.2,259.9c0.2,2.6,1,5,2.3,7.1c1.9,3,3,6.3,3,9.8v1.6c0,1,0.8,1.8,1.8,1.8"/>
	<path class="st113" d="M110.8,246.2c0,0,4.2,1.7,6.4,6.9"/>
	<path class="st114" d="M113.4,247.9c0.6,0.5,1.3,1.2,2,2.1"/>
	<path class="st71" d="M98.3,280.2h13.2c1,0,1.8-0.8,1.8-1.8v-1c0-3.8,1.3-7.4,3.4-10.6c1.5-2.2,2.4-4.9,2.4-7.8
		c0.1-7.8-5.9-14.5-13.7-15.2c-4.2-0.4-8.2,1.1-11.1,3.6"/>
</g>
<g>
	<g class="st115">
		<path class="st26" d="M111.6,413.6c-0.5,3.9-5.7,5.1-5.7,5.1s-4.8-2.4-4.3-6.3s6.2-9.3,6.2-9.3S112.1,409.7,111.6,413.6
			L111.6,413.6z"/>
		<path class="st116" d="M109.8,415c-0.3,2.7-4,3.5-4,3.5s-3.3-1.6-3-4.4c0.3-2.7,4.3-6.5,4.3-6.5S110.1,412.3,109.8,415L109.8,415z
			"/>
		<g>
			<path class="st26" d="M106.8,421.8c-0.7,0.6-1.1,1.2-1.3,2c-1,3.1,1.6,6.2,4.8,5.9c0.8-0.1,1.5-0.3,2.2-0.9
				c2.7-2.2,4.1-9.1,4.1-9.1S109.5,419.5,106.8,421.8L106.8,421.8z"/>
			<path class="st26" d="M104.6,431.8c-0.7,0.5-1.1,1.2-1.3,2c-1,3.1,1.6,6.2,4.8,5.9c0.8-0.1,1.5-0.3,2.2-0.9
				c2.7-2.2,4.1-9.1,4.1-9.1S107.3,429.6,104.6,431.8L104.6,431.8z"/>
			<path class="st26" d="M102.6,440.1c-0.8,0.2-1.5,0.7-2,1.3c-2.1,2.5-0.9,6.4,2.2,7.3c0.7,0.2,1.5,0.3,2.4,0
				c3.4-1,7.2-6.9,7.2-6.9S105.9,439.1,102.6,440.1L102.6,440.1z"/>
			<path class="st26" d="M98.2,448.9c-0.8,0.2-1.5,0.7-2,1.3c-2.1,2.5-0.9,6.4,2.2,7.3c0.7,0.2,1.5,0.3,2.4,0c3.4-1,7.2-6.9,7.2-6.9
				S101.5,447.9,98.2,448.9L98.2,448.9z"/>
		</g>
		<path class="st117" d="M96.9,440.2c0.6,0.6,0.9,1.4,1,2.2c0.5,3.2-2.5,5.9-5.6,5.1c-0.8-0.2-1.5-0.6-2.1-1.2
			c-2.4-2.6-2.7-9.7-2.7-9.7S94.5,437.6,96.9,440.2z"/>
		<path class="st117" d="M92.8,448.9c0.6,0.6,0.9,1.4,1,2.2c0.5,3.2-2.5,5.9-5.6,5.1c-0.8-0.2-1.5-0.6-2.1-1.2
			c-2.4-2.6-2.7-9.7-2.7-9.7S90.4,446.3,92.8,448.9z"/>
		<path class="st26" d="M104.2,422c0.4,0.8,0.5,1.6,0.4,2.4c-0.3,3.2-3.9,5.1-6.8,3.5c-0.7-0.4-1.3-0.9-1.7-1.7
			c-1.6-3.1-0.1-10-0.1-10S102.6,418.8,104.2,422L104.2,422z"/>
		<path class="st116" d="M103.1,423.7c0.2,0.5,0.3,1,0.3,1.5c-0.2,2-2.5,3.2-4.2,2.2c-0.4-0.2-0.8-0.6-1-1.1c-1-2-0.1-6.2-0.1-6.2
			S102.1,421.8,103.1,423.7L103.1,423.7z"/>
		<path class="st118" d="M110,428.4c-0.5,0.3-0.9,0.4-1.4,0.5c-2,0.1-3.5-2-2.7-3.9c0.2-0.5,0.5-0.9,0.9-1.2
			c1.8-1.3,6.2-0.9,6.2-0.9S111.8,427.1,110,428.4L110,428.4z"/>
		<path class="st116" d="M107.3,438.3c-0.5,0.3-0.9,0.4-1.4,0.5c-2,0.1-3.5-2-2.7-3.9c0.2-0.4,0.5-0.9,0.9-1.2
			c1.8-1.3,6.2-0.9,6.2-0.9S109.1,437,107.3,438.3L107.3,438.3z"/>
		<path class="st118" d="M103.2,446.9c-0.5,0.1-1,0.1-1.5,0c-1.9-0.6-2.6-3-1.3-4.6c0.3-0.4,0.7-0.7,1.2-0.8
			c2.1-0.6,6.1,1.2,6.1,1.2S105.3,446.3,103.2,446.9z"/>
		<path class="st116" d="M98.9,456.3c-0.5,0.1-1,0.1-1.5,0c-1.9-0.6-2.6-3-1.3-4.6c0.3-0.4,0.7-0.7,1.2-0.8c2.1-0.6,6.1,1.2,6.1,1.2
			S101,455.7,98.9,456.3z"/>
		<path class="st117" d="M101.4,432.6c0.4,0.8,0.5,1.6,0.4,2.4c-0.3,3.2-3.9,5.1-6.8,3.5c-0.7-0.4-1.3-0.9-1.7-1.7
			c-1.6-3.1-0.1-10-0.1-10S99.8,429.5,101.4,432.6L101.4,432.6z"/>
		<path class="st71" d="M81.7,466.7c0,0,21.9-16.2,24.2-47.9"/>
		<path class="st71" d="M111.6,413.6c-0.5,3.9-5.7,5.1-5.7,5.1s-4.8-2.4-4.3-6.3s6.2-9.3,6.2-9.3S112.1,409.7,111.6,413.6
			L111.6,413.6z"/>
		<g>
			<path class="st71" d="M106.8,421.8c-0.7,0.5-1.1,1.2-1.3,2c-1,3.1,1.6,6.2,4.8,5.9c0.8-0.1,1.5-0.3,2.2-0.9
				c2.7-2.2,4.1-9.1,4.1-9.1S109.6,419.6,106.8,421.8L106.8,421.8z"/>
			<path class="st71" d="M104.6,431.8c-0.7,0.6-1.1,1.2-1.3,2c-1,3.1,1.6,6.2,4.8,5.9c0.8-0.1,1.5-0.3,2.2-0.9
				c2.7-2.2,4.1-9.1,4.1-9.1S107.4,429.6,104.6,431.8L104.6,431.8z"/>
			<path class="st71" d="M102.6,440.1c-0.8,0.2-1.5,0.7-2,1.3c-2.1,2.5-0.9,6.4,2.2,7.3c0.7,0.2,1.5,0.3,2.4,0
				c3.4-1,7.2-6.9,7.2-6.9S106,439.1,102.6,440.1L102.6,440.1z"/>
			<path class="st71" d="M98.2,448.9c-0.8,0.2-1.5,0.7-2,1.3c-2.1,2.5-0.9,6.4,2.2,7.3c0.7,0.2,1.5,0.3,2.4,0c3.4-1,7.2-6.9,7.2-6.9
				S101.6,447.9,98.2,448.9L98.2,448.9z"/>
		</g>
		<path class="st118" d="M100.5,434.2c0.2,0.5,0.3,1,0.3,1.5c-0.2,2-2.5,3.2-4.2,2.2c-0.4-0.2-0.8-0.6-1-1.1c-1-2-0.1-6.2-0.1-6.2
			S99.5,432.2,100.5,434.2L100.5,434.2z"/>
		<path class="st119" d="M96.9,441.8c0.4,0.4,0.6,0.9,0.6,1.3c0.3,2-1.5,3.7-3.5,3.2c-0.5-0.1-0.9-0.3-1.3-0.7c-1.5-1.6-1.7-6-1.7-6
			S95.4,440.2,96.9,441.8L96.9,441.8z"/>
		<path class="st118" d="M92.3,451c0.4,0.4,0.6,0.9,0.6,1.3c0.3,2-1.5,3.7-3.5,3.2c-0.5-0.1-0.9-0.3-1.3-0.7c-1.5-1.6-1.7-6-1.7-6
			S90.8,449.4,92.3,451L92.3,451z"/>
		<g>
			<path class="st71" d="M96.9,439.9c0.6,0.6,0.9,1.4,1,2.2c0.5,3.2-2.5,5.9-5.6,5.1c-0.8-0.2-1.5-0.6-2.1-1.2
				c-2.4-2.6-2.7-9.7-2.7-9.7S94.5,437.2,96.9,439.9z"/>
			<path class="st71" d="M92.8,448.6c0.6,0.6,0.9,1.4,1,2.2c0.5,3.2-2.5,5.9-5.6,5.1c-0.8-0.2-1.5-0.6-2.1-1.2
				c-2.4-2.6-2.7-9.7-2.7-9.7S90.5,446,92.8,448.6z"/>
			<path class="st71" d="M104.2,421.6c0.4,0.8,0.5,1.6,0.4,2.4c-0.3,3.2-3.9,5.1-6.8,3.5c-0.7-0.4-1.3-0.9-1.7-1.7
				c-1.6-3.1-0.1-10-0.1-10S102.6,418.5,104.2,421.6L104.2,421.6z"/>
			<path class="st71" d="M101.5,432.3c0.4,0.8,0.5,1.6,0.4,2.4c-0.3,3.2-3.9,5.1-6.8,3.5c-0.7-0.4-1.3-0.9-1.7-1.7
				c-1.6-3.1-0.1-10-0.1-10S99.8,429.2,101.5,432.3L101.5,432.3z"/>
		</g>
	</g>
	<g>
		<path class="st26" d="M120,415.8c-0.9,3.8-6.2,4.5-6.2,4.5s-4.5-2.9-3.6-6.7c0.9-3.8,7.1-8.6,7.1-8.6S120.9,411.9,120,415.8
			L120,415.8z"/>
		<path class="st116" d="M118.1,417c-0.6,2.7-4.3,3.1-4.3,3.1s-3.1-2-2.5-4.7s5-6,5-6S118.7,414.3,118.1,417z"/>
		<g>
			<path class="st26" d="M114.3,423.4c-0.7,0.5-1.2,1.1-1.5,1.8c-1.3,3,0.9,6.4,4.1,6.4c0.8,0,1.6-0.2,2.3-0.7c3-1.9,5-8.6,5-8.6
				S117.3,421.5,114.3,423.4L114.3,423.4z"/>
			<path class="st26" d="M111.1,433.1c-0.7,0.5-1.2,1.1-1.5,1.8c-1.3,3,0.9,6.4,4.1,6.4c0.8,0,1.6-0.2,2.3-0.7c3-1.9,5-8.6,5-8.6
				S114,431.2,111.1,433.1L111.1,433.1z"/>
			<path class="st26" d="M108.2,441.2c-0.9,0.2-1.6,0.6-2.1,1.1c-2.3,2.2-1.5,6.2,1.4,7.5c0.7,0.3,1.5,0.4,2.4,0.3
				c3.5-0.7,7.9-6.1,7.9-6.1S111.7,440.5,108.2,441.2L108.2,441.2z"/>
			<path class="st26" d="M102.9,449.5c-0.9,0.2-1.6,0.6-2.1,1.1c-2.3,2.2-1.5,6.2,1.4,7.5c0.7,0.3,1.5,0.4,2.4,0.3
				c3.5-0.7,7.9-6.1,7.9-6.1S106.4,448.8,102.9,449.5L102.9,449.5z"/>
		</g>
		<path class="st117" d="M102.5,440.7c0.5,0.7,0.7,1.5,0.8,2.3c0.2,3.2-3.1,5.6-6.1,4.5c-0.7-0.3-1.4-0.7-1.9-1.4
			c-2.1-2.9-1.6-9.9-1.6-9.9S100.5,437.8,102.5,440.7L102.5,440.7z"/>
		<path class="st117" d="M97.6,448.9c0.5,0.7,0.7,1.5,0.8,2.3c0.2,3.2-3.1,5.6-6.1,4.5c-0.7-0.3-1.4-0.7-1.9-1.4
			c-2.1-2.9-1.6-9.9-1.6-9.9S95.5,446.1,97.6,448.9L97.6,448.9z"/>
		<path class="st26" d="M111.7,423.3c0.3,0.8,0.3,1.6,0.2,2.4c-0.6,3.2-4.5,4.7-7.1,2.8c-0.6-0.4-1.2-1-1.5-1.9
			c-1.3-3.3,0.9-10,0.9-10S110.4,420,111.7,423.3z"/>
		<path class="st116" d="M110.4,424.9c0.2,0.5,0.2,1,0.1,1.5c-0.4,2-2.8,2.9-4.4,1.7c-0.4-0.3-0.7-0.6-0.9-1.2
			c-0.8-2,0.6-6.2,0.6-6.2S109.6,422.9,110.4,424.9L110.4,424.9z"/>
		<path class="st118" d="M116.9,430.3c-0.5,0.3-1,0.3-1.5,0.3c-2-0.1-3.2-2.4-2.3-4.1c0.2-0.4,0.5-0.8,1-1.1
			c1.9-1.1,6.2-0.2,6.2-0.2S118.8,429.2,116.9,430.3L116.9,430.3z"/>
		<path class="st116" d="M113.1,439.9c-0.5,0.3-1,0.3-1.5,0.3c-2-0.1-3.2-2.4-2.3-4.1c0.2-0.4,0.5-0.8,1-1.1
			c1.9-1.1,6.2-0.2,6.2-0.2S115,438.8,113.1,439.9L113.1,439.9z"/>
		<path class="st118" d="M108.2,448c-0.5,0.1-1,0-1.5-0.2c-1.8-0.8-2.3-3.3-0.8-4.7c0.4-0.3,0.8-0.6,1.3-0.7c2.2-0.4,6,1.8,6,1.8
			S110.3,447.6,108.2,448L108.2,448z"/>
		<path class="st116" d="M102.9,456.9c-0.5,0.1-1,0-1.5-0.2c-1.8-0.8-2.3-3.3-0.8-4.7c0.4-0.3,0.8-0.6,1.3-0.7c2.2-0.4,6,1.8,6,1.8
			S105,456.5,102.9,456.9L102.9,456.9z"/>
		<path class="st117" d="M107.9,433.6c0.3,0.8,0.3,1.6,0.2,2.4c-0.6,3.2-4.5,4.7-7.1,2.8c-0.6-0.5-1.2-1.1-1.5-1.9
			c-1.3-3.3,0.9-10,0.9-10S106.6,430.3,107.9,433.6z"/>
		<path class="st71" d="M84.6,465.5c0,0,23.4-13.8,29.1-45.1"/>
		<path class="st71" d="M120,415.8c-0.9,3.8-6.2,4.5-6.2,4.5s-4.5-2.9-3.6-6.7c0.9-3.8,7.1-8.6,7.1-8.6S120.9,411.9,120,415.8
			L120,415.8z"/>
		<g>
			<path class="st71" d="M114.4,423.4c-0.7,0.5-1.2,1.1-1.5,1.8c-1.3,3,0.9,6.4,4.1,6.4c0.8,0,1.6-0.2,2.3-0.7c3-1.9,5-8.6,5-8.6
				S117.3,421.5,114.4,423.4L114.4,423.4z"/>
			<path class="st71" d="M111.1,433.2c-0.7,0.5-1.2,1.1-1.5,1.8c-1.3,3,0.9,6.4,4.1,6.4c0.8,0,1.6-0.2,2.3-0.7c3-1.9,5-8.6,5-8.6
				S114.1,431.3,111.1,433.2L111.1,433.2z"/>
			<path class="st71" d="M108.3,441.2c-0.9,0.2-1.6,0.6-2.1,1.1c-2.3,2.2-1.5,6.2,1.4,7.5c0.7,0.3,1.5,0.4,2.4,0.3
				c3.5-0.7,7.9-6.1,7.9-6.1S111.7,440.6,108.3,441.2L108.3,441.2z"/>
			<path class="st71" d="M103,449.5c-0.9,0.2-1.6,0.6-2.1,1.1c-2.3,2.2-1.5,6.2,1.4,7.5c0.7,0.3,1.5,0.4,2.4,0.3
				c3.5-0.7,7.9-6.1,7.9-6.1S106.5,448.8,103,449.5L103,449.5z"/>
		</g>
		<path class="st118" d="M106.8,435.1c0.2,0.5,0.2,1,0.1,1.5c-0.4,2-2.8,2.9-4.4,1.7c-0.4-0.3-0.7-0.6-0.9-1.2
			c-0.8-2,0.6-6.2,0.6-6.2S106,433,106.8,435.1L106.8,435.1z"/>
		<path class="st119" d="M102.4,442.3c0.3,0.4,0.5,0.9,0.5,1.4c0.1,2-1.9,3.5-3.8,2.9c-0.5-0.2-0.9-0.4-1.2-0.9
			c-1.3-1.8-1.1-6.1-1.1-6.1S101.1,440.6,102.4,442.3L102.4,442.3z"/>
		<path class="st118" d="M96.9,450.9c0.3,0.4,0.5,0.9,0.5,1.4c0.1,2-1.9,3.5-3.8,2.9c-0.5-0.2-0.9-0.4-1.2-0.9
			c-1.3-1.8-1.1-6.1-1.1-6.1S95.6,449.2,96.9,450.9L96.9,450.9z"/>
		<g>
			<path class="st71" d="M102.6,440.4c0.5,0.7,0.7,1.5,0.8,2.3c0.2,3.2-3.1,5.6-6.1,4.5c-0.7-0.3-1.4-0.7-1.9-1.4
				c-2.1-2.9-1.6-9.9-1.6-9.9S100.5,437.5,102.6,440.4L102.6,440.4z"/>
			<path class="st71" d="M97.7,448.6c0.5,0.7,0.7,1.5,0.8,2.3c0.2,3.2-3.1,5.6-6.1,4.5c-0.7-0.3-1.4-0.7-1.9-1.4
				c-2.1-2.9-1.6-9.9-1.6-9.9S95.6,445.8,97.7,448.6L97.7,448.6z"/>
			<path class="st71" d="M111.8,423c0.3,0.8,0.3,1.6,0.2,2.4c-0.6,3.2-4.5,4.7-7.1,2.8c-0.6-0.4-1.2-1-1.5-1.9
				c-1.3-3.3,0.9-10,0.9-10S110.5,419.7,111.8,423z"/>
			<path class="st71" d="M107.9,433.3c0.3,0.8,0.3,1.6,0.2,2.4c-0.6,3.2-4.5,4.7-7.1,2.8c-0.6-0.4-1.2-1-1.5-1.9
				c-1.3-3.3,0.9-10,0.9-10S106.6,430,107.9,433.3z"/>
		</g>
	</g>
</g>
<g>
	<path class="st120" d="M171.2,423.8c0,0-2.9-3.7-6.4-4.8c0.1-0.2,22.3-10.1,33.7,8.6"/>
	<path class="st120" d="M161.2,445.2c0,0-3.6,5.7-1.9,7c5,3.9,14.1,2.1,14.1,2.1"/>
	<path class="st121" d="M162.8,445.1c0,0-2.6,4.1-1.4,5.1c3.6,2.8,10.1,1.5,10.1,1.5"/>
	<path class="st120" d="M147.1,449.2c5.4-1.7,11.9-6.7,11.9-6.7s12.4,15.5,27.7,15.2c15.3-0.3,22.8-10.9,22.8-10.9l-4.2-2.7l6.5-0.1
		c0,0-8.3-20.6-28.6-21.8C167,421.2,160,433,160,433c-0.4-9.1-10.5-11.2-10.5-11.2S155.5,436.1,147.1,449.2L147.1,449.2z"/>
	<path class="st122" d="M209.3,446.2c0,0-7.5,10.6-22.8,10.9c-15.3,0.3-27.7-15.2-27.7-15.2s-6.5,4.9-11.9,6.7
		c1.7-2.6,2.8-5.2,3.4-7.8c0.2-0.1,0.4-0.2,0.6-0.3c4.6-2.4,10.3-1.8,14.3,1.5c5.1,4.2,12.7,8.9,21.2,8.8c9-0.2,15.3-3.9,19-7
		L209.3,446.2L209.3,446.2z"/>
	<path class="st71" d="M154.8,424.2c-2.6-1.8-5.3-2.4-5.3-2.4s5.9,14.4-2.4,27.4c5.4-1.7,11.9-6.7,11.9-6.7s12.4,15.5,27.7,15.2
		c15.3-0.3,22.8-10.9,22.8-10.9l-4.2-2.7l6.5-0.1c0,0-8.3-20.6-28.6-21.8"/>
	<path class="st71" d="M179.4,422.2C165.8,423.1,160,433,160,433c-0.1-2.5-1-4.5-2.2-6.1"/>
	<path class="st71" d="M198.9,428.9c0,0-10.1,9.1-5.3,27.4"/>
	<circle class="st5" cx="200" cy="436.9" r="1.9"/>
	<path class="st71" d="M161.2,445.2c0,0-3.6,5.7-1.9,7c5,3.9,14.1,2.1,14.1,2.1"/>
	<path class="st71" d="M161.5,431.4c0.1,0,3.9-1.7,9.3-2.6"/>
	<path class="st71" d="M190.7,436.6c0,0-3.5,6.7-1.1,16"/>
	<circle class="st71" cx="200" cy="437" r="1.9"/>
	<path class="st123" d="M170.9,418.4c0,0,7.1-2.1,15.6,0.5"/>
	<path class="st71" d="M171.2,423.8c0,0-2.9-3.7-6.4-4.8c0.1-0.2,22.3-10.1,33.7,8.6"/>
	<g>
		
			<ellipse transform="matrix(0.5556 -0.8315 0.8315 0.5556 -270.8807 345.5757)" class="st5" cx="187.8" cy="426.2" rx="1.9" ry="1.3"/>
		
			<ellipse transform="matrix(0.5556 -0.8315 0.8315 0.5556 -269.3957 349.0657)" class="st5" cx="191.8" cy="426.5" rx="0.8" ry="0.9"/>
	</g>
	<path class="st124" d="M176.3,429.1c0,0,7-0.6,13.2,2.7"/>
	<path class="st124" d="M180.5,429.2c1.9,0.2,4.2,0.6,6.5,1.5"/>
	<path class="st71" d="M176,428.3c6.2-0.2,13.2,1,18.8,6.4"/>
</g>
<path class="st66" d="M37.1,449.7v16.2H22.5C30.2,460.3,34.6,456.5,37.1,449.7z"/>
<rect x="23.4" y="406.4" class="st66" width="20.5" height="2.5"/>
<path class="st26" d="M16,435.6v-1.7h21.5v16.1H17.1c-0.6,0-1.1-0.2-1.1-0.4v-12.6"/>
<path class="st125" d="M37.7,435.6v-1.7h11.5v16.1H38.4c-0.4,0-0.7-0.2-0.7-0.4v-12.6"/>
<path class="st66" d="M16,421.6v-0.3h21.5v2.4H17.1c-0.6,0-1.1,0-1.1-0.1v-1.9"/>
<path class="st66" d="M29.9,421.6v-0.3h19.5v2.4H31.1c-0.6,0-1.1,0-1.1-0.1v-1.9"/>
<path class="st66" d="M23.2,409.6v-0.3h19.5v2.4H24.3c-0.6,0-2.4,0-2.4-0.1l1.2-1.9"/>
<path class="st69" d="M16,447.6v-0.3h21.5v2.5H17.1c-0.6,0-1.1,0-1.1-0.1v-2"/>
<path class="st126" d="M34.1,421.1h15.2v43.6c0,0.6-0.5,1.1-1.1,1.1H34.1"/>
<path class="st126" d="M16,426.4v-5.3h21.5v44.8H17.1c-0.6,0-1.1-0.5-1.1-1.1v-34.1"/>
<polyline class="st126" points="37.5,420.8 43.9,409.3 49.2,420.8 "/>
<polyline class="st126" points="42.3,412.9 21.8,412.9 14.6,424.4 "/>
<polyline class="st126" points="23.1,409.4 23.1,404.1 43.6,404.1 43.6,409.2 "/>
<line class="st126" x1="16.4" y1="462.1" x2="33.7" y2="462.1"/>
<line class="st126" x1="41.4" y1="462.1" x2="49.2" y2="462.1"/>
<g>
	<line class="st127" x1="16.2" y1="433.8" x2="23" y2="433.8"/>
	<line class="st127" x1="26" y1="433.8" x2="37.5" y2="433.8"/>
	<line class="st6" x1="16.2" y1="449.9" x2="36.8" y2="449.9"/>
</g>
<g>
	<line class="st127" x1="37.6" y1="433.8" x2="44.4" y2="433.8"/>
	<line class="st127" x1="46.3" y1="433.8" x2="49.3" y2="433.8"/>
	<line class="st127" x1="37.6" y1="449.9" x2="49.5" y2="449.9"/>
</g>
<line class="st128" x1="17.9" y1="436.5" x2="27.5" y2="436.5"/>
<line class="st129" x1="23.4" y1="407.6" x2="28.6" y2="407.6"/>
<line class="st129" x1="37.9" y1="405.8" x2="43.1" y2="405.8"/>
<line class="st72" x1="38.8" y1="419.1" x2="44" y2="419.1"/>
<circle class="st40" cx="29.3" cy="415.6" r="2.4"/>
<g>
	<path class="st130" d="M172.7,222.4h24.9v2.1c0,1.4-1.2,2.6-2.6,2.6h-19.7c-1.4,0-2.6-1.2-2.6-2.6L172.7,222.4L172.7,222.4
		L172.7,222.4z"/>
	<path class="st50" d="M184.8,222.6l13-0.1l0.2-36.7c0-0.9-0.4-1.7-1.1-2.2l0,0c-1.4-1-1.5-3.1-0.2-4.2l0.4-0.3
		c0.6-0.5,0.9-1.2,0.9-2l0,0c0-4.5-3.9-7.9-8.4-7.9l-4.7-0.2h0.9h-4.9c-4.5,0-8.1,3.7-8.1,8.1l0,0c0,0.8,0.4,1.5,0.9,2l0.4,0.3
		c1.3,1.1,1.2,3.2-0.2,4.2l0,0c-0.7,0.5-1.1,1.3-1.1,2.2l-0.2,36.7l13.1,0.1L184.8,222.6L184.8,222.6z"/>
	<path class="st130" d="M197.7,176.9c0,0.8-0.4,1.6-1,2.1l-0.4,0.3c-0.6,0.5-0.9,1.2-1,1.9h-20.6c-0.1-0.6-0.4-1.2-0.9-1.7
		c0,0,0-0.1-0.1-0.1c-0.1-0.1-0.1-0.1-0.2-0.2l-0.4-0.3c0,0,0,0-0.1-0.1c-0.4-0.5-0.7-1.1-0.7-1.8c0-4.6,3.7-8.3,8.2-8.3h9
		c2.1,0,4.1,0.8,5.5,2.1c0,0,0.1,0.1,0.1,0.1l0.3,0.3C196.9,172.8,197.7,174.8,197.7,176.9L197.7,176.9z"/>
	<path class="st7" d="M193.5,169.7c-1.1-0.6-2.5-1-3.9-1h-4.9"/>
	<path class="st7" d="M197.8,187.3v-1.8c0-0.9-0.4-1.7-1.1-2.2l0,0c-1.4-1-1.5-3.1-0.2-4.2l0.4-0.3c0.6-0.5,0.9-1.2,0.9-2l0,0
		c0-1.7-0.5-3.3-1.4-4.6"/>
	<line class="st7" x1="197.8" y1="214.1" x2="197.8" y2="191"/>
	<path class="st7" d="M184.7,227.1h9.8c1.8,0,3.3-1.5,3.3-3.3v-6.3"/>
	<path class="st40" d="M188.8,167.1c0-1.9-1.5-3.4-3.4-3.4s-3.4,1.5-3.4,3.4v1.8h6.9L188.8,167.1L188.8,167.1z"/>
	<line class="st131" x1="195.6" y1="200.2" x2="195.6" y2="192.2"/>
	<line class="st132" x1="195.6" y1="209.8" x2="195.6" y2="206.2"/>
	<line class="st133" x1="173.7" y1="187.3" x2="173.7" y2="220.6"/>
	<line class="st134" x1="173.7" y1="196.6" x2="173.7" y2="212.1"/>
	<line class="st134" x1="173.7" y1="190" x2="173.7" y2="191.2"/>
	<line class="st72" x1="173" y1="222.6" x2="197.8" y2="222.6"/>
	<line class="st72" x1="194.9" y1="190.1" x2="194.9" y2="215.8"/>
	<path class="st7" d="M179.6,227.1h-3.8c-1.8,0-3.3-1.5-3.3-3.3v-28.7"/>
	<line class="st7" x1="185.6" y1="227.1" x2="183.3" y2="227.1"/>
	<line class="st7" x1="175.3" y1="181.1" x2="195.2" y2="181.1"/>
	<path class="st135" d="M173.5,175.9c0,0-0.1-6.6,8.8-6.4"/>
	<path class="st107" d="M174,173.9c0.5-1.2,1.6-2.6,3.5-3.5"/>
	<path class="st7" d="M172.5,191.1v-5.6c0-0.9,0.4-1.7,1.1-2.2l0,0c1.4-1,1.5-3.1,0.2-4.2l-0.4-0.3c-0.6-0.5-0.9-1.2-0.9-2l0,0
		c0-4.5,3.7-8.1,8.1-8.1h4.9"/>
	<line class="st136" x1="176" y1="180.2" x2="194.2" y2="180.2"/>
	<line class="st136" x1="194.4" y1="223.2" x2="176.2" y2="223.2"/>
	<g>
		<line class="st72" x1="172.5" y1="176.9" x2="182.4" y2="176.9"/>
		<line class="st72" x1="183.7" y1="176.9" x2="185.2" y2="176.9"/>
	</g>
	<line class="st72" x1="196.9" y1="174" x2="192" y2="174"/>
	<line class="st72" x1="178.1" y1="224.6" x2="173.2" y2="224.6"/>
	<g>
		<line class="st54" x1="184.9" y1="190.4" x2="189.8" y2="190.4"/>
		<line class="st54" x1="184.9" y1="194.8" x2="189.7" y2="194.8"/>
		<g>
			<line class="st54" x1="184.9" y1="207.9" x2="189.4" y2="207.9"/>
			<line class="st54" x1="184.9" y1="212.1" x2="189.3" y2="212.1"/>
		</g>
		<g>
			<line class="st54" x1="184.9" y1="199.2" x2="192" y2="199.2"/>
			<line class="st54" x1="184.9" y1="203.4" x2="189.3" y2="203.4"/>
		</g>
		<g>
			<circle class="st14" cx="179.3" cy="192.4" r="1.7"/>
			<circle class="st14" cx="179.3" cy="200.9" r="1.7"/>
			<circle class="st14" cx="179.3" cy="209.9" r="1.7"/>
		</g>
		<g>
			<circle class="st6" cx="179" cy="192.3" r="1.7"/>
			<circle class="st6" cx="179" cy="200.9" r="1.7"/>
			<circle class="st6" cx="179" cy="209.9" r="1.7"/>
		</g>
	</g>
</g>
</svg>
