<?xml version="1.0" encoding="UTF-8"?>
<svg id="Layer_2" data-name="Layer 2" xmlns="http://www.w3.org/2000/svg" viewBox="0 0 570.02 489.9">
  <defs>
    <style>
      .cls-1, .cls-2, .cls-3, .cls-4, .cls-5, .cls-6, .cls-7, .cls-8, .cls-9, .cls-10, .cls-11, .cls-12, .cls-13, .cls-14, .cls-15, .cls-16, .cls-17, .cls-18, .cls-19, .cls-20 {
        fill: none;
      }

      .cls-1, .cls-2, .cls-3, .cls-4, .cls-5, .cls-6, .cls-8, .cls-9, .cls-10, .cls-11, .cls-12, .cls-13, .cls-14, .cls-15, .cls-17, .cls-18, .cls-19 {
        stroke-miterlimit: 10;
      }

      .cls-1, .cls-2, .cls-3, .cls-5, .cls-6, .cls-7, .cls-8, .cls-9, .cls-11, .cls-12, .cls-13, .cls-14, .cls-15, .cls-16, .cls-18, .cls-19, .cls-20 {
        stroke-linecap: round;
      }

      .cls-1, .cls-4, .cls-20 {
        stroke-width: 3px;
      }

      .cls-1, .cls-19 {
        stroke: #d65600;
      }

      .cls-2, .cls-3, .cls-5, .cls-6, .cls-11 {
        stroke-width: 6px;
      }

      .cls-2, .cls-11, .cls-13 {
        stroke: #55cfff;
      }

      .cls-3, .cls-18 {
        stroke: #35798e;
      }

      .cls-4 {
        stroke: #ce0040;
      }

      .cls-5, .cls-9 {
        stroke: #fff2e3;
      }

      .cls-6 {
        stroke: #ff6e9b;
      }

      .cls-21 {
        fill: #f9b46e;
      }

      .cls-22 {
        fill: #e57700;
      }

      .cls-23, .cls-24 {
        fill: #fff;
      }

      .cls-25 {
        fill: #fff5de;
      }

      .cls-26 {
        fill: #fff2e3;
      }

      .cls-27 {
        fill: #f21c54;
      }

      .cls-28 {
        fill: #ffc943;
      }

      .cls-29 {
        fill: #ffb999;
      }

      .cls-30 {
        fill: #ffb867;
      }

      .cls-31, .cls-32 {
        fill: #fc6901;
      }

      .cls-33 {
        fill: #f0d2a8;
      }

      .cls-34 {
        fill: #fda100;
      }

      .cls-35 {
        fill: #ff6e9b;
      }

      .cls-36 {
        fill: #ba472d;
      }

      .cls-37, .cls-38 {
        fill: #a55004;
      }

      .cls-39 {
        fill: #ce0040;
      }

      .cls-40 {
        fill: #d65600;
      }

      .cls-41 {
        fill: #e28324;
      }

      .cls-42 {
        fill: #e27352;
      }

      .cls-43 {
        fill: #133543;
      }

      .cls-44 {
        fill: #157acc;
      }

      .cls-45 {
        fill: #1e84d8;
      }

      .cls-46, .cls-47 {
        fill: #092128;
      }

      .cls-48 {
        fill: #081b21;
      }

      .cls-49 {
        fill: #35798e;
      }

      .cls-50 {
        fill: #873b03;
      }

      .cls-51 {
        fill: #2a95c9;
      }

      .cls-52 {
        fill: #3998f7;
      }

      .cls-53 {
        fill: #55cfff;
      }

      .cls-7, .cls-10 {
        stroke: #ffc943;
      }

      .cls-7, .cls-10, .cls-19 {
        stroke-width: 5px;
      }

      .cls-7, .cls-16, .cls-20 {
        stroke-linejoin: round;
      }

      .cls-8 {
        opacity: .49;
        stroke: #e57700;
      }

      .cls-8, .cls-9 {
        stroke-width: 7px;
      }

      .cls-11, .cls-54, .cls-55 {
        opacity: .5;
      }

      .cls-12 {
        stroke: #f7946d;
        stroke-width: 8px;
      }

      .cls-24 {
        opacity: .33;
      }

      .cls-13, .cls-14, .cls-15, .cls-16 {
        stroke-width: 4px;
      }

      .cls-14 {
        stroke: #d3deef;
      }

      .cls-15 {
        stroke: #fff;
      }

      .cls-16 {
        stroke: #5b2500;
      }

      .cls-17 {
        stroke: #e27352;
      }

      .cls-18 {
        stroke-width: 3.32px;
      }

      .cls-38 {
        opacity: .55;
      }

      .cls-55, .cls-56, .cls-57 {
        fill: #fc9770;
      }

      .cls-20 {
        stroke: #fff5de;
      }

      .cls-47 {
        opacity: .71;
      }

      .cls-56 {
        opacity: .75;
      }

      .cls-32 {
        opacity: .28;
      }

      .cls-58 {
        fill: #5b2500;
        opacity: .39;
      }

      .cls-57 {
        opacity: .66;
      }
    </style>
  </defs>
  <g id="Layer_2-2" data-name="Layer 2">
    <g>
      <rect class="cls-43" x="191.81" y="363.57" width="38.13" height="96.56"/>
      <rect class="cls-43" x="240.97" y="363.57" width="38.08" height="96.56"/>
      <rect class="cls-43" x="176.74" y="263.09" width="117.38" height="123.35" rx="36.86" ry="36.86"/>
      <rect class="cls-47" x="177.59" y="243.89" width="117.38" height="123.35" rx="36.86" ry="36.86"/>
      <rect class="cls-44" x="266.34" y="223.43" width="57.6" height="74.99" rx="22.96" ry="22.96"/>
      <rect class="cls-29" x="62.81" y="221.92" width="96.23" height="34.76"/>
      <rect class="cls-56" x="119.09" y="221.92" width="39.96" height="34.76"/>
      <rect class="cls-52" x="129.68" y="216.95" width="57.6" height="44.71"/>
      <rect class="cls-52" x="169.49" y="200.3" width="132.65" height="153.32" rx="31.31" ry="31.31"/>
      <path class="cls-45" d="M302.14,291.73v27.95c0,18.74-12.93,33.94-28.89,33.94h-74.87c-15.96,0-28.89-15.2-28.89-33.94v-27.95c0,18.74,12.93,33.94,28.89,33.94h74.87c15.96,0,28.89-15.2,28.89-33.94Z"/>
      <rect class="cls-45" x="253.92" y="242.73" width="39.53" height="48" rx="7.32" ry="7.32"/>
      <ellipse class="cls-29" cx="234.45" cy="206.35" rx="32.75" ry="21.04"/>
      <ellipse class="cls-56" cx="234.45" cy="195.06" rx="32.75" ry="21.04"/>
      <line class="cls-2" x1="172.15" y1="277.27" x2="172.15" y2="296.38"/>
      <line class="cls-2" x1="185.7" y1="257.22" x2="185.7" y2="277.45"/>
      <line class="cls-2" x1="194.74" y1="392.47" x2="194.74" y2="402.44"/>
      <line class="cls-11" x1="194.74" y1="414.58" x2="194.74" y2="431.81"/>
      <line class="cls-2" x1="164.76" y1="218.21" x2="144.52" y2="218.21"/>
      <line class="cls-2" x1="259.83" y1="353.6" x2="229.84" y2="353.6"/>
      <line class="cls-9" x1="100.38" y1="225.36" x2="86.27" y2="225.36"/>
      <g>
        <circle class="cls-42" cx="145.75" cy="145.13" r="20.9"/>
        <circle class="cls-36" cx="145.75" cy="145.13" r="10.96"/>
      </g>
      <g>
        <circle class="cls-42" cx="325.89" cy="145.13" r="20.9"/>
        <circle class="cls-36" cx="325.89" cy="145.13" r="10.96"/>
      </g>
      <rect class="cls-29" x="145.91" y="78" width="180" height="126.37" rx="33.66" ry="33.66"/>
      <path class="cls-55" d="M325.91,148.82v22.99c0,17.99-15.58,32.57-34.79,32.57h-110.43c-19.21,0-34.78-14.57-34.78-32.57v-22.99c0,17.98,15.57,32.57,34.78,32.57h110.43c19.21,0,34.79-14.58,34.79-32.57Z"/>
      <path class="cls-12" d="M168.76,105.74h40.41c1.14,0,2.26-.33,3.22-.95l17.73-11.47h20.71"/>
      <g>
        <path class="cls-48" d="M183.47,45.31h27.08v11.75c0,9.63-7.82,17.44-17.44,17.44h-27.08v-11.75c0-9.63,7.82-17.44,17.44-17.44Z" transform="translate(320.06 -87.33) rotate(114.17)"/>
        <path class="cls-48" d="M201.63,43.77h27.08v11.75c0,9.63-7.82,17.44-17.44,17.44h-27.08v-11.75c0-9.63,7.82-17.44,17.44-17.44Z" transform="translate(382.39 -64.41) rotate(129.31)"/>
      </g>
      <g>
        <path class="cls-23" d="M255.18,163.15c1.75,0,3.14,1.54,2.89,3.28-1.59,10.82-10.9,19.12-22.16,19.12s-20.58-8.31-22.16-19.12c-.25-1.73,1.14-3.28,2.89-3.28h38.55Z"/>
        <circle class="cls-42" cx="235.91" cy="160.64" r="7.26"/>
      </g>
      <g>
        <rect class="cls-48" x="213.85" y="124.92" width="13.92" height="23.13" rx="6.96" ry="6.96"/>
        <circle class="cls-23" cx="215.76" cy="135" r="3.61"/>
      </g>
      <g>
        <rect class="cls-48" x="245.19" y="124.92" width="13.92" height="23.13" rx="6.96" ry="6.96"/>
        <circle class="cls-23" cx="247.1" cy="135" r="3.61"/>
      </g>
      <path class="cls-48" d="M147.19,88.71h30.49v10.31c0,9.85-8,17.85-17.85,17.85h-30.49v-10.31c0-9.85,8-17.85,17.85-17.85Z" transform="translate(256.3 -50.72) rotate(90)"/>
      <rect class="cls-43" x="274.92" y="46.16" width="7.91" height="28.61" rx="3.95" ry="3.95" transform="translate(38.77 -93.73) rotate(20.48)"/>
      <rect class="cls-43" x="269.84" y="48.42" width="7.91" height="28.61" rx="3.95" ry="3.95" transform="translate(-6.01 87.32) rotate(-17.93)"/>
      <path class="cls-43" d="M187.82,46.54h48.43v24.55c0,18.34-14.89,33.24-33.24,33.24h-48.43v-24.55c0-18.34,14.89-33.24,33.24-33.24Z"/>
      <path class="cls-43" d="M232.49,61.2h86.39v1.89c0,15.85-12.87,28.72-28.72,28.72h-86.39v-1.89c0-15.85,12.87-28.72,28.72-28.72Z"/>
      <path class="cls-48" d="M313.06,86.94h29.4v12.76c0,10.45-8.49,18.94-18.94,18.94h-29.4v-12.76c0-10.45,8.49-18.94,18.94-18.94Z" transform="translate(421.08 -215.5) rotate(90)"/>
      <line class="cls-3" x1="197.37" y1="68.84" x2="217.14" y2="68.84"/>
      <line class="cls-3" x1="221.75" y1="79.95" x2="235.49" y2="79.95"/>
      <line class="cls-3" x1="250.55" y1="71.67" x2="264.67" y2="71.67"/>
      <line class="cls-3" x1="139.4" y1="92.09" x2="139.4" y2="106.21"/>
      <line class="cls-5" x1="146.17" y1="139.9" x2="146.17" y2="154.02"/>
      <g>
        <rect class="cls-43" x="206.97" y="111.61" width="24.85" height="10.55" rx="5.28" ry="5.28"/>
        <rect class="cls-43" x="240.01" y="111.61" width="24.85" height="10.55" rx="5.28" ry="5.28" transform="translate(504.86 233.77) rotate(180)"/>
        <line class="cls-18" x1="220.71" y1="116.65" x2="212.9" y2="116.65"/>
      </g>
      <path class="cls-3" d="M165,71.67s3.71-9.5,12.21-13.96"/>
      <circle class="cls-49" cx="186.97" cy="54.68" r="3.34"/>
      <rect class="cls-53" x="253.92" y="237.83" width="39.53" height="48" rx="7.32" ry="7.32"/>
      <g>
        <circle class="cls-44" cx="264.36" cy="248.42" r="4.8"/>
        <circle class="cls-44" cx="264.36" cy="262.11" r="4.8"/>
        <circle class="cls-44" cx="264.36" cy="275.81" r="4.8"/>
      </g>
      <rect class="cls-44" x="124.6" y="212.76" width="10.92" height="53.08" rx="5.46" ry="5.46"/>
      <rect class="cls-34" x="37.42" y="166.4" width="25.41" height="131.43"/>
      <rect class="cls-28" x="22.18" y="295.83" width="55.91" height="11.86" rx="5.93" ry="5.93"/>
      <rect class="cls-28" x="0" y="306.66" width="100.26" height="21.27" rx="10.63" ry="10.63"/>
      <rect class="cls-22" x="37.42" y="170.64" width="25.41" height="11.26"/>
      <path class="cls-30" d="M61.02,88.24c0,17.36-5.07,22.35-11.33,22.35s-11.33-4.99-11.33-22.35,5.07-40.52,11.33-40.52,11.33,23.16,11.33,40.52Z"/>
      <path class="cls-32" d="M57.35,91.7c0,11.75-3.43,15.12-7.67,15.12s-7.67-3.37-7.67-15.12,3.43-27.42,7.67-27.42,7.67,15.67,7.67,27.42Z"/>
      <circle class="cls-31" cx="49.68" cy="96.09" r="8.19"/>
      <rect class="cls-33" x="37.42" y="104.2" width="25.41" height="63.39"/>
      <rect class="cls-34" x="31.78" y="161.6" width="36.71" height="12.42" rx="6.21" ry="6.21"/>
      <rect class="cls-34" x="15.62" y="148.3" width="69.01" height="16.43" rx="8.22" ry="8.22"/>
      <rect class="cls-26" x="31.99" y="97.41" width="36.14" height="9.69" rx="4.85" ry="4.85"/>
      <path class="cls-9" d="M46.11,101.74v42.92h-9.67c-5.27,0-9.53,4.27-9.53,9.53v20.96"/>
      <line class="cls-9" x1="41.02" y1="145.03" x2="41.02" y2="161.78"/>
      <line class="cls-9" x1="40.83" y1="147.48" x2="58.72" y2="147.48"/>
      <line class="cls-9" x1="25.61" y1="309.38" x2="11.49" y2="309.38"/>
      <line class="cls-9" x1="40.95" y1="288" x2="40.95" y2="273.88"/>
      <line class="cls-8" x1="40.95" y1="201.03" x2="40.95" y2="190.58"/>
      <g>
        <rect class="cls-29" x="29.54" y="213.93" width="42.16" height="17.15" rx="7.94" ry="7.94"/>
        <rect class="cls-29" x="29.54" y="230.95" width="42.16" height="17.15" rx="7.94" ry="7.94"/>
        <rect class="cls-29" x="29.54" y="247.98" width="42.16" height="17.15" rx="7.94" ry="7.94"/>
      </g>
      <g>
        <circle class="cls-46" cx="236.03" cy="365.27" r="3.58"/>
        <circle class="cls-46" cx="236.03" cy="374.48" r="3.58"/>
      </g>
      <g>
        <path class="cls-51" d="M237.45,476.69c0,10.06-12.33,13.21-27.53,13.21s-27.53-3.15-27.53-13.21,12.33-23.21,27.53-23.21,27.53,13.15,27.53,23.21Z"/>
        <path class="cls-51" d="M288.27,476.69c0,10.06-12.33,13.21-27.53,13.21s-27.53-3.15-27.53-13.21,12.33-23.21,27.53-23.21,27.53,13.15,27.53,23.21Z"/>
        <path class="cls-13" d="M196.88,457.81s11.58-6.64,25.98,.42"/>
      </g>
      <g>
        <path class="cls-14" d="M184.72,360.58c3.77,0,6.82,3.05,6.82,6.82s-3.05,6.82-6.82,6.82-6.82-3.05-6.82-6.82"/>
        <path class="cls-15" d="M191.54,367.41c0,3.77-3.05,6.82-6.82,6.82"/>
      </g>
      <g>
        <circle class="cls-29" cx="395.92" cy="371.21" r="16.21"/>
        <rect class="cls-29" x="388.19" y="317.17" width="19.76" height="39.53"/>
        <rect class="cls-57" x="388.19" y="304.75" width="19.76" height="39.53"/>
      </g>
      <circle class="cls-29" cx="552.78" cy="370.08" r="16.21"/>
      <rect class="cls-29" x="541.83" y="317.17" width="19.76" height="39.53" transform="translate(1103.42 673.87) rotate(-180)"/>
      <rect class="cls-57" x="541.83" y="304.75" width="19.76" height="39.53" transform="translate(1103.42 649.03) rotate(-180)"/>
      <path class="cls-27" d="M523.56,223.43h42.35v106.73h-15.7c-14.71,0-26.65-11.94-26.65-26.65v-80.08h0Z" transform="translate(1089.48 553.59) rotate(-180)"/>
      <path class="cls-27" d="M409.6,223.43h15.7v106.73h-42.35v-80.08c0-14.71,11.94-26.65,26.65-26.65Z"/>
      <path class="cls-39" d="M414.4,237.18h10.91v92.98h-32.8v-71.09c0-12.08,9.81-21.89,21.89-21.89Z"/>
      <path class="cls-39" d="M522.26,237.18h32.8v92.98h-10.91c-12.08,0-21.89-9.81-21.89-21.89v-71.09h0Z" transform="translate(1077.32 567.34) rotate(-180)"/>
      <rect class="cls-39" x="378.15" y="327.9" width="29.36" height="9.98" rx="4.99" ry="4.99"/>
      <rect class="cls-39" x="540.66" y="327.9" width="29.36" height="9.98" rx="4.99" ry="4.99"/>
      <circle class="cls-27" cx="478.39" cy="28.33" r="28.33"/>
      <rect class="cls-27" x="405.78" y="24.82" width="143.19" height="183.6" rx="36.18" ry="36.18"/>
      <path class="cls-27" d="M546.02,207.63v236.54c0,15.39-12.47,27.86-27.86,27.86h-87.16c-15.39,0-27.86-12.47-27.86-27.86V207.63c0-4.45,1.05-8.66,2.91-12.39,1.07-2.16,2.42-4.16,4-5.96,5.09-5.83,12.59-9.51,20.95-9.51h87.16c10.2,0,19.11,5.48,23.96,13.65,2.12,3.56,3.47,7.63,3.8,11.99,.07,.73,.1,1.47,.1,2.22Z"/>
      <path class="cls-39" d="M546.01,205.22c-.03,.06-.06,.13-.09,.19-5.59,12.75-18.32,21.65-33.13,21.65h-70.82c-18.51,0-33.77-13.89-35.92-31.82,1.07-2.16,2.42-4.16,4-5.96,6.08,11.4,18.09,19.15,31.92,19.15h70.82c12.07,0,22.76-5.91,29.33-15.01l.39-.54c2.12,3.65,3.38,7.85,3.5,12.34Z"/>
      <rect class="cls-39" x="413" y="34.07" width="128.76" height="165.1" rx="32.54" ry="32.54"/>
      <g>
        <circle class="cls-42" cx="535.39" cy="120" r="14.78"/>
        <circle class="cls-36" cx="535.39" cy="120" r="7.75"/>
      </g>
      <g>
        <circle class="cls-42" cx="419.63" cy="120" r="14.78"/>
        <circle class="cls-36" cx="419.63" cy="120" r="7.75"/>
      </g>
      <rect class="cls-29" x="418.54" y="41.18" width="117.68" height="150.89" rx="29.74" ry="29.74"/>
      <path class="cls-55" d="M536.21,136.99v25.41c0,16.42-13.31,29.74-29.74,29.74h-58.2c-16.42,0-29.74-13.32-29.74-29.74v-25.41c0,16.42,13.32,29.74,29.74,29.74h58.2c16.43,0,29.74-13.32,29.74-29.74Z"/>
      <line class="cls-5" x1="420.97" y1="83.76" x2="420.97" y2="97.88"/>
      <line class="cls-5" x1="469.07" y1="43.81" x2="454.95" y2="43.81"/>
      <line class="cls-6" x1="462.43" y1="27.71" x2="448.32" y2="27.71"/>
      <line class="cls-6" x1="408.88" y1="152.42" x2="408.88" y2="138.3"/>
      <line class="cls-6" x1="478.25" y1="27.71" x2="471.19" y2="27.71"/>
      <g>
        <rect class="cls-48" x="455.17" y="98" width="13.92" height="23.13" rx="6.96" ry="6.96"/>
        <circle class="cls-23" cx="457.07" cy="108.08" r="3.61"/>
      </g>
      <g>
        <rect class="cls-48" x="486.51" y="98" width="13.92" height="23.13" rx="6.96" ry="6.96"/>
        <circle class="cls-23" cx="488.42" cy="108.08" r="3.61"/>
      </g>
      <rect class="cls-50" x="448.29" y="84.69" width="24.85" height="10.55" rx="5.28" ry="5.28"/>
      <rect class="cls-50" x="481.32" y="84.69" width="24.85" height="10.55" rx="5.28" ry="5.28" transform="translate(987.49 179.93) rotate(180)"/>
      <line class="cls-1" x1="462.03" y1="89.74" x2="454.22" y2="89.74"/>
      <g>
        <path class="cls-48" d="M476.7,474.08c0,10.06-12.33,13.21-27.53,13.21s-27.53-3.15-27.53-13.21,12.33-23.21,27.53-23.21,27.53,13.15,27.53,23.21Z"/>
        <path class="cls-48" d="M527.53,474.08c0,10.06-12.33,13.21-27.53,13.21s-27.53-3.15-27.53-13.21,12.33-23.21,27.53-23.21,27.53,13.15,27.53,23.21Z"/>
      </g>
      <path class="cls-50" d="M463.46,134.21h27.84c6.81,0,12.34,5.53,12.34,12.34v38.2c0,14.49-11.77,26.26-26.26,26.26h0c-14.49,0-26.26-11.77-26.26-26.26v-38.2c0-6.81,5.53-12.34,12.34-12.34Z"/>
      <path class="cls-58" d="M503.64,158.21v26.54c0,14.5-11.76,26.26-26.26,26.26s-26.26-11.76-26.26-26.26v-26.54c0,14.5,11.76,26.26,26.26,26.26s26.26-11.76,26.26-26.26Z"/>
      <path class="cls-23" d="M490.98,150.58c1.24,0,2.22,1.09,2.04,2.31-1.12,7.64-7.7,13.5-15.64,13.5s-14.52-5.86-15.64-13.5c-.18-1.22,.8-2.31,2.04-2.31h27.21Z"/>
      <circle class="cls-42" cx="477.38" cy="133.72" r="7.26"/>
      <circle class="cls-26" cx="476.89" cy="43.91" r="3.02"/>
      <line class="cls-19" x1="453.61" y1="162.11" x2="453.61" y2="154.3"/>
      <line class="cls-16" x1="463.77" y1="190.73" x2="463.77" y2="182.91"/>
      <line class="cls-16" x1="478.29" y1="198.02" x2="478.29" y2="190.21"/>
      <line class="cls-16" x1="490.34" y1="184.47" x2="490.34" y2="176.65"/>
      <line class="cls-16" x1="488.32" y1="91.71" x2="496.13" y2="91.71"/>
      <line class="cls-19" x1="498.22" y1="157.22" x2="498.22" y2="149.41"/>
      <circle class="cls-40" cx="453.63" cy="148.14" r="2.16"/>
      <path class="cls-6" d="M415,41.03s6.76-8.59,15.48-11.57"/>
      <circle class="cls-35" cx="410.76" cy="48.51" r="2.54"/>
      <g class="cls-54">
        <line class="cls-17" x1="456.8" y1="63.9" x2="497.84" y2="63.9"/>
        <line class="cls-17" x1="461.84" y1="66.49" x2="492.8" y2="66.49"/>
        <line class="cls-17" x1="466.36" y1="69.08" x2="488.28" y2="69.08"/>
      </g>
      <g>
        <line class="cls-6" x1="385.59" y1="299.05" x2="385.59" y2="284.94"/>
        <line class="cls-6" x1="404.79" y1="262.91" x2="404.79" y2="248.8"/>
      </g>
      <rect class="cls-39" x="453.52" y="426.07" width="20.99" height="5.55" rx="2.73" ry="2.73" transform="translate(892.86 -35.17) rotate(90)"/>
      <rect class="cls-39" x="435.36" y="418.08" width="29.36" height="7.51" rx="3.76" ry="3.76" transform="translate(871.88 -28.21) rotate(90)"/>
      <rect class="cls-35" x="432.93" y="264.16" width="29.36" height="7.51" rx="3.76" ry="3.76" transform="translate(895.22 535.83) rotate(-180)"/>
      <rect class="cls-35" x="432.93" y="278.12" width="29.36" height="7.51" rx="3.76" ry="3.76" transform="translate(895.22 563.76) rotate(-180)"/>
      <rect class="cls-35" x="444.22" y="278.12" width="29.36" height="7.51" rx="3.76" ry="3.76" transform="translate(917.81 563.76) rotate(-180)"/>
      <rect class="cls-35" x="423.61" y="270.78" width="29.36" height="7.51" rx="3.76" ry="3.76" transform="translate(876.58 549.07) rotate(180)"/>
      <rect class="cls-35" x="440.27" y="270.78" width="29.36" height="7.51" rx="3.76" ry="3.76" transform="translate(909.9 549.07) rotate(180)"/>
      <rect class="cls-35" x="440.27" y="285.46" width="29.36" height="7.51" rx="3.76" ry="3.76" transform="translate(909.9 578.44) rotate(180)"/>
      <rect class="cls-35" x="419.66" y="285.46" width="29.36" height="7.51" rx="3.76" ry="3.76" transform="translate(868.68 578.44) rotate(180)"/>
      <rect class="cls-39" x="411.67" y="398.77" width="29.36" height="7.51" rx="3.76" ry="3.76" transform="translate(828.88 -23.82) rotate(90)"/>
      <rect class="cls-39" x="473.22" y="421.64" width="29.36" height="7.51" rx="3.76" ry="3.76" transform="translate(913.3 -62.5) rotate(90)"/>
      <rect class="cls-24" x="425.58" y="272.7" width="13.9" height="3.56" rx="1.78" ry="1.78" transform="translate(865.07 548.96) rotate(180)"/>
      <rect class="cls-24" x="457.03" y="280.1" width="13.9" height="3.56" rx="1.78" ry="1.78" transform="translate(927.97 563.76) rotate(180)"/>
      <rect class="cls-24" x="422.3" y="287.44" width="13.9" height="3.56" rx="1.78" ry="1.78" transform="translate(858.51 578.44) rotate(180)"/>
      <rect class="cls-39" x="403.13" y="355.85" width="142.87" height="8.19"/>
      <g>
        <rect class="cls-41" x="399.06" y="342.76" width="149.65" height="14.68" rx="7.34" ry="7.34"/>
        <path class="cls-38" d="M548.71,350.1c0,2.03-.82,3.86-2.15,5.19-1.33,1.33-3.17,2.15-5.19,2.15h-134.97c-4.05,0-7.34-3.29-7.34-7.34,0-1.23,.3-2.38,.84-3.39,1.21,2.35,3.67,3.95,6.5,3.95h134.97c2.02,0,3.86-.82,5.19-2.15,.53-.52,.98-1.13,1.31-1.8,.54,1.01,.84,2.16,.84,3.39Z"/>
        <rect class="cls-21" x="414.98" y="345.04" width="13.9" height="3.56" rx="1.78" ry="1.78" transform="translate(843.86 693.64) rotate(-180)"/>
        <rect class="cls-21" x="436.53" y="345.04" width="13.9" height="3.56" rx="1.78" ry="1.78" transform="translate(886.96 693.64) rotate(-180)"/>
        <rect class="cls-21" x="491.31" y="345.04" width="13.9" height="3.56" rx="1.78" ry="1.78" transform="translate(996.52 693.64) rotate(-180)"/>
        <rect class="cls-41" x="449.65" y="365.09" width="49.58" height="8.52" rx="4.26" ry="4.26" transform="translate(957.34 11.14) rotate(105.53)"/>
        <rect class="cls-41" x="460.38" y="365.09" width="49.58" height="8.52" rx="4.26" ry="4.26" transform="translate(711.11 -197) rotate(74.47)"/>
        <rect class="cls-21" x="465.61" y="364.1" width="13.9" height="3.56" rx="1.78" ry="1.78" transform="translate(-4.89 725.35) rotate(-74.72)"/>
        <rect class="cls-38" x="479.78" y="363.34" width="6.63" height="1.7" rx=".85" ry=".85" transform="translate(730.85 -187.74) rotate(77.16)"/>
        <rect class="cls-38" x="482.8" y="370.67" width="6.63" height="1.7" rx=".85" ry=".85" transform="translate(740.36 -184.98) rotate(77.16)"/>
        <rect class="cls-38" x="485.77" y="382.48" width="6.63" height="1.7" rx=".85" ry=".85" transform="translate(754.18 -178.69) rotate(77.16)"/>
        <rect class="cls-21" x="462.93" y="378.89" width="11.02" height="2.82" rx="1.41" ry="1.41" transform="translate(-21.84 731.99) rotate(-74.72)"/>
        <circle class="cls-37" cx="491.55" cy="393.56" r="6.42"/>
        <circle class="cls-37" cx="468.61" cy="393.49" r="6.42"/>
        <circle class="cls-41" cx="468.61" cy="393.49" r="3.65"/>
        <circle class="cls-41" cx="491.67" cy="393.49" r="3.65"/>
      </g>
      <circle class="cls-4" cx="509.73" cy="275.95" r="15.25"/>
      <line class="cls-7" x1="508.88" y1="279.9" x2="508.88" y2="296.56"/>
      <g>
        <circle class="cls-10" cx="509.73" cy="272.28" r="15.25"/>
        <path class="cls-20" d="M509.73,257.03c8.42,0,15.25,6.83,15.25,15.25"/>
        <rect class="cls-25" x="507.82" y="280.25" width="2.05" height="16.66" rx="1.02" ry="1.02"/>
      </g>
    </g>
  </g>
</svg>