<svg xmlns="http://www.w3.org/2000/svg" viewBox="0 0 473.12 592.86"><defs><style>.cls-1,.cls-43{opacity:0.35;}.cls-2{fill:#e2e5e8;}.cls-3{fill:#a9b8c4;}.cls-4,.cls-43{fill:#181828;}.cls-30,.cls-5{fill:#fff;}.cls-6{fill:#707070;}.cls-7,.cls-9{fill:#88d9fc;}.cls-7{opacity:0.25;}.cls-8{fill:#ccf2fe;}.cls-10{fill:#adadad;}.cls-11{fill:#eaeaea;}.cls-12{fill:#d38571;}.cls-13{fill:#c66a58;}.cls-14{fill:#f5f6f7;}.cls-15{fill:#f6484b;}.cls-16{fill:#e5353e;}.cls-17{fill:#854277;}.cls-18{fill:#752d67;}.cls-19{fill:#e8f3f9;}.cls-20{fill:#fd5457;}.cls-21{fill:#fec66d;}.cls-22{fill:#f7b14b;}.cls-23{fill:#f69246;}.cls-24{fill:#e07127;}.cls-25{fill:#e59328;}.cls-26{opacity:0.15;}.cls-27{fill:#1b3c47;}.cls-28{fill:#fdc6a2;}.cls-29,.cls-31,.cls-32{fill:#e89176;}.cls-29{opacity:0.49;}.cls-29,.cls-30,.cls-32{isolation:isolate;}.cls-30{opacity:0.55;}.cls-32{opacity:0.62;}.cls-33{fill:#1b1b2b;}.cls-34{fill:#af143b;}.cls-35{fill:#91052d;}.cls-36{fill:#ffdede;}.cls-37{fill:#ea3d90;}.cls-38{fill:#c60c6e;}.cls-39{fill:#675c6c;}.cls-40{fill:#513f5b;}.cls-41{fill:#ffe8dc;}.cls-42{fill:#ffd097;}.cls-44{fill:#ff7b82;}.cls-45{fill:#33e55d;}.cls-46{fill:#1ec441;}.cls-47{fill:#a85b9a;}.cls-48{fill:#5aff7d;}.cls-49{fill:#d7ffdf;}.cls-50{fill:#ff7dc7;}.cls-51{fill:#ffaa71;}</style></defs><title>Asset 346</title><g id="Layer_2" data-name="Layer 2"><g id="Layer_1-2" data-name="Layer 1"><g class="cls-1"><rect class="cls-2" x="273.98" y="131.62" width="96.9" height="178.27"/><rect class="cls-3" x="273.98" y="131.62" width="96.9" height="5.58"/><path class="cls-4" d="M370.88,311.26H274a1.37,1.37,0,0,1-1.37-1.37V131.62a1.37,1.37,0,0,1,1.37-1.38h96.9a1.37,1.37,0,0,1,1.37,1.38V309.89A1.37,1.37,0,0,1,370.88,311.26Zm-95.52-2.75H369.5V133H275.36Z"/><rect class="cls-5" x="281.53" y="150.13" width="81.79" height="5.45"/><rect class="cls-5" x="281.53" y="171.08" width="81.79" height="5.45"/><rect class="cls-5" x="281.53" y="192.03" width="81.79" height="5.45"/><rect class="cls-5" x="281.53" y="212.97" width="81.79" height="5.45"/><rect class="cls-5" x="281.53" y="233.92" width="81.79" height="5.45"/><rect class="cls-5" x="281.53" y="275.81" width="81.79" height="5.45"/><rect class="cls-5" x="281.53" y="296.76" width="81.79" height="5.45"/><rect class="cls-5" x="281.53" y="254.87" width="81.79" height="5.45"/><path class="cls-4" d="M363.33,157.26h-81.8a.87.87,0,0,1-.87-.87v-5.45a.87.87,0,0,1,.87-.88h81.8a.87.87,0,0,1,.87.88v5.45A.87.87,0,0,1,363.33,157.26Zm-80.92-1.75h80v-3.7h-80Z"/><path class="cls-4" d="M363.33,178.21h-81.8a.87.87,0,0,1-.87-.88v-5.45a.87.87,0,0,1,.87-.87h81.8a.87.87,0,0,1,.87.87v5.45A.87.87,0,0,1,363.33,178.21Zm-80.92-1.75h80v-3.7h-80Z"/><path class="cls-4" d="M363.33,199.16h-81.8a.88.88,0,0,1-.87-.88v-5.45a.88.88,0,0,1,.87-.88h81.8a.88.88,0,0,1,.87.88v5.45A.88.88,0,0,1,363.33,199.16Zm-80.92-1.76h80v-3.69h-80Z"/><path class="cls-4" d="M363.33,220.1h-81.8a.87.87,0,0,1-.87-.87v-5.45a.87.87,0,0,1,.87-.88h81.8a.87.87,0,0,1,.87.88v5.45A.87.87,0,0,1,363.33,220.1Zm-80.92-1.75h80v-3.7h-80Z"/><path class="cls-4" d="M363.33,241.05h-81.8a.87.87,0,0,1-.87-.88v-5.45a.87.87,0,0,1,.87-.87h81.8a.87.87,0,0,1,.87.87v5.45A.87.87,0,0,1,363.33,241.05Zm-80.92-1.75h80v-3.7h-80Z"/><path class="cls-4" d="M363.33,282.94h-81.8a.87.87,0,0,1-.87-.87v-5.45a.87.87,0,0,1,.87-.88h81.8a.87.87,0,0,1,.87.88v5.45A.87.87,0,0,1,363.33,282.94Zm-80.92-1.75h80v-3.7h-80Z"/><path class="cls-4" d="M363.33,303.89h-81.8a.87.87,0,0,1-.87-.88v-5.45a.87.87,0,0,1,.87-.87h81.8a.87.87,0,0,1,.87.87V303A.87.87,0,0,1,363.33,303.89Zm-80.92-1.75h80v-3.7h-80Z"/><path class="cls-4" d="M363.33,262h-81.8a.88.88,0,0,1-.87-.88v-5.45a.88.88,0,0,1,.87-.88h81.8a.88.88,0,0,1,.87.88v5.45A.88.88,0,0,1,363.33,262Zm-80.92-1.76h80v-3.69h-80Z"/><path class="cls-4" d="M342.18,112H320.27a13.95,13.95,0,1,1,0-27.89,1.07,1.07,0,0,1,0,2.14,11.81,11.81,0,1,0,0,23.61h21.91a15.66,15.66,0,1,0-15.66-15.66,1.07,1.07,0,0,1-2.14,0,17.8,17.8,0,1,1,17.8,17.8Z"/><path class="cls-4" d="M206.11,74.91H188.19a14.56,14.56,0,1,1,14.56-14.56.88.88,0,0,1-1.75,0,12.81,12.81,0,1,0-12.81,12.81h17.92a9.66,9.66,0,0,0,0-19.32.88.88,0,0,1,0-1.75,11.41,11.41,0,0,1,0,22.82Z"/><path class="cls-6" d="M370.82,4.26H133.93V317.12H379.34V4.26Zm0,302.4H142.45V14.72H370.82Z"/><rect class="cls-7" x="142.45" y="14.72" width="228.37" height="291.94"/><polygon class="cls-8" points="307.86 14.72 206.97 306.66 162.45 306.66 263.35 14.72 307.86 14.72"/><polygon class="cls-8" points="325.45 14.72 224.56 306.66 214.13 306.66 315.03 14.72 325.45 14.72"/><rect class="cls-5" x="150.01" y="132.18" width="6.37" height="47.47" rx="3.19"/><rect class="cls-5" x="150.01" y="244.78" width="6.37" height="27.01" rx="3.19"/><rect class="cls-5" x="150.01" y="23.57" width="6.37" height="27.01" rx="3.19"/><rect class="cls-9" x="143.56" y="15.86" width="227.32" height="3.19"/><rect class="cls-9" x="364.24" y="17.45" width="6.64" height="288.14"/><path class="cls-4" d="M370.82,308.06H142.45a1.41,1.41,0,0,1-1.41-1.4V14.72a1.41,1.41,0,0,1,1.41-1.41H370.82a1.41,1.41,0,0,1,1.4,1.41V306.66A1.4,1.4,0,0,1,370.82,308.06Zm-227-2.8H369.42V16.12H143.85Z"/><path class="cls-10" d="M133.93,102.17h0a4.51,4.51,0,0,1,4.51,4.51V157a4.51,4.51,0,0,1-4.51,4.51h0a0,0,0,0,1,0,0V102.17a0,0,0,0,1,0,0Z"/><path class="cls-10" d="M133.93,228.61h0a4.51,4.51,0,0,1,4.51,4.51v50.32a4.51,4.51,0,0,1-4.51,4.51h0a0,0,0,0,1,0,0V228.61A0,0,0,0,1,133.93,228.61Z"/><path class="cls-4" d="M133,184.11a1.38,1.38,0,0,1-1.38-1.38V54.86a1.38,1.38,0,1,1,2.75,0V182.73A1.37,1.37,0,0,1,133,184.11Z"/><path class="cls-4" d="M380.32,318.5h0l-247.37-4.78a1.37,1.37,0,0,1-1.35-1.37v-119a1.38,1.38,0,1,1,2.75,0V311l244.62,4.72V5.63H134.32V44.51a1.38,1.38,0,0,1-2.75,0V4.26A1.38,1.38,0,0,1,133,2.88H380.32a1.37,1.37,0,0,1,1.37,1.38V317.12a1.34,1.34,0,0,1-.41,1A1.39,1.39,0,0,1,380.32,318.5Z"/><circle class="cls-10" cx="137.5" cy="229.41" r="1.36"/><circle class="cls-10" cx="136.19" cy="161.52" r="1.69"/><circle class="cls-10" cx="137.88" cy="103.23" r="2.76"/></g><polyline class="cls-5" points="417.7 307.03 414.96 278.23 407.73 268.06 412.79 265.56 420.03 277.09 422.77 306.58"/><path class="cls-11" d="M422.77,306.11l-5.07.45-.75-7.88a71.6,71.6,0,0,0,2.41-23.13l.67,1.07Z"/><path class="cls-4" d="M254.18,393.27a.92.92,0,0,1-.92-.91V375a.92.92,0,1,1,1.83,0v17.38A.91.91,0,0,1,254.18,393.27Z"/><path class="cls-4" d="M234.12,392.68H216.86a1.37,1.37,0,0,1,0-2.74h17.26a1.37,1.37,0,1,1,0,2.74Z"/><rect class="cls-12" x="161.44" y="370.98" width="155.85" height="12.38"/><path class="cls-13" d="M245.07,379h72.22a0,0,0,0,1,0,0v4.41a0,0,0,0,1,0,0H240.66a0,0,0,0,1,0,0v0A4.41,4.41,0,0,1,245.07,379Z"/><rect class="cls-5" x="160.58" y="370.98" width="155.85" height="3.9"/><path class="cls-4" d="M315.4,385.33H165.29a4.24,4.24,0,0,1-4.24-4.24v-6.64a4.24,4.24,0,0,1,4.24-4.24H315.4a4.24,4.24,0,0,1,4.24,4.24v6.64A4.24,4.24,0,0,1,315.4,385.33ZM165.29,373a1.5,1.5,0,0,0-1.5,1.5v6.64a1.5,1.5,0,0,0,1.5,1.5H315.4a1.5,1.5,0,0,0,1.5-1.5v-6.64a1.5,1.5,0,0,0-1.5-1.5Z"/><ellipse class="cls-5" cx="173.18" cy="375.11" rx="2.55" ry="1.14"/><circle class="cls-5" cx="176.45" cy="376.23" r="0.28"/><circle class="cls-5" cx="174.83" cy="377.14" r="0.63"/><circle class="cls-5" cx="168.04" cy="376.89" r="0.95"/><circle class="cls-5" cx="168.42" cy="374.96" r="0.39"/><circle class="cls-5" cx="179.86" cy="374.96" r="0.99"/><ellipse class="cls-13" cx="241.84" cy="378.2" rx="1.37" ry="0.86" transform="translate(-133.3 131.64) rotate(-24.09)"/><circle class="cls-13" cx="244.88" cy="377.69" r="0.52"/><circle class="cls-13" cx="239.55" cy="380.41" r="0.51"/><circle class="cls-13" cx="246.95" cy="378.81" r="0.96"/><rect class="cls-5" x="224.91" y="370.7" width="28.76" height="14.65" rx="3.74"/><rect class="cls-14" x="225.76" y="373.83" width="28.76" height="10.81" rx="3.22"/><path class="cls-4" d="M250.74,386h-22.9a5.16,5.16,0,0,1-5.15-5.15v-6.5a5.16,5.16,0,0,1,5.15-5.15h22.9a5.16,5.16,0,0,1,5.15,5.15v6.5A5.16,5.16,0,0,1,250.74,386Zm-22.9-14a2.39,2.39,0,0,0-2.4,2.4v6.5a2.39,2.39,0,0,0,2.4,2.4h22.9a2.39,2.39,0,0,0,2.4-2.4v-6.5a2.39,2.39,0,0,0-2.4-2.4Z"/><path class="cls-4" d="M257.26,378.88H246.13a.92.92,0,0,1,0-1.83h11.13a.92.92,0,0,1,0,1.83Z"/><circle class="cls-4" cx="242.03" cy="377.97" r="1.16"/><path class="cls-4" d="M298.62,366.22a21.88,21.88,0,0,1,1.14-2.06c.34-.55-.52-1.05-.86-.5a19.63,19.63,0,0,0-1.14,2.06c-.28.58.58,1.08.86.5Z"/><path class="cls-4" d="M301.89,365.25a6.64,6.64,0,0,0,.68-2.42c.05-.65-.95-.64-1,0a5.12,5.12,0,0,1-.55,1.91c-.29.58.58,1.08.87.51Z"/><polyline class="cls-15" points="402.32 312.81 406.29 377.19 445.01 377.19 448.98 313.49"/><path class="cls-16" d="M446.05,352.63l-1.53,24.56H405.81l-.56-9C415.15,366,431.07,361.53,446.05,352.63Z"/><path class="cls-4" d="M422.77,307.43a.85.85,0,0,1-.85-.78l-2.72-29.28-6.69-10.66-2.9,1.64L412,272a.85.85,0,0,1-1.44.92l-2.85-4.42a.89.89,0,0,1-.11-.66.86.86,0,0,1,.41-.54l4.38-2.5a.85.85,0,0,1,1.15.29l7.23,11.52a1.07,1.07,0,0,1,.13.38l2.74,29.49a.84.84,0,0,1-.77.92Z"/><path class="cls-4" d="M415.51,284.85a.86.86,0,0,1-.85-.77l-.53-5.57-1.8-2.79a.85.85,0,1,1,1.43-.93l1.92,3a.9.9,0,0,1,.13.39l.55,5.77a.85.85,0,0,1-.77.93Z"/><path class="cls-4" d="M417.7,307.88a.86.86,0,0,1-.85-.77L415,287.41a.85.85,0,0,1,.77-.93.86.86,0,0,1,.93.76L418.55,307a.85.85,0,0,1-.77.93Z"/><path class="cls-5" d="M446.42,306H404v-2.71c0-2,7.09-4.32,3.64-4.32h33.06c2,0,5.68,2.31,5.68,4.32Z"/><path class="cls-4" d="M447.17,306.55c-1.7.09-3.49.13-5.34.1-.93,0-1.81,0-2.71,0l-2.69,0-10.78.12c-7.2.08-14.42.1-21.61.1a.93.93,0,0,1-.93-.93,1.09,1.09,0,0,1,0-.26l1-3.51c.18-.59.29-1.19.44-1.78l.5-1.76a1,1,0,0,1,1-.74H434.8c3.19,0,6.38,0,9.58,0h0a.94.94,0,0,1,.91.72c.34,1.3.71,2.63,1,4S446.91,305.29,447.17,306.55Zm-1.5-1.12c-.42-1.08-.84-2.11-1.21-3.12s-.7-2-1-3.07l1,.72c-3.2.05-6.39,0-9.58,0H406.09l1-.74-.53,1.75c-.18.58-.41,1.15-.58,1.74l-1,3.51-.9-1.19c6.94,0,13.85,0,20.78.1l10.4.13,2.61,0c.87,0,1.75,0,2.59,0C442.1,305.31,443.84,305.34,445.67,305.43Z"/><polygon class="cls-5" points="452.44 312.45 398.03 312.45 400.76 304.3 450.39 304.3 452.44 312.45"/><rect class="cls-16" x="403.04" y="312.92" width="45.22" height="5.91"/><path class="cls-4" d="M436,303.63a1.22,1.22,0,0,1,.9,0c.3,0,.6,0,.9,0h5.41a2.52,2.52,0,0,1,.9-.1h2.71c1.2,0,2.4,0,3.6,0h.05a1.1,1.1,0,0,1,1,.82l2,8.16h0a1.07,1.07,0,0,1-.78,1.3.82.82,0,0,1-.26,0l-54.41,0a1,1,0,0,1-1-1.05.88.88,0,0,1,.06-.33l2.73-8.15a1,1,0,0,1,1-.71h26.62a1,1,0,0,1,0,2.06H400.76l1-.71L399,313.14l-1-1.38,54.41,0-1.05,1.34-2.06-8.14,1.06.83c-1.2.05-2.4,0-3.6,0h-2.71a2.53,2.53,0,0,1-.9-.11h-5.41c-.3,0-.6,0-.9,0a1.22,1.22,0,0,1-.9,0,1.12,1.12,0,0,1-.57-1.48A1.08,1.08,0,0,1,436,303.63Z"/><path class="cls-4" d="M402.92,312.75c.18,1.33.27,2.67.35,4l.24,4,.49,8,1,16.1L406,361c.36,5.37.71,10.73,1,16.1l-1.09-1c.8,0,1.61,0,2.42,0s1.61,0,2.42,0h33.87l-1,1c.27-5.31.65-10.62,1-15.92l.93-15.93,2-31.85a1.13,1.13,0,0,1,2.25.14h0l-2,31.85-1.05,15.92c-.34,5.3-.63,10.62-1,15.92h0a1,1,0,0,1-1,1H410.72c-.81,0-1.62,0-2.42,0s-1.62,0-2.42,0a1.08,1.08,0,0,1-1.09-1v0c-.38-5.36-.69-10.73-1-16.09l-1-16.1-1-16.09-.51-8.05-.25-4c-.08-1.34-.16-2.68-.15-4a1,1,0,0,1,2-.12Z"/><rect class="cls-17" x="291" y="235.43" width="64.91" height="136.08" rx="32.46" transform="translate(763.27 360.75) rotate(144.25)"/><rect class="cls-17" x="132.77" y="210.41" width="64.91" height="136.08" rx="32.46" transform="translate(234.12 -37.92) rotate(42.97)"/><path class="cls-4" d="M282.73,15.48c1.36-.39,4.11-2.93,5.52-3a14.8,14.8,0,0,0-1.76,7.11"/><path class="cls-4" d="M284.81,17A55.67,55.67,0,0,0,285,8.69a15.46,15.46,0,0,0-5.58,7.66"/><path class="cls-4" d="M304.83,57.14c1.31.51,5,.14,6.23.91a15,15,0,0,0-5.7,4.6"/><path class="cls-4" d="M305.59,59.58a55.43,55.43,0,0,0,5.17-6.46,15.46,15.46,0,0,0-9.07,2.74"/><path class="cls-4" d="M190.22,31.48c-1.3.54-5,.26-6.21,1.05a14.83,14.83,0,0,1,5.8,4.48"/><path class="cls-4" d="M189.52,33.94a56.6,56.6,0,0,1-5.33-6.34,15.5,15.5,0,0,1,9.14,2.53"/><path class="cls-4" d="M180.59,78.56c-1.3.53-5,.25-6.21,1a14.81,14.81,0,0,1,5.8,4.47"/><path class="cls-4" d="M179.88,81a57.49,57.49,0,0,1-5.32-6.33,15.42,15.42,0,0,1,9.14,2.52"/><path class="cls-4" d="M81.5,301.26a2.07,2.07,0,0,1-.77-.15,2,2,0,0,1-1.12-2.66l28.33-69.78a2,2,0,0,1,3.78,1.53L83.39,300A2.05,2.05,0,0,1,81.5,301.26Z"/><path class="cls-4" d="M82.35,304.1a2,2,0,0,1-1.65-3.23l44-61.11a2,2,0,0,1,3.31,2.39L84,303.26A2.05,2.05,0,0,1,82.35,304.1Z"/><path class="cls-4" d="M140.24,339.08a33.59,33.59,0,0,1-23-9.08h0a33.87,33.87,0,0,1-1.7-47.81L164,230.11a33.83,33.83,0,1,1,49.51,46.12L165,328.31a33.61,33.61,0,0,1-23.55,10.75Zm48.57-117-1.13,0A30.86,30.86,0,0,0,166,232l-48.51,52.07A31.12,31.12,0,0,0,119.08,328h0A31.08,31.08,0,0,0,163,326.43l48.51-52.07a31.09,31.09,0,0,0-22.71-52.27Z"/><path class="cls-4" d="M342.48,363.65a33.81,33.81,0,0,1-27.5-14L273.4,291.85a33.83,33.83,0,1,1,54.91-39.54l41.58,57.76a33.81,33.81,0,0,1-27.41,53.58ZM300.79,241a31.09,31.09,0,0,0-25.16,49.25L317.21,348a31.08,31.08,0,0,0,50.45-36.32l-41.59-57.75a30.88,30.88,0,0,0-20.22-12.52A32.16,32.16,0,0,0,300.79,241Z"/><path class="cls-5" d="M246,215.06h0a88.68,88.68,0,0,1,88.68,88.68v75.3a0,0,0,0,1,0,0H157.3a0,0,0,0,1,0,0v-75.3A88.68,88.68,0,0,1,246,215.06Z"/><path class="cls-17" d="M245.31,215.06h0A88.68,88.68,0,0,1,334,303.75v75.3a0,0,0,0,1,0,0H156.62a0,0,0,0,1,0,0v-75.3a88.68,88.68,0,0,1,88.68-88.68Z"/><path class="cls-18" d="M332.94,303.75v22c0-24.49-5.83-52.11-21.88-68.16s-42.31-30.07-66.8-30.07c-49,0-88,24.71-88,73.68v1.18c0-49,39-87.32,88-87.32a88.68,88.68,0,0,1,88.68,88.69Z"/><path class="cls-4" d="M334,385.26H156.62a1.37,1.37,0,0,1-1.37-1.37V300.32a85,85,0,0,1,84.85-84.85h10.41a85,85,0,0,1,84.86,84.85v83.57A1.37,1.37,0,0,1,334,385.26Zm-176-2.75H332.62V300.32a82.2,82.2,0,0,0-82.11-82.1H240.1a82.19,82.19,0,0,0-82.1,82.1Z"/><path class="cls-5" d="M80.2,306.56A8.5,8.5,0,0,0,81.82,304a3.21,3.21,0,0,1,2.24-1.88,16.06,16.06,0,0,0,1.83.06c1-.22,1.55-1.38,2.46-1.92a4.62,4.62,0,0,1,1.42-.45l4-.78a5.48,5.48,0,0,0,1.54-.46c.76-.4,1.42-1.17,2.28-1.08a8.27,8.27,0,0,1,1,.32,4.6,4.6,0,0,0,1.61,0,16.88,16.88,0,0,1,1.74-.08h1.11l4.08,0a15.67,15.67,0,0,1,5,.51c1.86.61,3.52,1.92,5.47,2a17.73,17.73,0,0,1,2.06,0c1,.14,4.35.84,5.09,1.48a21.39,21.39,0,0,1,4.13,4.82"/><polygon class="cls-5" points="134.99 307.17 130.46 337.46 129.3 345.18 124.77 375.45 73.45 375.45 63.23 307.17 134.99 307.17"/><path class="cls-19" d="M128.44,348.49l-4,26.71H90.8a71,71,0,0,0,17.12-6.74,51.75,51.75,0,0,0,11-7.52,50.78,50.78,0,0,0,7.77-9.68C127.31,350.34,127.89,349.42,128.44,348.49Z"/><path class="cls-4" d="M128.32,344.18l-4.53,30.27c-.2,1.29,1.77,1.84,2,.55l4.53-30.27c.19-1.29-1.78-1.85-2-.55Z"/><path class="cls-4" d="M134,306.17l-4.53,30.29c-.19,1.29,1.78,1.84,2,.54L136,306.71c.19-1.28-1.78-1.84-2-.54Z"/><path class="cls-4" d="M134,306.6l4.72,28.93c.21,1.3,2.18.75,2-.54L136,306.06c-.22-1.3-2.19-.75-2,.54Z"/><polygon class="cls-19" points="128.46 311.79 125.81 328.45 111.73 338.17 86.49 338.17 81.82 334.95 78 332.31 72.41 328.45 69.76 311.79 128.46 311.79"/><path class="cls-4" d="M75.12,279.48l5,26.55c.24,1.29,2.21.75,2-.54l-5-26.55c-.24-1.29-2.22-.75-2,.54Z"/><path class="cls-4" d="M82.39,286.11l-.8,19.69c-.06,1.32,2,1.32,2,0l.8-19.69c0-1.31-2-1.31-2,0Z"/><path class="cls-4" d="M99.11,355.48A16.93,16.93,0,1,1,116,338.55,17,17,0,0,1,99.11,355.48Zm0-32a15.06,15.06,0,1,0,15.06,15.06A15.08,15.08,0,0,0,99.11,323.49Z"/><circle class="cls-20" cx="99.11" cy="338.55" r="12.34"/><path class="cls-4" d="M62.21,306.33l-2.13,30.4c-.09,1.31,2,1.31,2,0l2.14-30.4c.09-1.31-2-1.31-2.05,0Z"/><polygon class="cls-5" points="128.46 307.67 125.81 324.34 111.73 334.06 86.49 334.06 81.82 330.83 78 328.19 72.41 324.34 69.76 307.67 128.46 307.67"/><path class="cls-16" d="M111.44,338.79H86.78a12.25,12.25,0,0,1,.84-4.12h23A12.25,12.25,0,0,1,111.44,338.79Z"/><path class="cls-4" d="M78,329.22a1,1,0,0,1-.58-.18l-5.58-3.86a1,1,0,0,1-.43-.68l-2.66-16.67a1,1,0,1,1,2-.32l2.59,16.24,5.22,3.6a1,1,0,0,1,.27,1.43A1,1,0,0,1,78,329.22Z"/><path class="cls-4" d="M111.71,335.08H86.46a1,1,0,0,1-.58-.18l-4.67-3.23A1,1,0,1,1,82.37,330l4.41,3h24.61l13.45-9.28,2.59-16.24a1,1,0,0,1,2,.32l-2.66,16.67a1,1,0,0,1-.43.68l-14.07,9.72A1,1,0,0,1,111.71,335.08Z"/><circle class="cls-4" cx="113.5" cy="302.41" r="0.81"/><circle class="cls-4" cx="119.01" cy="303.7" r="0.81"/><circle class="cls-4" cx="107.11" cy="303.7" r="1.01"/><circle class="cls-4" cx="109.28" cy="300.86" r="0.47"/><circle class="cls-4" cx="99.34" cy="300.39" r="0.47"/><circle class="cls-4" cx="102.13" cy="303.7" r="0.47"/><path class="cls-4" d="M122.33,372H76.11a.33.33,0,0,1-.34-.29l-.93-7.31a.34.34,0,0,1,.29-.38.33.33,0,0,1,.38.3l.9,7H122l1.15-7a.35.35,0,0,1,.39-.28.34.34,0,0,1,.28.39l-1.19,7.31A.34.34,0,0,1,122.33,372Z"/><path class="cls-4" d="M94.56,309.84H73.85a.34.34,0,1,1,0-.68H94.56a.34.34,0,1,1,0,.68Z"/><circle class="cls-4" cx="97.89" cy="309.5" r="0.99"/><path class="cls-21" d="M100.74,306.89A4.55,4.55,0,0,0,102.8,310a4.48,4.48,0,0,1,1.07.75,2.46,2.46,0,0,1,.48,1.19c.21,1.24.07,2.52.31,3.76a3.28,3.28,0,0,0,2.23,2.77c1.58.33,3-1.29,3.18-2.9s-.34-3.26.78-4.22c.93-.8,2.36-.44,3.55-.77a3.17,3.17,0,0,0,2.13-3.78"/><path class="cls-4" d="M74.44,374.45,65.5,314.74l-1.28-8.57-1,1.29H135a1,1,0,0,0,0-2H63.23a1,1,0,0,0-1,1.29l8.93,59.71L72.46,375c.2,1.29,2.17.74,2-.55Z"/><ellipse class="cls-21" cx="113.28" cy="316.29" rx="1.83" ry="2.18"/><circle class="cls-21" cx="118.84" cy="311.97" r="0.64"/><circle class="cls-21" cx="101.67" cy="314.05" r="0.93"/><path class="cls-22" d="M39.26,383h390.3a0,0,0,0,1,0,0V582.34a7.46,7.46,0,0,1-7.46,7.46H46.72a7.46,7.46,0,0,1-7.46-7.46V383A0,0,0,0,1,39.26,383Z"/><rect class="cls-23" x="49.56" y="403.98" width="370.38" height="176.86"/><rect class="cls-24" x="49.56" y="403.98" width="370.38" height="6.96"/><rect class="cls-25" x="39.26" y="382.99" width="390.3" height="16.95"/><path class="cls-4" d="M422.11,590.91H46.72a8.58,8.58,0,0,1-8.58-8.57V383a1.12,1.12,0,0,1,1.12-1.12H429.57a1.12,1.12,0,0,1,1.11,1.12V582.34A8.57,8.57,0,0,1,422.11,590.91ZM40.38,384.1V582.34a6.35,6.35,0,0,0,6.34,6.34H422.11a6.35,6.35,0,0,0,6.34-6.34V384.1Z"/><path class="cls-4" d="M60.64,400.8H40.1a.86.86,0,1,1,0-1.72H60.64a.86.86,0,0,1,0,1.72Z"/><path class="cls-4" d="M68.41,400.8H65a.86.86,0,1,1,0-1.72h3.38a.86.86,0,0,1,0,1.72Z"/><g class="cls-26"><path class="cls-27" d="M424.77,247.33h-8.53V233h25.33a1,1,0,0,1,0,2.05H418.31v10.29h6.46a1,1,0,1,1,0,2Z"/><path class="cls-27" d="M431.47,247.33h-3.69a1,1,0,1,1,0-2h3.69a1,1,0,0,1,0,2Z"/><path class="cls-27" d="M434.31,247.33h-.07a1,1,0,1,1,0-2h.07a1,1,0,1,1,0,2Z"/><path class="cls-27" d="M452.24,247.33H437.18a1,1,0,1,1,0-2h13V235h-4.51a1,1,0,0,1,0-2.05h6.59Z"/><path class="cls-27" d="M435,235H399V220.65h36ZM401.07,233H433V222.69H401.07Z"/></g><g class="cls-26"><path class="cls-27" d="M78.68,172.49h-.2a1,1,0,0,1,0-2.05h.2a1,1,0,0,1,0,2.05Z"/><path class="cls-27" d="M86.1,172.49H82a1,1,0,0,1,0-2.05h2V160.18H52.17v10.26H70.71a1,1,0,1,1,0,2.05H50.13V158.13h36Z"/><path class="cls-27" d="M75.69,172.49H73.9a1,1,0,0,1,0-2.05h1.82a1,1,0,1,1,0,2.05Z"/><path class="cls-27" d="M58.65,197.11H50.13V182.75H75.45a1,1,0,0,1,0,2.05H52.17v10.27h6.48a1,1,0,0,1,0,2Z"/><path class="cls-27" d="M65.33,197.11h-3.7a1,1,0,1,1,0-2h3.69a1,1,0,0,1,0,2Z"/><path class="cls-27" d="M68.15,197.11h-.08a1,1,0,1,1,0-2h.08a1,1,0,0,1,0,2Z"/><path class="cls-27" d="M86.1,197.11h-15a1,1,0,1,1,0-2h13V184.8H79.54a1,1,0,0,1,0-2.05h6.6Z"/><path class="cls-27" d="M68.86,184.8h-36V170.44h36Zm-33.92-2.05H66.82V172.49H34.94Z"/></g><path class="cls-28" d="M256.18,218.8c0,2.51.72,5.35-.46,7.31-2.35,3.9-8.08,5.9-13.06,5.81h0a13.64,13.64,0,0,1-13.35-13.85l.81-16.66v-.68l27.11.51"/><path class="cls-29" d="M257.94,207.65l-1.7,14.14a16.08,16.08,0,0,1-9.25-.74,75.23,75.23,0,0,0-16.29-5.2h-.12l.14-8.18a71.28,71.28,0,0,0,12.11,1.18A72.19,72.19,0,0,0,257.94,207.65Z"/><circle class="cls-30" cx="220.65" cy="201.58" r="0.72"/><circle class="cls-30" cx="230.67" cy="205.07" r="0.95"/><ellipse class="cls-5" cx="220.04" cy="195.34" rx="2.89" ry="1.66" transform="translate(-34.61 342.73) rotate(-71.66)"/><circle class="cls-30" cx="225.27" cy="196.95" r="0.93"/><path class="cls-30" d="M222.43,197.89a.72.72,0,1,1,0,1.44.72.72,0,1,1,0-1.44Z"/><circle class="cls-30" cx="223.38" cy="191.96" r="0.95"/><path class="cls-28" d="M189.29,119.83l6.65.13a15.76,15.76,0,0,1,15.41,16h0a15.68,15.68,0,0,1-15.95,15.41h0l-6.65-.13a15.77,15.77,0,0,1-15.43-16h0a15.7,15.7,0,0,1,16-15.42Z"/><path class="cls-4" d="M168.3,136.38h0a1.36,1.36,0,0,1-1.34-1.38,16.89,16.89,0,0,1,3.31-9.83,1.37,1.37,0,0,1,2.2,1.62,14.12,14.12,0,0,0-2.78,8.25A1.37,1.37,0,0,1,168.3,136.38Z"/><path class="cls-4" d="M190.66,152.56h-.3l-6.68-.14a17,17,0,0,1-15.65-11,1.36,1.36,0,0,1,2.55-1,14.35,14.35,0,0,0,13.15,9.28l6.65.13a14.37,14.37,0,0,0,.55-28.74l-6.65-.14a14.33,14.33,0,0,0-7.47,1.91,1.36,1.36,0,1,1-1.37-2.36,17.13,17.13,0,0,1,8.9-2.28l6.65.14a17.17,17.17,0,0,1,16.71,17.45,17,17,0,0,1-17,16.75Z"/><path class="cls-31" d="M187.09,132.69l3.46.07a8.19,8.19,0,0,1,8,8.34h0a8.2,8.2,0,0,1-8.32,8l-3.46-.07a8.18,8.18,0,0,1-8-8.33v0h0A8.19,8.19,0,0,1,187.09,132.69Z"/><path class="cls-5" d="M179,129.62a5.83,5.83,0,0,1,2.91-3.17c1.15-.45.68-2.33-.52-1.87a7.65,7.65,0,0,0-4.09,4.09c-.49,1.14,1.18,2.13,1.68,1Z"/><ellipse class="cls-5" cx="176.73" cy="133.25" rx="1.55" ry="1.24" transform="translate(19.1 288.62) rotate(-81.6)"/><path class="cls-28" d="M294.87,119.83l6.65.13A15.76,15.76,0,0,1,317,136h0A15.68,15.68,0,0,1,301,151.41h0l-6.65-.13a15.77,15.77,0,0,1-15.43-16h0a15.68,15.68,0,0,1,15.95-15.41Z"/><path class="cls-4" d="M301.27,152.59H301l-6.68-.14A17.16,17.16,0,0,1,277.53,135a17.05,17.05,0,0,1,17-16.75h.33l6.65.14a17.09,17.09,0,0,1-.28,34.18ZM294.59,121a14.36,14.36,0,0,0-.24,28.72l6.64.14a14.37,14.37,0,0,0,.5-28.73l-6.65-.13h-.25Z"/><path class="cls-31" d="M297.7,132.69l3.46.07a8.19,8.19,0,0,1,8,8.33v0h0a8.18,8.18,0,0,1-8.32,8l-3.46-.07a8.18,8.18,0,0,1-8-8.33v0h0A8.19,8.19,0,0,1,297.7,132.69Z"/><path class="cls-5" d="M286.38,131.23a5.84,5.84,0,0,1,2.91-3.19c1.15-.45.65-2.33-.52-1.87a7.59,7.59,0,0,0-4.09,4.09c-.49,1.13,1.18,2.12,1.68,1Z"/><ellipse class="cls-5" cx="284.16" cy="134.83" rx="1.55" ry="1.24" transform="translate(109.27 396.25) rotate(-81.6)"/><path class="cls-28" d="M283.08,40.83c.68.59,1.28,1.21,1.91,1.83A58.22,58.22,0,0,1,302.1,84v65.32a58.41,58.41,0,0,1-116.81,1.26V84a58.27,58.27,0,0,1,19-43.14C223.7,23.12,263.61,23.23,283.08,40.83Z"/><path class="cls-5" d="M249,206.83c-1.49.12-3,.17-4.54.17-32.25,0-61.85-25.73-58.39-58.39V83.27a58.24,58.24,0,0,1,19-43.12c1.85,1.12,1.45,2.17,3.53,3.13-9.83,10.44-17.44,24.54-17.44,40v65.34C191.13,179.34,214.8,205.82,249,206.83Z"/><circle class="cls-28" cx="276.77" cy="115.4" r="4.28"/><path class="cls-32" d="M280.26,47.64c8.36,10.36,12.91,35.47,12.9,48.79l-59.82-.31,0,3a9.46,9.46,0,0,0,9.47,9.34h50.31v41.06a58.39,58.39,0,0,1-53.78,58.21c1.53.13,3.08.19,4.63.19a58.4,58.4,0,0,0,58.4-58.4V84.23a58.22,58.22,0,0,0-17.1-41.3c-.63-.62-1.26-1.23-1.92-1.82a56.81,56.81,0,0,1-6,3.18c.27.28.53.58.78.88"/><path class="cls-33" d="M178.38,137.79a1,1,0,0,1-.65-.23,1,1,0,0,1-.14-1.44,13.56,13.56,0,0,1,7.79-4.7,1,1,0,1,1,.4,2,11.53,11.53,0,0,0-6.61,4A1,1,0,0,1,178.38,137.79Z"/><path class="cls-33" d="M310,137.79a1,1,0,0,1-.79-.37,11.48,11.48,0,0,0-6.61-4,1,1,0,1,1,.4-2,13.48,13.48,0,0,1,7.79,4.7,1,1,0,0,1-.14,1.44A1,1,0,0,1,310,137.79Z"/><path class="cls-4" d="M190.28,174.05a1.35,1.35,0,0,1-1.23-.77,21.51,21.51,0,0,1-1.46-4.05,1.37,1.37,0,0,1,2.65-.66,18.35,18.35,0,0,0,1.27,3.53,1.36,1.36,0,0,1-1.23,2Z"/><ellipse class="cls-32" cx="224.57" cy="131.24" rx="7.51" ry="9.5"/><ellipse class="cls-4" cx="224.24" cy="129.17" rx="7.4" ry="9.38"/><ellipse class="cls-5" cx="221.59" cy="125.76" rx="2.73" ry="2.98"/><ellipse class="cls-32" cx="263.59" cy="131.24" rx="7.51" ry="9.5"/><ellipse class="cls-4" cx="263.27" cy="129.17" rx="7.4" ry="9.38"/><ellipse class="cls-5" cx="260.61" cy="125.76" rx="2.73" ry="2.98"/><path class="cls-4" d="M243.66,209.11a60,60,0,0,1-51.45-29.35,1.36,1.36,0,1,1,2.34-1.39,57.28,57.28,0,0,0,49.11,28h.06a57,57,0,0,0,57-57.1V84A57.19,57.19,0,0,0,284,43.62l-.13-.14c-.57-.57-1.11-1.11-1.71-1.63-9.07-8.19-23.1-12.89-38.52-12.91h-.09c-15.41,0-29.37,4.7-38.33,12.89A57,57,0,0,0,186.62,84v65.33a56.34,56.34,0,0,0,.92,10.29,1.37,1.37,0,1,1-2.69.49,60.94,60.94,0,0,1-1-10.78V84a59.73,59.73,0,0,1,19.48-44.15c19.83-18.13,60.51-18.14,80.59,0,.65.57,1.25,1.17,1.83,1.75l.13.13A60,60,0,0,1,303.43,84v65.32a59.77,59.77,0,0,1-59.7,59.84Z"/><path class="cls-4" d="M243.21,233.15a14.28,14.28,0,0,1-9.67-3.79,15.09,15.09,0,0,1-4.92-11.12V207.67a1.37,1.37,0,0,1,2.73,0v10.57a12.32,12.32,0,0,0,4,9.1,11.51,11.51,0,0,0,9,3c.27,0,.55-.06.83-.1a12.1,12.1,0,0,0,10.11-12V207.65a1.37,1.37,0,0,1,2.73,0v10.63A14.85,14.85,0,0,1,245.57,233l-1,.12C244.13,233.12,243.67,233.15,243.21,233.15Z"/><path class="cls-28" d="M216.71,140.7c0-3.26,3.37-5.9,7.53-5.9s7.53,2.64,7.53,5.9"/><path class="cls-28" d="M256.07,140.7c0-3.26,3.37-5.9,7.52-5.9s7.53,2.64,7.53,5.9"/><path class="cls-34" d="M215.43,146.88h51.78a0,0,0,0,1,0,0v42.8a25.89,25.89,0,0,1-25.89,25.89h0a25.89,25.89,0,0,1-25.89-25.89v-42.8A0,0,0,0,1,215.43,146.88Z"/><path class="cls-35" d="M246.7,215a25.91,25.91,0,0,1-31.27-25.33v-42.8h10.76v42.8A25.89,25.89,0,0,0,246.7,215Z"/><rect class="cls-5" x="224.24" y="146.87" width="42.97" height="15.72"/><rect class="cls-36" x="224.24" y="146.87" width="42.97" height="6.55"/><path class="cls-4" d="M267.21,164h-43a1.38,1.38,0,0,1-1.38-1.38V146.88a1.38,1.38,0,0,1,2.76,0v14.34h41.59a1.38,1.38,0,1,1,0,2.75Z"/><path class="cls-37" d="M267.13,182.49v6.88a25.9,25.9,0,0,1-38.33,22.71l-.19-1.55a27.3,27.3,0,0,1-.47-5A26.29,26.29,0,0,1,267,182.43Z"/><path class="cls-38" d="M246,215.14a26,26,0,0,1-17.13-2.76l-.19-1.55a27.32,27.32,0,0,1-.47-5,25.91,25.91,0,0,1,.47-4.93A25.88,25.88,0,0,0,246,215.14Z"/><path class="cls-4" d="M241.32,217a27.3,27.3,0,0,1-27.27-27.27v-42.8a1.38,1.38,0,0,1,1.38-1.38h51.78a1.38,1.38,0,0,1,1.38,1.38v42.8A27.3,27.3,0,0,1,241.32,217Zm-24.52-68.7v41.43a24.52,24.52,0,0,0,49,0V148.25Z"/><path class="cls-4" d="M228.69,212.9a1.39,1.39,0,0,1-1.35-1.12,28.62,28.62,0,0,1-.49-5.24,27.67,27.67,0,0,1,40.85-24.33,1.38,1.38,0,0,1-1.31,2.42,24.92,24.92,0,0,0-36.34,26.63,1.38,1.38,0,0,1-1.09,1.61Z"/><circle class="cls-4" cx="230.57" cy="171.54" r="2.93"/><circle class="cls-4" cx="223.24" cy="185.64" r="1.47"/><circle class="cls-4" cx="211.85" cy="170.82" r="1.47"/><circle class="cls-4" cx="204.41" cy="176.16" r="1.47"/><circle class="cls-4" cx="204.41" cy="191.34" r="1.47"/><path class="cls-39" d="M244.2,1.36h0a62.17,62.17,0,0,1,62.17,62.17V99.39a0,0,0,0,1,0,0H182a0,0,0,0,1,0,0V63.53A62.17,62.17,0,0,1,244.2,1.36Z"/><path class="cls-40" d="M305.48,74.49v6.08A7.32,7.32,0,0,0,301,79H185.24a7.21,7.21,0,0,0-4.1,1.26V74.17a7.34,7.34,0,0,1,4.1-1.24H301A7.31,7.31,0,0,1,305.48,74.49Z"/><path class="cls-4" d="M306.37,100.75H182a1.36,1.36,0,0,1-1.36-1.36V63.54a63.54,63.54,0,1,1,127.07,0V99.39A1.36,1.36,0,0,1,306.37,100.75ZM183.39,98H305V63.54a60.81,60.81,0,0,0-121.62,0Z"/><path class="cls-4" d="M194.45,43.11a1.33,1.33,0,0,1-.58-.13,1.36,1.36,0,0,1-.65-1.82,64.07,64.07,0,0,1,27.53-28.93,1.36,1.36,0,1,1,1.28,2.4,61.42,61.42,0,0,0-26.35,27.7A1.36,1.36,0,0,1,194.45,43.11Z"/><rect class="cls-39" x="178.77" y="79.37" width="130.43" height="22.64" rx="7.36"/><path class="cls-40" d="M309.47,90.84v3.81a7.35,7.35,0,0,1-7.36,7.36H186.41A7.36,7.36,0,0,1,179,94.65V90.84a7.37,7.37,0,0,0,7.37,7.36h115.7A7.36,7.36,0,0,0,309.47,90.84Z"/><path class="cls-4" d="M301.84,103.38H186.13a8.74,8.74,0,0,1-8.73-8.73V86.73A8.74,8.74,0,0,1,186.13,78H301.84a8.73,8.73,0,0,1,8.72,8.72v7.92A8.74,8.74,0,0,1,301.84,103.38ZM186.13,80.74a6,6,0,0,0-6,6v7.92a6,6,0,0,0,6,6H301.84a6,6,0,0,0,6-6V86.73a6,6,0,0,0-6-6Z"/><rect class="cls-4" x="192.32" y="83.18" width="3.05" height="15.02" rx="1.53"/><rect class="cls-4" x="205.89" y="83.18" width="3.05" height="15.02" rx="1.53"/><rect class="cls-4" x="219.45" y="83.18" width="3.05" height="15.02" rx="1.53"/><rect class="cls-4" x="233.01" y="83.18" width="3.05" height="15.02" rx="1.53"/><rect class="cls-4" x="246.58" y="83.18" width="3.05" height="15.02" rx="1.53"/><rect class="cls-4" x="260.14" y="83.18" width="3.05" height="15.02" rx="1.53"/><rect class="cls-4" x="273.7" y="83.18" width="3.05" height="15.02" rx="1.53"/><rect class="cls-4" x="287.27" y="83.18" width="3.05" height="15.02" rx="1.53"/><circle class="cls-4" cx="191.28" cy="50.38" r="3.19"/><rect class="cls-41" x="194.47" y="108.12" width="4.25" height="22.93" rx="2.12"/><path class="cls-4" d="M246,151.34a1.36,1.36,0,0,1-1.27-.88,36.67,36.67,0,0,1-2.33-10.85s0-.05,0-.08v-9a1.37,1.37,0,1,1,2.73,0v9a34.34,34.34,0,0,0,2.16,10,1.37,1.37,0,0,1-.8,1.76A1.32,1.32,0,0,1,246,151.34Z"/><rect class="cls-17" x="242.3" y="329.75" width="145.08" height="38.62" rx="19.31" transform="translate(-24.13 23.39) rotate(-4.1)"/><path class="cls-18" d="M387.45,347.48a19.3,19.3,0,0,1-17.93,19.23l-106.19,7.61a19.31,19.31,0,0,1-20.5-16.56,19.19,19.19,0,0,0,11.3,2.7l106.19-7.6a19.31,19.31,0,0,0,17.93-19.24c0-.47,0-.94-.05-1.41s-.08-.88-.14-1.31a19.24,19.24,0,0,1,9.34,15.17C387.44,346.55,387.45,347,387.45,347.48Z"/><path class="cls-4" d="M261.82,374.4a20.69,20.69,0,0,1-1.45-41.32l106.19-7.61a20.69,20.69,0,1,1,3,41.27l-106.19,7.6C262.83,374.38,262.32,374.4,261.82,374.4Zm106.25-46.23c-.44,0-.87,0-1.31.05l-106.19,7.6a17.94,17.94,0,1,0,2.56,35.78L369.32,364l.1,1.38-.1-1.38a17.93,17.93,0,0,0-1.25-35.82Z"/><ellipse class="cls-28" cx="249.04" cy="349.39" rx="27.64" ry="22.12" transform="translate(-100.62 100.73) rotate(-19.1)"/><path class="cls-32" d="M257,370.8c-10.09,3.49-20.43,1.94-27.09-3.24a32.6,32.6,0,0,0,15.69-1.51c14.43-5,22.88-18.4,18.89-29.94a18.72,18.72,0,0,0-6.27-8.62c8.31,1.32,15.14,6.11,17.66,13.37C279.83,352.4,271.38,365.81,257,370.8Z"/><path class="cls-4" d="M245.68,374.47c-11,0-20.57-5.5-23.74-14.65-4.24-12.24,4.61-26.46,19.73-31.7s30.87.47,35.11,12.71h0c4.24,12.24-4.61,26.46-19.73,31.69A34.86,34.86,0,0,1,245.68,374.47Zm7.39-45.55a32.25,32.25,0,0,0-10.5,1.8c-13.68,4.74-21.77,17.39-18,28.2s17.92,15.74,31.61,11,21.77-17.39,18-28.19C271.4,333.71,262.88,328.92,253.07,328.92Z"/><circle class="cls-41" cx="239.09" cy="345.65" r="8.75"/><path class="cls-17" d="M275.9,266.24h22.74a7.88,7.88,0,0,1,7.88,7.88v25a19.25,19.25,0,0,1-19.25,19.25h0A19.25,19.25,0,0,1,268,299.13v-25a7.88,7.88,0,0,1,7.88-7.88Z"/><line class="cls-17" x1="268.01" y1="275.61" x2="305.51" y2="275.61"/><rect class="cls-22" x="1.26" y="376.92" width="470.6" height="16.4" rx="8.2"/><rect class="cls-22" x="1.26" y="376.92" width="470.6" height="16.4" rx="8.2"/><path class="cls-25" d="M471.86,384.74a8.21,8.21,0,0,1-8.2,8.2H9.46a8.2,8.2,0,0,1-8.2-8.2,8,8,0,0,1,.66-3.21,8.2,8.2,0,0,0,7.54,5h454.2a8.17,8.17,0,0,0,5.79-2.4,8,8,0,0,0,1.75-2.59A8,8,0,0,1,471.86,384.74Z"/><path class="cls-4" d="M463.66,394.29H9.46a9.46,9.46,0,1,1,0-18.92h454.2a9.46,9.46,0,0,1,0,18.92ZM9.46,377.9a6.94,6.94,0,0,0,0,13.87h454.2a6.94,6.94,0,1,0,0-13.87Z"/><rect class="cls-42" x="181.44" y="379.18" width="67.98" height="4.71" rx="2.35"/><rect class="cls-42" x="134.03" y="379.18" width="37.98" height="4.71" rx="2.35"/><rect class="cls-42" x="54.36" y="379.18" width="37.98" height="4.71" rx="2.35"/><path class="cls-43" d="M468.26,592.86H17.83a1.36,1.36,0,1,1,0-2.72H468.26a1.36,1.36,0,0,1,0,2.72Z"/><path class="cls-44" d="M411.28,348.17h0a2.78,2.78,0,0,1-3-2.58l-1.74-21.44a2.79,2.79,0,0,1,2.59-3h0a2.79,2.79,0,0,1,3,2.58l1.73,21.44A2.79,2.79,0,0,1,411.28,348.17Z"/><ellipse class="cls-5" cx="410.21" cy="323.93" rx="6.07" ry="4.03" transform="translate(-107.01 248.5) rotate(-30)"/><path class="cls-45" d="M273.71,266.24h27.11a5.7,5.7,0,0,1,5.7,5.7v29.38a17.07,17.07,0,0,1-17.07,17.07h-4.37A17.07,17.07,0,0,1,268,301.32V271.94A5.7,5.7,0,0,1,273.71,266.24Z"/><path class="cls-46" d="M305.4,272.1v29.38a17.07,17.07,0,0,1-17.07,17.07H284a16.94,16.94,0,0,1-7.23-1.6,17,17,0,0,0,3.8.43h4.37A17.07,17.07,0,0,0,302,300.3V270.93a5.69,5.69,0,0,0-2.23-4.53A5.7,5.7,0,0,1,305.4,272.1Z"/><line class="cls-45" x1="268.01" y1="275.61" x2="305.51" y2="275.61"/><rect class="cls-47" x="132.58" y="259.67" width="5.65" height="23.69" rx="2.82" transform="translate(221.39 -19.45) rotate(42.97)"/><rect class="cls-47" x="161.44" y="341.31" width="5.65" height="23.69" rx="2.82"/><rect class="cls-47" x="180.16" y="346.66" width="5.65" height="23.69" rx="2.82"/><rect class="cls-47" x="178.46" y="295.2" width="5.65" height="23.69" rx="2.82"/><rect class="cls-47" x="170.87" y="319.23" width="2.82" height="11.84" rx="1.41"/><rect class="cls-47" x="158.48" y="308.88" width="2.82" height="11.84" rx="1.41"/><ellipse class="cls-47" cx="133.68" cy="276.98" rx="2.42" ry="1.98" transform="translate(-160.11 186) rotate(-47.03)"/><circle class="cls-47" cx="138.13" cy="275.49" r="0.78"/><circle class="cls-47" cx="137.82" cy="279.68" r="0.47"/><circle class="cls-47" cx="131.18" cy="280.61" r="1.4"/><circle class="cls-47" cx="133.53" cy="284.08" r="0.81"/><circle class="cls-47" cx="135.79" cy="282.99" r="0.39"/><circle class="cls-47" cx="134.66" cy="280.47" r="0.33"/><path class="cls-46" d="M305.51,279H283a1.31,1.31,0,1,1,0-2.61h22.5a1.31,1.31,0,1,1,0,2.61Z"/><path class="cls-46" d="M275.84,279H268a1.31,1.31,0,0,1,0-2.61h7.83a1.31,1.31,0,0,1,0,2.61Z"/><path class="cls-4" d="M305.51,276.91H283a1.31,1.31,0,1,1,0-2.61h22.5a1.31,1.31,0,1,1,0,2.61Z"/><path class="cls-4" d="M275.84,276.91H268a1.31,1.31,0,0,1,0-2.61h7.83a1.31,1.31,0,0,1,0,2.61Z"/><rect class="cls-48" x="271.93" y="282.99" width="3.11" height="21.31" rx="1.56"/><rect class="cls-48" x="277.14" y="298.25" width="2.39" height="10.44" rx="1.2"/><rect class="cls-49" x="276.59" y="263.44" width="2.39" height="10.44" rx="1.2" transform="translate(546.45 -9.12) rotate(90)"/><path class="cls-4" d="M289.45,319.69h-4.37a18.39,18.39,0,0,1-18.37-18.37V271.94a7,7,0,0,1,7-7h27.11a7,7,0,0,1,7,7v29.38A18.39,18.39,0,0,1,289.45,319.69Zm-15.74-52.14a4.4,4.4,0,0,0-4.39,4.39v29.38a15.78,15.78,0,0,0,15.76,15.76h4.37a15.79,15.79,0,0,0,15.77-15.76V271.94a4.4,4.4,0,0,0-4.4-4.39Z"/><path class="cls-5" d="M450.22,295.32c-.29,1.07-.61,2.13-1,3.19-.41,1.25,1.57,1.79,2,.54q.51-1.59,1-3.18a1,1,0,0,0-2-.55Z"/><path class="cls-50" d="M235,192.92a.69.69,0,0,1-.57-1.06,25.24,25.24,0,0,1,18.14-10.15.68.68,0,1,1,.11,1.36,24.28,24.28,0,0,0-17.11,9.54A.7.7,0,0,1,235,192.92Z"/><ellipse class="cls-50" cx="237.66" cy="191.34" rx="2.58" ry="1.64" transform="translate(-55.28 276.68) rotate(-55.08)"/><circle class="cls-50" cx="242.16" cy="190.02" r="0.84"/><circle class="cls-50" cx="240.48" cy="194.5" r="0.84"/><path class="cls-4" d="M419.94,582H49.56a1.12,1.12,0,0,1-1.12-1.12V404a1.12,1.12,0,0,1,1.12-1.12H419.94a1.12,1.12,0,0,1,1.12,1.12V580.84A1.12,1.12,0,0,1,419.94,582ZM50.68,579.72H418.82V405.1H50.68Z"/><path class="cls-4" d="M169.68,277.05a15.33,15.33,0,0,1,.38-7.06.77.77,0,0,0-1.48-.41,17.08,17.08,0,0,0-.38,7.88c.18,1,1.66.56,1.48-.41Z"/><path class="cls-4" d="M172.8,273.84a14.58,14.58,0,0,1,2.29-7.58c.56-.81-.77-1.58-1.33-.77-1.76,2.53-2.26,5.33-2.49,8.35-.07,1,1.46,1,1.53,0Z"/><rect class="cls-51" x="54.36" y="495.13" width="7.8" height="45.94" rx="3.9"/><rect class="cls-51" x="54.36" y="416.61" width="3.9" height="22.97" rx="1.95"/><rect class="cls-51" x="54.36" y="555.04" width="3.9" height="22.97" rx="1.95"/><path class="cls-4" d="M80.93,307.28a21.27,21.27,0,0,0,1.43-2.08,3.1,3.1,0,0,1,2.62-2,3.62,3.62,0,0,0,1,0c1.53-.61,2.42-1.91,4-2.38A45.69,45.69,0,0,1,102,298.72c2.37-.06,4.84-.16,7.21,0,2.71.17,4.66,1.75,7.21,2.29,1.75.37,3.52.12,5.29.56,3,.74,4.65,2.83,6.33,5.36.72,1.09,2.5.07,1.77-1-2.54-3.82-5-6.15-9.64-6.73-1.4-.18-2.75.06-4.13-.41s-2.64-1.31-4.08-1.69c-2.67-.72-5.61-.42-8.34-.41-1.25,0-2.52.13-3.76.13s-2.12-.49-3.33-.13-2.18,1.21-3.51,1.48a31.5,31.5,0,0,0-4.24.85,8.17,8.17,0,0,0-2,1.34c-1.13.78-2.09.56-3.29.91-2.2.65-2.56,3.07-4,4.59-.89,1,.55,2.42,1.45,1.45Z"/><ellipse class="cls-28" cx="90.8" cy="289.45" rx="27.64" ry="22.12" transform="translate(-71.84 33.38) rotate(-15)"/><path class="cls-32" d="M97.16,311.38c-10.31,2.76-20.51.48-26.79-5.18a32.43,32.43,0,0,0,15.77-.38c14.75-3.95,24.14-16.72,21-28.51a18.59,18.59,0,0,0-5.63-9c8.2,1.9,14.67,7.17,16.66,14.59C121.3,294.65,111.91,307.42,97.16,311.38Z"/><circle class="cls-41" cx="81.15" cy="285.02" r="8.75"/><path class="cls-4" d="M88.05,314.31c-12,0-22.33-6.36-25-16.39-3.35-12.51,6.49-26.06,22-30.2s30.75,2.66,34.1,15.18h0c3.36,12.51-6.49,26.06-21.94,30.2A35.25,35.25,0,0,1,88.05,314.31Zm6.06-45.06a32.62,32.62,0,0,0-8.42,1.12c-14,3.75-23,15.79-20,26.84s16.75,17,30.74,13.23,23-15.78,20-26.83h0C114.07,274.81,104.84,269.25,94.11,269.25Z"/></g></g></svg>