<?xml version="1.0" encoding="UTF-8"?>
<svg id="Layer_2" data-name="Layer 2" xmlns="http://www.w3.org/2000/svg" viewBox="0 0 209.09 218.05">
  <defs>
    <style>
      .cls-1 {
        stroke-width: 1.42px;
      }

      .cls-1, .cls-2, .cls-3, .cls-4, .cls-5, .cls-6, .cls-7, .cls-8, .cls-9, .cls-10, .cls-11, .cls-12, .cls-13, .cls-14, .cls-15, .cls-16, .cls-17, .cls-18, .cls-19, .cls-20, .cls-21, .cls-22, .cls-23, .cls-24, .cls-25 {
        fill: none;
      }

      .cls-1, .cls-2, .cls-3, .cls-4, .cls-5, .cls-7, .cls-8, .cls-9, .cls-10, .cls-11, .cls-12, .cls-13, .cls-14, .cls-15, .cls-16, .cls-18, .cls-19, .cls-20, .cls-21, .cls-23, .cls-24, .cls-25 {
        stroke-linecap: round;
        stroke-linejoin: round;
      }

      .cls-1, .cls-2, .cls-3, .cls-7, .cls-8, .cls-9 {
        stroke: #1f033c;
      }

      .cls-2 {
        stroke-width: 1.4px;
      }

      .cls-4 {
        stroke: #2f9916;
      }

      .cls-5 {
        stroke-width: .75px;
      }

      .cls-5, .cls-6, .cls-12, .cls-24 {
        stroke: #232144;
      }

      .cls-6, .cls-17, .cls-22 {
        stroke-miterlimit: 10;
      }

      .cls-6, .cls-23, .cls-24 {
        stroke-width: 1.49px;
      }

      .cls-7 {
        stroke-width: 1.43px;
      }

      .cls-8 {
        stroke-width: 1.28px;
      }

      .cls-9 {
        stroke-width: 1.27px;
      }

      .cls-10, .cls-11, .cls-17, .cls-18, .cls-21, .cls-23 {
        stroke: #fff;
      }

      .cls-10, .cls-25 {
        stroke-width: 2.53px;
      }

      .cls-11 {
        stroke-width: 1.83px;
      }

      .cls-26 {
        fill: #fc5454;
      }

      .cls-27 {
        fill: #000201;
      }

      .cls-28 {
        fill: #f6bc58;
      }

      .cls-29 {
        fill: #f784dc;
      }

      .cls-30 {
        fill: #e59015;
      }

      .cls-31 {
        fill: #e8e2dd;
      }

      .cls-32, .cls-33, .cls-34, .cls-35 {
        fill: #fff;
      }

      .cls-36 {
        fill: #f2ab83;
      }

      .cls-37 {
        fill: #97cecc;
      }

      .cls-38 {
        fill: #a0e2f9;
      }

      .cls-39, .cls-40 {
        fill: #9fd3d3;
      }

      .cls-41 {
        fill: #d7e9e9;
      }

      .cls-42, .cls-43 {
        fill: #d87d55;
      }

      .cls-44 {
        fill: #dd2c2c;
      }

      .cls-45 {
        fill: #1e1e30;
      }

      .cls-46 {
        fill: #1f033c;
      }

      .cls-47 {
        fill: #232144;
      }

      .cls-48, .cls-49 {
        fill: #232323;
      }

      .cls-50 {
        fill: #61dafb;
      }

      .cls-51, .cls-52 {
        fill: #28424f;
      }

      .cls-53 {
        fill: #3c5768;
      }

      .cls-54 {
        fill: #383838;
      }

      .cls-55 {
        fill: #37a9d1;
      }

      .cls-56 {
        fill: #5cdc41;
      }

      .cls-57 {
        fill: #5e5e5e;
      }

      .cls-58 {
        fill: #c6bdb6;
        opacity: .3;
      }

      .cls-58, .cls-33, .cls-59, .cls-34, .cls-49, .cls-43 {
        isolation: isolate;
      }

      .cls-12 {
        stroke-width: 1.12px;
      }

      .cls-13 {
        stroke-width: 1.17px;
      }

      .cls-13, .cls-15, .cls-19, .cls-20 {
        stroke: #000201;
      }

      .cls-33, .cls-59, .cls-52 {
        opacity: .5;
      }

      .cls-59 {
        fill: #e28b60;
      }

      .cls-34 {
        opacity: .55;
      }

      .cls-14 {
        stroke: #ffe4d7;
      }

      .cls-14, .cls-16, .cls-17 {
        stroke-width: 2px;
      }

      .cls-49, .cls-43 {
        opacity: .45;
      }

      .cls-15 {
        stroke-width: .95px;
      }

      .cls-16 {
        stroke: #c6603c;
      }

      .cls-18, .cls-19 {
        stroke-width: 1.76px;
      }

      .cls-60 {
        opacity: .35;
      }

      .cls-20 {
        stroke-width: .84px;
      }

      .cls-21 {
        stroke-width: 1.73px;
      }

      .cls-22 {
        stroke: #b3ffa1;
        stroke-width: 1.91px;
      }

      .cls-35 {
        opacity: .45;
      }

      .cls-25 {
        opacity: .41;
        stroke: #a4e7ff;
      }

      .cls-40 {
        opacity: .4;
      }
    </style>
  </defs>
  <g id="Layer_1-2" data-name="Layer 1">
    <g>
      <path class="cls-32" d="M157.5,120.26H87.22l-.9-1.6c4.09-2.75,14.13-8.8,23.19-8.8,0,0,.05,.05,.15,.14-.02,.02-.03,.03-.05,.05l.23,.11c.23,.2,.58,.48,1.04,.8l1.22,1.39,1.12-.02c1.49,.72,3.43,1.39,5.75,1.65,.06,.01,.12,.02,.17,.02,2.03,.33,4.12,.23,6.12-.31h.01c1.67-.34,3.47-.89,5.37-1.74l1.09-.02,.89-.94,1.06-1.11c9.84,.36,20.58,7.46,23.52,9.54,.11,.29,.21,.57,.3,.84Z"/>
      <g class="cls-60">
        <rect class="cls-38" x="30.03" y="14.94" width="87.6" height="86.44"/>
        <path class="cls-41" d="M30.04,14.15V101.76H117.64V14.15H30.04ZM112.16,96.82H36.68V19.45H112.16V96.82Z"/>
        <rect class="cls-41" x="71.78" y="19.55" width="5.08" height="77.08"/>
        <rect class="cls-41" x="72.07" y="21.8" width="5.08" height="75.4" transform="translate(134.11 -15.11) rotate(90)"/>
        <g>
          <rect class="cls-55" x="36.28" y="92.37" width="75.94" height="4.05"/>
          <rect class="cls-55" x="107.48" y="19.41" width="3.98" height="73.37"/>
        </g>
        <g>
          <path class="cls-35" d="M40.76,39.78c-.7,0-1.27-.57-1.27-1.27v-14.85c0-.7,.57-1.27,1.27-1.27s1.27,.57,1.27,1.27v14.85c0,.7-.57,1.27-1.27,1.27Z"/>
          <path class="cls-35" d="M40.76,35.78c-.7,0-1.27-.57-1.27-1.27v-5.85c0-.7,.57-1.27,1.27-1.27s1.27,.57,1.27,1.27v5.85c0,.7-.57,1.27-1.27,1.27Z"/>
        </g>
        <g>
          <line class="cls-17" x1="61.53" y1="19.45" x2="36.87" y2="68.39"/>
          <line class="cls-17" x1="67.55" y1="19.45" x2="36.87" y2="79.31"/>
        </g>
        <line class="cls-7" x1="76.87" y1="62.52" x2="76.87" y2="95.63"/>
        <polyline class="cls-7" points="71.78 35.36 71.78 19.55 76.87 19.55 76.87 56.19"/>
        <line class="cls-7" x1="71.78" y1="42.52" x2="71.78" y2="40.26"/>
        <line class="cls-7" x1="71.78" y1="56.12" x2="71.78" y2="45.34"/>
        <line class="cls-7" x1="71.78" y1="95.63" x2="71.78" y2="62.95"/>
        <line class="cls-1" x1="57.85" y1="56.96" x2="111.32" y2="56.96"/>
        <polyline class="cls-1" points="60.48 62.04 36.91 62.04 36.91 56.96 54.36 56.96"/>
        <line class="cls-1" x1="111.32" y1="62.04" x2="64.9" y2="62.04"/>
        <rect class="cls-32" x="30.28" y="14.18" width="3.01" height="23.91" rx="1.51" ry="1.51"/>
        <rect class="cls-32" x="30.28" y="58.23" width="3.01" height="23.91" rx="1.51" ry="1.51"/>
        <rect class="cls-40" x="66.73" y="82.2" width="4.24" height="33.66" rx="2.12" ry="2.12" transform="translate(167.88 30.18) rotate(90)"/>
        <rect class="cls-39" x="82.92" y="82.2" width="4.24" height="33.66" rx="2.12" ry="2.12" transform="translate(184.07 14) rotate(90)"/>
        <line class="cls-7" x1="30.03" y1="86.33" x2="30.03" y2="42.99"/>
        <polyline class="cls-7" points="40.53 101.38 30.03 101.38 30.03 91.13"/>
        <polyline class="cls-7" points="70.55 13.78 117.63 13.78 117.63 31.32"/>
        <line class="cls-7" x1="52.86" y1="13.78" x2="66.97" y2="13.78"/>
        <polyline class="cls-7" points="30.03 39.32 30.03 13.78 47.59 13.78"/>
        <g>
          <line class="cls-5" x1="46.33" y1="22.27" x2="44.15" y2="26.12"/>
          <line class="cls-5" x1="46.44" y1="25.38" x2="44.75" y2="28.22"/>
        </g>
        <polyline class="cls-7" points="36.68 39.41 36.68 19.08 112.16 19.08 112.16 96.44 36.68 96.44 36.68 43.08"/>
        <polyline class="cls-7" points="117.63 37.34 117.63 101.38 46.93 101.38"/>
      </g>
      <path class="cls-36" d="M133.05,110.38c-5.08-5.46-4.52-18.26-4.52-18.26h-14.69s.85,12.33-4.24,17.79l5.37,2.64c3.86,1.9,8.36,2.01,12.32,.31l5.75-2.47Z"/>
      <path class="cls-14" d="M114.32,100.92s-.42,4.71-2.35,7.34"/>
      <path class="cls-14" d="M128.06,101.06s.42,4.71,2.35,7.34"/>
      <path class="cls-16" d="M117.04,99.18s3.95,1.13,8.56,0"/>
      <path class="cls-54" d="M85.91,56.59c-2.53-4.81-3.71-10.64-3.29-16.31l2.78-10.02,5.26-7.26,1.34,31.28-6.1,2.32Z"/>
      <path class="cls-2" d="M85.83,57.29c-2.53-4.81-3.71-10.64-3.29-16.31,.42-5.67,2.43-11.16,5.63-15.35"/>
      <path class="cls-7" d="M113.84,92.12s.85,12.33-4.24,17.79"/>
      <path class="cls-7" d="M128.53,92.12s-.56,12.8,4.52,18.26"/>
      <ellipse class="cls-56" cx="44.74" cy="169.34" rx="11.65" ry="22.57"/>
      <ellipse class="cls-22" cx="44.74" cy="169.34" rx="11.15" ry="21.6"/>
      <path class="cls-4" d="M47.68,147.36s5.27,10.73,5.27,22.96"/>
      <path class="cls-4" d="M42.86,147.36s-5.27,10.73-5.27,22.96v3.29"/>
      <line class="cls-4" x1="44.76" y1="173.43" x2="44.76" y2="147.08"/>
      <path class="cls-9" d="M41.01,147.87c1.25-.89,2.61-1.38,4.02-1.38,6.43,0,11.65,10.11,11.65,22.57s-5.22,22.57-11.65,22.57c-5.44,0-10.18-7.17-11.46-16.93-.23-1.79-.19-3.71-.19-5.64,0-8.33,2.33-15.6,5.79-19.51"/>
      <rect class="cls-41" x="27.54" y="173.34" width="41.79" height="10.45"/>
      <rect class="cls-41" x="30.93" y="183.96" width="38.4" height="25.89"/>
      <rect class="cls-37" x="30.93" y="183.96" width="38.4" height="3.49"/>
      <polyline class="cls-7" points="30.93 190 30.93 183.96 69.33 183.96 69.33 209.84 30.93 209.84 30.93 193.53"/>
      <circle class="cls-37" cx="37.63" cy="187.67" r="1.48"/>
      <circle class="cls-37" cx="41.41" cy="189.05" r=".74"/>
      <circle class="cls-37" cx="39.75" cy="192.19" r=".99"/>
      <rect class="cls-32" x="32.62" y="173.62" width="2.26" height="10.31"/>
      <rect class="cls-32" x="36.29" y="173.62" width="1.61" height="10.31"/>
      <polyline class="cls-9" points="27.54 177.01 27.54 173.34 69.33 173.34 69.33 183.79 27.54 183.79 27.54 180.26"/>
      <polyline class="cls-54" points="153.04 41.72 142.61 93.58 148.44 112.49 150.8 112.11 152.39 108.57 155.25 112.44 157.81 122.55 160.88 121.32 162.71 113.59 168.07 114.14 162.34 83.82 162.14 55.39 163.35 36.68"/>
      <path class="cls-48" d="M158.5,49l-.19,20.74c-.08,11.23-5.82,21.65-15.25,27.74l-1.08-3.49,.52-2.56c7.63-6.28,12.08-15.63,12.13-25.52l.19-20.61c.01-1.12,.02-2.23-.13-3.33h0c1.8-.18,3.39,1.14,3.6,2.94,.16,1.36,.23,2.72,.21,4.09Z"/>
      <path class="cls-7" d="M161.56,69.5c.2,15.1,2.39,30.11,6.51,44.64h0"/>
      <circle class="cls-34" cx="121.56" cy="96.7" r=".4"/>
      <circle class="cls-36" cx="86.12" cy="60.42" r="7.32"/>
      <circle class="cls-7" cx="86.12" cy="60.42" r="7.32"/>
      <circle class="cls-42" cx="86.78" cy="60.02" r="3.09"/>
      <path class="cls-47" d="M89.81,58.95c-.14,0-.27-.07-.35-.19-1.32-2.04-4.83-1.88-4.89-1.88-.23-.02-.41-.2-.44-.43-.02-.22,.15-.42,.37-.43,.01,0,.03,0,.04,0,.16,0,4.05-.11,5.64,2.34,.13,.2,.07,.46-.13,.58,0,0,0,0,0,0-.08,.03-.16,.03-.24,0Z"/>
      <path class="cls-47" d="M85.45,61.51c-.23,0-.42-.19-.42-.42,0,0,0-.01,0-.02,.22-1.63,.98-3.14,2.16-4.28,.17-.17,.44-.16,.6,0s.16,.44,0,.6c-.99,.99-1.64,2.26-1.86,3.64,.02,.24-.16,.45-.4,.47-.03,0-.05,0-.08,0Z"/>
      <circle class="cls-36" cx="157.66" cy="61.08" r="7.32"/>
      <circle class="cls-7" cx="157.66" cy="61.08" r="7.32"/>
      <circle class="cls-42" cx="157.01" cy="60.67" r="3.09"/>
      <g>
        <path class="cls-47" d="M153.98,59.54c-.23,0-.42-.19-.42-.42,0-.09,.03-.17,.08-.24,1.63-2.42,5.51-2.24,5.66-2.24,.23,0,.42,.19,.42,.42,0,0,0,.01,0,.02-.01,.24-.21,.42-.44,.42h-.13c-1.8-.11-3.55,.57-4.8,1.88-.09,.11-.23,.17-.37,.16Z"/>
        <path class="cls-47" d="M158.38,62.18c-.23,0-.42-.19-.42-.42,0,0,0-.01,0-.02-.19-1.39-.82-2.67-1.8-3.68-.17-.15-.18-.4-.03-.57,.01-.01,.02-.02,.04-.04,.17-.16,.44-.16,.6,0,1.16,1.17,1.89,2.69,2.08,4.32-.02,.24-.23,.42-.48,.4,0,0,0,0,0,0Z"/>
      </g>
      <path class="cls-45" d="M132.1,89.71c-.42,0-.77-.33-.78-.76,0,0,0-.01,0-.02l.66-71.5c0-.43,.36-.78,.79-.78,.43,0,.78,.36,.78,.79l-.66,71.6c-.06,.39-.4,.68-.79,.67Z"/>
      <path class="cls-45" d="M108.32,93.65c-.43,0-.77-.35-.78-.78l.67-73.23c0-.43,.36-.78,.79-.78s.78,.36,.78,.79l-.67,73.23c0,.42-.35,.77-.78,.76,0,0-.01,0-.02,0Z"/>
      <path class="cls-36" d="M122.33,11.1h0c18.45,.17,33.27,15.26,33.1,33.72h0l-.19,20.76c-.17,18.45-12.57,30.19-32.87,32.97l-.84,.15c-3.69-.03-7-1.13-10.31-2.27-13.24-4.55-22.95-16.7-22.81-31.47l.26-28.1c.17-18.45,15.2-25.93,33.67-25.76Z"/>
      <path class="cls-59" d="M122.33,11.1h0c18.45,.17,33.27,15.26,33.1,33.72h0l-.19,20.76c-.17,18.45-15.47,30.89-33.72,33.12h0l.8-87.6Z"/>
      <path class="cls-42" d="M155.6,35.86l-.27,29.56c-.16,18.45-15.25,33.28-33.7,33.12h-.02c-.81,0-1.59-.01-2.38-.02,12.97-.8,24.3-9.04,29.05-21.14,1.49-3.16,2.28-6.61,2.31-10.1l.02-1.83c-3.67,.39-.05-5-.03-10.82,.05-4.98-5.82-12.72-1.29-14.8l.62-.21c.05-5.86-12.49-15.18-18.26-18.8-8.03-5.05,.08-8.79-11.61-9.72l2.38,.02c18.45,.17,33.33,9.46,33.16,27.77l.03-2.95v-.07Z"/>
      <path class="cls-32" d="M123.37,98.48c-.75,0-1.24-.52-1.99-.53-23.53-2.23-33.27-14.64-33.38-32.96,0-.07,0-.14,0-.21l.24-26.62c.17-18.45,15.23-27.32,33.68-27.15h0l2.25,.02c-17.55,1.01-32.76,9.04-32.92,26.63l-.24,26.62c0,21.06,14.8,32.85,32.37,34.2Z"/>
      <circle class="cls-32" cx="97.59" cy="31.73" r="2.22"/>
      <circle class="cls-32" cx="102.72" cy="29.3" r=".99"/>
      <circle class="cls-32" cx="101.12" cy="31.47" r=".33"/>
      <circle class="cls-32" cx="100.78" cy="29.03" r=".53"/>
      <path class="cls-7" d="M155.5,44.47l-.26,21.1"/>
      <path class="cls-7" d="M88.4,64.96l.26-25.93"/>
      <path class="cls-32" d="M81.82,57.78c.29-.79,.87-1.44,1.63-1.82,.64-.23,.4-1.28-.27-1.03-1.03,.41-1.85,1.21-2.29,2.23-.28,.64,.63,1.2,.93,.58v.04Z"/>
      <ellipse class="cls-32" cx="80.61" cy="59.78" rx=".86" ry=".7" transform="translate(9.04 130.14) rotate(-81.08)"/>
      <path class="cls-57" d="M128.46,46.73l14.16-2.36c2.08-.34,3.54-2.23,3.34-4.33h0c-.18-2.09-1.72-1.59-3.81-1.57l-14.35,.14c-2.23,.03-4.02,1.87-3.99,4.1,0,.09,0,.18,.01,.27v.2c.23,2.2,2.2,3.8,4.4,3.57,.08,0,.17-.02,.25-.03Z"/>
      <path class="cls-54" d="M128.46,46.73l14.16-2.36c2.08-.34,3.54-2.23,3.34-4.33h0c-.18-2.09,.74,1.27-1.37,1.29l-19.03,3.23c-2.34-.02-1.94-3.9-1.82-1.57v.2c.22,2.2,2.18,3.81,4.39,3.59,.11-.01,.23-.03,.34-.05Z"/>
      <path class="cls-3" d="M133.46,38.55l-5.68,.06c-2.23,.03-4.02,1.87-3.99,4.1,0,.09,0,.18,.01,.27v.2c.19,2.21,2.13,3.84,4.33,3.66,.11,0,.23-.02,.34-.04l14.16-2.36c2.08-.34,3.54-2.23,3.34-4.33h0c-.18-2.09-1.72-1.59-3.81-1.57l-2.45-.02"/>
      <circle class="cls-54" cx="131.2" cy="43.37" r="1.06"/>
      <circle class="cls-54" cx="133.87" cy="41.85" r=".57"/>
      <circle class="cls-54" cx="127.41" cy="43.88" r="1.37"/>
      <path class="cls-57" d="M115.32,46.61l-14.11-2.62c-2.07-.38-3.5-2.29-3.27-4.39h0c.22-2.09,1.75-1.56,3.86-1.5l14.35,.41c2.22,.07,3.97,1.93,3.9,4.15,0,.1,0,.2-.02,.29v.13c-.23,2.2-2.2,3.8-4.41,3.57-.1-.01-.2-.02-.3-.04Z"/>
      <path class="cls-54" d="M115.32,46.61l-14.11-2.62c-2.07-.38-3.5-2.29-3.27-4.39h0c.22-2.09-.74,1.26,1.34,1.31l18.99,3.58c2.34,.02,2.01-3.86,1.75-1.54v.13c-.23,2.2-2.2,3.8-4.41,3.57-.1-.01-.2-.02-.3-.04Z"/>
      <path class="cls-3" d="M110.47,38.34l5.67,.16c2.22,.07,3.97,1.93,3.9,4.15,0,.1,0,.2-.02,.29v.13c-.23,2.2-2.2,3.8-4.4,3.58-.11-.01-.23-.03-.34-.05l-14.11-2.62c-2.07-.38-3.5-2.29-3.27-4.39h0c.22-2.09,1.75-1.56,3.86-1.5l2.45,.02"/>
      <circle class="cls-54" cx="112.62" cy="43.2" r="1.06"/>
      <circle class="cls-54" cx="110" cy="41.63" r=".57"/>
      <circle class="cls-54" cx="116.41" cy="43.78" r="1.37"/>
      <path class="cls-54" d="M133.46,16.66s20.2,10.88,21.84,24l7.62-2.85,.18-7.75,.04-4.41-1.92-8.4-6.42-8.43-5.85-4.47"/>
      <path class="cls-54" d="M150.53,17.58c-1.22-.45-2.5-.71-3.8-.77-1.86-.08-3.71,.37-5.34,1.29-.42,.25-.83,.54-1.25,.81-.36,.22-.74,.42-1.12,.59-3.06-2.06-5.3-3.25-5.3-3.25l12.84-3.03,3.93,4.27,.04,.09Z"/>
      <circle class="cls-54" cx="120.46" cy="10.68" r=".6"/>
      <path class="cls-11" d="M92.4,16.03c1.78-2.89,4.23-5.32,7.13-7.07"/>
      <circle class="cls-32" cx="94.2" cy="15.75" r=".97"/>
      <circle class="cls-32" cx="97.66" cy="11.5" r=".77"/>
      <circle class="cls-32" cx="96.88" cy="14.62" r=".44" transform="translate(81.38 111.37) rotate(-89.48)"/>
      <circle class="cls-32" cx="92.31" cy="20.27" r=".88"/>
      <circle class="cls-32" cx="91.35" cy="22.57" r=".42"/>
      <rect class="cls-32" x="84.6" y="51.11" width="13.75" height="2.65" rx="1.32" ry="1.32" transform="translate(38.2 143.43) rotate(-89.48)"/>
      <path class="cls-7" d="M142.23,92.4l6.03,19.15c.15,.88,.99,1.46,1.86,1.31,.62-.11,1.13-.57,1.28-1.19l1.12-4.16"/>
      <path class="cls-7" d="M154.26,110.33l3.56,11.02c.26,.85,1.16,1.33,2.01,1.07,.56-.17,.98-.62,1.1-1.19l1.9-7.73"/>
      <path class="cls-7" d="M154.59,68.86c.03,6.5-2.22,12.81-6.35,17.83-3.12,3.7-7.19,6.47-11.77,8-3.79,1.28-6.62,2.17-8.75,2.78s-4.17,.87-6.3,.85h0c-2.13-.02-4.24-.34-6.28-.97s-4.94-1.59-8.72-2.94c-4.55-1.63-8.57-4.47-11.62-8.22-4.03-5.1-6.16-11.44-6.01-17.94"/>
      <path class="cls-26" d="M120.46,89.33c-4.19-.53-6.61-3.45-11.28-6.14,1.04,.44,2.11,.8,3.21,1.07,1.9-.2,3.73-.85,5.34-1.87,.36-.17,.76-.25,1.16-.23l-.94,.16c.53,.33,.95,.17,1.5,.45,1.62,.83,3.59,.64,5.02-.48l.36,.2c.2-.09,.33,.3,.55,.41,2.49,1.55,5.6,1.75,8.27,.52-1.4,.91-2.73,1.93-3.96,3.06-2.18,1.61-4.76,2.61-7.46,2.88l-1.78-.02Z"/>
      <path class="cls-44" d="M124.95,88.97c-1.02,.23-2.07,.33-3.12,.3l-1.83-.02c-3.15-.72-6.1-2.13-8.64-4.13-.82-.74-1.69-1.41-2.62-2.02,1.18,.51,2.4,.92,3.65,1.24,1.8-.18,3.52-.79,5.03-1.78h0c-.25,1.32,2.17,3.08,3.63,3.04-1,.74-3.95-.22-5.14-.56,1.71,1.22,3.78,3.24,7.11,2.92,.62-.14,1.38,.76,1.91,1.01Z"/>
      <circle class="cls-31" cx="158.55" cy="67.84" r="4.39"/>
      <path class="cls-58" d="M160.62,63.98c1.09,2.17,.22,4.81-1.94,5.9-1.27,.64-2.78,.63-4.04-.04,1.06,2.18,3.68,3.1,5.87,2.04,2.18-1.06,3.1-3.68,2.04-5.87-.02-.05-.05-.1-.08-.15-.4-.81-1.05-1.47-1.85-1.88Z"/>
      <ellipse class="cls-32" cx="156.16" cy="66.54" rx="1.32" ry=".81" transform="translate(29.47 179.52) rotate(-64.81)"/>
      <circle class="cls-31" cx="86.54" cy="66.79" r="4.39"/>
      <path class="cls-58" d="M88.6,63.01c1.09,2.17,.22,4.81-1.94,5.9-1.27,.64-2.78,.63-4.04-.04,.98,2.23,3.59,3.24,5.82,2.26,2.23-.98,3.24-3.59,2.26-5.82-.07-.15-.14-.29-.22-.44-.41-.8-1.06-1.46-1.87-1.87Z"/>
      <ellipse class="cls-32" cx="84.13" cy="65.49" rx="1.32" ry=".81" transform="translate(-10.95 113.74) rotate(-64.81)"/>
      <path class="cls-7" d="M163.06,29.64c.31,1.95,.43,3.93,.35,5.9l-.78,19.73"/>
      <rect class="cls-27" x="107.18" y="50.68" width="8.77" height="6.79" rx="3.39" ry="3.39" transform="translate(56.47 165.13) rotate(-89.48)"/>
      <path class="cls-27" d="M107.71,51.79c-.67-.88-1.21-1.85-1.62-2.87,.56,.66,1.17,1.28,1.81,1.85-.41-1.05-.68-2.15-.79-3.27,.58,1.29,1.34,2.48,2.26,3.55,.58,.59,.27,.7-.19,.64,.62,.35,.49,.54,.16,.62s-1.25,.76-1.25,.76c-1.22-.65-2.32-1.48-3.27-2.48,.93,.48,1.9,.88,2.9,1.2Z"/>
      <circle class="cls-32" cx="108.21" cy="53.37" r="1.63"/>
      <path class="cls-27" d="M135.63,52.07c.65-.9,1.17-1.88,1.56-2.91-.57,.69-1.19,1.33-1.85,1.92,.39-1.06,.63-2.16,.73-3.29-.55,1.31-1.28,2.54-2.18,3.64-.57,.6-.26,.67,.2,.62-.61,.36-.48,.53-.13,.62s1.27,.73,1.27,.73c1.2-.67,2.28-1.53,3.21-2.55-.9,.48-1.84,.89-2.81,1.22Z"/>
      <rect class="cls-27" x="128.19" y="50.87" width="8.77" height="6.79" rx="3.39" ry="3.39" transform="translate(77.1 186.34) rotate(-89.48)"/>
      <circle class="cls-32" cx="129.96" cy="53.57" r="1.63"/>
      <line class="cls-19" x1="122.02" y1="60.91" x2="121.87" y2="76.42"/>
      <path class="cls-54" d="M105.89,4.8c1.93-.44,3.9-.66,5.88-.68,1.98,.02,3.93,.16,5.91,.05,4.09-.3,8.13-1.04,12.07-2.2,3.94-1.16,8.05-1.61,12.15-1.33,4.15,.3,7.93,2.5,10.25,5.95-12.44,29.36-63.33,27.89-63.33,27.89l-.02-.06s-.84,.13-1.13-2.66c0-.44,0-.9-.12-1.37-.28-2.74-.15-5.5,.37-8.2l2.49-5.93c1.79-3.4,4.45-6.26,7.69-8.31l1.14-.69"/>
      <path class="cls-7" d="M154.61,8.89c2.61,2.64,7.9,8.93,8.34,16.83"/>
      <path class="cls-7" d="M88.67,35.62c-.85-3.39-.96-10.54-.44-13.25"/>
      <circle class="cls-46" cx="89.26" cy="19.37" r=".95"/>
      <circle class="cls-27" cx="110.37" cy="63.17" r=".95"/>
      <circle class="cls-46" cx="102.62" cy="6.16" r=".95" transform="translate(95.52 108.72) rotate(-89.47)"/>
      <path class="cls-7" d="M127.79,2.73c-3.2,.9-6.49,1.45-9.81,1.63l-5.91-.05c-1.98,.01-3.95,.24-5.88,.68"/>
      <path class="cls-7" d="M142.77,23.35c6.09,4.78,12.71,11.72,12.64,19.17"/>
      <circle class="cls-48" cx="124.77" cy="24.05" r="2.18"/>
      <circle class="cls-48" cx="99.72" cy="30.7" r="1.1"/>
      <circle class="cls-48" cx="114.92" cy="22.57" r="1.89"/>
      <circle class="cls-49" cx="108.54" cy="25.13" r=".84"/>
      <circle class="cls-49" cx="108.81" cy="21.41" r=".6"/>
      <circle class="cls-49" cx="121.7" cy="21.53" r=".6"/>
      <circle class="cls-49" cx="102.62" cy="25.49" r="1.45"/>
      <path class="cls-18" d="M100.38,8.19l-1.12,.67c-3.26,2.05-5.91,4.93-7.71,8.33"/>
      <path class="cls-7" d="M99.55,7.47c-.39,.22-.77,.43-1.14,.67-3.25,2.06-5.9,4.93-7.69,8.33"/>
      <circle class="cls-32" cx="95.95" cy="14.45" r=".97"/>
      <circle class="cls-32" cx="99.41" cy="10.19" r=".77"/>
      <circle class="cls-32" cx="98.65" cy="13.32" r=".44" transform="translate(84.43 111.85) rotate(-89.47)"/>
      <circle class="cls-32" cx="94.06" cy="18.97" r=".88"/>
      <circle class="cls-32" cx="93.11" cy="21.27" r=".42"/>
      <polygon class="cls-32" points="145.2 64.82 142.91 64.38 145.14 42.69 147.52 42.55 145.2 64.82"/>
      <polygon class="cls-33" points="141.5 64.37 140.04 64.36 142.34 43.12 143.73 42.93 141.5 64.37"/>
      <polygon class="cls-33" points="129.49 62.72 128.28 62.71 130.18 45.68 131.31 45.51 129.49 62.72"/>
      <polygon class="cls-32" points="98.88 64.4 96.58 63.96 98.83 42.26 101.19 42.12 98.88 64.4"/>
      <polygon class="cls-33" points="101.85 64.01 100.37 63.99 102.67 42.76 103.98 43.37 101.85 64.01"/>
      <path class="cls-7" d="M113.25,62.79c2.78,.09,5.1-2.1,5.19-4.88,0-.04,0-.09,0-.13l.06-6.99c.03-2.78-2.21-5.05-4.99-5.08,0,0-.01,0-.02,0l-15.33-3.8c-2.78-.03-5.06,2.2-5.1,4.99l1.72,12.5c-.02,2.78,2.22,5.06,5.01,5.08l7.64-1.05"/>
      <line class="cls-13" x1="118.36" y1="56.94" x2="125.62" y2="57.01"/>
      <circle class="cls-44" cx="121.62" cy="87.97" r=".4"/>
      <circle class="cls-44" cx="119.69" cy="86.82" r=".24"/>
      <circle class="cls-44" cx="120.44" cy="87.24" r=".13"/>
      <path class="cls-42" d="M119.5,77.42c1.68,.64,2.8,.14,4.72,.32-.63,.68-1.5,1.08-2.43,1.11-.48,0-.96-.11-1.39-.34-.44-.23-.76-.62-.91-1.09Z"/>
      <path class="cls-42" d="M118.56,90.21c2.15,.72,3.66,.22,6.11,.48-.91,.71-2.03,1.1-3.18,1.11-.63-.03-1.25-.16-1.83-.4-.51-.23-.91-.66-1.11-1.18Z"/>
      <path class="cls-20" d="M121.11,85.53l-3.66-.47-4.06-.2-1.83-.13c-.8-.5-1.38-.84-2.33-1.32,3.64,2.18,6.33,.3,8.92-.83,.19-.11,.42-.15,.64-.1h0c1.61,1.07,3.7,1.09,5.33,.05h0c.25-.09,.52-.09,.77,0,2.57,1.18,5.46,3.05,8.81,1.14-1.02,.46-2.01,.97-2.98,1.53m.24-.2l-5.49,.17-2.07,.35"/>
      <circle class="cls-43" cx="142.02" cy="77.34" r=".35"/>
      <path class="cls-42" d="M130.77,63.03c.77,1.2,1.92,2.12,3.27,2.59,2.5,.87,5.25,.05,7.87,.46,1.46,.09,2.91-.32,4.11-1.15-.45-.83-2.69-.35-3.66-.51-4.41-.77-8.97-.39-13.33-1.29"/>
      <path class="cls-7" d="M144.19,64.91l-13.53-1.95c-2.75-.08-4.93-2.35-4.9-5.1l.06-6.99c.03-2.78,2.3-5.01,5.08-4.99h0l15.41-3.52c2.78,.03,5.02,2.3,5.01,5.08l-1.95,12.47c-.03,2.79-2.31,5.03-5.1,5.01-.03,0-.06,0-.09,0Z"/>
      <path class="cls-15" d="M128.81,87.05c-1.96,1.64-4.43,2.55-6.98,2.57-2.81,.15-5.56-.81-7.66-2.67"/>
      <circle class="cls-47" cx="126.29" cy="51.13" r=".78"/>
      <path class="cls-32" d="M62.86,157.77c-6.22,9.28-8.61,25.2-9.09,38.16l18.95,4.66-9.86-42.82Z"/>
      <path class="cls-36" d="M45.45,207.66c0-6.77,5.49-12.26,12.26-12.26s12.26,5.49,12.26,12.26"/>
      <path class="cls-21" d="M46.97,205.04s1.14-7.49,8.15-8.44"/>
      <path class="cls-8" d="M45.62,207.55c0-7.63,5.22-12.33,11.66-12.33"/>
      <rect class="cls-28" x=".72" y="208" width="207.66" height="9.34"/>
      <rect class="cls-30" x=".72" y="213.39" width="207.66" height="3.15"/>
      <path class="cls-53" d="M179.26,197.53v8.29c0,1.19-.96,2.15-2.15,2.15H69.16c-1.19,0-2.15-.96-2.15-2.15v-8.29"/>
      <path class="cls-51" d="M179.26,191.47v8.29c0,1.19-.96,2.15-2.15,2.15H69.16c-1.19,0-2.15-.96-2.15-2.15v-8.29"/>
      <path class="cls-6" d="M179.26,197.53v8.29c0,1.19-.96,2.15-2.15,2.15H69.16c-1.19,0-2.15-.96-2.15-2.15v-8.29"/>
      <rect class="cls-53" x="59.66" y="120.12" width="127.04" height="77.44" rx="8.4" ry="8.4"/>
      <path class="cls-52" d="M186.65,143.34v45.58c0,4.64-3.76,8.4-8.4,8.4H68.01c-4.64,0-8.4-3.76-8.4-8.4v-4.53c69.45-2.8,108.83-26.21,127.04-41.04Z"/>
      <path class="cls-52" d="M186.65,131.16v57.76c0,4.64-3.76,8.4-8.4,8.4H68.01c-4.64,0-8.4-3.76-8.4-8.4v-18.46c69.45-2.8,108.83-24.47,127.04-39.3Z"/>
      <path class="cls-7" d="M179.26,197.53v8.29c0,1.19-.96,2.15-2.15,2.15H69.16c-1.19,0-2.15-.96-2.15-2.15v-8.29"/>
      <path class="cls-7" d="M193.36,208h14.07c.52,0,.94,.42,.94,.94v7.45c0,.52-.42,.94-.94,.94H1.66c-.52,0-.94-.42-.94-.94v-7.45c0-.52,.42-.94,.94-.94H14.17"/>
      <line class="cls-7" x1="38.16" y1="208" x2="186.81" y2="208"/>
      <line class="cls-24" x1="22.09" y1="208" x2="33.31" y2="208"/>
      <g>
        <line class="cls-5" x1="68.64" y1="127.03" x2="64.99" y2="129.53"/>
        <line class="cls-5" x1="67.37" y1="129.88" x2="64.6" y2="131.68"/>
      </g>
      <g>
        <line class="cls-5" x1="180.18" y1="188.45" x2="176.53" y2="190.95"/>
        <line class="cls-5" x1="178.91" y1="191.3" x2="176.14" y2="193.1"/>
      </g>
      <circle class="cls-47" cx="18.33" cy="208.05" r="1.03"/>
      <line class="cls-23" x1="9.01" y1="211.01" x2="17.67" y2="211.01"/>
      <circle class="cls-32" cx="6.06" cy="211.01" r="1.11"/>
      <g>
        <line class="cls-12" x1="72.7" y1="200.51" x2="72.7" y2="204.69"/>
        <line class="cls-12" x1="76.45" y1="200.51" x2="76.45" y2="204.69"/>
        <line class="cls-12" x1="80.19" y1="200.51" x2="80.19" y2="204.69"/>
      </g>
      <g>
        <line class="cls-12" x1="165.51" y1="200.51" x2="165.51" y2="204.69"/>
        <line class="cls-12" x1="169.25" y1="200.51" x2="169.25" y2="204.69"/>
        <line class="cls-12" x1="173" y1="200.51" x2="173" y2="204.69"/>
      </g>
      <g>
        <line class="cls-25" x1="70.24" y1="121.84" x2="93.19" y2="121.84"/>
        <line class="cls-10" x1="78.01" y1="121.84" x2="84.77" y2="121.84"/>
      </g>
      <path class="cls-7" d="M186.65,167.01v22.15c0,4.64-3.76,8.4-8.4,8.4H68.01c-4.64,0-8.4-3.76-8.4-8.4v-60.65c0-4.64,3.76-8.4,8.4-8.4h34.29"/>
      <path class="cls-7" d="M143.09,120.12h35.17c4.64,0,8.4,3.76,8.4,8.4v31.98"/>
      <line class="cls-7" x1="108.95" y1="120.21" x2="136.33" y2="120.21"/>
      <path class="cls-3" d="M124.39,116.49s5.81-.47,10.35-3.29"/>
      <path class="cls-3" d="M105.3,110.19s.89,1.23,2.18,2.46"/>
      <line class="cls-3" x1="63.96" y1="144.26" x2="63.96" y2="167.13"/>
      <line class="cls-3" x1="161.23" y1="193.25" x2="138.36" y2="193.25"/>
      <line class="cls-3" x1="38.36" y1="201.9" x2="30.69" y2="201.9"/>
      <line class="cls-9" x1="32.27" y1="166.42" x2="33.26" y2="166.42"/>
      <line class="cls-9" x1="32.27" y1="169.95" x2="33.26" y2="169.95"/>
      <line class="cls-9" x1="36.76" y1="150.5" x2="37.52" y2="151.14"/>
      <line class="cls-9" x1="52.68" y1="150.02" x2="51.81" y2="150.5"/>
      <line class="cls-9" x1="35.29" y1="155.53" x2="34.45" y2="155"/>
      <line class="cls-9" x1="55.25" y1="154.78" x2="54.39" y2="155.26"/>
      <path class="cls-7" d="M84.43,119.83s13.36-10.12,25.08-10.12c0,0,8.94,9.04,23.81,.75"/>
      <path class="cls-7" d="M157.99,119.83s-13.36-10.12-25.08-10.12"/>
      <path class="cls-7" d="M59.34,164.12c-3.65,8.38-5.2,20.51-5.57,30.66"/>
      <circle class="cls-3" cx="86.54" cy="66.79" r="4.39"/>
      <circle class="cls-3" cx="158.55" cy="67.84" r="4.39"/>
      <path class="cls-48" d="M130.65,27.12c3.22-1.58,6.46-3.18,9.44-5.2s5.66-4.71,8.15-7.48c1.29-1.43-.83-3.56-2.12-2.12-2.39,2.66-4.82,5.19-7.8,7.18s-6.05,3.49-9.18,5.03c-1.73,.85-.21,3.44,1.51,2.59h0Z"/>
      <path class="cls-16" d="M111.94,33.79s15.26-2.55,24.89-8.76"/>
      <path class="cls-7" d="M89.12,34.67s50.88,1.47,63.33-27.89c-2.33-3.45-6.1-5.64-10.25-5.95-2.84-.26-5.71-.08-8.5,.53"/>
      <g>
        <circle class="cls-32" cx="84.65" cy="141.15" r="10.54"/>
        <g>
          <path class="cls-50" d="M92.57,141.15c0-1.1-1.21-2.05-3.33-2.65,.54-2.13,.32-3.66-.63-4.21-.93-.54-2.4,.04-3.96,1.56-1.56-1.52-3.03-2.1-3.96-1.56-.95,.55-1.17,2.07-.63,4.21-2.12,.6-3.33,1.55-3.33,2.65s1.21,2.05,3.33,2.65c-.55,2.13-.32,3.66,.63,4.21,.24,.14,.52,.21,.8,.2,.88,0,2-.62,3.17-1.76,1.17,1.14,2.29,1.76,3.17,1.76,.28,0,.55-.07,.8-.2,.95-.55,1.17-2.07,.63-4.21,2.12-.6,3.33-1.55,3.33-2.65Zm-7.93,4.34c-.34-.37-.66-.75-.96-1.14,.32,.02,.64,.03,.96,.03s.63-.01,.96-.03c-.3,.4-.62,.78-.96,1.14Zm0-8.68c.34,.37,.66,.75,.96,1.14-.64-.03-1.27-.03-1.91,0,.3-.4,.62-.78,.96-1.14Zm-1.45,6.85c-.55-.8-1.03-1.64-1.45-2.51,.42-.87,.9-1.71,1.45-2.51,.97-.07,1.94-.07,2.9,0,.55,.8,1.03,1.64,1.45,2.51-.42,.87-.9,1.71-1.45,2.51-.98,.07-1.93,.07-2.9,0Zm-1.35-4.12c-.16,.28-.31,.56-.46,.84-.19-.46-.36-.92-.51-1.4,.49-.11,.98-.19,1.47-.26-.17,.27-.34,.54-.5,.81Zm-.46,2.39c.15,.28,.3,.56,.46,.84,.16,.28,.33,.55,.5,.81-.51-.06-1-.15-1.47-.25,.15-.47,.32-.94,.51-1.4Zm6.51,0c.19,.46,.36,.92,.51,1.4-.49,.11-.97,.19-1.47,.25,.35-.53,.66-1.09,.96-1.65Zm0-1.55c-.29-.57-.61-1.12-.96-1.65,.49,.06,.98,.15,1.47,.26-.15,.47-.32,.94-.51,1.4Zm.38-5.51c.66,.38,.77,1.69,.32,3.47-.67-.15-1.38-.26-2.14-.33h0s0,0,0,0c-.41-.59-.87-1.15-1.35-1.68,1.29-1.26,2.52-1.84,3.17-1.46Zm-7.27,0c.13-.08,.29-.11,.47-.11,.7,0,1.67,.57,2.71,1.57-.49,.53-.94,1.09-1.36,1.68-.72,.06-1.43,.17-2.14,.33-.45-1.78-.34-3.09,.32-3.47Zm-3.63,6.28c0-.76,1.08-1.52,2.85-2.01,.22,.69,.48,1.36,.78,2.01h0s0,0,0,0c-.3,.65-.56,1.32-.78,2.01-1.77-.5-2.85-1.26-2.85-2.01Zm3.63,6.28c-.66-.38-.77-1.7-.32-3.47,.7,.16,1.42,.27,2.14,.33h0s0,0,0,0c.41,.59,.87,1.15,1.36,1.68-1.29,1.26-2.52,1.83-3.17,1.46Zm7.27,0c-.13,.08-.29,.11-.47,.11h0c-.7,0-1.67-.57-2.71-1.57,.49-.53,.94-1.09,1.35-1.68h0s0,0,0,0c.72-.06,1.43-.17,2.14-.33,.45,1.78,.34,3.09-.32,3.47Zm.78-4.27c-.2-.65-.46-1.32-.78-2.01h0s0,0,0,0c.3-.65,.56-1.32,.78-2.01,1.77,.5,2.85,1.26,2.85,2.01s-1.08,1.52-2.85,2.01Z"/>
          <circle class="cls-50" cx="84.65" cy="141.15" r="1.41"/>
        </g>
        <path class="cls-3" d="M74.26,142.99c-.1-.6-.16-1.21-.16-1.84,0-5.82,4.72-10.54,10.54-10.54s10.54,4.72,10.54,10.54-4.72,10.54-10.54,10.54c-1.04,0-2.05-.15-3-.43"/>
        <path class="cls-3" d="M75.04,145.51c-.1-.21-.19-.43-.27-.65"/>
        <path class="cls-3" d="M79.54,150.38c-1.43-.79-2.66-1.91-3.58-3.26"/>
      </g>
      <path class="cls-29" d="M172.13,187.98h0c.25-.67,.22-1.38-.1-2.11,0-.01,0-.02-.01-.03h0l-.02-.03h0s-.18-.37-.18-.37h0s-.02-.06-.02-.06h0s-.02-.03-.03-.04c-.64-1.03-1.97-2.22-4.74-2.62-.07-1.23,.26-2.02,1.24-2.98,.17-.17,.18-.33,.02-.52-.31-.38-.91-.58-1.35-.68-.21-.05-.37,0-.49,.14-.85,1.03-2.12,1.71-3.35,2.36l-.07,.04c.05-1.13,.5-1.79,1.26-2.51,.15-.14,.17-.29,.05-.46-.34-.48-1.11-.67-1.43-.74-.4-.08-1.26,.66-2.27,1.57-.25,.23-.47,.42-.58,.51-.27,.2-.55,.43-.84,.68-.67,.57-1.42,1.2-2.16,1.46,.03-.47,.61-.93,1.18-1.37,.67-.53,1.31-1.02,1.18-1.62-.04-.19-.15-.35-.32-.46-.11-.07-.23-.11-.35-.12,.19-.28,.31-.51,.38-.84,.09-.47-.12-.86-.57-1.08-1.02-.5-2.27-.19-3.14,.15-.58,.23-1.54,.14-2.39,.05-.34-.03-.65-.06-.93-.07-.2-.48-.48-1.01-.79-1.57-.85-1.57-1.82-3.34-1.16-4.73,.97-2.04,3.99-2.27,6.51-2.24,1.91,.02,3.48,.2,4.82,.54,1.87,.48,3.24,1.3,4.07,2.42,.45,.62,.4,1.41-.13,1.98-1.38,1.48-3.95,1.65-5.91,1.31-1.18-.21-2.11-.52-2.84-.96-.92-.55-1.45-1.43-1.67-1.81-.03-.06-.07-.13-.12-.18h-.01c-.05-.06-.13-.07-.19-.05-.11,.05-.15,.19-.16,.27-.12,1.01,.27,1.89,1.15,2.62,.29,.23,.6,.44,.94,.61,2.32,1.21,5.98,1.42,7.65,.89,1.13-.36,2.08-.85,3-2.07,.96-1.27,.52-2.74-.21-3.68-1.78-2.3-4.66-3.26-6.76-3.67-2.46-.47-5.27-.45-7.71,.05-3,.62-4.6,1.81-4.74,3.56-.15,1.79,.89,3.5,1.89,5.15,.32,.53,.63,1.04,.89,1.53-.15,0-.31,0-.47-.01-1.54-.05-3.28-.1-4.63,.6-.98,.51-1.51,1.26-1.56,2.22-.03,.51,.16,.97,.56,1.35,.21,.2,.44,.36,.7,.49,.91,.47,2.1,.63,2.82,.57,1.28-.1,2.32-.59,3.11-1.44,.7-.76,1.1-1.67,1.17-2.64l1.49,.02c-1.56,1.59-1.71,2.95-1.56,3.82,.06,.32,.3,.63,.66,.82s.75,.23,1.05,.1c.58-.25,1.1-.62,1.6-1.01-.19,.32-.34,.67-.38,1.01-.03,.31,.05,.57,.23,.74,.19,.19,.49,.27,.84,.23,1.58-.19,3.38-1.69,4.82-2.89,.2-.17,.4-.34,.59-.49-.14,.65-.2,1.31-.2,1.97,0,.14-.03,.19-.16,.24-.2,.07-.46,.15-.74,.23-.85,.24-1.9,.54-2.3,1.08-.16,.22-.11,.52,.12,.7,.68,.55,1.71,.81,2.76,.69,.95-.11,1.56-.63,1.81-1.54,.24-.88,1.15-1.66,2.71-2.3-.19,.74-.25,1.38-.21,2h-.01c-1.02,.25-2.42,.58-2.8,1.68-.08,.21-.06,.44,.04,.64,.11,.21,.3,.36,.53,.42,1.02,.29,1.91,.26,2.73-.08s.98-1.11,1.09-1.72c1.5,.33,2.66,.95,3.56,1.89,.5,.53,.77,1.11,.77,1.72,0,.77-.45,1.23-1.3,1.3-.26,.02-.39,.05-.45,.14-.03,.04-.03,.1,0,.14,.04,.1,.21,.32,.9,.27,.63-.05,1.12-.31,1.45-.78,.09-.13,.16-.27,.22-.42Zm-21.68-9.65l-.04,.06c-.48,.73-1.22,1.19-2.21,1.39-.62,.12-1.2,.09-1.64-.09-.31-.13-.5-.28-.57-.45-.05-.13-.04-.28,.03-.45,.61-1.38,3.41-1.62,4.82-1.44-.07,.34-.2,.67-.39,.97Zm7.35-.97h0c-.77,1.01-2.43,2.8-3.75,3.15-.06,.02-.11,.01-.12,0s-.02-.04-.01-.07c.06-.84,.78-1.95,1.71-2.63,.71-.52,1.45-.73,2.08-.59,.03,0,.05,.01,.08,.03,.02,0,.04,.02,.05,.04,0,.03,0,.05-.03,.08Zm2.28,6.33c-.26,.09-.48-.06-.39-.09l1.33-.46c-.23,.28-.57,.43-.94,.55h0Zm3.95,1.06c-.1,0-.2-.02-.3-.06,.22-.49,.97-.78,1.61-.9-.14,.56-.66,.96-1.31,.97h0Z"/>
      <rect class="cls-32" x="104.28" y="134.52" width="28.52" height="16.09" rx=".87" ry=".87" transform="translate(34.66 -22.78) rotate(12.84)"/>
      <path class="cls-3" d="M105.29,136.52l.94-4.12c.11-.47,.57-.76,1.04-.66l6.37,1.45"/>
      <path class="cls-3" d="M106.96,148.18l-3.27-.75c-.47-.11-.76-.57-.66-1.04l1.75-7.67"/>
      <path class="cls-3" d="M124.51,135.68l8.86,2.02c.47,.11,.76,.57,.66,1.04l-3.19,13.99c-.11,.47-.57,.76-1.04,.66l-20.15-4.59"/>
      <line class="cls-3" x1="115.64" y1="133.65" x2="122.45" y2="135.21"/>
      <g>
        <path class="cls-46" d="M114.39,138.6c-.43-.36-.98-.62-1.65-.77l-.66-.15-.54-.12-.98-.22-1.39,6.11,.98,.22,.54,.12,.66,.15c.67,.15,1.28,.16,1.82,.02,.55-.14,1.01-.41,1.38-.8,.37-.4,.63-.91,.77-1.53s.13-1.2-.03-1.72c-.16-.52-.46-.95-.89-1.32Zm-.94,3.48c-.15,.2-.32,.35-.52,.45s-.41,.15-.64,.16c-.23,0-.46-.01-.7-.07l-.61-.14,.8-3.49,.61,.14c.23,.05,.45,.13,.66,.24,.21,.11,.37,.25,.51,.42s.23,.38,.27,.63c.05,.25,.03,.54-.04,.87s-.19,.6-.34,.8Z"/>
        <polygon class="cls-46" points="117.93 139.01 116.95 138.79 115.56 144.9 116.54 145.13 116.97 145.22 119.62 145.83 119.9 144.61 117.25 144.01 117.57 142.61 120.04 143.17 120.31 141.98 117.84 141.42 118.09 140.33 120.74 140.93 121.01 139.72 118.37 139.11 117.93 139.01"/>
        <polygon class="cls-46" points="126.27 140.91 123.94 144.22 123.28 140.23 121.56 139.84 123.29 147.07 128 141.31 126.27 140.91"/>
      </g>
      <circle class="cls-46" cx="186.68" cy="163.56" r=".88"/>
    </g>
  </g>
</svg>