<?xml version="1.0" encoding="UTF-8"?>
<svg id="Layer_2" data-name="Layer 2" xmlns="http://www.w3.org/2000/svg" viewBox="0 0 78.62 61.39">
  <defs>
    <style>
      .cls-1, .cls-2, .cls-3, .cls-4, .cls-5, .cls-6, .cls-7, .cls-8, .cls-9, .cls-10, .cls-11, .cls-12, .cls-13, .cls-14, .cls-15, .cls-16, .cls-17, .cls-18, .cls-19, .cls-20, .cls-21 {
        fill: none;
      }

      .cls-1, .cls-2, .cls-3, .cls-4, .cls-5, .cls-6, .cls-7, .cls-8, .cls-9, .cls-10, .cls-11, .cls-12, .cls-13, .cls-14, .cls-15, .cls-16, .cls-17, .cls-19, .cls-21 {
        stroke-linejoin: round;
      }

      .cls-1, .cls-2, .cls-3, .cls-4, .cls-5, .cls-6, .cls-7, .cls-8, .cls-9, .cls-10, .cls-11, .cls-12, .cls-13, .cls-15, .cls-16, .cls-17, .cls-19, .cls-21 {
        stroke-linecap: round;
      }

      .cls-1, .cls-8, .cls-10, .cls-12, .cls-15 {
        stroke: #fff;
      }

      .cls-2, .cls-7, .cls-9, .cls-11, .cls-13, .cls-14, .cls-16, .cls-21 {
        stroke: #191918;
      }

      .cls-3 {
        stroke: #232323;
      }

      .cls-4, .cls-6, .cls-17, .cls-19 {
        stroke: #000;
      }

      .cls-5 {
        stroke: #3a3a3a;
      }

      .cls-6, .cls-7, .cls-8, .cls-10, .cls-17 {
        stroke-width: .75px;
      }

      .cls-9 {
        stroke-width: .64px;
      }

      .cls-22 {
        fill: #eaeaea;
      }

      .cls-23 {
        fill: #e58013;
      }

      .cls-24 {
        fill: #fff;
      }

      .cls-25 {
        fill: #ffef52;
      }

      .cls-26 {
        fill: #fcd24f;
      }

      .cls-27 {
        fill: #fdaa3f;
      }

      .cls-28 {
        fill: #a0e2f9;
      }

      .cls-29 {
        fill: #848484;
      }

      .cls-30 {
        fill: #8bd2fc;
      }

      .cls-31 {
        fill: #ccc;
      }

      .cls-32 {
        fill: #e0a500;
      }

      .cls-33 {
        fill: #d69f05;
      }

      .cls-34 {
        fill: #191918;
      }

      .cls-35 {
        fill: #a3a3a3;
      }

      .cls-36 {
        fill: #3a3a3a;
      }

      .cls-37 {
        fill: #545655;
      }

      .cls-10 {
        opacity: .51;
      }

      .cls-11 {
        stroke-width: .58px;
      }

      .cls-12, .cls-13, .cls-20 {
        stroke-width: .48px;
      }

      .cls-14 {
        stroke-linecap: square;
        stroke-width: 4px;
      }

      .cls-15, .cls-16 {
        stroke-width: .5px;
      }

      .cls-17, .cls-19 {
        opacity: .4;
      }

      .cls-18 {
        stroke: #e58013;
      }

      .cls-18, .cls-20 {
        stroke-miterlimit: 10;
      }

      .cls-38 {
        opacity: .21;
      }

      .cls-39 {
        opacity: .45;
      }

      .cls-20 {
        stroke: #d69f05;
      }

      .cls-21 {
        stroke-width: .38px;
      }

      .cls-40 {
        fill: #c2e1ff;
      }

      .cls-40, .cls-41 {
        opacity: .64;
      }

      .cls-41 {
        fill: #aac3e1;
      }
    </style>
  </defs>
  <g id="Layer_1-2" data-name="Layer 1">
    <g>
      <g class="cls-38">
        <path class="cls-28" d="M1.04,29.46c.15-2.73,1.4-5.15,3.27-6.83,1.87-1.68,4.41-2.66,7.14-2.51,1.49,.08,2.89,.48,4.12,1.16,2.14-1.65,4.86-2.55,7.73-2.39,6.48,.35,11.46,5.9,11.11,12.38-.18,3.23-1.65,6.11-3.9,8.11-2.24,2.02-5.25,3.17-8.48,3-2.87-.16-5.48-1.34-7.43-3.21-1.29,.54-2.73,.79-4.22,.71-2.73-.15-5.15-1.4-6.83-3.27-1.68-1.87-2.66-4.41-2.51-7.14Z"/>
      </g>
      <g>
        <rect class="cls-30" x="13.69" y="12.98" width="18.06" height="13.67"/>
        <rect class="cls-24" x="12.04" y="12.98" width="18.06" height="13.67"/>
        <rect class="cls-11" x="12.03" y="12.76" width="18.18" height="13.83" rx=".99" ry=".99"/>
        <path class="cls-11" d="M29.32,12.76h1.42c.59,0,1.06,.47,1.06,1.06h0v11.72c0,.59-.47,1.06-1.06,1.06h-1.42"/>
        <path class="cls-22" d="M15.88,15.16h0c.88,0,1.59,.71,1.59,1.59h0c0,.88-.71,1.59-1.59,1.59h0c-.88,0-1.59-.71-1.59-1.59h0c0-.88,.71-1.59,1.59-1.59Z"/>
        <line class="cls-21" x1="14.46" y1="20.56" x2="26.59" y2="20.56"/>
        <line class="cls-21" x1="14.46" y1="22.37" x2="21.15" y2="22.37"/>
        <line class="cls-21" x1="14.46" y1="21.47" x2="24.52" y2="21.47"/>
        <path class="cls-11" d="M15.88,15.18h0c.88,0,1.59,.71,1.59,1.59h0c0,.88-.71,1.59-1.59,1.59h0c-.88,0-1.59-.71-1.59-1.59h0c0-.88,.71-1.59,1.59-1.59Z"/>
      </g>
      <g class="cls-39">
        <circle class="cls-26" cx="47.22" cy="26.58" r="5.88"/>
        <path class="cls-13" d="M46.13,22.27c.35-.09,.71-.13,1.09-.13,1.12,0,2.14,.41,2.92,1.09"/>
        <circle class="cls-20" cx="47.22" cy="26.58" r="4.01"/>
        <path class="cls-34" d="M47.84,25.17c-.08-.1-.17-.17-.26-.23-.1-.06-.21-.08-.34-.08s-.24,.02-.32,.06-.15,.09-.19,.16-.06,.15-.06,.25c0,.13,.05,.24,.14,.33,.09,.08,.22,.16,.37,.22s.32,.12,.5,.19c.14,.05,.27,.11,.41,.19,.13,.08,.25,.17,.36,.27,.11,.1,.2,.23,.26,.37,.06,.14,.09,.32,.09,.51,0,.26-.06,.49-.19,.69-.13,.19-.31,.34-.54,.44-.23,.1-.52,.15-.84,.15-.26,0-.5-.05-.73-.15-.23-.1-.43-.24-.6-.41-.17-.17-.3-.36-.4-.58l.66-.45c.1,.18,.2,.34,.3,.47,.1,.13,.22,.22,.35,.29,.13,.07,.28,.1,.44,.1,.13,0,.25-.02,.34-.06s.16-.1,.2-.18c.04-.08,.07-.17,.07-.29,0-.14-.04-.25-.13-.34-.09-.09-.2-.17-.35-.24-.14-.07-.3-.13-.47-.19-.11-.04-.23-.09-.36-.16-.13-.07-.26-.15-.38-.26-.12-.1-.22-.23-.3-.38s-.12-.33-.12-.54,.06-.4,.19-.58c.13-.17,.3-.31,.52-.42s.47-.16,.76-.16,.53,.05,.72,.14,.36,.21,.49,.35c.13,.14,.24,.29,.31,.45l-.69,.41c-.06-.12-.13-.23-.21-.33Zm-.27-1.69l-.03,1.08h-.63l-.03-1.08h.68Zm-.03,4.79l.03,1.06h-.68l.03-1.06h.63Z"/>
        <path class="cls-12" d="M43.38,22.72s.75-1.05,2.44-1.45"/>
        <path class="cls-9" d="M41.34,26.58c0-3.25,2.63-5.88,5.88-5.88s5.88,2.63,5.88,5.88-2.63,5.88-5.88,5.88c-2.9,0-5.31-2.1-5.79-4.86"/>
        <circle class="cls-33" cx="49.73" cy="29.43" r=".57"/>
        <path class="cls-13" d="M50.77,23.91c.56,.74,.89,1.67,.89,2.67,0,2.45-1.99,4.44-4.44,4.44s-4.44-1.99-4.44-4.44c0-1.82,1.1-3.39,2.67-4.07"/>
        <circle class="cls-33" cx="50.39" cy="28.42" r=".26"/>
        <circle class="cls-33" cx="48.58" cy="30.06" r=".21"/>
        <circle class="cls-33" cx="48.98" cy="29.14" r=".19"/>
        <circle class="cls-33" cx="49.39" cy="28.29" r=".13"/>
        <circle class="cls-33" cx="49.93" cy="28.55" r=".13"/>
        <circle class="cls-33" cx="50.75" cy="27.6" r=".35"/>
        <circle class="cls-33" cx="50.03" cy="27.7" r=".1"/>
      </g>
      <g class="cls-38">
        <path class="cls-28" d="M36.47,44.47c.14-2.51,1.28-4.73,3.01-6.27,1.72-1.54,4.06-2.44,6.56-2.31,1.37,.07,2.66,.44,3.78,1.07,1.97-1.52,4.46-2.34,7.1-2.2,5.96,.32,10.53,5.42,10.21,11.38-.16,2.97-1.51,5.61-3.58,7.45-2.05,1.86-4.83,2.92-7.8,2.75-2.64-.14-5.03-1.23-6.82-2.95-1.19,.5-2.51,.72-3.88,.65-2.51-.14-4.73-1.28-6.27-3.01-1.54-1.72-2.44-4.06-2.31-6.56Z"/>
      </g>
      <path class="cls-26" d="M21.62,41.48h21.82c2.84,0,5.15,2.31,5.15,5.15H20.27v-3.8c0-.75,.61-1.35,1.35-1.35Z"/>
      <path class="cls-7" d="M21.62,41.48h21.82c2.84,0,5.15,2.31,5.15,5.15H20.27v-3.8c0-.75,.61-1.35,1.35-1.35Z"/>
      <g>
        <rect class="cls-31" x="42.56" y="44.29" width="22.7" height="4.28" rx="2.14" ry="2.14" transform="translate(-16.61 55.89) rotate(-48.37)"/>
        <rect class="cls-7" x="42.56" y="44.29" width="22.7" height="4.28" rx="2.14" ry="2.14" transform="translate(-16.61 55.89) rotate(-48.37)"/>
        <g>
          <circle class="cls-7" cx="53.99" cy="46.35" r=".75"/>
          <circle class="cls-7" cx="56.11" cy="43.95" r=".75"/>
        </g>
      </g>
      <path class="cls-40" d="M22.91,27.08h9.55c4.44,0,8.04,3.6,8.04,8.04v7.52H22.91v-15.56h0Z"/>
      <path class="cls-7" d="M37.9,29.2c-1.43-1.31-3.34-2.12-5.44-2.12h-9.55v15.56h17.59v-7.52c0-1.77-.57-3.41-1.54-4.74"/>
      <g>
        <path class="cls-31" d="M64.04,26.21l-.25,11.3c-.02,1.31-1.1,2.35-2.41,2.33h0c-1.31-.02-2.35-1.1-2.33-2.41l.25-11.3c.02-1.31,1.1-2.35,2.41-2.33h0c1.31,.02,2.35,1.1,2.33,2.41Z"/>
        <path class="cls-7" d="M64,24.78l-.25,11.3c-.02,1.31-1.1,2.35-2.41,2.33h0c-1.31-.02-2.35-1.1-2.33-2.41l.25-11.3c.02-1.31,1.1-2.35,2.41-2.33h0c1.31,.02,2.35,1.1,2.33,2.41Z"/>
        <g>
          <circle class="cls-7" cx="61.41" cy="34.3" r=".83"/>
          <circle class="cls-7" cx="61.5" cy="30.57" r=".83"/>
          <circle class="cls-7" cx="61.59" cy="26.84" r=".83"/>
        </g>
      </g>
      <path class="cls-31" d="M13.69,50.36c-.83,0-1.5-.67-1.5-1.5v-5.42c0-1.08-.87-1.95-1.95-1.95-.83,0-1.5-.67-1.5-1.5s.67-1.5,1.5-1.5c2.73,0,4.95,2.22,4.95,4.95v5.42c0,.83-.67,1.5-1.5,1.5Z"/>
      <path class="cls-35" d="M15.09,43.44v5.42c0,.83-.67,1.5-1.5,1.5-.25,0-.49-.06-.7-.19,.47-.24,.79-.74,.79-1.31v-5.42c0-2.41-1.73-4.43-4.03-4.86,.15-.06,.32-.09,.49-.09,2.73,0,4.95,2.22,4.95,4.95Z"/>
      <path class="cls-7" d="M12.19,43.44c0-1.08-.87-1.95-1.95-1.95-.83,0-1.5-.67-1.5-1.5s.67-1.5,1.5-1.5c2.73,0,4.95,2.22,4.95,4.95v5.42c0,.83-.67,1.5-1.5,1.5s-1.5-.67-1.5-1.5v-3.58"/>
      <rect x="18.78" y="37.11" width="17.59" height="5.4"/>
      <line class="cls-6" x1="24.41" y1="27.08" x2="24.41" y2="41.22"/>
      <path class="cls-41" d="M18.78,27.08h9.55c4.44,0,8.04,3.6,8.04,8.04v7.52H18.78v-15.56h0Z"/>
      <polyline class="cls-26" points="28.85 41.48 29.6 38.47 35.46 41.48"/>
      <path class="cls-7" d="M18.78,27.08h9.55c4.44,0,8.04,3.6,8.04,8.04v7.52H18.78v-15.56h0Z"/>
      <path class="cls-26" d="M18.88,41.48h21.82c2.84,0,5.15,2.31,5.15,5.15H17.53v-3.8c0-.75,.61-1.35,1.35-1.35Z"/>
      <path class="cls-32" d="M17.53,44.46h26.83c.83,0,1.5,.67,1.5,1.5v.67H17.53v-2.17h0Z"/>
      <rect class="cls-37" x="5.97" y="46.63" width="48.75" height="14.26" rx="6.78" ry="6.78"/>
      <path class="cls-36" d="M54.72,53.31v.7c0,3.75-3.03,6.78-6.78,6.78H12.75c-3.74,0-6.78-3.03-6.78-6.78v-.7c0-.56,.07-1.1,.21-1.62,.71,2.97,3.39,5.16,6.57,5.16H47.94c3.19,0,5.86-2.19,6.58-5.16,.13,.52,.2,1.06,.2,1.62Z"/>
      <circle class="cls-29" cx="13.69" cy="53.76" r="4.91"/>
      <circle class="cls-29" cx="46.9" cy="53.76" r="4.91"/>
      <circle class="cls-2" cx="13.69" cy="53.76" r="4.91"/>
      <circle class="cls-17" cx="13.69" cy="53.76" r="4.04"/>
      <circle class="cls-19" cx="46.9" cy="53.76" r="4.15"/>
      <circle class="cls-2" cx="46.9" cy="53.76" r="4.91"/>
      <g>
        <circle class="cls-37" cx="13.69" cy="53.76" r="1.84"/>
        <circle class="cls-7" cx="13.69" cy="53.76" r="1.84"/>
      </g>
      <g>
        <circle class="cls-37" cx="46.9" cy="53.76" r="1.84"/>
        <circle class="cls-7" cx="46.9" cy="53.76" r="1.84"/>
      </g>
      <rect class="cls-26" x="13.33" y="52.51" width="34.02" height="2.51" rx="1.26" ry="1.26"/>
      <path class="cls-32" d="M47.72,53.77c0,.69-.57,1.25-1.26,1.25H14.95c-.7,0-1.26-.56-1.26-1.25,0-.23,.06-.45,.17-.63,.22,.38,.62,.63,1.09,.63h31.51c.46,0,.87-.25,1.08-.63,.12,.18,.18,.4,.18,.63Z"/>
      <path class="cls-7" d="M34.31,52.51h11.79c.69,0,1.26,.56,1.26,1.26h0c0,.69-.56,1.26-1.26,1.26h-6.07"/>
      <line class="cls-7" x1="24.01" y1="52.51" x2="32.37" y2="52.51"/>
      <line class="cls-5" x1="18.6" y1="47.57" x2="37.87" y2="47.57"/>
      <line class="cls-5" x1="22.05" y1="49.63" x2="26.4" y2="49.63"/>
      <line class="cls-5" x1="28.12" y1="51.03" x2="32.47" y2="51.03"/>
      <path class="cls-2" d="M8.57,48.08c1.15-.9,2.6-1.44,4.18-1.44H47.94c3.74,0,6.78,3.03,6.78,6.78v.71c0,3.74-3.03,6.78-6.78,6.78H12.74c-3.74,0-6.78-3.03-6.78-6.78v-.71c0-1.36,.4-2.63,1.09-3.69"/>
      <g>
        <circle class="cls-29" cx="61.3" cy="38.12" r="4.91"/>
        <circle class="cls-19" cx="61.3" cy="38.12" r="4.15"/>
        <circle class="cls-4" cx="61.3" cy="38.12" r="4.91"/>
        <g>
          <circle class="cls-37" cx="61.3" cy="38.12" r="1.84"/>
          <circle class="cls-7" cx="61.3" cy="38.12" r="1.84"/>
        </g>
      </g>
      <line class="cls-1" x1="20.59" y1="42.35" x2="27.58" y2="42.35"/>
      <line class="cls-1" x1="34.62" y1="42.35" x2="37.32" y2="42.35"/>
      <line class="cls-15" x1="29.76" y1="43.35" x2="32.47" y2="43.35"/>
      <path class="cls-7" d="M43.32,42.2c-.77-.45-1.66-.71-2.62-.71h-7.26"/>
      <path class="cls-7" d="M31.46,41.48h-12.58c-.75,0-1.35,.61-1.35,1.35v3.8h28.32c0-1.28-.46-2.45-1.23-3.35"/>
      <polyline class="cls-7" points="28.85 41.48 29.6 38.47 35.86 41.28"/>
      <g>
        <line class="cls-8" x1="23.62" y1="29.23" x2="21.84" y2="30.64"/>
        <line class="cls-10" x1="23.88" y1="34.47" x2="22.84" y2="35.3"/>
        <line class="cls-8" x1="27.97" y1="31.24" x2="24.88" y2="33.68"/>
        <line class="cls-8" x1="23.42" y1="31.59" x2="21.84" y2="32.84"/>
        <line class="cls-8" x1="26.4" y1="29.23" x2="24.88" y2="30.44"/>
        <line class="cls-10" x1="29.1" y1="32.67" x2="27.58" y2="33.87"/>
      </g>
      <line class="cls-10" x1="39.14" y1="35.54" x2="37.62" y2="36.74"/>
      <line class="cls-10" x1="38.38" y1="34.47" x2="37.62" y2="35.07"/>
      <line class="cls-2" x1="15.85" y1="27.08" x2="39.18" y2="27.08"/>
      <line class="cls-2" x1="6.74" y1="60.89" x2=".5" y2="60.89"/>
      <line class="cls-2" x1="60.15" y1="60.89" x2="53.91" y2="60.89"/>
      <line class="cls-15" x1="18.91" y1="53.14" x2="21.8" y2="53.14"/>
      <path class="cls-7" d="M37.87,55.02H14.59c-.69,0-1.26-.56-1.26-1.26h0c0-.69,.56-1.26,1.26-1.26h7.44"/>
      <path class="cls-14" d="M68.08,20.32c-1.11,2.34-3.91,3.34-6.25,2.23s-3.34-3.91-2.23-6.25"/>
      <line class="cls-3" x1="24.73" y1="58.67" x2="26.47" y2="58.67"/>
      <line class="cls-3" x1="19.25" y1="59.22" x2="22.05" y2="59.22"/>
      <line class="cls-16" x1="17.73" y1="45.21" x2="22.63" y2="45.21"/>
      <line class="cls-16" x1="23.64" y1="45.21" x2="25.82" y2="45.21"/>
      <g>
        <path class="cls-27" d="M59.89,9.68c0-5.07,4.11-9.18,9.18-9.18s9.18,4.11,9.18,9.18-4.11,9.18-9.18,9.18c-4.53,0-8.29-3.28-9.04-7.59"/>
        <path class="cls-7" d="M59.89,9.68c0-5.07,4.11-9.18,9.18-9.18s9.18,4.11,9.18,9.18-4.11,9.18-9.18,9.18c-4.53,0-8.29-3.28-9.04-7.59"/>
        <circle class="cls-26" cx="67.1" cy="9.68" r="9.18"/>
        <rect class="cls-25" x="66.1" y=".34" width="2.96" height="18.51"/>
        <polygon class="cls-25" points="72.32 17.35 70.42 18.16 70.42 1.39 72.06 2.11 72.32 17.35"/>
        <circle class="cls-27" cx="67.1" cy="9.68" r="6.8"/>
        <circle class="cls-18" cx="67.1" cy="9.68" r="6.61"/>
        <path class="cls-7" d="M65.4,2.95c.54-.14,1.11-.21,1.7-.21,1.74,0,3.33,.64,4.55,1.7"/>
        <path class="cls-34" d="M68.07,7.47c-.12-.15-.26-.27-.41-.36-.15-.09-.33-.13-.54-.13s-.37,.03-.5,.09-.23,.15-.29,.25-.09,.23-.09,.38c0,.21,.07,.38,.22,.51,.15,.13,.34,.24,.58,.34s.5,.19,.78,.3c.22,.08,.43,.18,.63,.29,.21,.12,.39,.26,.57,.42,.17,.16,.3,.36,.4,.58,.1,.23,.15,.49,.15,.8,0,.41-.1,.77-.3,1.07-.2,.3-.48,.53-.85,.69-.37,.16-.81,.24-1.32,.24-.41,0-.79-.08-1.14-.24-.35-.16-.66-.37-.93-.64-.27-.27-.47-.57-.62-.9l1.03-.7c.15,.29,.31,.53,.47,.73,.16,.2,.35,.35,.55,.45,.2,.1,.43,.15,.69,.15,.21,0,.38-.03,.53-.09s.25-.15,.31-.27c.07-.12,.1-.27,.1-.45,0-.22-.07-.39-.21-.54-.14-.14-.32-.26-.54-.37-.22-.1-.47-.21-.74-.3-.17-.06-.36-.14-.57-.25-.21-.1-.41-.24-.6-.4-.19-.16-.35-.36-.47-.6s-.18-.52-.18-.84,.1-.63,.29-.9c.2-.27,.47-.49,.82-.65s.74-.25,1.18-.25,.82,.07,1.13,.21,.57,.32,.77,.55c.21,.22,.37,.45,.49,.7l-1.07,.64c-.1-.19-.21-.36-.33-.51Zm-.43-2.64l-.04,1.68h-.98l-.04-1.68h1.06Zm-.04,7.47l.04,1.66h-1.06l.04-1.66h.98Z"/>
        <path class="cls-8" d="M61.11,3.65s1.18-1.65,3.81-2.26"/>
        <path class="cls-2" d="M57.92,9.68c0-5.07,4.11-9.18,9.18-9.18s9.18,4.11,9.18,9.18-4.11,9.18-9.18,9.18c-4.53,0-8.29-3.28-9.04-7.59"/>
        <g>
          <circle class="cls-23" cx="71.02" cy="14.12" r=".88"/>
          <circle class="cls-23" cx="72.06" cy="12.55" r=".41"/>
          <circle class="cls-23" cx="69.23" cy="15.11" r=".33"/>
          <circle class="cls-23" cx="69.85" cy="13.67" r=".29"/>
          <circle class="cls-23" cx="70.49" cy="12.35" r=".2"/>
          <circle class="cls-23" cx="71.33" cy="12.75" r=".2"/>
          <circle class="cls-23" cx="72.61" cy="11.26" r=".55"/>
          <circle class="cls-23" cx="71.49" cy="11.42" r=".16"/>
        </g>
        <path class="cls-7" d="M72.64,5.5c.88,1.16,1.4,2.61,1.4,4.17,0,3.83-3.11,6.94-6.94,6.94s-6.94-3.11-6.94-6.94c0-2.85,1.71-5.29,4.17-6.36"/>
        <path class="cls-24" d="M63.2,6.73s.07-.1,.07-.1c-.03,.04-.04,.05-.02,.03,0,0,0-.01,.01-.02,.01-.02,.02-.03,.04-.05,.05-.06,.1-.12,.15-.18,.1-.12,.21-.23,.33-.34,.06-.05,.11-.1,.17-.15,.03-.02,.06-.05,.09-.07,.01-.01,.03-.02,.04-.04,.01,0,.06-.05,.02-.01s0,0,.02-.01c.02-.01,.03-.02,.05-.03,.03-.02,.06-.04,.09-.07,.07-.05,.13-.09,.2-.13,.16-.11,.25-.34,.13-.51-.11-.16-.34-.25-.51-.13-.29,.19-.57,.4-.82,.63s-.49,.51-.7,.8c-.05,.07-.06,.2-.04,.29s.09,.18,.17,.22c.09,.05,.19,.07,.29,.04s.16-.09,.22-.17h0Z"/>
        <circle class="cls-24" cx="62.27" cy="7.56" r=".42"/>
      </g>
    </g>
  </g>
</svg>