<?xml version="1.0" encoding="UTF-8"?>
<svg id="Layer_2" data-name="Layer 2" xmlns="http://www.w3.org/2000/svg" viewBox="0 0 244.08 306.43">
  <defs>
    <style>
      .cls-1 {
        stroke-width: .68px;
      }

      .cls-1, .cls-2, .cls-3, .cls-4, .cls-5, .cls-6, .cls-7, .cls-8, .cls-9, .cls-10, .cls-11, .cls-12, .cls-13, .cls-14, .cls-15, .cls-16, .cls-17, .cls-18, .cls-19, .cls-20, .cls-21, .cls-22, .cls-23, .cls-24, .cls-25, .cls-26, .cls-27 {
        fill: none;
      }

      .cls-1, .cls-2, .cls-3, .cls-5, .cls-6, .cls-7, .cls-8, .cls-9, .cls-10, .cls-11, .cls-12, .cls-14, .cls-15, .cls-16, .cls-17, .cls-18, .cls-19, .cls-20, .cls-21, .cls-22, .cls-23, .cls-25, .cls-26, .cls-27 {
        stroke-linecap: round;
        stroke-linejoin: round;
      }

      .cls-1, .cls-2, .cls-3, .cls-12, .cls-17, .cls-19, .cls-24, .cls-25, .cls-26, .cls-27 {
        stroke: #232144;
      }

      .cls-2 {
        stroke-width: .75px;
      }

      .cls-28 {
        fill: #f57a59;
      }

      .cls-29 {
        fill: #f97c00;
      }

      .cls-30 {
        fill: #ebdeff;
      }

      .cls-31 {
        fill: #ea1859;
      }

      .cls-32 {
        fill: #fff;
      }

      .cls-33 {
        fill: #ea6e6e;
      }

      .cls-34 {
        fill: #ffb999;
      }

      .cls-35 {
        fill: #fe4a65;
      }

      .cls-36 {
        fill: #f99;
      }

      .cls-37 {
        fill: #ffa744;
      }

      .cls-38 {
        fill: #effdfd;
      }

      .cls-39 {
        fill: #7f1212;
      }

      .cls-40 {
        fill: #a02727;
      }

      .cls-41 {
        fill: #84ecff;
      }

      .cls-42 {
        fill: #9cf7c9;
      }

      .cls-43 {
        fill: #c64f4f;
      }

      .cls-44 {
        fill: #c6a2f9;
      }

      .cls-45, .cls-46, .cls-47 {
        fill: #e0f3fc;
      }

      .cls-48 {
        fill: #1e3c51;
      }

      .cls-49 {
        fill: #232144;
      }

      .cls-50 {
        fill: #9671c3;
      }

      .cls-51 {
        fill: #29fc97;
      }

      .cls-52 {
        fill: #2e4c64;
      }

      .cls-53, .cls-54 {
        fill: #77b7b6;
      }

      .cls-3 {
        stroke-width: .59px;
      }

      .cls-4 {
        stroke-width: 2.51px;
      }

      .cls-4, .cls-5, .cls-8, .cls-13, .cls-18, .cls-21 {
        stroke: #fff;
      }

      .cls-4, .cls-13, .cls-24 {
        stroke-miterlimit: 10;
      }

      .cls-5 {
        stroke-width: 3.33px;
      }

      .cls-6 {
        stroke: #ff859c;
      }

      .cls-6, .cls-7, .cls-8, .cls-9, .cls-10, .cls-13, .cls-16 {
        stroke-width: 2px;
      }

      .cls-7 {
        stroke: #ea1859;
      }

      .cls-9 {
        stroke: #fce6ed;
      }

      .cls-10, .cls-23 {
        stroke: #f57a59;
      }

      .cls-11 {
        stroke: #77b7b6;
      }

      .cls-11, .cls-55, .cls-54 {
        opacity: .3;
      }

      .cls-11, .cls-20, .cls-21, .cls-22 {
        stroke-width: 1.33px;
      }

      .cls-12 {
        stroke-width: .47px;
      }

      .cls-14 {
        stroke: #29afd3;
      }

      .cls-14, .cls-15 {
        stroke-width: 2.66px;
      }

      .cls-15 {
        stroke: #acd9ea;
      }

      .cls-16 {
        stroke: #b20040;
      }

      .cls-17 {
        stroke-width: .5px;
      }

      .cls-56, .cls-46 {
        opacity: .58;
      }

      .cls-18, .cls-19, .cls-23, .cls-24, .cls-26, .cls-27 {
        stroke-width: .67px;
      }

      .cls-20 {
        stroke: #ffdab6;
      }

      .cls-22 {
        stroke: #1e3c51;
      }

      .cls-25 {
        stroke-width: .84px;
      }

      .cls-26 {
        opacity: .34;
      }

      .cls-47 {
        opacity: .51;
      }

      .cls-57 {
        fill: #29afd3;
        opacity: .5;
      }

      .cls-27 {
        opacity: .54;
      }
    </style>
  </defs>
  <g id="Layer_1-2" data-name="Layer 1">
    <g>
      <g class="cls-55">
        <path class="cls-53" d="M65.16,293.87c12.21-1.54,23.54-5.76,35.94-7.1,15.16-1.64,27.47,7.53,40.55,11.02-1.92,2.66-14.64,4.67-19.33,5.61-7.14,1.44-15.36,2.86-23.07,3.02-11.58,.24-19.39-4.72-28.24-8.6l1.25,.61"/>
      </g>
      <circle class="cls-19" cx="16.59" cy="69.26" r="3.4"/>
      <path class="cls-54" d="M37.83,50.91l26.38,13.1,9.84-19.66-27.33-12.92s-3.34,13.1-8.89,19.48Z"/>
      <polygon class="cls-32" points="49.61 36.53 47.33 41.71 53.28 44.55 56.29 39.43 49.61 36.53"/>
      <path class="cls-39" d="M77.13,79.83c-1.81-1.81,1.44,5.04,3.53,6.52s4.83,1.97,7.34,1.45v-8.26s-10.77,.4-10.87,.29Z"/>
      <path class="cls-2" d="M77.13,79.83c.04,2.56,1.44,5.04,3.53,6.52s4.83,1.97,7.34,1.45"/>
      <path class="cls-52" d="M119.61,287.61l.24,9.48c-.14,1.07,.23,2.13,.99,2.89h0c.38,.38,.83,.66,1.33,.84,5.88,2.02,9.6,3.4,15.79,4.12l2.07,.24,2,.11,2.13-.16c3.07-.37,6.07-1.21,8.9-2.49h0c.89-1.94,.45-4.24-1.11-5.69-3.4-3.16-10.13-8.41-19.67-11.1l-2.94-4.56c1.77,.86,2.94,2.31,2.94,3.96,0,2.63-2.96,4.77-6.62,4.77s-6.62-2.14-6.62-4.77c0-1.43,.87-2.71,2.26-3.59"/>
      <path class="cls-48" d="M153.44,300.65c0,.7-.15,1.41-.46,2.08-2.82,1.28-5.83,2.11-8.9,2.49l-2.13,.16-2.01-.11-2.07-.24c-6.18-.72-9.9-2.09-15.78-4.12-.5-.17-.96-.46-1.33-.83-.76-.76-1.13-1.83-.99-2.89l-.07-2.93c3.35,3.02,9.52,5.24,16.67,5.63,6.18,.34,11.78-.77,15.55-2.79,.99,.95,1.52,2.25,1.52,3.56Z"/>
      <path class="cls-52" d="M78.81,280.69c-1.77,.77-2.94,2.09-2.94,3.59,0,2.38,2.96,4.31,6.62,4.31s6.62-1.93,6.62-4.31c0-1.29-.87-2.45-2.26-3.24l2.13,4.35,.85,9.55c.12,1.32-.13,2.64-.72,3.82l-.13,.25c-5.32,1.88-10.83,3.16-16.44,3.81l-5.39,.17c-2.67-.33-5.28-1.05-7.73-2.16h0c-.77-1.69-.39-3.68,.97-4.95,2.87-2.67,8.47-7.04,16.38-9.44l2.05-5.74Z"/>
      <path class="cls-22" d="M79.27,288.7s3.22,1.09,6.39,0"/>
      <path class="cls-48" d="M89.35,298.41l-.32,.65c-5.32,1.88-10.7,3.22-16.3,3.87l-2.26,.29-3.35-.08c-2.67-.33-5.2-1.16-7.65-2.26-.27-.58-.4-1.2-.4-1.81,0-1.17,.47-2.31,1.36-3.14,.05-.04,.09-.08,.14-.13,4.56,2.42,11.32,3.48,18.65,2.54,3.94-.5,7.58-1.52,10.69-2.9h0c.09,1.02-.1,2.06-.56,2.97Z"/>
      <rect class="cls-46" x="139.25" y="151.01" width="57.13" height="42.54" rx="2.74" ry="2.74"/>
      <g>
        <path class="cls-38" d="M160.84,151.19l-16.68,42.36,15.37,.11,13.92-42.43h-.02s-12.18-.22-12.58-.05Z"/>
        <path class="cls-32" d="M175.77,151.19l-14.32,42.36h3.79l14.26-42.43h-1.22s-2.1-.11-2.5,.06Z"/>
      </g>
      <polygon class="cls-32" points="160.93 168.72 155.03 172.12 149.13 175.53 149.13 168.72 149.13 161.9 155.03 165.31 160.93 168.72"/>
      <g>
        <circle class="cls-26" cx="177.13" cy="61.67" r="4.8"/>
        <circle class="cls-27" cx="177.13" cy="61.67" r="6.84"/>
      </g>
      <rect class="cls-32" x="171.99" y="43.76" width="22.05" height="19.27" rx="1.36" ry="1.36" transform="translate(-7.63 52.39) rotate(-15.96)"/>
      <path class="cls-34" d="M30.94,100.73c-1.24-3.34-4.44-6.79-4.44-6.79l1.1,1.3,1.12-11.6-10.13-14.03-.7-.78c-.7-.78-.92-.53-.92-.53l-.94,.19c-.84,.61-.56,1.89-.56,1.89l.59,1.45,4.87,9.97-1.84-.61c-2.56,.72-3.06,3.4-3.06,3.4v5.01s7.27,5.77,7.53,12.18l4.66,2.02,2.71-3.06Z"/>
      <path class="cls-10" d="M24.23,101.17c-.33-6.9-7.2-11.57-7.2-11.57l-.06-5.01s.22-1.95,2.06-2.67"/>
      <path class="cls-35" d="M167.89,93.65c-3.76,9.77-21.63,28.56-21.63,28.56l.26,.18c-15.37-10.47-35.33-17.58-40.77-19.42-.92-.31-1.89-.47-2.86-.47h-9.69l-9.89,3.54-12.77,10.57-12.73,8.47-26.4-24.95c-3.99,3.34-9.8,.88-10.02,.79l26.84,39.31h4c7,0,13.88-1.87,19.93-5.42l1.57-.93v-3.45l2.01,26.73,3.56-3.34-6.45,6.46v6.96l3.23,2.95-4.2,3.68,1.19,7.79,1.34,.54c7.69,3.09,15.83,4.63,23.96,4.63,8.6,0,17.2-1.73,25.26-5.17l3.45-6.46-.59-3.08-2.08,1.2-.12-.28-.78-3.41-2.6-2.38-.4-.58-1.15-18.81c0-.33,.06-.65,.17-.95l2.75-7.51c.11-.31,.17-.63,.17-.95v-8.37l29.77,7.66c1.79,.46,3.66-.37,4.51-2.01l19.68-37.71c-4.51-.17-8.52-4.34-8.52-4.34Z"/>
      <polyline class="cls-6" points="66.62 120.33 70.88 117.66 79.73 110.23"/>
      <path class="cls-34" d="M169.09,94.9v-19.33l6.47-14.65,.77-.81s1.52-1.25,2.41,0,.3,2.88,.3,2.88l-.54,1.04-4.96,10.91,.91-1.89h4.29l1.39,1.11,2.9,4.23-.67,5.57-4.01,5.68-3.89,8.22"/>
      <line class="cls-9" x1="169.85" y1="77.99" x2="169.85" y2="86.51"/>
      <polyline class="cls-10" points="174.11 96.33 177.45 89.32 181.46 83.75"/>
      <path class="cls-34" d="M97.98,107.21h0c-2.55,0-5.19-2.17-4.62-4.62v-12.35h9.24l.13,12.47c0,3.51-.13,4.5-4.75,4.5Z"/>
      <path class="cls-28" d="M93.1,99.16s4.55,3.05,9.6,0v-6.06h-9.56s-.25,6.06-.04,6.06Z"/>
      <path class="cls-52" d="M122.16,291.95l-3.01-6.1,1.42-2.42,2-4.01,4.51-.42,3.93,4.34,3.93,6.35s-3.76,3.09-4.18,3.17"/>
      <path class="cls-52" d="M78.81,280.69c-1.77,.77-2.94,2.09-2.94,3.59,0,2.38,2.96,4.31,6.62,4.31s6.62-1.93,6.62-4.31c0-1.29-1.5-3.14-3.44-3.89l-5.32-.21-1.53,.51Z"/>
      <path class="cls-34" d="M120.7,278.37l1.76,6.4c.2,.74,.83,1.3,1.6,1.38,1.22,.13,3.09,.04,4.55-1.24,.47-.41,.69-1.05,.61-1.67l-.79-5.73"/>
      <path class="cls-28" d="M119.53,273.2l1.76,6.4c.2,.74,.83,1.3,1.6,1.38,1.22,.13,3.09,.04,4.55-1.24,.47-.41,.69-1.05,.61-1.67l-.79-5.73"/>
      <path class="cls-34" d="M80.34,278.73v5.06s2.68,1.89,5.35,0v-5.38"/>
      <path class="cls-28" d="M80.34,275.39v5.06s2.68,1.89,5.35,0v-5.38"/>
      <line class="cls-6" x1="34.97" y1="104.97" x2="53.67" y2="123.01"/>
      <path class="cls-41" d="M132.13,275.72c-8.68,5.51-13.87,1.67-13.87,1.67l-2.34-16.71-6.85-26.04-8.85-29.4-11.03,72.24c-11.52,4.18-15.03-2.25-15.03-2.25l.84-92.54c15.22,5.63,33.23,5.7,48.24-.55l8.89,93.58Z"/>
      <path class="cls-57" d="M88.47,187.2c-2.21,20.64-2.63,65.06-4.9,91.69-7.24,.17-9.41-3.66-9.41-3.66l.87-92.73c6.64,2.46,6.48,4.52,13.44,4.71Z"/>
      <line class="cls-14" x1="98.5" y1="208.79" x2="95.83" y2="227.07"/>
      <line class="cls-14" x1="110.3" y1="236.43" x2="115.87" y2="257.07"/>
      <line class="cls-14" x1="92.9" y1="244.61" x2="90.23" y2="262.89"/>
      <path class="cls-14" d="M78.77,184.97c5.69,1.95,24.35,7.04,44.31-1.62"/>
      <path class="cls-14" d="M84.75,188.72c2.24,.5,4.89,.97,7.86,1.27"/>
      <line class="cls-7" x1="25.44" y1="105.47" x2="46.38" y2="136.09"/>
      <polyline class="cls-6" points="150.67 119.05 158.41 109.98 161.58 105.97"/>
      <path class="cls-6" d="M111.3,106.22s18.29,6.51,29.48,13.78"/>
      <path class="cls-9" d="M119.23,109.29c2.08,.85,4.42,1.85,6.87,2.95"/>
      <line class="cls-7" x1="123.16" y1="129.6" x2="151.68" y2="136.83"/>
      <line class="cls-7" x1="170.1" y1="108.47" x2="156.74" y2="133.53"/>
      <path class="cls-31" d="M72.93,132.46c-3.38,2.04-6.99,3.62-10.8,4.66s-7.59,1.71-11.35,1.38c-1.28-.11-1.27,1.88,0,2,3.92,.34,8.11-.42,11.88-1.45,3.96-1.08,7.76-2.74,11.27-4.86,1.1-.66,.1-2.39-1.01-1.72h0Z"/>
      <path class="cls-31" d="M73.09,130.95c-5.25,3.17-11.14,5.22-17.24,5.88-1.26,.14-1.28,2.14,0,2,6.46-.7,12.68-2.79,18.25-6.16,1.1-.66,.1-2.39-1.01-1.72h0Z"/>
      <path class="cls-31" d="M73.35,128.73c-3.84,2.46-8.02,4.28-12.43,5.41-1.24,.32-.72,2.24,.53,1.92,4.57-1.17,8.94-3.07,12.91-5.61,1.08-.69,.08-2.42-1.01-1.72h0Z"/>
      <path class="cls-31" d="M73.57,126.84c-3.84,2.46-8.02,4.28-12.43,5.41-1.24,.32-.72,2.24,.53,1.92,4.57-1.17,8.94-3.07,12.91-5.61,1.08-.69,.08-2.42-1.01-1.72h0Z"/>
      <line class="cls-5" x1="124.64" y1="211.51" x2="126.1" y2="227.31"/>
      <line class="cls-5" x1="127.64" y1="243.65" x2="129.11" y2="259.45"/>
      <path class="cls-31" d="M119.88,156.52l.65,10.34,.4,.59,2.6,2.38,.78,3.4,.12,.28,2.08-1.2,.59,3.08-3.45,6.46c-8.06,3.44-16.66,5.17-25.26,5.17-8.13,0-16.27-1.54-23.96-4.63l-1.34-.54-1.19-7.79,4.2-3.68-3.23-2.95-.06-7.02,2.92-2.93s-.75-10.77-1-15.2c10.44,9.69,45.16,14.23,45.16,14.23Z"/>
      <path class="cls-43" d="M81.14,69.55c.58,1.39,1.06,2.83,1.45,4.29,.46,1.76,.65,3.95-.76,5.09-.19,.15-.4,.28-.64,.31-.24,.03-1.04,.55-1.26,.44-1.7-.83-1.55-3.65-2.74-5.12-.49-.6-1.11-1.08-1.57-1.7-.59-.79-.65-1.68-.89-2.64-.96-3.8-1.59-7.96-.42-11.7s4.18-7.08,8.04-7.79c.32-.06,.66-.1,.95-.25,.81-.4,1.14-1.23,1.49-2.06,.73-1.75,3.38-3.74,5.25-4.11s1.67-.19,3.56-.17c1.26,.01,3.74,1.06,4.57,2.08,.61,.75-.82-.24,.15-.24,6.44-.02,10.41,3.5,12.06,7.34,.41,.96,.7,2,.66,3.05-.06,1.51-.2,3.42-.7,4.85,.49,1.26,.83,2.43,1.36,3.82s-.04,2.84-1.05,3.93c-.53,.56-.55,1.13-1.29,1.37-9.1,2.98-19.24,3.27-27.35,8.37"/>
      <path class="cls-40" d="M92.56,73.96c-3.62,.96-7.12,2.2-10.31,4.18-.09,.12,0,.44-.12,.54-.19,.15-1.07,.84-1.31,.86-.25,.03-.59-.22-.82-.32-1.7-.83-1.55-3.65-2.74-5.12-.49-.6-2.75,.75-3.21,.13-.59-.79-.65-2.39-.63-3.38,.13-4.64-.22-9.05,.96-12.78,1.15-3.66,4.2-6.37,7.93-7.18,.98,.78,1.66,1.15,2.22,2.28,1.5,3.01,.68,6.59,1.01,9.93,.44,4.45,3.18,8.57,7.01,10.87Z"/>
      <path class="cls-34" d="M109.57,68.01c2.1-.32,4.06,1.13,4.38,3.23,.3,2.01-1.01,3.9-2.97,4.33"/>
      <ellipse class="cls-34" cx="76.7" cy="76.94" rx="3.87" ry="4.43"/>
      <ellipse class="cls-28" cx="77.58" cy="76.82" rx="3.01" ry="3.44"/>
      <path class="cls-34" d="M108.78,65.1l2.1,10.34c.61,3,.77,6.08,.3,9.1-1.05,6.88-4.66,11.51-11.29,12.86h0c-3.79,.77-7.53-.34-10.7-2.36-4.62-2.93-7.73-7.74-8.82-13.1l-.46-2.27s2.99-.05,3.1-3.17c.11-3.12-2.14-7.02-2.14-7.02l.97,1.73,3.26-.89,1.94-1.7,1.32-1.92,2.45,1.17,3.43-.21,2.5-1.62,2.03,2.14,3.34,.78,3-1.09,3.67-2.78Z"/>
      <path class="cls-28" d="M106.4,94.55c-1.69,1.44-3.79,2.44-6.34,2.96-.82,.17-1.64,.24-2.45,.24-2.93,0-5.77-1.02-8.25-2.6-4.61-2.93-7.73-7.74-8.81-13.1l-.46-2.27s2.58-.05,3.03-2.56c1.99,9.19,4.55,12.73,8.15,15.37,3.76,2.76,7.82,2.71,10.74,2.71,.81,0,1.63-.08,2.46-.25,.68-.14,1.33-.31,1.94-.52Z"/>
      <path class="cls-2" d="M103.56,68.66s7.48-2.67,7.55-11.64"/>
      <path class="cls-2" d="M73.59,62.91c-.71,5.22-.33,8.81,.29,10.9"/>
      <ellipse class="cls-2" cx="76.7" cy="76.94" rx="3.87" ry="4.43"/>
      <g>
        <path class="cls-1" d="M76.22,74.61s-1.9,1.57-.42,4.4"/>
        <path class="cls-1" d="M75.26,76.61s1.3-.08,2.03,1.09"/>
      </g>
      <path class="cls-3" d="M111.88,72.09s-.02-1.14-1.08-1.68"/>
      <path class="cls-2" d="M109.57,68.01c2.1-.32,4.06,1.13,4.38,3.23,.3,2.01-1.01,3.9-2.97,4.33"/>
      <path class="cls-2" d="M110.28,61.74s2.44,2.61,1.17,6.46"/>
      <line class="cls-2" x1="93.24" y1="103.95" x2="93.24" y2="96.96"/>
      <path class="cls-19" d="M102.48,105.62c-1.67,2.6-6.46,2.29-8.65-.59"/>
      <line class="cls-2" x1="102.73" y1="96.96" x2="102.73" y2="103.95"/>
      <path class="cls-2" d="M102.73,102.71h.2c.98,0,1.94,.16,2.87,.47,5.82,1.96,28.27,9.98,43.93,21.66"/>
      <path class="cls-2" d="M146.3,122.42s17.87-18.79,21.63-28.56c0,0,4.01,4.18,8.52,4.34l-19.67,37.71c-.85,1.64-2.72,2.47-4.51,2.01l-29.77-7.65"/>
      <path class="cls-2" d="M122.49,126.44v12.62c0,.32-.06,.65-.17,.95l-2.75,7.51c-.11,.3-.17,.63-.17,.95l1.18,19.39"/>
      <polyline class="cls-2" points="65.54 120.17 70.58 116.82 83.35 106.25 93.24 102.71"/>
      <path class="cls-2" d="M73.77,134.09l-1.58,.93c-6.04,3.55-12.92,5.42-19.92,5.42h-4l-26.84-39.31s5.96,2.62,10.02-.78l26.39,24.94,6.07-4.04"/>
      <line class="cls-2" x1="125.03" y1="202.1" x2="123.33" y2="183.98"/>
      <line class="cls-2" x1="127.95" y1="233.41" x2="125.32" y2="205.21"/>
      <path class="cls-2" d="M95.17,238.08l4.94-32.89,8.85,29.4,6.85,26.04,2.34,16.7s5.18,3.84,13.86-1.67l-3.77-39.13"/>
      <path class="cls-2" d="M74.68,240.66l-.63,34.52s3.51,6.42,15.03,2.25l5.57-35.92"/>
      <line class="cls-2" x1="74.62" y1="232.33" x2="74.59" y2="237.79"/>
      <line class="cls-2" x1="74.99" y1="183.06" x2="74.59" y2="229.84"/>
      <polyline class="cls-19" points="94.6 185.09 94.6 196.45 101.84 202.13"/>
      <line class="cls-19" x1="97.49" y1="190.21" x2="97.49" y2="191.49"/>
      <line class="cls-19" x1="97.49" y1="193.61" x2="97.49" y2="194.88"/>
      <path class="cls-19" d="M116.89,190.21s-1.02,8.02,9.23,8.02"/>
      <path class="cls-19" d="M82.26,190.21s1.02,8.02-9.23,8.02"/>
      <path class="cls-19" d="M120.7,278.37l1.76,6.4c.2,.74,.83,1.3,1.6,1.38,1.22,.13,3.09,.04,4.55-1.24,.47-.41,.69-1.05,.61-1.67l-.79-5.73"/>
      <path class="cls-19" d="M80.34,278.73v5.06s2.68,1.89,5.35,0v-5.38"/>
      <path class="cls-19" d="M91.8,103.48c0,3.06,2.98,5.53,6.66,5.53s6.66-2.48,6.66-5.53v-.3"/>
      <g>
        <polyline class="cls-19" points="174.45 97.88 178.34 89.65 182.35 83.97 183.02 78.41 180.12 74.17 178.73 73.06 174.45 73.06"/>
        <polyline class="cls-19" points="169.09 94.9 169.09 75.57 175.56 60.92"/>
        <line class="cls-19" x1="178.5" y1="64.04" x2="173.54" y2="74.95"/>
        <path class="cls-19" d="M176.32,60.12s1.52-1.25,2.41,0,.3,2.88,.3,2.88"/>
      </g>
      <g>
        <line class="cls-19" x1="149.13" y1="177.74" x2="163.52" y2="177.74"/>
        <line class="cls-19" x1="149.13" y1="179.74" x2="158.07" y2="179.74"/>
        <line class="cls-19" x1="149.13" y1="181.75" x2="158.07" y2="181.75"/>
      </g>
      <polygon class="cls-19" points="160.93 168.72 155.03 172.12 149.13 175.53 149.13 168.72 149.13 161.9 155.03 165.31 160.93 168.72"/>
      <g>
        <circle class="cls-17" cx="143.4" cy="153.45" r=".86"/>
        <circle class="cls-17" cx="146.83" cy="153.45" r=".86"/>
        <circle class="cls-17" cx="150.33" cy="153.45" r=".86"/>
      </g>
      <path class="cls-19" d="M78.81,280.69c-1.77,.77-2.94,2.09-2.94,3.59,0,2.38,2.96,4.31,6.62,4.31s6.62-1.93,6.62-4.31c0-1.29-.87-2.45-2.26-3.24"/>
      <g>
        <path class="cls-2" d="M67.15,302.97c-2.67-.33-5.28-1.05-7.73-2.16h0c-.77-1.68-.39-3.68,.97-4.94,2.87-2.67,8.47-7.05,16.38-9.44"/>
        <path class="cls-2" d="M88.97,285.38l.82,9.27c.13,1.5-.15,3-.82,4.35h0c-5.32,1.88-10.83,3.16-16.44,3.81"/>
      </g>
      <g class="cls-56">
        <circle class="cls-45" cx="41.32" cy="199.67" r="11.36"/>
        <path class="cls-45" d="M40.65,204.5c-.26,0-.52-.07-.75-.2l-5.68-3.34c-.7-.41-.94-1.32-.52-2.02,.41-.7,1.32-.94,2.02-.52l4.37,2.57,3.77-6.81c.4-.71,1.3-.97,2.01-.58,.71,.4,.97,1.3,.58,2.01l-4.51,8.13c-.19,.35-.52,.6-.9,.71-.13,.03-.26,.05-.39,.05Z"/>
      </g>
      <path class="cls-41" d="M41.13,205.14c-.26,0-.52-.07-.75-.2l-5.68-3.34c-.7-.41-.94-1.32-.52-2.02,.41-.7,1.32-.94,2.02-.52l4.37,2.57,3.77-6.81c.4-.71,1.3-.97,2.01-.58,.71,.4,.97,1.3,.58,2.01l-4.51,8.13c-.19,.35-.52,.6-.9,.71-.13,.03-.26,.05-.39,.05Z"/>
      <path class="cls-8" d="M31.37,196.09s2.8-7.31,10.61-7.02"/>
      <circle class="cls-19" cx="41.32" cy="199.67" r="11.36"/>
      <path class="cls-24" d="M41.24,205.09c-.26,0-.52-.07-.75-.2l-5.68-3.34c-.7-.41-.94-1.32-.52-2.02,.41-.7,1.32-.94,2.02-.52l4.37,2.57,3.77-6.81c.4-.71,1.3-.97,2.01-.58,.71,.4,.97,1.3,.58,2.01l-4.51,8.13c-.19,.35-.52,.6-.9,.71-.13,.03-.26,.05-.39,.05Z"/>
      <circle class="cls-51" cx="134.02" cy="60.86" r="11.36"/>
      <path class="cls-42" d="M145.38,61.2c0,4.24-2.31,7.93-5.74,9.88,1.31-1.85,2.07-4.11,2.07-6.54,0-6.28-5.09-11.36-11.36-11.36-2.04,0-3.96,.54-5.61,1.48,2.05-2.92,5.44-4.83,9.29-4.83,6.28,0,11.36,5.09,11.36,11.36Z"/>
      <path class="cls-51" d="M133.35,65.69c-.26,0-.52-.07-.75-.2l-5.68-3.34c-.7-.41-.94-1.32-.52-2.02,.41-.7,1.32-.94,2.02-.52l4.37,2.57,3.77-6.81c.4-.71,1.3-.97,2.01-.58,.71,.4,.97,1.3,.58,2.01l-4.51,8.13c-.19,.35-.52,.6-.9,.71-.13,.03-.26,.05-.39,.05Z"/>
      <path class="cls-32" d="M133.83,66.33c-.26,0-.52-.07-.75-.2l-5.68-3.34c-.7-.41-.94-1.32-.52-2.02,.41-.7,1.32-.94,2.02-.52l4.37,2.57,3.77-6.81c.4-.71,1.3-.97,2.01-.58,.71,.4,.97,1.3,.58,2.01l-4.51,8.13c-.19,.35-.52,.6-.9,.71-.13,.03-.26,.05-.39,.05Z"/>
      <path class="cls-8" d="M124.08,57.28s2.8-7.31,10.61-7.02"/>
      <circle class="cls-19" cx="134.02" cy="60.86" r="11.36"/>
      <path class="cls-24" d="M133.94,66.28c-.26,0-.52-.07-.75-.2l-5.68-3.34c-.7-.41-.94-1.32-.52-2.02,.41-.7,1.32-.94,2.02-.52l4.37,2.57,3.77-6.81c.4-.71,1.3-.97,2.01-.58,.71,.4,.97,1.3,.58,2.01l-4.51,8.13c-.19,.35-.52,.6-.9,.71-.13,.03-.26,.05-.39,.05Z"/>
      <g>
        <g>
          <path class="cls-19" d="M23.57,101.78c-.26-6.42-7.53-12.18-7.53-12.18v-5.01s.5-2.67,3.06-3.4"/>
          <path class="cls-19" d="M26.5,93.94s3.19,3.45,4.44,6.79"/>
          <polyline class="cls-19" points="27.6 95.24 28.72 83.64 18.6 69.61"/>
          <line class="cls-19" x1="16.07" y1="71.84" x2="20.93" y2="81.8"/>
        </g>
        <path class="cls-19" d="M15.48,70.39s-.28-1.28,.56-1.89"/>
        <path class="cls-19" d="M16.97,68.3s.23-.25,.92,.53"/>
      </g>
      <line class="cls-4" x1="65.23" y1="40.31" x2="55.35" y2="59.62"/>
      <line class="cls-4" x1="68.7" y1="41.88" x2="58.82" y2="61.19"/>
      <path class="cls-25" d="M37.83,50.91l26.38,13.1,9.84-19.66-27.33-12.92s-3.34,13.1-8.89,19.48Z"/>
      <polygon class="cls-19" points="49.61 36.53 47.33 41.71 53.28 44.55 56.29 39.43 49.61 36.53"/>
      <line class="cls-19" x1="46.77" y1="44.55" x2="59.35" y2="50.75"/>
      <line class="cls-19" x1="46.1" y1="46.17" x2="51.22" y2="48.62"/>
      <line class="cls-19" x1="44.77" y1="48.12" x2="55.73" y2="53.36"/>
      <path class="cls-49" d="M87.84,63.26c-.02,.91,.49,1.8,1.29,2.23,.28,.15,.53-.28,.25-.43-.66-.36-1.06-1.07-1.04-1.8,0-.32-.49-.32-.5,0h0Z"/>
      <path class="cls-49" d="M107.69,63.67c.16-.23,.29-.49,.37-.76,.04-.12-.05-.28-.17-.31-.14-.03-.26,.04-.31,.17-.02,.08-.05,.15-.08,.22l.03-.06c-.07,.17-.16,.33-.27,.48-.04,.05-.04,.14-.03,.19s.06,.12,.11,.15c.06,.03,.13,.05,.19,.03s.11-.06,.15-.11h0Z"/>
      <path class="cls-49" d="M76.29,57.92c-.35,.46-.62,.98-.76,1.54-.03,.13,.04,.28,.17,.31s.27-.04,.31-.17c.03-.13,.07-.25,.11-.38,.02-.06,.05-.12,.07-.18-.02,.04,.02-.05,.02-.05,.01-.03,.02-.05,.04-.08,.06-.11,.12-.23,.18-.33,.03-.06,.07-.11,.11-.17,.02-.03,.04-.05,.06-.08,0,0,.06-.08,.04-.05,.08-.1,.11-.25,0-.35-.09-.08-.27-.11-.35,0h0Z"/>
      <path class="cls-49" d="M76.08,69.56c-.77-2.77-.97-5.67-.57-8.52,.04-.31-.44-.45-.48-.13-.42,2.94-.23,5.92,.57,8.79,.09,.31,.57,.18,.48-.13h0Z"/>
      <rect class="cls-19" x="171.99" y="43.76" width="22.05" height="19.27" rx="1.36" ry="1.36" transform="translate(-7.63 53.14) rotate(-16.19)"/>
      <path class="cls-49" d="M98.23,65.27c.95,1.35,2.84,1.77,4.41,1.69,.86-.04,1.72-.27,2.46-.73,.78-.48,1.42-1.17,2.04-1.83,.22-.23-.13-.59-.35-.35-1.15,1.21-2.29,2.28-4.04,2.4-1.39,.1-3.22-.21-4.09-1.44-.18-.26-.62-.01-.43,.25h0Z"/>
      <g>
        <line class="cls-12" x1="108" y1="220.88" x2="106.8" y2="216.94"/>
        <line class="cls-12" x1="107.47" y1="222.56" x2="106.27" y2="218.62"/>
      </g>
      <g>
        <line class="cls-12" x1="119.95" y1="131.06" x2="119.73" y2="126.94"/>
        <line class="cls-12" x1="119.12" y1="132.58" x2="118.81" y2="128.47"/>
      </g>
      <g>
        <line class="cls-12" x1="141.35" y1="133.21" x2="145.31" y2="134.37"/>
        <line class="cls-12" x1="140.19" y1="131.92" x2="144.17" y2="132.99"/>
      </g>
      <g>
        <line class="cls-12" x1="77.32" y1="254.39" x2="77.52" y2="250.27"/>
        <line class="cls-12" x1="76.26" y1="255.79" x2="76.46" y2="251.68"/>
      </g>
      <g>
        <ellipse class="cls-33" cx="105.55" cy="55.03" rx="2.91" ry="2.17" transform="translate(-3.67 102.35) rotate(-50.96)"/>
        <ellipse class="cls-33" cx="105.58" cy="59.24" rx="1.17" ry=".87" transform="translate(-12.36 31.91) rotate(-16.25)"/>
      </g>
      <path class="cls-28" d="M83.93,79.2c.64-1.02,.87-2.37,.79-3.56-.09-1.4-.4-3.02-1.06-4.26l-.6,1.47c1.24-.29,2.51-.63,3.6-1.32,1.19-.75,2.07-1.85,2.64-3.13,.22-.49,.14-1.07-.36-1.37-.43-.25-1.14-.14-1.37,.36-.45,1.01-1.06,1.9-2.03,2.48s-1.98,.81-3.01,1.05c-.65,.15-.89,.92-.6,1.47,.25,.48,.36,1.03,.48,1.55,.14,.56,.27,1.13,.31,1.7,.06,.86-.06,1.81-.52,2.55-.68,1.09,1.04,2.1,1.72,1.01h0Z"/>
      <path class="cls-2" d="M111.42,79.7c.08,1.62,0,3.24-.24,4.84-1.05,6.88-4.66,11.51-11.29,12.86h0c-3.79,.77-7.53-.34-10.7-2.36-4.62-2.93-7.73-7.74-8.82-13.1l-.46-2.27s2.99-.05,3.1-3.17c.11-3.12-2.14-7.02-2.14-7.02"/>
      <path class="cls-33" d="M87.2,48.27c.9-1.31,2.41-2.12,3.97-2.34,1.86-.27,3.74,.34,5.3,1.32,1.09,.68,2.09-1.04,1.01-1.72-2-1.26-4.38-1.89-6.73-1.54-2.13,.32-4.05,1.51-5.27,3.28-.31,.44-.08,1.11,.36,1.37,.5,.29,1.06,.09,1.37-.36h0Z"/>
      <path class="cls-36" d="M87.76,47.6c.13-.13,.27-.26,.41-.38,.04-.03,.07-.06,.11-.09,.18-.15-.12,.09-.01,0,.08-.05,.15-.11,.23-.16,.32-.22,.65-.41,1-.57,.04-.02,.08-.04,.13-.06,.12-.06,0,.01-.05,.02,.08,0,.18-.07,.26-.1,.18-.06,.35-.12,.53-.17,.19-.05,.38-.1,.58-.13,.09-.02,.18-.03,.28-.05,.14-.02-.2,.02-.06,0,.06,0,.12-.01,.17-.02,.27-.03,.51-.09,.71-.29,.17-.17,.3-.46,.29-.71-.02-.5-.44-1.05-1-1-1.87,.19-3.64,.94-4.98,2.27-.37,.37-.4,1.05,0,1.41s1.02,.39,1.41,0h0Z"/>
      <path class="cls-2" d="M100.39,48.9s-2.12-4.51-7.88-4.73"/>
      <path class="cls-2" d="M91.43,44.16c-5.97,0-7.64,6.31-7.64,6.31,0,0-9.98,1.34-9.98,10.44"/>
      <path class="cls-33" d="M101.42,48.21c.63,.17,1.27,.35,1.88,.57,.08,.03,.16,.06,.24,.09,.04,.02,.08,.03,.12,.05-.14-.06-.16-.07-.06-.03,.13,.06,.27,.12,.4,.19,.3,.15,.59,.32,.86,.52,.2,.14,.54,.16,.77,.1s.48-.24,.6-.46c.27-.51,.1-1.04-.36-1.37-1.16-.82-2.55-1.22-3.91-1.59-.5-.14-1.11,.17-1.23,.7s.16,1.08,.7,1.23h0Z"/>
      <path class="cls-2" d="M102.97,46.58c-1.43-.48-3.1-.71-5.03-.58"/>
      <path class="cls-2" d="M110.93,55.23s-.96-5.51-6.47-8.03"/>
      <path class="cls-33" d="M102.13,53.11c-.58,.38-1.02,.98-1.19,1.66-.09,.35-.12,.72-.22,1.06-.17,.57-.54,1.07-1.04,1.39-.36,.23-.82,.36-1.23,.24-.31-.1-.56-.33-.79-.56-.42-.41-.88-.91-.81-1.49,.04-.29,.2-.54,.36-.78,.32-.49,.65-.99,.97-1.48,.47-.71,.97-1.46,1.75-1.82,.69-.31,1.49-.27,2.21-.03,.57,.19,1.18,.63,1.15,1.24-.03,.54-.56,.91-1.05,1.15-.44,.21-.89,.38-1.36,.51"/>
      <path class="cls-7" d="M74.64,132.07c0,.13,1.04,13.11,1.04,13.11"/>
      <path class="cls-7" d="M76.53,135.41c0,.13,1.04,13.11,1.04,13.11"/>
      <line class="cls-2" x1="73.77" y1="130.63" x2="75.78" y2="157.36"/>
      <g>
        <path class="cls-28" d="M88.61,68.89c1.55,.76,3.21,1.05,4.92,.77,1.41-.23,2.87-.86,3.83-1.95,.36-.4,.4-1.01,0-1.41-.36-.36-1.05-.41-1.41,0-.73,.82-1.72,1.22-2.84,1.42-1.05,.19-2.41-.02-3.49-.55-.48-.24-1.08-.13-1.37,.36-.26,.44-.13,1.13,.36,1.37h0Z"/>
        <path class="cls-28" d="M95.59,67.77c1.17,2.08,3.46,3.24,5.83,3.13,.52-.03,1.02-.44,1-1-.02-.52-.44-1.02-1-1-.25,.01-.49,.01-.74,0-.06,0-.12,0-.18-.02-.09,0-.19-.07,.01,0-.11-.04-.24-.04-.35-.06-.22-.05-.44-.11-.65-.18-.06-.02-.11-.04-.17-.06-.03-.01-.21-.1-.08-.03s-.06-.03-.07-.04c-.05-.03-.1-.05-.16-.08-.2-.1-.39-.22-.57-.34,0,0-.2-.13-.07-.05s-.04-.03-.06-.05c-.09-.08-.18-.15-.26-.24s-.17-.17-.25-.26c-.03-.04-.06-.07-.09-.11-.02-.03-.05-.05-.07-.08-.05-.06-.03-.04,.04,.06,0-.05-.16-.22-.19-.27-.07-.11-.14-.23-.21-.35-.26-.45-.92-.65-1.37-.36s-.63,.88-.36,1.37h0Z"/>
      </g>
      <path class="cls-2" d="M93.24,67.88s3.31-.15,3.98-3.81"/>
      <path class="cls-2" d="M96.74,65.53s.81,3.59,5.38,3.44"/>
      <path class="cls-2" d="M86.75,62.48s-.11,5.4,5.12,5.4"/>
      <line class="cls-15" x1="179.83" y1="157.42" x2="192.73" y2="157.46"/>
      <line class="cls-15" x1="144.64" y1="157.42" x2="152.62" y2="157.36"/>
      <rect class="cls-19" x="139.25" y="151.01" width="57.13" height="42.54" rx="2.74" ry="2.74"/>
      <line class="cls-19" x1="139.25" y1="156.33" x2="196.38" y2="156.33"/>
      <path class="cls-16" d="M79.29,155.41l-5.4,5.4,.06,6.38,3.45,3.31-4.62,4.01,1.2,6.71s8.18,3.67,18.71,4.76"/>
      <ellipse class="cls-48" cx="82.2" cy="297.47" rx="2.51" ry="1.25" transform="translate(-52.3 19.7) rotate(-10.39)"/>
      <circle class="cls-48" cx="84.62" cy="295.59" r=".42"/>
      <circle class="cls-48" cx="87.14" cy="296.78" r=".65"/>
      <circle class="cls-48" cx="77.18" cy="297.76" r="1.71"/>
      <path class="cls-22" d="M124.36,290.56s3.03,.81,5.82-1.03"/>
      <path class="cls-2" d="M129.34,281.3c1.77,.86,2.94,2.31,2.94,3.96,0,2.63-2.96,4.77-6.62,4.77s-6.62-2.14-6.62-4.77c0-1.43,.87-2.71,2.26-3.59"/>
      <g>
        <path class="cls-2" d="M144.16,305.13c3.07-.37,6.07-1.21,8.9-2.49h0c.89-1.94,.45-4.24-1.11-5.69-3.4-3.16-10.13-8.41-19.67-11.1"/>
        <path class="cls-2" d="M119.61,287.61l.24,9.48c-.14,1.07,.23,2.13,.99,2.89h0c.38,.38,.83,.66,1.33,.84,5.88,2.02,9.6,3.4,15.79,4.12"/>
      </g>
      <line class="cls-19" x1="140.03" y1="305.18" x2="142.04" y2="305.29"/>
      <g>
        <rect class="cls-49" x="95.21" y="72.91" width="3.06" height="4.9" rx="1.53" ry="1.53"/>
        <circle class="cls-32" cx="98.11" cy="75.07" r=".61"/>
      </g>
      <g>
        <rect class="cls-49" x="104.58" y="71.23" width="3.06" height="4.9" rx="1.53" ry="1.53"/>
        <circle class="cls-32" cx="107.47" cy="73.38" r=".61"/>
      </g>
      <path class="cls-49" d="M91.82,107.27c.54,.77,1.29,1.39,2.15,1.76,.12,.05,.27,.04,.34-.09,.06-.11,.04-.29-.09-.34-.79-.34-1.48-.88-1.98-1.58-.08-.11-.22-.16-.34-.09-.11,.06-.17,.23-.09,.34h0Z"/>
      <path class="cls-49" d="M103.19,108.97c.59-.39,1.15-.83,1.66-1.33,.1-.09,.09-.26,0-.35s-.26-.09-.35,0c-.49,.47-1,.88-1.56,1.25-.11,.07-.16,.22-.09,.34,.07,.11,.23,.16,.34,.09h0Z"/>
      <path class="cls-49" d="M97.37,110.23c.7,.2,1.45,.2,2.14,0,.31-.09,.18-.57-.13-.48-.62,.18-1.26,.18-1.88,0-.31-.09-.44,.39-.13,.48h0Z"/>
      <polyline class="cls-16" points="109.47 169.44 115.48 169.44 120.38 168.33"/>
      <polyline class="cls-19" points="109.41 168.72 115.53 168.72 120.95 167.44 123.55 169.83 124.37 173.41"/>
      <polyline class="cls-16" points="112.92 178.02 116.65 177.85 120.21 176.63 125.06 173.9"/>
      <path class="cls-2" d="M79.34,154.02l-6.46,6.46v6.96l3.23,2.95-4.2,3.67,1.19,7.8,1.34,.54c15.83,6.36,33.53,6.17,49.22-.54h0s3.45-6.46,3.45-6.46l-.59-3.08-6.31,3.64-3.45,1.22-4.12,.22"/>
      <line class="cls-18" x1="23.02" y1="76.65" x2="27.24" y2="82.58"/>
      <path class="cls-54" d="M10.3,79.96l19.43-13.08-9.72-14.53L.33,66.16s7.74,7.46,9.97,13.81Z"/>
      <line class="cls-13" x1="13.75" y1="56.86" x2="23.22" y2="71.28"/>
      <line class="cls-13" x1="16.2" y1="55.08" x2="25.67" y2="69.5"/>
      <path class="cls-19" d="M10.3,79.96l19.43-13.08-9.72-14.53L.33,66.16s7.74,7.46,9.97,13.81Z"/>
      <path class="cls-23" d="M102.95,79.59l.75,1.43c.67,1.28-.08,2.85-1.49,3.14h0"/>
      <path class="cls-43" d="M97.83,85.76c-.88,.25-1.35,1.85-1.3,2.76s.5,1.74,.93,2.55,.87,1.64,.91,2.55c.05,1.29-.73,2.49-.75,3.78-.04,2.11,1.94,3.73,3.94,4.41,2.11,.72,4.52,.74,6.5-.29s3.39-3.23,3.17-5.44c-.19-1.88-1.46-3.52-1.64-5.4-.1-1.02,.12-2.05,.18-3.07s-.09-2.14-.79-2.89c-.92-.98-2.44-1.02-3.78-.89-2,.21-3.97,.66-5.86,1.33"/>
      <path class="cls-40" d="M108.26,101.34c-1.98,1.03-4.39,1.01-6.5,.29-1.99-.67-3.97-2.3-3.93-4.41,0-.52,.14-1.02,.29-1.52,.54,1.53,2.13,2.67,3.73,3.21,2.11,.72,4.52,.74,6.5-.29,1.38-.72,2.48-2.01,2.95-3.47,.06,.24,.11,.49,.13,.74,.22,2.22-1.19,4.41-3.17,5.45Z"/>
      <path class="cls-19" d="M106.16,86.47c-1.45,1.36-3.06,1.73-4.86,1.54-.16-.02-.31-.04-.47-.06"/>
      <path class="cls-33" d="M106.13,84.7c1.15,.08,2.33,.57,2.49,1.85,.18,1.42-.5,2.81-.07,4.23,.19,.61,1.15,.35,.96-.27-.47-1.54,.48-3.15-.04-4.7-.48-1.44-1.94-2.01-3.34-2.1-.64-.04-.64,.96,0,1h0Z"/>
      <path class="cls-33" d="M108.91,92.21c.2,.55,.41,1.09,.65,1.62,.05,.11,.19,.2,.3,.23,.12,.03,.28,.02,.38-.05s.2-.17,.23-.3c.03-.14,0-.25-.05-.38-.04-.1-.08-.19-.13-.29l.05,.12c-.17-.4-.32-.8-.47-1.21-.04-.12-.11-.23-.23-.3-.11-.06-.26-.09-.38-.05-.24,.08-.44,.35-.35,.61h0Z"/>
      <path class="cls-32" d="M107.9,67.58l1.07,5.1c.08,.4,.55,.63,.92,.52,.41-.11,.61-.52,.52-.92l-1.07-5.1c-.08-.4-.55-.63-.92-.52-.41,.11-.61,.52-.52,.92h0Z"/>
      <path class="cls-2" d="M108.78,65.1l2.1,10.34c.15,.75,.28,1.5,.37,2.26"/>
      <path class="cls-28" d="M101.39,101.88c-.33-.06-.65-.15-.96-.26-.03-.01-.06-.02-.1-.04-.1-.04-.09-.03,.05,.02-.08-.01-.18-.08-.25-.12-.13-.07-.25-.14-.38-.21-.05-.03-.1-.07-.15-.1-.06-.04-.26-.23-.05-.03-.1-.1-.22-.18-.33-.28s-.2-.2-.3-.31c-.03-.03-.08-.13-.12-.14,.09,.12,.11,.14,.04,.05-.02-.03-.05-.07-.07-.1-.13-.2-.21-.44-.31-.66l-.31-.67c-.1-.21-.38-.4-.6-.46-.24-.07-.56-.04-.77,.1-.49,.32-.59,.86-.36,1.37l.32,.71c.12,.27,.23,.53,.4,.77,.91,1.22,2.19,2,3.68,2.29,.51,.1,1.1-.14,1.23-.7,.11-.49-.15-1.12-.7-1.23h0Z"/>
      <path class="cls-2" d="M97.89,85.7c-.88,.25-1.35,1.85-1.3,2.76s.5,1.74,.93,2.55,.87,1.64,.91,2.55c.05,1.29-.73,2.49-.75,3.78-.04,2.11,1.94,3.73,3.94,4.41,2.11,.72,4.52,.74,6.5-.29,1.97-1.03,3.39-3.23,3.17-5.44-.19-1.88-1.46-3.52-1.64-5.4-.1-1.02,.12-2.05,.18-3.07s-.09-2.14-.79-2.89c-.92-.98-2.44-1.02-3.78-.89-2,.21-3.97,.66-5.86,1.33"/>
      <g>
        <rect class="cls-37" x="170.16" y="168.59" width="15.37" height="13.36" rx=".59" ry=".59"/>
        <path class="cls-29" d="M170.16,179.23h15.37v1.86c0,.48-.39,.86-.86,.86h-13.64c-.48,0-.86-.39-.86-.86v-1.86h0Z"/>
        <line class="cls-20" x1="172.06" y1="169.15" x2="180.33" y2="169.15"/>
        <line class="cls-21" x1="175.11" y1="169.15" x2="177.24" y2="169.15"/>
        <line class="cls-19" x1="170.21" y1="176.23" x2="170.21" y2="172.87"/>
        <path class="cls-19" d="M170.21,171.24v-2.04c0-.33,.27-.59,.59-.59h14.18c.33,0,.59,.27,.59,.59v12.17c0,.33-.27,.59-.59,.59h-14.18c-.33,0-.59-.27-.59-.59v-3.37"/>
      </g>
      <g>
        <rect class="cls-37" x="50.44" y="94.45" width="15.37" height="13.36" rx=".59" ry=".59" transform="translate(-39.14 36.75) rotate(-26.61)"/>
        <path class="cls-29" d="M52.83,104.53h15.37v1.86c0,.48-.39,.86-.86,.86h-13.64c-.48,0-.86-.39-.86-.86v-1.86h0Z" transform="translate(-41.02 38.32) rotate(-26.61)"/>
        <line class="cls-20" x1="50.22" y1="98.25" x2="57.61" y2="94.54"/>
        <line class="cls-21" x1="52.95" y1="96.88" x2="54.85" y2="95.93"/>
        <line class="cls-19" x1="51.74" y1="105.41" x2="50.23" y2="102.41"/>
        <path class="cls-19" d="M49.5,100.94l-.91-1.82c-.15-.29-.03-.65,.27-.8l12.68-6.35c.29-.15,.65-.03,.8,.27l5.45,10.89c.15,.29,.03,.65-.27,.8l-12.68,6.35c-.29,.15-.65,.03-.8-.27l-1.51-3.01"/>
      </g>
      <g>
        <g>
          <rect class="cls-50" x="9.8" y="146.55" width="26.38" height="17.35" rx="1.61" ry="1.61"/>
          <path class="cls-30" d="M21.41,146.84l-6.73,17.1,5.61,.04,5.62-17.12h-1.78s-2.55-.09-2.71-.02Z"/>
          <path class="cls-30" d="M27.43,146.84l-5.78,17.1h1.53l5.76-17.12h-.49s-.85-.04-1.01,.03Z"/>
          <path class="cls-44" d="M33.45,146.84l-5.78,17.1h1.53l5.76-17.12h-.49s-.85-.04-1.01,.03Z"/>
          <rect class="cls-32" x="12.97" y="148.97" width="7.18" height="4.43"/>
          <g>
            <line class="cls-19" x1="12.96" y1="155.85" x2="27.36" y2="155.85"/>
            <line class="cls-19" x1="12.96" y1="157.85" x2="21.9" y2="157.85"/>
            <line class="cls-19" x1="12.96" y1="159.86" x2="21.9" y2="159.86"/>
          </g>
          <rect class="cls-19" x="9.8" y="146.55" width="26.38" height="17.35" rx="1.61" ry="1.61"/>
          <rect class="cls-19" x="12.97" y="148.97" width="7.18" height="4.43"/>
        </g>
        <g>
          <rect class="cls-37" x="26.39" y="159.06" width="15.37" height="13.36" rx=".59" ry=".59" transform="translate(31.5 -3.45) rotate(10.75)"/>
          <path class="cls-29" d="M25.4,169.61h15.37v1.86c0,.48-.39,.86-.86,.86h-13.64c-.48,0-.86-.39-.86-.86v-1.86h0Z" transform="translate(32.46 -3.17) rotate(10.75)"/>
          <line class="cls-20" x1="29.54" y1="158.65" x2="37.67" y2="160.19"/>
          <line class="cls-21" x1="32.54" y1="159.22" x2="34.63" y2="159.61"/>
          <line class="cls-19" x1="26.41" y1="165.26" x2="27.03" y2="161.96"/>
          <path class="cls-19" d="M27.34,160.36l.38-2c.06-.32,.37-.53,.69-.47l13.93,2.64c.32,.06,.53,.37,.47,.69l-2.27,11.96c-.06,.32-.37,.53-.69,.47l-13.93-2.64c-.32-.06-.53-.37-.47-.69l.63-3.31"/>
        </g>
      </g>
      <g>
        <rect class="cls-37" x="219.93" y="24.78" width="15.37" height="13.36" rx=".59" ry=".59" transform="translate(.44 65.95) rotate(-16.5)"/>
        <path class="cls-29" d="M221.44,35.2h15.37v1.86c0,.48-.39,.86-.86,.86h-13.64c-.48,0-.86-.39-.86-.86v-1.86h0Z" transform="translate(-.95 66.59) rotate(-16.5)"/>
        <line class="cls-20" x1="220.34" y1="27.23" x2="228.27" y2="24.88"/>
        <line class="cls-21" x1="223.26" y1="26.36" x2="225.3" y2="25.76"/>
        <line class="cls-19" x1="220.57" y1="34.54" x2="219.62" y2="31.33"/>
        <path class="cls-19" d="M219.16,29.76l-.58-1.95c-.09-.31,.09-.65,.4-.74l13.6-4.03c.31-.09,.65,.09,.74,.4l3.46,11.67c.09,.31-.09,.65-.4,.74l-13.6,4.03c-.31,.09-.65-.09-.74-.4l-.96-3.23"/>
      </g>
      <g>
        <rect class="cls-37" x="201.45" y="26.78" width="15.37" height="13.36" rx=".59" ry=".59" transform="translate(-.89 60.78) rotate(-16.5)"/>
        <path class="cls-29" d="M202.96,37.21h15.37v1.86c0,.48-.39,.86-.86,.86h-13.64c-.48,0-.86-.39-.86-.86v-1.86h0Z" transform="translate(-2.28 61.42) rotate(-16.5)"/>
        <line class="cls-20" x1="201.85" y1="29.23" x2="209.78" y2="26.89"/>
        <line class="cls-21" x1="204.78" y1="28.37" x2="206.82" y2="27.76"/>
        <line class="cls-19" x1="202.09" y1="36.55" x2="201.14" y2="33.33"/>
        <path class="cls-19" d="M200.67,31.76l-.58-1.95c-.09-.31,.09-.65,.4-.74l13.6-4.03c.31-.09,.65,.09,.74,.4l3.46,11.67c.09,.31-.09,.65-.4,.74l-13.6,4.03c-.31,.09-.65-.09-.74-.4l-.96-3.23"/>
      </g>
      <rect class="cls-47" x="163.72" y="8.67" width="74.79" height="55.69" rx="4.68" ry="4.68" transform="translate(-2.09 58.6) rotate(-16.49)"/>
      <line class="cls-15" x1="165.72" y1="26.94" x2="180.65" y2="22.65"/>
      <line class="cls-15" x1="206.81" y1="14.8" x2="221.74" y2="10.51"/>
      <rect class="cls-19" x="163.72" y="8.67" width="74.79" height="55.69" rx="4.68" ry="4.68" transform="translate(-2.09 58.6) rotate(-16.49)"/>
      <path class="cls-19" d="M159.53,27.75c.07,.25,71.7-21.28,71.7-21.28"/>
      <g>
        <circle class="cls-49" cx="163.77" cy="22.64" r=".94"/>
        <circle class="cls-49" cx="166.73" cy="21.79" r=".94"/>
        <circle class="cls-49" cx="169.7" cy="20.76" r=".94"/>
      </g>
      <g>
        <line class="cls-11" x1="126.7" y1="78.1" x2="153.26" y2="70.15"/>
        <line class="cls-11" x1="131.51" y1="81.63" x2="158.07" y2="73.68"/>
        <line class="cls-11" x1="138.55" y1="84.49" x2="165.12" y2="76.54"/>
      </g>
      <path class="cls-2" d="M81.84,71.22s3.96,.39,6.52-4.51"/>
    </g>
  </g>
</svg>