<?xml version="1.0" encoding="UTF-8"?>
<svg id="Layer_2" data-name="Layer 2" xmlns="http://www.w3.org/2000/svg" viewBox="0 0 194.8 263.85">
  <defs>
    <style>
      .cls-1, .cls-2, .cls-3, .cls-4, .cls-5, .cls-6, .cls-7, .cls-8, .cls-9, .cls-10, .cls-11, .cls-12, .cls-13, .cls-14, .cls-15, .cls-16, .cls-17, .cls-18, .cls-19 {
        fill: none;
        stroke-linecap: round;
        stroke-linejoin: round;
      }

      .cls-1, .cls-7, .cls-13, .cls-18 {
        stroke: #fff;
      }

      .cls-2, .cls-14 {
        stroke: #faf9f8;
      }

      .cls-3, .cls-5, .cls-6, .cls-9, .cls-10, .cls-11, .cls-15, .cls-16, .cls-19 {
        stroke: #232144;
      }

      .cls-4 {
        stroke: #f57a59;
      }

      .cls-5 {
        stroke-width: .72px;
      }

      .cls-6 {
        stroke-width: .75px;
      }

      .cls-20 {
        fill: #f57a59;
      }

      .cls-21 {
        fill: #f9c582;
      }

      .cls-22 {
        fill: #0268c4;
      }

      .cls-23 {
        fill: #00abaf;
      }

      .cls-24, .cls-25, .cls-26 {
        fill: #fff;
      }

      .cls-27 {
        fill: #ffb999;
      }

      .cls-28, .cls-29 {
        fill: #faf9f8;
      }

      .cls-30 {
        fill: #fcefdc;
      }

      .cls-31 {
        fill: #8f46b7;
      }

      .cls-32 {
        fill: #8bd2fc;
      }

      .cls-33 {
        fill: #e0f3fc;
      }

      .cls-34 {
        fill: #14b8c4;
      }

      .cls-35 {
        fill: #232144;
      }

      .cls-36 {
        fill: #429dc1;
      }

      .cls-37 {
        fill: #1c3244;
      }

      .cls-38 {
        fill: #2e4c64;
      }

      .cls-39 {
        fill: #37f44d;
      }

      .cls-40 {
        fill: #398ae2;
      }

      .cls-41 {
        fill: #601c8c;
      }

      .cls-7, .cls-8 {
        stroke-width: .6px;
      }

      .cls-8 {
        stroke: #00abaf;
      }

      .cls-9 {
        stroke-width: .55px;
      }

      .cls-10 {
        stroke-width: .6px;
      }

      .cls-11 {
        stroke-width: .58px;
      }

      .cls-12 {
        stroke: #0268c4;
      }

      .cls-12, .cls-13, .cls-14 {
        stroke-width: 2px;
      }

      .cls-25 {
        opacity: .8;
      }

      .cls-25, .cls-26 {
        isolation: isolate;
      }

      .cls-26 {
        opacity: .6;
      }

      .cls-42 {
        fill: #00a1ad;
        opacity: .14;
      }

      .cls-15 {
        stroke-width: .25px;
      }

      .cls-16, .cls-17 {
        stroke-width: .5px;
      }

      .cls-17 {
        stroke: #f9c582;
      }

      .cls-29 {
        opacity: .52;
      }

      .cls-18 {
        stroke-width: 1.07px;
      }

      .cls-19 {
        stroke-width: .55px;
      }
    </style>
  </defs>
  <g id="Layer_1-2" data-name="Layer 1">
    <g>
      <g>
        <path class="cls-36" d="M116.58,21.69h69.16c1.33,0,2.42,1.08,2.42,2.42v59.75c0,.99-.8,1.8-1.8,1.8H94.56c-.99,0-1.8-.8-1.8-1.8v-9.86"/>
        <path class="cls-3" d="M116.58,21.69h69.16c1.33,0,2.42,1.08,2.42,2.42v59.75c0,.99-.8,1.8-1.8,1.8H94.56c-.99,0-1.8-.8-1.8-1.8v-9.86"/>
      </g>
      <ellipse class="cls-42" cx="56.81" cy="253.3" rx="56.81" ry="10.55"/>
      <path class="cls-27" d="M18.36,141.57l3.2,4.42,1.74,4.05,.38,4.14-2.07,3.44-.96,4.56,.07,1.18s-5.22-6.16-5.13-6.35,.8-4.33,.85-5.69"/>
      <path class="cls-27" d="M20.57,141.9l.85-3.58,10.49-27.76,3.48-19.48-6.02-2.78-5.74-4.09-1.46,22.4c-.01,.21-.09,.69-.14,.89l-6.54,28.85-1.18,5.13s-1.79,7.55-1.79,13.58,1.22,9.39,4.24,9.86,4.89-2.26,4.89-2.26l.35-2.54-1.44-18.21Z"/>
      <path class="cls-20" d="M22.7,155.76c.72-1.78,.86-3.76,.46-5.64-.08-.4-.55-.63-.92-.52-.41,.11-.61,.53-.52,.92,.34,1.61,.17,3.28-.46,4.84-.15,.38,.17,.82,.52,.92,.43,.12,.77-.15,.92-.52h0Z"/>
      <path class="cls-20" d="M12.73,160.64c.72,1.8,1.87,3.54,3.82,4.13,.94,.28,1.95,.23,2.84-.2s1.55-1.26,2.09-2.08-.76-1.56-1.3-.76c-.38,.58-.82,1.15-1.45,1.49-.59,.32-1.28,.27-1.9,.07-1.35-.45-2.17-1.8-2.67-3.05-.15-.38-.5-.64-.92-.52-.36,.1-.67,.54-.52,.92h0Z"/>
      <path class="cls-40" d="M33.33,120.07s-8.89,11.29-8.89,23.01,3.39,20.05,3.39,20.05c0,0,9.32,24.42,10.45,35.72,1.13,11.29,.71,33.04,.71,33.04,0,0,6.49,2.4,13.13,0v-13.13l5.36-37.55s2.59,16.05,2.59,26.96-2.26,22.21-2.26,22.21c7.15,5.27,13.42,1.32,13.42,1.32l.32-15.06,4.52-22.4s1.69-5.65,5.65-30.49-7.01-41.41-7.01-41.41c-31.48,6.64-41.36-2.26-41.36-2.26Z"/>
      <line class="cls-12" x1="51.16" y1="219.81" x2="51.16" y2="228.77"/>
      <line class="cls-12" x1="55.3" y1="190.65" x2="53.5" y2="203.68"/>
      <line class="cls-13" x1="21.65" y1="113.38" x2="22.6" y2="109.24"/>
      <path class="cls-33" d="M91.63,21.56h90.57c1.33,0,2.42,1.08,2.42,2.42v59.13c0,1.33-1.08,2.42-2.42,2.42H89.22V23.97c0-1.33,1.08-2.42,2.42-2.42Z"/>
      <path class="cls-32" d="M89.61,83.5l95.01,.17h0c0,.94-.76,1.69-1.7,1.69l-91.63-.16c-.93,0-1.69-.76-1.69-1.69h0Z"/>
      <path class="cls-3" d="M113.25,21.69h69.16c1.33,0,2.42,1.08,2.42,2.42v59.75c0,.99-.8,1.8-1.8,1.8H91.22c-.99,0-1.8-.8-1.8-1.8v-9.86"/>
      <path class="cls-3" d="M89.42,59.55V24.11c0-1.33,1.08-2.42,2.42-2.42h7.39"/>
      <rect class="cls-32" x="94.4" y="26.52" width="86.1" height="1.66"/>
      <line class="cls-3" x1="102.46" y1="21.64" x2="109.83" y2="21.64"/>
      <g>
        <line class="cls-16" x1="110.89" y1="23.71" x2="113.59" y2="23.71"/>
        <line class="cls-16" x1="104.21" y1="23.71" x2="109.45" y2="23.71"/>
      </g>
      <g>
        <polygon class="cls-26" points="144.83 81.12 142.72 81.12 156.19 25.99 158.3 25.99 144.83 81.12"/>
        <polygon class="cls-25" points="154.18 81.12 147.58 81.12 161.04 25.99 167.64 25.99 154.18 81.12"/>
      </g>
      <polygon class="cls-26" points="141.55 81.12 139.44 81.12 152.9 25.99 155.02 25.99 141.55 81.12"/>
      <polyline class="cls-3" points="94.35 40.98 94.35 26.07 180.45 26.07 180.45 81.28 94.35 81.28 94.35 56.53"/>
      <circle class="cls-24" cx="98.78" cy="33.49" r="1.74"/>
      <circle class="cls-24" cx="101.76" cy="36.47" r="1.17"/>
      <circle class="cls-24" cx="98.64" cy="36.55" r=".71"/>
      <g>
        <path class="cls-34" d="M139.7,26.6c-14.47,0-26.2,11.73-26.2,26.2s11.73,26.2,26.2,26.2,26.2-11.73,26.2-26.2h0c-.03-14.46-11.74-26.18-26.2-26.2Zm0,2.38c6.09,0,11.94,2.35,16.34,6.55-.8-.41-1.68-.63-2.57-.64-1.55,0-4.12,.67-4.12,5.12,.32,1.88,1.1,3.66,2.26,5.17,1.57,2.55,3.36,5.43,2.91,7.69-1.02,3.03-2.45,7.19-3.84,11.12l-6.67-20.72h.45c.65,0,1.18-.52,1.19-1.17,0,0,0-.02,0-.02,0-.66-.53-1.19-1.19-1.19h-10.72c-.65,.01-1.18,.54-1.19,1.19,0,.66,.53,1.19,1.19,1.19h.88l3.79,10.77c-.98,2.88-2.22,6.48-3.43,9.96l-6.69-20.72h.69c.65,0,1.18-.52,1.19-1.17,0,0,0-.02,0-.02,0-.66-.53-1.19-1.19-1.19h-9.89c4.26-7.35,12.11-11.89,20.61-11.91Zm-23.82,23.82c0-3.28,.68-6.53,2-9.53h1.05l10.98,31.23c-8.53-3.85-14.02-12.34-14.03-21.7Zm23.82,23.82c-2.15,0-4.29-.3-6.36-.88,1.05-2.93,4.07-11.43,6.36-18.06l6.36,18.06c-2.07,.59-4.21,.88-6.36,.88Zm9.79-2.12c1.6-4.43,5.1-14.32,7.12-20.37,.05-.08,.08-.17,.1-.26,.04-.12,.07-.24,.1-.36,.31-.88,.55-1.67,.76-2.31,1.26-4,2.45-9.2,1.48-12.24,7.66,10.64,5.25,25.47-5.38,33.14-1.3,.94-2.7,1.74-4.17,2.4h0Z"/>
        <path class="cls-23" d="M166.01,51.97v.6c0,14.47-11.73,26.2-26.2,26.2s-26.2-11.73-26.2-26.2v-.6c.35,14.47,12.36,25.92,26.83,25.58,13.99-.33,25.24-11.59,25.58-25.58Z"/>
        <path class="cls-24" d="M113.61,53.44v-.6c0-14.47,11.73-26.2,26.2-26.2s26.2,11.73,26.2,26.2v.6c-.35-14.47-12.36-25.92-26.83-25.58-13.99,.33-25.24,11.59-25.58,25.58Z"/>
        <line class="cls-7" x1="123.78" y1="52.91" x2="126.92" y2="61.97"/>
        <line class="cls-7" x1="121.12" y1="45.24" x2="123.22" y2="51.3"/>
        <line class="cls-8" x1="152.29" y1="65.22" x2="149.2" y2="73.79"/>
        <line class="cls-8" x1="136.59" y1="65" x2="133.51" y2="73.56"/>
        <line class="cls-8" x1="147.06" y1="54.62" x2="144.34" y2="45.94"/>
        <line class="cls-18" x1="120.34" y1="41.32" x2="127.51" y2="41.32"/>
        <line class="cls-18" x1="135.19" y1="41.32" x2="142.37" y2="41.32"/>
        <line class="cls-18" x1="135.58" y1="45.03" x2="138.15" y2="52.35"/>
        <path class="cls-19" d="M139.7,26.6c-14.47,0-26.2,11.73-26.2,26.2s11.73,26.2,26.2,26.2,26.2-11.73,26.2-26.2h0c-.03-14.46-11.74-26.18-26.2-26.2Zm0,2.38c6.09,0,11.94,2.35,16.34,6.55-.8-.41-1.68-.63-2.57-.64-1.55,0-4.12,.67-4.12,5.12,.32,1.88,1.1,3.66,2.26,5.17,1.57,2.55,3.36,5.43,2.91,7.69-1.02,3.03-2.45,7.19-3.84,11.12l-6.67-20.72h.45c.65,0,1.18-.52,1.19-1.17,0,0,0-.02,0-.02,0-.66-.53-1.19-1.19-1.19h-10.72c-.65,.01-1.18,.54-1.19,1.19,0,.66,.53,1.19,1.19,1.19h.88l3.79,10.77c-.98,2.88-2.22,6.48-3.43,9.96l-6.69-20.72h.69c.65,0,1.18-.52,1.19-1.17,0,0,0-.02,0-.02,0-.66-.53-1.19-1.19-1.19h-9.89c4.26-7.35,12.11-11.89,20.61-11.91Zm-15.64,28.88l5.85,16.65c-11.9-5.35-17.27-19.28-12.03-31.23h1.05l2.04,5.79m.53,1.52l1.96,5.58m19.54,10.88l3.06,8.7c-4.16,1.18-8.56,1.18-12.72,0,1.05-2.93,4.07-11.43,6.36-18.06l2.37,6.72m20.42-4.67c-2.02,6.56-6.75,11.94-13,14.77,1.6-4.43,5.1-14.32,7.12-20.37,.05-.08,.08-.17,.1-.26,.04-.12,.07-.24,.1-.36,.31-.88,.55-1.67,.76-2.31,1.26-4,2.45-9.2,1.48-12.24,3.81,5.28,5.28,11.89,4.06,18.29"/>
        <circle class="cls-24" cx="137.22" cy="47.34" r=".5"/>
        <circle class="cls-24" cx="137.84" cy="48.25" r=".1"/>
        <circle class="cls-24" cx="136.78" cy="44.81" r=".24"/>
        <circle class="cls-24" cx="137.38" cy="45.8" r=".11"/>
        <circle class="cls-24" cx="138.39" cy="46.45" r=".25"/>
        <circle class="cls-24" cx="138.06" cy="50.02" r=".43"/>
        <circle class="cls-24" cx="138.47" cy="48.72" r=".22"/>
        <circle class="cls-24" cx="139.56" cy="51.38" r=".22"/>
        <circle class="cls-24" cx="138.74" cy="52.26" r=".24"/>
        <circle class="cls-24" cx="135.64" cy="43.48" r=".17"/>
        <circle class="cls-24" cx="137.22" cy="42.03" r=".46"/>
        <circle class="cls-24" cx="139.35" cy="43.04" r=".18"/>
        <circle class="cls-24" cx="140.46" cy="42.19" r=".36"/>
        <circle class="cls-23" cx="150.83" cy="67.77" r=".56"/>
        <circle class="cls-23" cx="148.93" cy="70.65" r=".4"/>
        <circle class="cls-23" cx="149.48" cy="69.18" r=".15"/>
        <circle class="cls-23" cx="149.39" cy="65.44" r=".36"/>
        <circle class="cls-23" cx="148.55" cy="73.43" r=".06"/>
        <circle class="cls-23" cx="148.59" cy="72.5" r=".15"/>
        <path class="cls-39" d="M137.46,26.6c-14.47,0-26.2,11.73-26.2,26.2s11.73,26.2,26.2,26.2,26.2-11.73,26.2-26.2h0c-.03-14.46-11.74-26.18-26.2-26.2Zm0,2.38c6.09,0,11.94,2.35,16.34,6.55-.8-.41-1.68-.63-2.57-.64-1.55,0-4.12,.67-4.12,5.12,.32,1.88,1.1,3.66,2.26,5.17,1.57,2.55,3.36,5.43,2.91,7.69-1.02,3.03-2.45,7.19-3.84,11.12l-6.67-20.72h.45c.65,0,1.18-.52,1.19-1.17,0,0,0-.02,0-.02,0-.66-.53-1.19-1.19-1.19h-10.72c-.65,.01-1.18,.54-1.19,1.19,0,.66,.53,1.19,1.19,1.19h.88l3.79,10.77c-.98,2.88-2.22,6.48-3.43,9.96l-6.69-20.72h.69c.65,0,1.18-.52,1.19-1.17,0,0,0-.02,0-.02,0-.66-.53-1.19-1.19-1.19h-9.89c4.26-7.35,12.11-11.89,20.61-11.91Zm-23.82,23.82c0-3.28,.68-6.53,2-9.53h1.05l10.98,31.23c-8.53-3.85-14.02-12.34-14.03-21.7Zm23.82,23.82c-2.15,0-4.29-.3-6.36-.88,1.05-2.93,4.07-11.43,6.36-18.06l6.36,18.06c-2.07,.59-4.21,.88-6.36,.88Zm9.79-2.12c1.6-4.43,5.1-14.32,7.12-20.37,.05-.08,.08-.17,.1-.26,.04-.12,.07-.24,.1-.36,.31-.88,.55-1.67,.76-2.31,1.26-4,2.45-9.2,1.48-12.24,7.66,10.64,5.25,25.47-5.38,33.14-1.3,.94-2.7,1.74-4.17,2.4h0Z"/>
        <path class="cls-23" d="M163.77,51.97v.6c0,14.47-11.73,26.2-26.2,26.2s-26.2-11.73-26.2-26.2v-.6c.35,14.47,12.36,25.92,26.83,25.58,13.99-.33,25.24-11.59,25.58-25.58Z"/>
        <path class="cls-24" d="M111.37,53.44v-.6c0-14.47,11.73-26.2,26.2-26.2s26.2,11.73,26.2,26.2v.6c-.35-14.47-12.36-25.92-26.83-25.58-13.99,.33-25.24,11.59-25.58,25.58Z"/>
        <line class="cls-7" x1="121.54" y1="52.91" x2="124.68" y2="61.97"/>
        <line class="cls-7" x1="118.88" y1="45.24" x2="120.98" y2="51.3"/>
        <line class="cls-8" x1="150.04" y1="65.22" x2="146.96" y2="73.79"/>
        <line class="cls-8" x1="134.35" y1="65" x2="131.27" y2="73.56"/>
        <line class="cls-8" x1="144.82" y1="54.62" x2="142.09" y2="45.94"/>
        <line class="cls-18" x1="118.1" y1="41.32" x2="125.27" y2="41.32"/>
        <line class="cls-18" x1="132.95" y1="41.32" x2="140.12" y2="41.32"/>
        <line class="cls-18" x1="133.34" y1="45.03" x2="135.91" y2="52.35"/>
        <path class="cls-19" d="M137.46,26.6c-14.47,0-26.2,11.73-26.2,26.2s11.73,26.2,26.2,26.2,26.2-11.73,26.2-26.2h0c-.03-14.46-11.74-26.18-26.2-26.2Zm0,2.38c6.09,0,11.94,2.35,16.34,6.55-.8-.41-1.68-.63-2.57-.64-1.55,0-4.12,.67-4.12,5.12,.32,1.88,1.1,3.66,2.26,5.17,1.57,2.55,3.36,5.43,2.91,7.69-1.02,3.03-2.45,7.19-3.84,11.12l-6.67-20.72h.45c.65,0,1.18-.52,1.19-1.17,0,0,0-.02,0-.02,0-.66-.53-1.19-1.19-1.19h-10.72c-.65,.01-1.18,.54-1.19,1.19,0,.66,.53,1.19,1.19,1.19h.88l3.79,10.77c-.98,2.88-2.22,6.48-3.43,9.96l-6.69-20.72h.69c.65,0,1.18-.52,1.19-1.17,0,0,0-.02,0-.02,0-.66-.53-1.19-1.19-1.19h-9.89c4.26-7.35,12.11-11.89,20.61-11.91Zm-15.64,28.88l5.85,16.65c-11.9-5.35-17.27-19.28-12.03-31.23h1.05l2.04,5.79m.53,1.52l1.96,5.58m19.54,10.88l3.06,8.7c-4.16,1.18-8.56,1.18-12.72,0,1.05-2.93,4.07-11.43,6.36-18.06l2.37,6.72m20.42-4.67c-2.02,6.56-6.75,11.94-13,14.77,1.6-4.43,5.1-14.32,7.12-20.37,.05-.08,.08-.17,.1-.26,.04-.12,.07-.24,.1-.36,.31-.88,.55-1.67,.76-2.31,1.26-4,2.45-9.2,1.48-12.24,3.81,5.28,5.28,11.89,4.06,18.29"/>
        <circle class="cls-24" cx="134.98" cy="47.34" r=".5"/>
        <circle class="cls-24" cx="135.6" cy="48.25" r=".1"/>
        <circle class="cls-24" cx="134.53" cy="44.81" r=".24"/>
        <circle class="cls-24" cx="135.14" cy="45.8" r=".11"/>
        <circle class="cls-24" cx="136.14" cy="46.45" r=".25"/>
        <circle class="cls-24" cx="135.82" cy="50.02" r=".43"/>
        <circle class="cls-24" cx="136.23" cy="48.72" r=".22"/>
        <circle class="cls-24" cx="137.32" cy="51.38" r=".22"/>
        <circle class="cls-24" cx="136.49" cy="52.26" r=".24"/>
        <circle class="cls-24" cx="133.4" cy="43.48" r=".17"/>
        <circle class="cls-24" cx="134.98" cy="42.03" r=".46"/>
        <circle class="cls-24" cx="137.11" cy="43.04" r=".18"/>
        <circle class="cls-24" cx="138.22" cy="42.19" r=".36"/>
        <circle class="cls-23" cx="148.59" cy="67.77" r=".56"/>
        <circle class="cls-23" cx="146.69" cy="70.65" r=".4"/>
        <circle class="cls-23" cx="147.24" cy="69.18" r=".15"/>
        <circle class="cls-23" cx="147.15" cy="65.44" r=".36"/>
        <circle class="cls-23" cx="146.31" cy="73.43" r=".06"/>
        <circle class="cls-23" cx="146.35" cy="72.5" r=".15"/>
      </g>
      <path class="cls-38" d="M57.13,243.64l-.31-3.87c-.18-2.22,1.47-4.16,3.69-4.34l.56-.05,.09,1.04s4.35-3.1,10.35-.68l.32,3.94s6.84,4.9,9.51,9.08l.57,.95s5.87,8.07-.61,8.59c-6.47,.52-13.58-2.12-13.58-2.12l-10.6-12.55Z"/>
      <path class="cls-37" d="M81.28,257.99c-6.48,.53-13.58-2.11-13.58-2.11l-2.48-2.94c3.51,1.69,7.5,2.38,11.37,1.92,1.36-.16,2.73-.46,3.88-1.19,1.05-.66,1.83-1.58,2.43-2.65,1.33,2.39,2.99,6.6-1.62,6.97Z"/>
      <path class="cls-27" d="M63.21,232.87l-2.31-.89-.46,.38,1.06,4.34s2.79-1.69,5.54-1.52l.16-2.16-4-.14Z"/>
      <path class="cls-20" d="M60.93,233.35c.86,.38,1.81,.51,2.73,.65s1.88,.22,2.82,.09c.81-.11,.69-1.59-.13-1.48s-1.66,.03-2.48-.1-1.65-.22-2.41-.55-1.29,1.05-.54,1.38h0Z"/>
      <path class="cls-27" d="M44.29,232.87c.28,.09-1.76-.14-1.76-.14l-1.41,.32,1.2,5.79s2.44-3.04,5.44-2.01l1.24,.56,.15-4.61-4.85,.09Z"/>
      <path class="cls-20" d="M41.51,233.95c1.06,.32,2.21,.37,3.31,.45s2.25,.08,3.35-.12c.95-.17,.63-1.64-.32-1.47s-1.97,.16-2.95,.09-1.98-.09-2.91-.37-1.41,1.14-.48,1.42h0Z"/>
      <path class="cls-27" d="M111.99,61.24s6.05-7.23,9.4-6.75c0,0,2.8,.46,2.53,3.1h0c-.25,2.35-1.4,4.51-3.22,6.03h0c-1.81,1.51-3.5,3.15-5.07,4.9l-1.56,3.27-2.08-10.55Z"/>
      <path class="cls-27" d="M78.13,95.69s12.99,11.95,19.48,12.05l1.04-.56,14.96-34.16-4.89-2.35-14.59,22.02,1.69,3.11-11.29-19.62-5.51,5.46-6.02,3.58-.85,4.09,5.98,6.4Z"/>
      <line class="cls-2" x1="105.28" y1="77.08" x2="107.89" y2="73.05"/>
      <line class="cls-2" x1="96.67" y1="90.28" x2="101.98" y2="81.95"/>
      <path class="cls-41" d="M84.07,76.48l3.92-.74,.64,.6s-2.01,3.72-2.06,3.58c-.44-.99-2.49-3.44-2.49-3.44Z"/>
      <path class="cls-20" d="M88.37,76.02l.45,.52-1.41-1.84-2.92,1.6,1.88-1.55s-3.86-.09-4.33,.09-4.61,4.24-4.61,4.24c0,0-4.24,11.11-4.24,11.39s5.46,5.65,5.46,5.65c0,0,6.87-4.99,5.84-9.79s1.51-6.68,1.51-6.68l-1.33-2.35"/>
      <path class="cls-22" d="M56.54,149.61c.91,8.45,1.21,17.06-.03,25.5-.14,.94,1.31,1.35,1.45,.4,1.26-8.58,1.01-17.3,.08-25.9-.1-.95-1.6-.96-1.5,0h0Z"/>
      <line class="cls-1" x1="70.48" y1="219.81" x2="70.49" y2="230.04"/>
      <path class="cls-24" d="M75.18,190.45c-1.77,7.43-3.37,14.9-4.5,22.45-.14,.94,1.3,1.35,1.45,.4,1.13-7.55,2.73-15.02,4.5-22.45,.22-.94-1.22-1.34-1.45-.4h0Z"/>
      <path class="cls-24" d="M81.27,146.39c.33,9.85-.6,19.68-2.79,29.29-.21,.94,1.23,1.34,1.45,.4,2.21-9.73,3.17-19.71,2.84-29.69-.03-.96-1.53-.97-1.5,0h0Z"/>
      <path class="cls-22" d="M48.88,232.71c-5.33,.82-9.81-.84-9.81-.84,0,0,.42-21.74-.71-33.03-1.13-11.3-10.44-35.72-10.44-35.72,0,0-3.39-8.33-3.39-20.05s8.89-23.01,8.89-23.01c0,0,1.32,1.19,4.54,2.38-2.58,3.93-7.22,12.17-7.22,20.63,0,11.72,3.39,20.05,3.39,20.05,0,0,9.32,24.42,10.45,35.72,1.12,11.29-.24,33.88-.24,33.88,0,0,2.36-.33,4.54,0Z"/>
      <path class="cls-31" d="M80.95,80.68s3.44-4,7.91-4.8c-4.8-10.31-18.82-16.09-18.82-16.09l4.66,10.82,6.26,10.07Z"/>
      <path class="cls-41" d="M70.42,61.48c1.56,3.21,3,6.49,4.72,9.62,1.62,2.95,3.51,5.75,5.27,8.61,.5,.82,1.8,.07,1.3-.76-1.76-2.87-3.65-5.66-5.27-8.61-1.72-3.13-3.16-6.41-4.72-9.62-.42-.87-1.72-.11-1.3,.76h0Z"/>
      <line class="cls-1" x1="23.91" y1="92.3" x2="23.07" y2="103.59"/>
      <line class="cls-1" x1="19.16" y1="122.18" x2="16.9" y2="132.39"/>
      <path class="cls-20" d="M24.57,80.07l-1.32,6.02s5.36,6.78,11.86,6.31l1.41-4.24-11.95-8.09Z"/>
      <path class="cls-31" d="M73.73,93.84l-2.43-.73c.84,.38,1.65,.62,2.43,.73l5.99-1.79-2.35,2.89c-8.33,6.64-.35,27.25-.35,27.25-31.48,6.63-43.7-2.12-43.7-2.12,8.19-9.88,3.68-28.66,3.68-28.66l1.39,.06c.56,.06,1.13,.09,1.71,.08l-1.71-.08c-10.28-.92-17.3-10.74-17.3-10.74,0,0,8.28-25.13,29.08-30.31l11.39,1.79,.49-.12c1.46-.81,.17,.22,.17,.22l-.66-.1,.49-.4s6.78,3.95,9.39,10.87c2.61,6.92,4.66,9.81,6.21,12.57,1.56,2.75,5.09,7.06,5.09,11.15,0,3.57-3.7,8.27-9.01,7.44Z"/>
      <path class="cls-41" d="M74.12,122.72c-25.92,5.35-38.25-.49-41.61-2.55-.54-.33-.65-1.06-.27-1.56,2.31-3.04,3.94-6.61,4.45-10.4,.57,.37,1.1-13.48,1.36-12.71,5.08,15.53,21.72,25.68,36.07,27.22Z"/>
      <path class="cls-41" d="M37.65,94.14c.9,7.21,1.83,14.93-1.44,21.71-.42,.87,.88,1.63,1.3,.76,3.4-7.06,2.58-14.94,1.64-22.47-.12-.95-1.62-.96-1.5,0h0Z"/>
      <path class="cls-30" d="M71.16,15.71c-.71-10.99-11.76-14.52-11.76-14.52l-1.22-.19c-12.8-2.26-18.59,4.85-18.59,4.85l-.99,.99s-6.02,5.46-6.4,15.06-1.98,24.38-5.65,31.25c-3.67,6.87-5.74,14.59-3.2,22.02l4.21-7.13,5.15-6.64,7.27-6.28,7.76-4.16,4.09-1.34,9.25,.07,1.34,1.04,4.09,4.68,3.11,4.02,7.48,3.88-.21-5.86,1.48-4.45,1.69-4.59-.07-4.87-2.26-7.13-3.88-5.15-3.11-3.18-1.06-7.34-2.47-5.86,3.93,.82Z"/>
      <path class="cls-28" d="M75.11,57.21c-.4-1.84,.45-3.62,1.28-5.21,.77-1.47,1.54-2.94,1.7-4.62,.04-.48-.71-.48-.75,0-.33,3.55-3.77,6.26-2.95,10.02,.1,.47,.83,.27,.72-.2h0Z"/>
      <path class="cls-21" d="M44.05,35.29c.57,2.5,2.12,4.64,4.01,6.33,.95,.85,2.25,1.43,2.5,2.78,.29,1.57,.36,3.2,.47,4.79,.06,.96,1.56,.97,1.5,0-.1-1.58-.24-3.16-.45-4.73-.09-.68-.24-1.35-.66-1.91-.38-.52-.94-.87-1.44-1.26-2.09-1.64-3.88-3.75-4.48-6.4-.21-.94-1.66-.54-1.45,.4h0Z"/>
      <path class="cls-21" d="M61.91,49.48c-.07-1.32-.76-4.57,.65-5.34,.79-.44,1.72-.59,2.56-.92,1-.39,1.92-.93,2.78-1.57,3.73-2.82,5.41-7.48,4.57-12.05-.17-.95-1.62-.55-1.45,.4,.88,4.82-1.66,9.8-6.2,11.74-1.36,.58-3.54,.73-4.18,2.31-.67,1.66-.31,3.71-.22,5.44,.05,.96,1.55,.97,1.5,0h0Z"/>
      <path class="cls-21" d="M67.9,19.09s2.15-1.48,3.04-3l-.91-.96-2.35-.52,.22,4.48Z"/>
      <path class="cls-28" d="M23.28,70.75c-.49-4.67,.26-9.4,2.22-13.68,.2-.44-.45-.82-.65-.38-2.02,4.39-2.83,9.25-2.32,14.06,.05,.48,.8,.48,.75,0h0Z"/>
      <path class="cls-28" d="M32.14,26.09c-.14,2.96-.44,5.91-.91,8.84-.07,.47,.65,.68,.72,.2,.47-3,.78-6.01,.93-9.04,.02-.48-.73-.48-.75,0h0Z"/>
      <path class="cls-2" d="M32.85,19.97s.99-7.62,5.69-12.52"/>
      <g>
        <path class="cls-38" d="M67.51,255.92c-1.74-6.48-11.29-13.21-14.91-15.57l-2.25-2.09c-.34-.47-.77-.91-1.34-1.25l-.28-.26-.08,.08c-.71-.33-1.58-.52-2.69-.43-2.57,.21-3.65,1.72-4.09,3.19l.05-.59-.05,.59s-5.99,4.16-6.08,11.6c-.01,.9,.42,1.75,1.15,2.27,3.27,2.31,13.52,8.63,29.22,5.2l1.88-1.27-.11-.04c.44-.11-.87-1.3-.43-1.44Z"/>
        <path class="cls-38" d="M67.55,255.91s-.03,0-.04,.01c.09,.34,.17,.68,.21,1.01l-.18-1.02Z"/>
      </g>
      <path class="cls-37" d="M67.91,257.39h0c.02,.79-.59,1.45-1.38,1.49h-.27c-15.7,3.44-26.18-3.11-29.45-5.42-.74-.52-1.17-1.37-1.16-2.27,0-1.11,.14-2.21,.36-3.28,.19,.47,.51,.87,.94,1.17,3.27,2.32,13.51,8.64,29.22,5.21l.46-.31c.32,.65,.57,1.3,.74,1.94-.19,.06-.05,.32,.14,.6h0c.24,.37,.54,.77,.29,.84l.11,.03Z"/>
      <path class="cls-38" d="M30.24,252.57c-.04-.2-.09-.4-.14-.6,.01,0,.03-.01,.04-.01l.1,.61Z"/>
      <polyline class="cls-27" points="110.61 68.25 107.93 65.99 107.47 59.32 108.45 57.35 110.15 56.89 110.85 57.35 111.11 58.58 111.24 61.51 114.14 61.76 113.61 69.17"/>
      <path class="cls-27" d="M108.62,64.25l-.56,.8,.75,7.01,4.14,1.36,2.21-3.55s-1.22-2-1.18-2.24"/>
      <path class="cls-41" d="M60.59,49.48c1.24,.39,2.01,.95,2.01,1.57,0,1.19-2.84,2.15-6.35,2.15s-6.35-.96-6.35-2.15c0-.66,.67-1.18,2.04-1.58"/>
      <path class="cls-6" d="M21.82,156.84s2.3-1.62,1.68-6c-.23-1.61-.87-3.12-1.74-4.49l-1.7-2.65"/>
      <path class="cls-27" d="M60.57,43.36s-.53,3.59-.53,9.52l-7.95-.07c0-6.87-.16-10.46-.16-10.46"/>
      <path class="cls-27" d="M68.48,17.5l.9,2.62c1.23,3.6,1.86,7.37,1.86,11.17h0c0,6.83-6.02,12.38-13.37,12.38-6.08,0-11.21-3.79-12.8-8.97l-2.25,.1-2.19-1.36-.85-2.31,.21-2.26,.09-.94,.76-.58,.78-.46,1.62-.28,.49-.07,.78-2.89,3.74-2.96,6.07-3.25,2.33-.35,.78-9.39,1.41,1.2,1.62,3.32,.85,1.76,.92,.85,3.88-.14,2.05,.14,1.13,3.11-.8-.42Z"/>
      <path class="cls-20" d="M60.57,43.36s.22,.89-.17,2.26c-1.05,.25-1.76,.3-2.89,.3-2.26,0-4-.56-5.87-1.48-.22-1.22,.28-2.09,.28-2.09l.83,.43c1.52,.56,3.17,.87,4.9,.87,1,0,1.98-.1,2.92-.3h0Z"/>
      <path class="cls-20" d="M68.98,38.52c-.42,.54-.89,1.04-1.39,1.51-2.42,2.24-5.76,3.63-9.44,3.63-6.09,0-11.22-3.79-12.81-8.97l-1.82-8.09,.49-.07,.78-2.89,2.1-1.67-1.37,.82,.25,1.55,1.83,8.09c1.59,5.18,6.72,8.97,12.81,8.97,3.26,0,6.25-1.09,8.57-2.88Z"/>
      <ellipse class="cls-6" cx="74" cy="133.79" rx="1.04" ry="1.41" transform="translate(-35.27 26.85) rotate(-16.67)"/>
      <ellipse class="cls-6" cx="34.61" cy="132.45" rx="1.41" ry="1.04" transform="translate(-102.2 127.61) rotate(-73.33)"/>
      <g>
        <line class="cls-16" x1="40.75" y1="114.06" x2="38.52" y2="118.41"/>
        <line class="cls-16" x1="40.5" y1="111.99" x2="38.27" y2="116.34"/>
      </g>
      <g>
        <line class="cls-16" x1="29.84" y1="78.67" x2="27.61" y2="83.02"/>
        <line class="cls-16" x1="29.58" y1="76.6" x2="27.35" y2="80.95"/>
      </g>
      <g>
        <line class="cls-16" x1="32.38" y1="157.9" x2="30.7" y2="153.31"/>
        <line class="cls-16" x1="34.07" y1="159.12" x2="32.39" y2="154.53"/>
      </g>
      <g>
        <line class="cls-16" x1="59.35" y1="178.91" x2="59.95" y2="174.06"/>
        <line class="cls-16" x1="60.3" y1="180.77" x2="60.9" y2="175.92"/>
      </g>
      <path class="cls-6" d="M45.06,34.69c1.59,5.18,6.72,8.97,12.8,8.97,7.35,0,13.37-5.54,13.37-12.38h0c0-3.8-.63-7.57-1.86-11.17l-.9-2.62"/>
      <path class="cls-6" d="M60.59,49.48c1.24,.39,2.01,.95,2.01,1.57,0,1.19-2.84,2.15-6.35,2.15s-6.35-.96-6.35-2.15c0-.64,.68-1.17,1.99-1.56"/>
      <path class="cls-6" d="M62.87,30.06c.43-.21,.86-.52,1.23-.97"/>
      <path class="cls-6" d="M34.64,24.54s.19-9.69,3.67-12.52"/>
      <path class="cls-16" d="M29.72,51.67c-1.01,2.4-1.69,4.92-2.03,7.5v.1"/>
      <path class="cls-16" d="M33.23,37.62h0c0,4.09-.87,8.14-2.55,11.88l-.4,.89"/>
      <path class="cls-16" d="M32.76,49.62c1.48-2.68,1.84-5.51,1.84-5.51"/>
      <path class="cls-16" d="M30.22,57.88s.68-3.58,1.71-6.38"/>
      <path class="cls-16" d="M73.15,52.54c.35-.56,.83-1.34,1.17-1.91,1.25-2.07,1.58-4.18,.9-6.25"/>
      <path class="cls-16" d="M74.89,51.99c.16-.3,.32-.61,.48-.92,.59-1.19,1.12-2.42,1.38-3.71,.34-1.64,.25-3.41-.57-4.87"/>
      <path class="cls-16" d="M73.63,58.35c-.13-1.29-.21-2.62,.14-3.87,.14-.51,.35-.99,.59-1.47"/>
      <path class="cls-6" d="M71.31,28.53c4.76,4.05,7.96,9.9,8.81,16.1,.19,1.35,.26,2.74,0,4.08-.38,1.89-1.42,3.56-2.13,5.35-1.12,2.8-1.45,5.92-.92,8.89"/>
      <path class="cls-30" d="M63.84,14.51c-.07,.02-3.6,1.58-3.6,1.58l1.69,2.71s4-1.98,7.08-1.25l-1.01-2.73"/>
      <rect class="cls-35" x="53.66" y="23.9" width="2.66" height="5.05" rx="1.33" ry="1.33" transform="translate(-5.91 22.8) rotate(-22.26)"/>
      <rect class="cls-35" x="65.14" y="20.13" width="2.66" height="5.05" rx="1.33" ry="1.33" transform="translate(-3.26 14.32) rotate(-12)"/>
      <path class="cls-24" d="M54.93,34.44s7.13,.85,10.94-3.81c0,0,.35,5.29-3.74,7.2s-7.2-3.39-7.2-3.39Z"/>
      <path class="cls-6" d="M45.75,87.99s1.6,8.66,12.42,6.21"/>
      <path class="cls-6" d="M19.55,117.96l-4.11,18.01-1.04,4.99s-2.26,7.44-2.26,13.46,1.79,9.98,4.8,10.45,4.71-2.45,4.71-2.45"/>
      <path class="cls-6" d="M23.31,89.98l-1.12,16.21c-.01,.21-.05,.42-.1,.62l-1.98,8.69"/>
      <line class="cls-6" x1="23.73" y1="83.97" x2="23.44" y2="88.15"/>
      <polyline class="cls-6" points="35.58 90.98 31.91 110.62 21.47 138.14 20.48 141.95"/>
      <path class="cls-3" d="M37,91.41s2.58,17.16-4.76,27.21c-.36,.5-.18,1.2,.37,1.49,3.75,1.93,17.6,7.55,43.55,2.26,.45-.09,.72-.56,.57-.99-1.37-3.88-6.69-20.59,.65-26.43"/>
      <path class="cls-6" d="M82.56,67.75c-5.75-5.17-12.53-7.97-12.53-7.97"/>
      <path class="cls-6" d="M80.95,80.68s3.44-4,7.91-4.8c-1.21-2.59-2.99-4.89-4.99-6.89"/>
      <line class="cls-6" x1="88.85" y1="75.88" x2="86.78" y2="79.69"/>
      <path class="cls-6" d="M23.16,143.08s12.56,1.13,15.25-12.71"/>
      <path class="cls-6" d="M71.02,132.21s1.98,13.55,13.84,11.29"/>
      <path class="cls-3" d="M31.59,173.66c-2.05-6.03-3.77-10.54-3.77-10.54,0,0-3.39-8.33-3.39-20.05,0-10.21,6.75-20.1,8.49-22.47"/>
      <path class="cls-3" d="M78.19,184.21c-1.47,7.79-2.14,10.02-2.14,10.02l-4.52,22.4-.32,15.06s-6.27,3.95-13.42-1.32c0,0,2.26-11.29,2.26-22.21s-2.59-26.96-2.59-26.96l-5.36,37.55v13.13c-6.64,2.4-13.13,0-13.13,0,0,0,.42-21.74-.71-33.04-.53-5.27-2.83-13.39-5.15-20.56"/>
      <path class="cls-3" d="M82.53,155.08c-.09,2.75-.35,5.65-.83,8.66-1.18,7.39-2.15,13.08-2.94,17.43"/>
      <path class="cls-3" d="M74.96,122.76c1.33,2.2,7.05,12.56,7.56,27.99"/>
      <path class="cls-3" d="M57.47,181.19h0c.85-5.45,1.27-10.96,1.27-16.47v-7.01c0-4.71-.47-9.41-1.4-14.02"/>
      <g>
        <line class="cls-3" x1="40.95" y1="232.58" x2="42.1" y2="239.28"/>
        <line class="cls-3" x1="49.09" y1="232.96" x2="48.91" y2="237.03"/>
        <path class="cls-3" d="M41.87,239.59s-5.8,4.45-5.89,11.88c-.01,.9,.42,1.75,1.15,2.27,3.27,2.31,13.52,8.63,29.22,5.2"/>
        <path class="cls-3" d="M41.82,242.8s-.84-5.69,4.32-6.11,5.5,4.94,5.5,4.94"/>
        <path class="cls-3" d="M51.39,239.76s15.37,9.15,16.52,17.46"/>
        <path class="cls-3" d="M36.45,250.03s13.16,11.59,31.28,6.16c0,0,7.11,2.64,13.58,2.12,6.47-.52,.61-8.59,.61-8.59"/>
        <line class="cls-3" x1="60.35" y1="232" x2="61.2" y2="236.09"/>
        <line class="cls-3" x1="66.83" y1="233.24" x2="66.68" y2="234.73"/>
        <path class="cls-3" d="M59.87,237.19s5.64-3.85,11.64-1.43l.32,3.94s6.84,4.9,9.51,9.08"/>
        <path class="cls-3" d="M57.13,243.64l-.31-3.87c-.18-2.22,1.47-4.16,3.69-4.34l.56-.05"/>
        <path class="cls-3" d="M66.41,253.3s13.37,5.99,17.65,1.07"/>
      </g>
      <path class="cls-6" d="M75.03,70.68c1,1.85,1.87,3.22,2.62,4.56,1.55,2.75,5.08,7.06,5.08,11.15s-4.87,9.67-11.44,6.71"/>
      <path class="cls-6" d="M62.29,52.02s6.54,3.74,9.15,10.66c.98,2.59,1.88,4.62,2.7,6.29"/>
      <path class="cls-6" d="M20.34,150.18s1.6,4.52,1.6,9.79"/>
      <path class="cls-28" d="M41.51,7.4c2.13-1.97,4.72-3.38,7.53-4.1,.47-.12,.27-.84-.2-.72-2.93,.75-5.64,2.24-7.86,4.29-.36,.33,.18,.86,.53,.53h0Z"/>
      <path class="cls-28" d="M36.6,25.29c-.04-2.9,.38-5.78,1.24-8.55,.14-.46-.58-.66-.72-.2-.88,2.83-1.31,5.79-1.27,8.75,0,.48,.76,.48,.75,0h0Z"/>
      <path class="cls-28" d="M34.54,49.78c1.16-2.42,1.79-5.05,1.83-7.74,0-.48-.74-.48-.75,0-.04,2.55-.63,5.06-1.73,7.36-.21,.43,.44,.81,.65,.38h0Z"/>
      <path class="cls-28" d="M50.89,2.98l.63-.09s.09-.03,.13-.07c.04-.03,.07-.06,.1-.11,.05-.08,.07-.2,.04-.29s-.09-.18-.17-.22l-.09-.04c-.07-.02-.13-.02-.2,0l-.63,.09s-.09,.03-.13,.07c-.04,.03-.07,.06-.1,.11-.05,.08-.07,.2-.04,.29s.09,.18,.17,.22l.09,.04c.07,.02,.13,.02,.2,0h0Z"/>
      <path class="cls-21" d="M45.37,22.83c3.3-2.29,6.83-4.46,10.71-5.61,.92-.27,.53-1.72-.4-1.45-4.01,1.19-7.66,3.39-11.07,5.76-.79,.55-.04,1.85,.76,1.3h0Z"/>
      <path class="cls-16" d="M52.24,18.47s.02-4.56-1.18-5.69"/>
      <path class="cls-16" d="M54.74,17.24s-.21-5.53-2.19-7.72"/>
      <path class="cls-21" d="M57.71,7.59c1.93,1.7,3.22,4.01,3.65,6.55,.08,.47,.8,.27,.72-.2-.45-2.65-1.82-5.11-3.84-6.88-.36-.32-.89,.21-.53,.53h0Z"/>
      <path class="cls-21" d="M42.97,13.61c.94,2.44,1.49,5.02,1.61,7.63,.04,.96,1.54,.97,1.5,0-.12-2.75-.67-5.47-1.66-8.03-.15-.38-.5-.64-.92-.52-.36,.1-.67,.54-.52,.92h0Z"/>
      <path class="cls-20" d="M57.63,16.37c.27-2.66,.44-5.34,.52-8.01l-.64,.27c.51,.57,.96,1.21,1.38,1.86,.76,1.2,1.44,2.57,1.5,4.02,.02,.48,.77,.48,.75,0-.06-1.55-.74-3.02-1.55-4.32-.46-.73-.97-1.45-1.55-2.1-.23-.25-.63-.04-.64,.27-.07,2.68-.24,5.35-.52,8.01-.05,.48,.7,.48,.75,0h0Z"/>
      <path class="cls-20" d="M44.71,26c.12-.42,.26-.84,.4-1.25,.12-.35,.28-.67,.55-.94s.59-.46,.89-.68c.36-.26,.72-.52,1.09-.77,.16-.12,.24-.33,.13-.51-.1-.16-.35-.25-.51-.13-.38,.27-.76,.54-1.15,.82-.35,.25-.72,.49-1.03,.8s-.5,.69-.65,1.1c-.17,.45-.31,.91-.45,1.38s.59,.66,.72,.2h0Z"/>
      <path class="cls-30" d="M49,23.92s3.06-2.96,6.87-3.67v-3.15l-8.33,4.24,1.46,2.59Z"/>
      <ellipse class="cls-20" cx="43.18" cy="30.63" rx="3.74" ry="4.1"/>
      <g>
        <path class="cls-10" d="M41.65,31.94s-.92-2.72,1.87-3.53"/>
        <path class="cls-10" d="M41.87,29.78s1.62,.53,1.62,1.41"/>
      </g>
      <circle class="cls-24" cx="55.96" cy="25.76" r=".64"/>
      <circle class="cls-24" cx="67.49" cy="22.32" r=".64"/>
      <path class="cls-6" d="M40.21,27.95c-.52,.69-.72,1.59-.72,2.61,0,2.24,2.13,4.16,4.15,4.16,1.29,0,2.73-.78,3.38-1.91"/>
      <path class="cls-28" d="M75.25,36.22c.92,1.35,1.59,2.85,1.99,4.43,.12,.47,.84,.27,.72-.2-.42-1.64-1.12-3.21-2.07-4.61-.27-.4-.92-.02-.65,.38h0Z"/>
      <path class="cls-28" d="M65.6,53.06c1.75,1.71,3.3,3.61,4.61,5.68,.26,.41,.91,.03,.65-.38-1.34-2.12-2.93-4.08-4.73-5.83-.35-.34-.88,.19-.53,.53h0Z"/>
      <path class="cls-14" d="M25.98,71.69s4.42-8.52,13.74-15.81"/>
      <path class="cls-10" d="M54.93,34.44s7.13,.85,10.94-3.81c0,0,.35,5.29-3.74,7.2s-7.2-3.39-7.2-3.39Z"/>
      <path class="cls-41" d="M21.24,81.22c3.63,4.16,8.1,7.71,13.37,9.49,.92,.31,1.31-1.14,.4-1.45-5.03-1.7-9.25-5.15-12.71-9.1-.64-.73-1.69,.34-1.06,1.06h0Z"/>
      <path class="cls-6" d="M22.12,78.07c-.36,.86-.63,1.55-.8,2.01-.15,.41-.08,.86,.19,1.2,1.76,2.21,8.91,10.35,18.59,10.27"/>
      <path class="cls-6" d="M28.84,66.07c-2.86,3.97-4.86,7.85-6.12,10.63"/>
      <path class="cls-6" d="M42.66,53.37c-5.05,2.76-9.11,6.67-12.29,10.68"/>
      <path class="cls-6" d="M50.17,50.42c-1.76,.44-3.44,1.02-5.03,1.72"/>
      <path class="cls-21" d="M48.22,22.11c2.38-1.63,4.95-3.32,7.79-4.01,.47-.11,.27-.84-.2-.72-2.9,.71-5.54,2.42-7.97,4.08-.4,.27-.02,.92,.38,.65h0Z"/>
      <path class="cls-15" d="M48.54,22.92s1.19-1.02,2.37-1.55"/>
      <path class="cls-15" d="M61.69,17.82s1.38-.74,2.65-.99"/>
      <path class="cls-16" d="M47.65,21.34s.35,1.32,1.39,2.59c0,0,3.06-2.96,6.87-3.67v-3.15"/>
      <polyline class="cls-17" points="60.75 16.23 63.91 14.94 67.99 15.29"/>
      <path class="cls-16" d="M63.94,14.42c-.07,.02-3.6,1.58-3.6,1.58l1.69,2.71s4-1.98,7.08-1.25l-1.01-2.73"/>
      <path class="cls-24" d="M114.31,60.26c1.15-1.49,2.7-2.62,4.21-3.72,.16-.12,.24-.33,.13-.51-.09-.16-.35-.25-.51-.13-1.62,1.19-3.24,2.39-4.47,3.99-.12,.16-.02,.42,.13,.51,.19,.11,.39,.03,.51-.13h0Z"/>
      <path class="cls-6" d="M122.27,54.78c.8,.37,1.83,1.17,1.66,2.81h0c-.25,2.35-1.4,4.51-3.22,6.03h0c-1.81,1.51-3.5,3.15-5.07,4.9l-1.56,3.27"/>
      <path class="cls-6" d="M111.99,61.24s4.63-5.54,8.04-6.6"/>
      <path class="cls-24" d="M107.65,61.15c-.06,1.87,.13,3.74,.56,5.56,.11,.47,.83,.27,.72-.2-.41-1.76-.59-3.56-.53-5.36,.01-.48-.74-.48-.75,0h0Z"/>
      <path class="cls-6" d="M111.25,61.48s-.38,.19-.18-2.41c.01-.15,.02-.31,.04-.48,.13-1.44-.76-1.84-1.44-1.87-.78-.04-1.48,.52-1.73,1.26-1.39,4.24,.39,10.14,.39,10.14"/>
      <line class="cls-4" x1="108.43" y1="82.79" x2="99.21" y2="103.69"/>
      <g>
        <line class="cls-6" x1="90.92" y1="87.36" x2="95.82" y2="95.78"/>
        <line class="cls-6" x1="85.09" y1="77.34" x2="89.96" y2="85.71"/>
        <path class="cls-6" d="M78.13,95.69s12.99,11.95,19.48,12.05"/>
        <line class="cls-6" x1="94.13" y1="92.68" x2="108.71" y2="70.65"/>
        <line class="cls-6" x1="98.64" y1="107.17" x2="113.61" y2="73.01"/>
      </g>
      <path class="cls-6" d="M43.16,73.05c-2.66,8.89-2.92,17.13-2.92,17.13"/>
      <line class="cls-3" x1="94.36" y1="43.88" x2="94.36" y2="53.24"/>
      <line class="cls-3" x1="89.49" y1="63.38" x2="89.49" y2="70.82"/>
      <g>
        <rect class="cls-32" x="101.91" y="33.29" width="23.22" height="17.58"/>
        <rect class="cls-24" x="99.8" y="33.29" width="23.22" height="17.58"/>
        <rect class="cls-6" x="99.78" y="33.01" width="23.38" height="17.79" rx="1.28" ry="1.28"/>
        <path class="cls-6" d="M122.02,33.01h1.83c.75,0,1.36,.61,1.36,1.36v15.06c0,.75-.61,1.36-1.36,1.36h-1.83"/>
        <rect class="cls-6" x="102.69" y="36.11" width="4.09" height="4.09" rx="2.05" ry="2.05"/>
        <line class="cls-6" x1="102.9" y1="43.03" x2="118.5" y2="43.03"/>
        <line class="cls-6" x1="102.9" y1="44.78" x2="111.51" y2="44.78"/>
      </g>
      <g>
        <g>
          <rect class="cls-32" x="176.39" y="61.91" width="18.06" height="13.67"/>
          <rect class="cls-24" x="174.74" y="61.91" width="18.06" height="13.67"/>
          <rect class="cls-11" x="174.73" y="61.69" width="18.18" height="13.83" rx=".99" ry=".99"/>
          <path class="cls-11" d="M192.02,61.69h1.42c.59,0,1.06,.47,1.06,1.06v11.71c0,.59-.47,1.06-1.06,1.06h-1.42"/>
          <rect class="cls-11" x="176.99" y="64.1" width="3.18" height="3.18" rx="1.59" ry="1.59"/>
          <line class="cls-11" x1="177.16" y1="69.48" x2="189.29" y2="69.48"/>
          <line class="cls-11" x1="177.16" y1="70.85" x2="183.85" y2="70.85"/>
        </g>
        <g>
          <rect class="cls-32" x="176.39" y="29.53" width="18.06" height="13.67"/>
          <rect class="cls-24" x="174.74" y="29.53" width="18.06" height="13.67"/>
          <rect class="cls-11" x="174.73" y="29.31" width="18.18" height="13.83" rx=".99" ry=".99"/>
          <path class="cls-11" d="M192.02,29.31h1.42c.59,0,1.06,.47,1.06,1.06v11.71c0,.59-.47,1.06-1.06,1.06h-1.42"/>
          <rect class="cls-11" x="176.99" y="31.72" width="3.18" height="3.18" rx="1.59" ry="1.59"/>
          <line class="cls-11" x1="177.16" y1="37.1" x2="189.29" y2="37.1"/>
          <line class="cls-11" x1="177.16" y1="38.47" x2="183.85" y2="38.47"/>
        </g>
        <g>
          <rect class="cls-32" x="176.3" y="46.08" width="17.1" height="12.94"/>
          <rect class="cls-24" x="174.74" y="46.08" width="17.1" height="12.94"/>
          <rect class="cls-9" x="174.73" y="45.87" width="17.21" height="13.1" rx=".94" ry=".94"/>
          <path class="cls-9" d="M191.1,45.87h1.34c.55,0,1,.45,1,1v11.09c0,.55-.45,1-1,1h-1.34"/>
          <rect class="cls-9" x="176.87" y="48.15" width="3.01" height="3.01" rx="1.51" ry="1.51"/>
          <line class="cls-9" x1="177.03" y1="53.25" x2="188.51" y2="53.25"/>
          <line class="cls-9" x1="177.03" y1="54.54" x2="183.37" y2="54.54"/>
        </g>
      </g>
      <g>
        <path class="cls-5" d="M48.21,245.39s4.31-4.05,8.77-2.83"/>
        <path class="cls-5" d="M49.75,246.93s4.31-4.05,8.77-2.83"/>
        <path class="cls-5" d="M51.68,248.46s4.31-4.05,8.77-2.83"/>
      </g>
      <g>
        <path class="cls-5" d="M67.53,243.86s4.31-4.05,8.77-2.83"/>
        <path class="cls-5" d="M69.07,245.39s4.31-4.05,8.77-2.83"/>
        <path class="cls-5" d="M70.99,246.93s4.31-4.05,8.77-2.83"/>
      </g>
      <path class="cls-21" d="M61.99,14.53c2.86-.4,5.74,.27,8.52,.9,.94,.21,1.34-1.23,.4-1.45-3.07-.7-6.16-1.34-9.31-.9-.4,.06-.62,.57-.52,.92,.12,.43,.52,.58,.92,.52h0Z"/>
      <path class="cls-6" d="M68.9,18.49s1.58-1.13,2.26-2.96c-3.39-1.48-9.95-1.06-9.95-1.06,0-3.32-3.88-7.2-3.88-7.2,0,4.45-.64,9.6-.64,9.6-4.26,.63-10.62,5.58-12.01,6.7"/>
      <g>
        <path class="cls-6" d="M59.4,1.01s11.06,3.53,11.76,14.52"/>
        <path class="cls-6" d="M52.05,.41c1.83-.09,3.86,.01,6.12,.41"/>
        <path class="cls-6" d="M46.98,1.26c.99-.3,2.08-.54,3.28-.7"/>
        <path class="cls-6" d="M39.58,5.67s1.78-2.18,5.55-3.75"/>
        <path class="cls-6" d="M22.3,66.28c-.23,2.9,.07,5.82,1.05,8.71"/>
        <path class="cls-6" d="M27.33,51.32c-.25,.59-.51,1.13-.78,1.64-1.89,3.53-3.35,7.29-3.98,11.12"/>
        <path class="cls-6" d="M32.07,24.34c-.46,7.96-1.67,18.29-4.03,25.12"/>
        <path class="cls-6" d="M38.6,6.65s-6.02,5.46-6.4,15.06"/>
      </g>
      <path class="cls-16" d="M60.01,7.97s3.01,3.15,3.01,6.31"/>
      <path class="cls-16" d="M63.77,10.65s1.27,1.98,1.27,3.72"/>
      <path class="cls-29" d="M49.62,6.72c-.49-.75-1.28-1.25-2.19-1.26-.44,0-.88,.12-1.26,.33-.37,.2-.72,.55-.91,.93-.14,.27-.21,.55-.26,.84-.18,.11-.36,.24-.5,.39-.28,.28-.49,.64-.6,1.02-.25,.89,.11,1.88,.89,2.39,.7,.45,1.68,.4,2.37-.05,.39-.25,.71-.59,1.06-.88,.16-.11,.31-.22,.48-.32,.1-.05,.19-.1,.29-.16,.25-.15,.44-.33,.62-.55,.3-.39,.47-.9,.43-1.4-.04-.45-.15-.89-.4-1.27Z"/>
      <path class="cls-29" d="M41.16,11.01c.39,.23,.86,.28,1.27,.08,.2-.1,.37-.25,.5-.43,.12-.17,.2-.41,.2-.62,0-.15-.03-.3-.07-.44,.06-.09,.11-.19,.14-.29,.06-.19,.08-.4,.04-.6-.09-.46-.47-.82-.94-.88-.42-.05-.84,.2-1.05,.56-.12,.2-.19,.42-.28,.64-.05,.09-.09,.17-.15,.25-.03,.05-.07,.09-.09,.14-.08,.12-.13,.25-.15,.39-.05,.24,0,.51,.12,.72,.12,.19,.27,.37,.47,.48Z"/>
      <path class="cls-21" d="M42.02,14.42c.83,1.74,1.29,3.65,1.33,5.57,.02,1-.07,1.99-.23,2.97-.08,.47-.17,.94-.26,1.41-.09,.42-.11,1.13-.34,1.49l.45-.34s-.29,0-.38,0c-.31,.03-.61,.12-.91,.18-.95,.19-.55,1.64,.4,1.45,.25-.05,.5-.13,.74-.14,.19-.01,.36,.02,.55-.04,.58-.2,.66-.85,.77-1.37,.3-1.39,.57-2.79,.68-4.2,.2-2.67-.34-5.32-1.49-7.73-.42-.87-1.71-.11-1.3,.76h0Z"/>
      <path class="cls-6" d="M42.93,13.12s3.41,7.14,.72,13.49c-.83,0-1.51,.12-2.06,.33"/>
      <line class="cls-6" x1="51.92" y1="42.36" x2="51.92" y2="52.44"/>
      <line class="cls-6" x1="60.4" y1="43.66" x2="60.4" y2="52.44"/>
    </g>
  </g>
</svg>