<?xml version="1.0" encoding="UTF-8"?>
<svg id="Layer_2" data-name="Layer 2" xmlns="http://www.w3.org/2000/svg" viewBox="0 0 567.52 528.98">
  <defs>
    <style>
      .cls-1 {
        fill: #f98e64;
      }

      .cls-2 {
        fill: #ea8f2d;
      }

      .cls-3 {
        fill: #fff;
      }

      .cls-4 {
        fill: #ef3352;
      }

      .cls-5 {
        fill: #ffb999;
      }

      .cls-6 {
        fill: #feba64;
      }

      .cls-7 {
        fill: #64a8f9;
      }

      .cls-8 {
        fill: #bc0c32;
      }

      .cls-9 {
        fill: #d11c43;
      }

      .cls-10 {
        fill: #d8d8d8;
      }

      .cls-11 {
        fill: #a4eaff;
      }

      .cls-12 {
        fill: #161616;
      }

      .cls-13 {
        fill: #35b9ed;
      }

      .cls-14 {
        fill: #3885f4;
      }

      .cls-15 {
        opacity: .25;
      }

      .cls-16 {
        opacity: .36;
      }

      .cls-17 {
        opacity: .57;
      }

      .cls-18 {
        opacity: .53;
      }

      .cls-19 {
        opacity: .54;
      }
    </style>
  </defs>
  <g id="Layer_3" data-name="Layer 3">
    <g>
      <g class="cls-16">
        <path class="cls-10" d="M460.82,26.39c1.93,0,1.93-3,0-3s-1.93,3,0,3h0Z"/>
      </g>
      <g>
        <g>
          <path class="cls-4" d="M415.43,99.14c7.8,0,14.13,6.33,14.13,14.13s-6.33,14.13-14.13,14.13"/>
          <path class="cls-4" d="M415.44,99.14c-7.8,0-14.13,6.33-14.13,14.13s6.33,14.13,14.13,14.13"/>
        </g>
        <path class="cls-6" d="M171.88,492.8c2.16,4.96,7.1,8.07,11.94,10.48,7.7,3.84,15.89,6.7,24.3,8.48l1.36,.38c3.01,.33,5.54,2.75,6.53,5.32l.78,1.51c.8,1.76,.96,3.92-.05,5.57-1.21,1.97-3.68,2.69-5.93,3.17-2.89,.62-5.79,.03-8.76,0-5.73-.04-11.61-.1-17.32-.19-9.32-.14-17.79,.04-27.56-.3-3.55-.12-7.26-1.47-9.54-4.18-1.86-2.21-2.37-5.25-2.55-8.13-.56-8.72,.82-16.99,4.7-24.82l.06-.19c5.65,4.8,12.26,4.73,20.82,1.44"/>
        <path class="cls-2" d="M157.59,526.84c13.58,.47,27.15,.5,40.73,.63,4.05,.04,8.1,.1,12.15,.2,1.93,.04,1.93-2.96,0-3-12.98-.29-25.96-.18-38.94-.43-4.65-.09-9.3-.23-13.94-.39-1.93-.07-1.93,2.93,0,3h0Z"/>
        <path class="cls-6" d="M51.93,510.36c-8.02-11.56-12.51-25.54-12.73-39.61l.26-2.45c-9.67-3.6-13.52-12.53-14.11-15.74l-.14,.14c-8.24,2.89-15,7.85-20.69,14.48-1.88,2.19-3.64,4.72-3.85,7.6-.26,3.54,1.84,6.78,3.91,9.66,10.5,14.61,22.84,28.21,38.07,37.8,1.95,1.23,4.22,2.44,6.46,1.87,1.87-.47,3.27-2.14,3.92-3.96s.7-3.79,.72-5.73"/>
        <path class="cls-2" d="M2.02,480.57c8.86,12.57,18.46,24.92,30.67,34.44,3.54,2.76,7.25,5.27,11.17,7.45,1.69,.94,3.2-1.65,1.51-2.59-13.42-7.45-24.17-18.72-33.44-30.79-2.52-3.28-4.95-6.63-7.33-10.01-1.1-1.57-3.71-.07-2.59,1.51h0Z"/>
        <path class="cls-5" d="M51.69,456.52c-.08,.28,.37,.46,.31,.74-.08,.39-.67,.88-.71,1.28-3.31,2.8-6.63,5.62-9.94,8.43-.33,.28-.65,.56-.99,.83-.37-.08-.82,.03-1.13,.28-.1,.08-.19,.16-.27,.25-8.32-3.28-12.21-10.53-13.39-14.33,.24-.42-.3-.91-.3-1.39,0-.13,.68-.25,.66-.38,3.68-3.05,7.06-6.44,10.44-9.82,.88-.87,1.75-1.74,2.62-2.62,.31,.03,.62,.05,.94,.07,2.76,6.04,6.75,12.02,11.76,16.66Z"/>
        <path class="cls-1" d="M38.06,441.85c2.87,5.9,6.52,11.44,11.48,15.79,1.45,1.27,3.58-.84,2.12-2.12-4.79-4.2-8.24-9.49-11.01-15.19-.35-.73-1.39-.92-2.05-.54-.74,.44-.89,1.32-.54,2.05h0Z"/>
        <path class="cls-14" d="M43.91,428.49l-6.04,5.81-.13,.16c3.98,11.89,13.16,25.09,25.73,29.36l.21-.18,5.75-6.21"/>
        <path class="cls-13" d="M272.92,198.38c.42,3.42,2.67,6.49,5.65,8.24s6.59,2.24,10,1.73c1.28-.19,2.59-.54,3.55-1.4s1.47-2.34,.87-3.49c-.46-.89-1.46-1.38-2.42-1.68s-1.98-.5-2.82-1.06c-.94-.63-1.52-1.65-2.16-2.59-1.03-1.49-2.31-2.84-3.91-3.67s-3.56-1.09-5.24-.42"/>
        <path class="cls-12" d="M276.33,195.05c-.13,.59-.35,1.16-.71,1.65-.32,.44-.73,.78-1.17,1.12-.55,.1-1.13,.14-1.7,.22-3.56-4.02-8.44-7.57-13.49-10.99,.02-.06,.03-.13,.04-.19,.06-.26-1.37-.88-1.42-1.15-.03-.23,.51-.3,.4-.52-.1-.19,.51-.42,.4-.61,.02-.03,.15,.18,.17,.15,.56-.89,.86-1.98,1.15-2.99,.2,.1,.06-1.1,.28-1.04,.38,.1,1.32,1.55,1.71,1.5,4.19,4.42,8.88,8.36,13.95,11.73,.12,.38,.25,.75,.39,1.12Z"/>
        <path class="cls-7" d="M154.89,316.17c-.14,11.21-.28,22.42-.42,33.63-.16,13.13-.4,26.62-5.41,38.76-7.16,17.37-22.94,29.4-38.04,40.59-13.03,9.65-26.06,19.31-39.1,28.96h.03c-6.74-3.23-13.25-7.19-18.35-12.65s-9.37-13.19-10.43-20.59l1.87-2.26c11.5-11.99,21.77-22.92,33.28-34.91,5.47-5.71,11.01-11.49,14.9-18.38,2.5-4.43,4.27-9.24,5.67-14.12,5.02-17.52,1.26-32.21-6.16-48.85-4.07-9.13-7.78-24.44-4.67-40.81l.29-.76c7.41,7.42,18.22,10.77,28.63,12.09,24.79,3.12,50.27,.71,74.03-7.02l.73,.28c11.09,59.36,.48,125.84-6.56,185.81l1.42-.25c-13.94,3.42-28.98,2.41-42.79-1.51l1.58,.14c-1.32-16.55-3.69-34.49-5.01-51.04"/>
        <g class="cls-17">
          <path class="cls-14" d="M121.98,348.71c-5.81,27.68-25.24,50.3-45,70.53-8.11,8.31-16.48,16.56-24.31,25.19-4.66-5.38-8.46-12.59-9.45-19.51l1.87-2.26c11.51-11.99,21.78-22.92,33.28-34.91,5.47-5.7,11.01-11.49,14.9-18.37,2.5-4.43,4.27-9.24,5.67-14.13,5.02-17.52,1.26-32.21-6.16-48.85-4.08-9.13-7.78-24.44-4.67-40.81l.29-.77c7.41,7.43,18.22,10.78,28.63,12.09,.03,0,.05,.01,.08,.01,4.21,24.09,9.83,48.13,4.87,71.79Z"/>
        </g>
        <path class="cls-5" d="M210.42,212.98c7.5,8.15,15,16.3,22.49,24.46,3.58,3.89,7.21,7.83,11.69,10.62l1.74-1.49c4.57-1.45,9.71-1,13.97,1.21,4.26,2.21,7.58,6.16,9.02,10.73,.31,.98,.52,2.1,0,2.99-.49,.85-1.54,1.23-2.52,1.28-2.39,.12-4.75-1.59-5.38-3.9l.54,2.67c2.99,4.6,9.69,5.48,12.99,9.87,1.95,2.59,2.38,6.25,1.08,9.21-1.3,2.97-4.27,5.14-7.5,5.46-1.76,.18-3.53-.16-5.23-.65-9.48-2.75-17.15-11.04-19.39-20.65l-1.32-.87c-18.74-8.26-36.35-19.06-52.21-32.02l-11.74-6.5,1.84-10.87"/>
        <path class="cls-1" d="M244.85,269.27c2.51,5.51,6.8,10.17,12.04,13.19,4.82,2.78,12.81,5.59,17.21,.62,1.27-1.44-.84-3.57-2.12-2.12-1.82,2.06-4.96,2.12-7.47,1.46s-4.87-1.74-7.05-3.12c-4.4-2.78-7.86-6.81-10.01-11.54-.8-1.75-3.38-.23-2.59,1.51h0Z"/>
        <polyline class="cls-5" points="165.1 160.33 198.7 198.63 172.87 209.03"/>
        <g class="cls-18">
          <path class="cls-10" d="M179.26,196.95c.27,0,.27-.42,0-.42s-.27,.42,0,.42h0Z"/>
        </g>
        <g class="cls-18">
          <path class="cls-10" d="M154.31,140.39c.27,0,.27-.42,0-.42s-.27,.42,0,.42h0Z"/>
        </g>
        <g class="cls-18">
          <path class="cls-10" d="M251.22,160.24c1.83,.51,2.82,2.29,2.96,4.09,.16,2.09-.91,3.96-2.26,5.46-2.63,2.92-6.44,4.78-8.08,8.5-.11,.24,.25,.46,.36,.21,1.96-4.44,7.05-6.21,9.44-10.33,1.6-2.76,1.29-7.35-2.31-8.35-.26-.07-.37,.33-.11,.4h0Z"/>
        </g>
        <g class="cls-18">
          <path class="cls-10" d="M119.56,170.68c.27,0,.27-.42,0-.42s-.27,.42,0,.42h0Z"/>
        </g>
        <g class="cls-16">
          <path class="cls-10" d="M332.54,305.77c.27,0,.27-.42,0-.42s-.27,.42,0,.42h0Z"/>
        </g>
        <g class="cls-16">
          <path class="cls-10" d="M526.48,280.47c.27,0,.27-.42,0-.42s-.27,.42,0,.42h0Z"/>
        </g>
        <g class="cls-16">
          <path class="cls-10" d="M544.23,72.83c.27,0,.27-.42,0-.42s-.27,.42,0,.42h0Z"/>
        </g>
        <path class="cls-12" d="M190.14,232.16c12.36,10.08,25.76,18.88,39.94,26.18,4.05,2.09,8.17,4.05,12.34,5.89,.42,.19,.79-.43,.36-.62-14.49-6.41-28.32-14.3-41.18-23.56-3.74-2.69-7.39-5.49-10.95-8.4-.36-.29-.87,.22-.51,.51h0Z"/>
        <path class="cls-12" d="M177.12,174.85c5.58,5.73,10.89,11.73,15.9,17.97,.29,.36,.8-.15,.51-.51-5.01-6.24-10.32-12.24-15.9-17.97-.32-.33-.83,.18-.51,.51h0Z"/>
        <path class="cls-12" d="M224.85,229.2c3.27,3.55,6.5,7.13,9.8,10.65,2.97,3.16,6.09,6.2,9.77,8.53,.39,.25,.75-.37,.36-.62-3.73-2.36-6.86-5.46-9.86-8.67-3.21-3.44-6.38-6.93-9.57-10.39-.31-.34-.82,.17-.51,.51h0Z"/>
        <path class="cls-12" d="M210.17,213.23l11.57,12.58c.31,.34,.82-.17,.51-.51l-11.57-12.58c-.31-.34-.82,.17-.51,.51h0Z"/>
        <path class="cls-12" d="M246.44,246.91c6.48-1.97,13.66-.23,18.36,4.68,2.01,2.1,4.21,5.27,4.47,8.27,.2,2.29-2.16,2.87-3.96,2.38-1.69-.46-3.01-1.8-3.53-3.46-.14-.44-.83-.25-.69,.19,.75,2.39,3.01,4.2,5.57,4.16,1.08-.02,2.27-.39,2.9-1.33,.76-1.12,.42-2.55,.01-3.74-1.92-5.69-6.64-10.26-12.41-11.95-3.56-1.04-7.37-.99-10.92,.09-.44,.13-.25,.83,.19,.69h0Z"/>
        <path class="cls-12" d="M535.3,228.72c-.65,6.62-1.3,13.24-1.95,19.86l-3.1,31.65c-.24,2.42-.47,4.84-.71,7.27-.05,.46,.68,.46,.72,0,.65-6.62,1.3-13.24,1.95-19.86l3.1-31.65c.24-2.42,.47-4.84,.71-7.27,.05-.46-.68-.46-.72,0h0Z"/>
        <path class="cls-12" d="M547.61,103.1c-.4,4.07-.8,8.15-1.2,12.22-.96,9.74-1.91,19.48-2.87,29.23l-3.48,35.47c-1,10.18-2,20.37-3,30.55-.33,3.36-.66,6.72-.99,10.08-.15,1.51-.59,3.27-.47,4.8,0,.07-.01,.15-.02,.21-.05,.46,.68,.46,.72,0,.4-4.07,.8-8.15,1.2-12.22,.96-9.74,1.91-19.48,2.87-29.23,1.16-11.82,2.32-23.64,3.48-35.47,1-10.18,2-20.37,3-30.55,.33-3.36,.66-6.72,.99-10.08,.15-1.51,.59-3.27,.47-4.8,0-.07,.01-.15,.02-.21,.05-.46-.68-.46-.72,0h0Z"/>
        <path class="cls-12" d="M369.82,104.59c1.51-11.41,3.01-22.81,4.52-34.22,.21-1.6,.42-3.21,.64-4.81l-.36,.36c23.12,0,46.23-.15,69.34-.34,22.91-.19,45.83-.41,68.74-.54,13.02-.08,26.04-.12,39.05-.12l-.36-.36c-.96,9.77-1.92,19.54-2.88,29.31-.14,1.39-.27,2.77-.41,4.16-.05,.46,.68,.46,.72,0,.96-9.77,1.92-19.54,2.88-29.31,.14-1.39,.27-2.77,.41-4.16,.02-.19-.18-.36-.36-.36-23.12,0-46.23,.15-69.34,.34-22.91,.19-45.83,.41-68.74,.54-13.02,.08-26.04,.12-39.05,.12-.21,0-.33,.17-.36,.36-1.51,11.41-3.01,22.81-4.52,34.22-.21,1.6-.42,3.21-.64,4.81-.06,.46,.66,.45,.72,0h0Z"/>
        <path class="cls-12" d="M362.03,163.58c.78-5.9,1.56-11.81,2.34-17.71,1.24-9.41,2.49-18.83,3.73-28.24,.29-2.17,.57-4.34,.86-6.51,.06-.46-.66-.45-.72,0-.78,5.9-1.56,11.81-2.34,17.71-1.24,9.41-2.49,18.83-3.73,28.24-.29,2.17-.57,4.34-.86,6.51-.06,.46,.66,.45,.72,0h0Z"/>
        <path class="cls-12" d="M345.61,287.99c.52-3.9,1.03-7.81,1.55-11.71,1.23-9.29,2.45-18.58,3.68-27.87,1.49-11.31,2.99-22.63,4.48-33.94,1.28-9.72,2.57-19.43,3.85-29.15,.43-3.23,.85-6.46,1.28-9.69l.4-3c.07-.5,.24-1.09,.21-1.59,0-.06,.02-.14,.03-.2,.06-.46-.66-.45-.72,0-.52,3.9-1.03,7.81-1.55,11.71-1.23,9.29-2.45,18.58-3.68,27.87l-4.48,33.94c-1.28,9.72-2.57,19.43-3.85,29.15l-1.28,9.69-.4,3c-.07,.5-.24,1.09-.21,1.59,0,.06-.02,.14-.03,.2-.06,.46,.66,.45,.72,0h0Z"/>
        <path class="cls-12" d="M340.73,382.82c19.42-1.2,38.88-1.77,58.35-1.69,19.54,.08,39.08,.8,58.58,2.17,10.94,.77,21.87,1.74,32.77,2.92,.46,.05,.46-.67,0-.72-19.35-2.08-38.76-3.53-58.21-4.34-19.53-.81-39.08-.97-58.62-.48-10.96,.27-21.92,.75-32.87,1.43-.46,.03-.46,.75,0,.72h0Z"/>
        <path class="cls-12" d="M467.71,306.69c0,28.89-.01,57.78-.03,86.68s-.04,57.51-.05,86.26c0,16.23-.01,32.45-.01,48.68h.72c0-9.82,0-19.64,0-29.45h-.72c0,1.14,0,2.28,0,3.41,0,.46,.72,.46,.72,0,0-1.14,0-2.28,0-3.41,0-.46-.72-.46-.72,0,0,9.82,0,19.64,0,29.45,0,.46,.72,.46,.72,0,0-28.89,.01-57.78,.03-86.68s.04-57.51,.05-86.26c0-16.23,.01-32.45,.01-48.68,0-.46-.72-.46-.72,0h0Z"/>
        <path class="cls-12" d="M550.1,492.69c.46,0,.46-.72,0-.72s-.46,.72,0,.72h0Z"/>
        <path class="cls-12" d="M489.18,307.35c9.36,28.49,18.16,57.15,26.87,85.84,8.86,29.19,17.61,58.42,26.65,87.55,4.94,15.92,9.97,31.82,15.17,47.66,.14,.44,.84,.25,.69-.19-9.36-28.49-18.16-57.15-26.87-85.84-8.86-29.19-17.61-58.42-26.65-87.55-4.94-15.92-9.97-31.82-15.17-47.66-.14-.44-.84-.25-.69,.19h0Z"/>
        <path class="cls-12" d="M374.15,304.88c-4.11,28.99-8.18,58-12.24,87-4.08,29.12-8.15,58.25-12.24,87.37-2.29,16.32-4.59,32.64-6.91,48.96l.69,.19c1.46-10.33,2.67-20.69,4.13-31.02,.06-.45-.63-.65-.69-.19-.16,1.13-.32,2.25-.48,3.38-.06,.45,.63,.65,.69,.19,.16-1.13,.32-2.25,.48-3.38l-.69-.19c-1.46,10.33-2.67,20.69-4.13,31.02-.06,.45,.63,.65,.69,.19,4.11-28.99,8.18-58,12.24-87,4.08-29.12,8.15-58.25,12.24-87.37,2.29-16.32,4.59-32.64,6.91-48.96,.06-.45-.63-.65-.69-.19h0Z"/>
        <path class="cls-12" d="M493.45,64.51c-.9-6.11,1.67-13.66,1.67-13.66-23.34,.2-46.68,.41-70.02,.61,0,0-2.29,7.17-1.76,13.57"/>
        <path class="cls-12" d="M409.56,65.12c1.77-12.8,3.54-25.6,5.31-38.41,.06-.45-.63-.65-.69-.19-1.77,12.8-3.54,25.6-5.31,38.41-.06,.45,.63,.65,.69,.19h0Z"/>
        <path class="cls-12" d="M510.27,64.35c.81-13.76,1.9-27.51,3.24-41.23,.05-.46-.68-.46-.72,0-1.35,13.72-2.43,27.47-3.24,41.23-.03,.46,.69,.46,.72,0h0Z"/>
        <path class="cls-12" d="M124.31,118.99c1.09-.6,2.28-1.03,3.51-1.23,.19-.03,.3-.27,.25-.44-.06-.2-.25-.28-.44-.25-1.29,.21-2.54,.68-3.69,1.31-.41,.22-.04,.84,.36,.62h0Z"/>
        <path class="cls-12" d="M39.24,476.91c-2.05,1.43-4.32,2.47-6.76,3.02-2.08,.47-6.94,1.4-7.49-1.65-.58-3.23,3.41-4.24,5.83-4.07s4.54,1.12,6.65,2.08c3.36,1.53,7.29,3.68,11.11,2.72,1.46-.37,2.88-1.32,3.25-2.86s-.41-3.05-1.57-3.96c-4.21-3.3-8.7,1.84-10.9,4.95-.27,.38,.36,.74,.62,.36,1.47-2.09,3.1-4.38,5.63-5.23,2.36-.79,5.92,.35,5.56,3.41-.31,2.63-3.65,3.01-5.73,2.73-2.19-.3-4.23-1.19-6.22-2.1-3.43-1.57-7.22-3.53-11.11-2.63-1.67,.39-3.26,1.42-3.75,3.14-.46,1.61,.24,3.23,1.79,3.89,1.95,.83,4.53,.37,6.52-.08,2.49-.57,4.84-1.64,6.93-3.09,.38-.26,.02-.89-.36-.62h0Z"/>
        <path class="cls-12" d="M39.01,479.21c-1.39,2.23-2.9,4.38-4.52,6.45-.14,.18-.14,.56,.16,.6,1.88,.26,3.76,.35,5.66,.24,.46-.03,.46-.75,0-.72-1.82,.11-3.66,.04-5.46-.21l.16,.6c1.66-2.12,3.21-4.32,4.63-6.6,.25-.39-.38-.76-.62-.36h0Z"/>
        <path class="cls-12" d="M40.34,486.19c-.91,1.01-1.37,2.28-2.04,3.45-.74,1.3-1.87,2.12-3.11,2.92-.28,.18-.2,.54,.09,.66,2.48,.99,5.2,1.22,7.81,.68,.45-.09,.26-.79-.19-.69-2.49,.51-5.07,.26-7.43-.68l.09,.66c1.22-.79,2.4-1.61,3.18-2.86,.74-1.18,1.16-2.57,2.11-3.62,.31-.34-.2-.85-.51-.51h0Z"/>
        <path class="cls-12" d="M243.54,265.05c2.23,9.26,9.28,17.14,18.29,20.3,4.63,1.63,9.75,1.73,13.15-2.33,2.96-3.54,2.83-8.9-.17-12.37-3.47-4.01-9.49-4.8-12.52-9.28-.26-.38-.88-.02-.62,.36,2.21,3.27,5.95,4.68,9.19,6.66,1.86,1.14,3.62,2.54,4.62,4.53,1.17,2.33,1.28,5.17,.24,7.56-.97,2.22-2.9,3.97-5.17,4.79-2.57,.93-5.31,.43-7.84-.39-4.23-1.36-8.08-3.82-11.19-6.98-3.55-3.62-6.1-8.12-7.29-13.06-.11-.45-.8-.26-.69,.19h0Z"/>
        <path class="cls-1" d="M190.33,224.3c6.95-2,13.67-4.77,20.01-8.27,1.69-.93,.18-3.52-1.51-2.59-6.12,3.37-12.58,6.04-19.29,7.97-1.85,.53-1.06,3.43,.8,2.89h0Z"/>
        <path class="cls-5" d="M174.37,471.12c-1.02,7.41-2.68,10.76-3.91,19.83-.01,.13-.03,.26-.05,.39-8.26,3.18-13.71,3.35-19.23-.96,0,0-.01,0-.01-.01-.22-.39-.62-.36-.82-.75l.45-22.34c.14-.09,.27-.17,.41-.26,7.1,2.03,14.7,2.99,22.21,2.94,.28,.43,.59,.83,.95,1.16Z"/>
        <path class="cls-1" d="M150.89,469.77c2.98,1.83,6.73,2.03,10.12,2.48,3.77,.5,7.57,.82,11.37,.41,.81-.09,1.49-.63,1.5-1.5,0-.74-.7-1.59-1.5-1.5-3.52,.38-7.05,.14-10.56-.3-3.08-.39-6.71-.52-9.42-2.18-1.65-1.01-3.16,1.58-1.51,2.59h0Z"/>
        <path class="cls-12" d="M125.97,121.24c-.64-.34-1.29-.69-1.76-1.24-.1-.12-.2-.26-.22-.42-.02-.19,.07-.38,.19-.52,.26-.32,.64-.51,1.01-.68,1.02-.48,2.11-.9,3.23-.83,.07,0,.14,.01,.2,.05,.06,.05,.1,.13,.12,.2,.09,.28,.14,.57,.16,.87"/>
        <path class="cls-5" d="M149.61,120.69c-.12,.7-1.19,.19-1.17,.9-2.52,1.47-5.42,2.29-8.35,2.33-1.25,.02-2.51-.1-3.76-.23-3.15-.32-6.5-.83-9.24-2.27,.05-.13-.43-.67-.42-.8,.03-.42,.37-.41,.22-.8-.02-.06-.05-.12-.07-.18,.73-1.09,.96-2.5,1.12-3.83,.79-6.3,1.16-12.93-1.29-18.76,.18-.11,.36-.21,.54-.32,5.89,2.8,12.65,3.61,18.81,1.54,.4-.13,.79-.28,1.17-.44,.17,.19,.75-.1,.92,.09-.84,3.59-1.99,7.71-2,11.39-.01,3.53,1.73,8.36,3.52,11.38Z"/>
        <path class="cls-1" d="M127.78,99.47c6.05,2.81,12.84,3.35,19.17,1.09,1.8-.65,1.03-3.55-.8-2.89-5.54,1.98-11.51,1.7-16.85-.79-.73-.34-1.62-.21-2.05,.54-.38,.65-.2,1.71,.54,2.05h0Z"/>
        <path class="cls-12" d="M159.2,88.23c.64,4.54,4.54,8.04,9.26,8.04,5.17,0,9.35-4.19,9.35-9.35s-4.19-9.35-9.35-9.35l7.83,4.05c3.46-1.47,6.37-4.18,8.1-7.52s2.25-7.28,1.46-10.96c-.48-2.24-1.57-4.52-3.55-5.66s-4.99-.65-5.95,1.44l2.75-2.05c.29-.14,.45-.46,.57-.77,.45-1.12,.75-2.31,.87-3.52,.28-2.71-.33-5.54-1.89-7.78s-4.08-3.82-6.8-4.05h-17.2v45.6"/>
        <path class="cls-12" d="M88.05,55.27c-5.71,5.49-8.87,13.98-6.74,21.62,.74,2.65,2.13,5.19,4.26,6.93s5.08,2.59,7.74,1.86l-4.16,.26c-.85,1.09-.95,2.62-.62,3.97,.56,2.25,2.31,4.16,4.49,4.94s4.75,.38,6.6-1.02l-1.68,1.36c-.62,2.39,.47,4.99,2.3,6.65s4.27,2.48,6.7,2.88c3.03,.49,6.22,.36,9.06-.81s5.28-3.47,6.23-6.39c.45-1.39,.55-2.96-.09-4.27V55.29l-34.09-.02Z"/>
        <path class="cls-5" d="M164.61,75.76c-2.31,9.73-8.85,18.93-18.33,22.11-10.55,3.54-22.82-1.33-29.52-10.22-5.9-7.83-7.79-18.15-6.47-27.92,.53-.57,.62-2.66,.95-3.38,.41-.89,.97-.38,1.09-1.35h0c.19-1.66,.17-3.38,.66-4.97,.51-1.69,1.56-3.15,2.58-4.58,3.78-5.24,7.73-10.65,13.36-13.83,1.69-.96,3.56-1.71,5.51-1.76,2.43-.05,4.74,.97,6.96,1.97,3.67,1.67,7.34,3.33,11.01,4.99,2.27,1.03,4.55,2.07,6.64,3.43,.49,.32,.98,.66,1.29,1.15,.38,.59,.47,1.31,.57,2.01,.11,.78,.25,1.55,.44,2.32,.32,1.26,1.31-.22,1.99,.88,.46,.73,.49,4.12,1.15,4.67,1.46,8.14,2.02,16.48,.12,24.48Z"/>
        <path class="cls-12" d="M90.86,57.72c-1.78-1.22-3.23-3.08-3.5-5.22-.09-.68-.05-1.37,.04-2.05,.64-4.72,4.43-8.85,9.08-9.88l1.17,.96c-2.52-3.48-3.22-8.19-1.83-12.25s4.84-7.35,8.96-8.55c2.37-.69,5.07-.67,7.16,.66l-1.66-.74c.32-5.4,3.69-10.51,8.52-12.94s10.95-2.07,15.47,.9c1.24,.81,2.47,2.15,2.09,3.58l-.51-2.82c1.91-5.05,7.98-7.74,13.29-6.78,5.31,.96,9.71,4.95,12.31,9.67,1.32,2.4,2.26,5.1,2.07,7.83v-4.48c3.23,.29,6.26,2.08,8.27,4.64s3.05,5.81,3.15,9.07c.1,3.32-.74,6.67-2.42,9.54-1.89,3.23-4.94,5.91-8.59,6.73s-7.85-.47-9.95-3.57l.51-.67c-3.71,4.58-11.16,5.51-15.88,1.98-5.5,3.54-13.37,2.84-18.15-1.62-1.72,4.34-3.53,8.82-6.88,12.07-1.87,1.8-4.35,3.12-6.89,3.55"/>
        <path class="cls-5" d="M165.52,57.47c.89-1.26,2.39-2.04,3.9-2.03,.38,0,.77,.05,1.11,.21,.68,.31,1.14,.97,1.47,1.66,.92,1.93,1.05,4.24,.33,6.26-.17,.49-.4,.98-.72,1.38-.66,.84-1.73,1.3-2.78,1.28s-2.08-.5-2.83-1.26"/>
        <path class="cls-5" d="M110.05,61.51c-.93-1.23-2.46-1.95-3.98-1.89-.38,.02-.76,.08-1.11,.25-.67,.33-1.1,1.02-1.4,1.71-.85,1.96-.89,4.28-.1,6.27,.19,.49,.44,.96,.77,1.35,.7,.81,1.78,1.23,2.83,1.18s2.06-.58,2.78-1.36"/>
        <path class="cls-14" d="M189.58,468.05c-15.43,3.29-33.56,1.99-47.88-4.64l-.03-.02c1.75-2.29,2.68-6.2,2.47-9.08l-.05-.09c13.81,3.92,28.85,4.93,42.79,1.51v.02c.71,3.38,1.69,7.77,2.41,11.15"/>
        <path class="cls-5" d="M226.02,173.99c.51-4,1.43-7.61,2.47-11.51,.34-1.28,1.18-3.45,1.8-4.62,1.1-2.08,2.3-3.82,4.13-5.29,.84-.67,2.28-1.06,3.35-1.02s2.54,2.06,2.01,3c1.05-1.36,2.77-2.71,4.48-2.75s3.37,1.32,4.2,2.82c1.03,1.88,.54,3.71,.04,5.79,1.35-1.2,3.65-.44,4.89,.88s1.45,3.39,.8,5.07c1.29-.49,2.82,.1,3.68,1.18,.86,1.08,1.11,2.54,.98,3.91-.13,1.37-.59,2.69-1.06,3.98,1.11,.19,1.93,1.23,2.2,2.32s.11,2.25-.06,3.36c-.14,.92-.29,1.87-.74,2.69-.45,.83-1.17,1.48-1.73,2.24-.52,.69-1.44,1.44-2.05,2.06-.52,.52-.66,.93-1.32,1.25-6.12,3-13.42,3.27-20.23,3.59"/>
        <path class="cls-4" d="M182.51,195.15c-6.39-26.61-14.21-54.22-32.46-74.61l-.03,.02c-2.82,2.04-6.28,3.2-9.77,3.25-1.26,.02-2.51-.1-3.76-.23-4.57-.47-9.58-1.34-12.51-4.88l-.08-.04c-19.44,17.42-28.25,44.59-32.89,70.28-4.64,25.69-5.62,50.07-2.7,76.01l.02-.04c7.41,7.42,18.22,10.77,28.63,12.09,24.79,3.12,50.27,.71,74.03-7.02l.25-.09c1.78-15.92-.29-32.25-3.38-47.96"/>
        <g class="cls-19">
          <path class="cls-8" d="M143.93,123.77c-59.58,43.33-28.89,153.38-28.89,153.38-9.81-1.47-19.76-4.85-26.71-11.81l-.02,.04c-2.91-25.95-1.94-50.33,2.7-76.02,4.65-25.69,13.45-52.86,32.9-70.28l.07,.04c2.93,3.54,7.94,4.41,12.51,4.88,1.25,.13,2.51,.25,3.77,.23,1.23-.02,4.67-1.18,3.67-.46Z"/>
        </g>
        <path class="cls-5" d="M241.95,191.9c-23.8,17.79-41.14,28.12-70.31,33.79-5.33,1.04-21.25,4.37-26.4,2.64l-1.71-.69c-5.13-5.25-9.59-12.89-12.26-19.74l-7.24,1.64c15.98-2.82,30.62-12.52,39.45-26.13l-5.34,7.59c11.59,5.08,25.32,5.53,37.4,1.77,12.08-3.76,22.77-11.53,30.61-21.46"/>
        <path class="cls-12" d="M136.48,9.74c2.4-6,9.87-7.99,15.54-5.76,6.19,2.44,11.75,9.58,11.43,16.39-.02,.46,.7,.46,.72,0,.34-7.26-5.65-14.8-12.31-17.22-6.02-2.19-13.59,.18-16.08,6.39-.17,.43,.52,.62,.69,.19h0Z"/>
        <path class="cls-12" d="M110.93,20.93c.41-5.65,4.05-10.93,9.34-13.08,2.69-1.09,5.69-1.36,8.54-.85,2.31,.41,8.07,2.15,7.49,5.37-.08,.45,.61,.65,.69,.19,.56-3.13-3.5-4.94-5.89-5.73-3.18-1.05-6.72-1.09-9.91-.08-6.18,1.94-10.52,7.77-10.98,14.17-.03,.46,.69,.46,.72,0h0Z"/>
        <path class="cls-12" d="M112.41,21.36c-5-3-11.51,.15-14.68,4.39-3.56,4.75-3.51,11.42-.11,16.24,.26,.38,.89,.02,.62-.36-3.13-4.44-3.33-10.5-.25-15.02,2.87-4.2,9.21-7.53,14.05-4.63,.4,.24,.76-.38,.36-.62h0Z"/>
        <path class="cls-12" d="M91.33,57.69c-1.54-1.08-2.85-2.62-3.24-4.5s.13-3.97,.95-5.67c1.53-3.15,4.42-5.53,7.83-6.33,.45-.11,.26-.8-.19-.69-3.8,.89-7.02,3.67-8.53,7.26-.76,1.8-1.19,3.94-.69,5.87s1.89,3.53,3.52,4.68c.38,.27,.74-.36,.36-.62h0Z"/>
        <path class="cls-12" d="M87.91,55.17c-4.96,4.85-8.14,11.86-7.41,18.88,.67,6.46,5.58,13.95,13.02,12.12,.45-.11,.26-.81-.19-.69-7.63,1.88-12.05-6.56-12.21-12.94s2.81-12.48,7.3-16.86c.33-.32-.18-.83-.51-.51h0Z"/>
        <path class="cls-12" d="M88.95,85.9c-1.95,2.65-.32,6.46,2,8.28,2.59,2.03,6.32,2.04,8.97,.1,.37-.27,.01-.9-.36-.62-2.36,1.73-5.63,1.83-8.01,.08-2.15-1.59-3.75-5.05-1.97-7.47,.28-.37-.35-.73-.62-.36h0Z"/>
        <path class="cls-12" d="M97.71,95.23c-1.7,7.57,7.74,10.52,13.51,10.23,3.32-.17,6.6-1.32,8.97-3.7,2.1-2.11,3.66-5.4,2.41-8.31-.18-.42-.8-.06-.62,.36,1.21,2.82-.72,6.08-2.82,7.93-2.31,2.03-5.35,2.94-8.39,3.02-2.87,.08-5.99-.42-8.52-1.85s-4.56-4.37-3.86-7.48c.1-.45-.59-.64-.69-.19h0Z"/>
        <path class="cls-12" d="M176.5,82.06c6.57-2.9,10.71-9.74,10.03-16.93-.28-2.94-1.35-6.42-4.15-7.9-2.14-1.13-5.14-.62-6.31,1.64-.21,.41,.41,.78,.62,.36,1.37-2.66,5-2.18,6.77-.25,2.06,2.25,2.56,5.72,2.39,8.65-.35,6.08-4.18,11.37-9.72,13.81-.42,.19-.06,.81,.36,.62h0Z"/>
        <path class="cls-12" d="M179.32,57.31c.66-.43,.87-1.26,1.09-1.98,.32-1.02,.51-2.07,.57-3.14,.12-1.89-.2-3.81-.95-5.55-1.43-3.33-4.51-5.75-8.14-6.11-.46-.05-.46,.67,0,.72,3.21,.32,5.99,2.46,7.34,5.35,.7,1.5,1.05,3.15,1.05,4.8,0,.86-.09,1.72-.27,2.57-.16,.76-.37,2.26-1.06,2.72-.39,.25-.02,.88,.36,.62h0Z"/>
        <path class="cls-12" d="M125.3,59.7c1.81-3.51,5.75-5.64,9.68-5.27,.46,.04,.46-.68,0-.72-4.16-.4-8.38,1.91-10.3,5.62-.21,.41,.41,.78,.62,.36h0Z"/>
        <path class="cls-12" d="M159.09,59.08c-1.9-3.72-6.11-6.05-10.27-5.67-.46,.04-.46,.76,0,.72,3.93-.36,7.86,1.8,9.65,5.32,.21,.41,.83,.05,.62-.36h0Z"/>
        <path class="cls-12" d="M143.78,63.32c.07,2.11,.26,4.39,1.48,6.18,.57,.84,1.9,1.83,.85,2.82-.91,.85-2.17,1.2-3.39,1.07-.46-.05-.46,.67,0,.72,1.24,.13,2.5-.21,3.51-.96s1.34-1.68,.64-2.75c-.32-.49-.75-.91-1.07-1.4-.36-.57-.62-1.19-.81-1.84-.36-1.25-.44-2.55-.48-3.85-.01-.46-.73-.46-.72,0h0Z"/>
        <path class="cls-12" d="M132.9,76.58c1.84,5.2,7.4,8.15,12.74,6.72,.45-.12,.26-.81-.19-.69-4.95,1.33-10.15-1.38-11.86-6.21-.15-.43-.85-.25-.69,.19h0Z"/>
        <path class="cls-12" d="M126.54,120.77c1.25-1.26,1.76-3,2.01-4.72,.31-2.19,.51-4.41,.6-6.62,.17-4.43-.3-8.85-2.07-12.95-.18-.42-.8-.06-.62,.36,1.66,3.84,2.1,8.01,1.98,12.16-.06,1.99-.24,3.97-.47,5.94s-.54,3.9-1.94,5.31c-.33,.33,.18,.84,.51,.51h0Z"/>
        <path class="cls-12" d="M149.93,120.43c-4.8-6.78-3.2-15.36-1.42-22.87,.11-.45-.59-.64-.69-.19-1.82,7.69-3.42,16.5,1.49,23.43,.27,.38,.89,.02,.62-.36h0Z"/>
        <path class="cls-12" d="M123.84,119.04c2.95,3.43,7.54,4.39,11.83,4.89,2.57,.3,5.14,.51,7.7,.02s4.86-1.52,6.94-2.99c.38-.27,.02-.89-.36-.62-1.92,1.36-4.06,2.33-6.36,2.83-2.51,.54-5.02,.36-7.54,.08-4.22-.47-8.79-1.33-11.7-4.72-.3-.35-.81,.16-.51,.51h0Z"/>
        <path class="cls-12" d="M88.79,265.05c-2.49-22.31-2.09-44.8,1.21-67,2.79-18.71,7.13-37.64,15.85-54.56,4.71-9.14,10.77-17.58,18.42-24.48,.35-.31-.17-.82-.51-.51-13.76,12.39-22.11,29.47-27.43,46.96-2.79,9.19-4.79,18.6-6.35,28.08-1.81,10.98-2.98,22.06-3.4,33.18-.48,12.8,.06,25.61,1.48,38.34,.05,.46,.77,.46,.72,0h0Z"/>
        <path class="cls-12" d="M154.07,278.05c12.62-1.18,25.07-3.73,37.13-7.63,.44-.14,.25-.84-.19-.69-11.99,3.88-24.38,6.43-36.93,7.61-.46,.04-.46,.76,0,.72h0Z"/>
        <path class="cls-12" d="M110.99,276.45c12.19,2.49,25.04,2.74,37.42,2.03,.46-.03,.46-.75,0-.72-6.21,.36-12.43,.4-18.64,.09s-12.49-.84-18.59-2.09c-.45-.09-.65,.6-.19,.69h0Z"/>
        <path class="cls-12" d="M88.19,265.26c4.99,4.95,11.4,8.08,18.09,10.03,.45,.13,.64-.56,.19-.69-6.58-1.91-12.87-4.98-17.78-9.84-.33-.33-.84,.18-.51,.51h0Z"/>
        <path class="cls-12" d="M99.05,322.18c-1.12-3.9-2.51-7.72-4.06-11.47-1.28-3.09-2.71-6.11-3.79-9.28-2.32-6.8-3.6-13.98-3.81-21.17-.14-4.83,.23-9.65,1.11-14.4,.08-.45-.61-.65-.69-.19-1.47,7.9-1.51,16-.26,23.93,1.05,6.62,3.1,12.82,5.75,18.94,1.95,4.5,3.7,9.1,5.06,13.82,.13,.44,.82,.26,.69-.19h0Z"/>
        <path class="cls-12" d="M72.02,395.15c7.03-7.37,14.75-14.5,20.25-23.15,2.77-4.35,4.78-9.12,6.33-14.03s2.67-10.17,2.96-15.43c.3-5.61-.31-11.22-1.56-16.69-.1-.45-.8-.26-.69,.19,2.3,10.09,2.02,20.27-.92,30.2-1.47,4.97-3.37,9.83-6.04,14.29s-5.71,8.07-9.04,11.72c-3.84,4.21-7.85,8.27-11.79,12.4-.32,.34,.19,.85,.51,.51h0Z"/>
        <path class="cls-12" d="M154.62,316.4c-.16,12.42-.27,24.84-.47,37.26-.19,11.52-.74,23.34-5.01,34.19-7.8,19.86-26.53,32.55-43,44.76-11.44,8.47-22.87,16.94-34.31,25.42-.25,.18-.23,.56,.09,.66h.03c.38,.14,.65-.47,.28-.65-9.98-4.83-19-11.26-24.45-21.15-1.35-2.44-2.46-5.02-3.24-7.7-.17-.59-.33-1.19-.47-1.79-.12-.54-.45-1.44-.39-1.99,0-.07-.12,.01-.09-.12,.02-.07,.14-.14,.17-.21,.21-.37,.59-.71,.85-1.03,3.34-4.03,7.22-7.68,10.83-11.47,4.68-4.92,9.36-9.85,14.04-14.77,.32-.34-.19-.85-.51-.51-4.41,4.63-8.81,9.27-13.22,13.91-2.26,2.38-4.53,4.75-6.79,7.13-1.64,1.71-3.35,3.37-4.86,5.2-.33,.4-.86,.84-1.08,1.31-.34,.71,.17,1.99,.34,2.75,.6,2.62,1.55,5.15,2.71,7.58,2.38,4.95,5.71,9.46,9.77,13.16,4.72,4.31,10.29,7.57,16.02,10.34l.28-.66h-.03c.03,.21,.06,.43,.09,.65,10.37-7.68,20.75-15.37,31.12-23.05,8.78-6.5,17.76-12.84,25.93-20.11,7.56-6.73,14.48-14.43,18.92-23.61,4.96-10.27,6.21-21.72,6.58-32.98,.46-14.15,.42-28.34,.6-42.5,0-.46-.71-.46-.72,0h0Z"/>
        <path class="cls-12" d="M140.11,403.5c1.37,17.04,3.64,33.99,5.01,51.04,.04,.46,.76,.46,.72,0-1.37-17.04-3.64-33.99-5.01-51.04-.04-.46-.76-.46-.72,0h0Z"/>
        <path class="cls-12" d="M143.81,454.75c13.94,3.92,28.83,4.93,42.98,1.51,.45-.11,.26-.8-.19-.69-14.03,3.39-28.78,2.38-42.6-1.51-.45-.13-.64,.57-.19,.69h0Z"/>
        <path class="cls-12" d="M196.5,307.79c-.67-12.59-2.02-25.14-4.32-37.53-.08-.45-.78-.26-.69,.19,2.29,12.33,3.63,24.82,4.3,37.34,.02,.46,.74,.46,.72,0h0Z"/>
        <path class="cls-12" d="M196.36,352.18c.67-13.4,.87-26.82,.34-40.22-.02-.46-.74-.46-.72,0,.53,13.41,.33,26.83-.34,40.22-.02,.46,.7,.46,.72,0h0Z"/>
        <path class="cls-12" d="M185.63,456.16c3-25.54,6.46-51.03,8.7-76.65,.66-7.5,1.21-15.01,1.63-22.53,.03-.46-.69-.46-.72,0-1.45,25.94-4.55,51.73-7.71,77.5-.89,7.22-1.77,14.45-2.62,21.67-.05,.46,.67,.46,.72,0h0Z"/>
        <path class="cls-12" d="M141.79,463.76c.98-1.3,1.6-2.85,2.01-4.41s.62-3.23,.51-4.86c-.03-.46-.75-.46-.72,0,.21,3.02-.58,6.46-2.42,8.9-.28,.37,.35,.73,.62,.36h0Z"/>
        <path class="cls-12" d="M189.45,466.98c-.8-3.72-1.63-7.43-2.42-11.15-.1-.45-.79-.26-.69,.19,.8,3.72,1.63,7.43,2.42,11.15,.1,.45,.79,.26,.69-.19h0Z"/>
        <path class="cls-12" d="M141.33,463.9c14.84,6.81,32.27,8.02,48.15,4.68,.45-.1,.26-.79-.19-.69-15.69,3.3-32.94,2.12-47.6-4.6-.42-.19-.78,.43-.36,.62h0Z"/>
        <path class="cls-12" d="M149.96,490.16c2.53,2.12,5.44,3.59,8.77,3.84,3.91,.29,7.8-.94,11.41-2.31,.11-.04,.23-.12,.25-.25,.98-7.17,3.11-14.1,4.11-21.27,.06-.45-.63-.65-.69-.19-.94,6.79-2.96,13.35-3.95,20.13-.1,.7-.12,.86-.73,1.2-.46,.26-1.08,.39-1.59,.56-.86,.29-1.74,.55-2.62,.77-1.72,.43-3.49,.72-5.26,.69-3.48-.05-6.54-1.46-9.18-3.67-.35-.3-.87,.21-.51,.51h0Z"/>
        <path class="cls-12" d="M150.06,467.01c-.08,6.59-.16,13.18-.25,19.77-.01,.95-.02,1.9-.04,2.85,0,.46,.71,.46,.72,0,.08-6.59,.16-13.18,.25-19.77,.01-.95,.02-1.9,.04-2.85,0-.46-.71-.46-.72,0h0Z"/>
        <g>
          <path class="cls-12" d="M37.97,434.34c1.76-1.7,3.53-3.39,5.29-5.09l.75-.72c.33-.32-.17-.83-.51-.51-1.76,1.7-3.53,3.39-5.29,5.09l-.75,.72c-.33,.32,.17,.83,.51,.51h0Z"/>
          <path class="cls-12" d="M63.78,463.69c1.68-1.82,3.36-3.63,5.04-5.45l.71-.77c.31-.34-.19-.85-.51-.51-1.68,1.82-3.36,3.63-5.04,5.45l-.71,.77c-.31,.34,.19,.85,.51,.51h0Z"/>
          <path class="cls-12" d="M37.24,434.35c4.22,12.48,13.08,25.13,25.98,29.61,.44,.15,.63-.54,.19-.69-12.64-4.39-21.34-16.88-25.48-29.11-.15-.44-.84-.25-.69,.19h0Z"/>
        </g>
        <path class="cls-12" d="M25.5,452.71c5-4.1,9.53-8.77,14.1-13.34,.33-.33-.18-.84-.51-.51-4.57,4.56-9.1,9.24-14.1,13.34-.36,.29,.15,.8,.51,.51h0Z"/>
        <path class="cls-12" d="M24.71,452.66c.4,2.06,1.34,4.05,2.4,5.85,1.61,2.72,3.74,5.14,6.27,7.04,1.74,1.31,3.66,2.33,5.7,3.11,.43,.16,.62-.53,.19-.69-4.17-1.58-7.76-4.38-10.35-8-1.58-2.21-3-4.8-3.51-7.49-.09-.45-.78-.26-.69,.19h0Z"/>
        <path class="cls-12" d="M39.48,468.6c2.21-1.62,4.24-3.51,6.33-5.29s4.34-3.68,6.5-5.52c.35-.3-.16-.81-.51-.51-2.1,1.79-4.21,3.57-6.31,5.36s-4.15,3.71-6.38,5.34c-.37,.27-.01,.9,.36,.62h0Z"/>
        <path class="cls-12" d="M24.82,452.36c-7.18,2.56-13.55,6.8-18.81,12.31-2.51,2.63-5.34,5.68-5.92,9.41s1.6,7.36,3.75,10.37c9.44,13.21,20.43,25.61,33.73,35.04,1.91,1.35,3.85,2.73,5.91,3.85,1.74,.95,3.79,1.67,5.76,1.02,4.09-1.35,4.52-6.32,4.56-9.93,0-.46-.72-.46-.72,0-.04,3.6-.65,9.52-5.54,9.46-2.11-.02-4.03-1.32-5.74-2.42-1.49-.95-2.95-1.95-4.39-2.98-6.07-4.35-11.65-9.35-16.81-14.74s-9.86-11.11-14.27-17.08c-2.19-2.96-4.89-6.15-5.52-9.89-.7-4.11,2.01-7.55,4.59-10.41,5.38-5.97,12-10.62,19.59-13.32,.43-.15,.25-.85-.19-.69h0Z"/>
        <path class="cls-12" d="M216.86,519.15c.8,1.9,.9,4.09-.45,5.76-1.17,1.46-3,2.31-4.86,2.43-3.62,.23-7.34,0-10.97-.03-6.28-.05-12.55-.15-18.83-.24-6.86-.1-13.72-.17-20.57-.19-3.73,0-7.3,.09-10.56-2.02s-4.49-5.72-4.78-9.55c-.65-8.61,.82-17.26,4.63-25.03,.2-.41-.42-.78-.62-.36-3.61,7.37-5.16,15.46-4.82,23.65,.14,3.37,.47,7.05,2.73,9.74s5.53,4.01,8.84,4.25c4.22,.31,8.54,.05,12.77,.08,3.64,.03,7.28,.07,10.91,.13,7.1,.1,14.21,.22,21.31,.27,2.28,.02,4.56,.03,6.84,.03,1.98,0,3.96,.16,5.81-.65,3.57-1.57,4.71-5.13,3.24-8.63-.18-.43-.8-.06-.62,.36h0Z"/>
        <path class="cls-12" d="M145.2,228.91c2.2,.7,4.68,.56,6.94,.41,3.11-.2,6.21-.63,9.28-1.13,6.16-1,12.33-2.19,18.39-3.66,14.29-3.47,27.77-9.15,40.31-16.83,7.63-4.67,14.9-9.9,22.06-15.25,.37-.27,0-.9-.36-.62-11.93,8.91-24.23,17.5-37.84,23.69-12.63,5.75-26.03,9.02-39.64,11.45-3.54,.63-7.1,1.2-10.69,1.52-2.66,.24-5.67,.56-8.26-.27-.44-.14-.63,.55-.19,.69h0Z"/>
        <path class="cls-12" d="M230.11,169.33l7.1-9.86c1.15-1.59,2.27-3.2,3.44-4.77,.99-1.33,2.31-2.78,4.13-2.58,1.68,.18,3.01,1.63,3.58,3.14,.67,1.78,.21,3.74-.58,5.4-1.6,3.39-4.35,6.37-6.84,9.12-.31,.34,.2,.85,.51,.51,2.28-2.51,4.61-5.17,6.33-8.1,1.38-2.36,2.28-5.27,.95-7.85-1.09-2.11-3.52-3.66-5.87-2.62-1.11,.49-1.94,1.43-2.66,2.38-1.09,1.43-2.12,2.92-3.17,4.39l-7.54,10.47c-.27,.38,.35,.74,.62,.36h0Z"/>
        <path class="cls-12" d="M249.19,160.27c2.08-.69,4.24,.85,4.83,2.86,.72,2.47-.6,5.07-2.2,6.88-2.82,3.21-6.95,5.39-8.25,9.72-.13,.44,.56,.63,.69,.19,1.6-5.36,7.82-7.32,9.98-12.35,.86-1.99,1.02-4.4-.33-6.22-1.13-1.52-3.07-2.39-4.92-1.78-.44,.14-.25,.84,.19,.69h0Z"/>
        <path class="cls-12" d="M254.59,166.58c2.11,.15,3.63,2.04,3.97,4.03,.42,2.43-.88,4.86-2.35,6.69-2.69,3.35-6.45,5.76-10.57,6.93-.44,.13-.26,.82,.19,.69,4.79-1.36,9.38-4.42,12.02-8.7,1.23-2,1.98-4.51,1.13-6.8-.71-1.91-2.31-3.42-4.39-3.57-.46-.03-.46,.69,0,.72h0Z"/>
        <path class="cls-12" d="M245.3,192.56c4.38-.19,8.6-2.12,11.62-5.31,2.81-2.96,5.53-8.37,1.9-11.8-.34-.32-.85,.19-.51,.51,3.53,3.34,.33,8.65-2.43,11.31s-6.65,4.39-10.59,4.57c-.46,.02-.46,.74,0,.72h0Z"/>
        <path class="cls-12" d="M227.34,169.09c.44-3.98,1.59-7.85,3.4-11.42,.21-.41-.41-.78-.62-.36-1.86,3.69-3.04,7.67-3.49,11.78-.05,.46,.67,.46,.72,0h0Z"/>
        <path class="cls-12" d="M233.69,153.59c.51-.46,1.04-.85,1.63-1.2,.63-.37,1.36-.72,2.12-.62,1.2,.17,2.24,1.41,2.07,2.64-.06,.45,.63,.65,.69,.19,.21-1.56-.86-3.13-2.4-3.49-.89-.21-1.77,.07-2.55,.49s-1.44,.9-2.07,1.47c-.34,.31,.17,.82,.51,.51h0Z"/>
        <g>
          <path class="cls-12" d="M224.88,147.88c2.16,5.37,6.25,9.54,10.27,13.57,.33,.33,.84-.18,.51-.51-3.92-3.93-7.98-8.01-10.08-13.25-.17-.42-.87-.24-.69,.19h0Z"/>
          <path class="cls-12" d="M225.11,147.98c5.15,1.99,8.73,6.46,12.04,10.68,.29,.36,.79-.15,.51-.51-3.4-4.33-7.07-8.82-12.36-10.86-.43-.17-.62,.53-.19,.69h0Z"/>
        </g>
        <path class="cls-12" d="M257.54,186.33c5.34,3.6,10.8,7.31,15.05,12.21,.3,.35,.81-.16,.51-.51-4.29-4.95-9.81-8.69-15.2-12.32-.39-.26-.75,.36-.36,.62h0Z"/>
        <path class="cls-12" d="M259.96,180.67c4.74,5.25,10.14,9.87,16.06,13.75,.39,.25,.75-.37,.36-.62-5.86-3.84-11.21-8.43-15.91-13.63-.31-.34-.82,.17-.51,.51h0Z"/>
        <path class="cls-12" d="M272.86,198.65c.54,.03,.98-.35,1.39-.65s.82-.62,1.16-1.02c.7-.81,1-1.83,1.12-2.87,.02-.19-.18-.36-.36-.36-.21,0-.34,.17-.36,.36-.1,.84-.35,1.71-.91,2.36-.27,.32-.59,.59-.93,.84-.18,.13-.36,.27-.55,.4-.18,.12-.35,.23-.57,.22-.46-.02-.46,.7,0,.72h0Z"/>
        <path class="cls-12" d="M191.72,269.98c1.76-16.08-.3-32.27-3.39-48.06-.09-.45-.78-.26-.69,.19,3.09,15.73,5.12,31.85,3.37,47.87-.05,.46,.67,.46,.72,0h0Z"/>
        <path class="cls-12" d="M174.45,166.75c3.06,9.4,5.52,18.98,7.83,28.59,.11,.45,.8,.26,.69-.19-2.31-9.61-4.77-19.19-7.83-28.59-.14-.44-.84-.25-.69,.19h0Z"/>
        <path class="cls-12" d="M167.26,148.1c2.43,5.32,4.53,10.78,6.41,16.32,.15,.44,.84,.25,.69-.19-1.9-5.6-4.03-11.11-6.48-16.49-.19-.42-.81-.06-.62,.36h0Z"/>
        <path class="cls-12" d="M149.91,120.89c6.75,7.58,12.13,16.23,16.5,25.38,.2,.42,.82,.05,.62-.36-4.39-9.2-9.82-17.89-16.61-25.52-.31-.35-.82,.16-.51,.51h0Z"/>
        <path class="cls-12" d="M168.49,78.06c5.65,.08,10.03,5.35,8.78,10.94s-7.45,8.62-12.59,6.21c-2.78-1.3-4.65-3.92-5.11-6.94-.07-.46-.76-.26-.69,.19,.95,6.13,7.5,9.95,13.29,7.58s7.75-9.25,4.47-14.27c-1.8-2.76-4.87-4.38-8.15-4.43-.46,0-.46,.71,0,.72h0Z"/>
        <path class="cls-12" d="M165.83,57.65c.92-1.26,2.85-2.31,4.43-1.73,.84,.3,1.3,1.2,1.61,1.98s.5,1.64,.55,2.5c.08,1.58-.22,3.71-1.53,4.77-1.43,1.16-3.39,.75-4.63-.46-.33-.32-.84,.19-.51,.51,1.1,1.07,2.65,1.63,4.17,1.23,1.61-.43,2.51-1.78,2.93-3.32,.46-1.65,.4-3.46-.15-5.08-.51-1.48-1.38-2.88-3.09-2.98s-3.4,.82-4.41,2.21c-.27,.37,.35,.73,.62,.36h0Z"/>
        <path class="cls-12" d="M166.21,59.26c.1-.05-.03,.01,.03-.01,.03-.01,.06-.02,.08-.03,.06-.02,.11-.04,.17-.05,.05-.01,.1-.02,.16-.03,.04,0-.04,0,.03,0,.03,0,.06,0,.09,0,.11,0,.23,0,.34,0s-.04,0,.03,0c.03,0,.06,.01,.09,.02,.06,.01,.12,.03,.17,.04,.39,.11,.76,.37,.97,.7,.11,.16,.32,.23,.49,.13,.16-.09,.24-.33,.13-.49-.67-1.03-2.04-1.4-3.14-.9-.18,.08-.22,.34-.13,.49,.11,.18,.32,.21,.49,.13h0Z"/>
        <ellipse class="cls-12" cx="133.9" cy="63.1" rx="2.12" ry="3.58"/>
        <ellipse class="cls-12" cx="153.29" cy="63.1" rx="2.12" ry="3.58"/>
        <circle class="cls-3" cx="135.79" cy="62.4" r="1.08"/>
        <circle class="cls-3" cx="155.27" cy="62.4" r="1.08"/>
        <path class="cls-12" d="M171.94,492.98c2.74,6.04,9.04,9.26,14.77,11.91,6.94,3.21,14.22,5.62,21.69,7.22,.45,.1,.64-.6,.19-.69-7.26-1.56-14.34-3.87-21.1-6.96-5.75-2.63-12.18-5.78-14.93-11.84-.19-.42-.81-.06-.62,.36h0Z"/>
        <path class="cls-12" d="M209.86,512.5c2.77,.33,5.19,2.51,6.19,5.06,.17,.43,.86,.24,.69-.19-1.13-2.88-3.76-5.22-6.88-5.58-.46-.05-.46,.67,0,.72h0Z"/>
        <path class="cls-12" d="M2.76,469.82c6.6,12.36,15.44,23.83,25.81,33.27,2.81,2.55,5.76,4.94,8.87,7.11,.38,.26,.74-.36,.36-.62-7.29-5.06-13.68-11.36-19.39-18.12s-10.85-14.15-15.04-21.99c-.22-.41-.84-.05-.62,.36h0Z"/>
        <path class="cls-12" d="M38.55,470.76c.27,14.18,4.74,28.11,12.78,39.79,.26,.38,.89,.02,.62-.36-7.97-11.58-12.42-25.37-12.68-39.43,0-.46-.73-.46-.72,0h0Z"/>
        <path class="cls-12" d="M5.74,528.98H300.35c.46,0,.46-.72,0-.72H5.74c-.46,0-.46,.72,0,.72h0Z"/>
        <path class="cls-12" d="M316.45,528.98h250.73c.46,0,.46-.72,0-.72h-250.73c-.46,0-.46,.72,0,.72h0Z"/>
        <path class="cls-12" d="M98.08,96.22c-.25,4.5,2.63,8.7,6.6,10.66,4.61,2.28,10.13,1.46,14.54-.87,.41-.22,.05-.84-.36-.62-4.18,2.21-9.44,3.01-13.81,.87-3.76-1.84-6.48-5.78-6.24-10.04,.03-.46-.69-.46-.72,0h0Z"/>
        <path class="cls-12" d="M176.43,83.17c2.49,4.18,1.02,9.51-2.97,12.16-2.05,1.37-4.56,1.81-6.97,2.1s-5.25,.21-7.23-1.59c-.34-.31-.85,.2-.51,.51,2.12,1.93,5.01,2.12,7.73,1.8s5.36-.8,7.57-2.35c4.15-2.92,5.64-8.55,3-12.99-.24-.4-.86-.04-.62,.36h0Z"/>
        <path class="cls-12" d="M163.2,16.51c3.55-.6,7.28,.77,9.71,3.4s3.51,6.55,3,10.15c-.06,.45,.63,.65,.69,.19,.55-3.87-.51-7.95-3.19-10.86s-6.6-4.23-10.41-3.59c-.46,.08-.26,.77,.19,.69h0Z"/>
        <path class="cls-12" d="M136.87,11.22c-2-3.99,1.59-7.69,4.99-9.22,3.69-1.66,7.96-1.68,11.71-.22,.43,.17,.62-.53,.19-.69-4.18-1.64-9.02-1.44-13.02,.65-3.5,1.83-6.51,5.82-4.49,9.84,.21,.41,.83,.05,.62-.36h0Z"/>
        <path class="cls-12" d="M137.08,44.29c.78-.1,1.52-.37,2.16-.83,.15-.11,.24-.32,.13-.49-.1-.15-.33-.25-.49-.13-.14,.1-.28,.19-.43,.27-.08,.04-.16,.09-.24,.12-.04,.02-.08,.04-.12,.06,.06-.03-.04,.02-.06,.02-.16,.06-.32,.12-.49,.16-.08,.02-.17,.04-.25,.06-.04,0-.09,.02-.13,.02-.01,0-.15,.02-.07,.01-.19,.02-.37,.15-.36,.36,0,.17,.16,.39,.36,.36h0Z"/>
        <path class="cls-12" d="M152.01,44.08c.76-.43,1.54-.84,2.28-1.3,.63-.39,1.23-.87,1.55-1.55,.07-.15,.06-.32-.06-.44-.1-.1-.31-.15-.44-.06-.73,.54-1.47,1.09-2.2,1.63-.16,.12-.23,.31-.13,.49,.09,.15,.34,.25,.49,.13,.73-.54,1.47-1.09,2.2-1.63l-.49-.49c-.29,.61-.83,1.01-1.39,1.35-.71,.43-1.45,.83-2.18,1.24-.4,.23-.04,.85,.36,.62h0Z"/>
        <path class="cls-12" d="M171.5,41.15c.56-.64,.88-1.47,1.24-2.23,.4-.83,.81-1.67,1.21-2.5,.2-.42-.42-.78-.62-.36-.39,.81-.78,1.61-1.17,2.42-.19,.39-.37,.77-.56,1.16-.17,.35-.35,.71-.61,1.01-.3,.35,.2,.86,.51,.51h0Z"/>
        <path class="cls-12" d="M119.21,45.27c.67-1.34,.9-3.01,2.02-4.08,.33-.32-.17-.83-.51-.51-1.18,1.14-1.42,2.82-2.13,4.23-.21,.41,.41,.78,.62,.36h0Z"/>
        <path class="cls-1" d="M113.2,58.35c4.77-3.2,7.25-8.37,9.47-13.48l-2.36,.3c2.29,2.42,5.63,3.44,8.89,3.63,1.51,.09,3.06-.09,4.56-.27s3.04-.44,4.39-1.16c.28-.15,.64-.35,.87-.58,.34-.21,.34-.25,0-.14-.37,.02-.33,.11,.09,.28,.49,.49,1.48,.8,2.11,1.04,1.54,.58,3.23,.81,4.87,.73,3.24-.17,6.34-1.4,9.06-3.12l-1.82-.23c2.36,2.31,5.7,3.72,9.02,3.41,1.91-.18,1.92-3.18,0-3-2.57,.24-5.06-.73-6.9-2.53-.46-.45-1.26-.59-1.82-.23-2.37,1.51-5.08,2.67-7.93,2.73-1.39,.03-2.78-.2-4.05-.79s-2.44-1.77-3.95-.9c-.48,.27-.84,.66-1.35,.89-.65,.29-1.4,.43-2.1,.55-1.31,.22-2.69,.32-4.02,.36-2.8,.07-5.85-.68-7.82-2.76-.6-.64-1.97-.58-2.36,.3-1.98,4.55-4.13,9.53-8.4,12.4-1.6,1.07-.1,3.67,1.51,2.59h0Z"/>
        <path class="cls-12" d="M107.09,57.97c7.94-1.47,11.35-9.12,14.02-15.87l-.6,.16c2.38,2.15,5.35,3.47,8.53,3.86,1.68,.2,3.39,.14,5.05-.19,.81-.16,1.61-.39,2.38-.68,.72-.27,1.44-.84,2.16-1.03,.63-.17,1.47,.61,2.09,.89s1.29,.51,1.96,.67c1.48,.36,3.03,.44,4.54,.26,3.03-.37,5.85-1.79,7.81-4.13,.3-.35-.21-.86-.51-.51-3.74,4.46-10.72,5.33-15.44,1.93-.1-.07-.26-.06-.36,0-5.48,3.42-12.93,2.78-17.72-1.56-.21-.19-.5-.1-.6,.16-2.58,6.52-5.84,13.94-13.52,15.36-.45,.08-.26,.78,.19,.69h0Z"/>
        <path class="cls-12" d="M153.98,42.5c1.8,2.53,4.73,3.91,7.81,3.99,3.32,.08,6.45-1.51,8.77-3.81,5.35-5.31,6.72-14.41,2.8-20.92-2.06-3.43-5.57-5.78-9.56-6.21-.46-.05-.46,.67,0,.72,9.87,1.06,13.11,12.78,9.66,20.81-1.58,3.68-4.53,6.98-8.43,8.22s-8.12,.11-10.44-3.15c-.27-.37-.89-.02-.62,.36h0Z"/>
        <path class="cls-12" d="M110.64,56.13c-1.83,8.29-1.48,17.19,1.83,25.08,3.06,7.3,8.67,13.21,15.98,16.33s15.2,3.06,21.98-.75,11.38-10.53,13.73-17.74c3.46-10.59,1.96-22.09-.39-32.74-.1-.45-.79-.26-.69,.19,2.07,9.41,3.43,19.29,1.34,28.83-1.61,7.36-5.54,14.49-11.64,19.06s-13.92,5.73-21.22,3.51-13.66-7.56-17.25-14.45c-4.32-8.28-4.97-18.11-2.98-27.13,.1-.45-.59-.64-.69-.19h0Z"/>
        <path class="cls-1" d="M107.19,67.36c-.16-.06-.14-.05,.04,.03-.07-.03-.13-.07-.2-.11-.06-.04-.13-.08-.19-.12,.15,.12,.17,.13,.04,.02-.1-.11-.24-.2-.31-.33,.19,.34-.05-.1-.09-.17-.03-.06-.22-.51-.11-.21-.06-.17-.11-.33-.15-.5s-.08-.34-.1-.52c.05,.36,0-.2-.01-.26-.02-.37-.02-.75,0-1.12,.01-.19,.03-.38,.05-.57-.03,.32,.04-.25,.05-.31,.03-.15,.06-.31,.1-.46,.02-.06,.04-.13,.07-.19-.09,.2-.09,.22-.02,.07,.03-.06,.07-.12,.11-.18-.13,.16-.15,.19-.04,.07-.18,.13-.21,.15-.08,.07-.22,.08-.26,.11-.11,.07,.78-.13,1.28-1.13,1.05-1.85-.27-.84-1.01-1.19-1.85-1.05-1.07,.18-1.79,1.3-2.06,2.27s-.35,2.12-.29,3.16c.12,2.19,1.08,4.3,3.28,5.06,.74,.26,1.67-.29,1.85-1.05,.19-.84-.25-1.57-1.05-1.85h0Z"/>
        <path class="cls-12" d="M110.3,61.26c-.94-1.19-2.38-1.95-3.91-1.99-.75-.02-1.5,.13-2.08,.62s-.93,1.18-1.2,1.87c-.63,1.6-.73,3.4-.35,5.07,.35,1.51,1.09,3,2.58,3.63,1.68,.71,3.53,.12,4.75-1.16,.32-.33-.19-.84-.51-.51-1.18,1.23-3.07,1.73-4.55,.69s-1.82-3.21-1.78-4.84c.04-1.46,.5-4.04,2.16-4.53s3.39,.43,4.38,1.68c.29,.36,.79-.15,.51-.51h0Z"/>
        <path class="cls-12" d="M105.73,64.53c.93-1.02,2.52-1.4,3.8-.85,.18,.08,.39,.05,.49-.13,.09-.15,.05-.41-.13-.49-1.57-.68-3.5-.32-4.67,.96-.31,.34,.2,.85,.51,.51h0Z"/>
        <path class="cls-1" d="M133.21,210.27c4.47-1.8,8.98-3.59,13.1-6.1,4.7-2.86,9.05-6.35,12.9-10.27,1.35-1.38-.77-3.5-2.12-2.12-3.68,3.75-7.81,7.06-12.29,9.8-3.9,2.38-8.16,4.1-12.39,5.8-1.77,.71-1,3.61,.8,2.89h0Z"/>
        <path class="cls-12" d="M131.12,208.49c2.82,7.17,6.82,14.08,12.2,19.64,.32,.33,.83-.18,.51-.51-5.29-5.46-9.24-12.27-12.02-19.32-.17-.43-.86-.24-.69,.19h0Z"/>
        <path class="cls-12" d="M157.77,191.42c9.4,4.07,19.93,5.27,30.05,3.75s18.98-5.71,26.8-11.69c4.42-3.38,8.38-7.31,11.84-11.67,.29-.36-.22-.87-.51-.51-12.24,15.41-30.95,25.12-50.86,23.62-5.83-.44-11.58-1.8-16.95-4.13-.42-.18-.79,.44-.36,.62h0Z"/>
        <path class="cls-12" d="M40.1,432.05c2.21,6.99,6.22,13.32,11.61,18.29,.34,.31,.85-.19,.51-.51-5.3-4.89-9.25-11.1-11.43-17.97-.14-.44-.83-.25-.69,.19h0Z"/>
        <path class="cls-12" d="M143.34,460.16c8.77,3.17,18.1,4.55,27.41,4.06,.46-.02,.46-.74,0-.72-9.26,.48-18.5-.89-27.22-4.04-.44-.16-.62,.54-.19,.69h0Z"/>
        <path class="cls-3" d="M142.35,11.54c2.67-2.32,6.62-1.83,8.88,.88,.52,.62,1.59,.54,2.12,0,.62-.62,.52-1.5,0-2.12-1.57-1.88-3.87-3-6.29-3.22s-4.97,.72-6.83,2.34c-.61,.53-.54,1.58,0,2.12,.61,.61,1.51,.53,2.12,0h0Z"/>
        <path class="cls-3" d="M156.07,16.98c1.93,0,1.93-3,0-3s-1.93,3,0,3h0Z"/>
        <path class="cls-3" d="M169.03,30.38c.03,.05,.05,.12,.08,.16-.03-.05-.12-.3-.05-.11,.05,.13,.09,.26,.13,.39,.07,.25,.1,.5,.17,.75-.01-.06-.04-.34-.02-.13,0,.06,.01,.12,.02,.18,0,.14,.01,.27,.01,.41,0,.12,0,.24-.01,.36,0,.14-.11,.54,0,.1-.06,.24-.09,.48-.15,.71-.04,.13-.08,.26-.12,.39-.02,.06-.04,.11-.06,.17-.06,.18,.13-.28,.04-.11-.12,.23-.23,.46-.37,.68-.03,.05-.07,.1-.1,.15-.03,.05-.2,.26-.04,.07,.14-.18,0-.01-.02,.03-.05,.06-.1,.11-.15,.17-.53,.58-.62,1.55,0,2.12,.57,.53,1.56,.62,2.12,0,1.98-2.19,2.4-5.36,1.12-8-.34-.71-1.41-.95-2.05-.54-.73,.47-.9,1.29-.54,2.05h0Z"/>
        <path class="cls-3" d="M167.36,41.64c1.93,0,1.93-3,0-3s-1.93,3,0,3h0Z"/>
        <path class="cls-3" d="M112.82,65.18c-.21,1.71-.08,3.45,.31,5.12,.18,.76,1.09,1.29,1.85,1.05,.8-.26,1.24-1.03,1.05-1.85-.1-.44-.19-.88-.25-1.32l.05,.4c-.15-1.13-.15-2.27-.01-3.4,.04-.35-.2-.82-.44-1.06-.26-.26-.69-.46-1.06-.44s-.79,.14-1.06,.44c-.29,.31-.39,.64-.44,1.06h0Z"/>
        <path class="cls-3" d="M116.16,75.9c1.93,0,1.93-3,0-3s-1.93,3,0,3h0Z"/>
        <path class="cls-9" d="M125.13,209.38c4.24-.98,8.38-2.27,12.37-4.02s7.21-3.91,10.65-6.24c3.01-2.04,5.91-4.18,8.61-6.63s4.9-5.15,6.72-8.35c.96-1.68-1.63-3.19-2.59-1.51-1.73,3.04-3.77,5.51-6.37,7.85s-5.31,4.29-8.16,6.24c-3.22,2.2-6.43,4.28-10,5.88-3.85,1.73-7.92,2.94-12.02,3.89-1.88,.43-1.08,3.33,.8,2.89h0Z"/>
        <path class="cls-12" d="M155.68,160.44c-2.77-5.19-6.15-10.02-10.09-14.39-.31-.34-.82,.17-.51,.51,3.9,4.33,7.23,9.11,9.97,14.25,.22,.41,.84,.05,.62-.36h0Z"/>
        <path class="cls-12" d="M163.9,183.31c-1.59-6.88-3.74-13.62-6.78-20.01-.2-.42-.82-.05-.62,.36,3.01,6.33,5.13,13.02,6.7,19.84,.1,.45,.8,.26,.69-.19h0Z"/>
        <path class="cls-12" d="M119.05,177.16c.31-6.29,1.04-12.56,1.81-18.81,.06-.46-.66-.45-.72,0-.76,6.25-1.5,12.51-1.81,18.81-.02,.46,.7,.46,.72,0h0Z"/>
        <path class="cls-12" d="M124.42,209.55c-4.33-8.83-5.61-18.59-5.5-28.33,0-.46-.71-.46-.72,0-.11,9.87,1.21,19.75,5.59,28.69,.2,.42,.83,.05,.62-.36h0Z"/>
        <path class="cls-12" d="M124.17,210.13c12.56-2.26,24.27-8.64,33.05-17.9,2.46-2.59,4.67-5.41,6.62-8.4,.25-.39-.37-.75-.62-.36-8.86,13.56-23.3,23.09-39.24,25.96-.46,.08-.26,.78,.19,.69h0Z"/>
        <path class="cls-3" d="M169.37,199.88c4.74,1.09,9.58,1.23,14.38,.46,.8-.13,1.25-1.13,1.05-1.85-.23-.85-1.04-1.18-1.85-1.05-4.24,.68-8.6,.5-12.78-.46-1.88-.43-2.68,2.46-.8,2.89h0Z"/>
        <path class="cls-3" d="M188.63,200.13c1.93,0,1.93-3,0-3s-1.93,3,0,3h0Z"/>
        <path class="cls-12" d="M150.67,495.85l1.72-.95c.17-.09,.23-.33,.13-.49s-.32-.23-.49-.13l-1.72,.95c-.17,.09-.23,.33-.13,.49s.32,.23,.49,.13h0Z"/>
        <path class="cls-12" d="M149.91,498.14c1.2-.86,2.48-1.61,3.81-2.25,.18-.08,.22-.33,.13-.49-.1-.18-.32-.21-.49-.13-1.33,.64-2.61,1.39-3.81,2.25-.16,.11-.23,.31-.13,.49,.09,.16,.33,.24,.49,.13h0Z"/>
        <g>
          <path class="cls-12" d="M149.16,325.22c.36-.98,.72-1.96,1.07-2.94,.07-.18-.07-.39-.25-.44-.2-.06-.38,.07-.44,.25-.36,.98-.72,1.96-1.07,2.94-.07,.18,.07,.39,.25,.44,.2,.06,.38-.07,.44-.25h0Z"/>
          <path class="cls-12" d="M149.82,327.77c.57-1.56,1.19-3.11,1.76-4.67,.16-.44-.54-.62-.69-.19-.57,1.56-1.19,3.11-1.76,4.67-.16,.44,.54,.62,.69,.19h0Z"/>
        </g>
        <path class="cls-12" d="M181.01,266.38c1.26-2.13,2.51-4.27,3.77-6.4,.24-.4-.39-.76-.62-.36-1.26,2.13-2.51,4.27-3.77,6.4-.24,.4,.39,.76,.62,.36h0Z"/>
        <path class="cls-12" d="M180.31,262.28l3.77-6.4c.24-.4-.39-.76-.62-.36l-3.77,6.4c-.24,.4,.39,.76,.62,.36h0Z"/>
        <path class="cls-3" d="M167.64,498.58c2.25,3.37,5.43,5.91,9.19,7.43,.73,.29,1.68-.32,1.85-1.05,.2-.87-.27-1.53-1.05-1.85,0,0-.36-.15-.19-.08s-.15-.07-.18-.08c-.2-.09-.4-.19-.6-.28-.39-.2-.78-.41-1.16-.63s-.71-.44-1.06-.68c-.18-.13-.36-.25-.54-.39-.05-.03-.28-.23-.06-.05-.09-.07-.17-.14-.26-.21-.67-.54-1.29-1.14-1.87-1.77-.3-.33-.58-.66-.86-1.01,.09,.11,.07,.09,0-.01-.07-.09-.13-.18-.2-.27-.14-.2-.28-.4-.41-.6-.44-.65-1.34-1-2.05-.54-.65,.42-1,1.35-.54,2.05h0Z"/>
        <path class="cls-12" d="M175.85,498.59c.21,3.34-1.07,7.54-4.56,8.75-1.1,.38-2.38,.31-3.09-.72-.48-.7-.57-1.64-.39-2.45,.42-1.91,2.38-2.99,4.07-3.62,3.14-1.18,6.67-1.56,9.48-3.52,1.24-.87,2.42-2.07,2.72-3.61,.25-1.29-.29-2.61-1.65-2.93-1.71-.4-3.34,.88-4.24,2.2-1.29,1.89-1.48,4.24-1.64,6.45-.03,.46,.69,.46,.72,0,.16-2.21,.34-4.62,1.78-6.42,.57-.71,1.33-1.32,2.23-1.52,1.18-.26,2.21,.42,2.14,1.68-.1,1.88-1.89,3.29-3.41,4.12s-3.19,1.3-4.85,1.77c-2.84,.81-7.06,1.7-8,5-.36,1.26-.13,2.79,.84,3.72,1.18,1.13,2.96,.87,4.29,.18,3.24-1.68,4.49-5.66,4.28-9.09-.03-.46-.75-.46-.72,0h0Z"/>
        <path class="cls-3" d="M181.26,508.06l2.43,.97c.2,.06,.4,.07,.6,.03,.2,0,.39-.07,.56-.18,.31-.18,.61-.54,.69-.9,.09-.38,.07-.81-.15-1.16l-.23-.3c-.19-.19-.41-.31-.66-.39l-2.43-.97c-.2-.06-.4-.07-.6-.03-.2,0-.39,.07-.56,.18-.31,.18-.61,.54-.69,.9-.09,.38-.07,.81,.15,1.16l.23,.3c.19,.19,.41,.31,.66,.39h0Z"/>
        <path class="cls-12" d="M180.88,502.26c-.18,2.49-.81,4.92-1.86,7.18-.14,.3,.09,.58,.41,.53,3.2-.56,6.14-2.06,8.49-4.3l-.6-.16c.35,2.57-1.49,4.89-.99,7.49,.04,.19,.27,.31,.44,.25,2.99-.94,5.56-2.85,7.31-5.45,.26-.38-.36-.75-.62-.36-1.65,2.44-4.07,4.24-6.88,5.12l.44,.25c-.48-2.55,1.35-4.91,.99-7.49-.04-.28-.43-.33-.6-.16-2.26,2.16-5.09,3.57-8.17,4.11l.41,.53c1.1-2.39,1.76-4.92,1.95-7.55,.03-.46-.69-.46-.72,0h0Z"/>
        <path class="cls-12" d="M391.62,89.14c17.24-.44,34.48-.71,51.72-.87s35.42-.19,53.13-.08c9.55,.06,19.1,.16,28.64,.3l-.35-.46c-1.91,7.29-3.39,14.71-4.8,22.11-3.37,17.78-5.83,35.75-7.23,53.79-.98,12.54-1.42,25.13-1.19,37.71l.36-.36h-133.25c-.51,0-1.32-.16-1.81,0-.06,.02-.16,0-.23,0l.36,.36c.25-9.02,.78-18.04,1.39-27.04,1.27-18.53,3.05-37.07,6.15-55.39,1.62-9.59,3.58-19.19,6.6-28.44,.14-.44-.55-.63-.69-.19-2.68,8.19-4.5,16.64-6.02,25.11-1.69,9.41-2.97,18.89-4.04,28.39-1.79,15.95-2.98,31.97-3.73,48-.15,3.19-.29,6.37-.38,9.56,0,.19,.17,.36,.36,.36h129.75c1.74,0,3.58,.18,5.31,0,.08,0,.15,0,.23,0,.19,0,.36-.16,.36-.36-.39-21.28,1.13-42.58,3.94-63.67,1.89-14.23,4.35-28.39,7.5-42.4,.55-2.46,1.11-4.91,1.75-7.35,.06-.23-.11-.45-.35-.46-17.24-.26-34.48-.37-51.73-.37s-35.42,.15-53.13,.42c-9.55,.15-19.09,.34-28.64,.58-.46,.01-.46,.73,0,.72h0Z"/>
        <path class="cls-11" d="M279.74,196.97c.95,.21,1.82,.8,2.57,1.46,.37,.33,.77,.7,.99,1.02,.32,.48,.56,1.01,.87,1.51,1.39,2.25,3.91,3.35,6.47,3.55,.81,.06,1.5-.73,1.5-1.5,0-.86-.69-1.44-1.5-1.5,0,0-.39-.03-.29-.02,.12,.01-.25-.04-.29-.05-.27-.05-.54-.12-.8-.2-.28-.09-.41-.13-.56-.2-.25-.12-.49-.24-.72-.39-.83-.52-1.23-1.23-1.78-2.21s-1.37-1.84-2.28-2.56c-1-.79-2.11-1.51-3.37-1.79-.79-.18-1.62,.24-1.85,1.05-.21,.75,.25,1.67,1.05,1.85h0Z"/>
        <path class="cls-12" d="M293.05,206.4c.93-1.6,.64-3.39-.99-4.38-.83-.5-1.79-.69-2.71-.99-1.33-.43-2.15-1.19-2.92-2.33-1.16-1.69-2.4-3.31-4.2-4.37s-3.92-1.37-5.87-.65c-.43,.16-.24,.86,.19,.69,1.91-.71,3.97-.3,5.66,.79s2.67,2.57,3.75,4.11c.98,1.4,2.1,2.12,3.74,2.6,.86,.25,1.81,.48,2.49,1.11,.92,.84,.83,2.03,.25,3.04-.23,.4,.39,.76,.62,.36h0Z"/>
        <path class="cls-12" d="M272.57,198.48c.54,3.92,3.25,7.28,6.78,8.97,1.9,.91,3.98,1.37,6.08,1.44s4.51-.12,6.36-1.24c.4-.24,.03-.86-.36-.62-1.74,1.06-4,1.22-6,1.15s-4.15-.54-6-1.48c-3.26-1.65-5.67-4.75-6.17-8.4-.06-.46-.76-.26-.69,.19h0Z"/>
        <path class="cls-12" d="M430.85,113.27c-.07,6.42-4.07,12.29-10.15,14.5s-12.94,.34-17.06-4.56-4.79-12.24-1.47-17.82,9.92-8.51,16.26-7.25c7.19,1.43,12.34,7.85,12.42,15.13,0,.46,.73,.46,.72,0-.07-6.7-4.22-12.77-10.52-15.13s-13.83-.35-18.13,4.94-4.8,12.68-1.37,18.44c3.45,5.79,10.29,8.86,16.91,7.61,7.58-1.42,13.03-8.21,13.12-15.86,0-.46-.71-.46-.72,0Z"/>
        <path class="cls-12" d="M507.1,111.79h-62.42l.35,.46c.67-4.8,1.33-9.6,2-14.4l-.35,.26h62.42l-.35-.46c-.67,4.8-1.33,9.6-2,14.4-.06,.45,.63,.65,.69,.19,.67-4.8,1.33-9.6,2-14.4,.03-.23-.09-.46-.35-.46h-62.42c-.14,0-.33,.11-.35,.26-.67,4.8-1.33,9.6-2,14.4-.03,.23,.09,.46,.35,.46h62.42c.46,0,.46-.72,0-.72Z"/>
        <path class="cls-12" d="M507.1,133.34h-70.49l.35,.46c.67-4.8,1.33-9.6,2-14.4l-.35,.26h70.49l-.35-.46c-.67,4.8-1.33,9.6-2,14.4-.06,.45,.63,.65,.69,.19,.67-4.8,1.33-9.6,2-14.4,.03-.23-.09-.46-.35-.46h-70.49c-.14,0-.33,.11-.35,.26-.67,4.8-1.33,9.6-2,14.4-.03,.23,.09,.46,.35,.46h70.49c.46,0,.46-.72,0-.72Z"/>
        <path class="cls-12" d="M501.1,176.45h-105.68c-.36,0-1.11-.15-1.45,0-.04,.02-.13,0-.18,0l.35,.46c.67-4.8,1.33-9.6,2-14.4l-.35,.26h105.68c.36,0,1.11,.15,1.45,0,.04-.02,.13,0,.18,0l-.35-.46c-.67,4.8-1.33,9.6-2,14.4-.06,.45,.63,.65,.69,.19,.67-4.8,1.33-9.6,2-14.4,.03-.23-.09-.46-.35-.46h-102.92c-1.35,0-2.87-.2-4.21,0-.06,0-.12,0-.18,0-.14,0-.33,.11-.35,.26-.67,4.8-1.33,9.6-2,14.4-.03,.23,.09,.46,.35,.46h102.92c1.34,0,2.88,.21,4.21,0,.06,0,.12,0,.18,0,.46,0,.46-.72,0-.72Z"/>
        <path class="cls-12" d="M501.1,154.9h-105.68c-.36,0-1.11-.15-1.45,0-.04,.02-.13,0-.18,0l.35,.46c.67-4.8,1.33-9.6,2-14.4l-.35,.26h105.68c.36,0,1.11,.15,1.45,0,.04-.02,.13,0,.18,0l-.35-.46c-.67,4.8-1.33,9.6-2,14.4-.06,.45,.63,.65,.69,.19,.67-4.8,1.33-9.6,2-14.4,.03-.23-.09-.46-.35-.46h-102.92c-1.35,0-2.87-.2-4.21,0-.06,0-.12,0-.18,0-.14,0-.33,.11-.35,.26-.67,4.8-1.33,9.6-2,14.4-.03,.23,.09,.46,.35,.46h102.92c1.34,0,2.88,.21,4.21,0,.06,0,.12,0,.18,0,.46,0,.46-.72,0-.72Z"/>
        <path class="cls-12" d="M396.26,160.7h22.02c.46,0,.46-.72,0-.72h-22.02c-.46,0-.46,.72,0,.72h0Z"/>
        <path class="cls-12" d="M475.41,139.43h27.67c.46,0,.46-.72,0-.72h-27.67c-.46,0-.46,.72,0,.72h0Z"/>
        <path class="cls-12" d="M441.25,131.62c11.76,0,23.53,0,35.29,0,.46,0,.46-.72,0-.72-11.76,0-23.53,0-35.29,0-.46,0-.46,.72,0,.72h0Z"/>
        <path class="cls-12" d="M441.62,129.26h21.55c.46,0,.46-.72,0-.72h-21.55c-.46,0-.46,.72,0,.72h0Z"/>
        <path class="cls-12" d="M448.96,100.94c15.12,0,30.24,0,45.36,0,.46,0,.46-.72,0-.72-15.12,0-30.24,0-45.36,0-.46,0-.46,.72,0,.72h0Z"/>
        <path class="cls-12" d="M448.59,103.76c11.04,0,22.09,0,33.13,0,.46,0,.46-.72,0-.72-11.04,0-22.09,0-33.13,0-.46,0-.46,.72,0,.72h0Z"/>
        <path class="cls-12" d="M392.88,95.11c.11,.84,.81,1.38,1.62,1.51,.85,.14,1.74-.16,2.38-.73s.97-1.41,.86-2.26-.63-1.63-1.45-1.95-1.9-.12-2.5,.58c-.13,.15-.15,.36,0,.51,.13,.13,.38,.15,.51,0,.37-.43,.96-.61,1.51-.49,.59,.14,1,.59,1.16,1.17,.34,1.27-.73,2.45-1.99,2.49-.51,.02-1.31-.23-1.39-.83-.03-.19-.15-.36-.36-.36-.17,0-.39,.17-.36,.36h0Z"/>
        <path class="cls-12" d="M395.13,94.54c.46,0,.46-.72,0-.72s-.46,.72,0,.72h0Z"/>
        <path class="cls-12" d="M517.02,90.68c-1.56,.25-2.53,2.1-1.79,3.51,.34,.64,1,1.14,1.71,1.29,.75,.16,1.51-.06,2.08-.57,.64-.58,.94-1.47,.79-2.32-.04-.19-.27-.3-.44-.25-.2,.06-.29,.25-.25,.44,.19,1.06-.77,2.16-1.86,2.03s-1.88-1.29-1.43-2.34c.25-.58,.77-.99,1.39-1.09,.19-.03,.3-.27,.25-.44-.06-.2-.25-.28-.44-.25h0Z"/>
        <path class="cls-12" d="M517.1,93.59c.46,0,.46-.72,0-.72s-.46,.72,0,.72h0Z"/>
        <g class="cls-15">
          <path d="M377.25,204.85h136.53c.79,0,1.53-.69,1.5-1.5-.22-7,0-14.02,.27-21.02,.71-17.81,2.37-35.59,4.94-53.23,1.89-12.95,4.27-25.82,7.19-38.58,.43-1.88-2.46-2.68-2.89-.8-4.92,21.5-8.33,43.35-10.4,65.31-1.29,13.7-2.1,27.47-2.17,41.23-.01,2.36-.02,4.72,.06,7.08l1.5-1.5h-136.53c-1.93,0-1.93,3,0,3h0Z"/>
        </g>
        <polygon class="cls-13" points="498.54 153.19 396.45 153.19 398.35 142.93 500.44 142.93 498.54 153.19"/>
        <polygon class="cls-13" points="498.35 174.65 396.26 174.65 398.16 164.39 500.25 164.39 498.35 174.65"/>
        <path class="cls-13" d="M414.91,172.23c1.7,.37,2.89,2.03,3.17,3.75s-.21,3.47-.87,5.07-1.51,3.14-2.01,4.81c-.48,1.59-.63,3.33-.07,4.89s1.94,2.89,3.59,3.07,3.42-1.02,3.58-2.67c.14-1.42-.82-2.67-1.49-3.93-1.32-2.49-1.58-5.47-.97-8.23s2.07-5.28,3.95-7.37"/>
        <path class="cls-12" d="M237.47,158.59c-3.39-4.33-7.06-8.82-12.2-10.77l.03,.15c2.08,5.26,6.18,9.41,10.18,13.41"/>
        <path class="cls-12" d="M147.74,522.52c6.87,.08,13.74,.16,20.61,.24,10.9,.13,21.8,.25,32.7,.38,2.51,.03,5.02,.06,7.54,.09,.46,0,.46-.71,0-.72-6.87-.08-13.74-.16-20.61-.24-10.9-.13-21.8-.25-32.7-.38-2.51-.03-5.02-.06-7.54-.09-.46,0-.46,.71,0,.72h0Z"/>
        <g class="cls-15">
          <path d="M509.29,284.86h-162.63c-1.93,0-1.93,3,0,3h162.63c1.93,0,1.93-3,0-3h0Z"/>
        </g>
        <path class="cls-12" d="M556.06,288.06c-77.67,0-157.34,0-231.01,0l-4.08,16.38c77.74,0,161.13,3.11,238.87,3.11l-3.78-19.48Z"/>
        <circle class="cls-12" cx="548.24" cy="100.46" r=".59"/>
        <circle class="cls-12" cx="361.2" cy="166.88" r=".59"/>
      </g>
    </g>
  </g>
</svg>