<?xml version="1.0" encoding="UTF-8"?>
<svg id="Layer_2" data-name="Layer 2" xmlns="http://www.w3.org/2000/svg" viewBox="0 0 26.15 34.44">
  <defs>
    <style>
      .cls-1 {
        fill: none;
      }

      .cls-2 {
        fill: #efdbcb;
      }

      .cls-3 {
        fill: #e58b15;
      }

      .cls-4 {
        fill: #fff;
      }

      .cls-5 {
        fill: #ffc897;
      }

      .cls-6 {
        fill: #ffcd85;
      }

      .cls-7 {
        fill: #fca930;
      }

      .cls-8 {
        fill: #e5ad76;
      }

      .cls-9 {
        fill: #6b3e25;
      }

      .cls-10, .cls-11 {
        fill: #9e602d;
      }

      .cls-12 {
        fill: #8e532a;
      }

      .cls-13 {
        fill: #d39154;
      }

      .cls-14 {
        fill: #ddb79e;
      }

      .cls-15 {
        fill: #5c361d;
      }

      .cls-16, .cls-17, .cls-18 {
        fill: #4c2815;
      }

      .cls-19, .cls-20 {
        opacity: .3;
      }

      .cls-21 {
        opacity: .25;
      }

      .cls-22, .cls-18, .cls-23, .cls-11 {
        opacity: .5;
      }

      .cls-17 {
        opacity: .6;
      }

      .cls-23, .cls-20 {
        fill: #c49b6b;
      }
    </style>
  </defs>
  <g id="Layer_1-2" data-name="Layer 1">
    <g>
      <g class="cls-21">
        <path class="cls-3" d="M8.46,24.16l-3.6-1.96c-.33-.18-.65-.36-.93-.61-.73-.68-.94-1.76-.91-2.76s.26-1.99,.22-2.98c-.04-.99-.34-1.97-.26-2.96,.09-1.05,.64-2.04,1.47-2.68s1.94-.9,2.98-.71c.56,.1,1.09,.33,1.65,.43,1.26,.23,2.55-.19,3.73-.72s2.32-1.16,3.58-1.39,2.72,.04,3.52,1.04c.99,1.25,.64,3.09,1.25,4.57,.71,1.71,2.62,2.68,3.42,4.35,.49,1.02,.5,2.22,.24,3.32s-.79,2.12-1.36,3.1c-.7,1.19-1.49,2.37-2.57,3.23s-2.5,1.38-3.86,1.12c-.73-.14-1.4-.5-1.98-.95-1.5-1.16-2.42-2.9-3.22-4.61-.41-.89-.81-1.91-.45-2.82"/>
      </g>
      <path d="M6.39,15.33s-.09-.03-.11-.07c-.03-.06,0-.14,.06-.16,.01,0,.35-.15,1.05-.06,.07,0,.12,.07,.11,.14s-.08,.12-.14,.11c-.61-.09-.9,.04-.91,.04-.02,0-.03,.01-.05,.01Z"/>
      <path d="M18.81,18.67s-.09-.03-.11-.07h0s-.15-.28-.68-.6c-.06-.04-.08-.11-.04-.17,.04-.06,.11-.08,.17-.04,.6,.36,.77,.69,.78,.7,.03,.06,0,.14-.06,.17-.02,0-.04,.01-.06,.01Z"/>
      <path class="cls-23" d="M17.1,28.11c-.68-.56-1.57-.21-1.6,.7-.02,.91,.11,1.63,.2,2.24,.09,.61-.03,2.42,.77,3.1,.8,.68,1.93,.1,2.14-.7s-.65-2.1-.82-2.98c-.16-.89-.02-1.79-.7-2.35Z"/>
      <ellipse class="cls-20" cx="2.87" cy="24.1" rx="1.86" ry=".53"/>
      <ellipse class="cls-20" cx="20.69" cy="26.96" rx="1.79" ry=".52"/>
      <ellipse class="cls-23" cx="8.88" cy="28.89" rx=".76" ry="3.37" transform="translate(-20.45 36.21) rotate(-86.91)"/>
      <path class="cls-1" d="M18.16,19.58s-.22-1.06-.28-1.64"/>
      <ellipse class="cls-15" cx="16.61" cy="25.87" rx=".58" ry=".68"/>
      <path class="cls-9" d="M16.99,27.44c-.68-.56-2.19,.16-2.21,1.07-.02,.91,.72,1.26,.82,1.86s-.03,2.42,.77,3.1c.8,.68,1.93,.1,2.14-.7s-.65-2.1-.82-2.98c-.16-.89-.02-1.79-.7-2.35Z"/>
      <path class="cls-17" d="M17.72,33.59c-.42,.19-.93,.18-1.35-.17-.8-.69-.68-2.5-.77-3.11-.09-.61-.84-.95-.81-1.86,.02-.74,1.03-1.36,1.78-1.26-.54,.19-1.01,.64-1.02,1.15-.03,.91,.72,1.26,.81,1.87,.09,.61-.03,2.42,.77,3.09,.18,.16,.39,.25,.6,.29Z"/>
      <path class="cls-7" d="M12.77,.2c.13-.03,.25-.04,.38-.04,1.14,0,2.06,1.1,2.06,2.46s-.92,2.47-2.06,2.47c-.13,0-.25-.01-.38-.04"/>
      <path class="cls-6" d="M14.46,2.58c0,1.2-.81,2.21-1.87,2.42-1.07-.22-1.87-1.22-1.87-2.42S11.53,.37,12.59,.17c1.05,.22,1.87,1.22,1.87,2.41Z"/>
      <path class="cls-7" d="M14.59,2.58c0,1.2-1.03,2.24-2.08,2.45-.1-.02-.19-.04-.29-.08,.91-.31,1.58-1.24,1.58-2.33s-.68-2.02-1.58-2.33c.09-.04,.18-.06,.29-.08,1.05,.22,2.08,1.19,2.08,2.39Z"/>
      <path class="cls-4" d="M12.88,4.91c-.1,.04-.21,.07-.31,.1-1.07-.21-1.87-1.22-1.87-2.42S11.5,.38,12.57,.17c.06,.01,.11,.02,.16,.05-.92,.3-1.57,1.22-1.57,2.31,0,1.16,.72,2.11,1.72,2.38Z"/>
      <path class="cls-9" d="M1.36,8.16c-.04-.26-.03-.85,.81-1.05,.96-.23,2.75,1.23,3.01,1.64,.29,.5,.05,.94-.31,1.01s-.37-.1-.7-.37c-.52-.42-1.63-.04-2.22-.4-.3-.15-.53-.52-.59-.83Z"/>
      <path class="cls-18" d="M5.3,9.04c.03,.33-.16,.6-.44,.64-.37,.07-.38-.1-.7-.37-.53-.42-1.64-.05-2.22-.4-.3-.15-.53-.52-.58-.84-.03-.17-.03-.48,.21-.74,0,.08,0,.15,.01,.21,.05,.32,.29,.69,.58,.84,.58,.36,1.7-.02,2.21,.4,.33,.26,.33,.44,.7,.37,.09-.01,.16-.05,.23-.1Z"/>
      <path class="cls-13" d="M14.97,12.71c-.14-.23-.38-.53-.62-.85s-.5-.64-.66-.89c-.16-.25-.3-.61-.39-1,1.01,.22,2.07,.59,3.11,1.19,.12,.28,.25,.55,.4,.83,.08,.17,.17,.34,.27,.5,.35,.65,.75,1.31,1.22,1.93-1.22-.11-2.56-.37-3.6-.66,.46-.19,.5-.68,.28-1.05Z"/>
      <path class="cls-10" d="M17.43,14.38s.26,0,.26,0c-.62-.03-2.05-2.4-2.14-3.6,.27,.12,.54,.26,.81,.42,.12,.28,.42,.51,.57,.78,.08,.17,.14,.42,.24,.59,.35,.65,1.01,1.28,1.48,1.9-.27-.02-.94-.06-1.22-.09Z"/>
      <path d="M20.12,14.6s-.08-.02-.1-.05c-4.72-6.59-12.41-4.4-12.49-4.38-.07,.02-.14-.02-.16-.08-.02-.07,.02-.14,.08-.16,.08-.02,7.93-2.27,12.76,4.47,.04,.06,.03,.13-.03,.17-.02,.02-.05,.02-.07,.02Z"/>
      <path class="cls-9" d="M8.2,10.76c-.58-.4-.81-1.83-2.46-2.52-1.19-.5-1.7-1.93-1.61-3.22,.04-.6,.14-1.28,.55-1.56,1.11-.75,1.84-.84,2.74,.05,.77,.77,1.06,1.53,2.19,1.79s2.16,.53,2.81,1.17c.65,.64,.7,1.68,.73,2.33s.24,1.66,.57,2.15,1.01,1.28,1.28,1.74c.23,.38,.15,.79-.35,.96s-4.74-1.7-6.47-2.89Z"/>
      <ellipse class="cls-9" cx="8.63" cy="2.79" rx=".6" ry=".89" transform="translate(-.38 3.82) rotate(-24.46)"/>
      <path d="M8.82,3.72c-.12,0-.24-.04-.36-.11-.19-.11-.35-.3-.45-.53-.22-.49-.12-1.01,.21-1.16,.34-.15,.8,.12,1.02,.6h0c.22,.49,.12,1.01-.22,1.16-.07,.03-.14,.04-.21,.04Zm-.38-1.7c-.05,0-.1,0-.15,.03-.26,.12-.33,.55-.14,.96,.09,.2,.23,.37,.39,.47,.15,.09,.3,.11,.43,.06,.26-.12,.33-.55,.14-.96h0c-.15-.34-.43-.56-.67-.56Z"/>
      <ellipse class="cls-9" cx="14.62" cy="10.06" rx=".6" ry=".89" transform="translate(-2.41 5.05) rotate(-18.15)"/>
      <path d="M14.77,11.01c-.13,0-.27-.05-.4-.15-.17-.13-.31-.34-.39-.58-.1-.3-.09-.62,.03-.84,.07-.14,.18-.24,.32-.29,.36-.12,.78,.2,.95,.71h0c.17,.51,.01,1.01-.34,1.13-.05,.02-.1,.02-.16,.02Zm-.29-1.74s-.07,0-.11,.02c-.1,.03-.17,.1-.23,.21-.1,.19-.1,.47-.02,.73,.07,.21,.19,.39,.34,.51,.14,.11,.29,.15,.42,.1,.28-.09,.39-.51,.25-.94-.12-.37-.4-.63-.65-.63Z"/>
      <path d="M13.17,5.17c-.12,0-.44-.01-.59-.05-.07-.02-.11-.08-.09-.15,.02-.07,.08-.11,.15-.09,.11,.03,.39,.04,.52,.04,1.06,0,1.93-1.05,1.93-2.34s-.87-2.33-1.93-2.33h-.06c-.13,0-.39,0-.51,.05-.06,.03-.14,0-.17-.05-.03-.06,0-.14,.05-.17C12.64,0,12.89,0,13.11,0h.06c1.2,0,2.18,1.16,2.18,2.58s-.98,2.59-2.18,2.59Z"/>
      <path d="M12.59,5.13s-.02,0-.02,0c-1.14-.23-1.97-1.3-1.97-2.54,0-1.03,.56-1.96,1.42-2.38,.35-.17,.79-.17,1.12,0,.33,.17,.63,.42,.87,.73,.04,.05,.03,.13-.02,.18-.05,.04-.13,.03-.18-.02-.22-.28-.5-.51-.79-.66-.27-.14-.62-.14-.9,0-.78,.38-1.28,1.23-1.28,2.16,0,1.12,.73,2.08,1.74,2.29,.51-.11,.96-.42,1.29-.87,.04-.05,.12-.07,.17-.03,.06,.04,.07,.12,.03,.17-.36,.51-.88,.85-1.46,.97,0,0-.02,0-.03,0Z"/>
      <path d="M14.33,3.52s-.03,0-.04,0c-.07-.02-.1-.09-.08-.16,.08-.25,.12-.51,.12-.77,0-.37-.08-.72-.24-1.05-.03-.06,0-.14,.06-.17,.06-.03,.14,0,.17,.06,.17,.37,.26,.76,.26,1.16,0,.29-.05,.57-.13,.85-.02,.05-.07,.09-.12,.09Z"/>
      <g class="cls-22">
        <path class="cls-16" d="M8.52,10.86c-.13-.08-.24-.16-.34-.23-.58-.4-.95-1.61-2.46-2.51-1.11-.66-1.77-1.94-1.68-3.22,.03-.49,.18-1.03,.45-1.37,.39,0,.78,.22,.93,.58,.23,.56-.1,1.2-.03,1.81,.07,.56,.47,1.02,.91,1.36,.44,.36,.93,.65,1.27,1.09,.56,.7,.69,1.63,.97,2.49Z"/>
      </g>
      <path d="M14.72,13.78c-.59,0-2.51-.86-3.12-1.15-.06-.03-.09-.1-.06-.17,.03-.06,.1-.09,.17-.06,1.74,.8,2.87,1.16,3.04,1.12,.12-.04,.19-.1,.22-.19,.06-.17,0-.44-.18-.74-.14-.25-.42-.6-.68-.94-.22-.28-.44-.57-.59-.8-.45-.67-.55-1.54-.59-2.21,0-.09,0-.19-.01-.29-.01-.33-.02-.66-.11-.99-.02-.07,.02-.14,.09-.15,.07-.02,.14,.02,.15,.09,.1,.36,.11,.72,.12,1.05,0,.1,0,.19,.01,.28,.04,.65,.13,1.46,.55,2.09,.15,.22,.37,.51,.58,.78,.27,.35,.55,.71,.7,.96,.1,.17,.32,.61,.2,.95-.06,.16-.19,.28-.38,.34-.03,0-.06,.01-.1,.01Z"/>
      <path d="M12.43,6.61s-.06-.01-.09-.04c-.31-.3-.79-.58-1.42-.81-.07-.02-.1-.1-.07-.16,.02-.07,.1-.1,.16-.07,.68,.25,1.17,.53,1.51,.87,.05,.05,.05,.13,0,.18-.02,.02-.06,.04-.09,.04Z"/>
      <path d="M10.17,5.52s-.02,0-.03,0c-.24-.07-.47-.12-.71-.18-.82-.19-1.24-.72-1.64-1.24-.17-.22-.35-.45-.56-.65-1-.95-2.04-.41-2.49,.05-.22,.23-.44,.5-.54,.91-.02,.07-.08,.11-.15,.09-.07-.02-.11-.08-.09-.15,.11-.46,.35-.76,.6-1.02,.52-.53,1.7-1.15,2.85-.06,.22,.21,.41,.45,.58,.68,.39,.51,.76,.98,1.49,1.15,.24,.05,.48,.11,.72,.18,.07,.02,.11,.09,.09,.15-.02,.06-.07,.09-.12,.09Z"/>
      <path d="M8.08,10.73s-.05,0-.07-.02c-.24-.17-.47-.48-.74-.84-.42-.57-.95-1.28-1.7-1.67-1.44-.75-1.64-2.09-1.67-3.02,0-.07,.05-.13,.12-.13h0c.07,0,.12,.05,.12,.12,.04,1.41,.52,2.27,1.54,2.81,.8,.42,1.34,1.15,1.78,1.74,.26,.35,.48,.65,.69,.79,.06,.04,.07,.12,.03,.17-.02,.04-.06,.05-.1,.05Z"/>
      <path class="cls-8" d="M12.97,28.37h0c-.31,.37-.38,.62-.55,.82-.08,.1-.13,.3-.35,.29-2.88-.16-5.11-1.41-5.11-1.41-.82-.6-.9-.88-.83-1.49l.04-.33c.16,.26,.45,.5,.86,.76,0,0,1.78,1.32,5.54,1.41,.13,0,.27,0,.4-.05Z"/>
      <path class="cls-10" d="M9.47,28.01s-.12,.26-.07,.56c.06,.36,.22,.56,.22,.56-1.69-.37-2.83-1.01-2.83-1.01-.82-.59-.91-.88-.84-1.49l.04-.33c.16,.26,.45,.5,.86,.76,0,0,.53,.53,2.62,.94Z"/>
      <path class="cls-8" d="M20.13,14.48l-6.16,12.95c-.23,.47-.65,.79-1.14,.89-.13,.04-.31,.18-.44,.18-3.76-.09-5.51-1.54-5.51-1.54-.42-.27-.7-.5-.86-.76-.19-.26-.24-.54-.2-.91l1.67-15.24s4.98,4.43,12.62,4.43Z"/>
      <path class="cls-5" d="M20.12,14.48l-6.16,12.95c-.23,.47-.65,.79-1.14,.89-.13,.04-.26,.05-.39,.05,.1-.11,.18-.22,.24-.35l6.32-13.75c.32,0,.8,.2,1.12,.2Z"/>
      <path class="cls-10" d="M10.15,11.83c-2.97,5.22-2.22,15.78-2.22,15.78-.94-.35-.92-.51-.92-.51-.42-.27-.87-.84-1.03-1.09-.19-.26,.17-4.24,.21-4.61l1.44-11.23"/>
      <path d="M14.83,25.73s-.04,0-.05-.01c-.06-.03-.09-.1-.06-.17l2.42-5.1c.03-.06,.11-.09,.17-.06,.06,.03,.09,.1,.06,.17l-2.42,5.1s-.07,.07-.11,.07Z"/>
      <path d="M10.18,29.32s-.01,0-.02,0c-2.06-.29-3.36-1.16-3.41-1.19l-.08-.05c-.72-.45-.96-.6-.8-1.57l.04-.32c0-.05,.05-.09,.1-.11,.05-.01,.1,.01,.13,.06,.14,.22,.39,.45,.82,.72,0,0,.29,.21,.84,.46,.06,.03,.09,.1,.06,.17-.03,.06-.1,.09-.17,.06-.58-.26-.87-.47-.88-.48-.31-.2-.54-.38-.7-.55v.03c-.13,.81,0,.89,.69,1.32l.09,.05s1.32,.88,3.31,1.16c.07,0,.12,.07,.11,.14,0,.06-.06,.11-.12,.11Z"/>
      <path d="M11.84,29.56c-.06,0-.12-.05-.12-.12,0-.07,.05-.13,.12-.13,.34-.03,.5-.13,.76-.71l.15-.3c.03-.06,.11-.09,.17-.06,.06,.03,.09,.11,.06,.17l-.15,.29c-.28,.62-.51,.82-.97,.86h0Z"/>
      <path d="M16.61,26.63c-.36,0-.66-.34-.66-.75s.29-.75,.66-.75,.66,.34,.66,.75-.29,.75-.66,.75Zm0-1.36c-.28,0-.51,.27-.51,.6s.23,.6,.51,.6,.51-.27,.51-.6-.23-.6-.51-.6Z"/>
      <path d="M17.3,33.95c-.36,0-.72-.13-1.02-.39-.66-.56-.73-1.81-.77-2.63-.01-.22-.02-.41-.04-.54-.03-.22-.17-.41-.33-.63-.23-.32-.5-.69-.49-1.26,.01-.47,.39-.95,.97-1.21,.55-.25,1.1-.23,1.44,.05h0c.54,.45,.59,1.07,.66,1.74,.02,.23,.04,.46,.08,.69,.06,.33,.21,.71,.37,1.12,.26,.67,.54,1.35,.44,1.91-.09,.52-.4,.91-.86,1.08-.15,.05-.31,.08-.47,.08Zm-.92-6.58c-.2,0-.43,.05-.65,.15-.49,.22-.82,.61-.83,.99-.01,.49,.22,.8,.44,1.11,.17,.23,.33,.45,.38,.74,.02,.14,.03,.34,.04,.57,.04,.78,.1,1.96,.68,2.46,.36,.31,.83,.41,1.24,.26,.37-.14,.63-.46,.7-.88,.08-.49-.18-1.14-.43-1.78-.17-.42-.32-.81-.39-1.16-.04-.24-.07-.48-.09-.71-.06-.64-.11-1.19-.57-1.57h0c-.13-.11-.32-.17-.53-.17Z"/>
      <circle cx="6.66" cy="17.79" r=".22"/>
      <circle cx="17.53" cy="19.92" r=".22"/>
      <circle cx="10.96" cy="29.36" r=".22"/>
      <circle cx="14.61" cy="26.09" r=".22"/>
      <path class="cls-4" d="M13.2,27.05s-.05,0-.08-.02c-.09-.04-.12-.15-.08-.23l.69-1.45c.04-.09,.15-.13,.23-.08,.09,.04,.12,.15,.08,.23l-.69,1.45c-.03,.06-.09,.1-.16,.1Z"/>
      <circle class="cls-4" cx="14.21" cy="24.74" r=".22"/>
      <path d="M17.81,19.47s-.04,0-.05-.01c-.06-.03-.09-.1-.06-.17l2.23-4.68c-1.21-.01-2.43-.14-3.62-.37-.07-.01-.11-.08-.1-.15,.01-.07,.08-.11,.15-.1,1.24,.24,2.51,.37,3.77,.37,.04,0,.08,.02,.11,.06,.02,.04,.03,.08,0,.12l-2.31,4.86s-.07,.07-.11,.07Z"/>
      <path d="M6.73,17.23s0,0-.01,0c-.07,0-.12-.07-.11-.14l.77-7.06s.04-.09,.08-.1,.09,0,.13,.02c0,0,.3,.27,.86,.66,.06,.04,.07,.12,.03,.17-.04,.06-.12,.07-.17,.03-.32-.22-.55-.41-.7-.53l-.75,6.82c0,.06-.06,.11-.12,.11Z"/>
      <path d="M7.94,27.64s-.03,0-.05,0c-.71-.29-1.06-.55-1.08-.56-.46-.29-.74-.54-.89-.8-.19-.26-.26-.57-.22-.99l.74-6.74c0-.07,.07-.12,.14-.11,.07,0,.12,.07,.11,.14l-.74,6.74c-.04,.36,.01,.6,.17,.82,.14,.23,.4,.45,.83,.73,.01,0,.35,.26,1.03,.54,.06,.03,.09,.1,.07,.16-.02,.05-.07,.08-.12,.08Z"/>
      <path class="cls-16" d="M14.44,13.48s-.02,0-.03,0c-2.97-.86-5.14-2.3-5.16-2.31-.06-.04-.07-.12-.03-.17,.04-.06,.12-.07,.17-.03,.02,.01,2.16,1.43,5.09,2.28,.07,.02,.11,.09,.09,.15-.02,.06-.07,.09-.12,.09Z"/>
      <path d="M15.67,14.1s-.02,0-.03,0c-3.07-.7-5.43-1.99-6.86-2.94-.06-.04-.07-.12-.04-.17s.12-.07,.17-.04c1.42,.94,3.75,2.21,6.78,2.9,.07,.02,.11,.08,.09,.15-.01,.06-.07,.1-.12,.1Z"/>
      <path d="M4.72,9.9c-.21,0-.3-.1-.43-.22-.05-.05-.12-.12-.2-.19-.22-.18-.55-.17-.92-.17-.4,0-.86,.01-1.28-.22-.35-.18-.6-.65-.65-.92-.03-.2-.08-.87,.75-1.15,.06-.02,.14,.01,.16,.08s-.01,.14-.08,.16c-.6,.2-.62,.63-.58,.87,.04,.21,.26,.61,.52,.74,.36,.21,.76,.2,1.16,.19,.41,0,.79-.01,1.08,.22,.1,.08,.17,.15,.23,.21,.14,.14,.18,.17,.37,.13,.13-.03,.24-.11,.3-.24,.08-.17,.05-.38-.07-.58-.2-.32-1.35-1.28-2.26-1.54-.07-.02-.1-.09-.09-.15,.02-.07,.09-.1,.15-.09,1.01,.29,2.2,1.31,2.41,1.65,.16,.28,.19,.57,.08,.82-.09,.2-.27,.34-.48,.39-.06,.01-.12,.02-.17,.02Z"/>
      <circle cx="12.75" cy="6.9" r=".12"/>
      <circle class="cls-10" cx="9.26" cy="13.75" r=".19"/>
      <circle class="cls-10" cx="9.09" cy="14.34" r=".19"/>
      <circle class="cls-11" cx="9.6" cy="14.5" r=".19"/>
      <circle class="cls-11" cx="9.42" cy="15.05" r=".19"/>
      <circle class="cls-11" cx="9.24" cy="15.61" r=".19"/>
      <g class="cls-19">
        <circle class="cls-10" cx="9.94" cy="15.26" r=".19"/>
        <circle class="cls-10" cx="9.79" cy="15.74" r=".19"/>
        <circle class="cls-10" cx="9.66" cy="16.23" r=".19"/>
      </g>
      <circle class="cls-10" cx="8.92" cy="14.9" r=".19"/>
      <circle cx="4.05" cy="4.77" r=".11"/>
      <circle cx="14.17" cy="3.65" r=".1"/>
      <path class="cls-7" d="M2.47,19.05c.14-.03,.29-.04,.43-.04,1.31,0,2.36,1.14,2.36,2.54s-1.05,2.56-2.36,2.56c-.14,0-.29-.01-.43-.04"/>
      <path class="cls-6" d="M4.4,21.52c0,1.24-.93,2.29-2.14,2.51-1.22-.22-2.14-1.26-2.14-2.51s.92-2.29,2.14-2.5c1.21,.22,2.14,1.26,2.14,2.5Z"/>
      <path class="cls-7" d="M4.56,21.52c0,1.24-1.18,2.32-2.38,2.54-.12-.02-.22-.04-.33-.09,1.04-.32,1.81-1.29,1.81-2.42s-.77-2.09-1.81-2.42c.1-.04,.21-.07,.33-.09,1.21,.23,2.38,1.23,2.38,2.48Z"/>
      <path class="cls-4" d="M2.59,23.93c-.12,.04-.24,.08-.35,.1-1.22-.22-2.14-1.26-2.14-2.51s.92-2.29,2.14-2.51c.07,.01,.13,.02,.18,.05-1.05,.31-1.8,1.26-1.8,2.4,0,1.2,.83,2.19,1.97,2.46Z"/>
      <path d="M2.92,24.2c-.1,0-.49,0-.67-.05-.07-.02-.11-.08-.09-.15,.02-.07,.08-.11,.15-.09,.12,.03,.43,.04,.61,.04,1.23,0,2.23-1.09,2.23-2.43s-1-2.42-2.23-2.42h-.07c-.15,0-.46,0-.59,.06-.06,.03-.14,0-.17-.06-.03-.06,0-.14,.06-.17,.17-.08,.45-.08,.7-.08h.07c1.37,0,2.48,1.2,2.48,2.67s-1.11,2.68-2.48,2.68Z"/>
      <path d="M2.26,24.15s-.01,0-.02,0c-1.3-.24-2.24-1.34-2.24-2.63,0-1.07,.63-2.04,1.62-2.47,.4-.17,.88-.17,1.26,0,.37,.17,.72,.43,1,.75,.04,.05,.04,.13-.01,.18-.05,.04-.13,.04-.18-.01-.26-.3-.57-.54-.91-.69-.32-.15-.73-.15-1.06,0-.89,.39-1.47,1.27-1.47,2.24,0,1.16,.84,2.16,2.01,2.38,.59-.11,1.12-.44,1.49-.91,.04-.05,.12-.06,.18-.02,.05,.04,.06,.12,.02,.18-.42,.52-1.01,.88-1.66,1,0,0-.01,0-.02,0Z"/>
      <path d="M4.25,22.48s-.03,0-.04,0c-.07-.02-.1-.09-.08-.16,.09-.26,.14-.52,.14-.8,0-.38-.09-.75-.27-1.09-.03-.06,0-.14,.05-.17,.06-.03,.14,0,.17,.05,.2,.37,.3,.79,.3,1.21,0,.3-.05,.6-.15,.88-.02,.05-.07,.08-.12,.08Z"/>
      <ellipse cx="4.22" cy="22.74" rx=".1" ry=".1"/>
      <path class="cls-7" d="M19.21,22.49c-.12,.04-.23,.09-.33,.16-.93,.58-1.05,2-.29,3.17,.76,1.17,2.13,1.66,3.05,1.08,.1-.06,.2-.14,.28-.23"/>
      <path class="cls-6" d="M19.18,25.41c.67,1.03,1.9,1.49,2.87,1.14,.74-.73,.83-2.01,.15-3.05s-1.89-1.5-2.87-1.13c-.73,.72-.83,2.01-.16,3.04Z"/>
      <path class="cls-7" d="M19.06,25.48c.67,1.04,2.09,1.41,3.06,1.05,.07-.07,.13-.14,.18-.22-.91,.2-1.98-.26-2.59-1.21-.61-.94-.58-2.09-.03-2.83-.1,.01-.18,.04-.28,.07-.73,.73-1.02,2.09-.35,3.13Z"/>
      <path class="cls-4" d="M21.77,26.61c.11-.02,.21-.04,.3-.08,.75-.73,.83-2.01,.16-3.04-.68-1.04-1.89-1.5-2.87-1.13-.04,.04-.08,.08-.1,.13,.91-.21,1.96,.25,2.57,1.19,.65,1,.6,2.19-.06,2.93Z"/>
      <path d="M20.73,27.25c-.82,0-1.71-.51-2.28-1.38-.45-.69-.62-1.48-.46-2.17,.11-.51,.39-.92,.79-1.17l.04-.03c.18-.12,.38-.24,.56-.25h0c.07,0,.12,.05,.12,.12,0,.07-.05,.13-.12,.13-.12,0-.34,.15-.44,.21l-.05,.03c-.35,.22-.58,.57-.68,1.02-.14,.63,.02,1.35,.43,1.98,.72,1.12,2.02,1.58,2.88,1.04,.1-.06,.33-.22,.4-.3,.05-.05,.13-.05,.18,0,.05,.05,.05,.12,0,.18-.1,.11-.37,.29-.45,.34-.28,.18-.61,.26-.94,.26Z"/>
      <path d="M21.36,26.79c-.33,0-.67-.07-1.01-.22-.06-.03-.09-.1-.06-.16,.03-.06,.1-.1,.16-.06,.52,.22,1.06,.26,1.53,.09,.7-.7,.75-1.91,.12-2.87-.53-.81-1.41-1.29-2.25-1.22-.3,.02-.58,.2-.72,.46-.15,.28-.25,.61-.27,.97,0,.07-.05,.13-.13,.12-.07,0-.12-.06-.12-.13,.02-.4,.13-.77,.3-1.08,.18-.33,.54-.55,.92-.58,.94-.07,1.91,.44,2.48,1.33,.7,1.07,.62,2.42-.17,3.21-.01,.01-.03,.02-.04,.03-.23,.08-.48,.13-.73,.13Z"/>
      <path d="M19.73,26.17s-.06,0-.08-.03c-.22-.19-.42-.41-.58-.66-.22-.34-.38-.74-.44-1.13-.01-.07,.04-.13,.1-.14,.08-.02,.13,.04,.14,.1,.06,.36,.2,.72,.4,1.04,.15,.23,.33,.43,.53,.6,.05,.04,.06,.12,.02,.18-.02,.03-.06,.04-.1,.04Z"/>
      <circle cx="20.07" cy="26.28" r=".1"/>
      <circle class="cls-16" cx="5.55" cy="6.02" r=".67"/>
      <circle class="cls-16" cx="5.81" cy="5.16" r=".09"/>
      <circle class="cls-16" cx="6.4" cy="5.66" r=".14"/>
      <circle class="cls-16" cx="6.47" cy="6.63" r=".09"/>
      <circle class="cls-16" cx="7.1" cy="7.9" r=".26"/>
      <circle class="cls-16" cx="7.57" cy="6.98" r=".14"/>
      <circle class="cls-16" cx="7.98" cy="8.43" r=".15"/>
      <circle class="cls-16" cx="8.13" cy="9.75" r=".2"/>
      <circle class="cls-16" cx="5.24" cy="3.9" r=".19"/>
      <circle class="cls-16" cx="5.49" cy="4.7" r=".14"/>
      <circle class="cls-16" cx="6.37" cy="7.22" r=".21"/>
      <circle class="cls-16" cx="7.11" cy="7.11" r=".11"/>
      <circle class="cls-16" cx="6.89" cy="6.8" r=".05"/>
      <circle class="cls-16" cx="5.99" cy="6.76" r=".05"/>
      <circle class="cls-16" cx="7.79" cy="8.09" r=".05"/>
      <circle class="cls-16" cx="6.13" cy="5.18" r=".05"/>
      <g>
        <ellipse class="cls-4" cx="21.64" cy="9.53" rx="1.73" ry="4.8" transform="translate(-1.77 12.85) rotate(-31.85)"/>
        <path class="cls-4" d="M25.53,14.49c0,.72-.2,1.26-.61,1.54l-.45,.38c-1.3,.81-4.01-1.2-6.04-4.48-2.04-3.28-2.64-6.6-1.34-7.4l.43-.22c.35-.16,.76-.13,1.21,.06l-1.05,.83,1.36-.92c1.12-.69,3.44,1.03,5.19,3.85,1.75,2.82,2.27,5.67,1.15,6.36l-.27,1.4-2.04,1.25c-1.31,.8-4-1.23-6.01-4.52-2.02-3.3-2.59-6.61-1.29-7.41"/>
        <path class="cls-4" d="M15.62,6.13v-.92s1.57-.81,1.57-.81c0,0,.55,2.58,.52,2.67"/>
      </g>
      <path class="cls-2" d="M24.42,16.29l.11,.03h.03s-.03-.02-.07,0l.08-.05c-.15,.1-.15,.05-.14,.16l-1.27,.56c-1.3,.8-3.99-1.23-6.01-4.52-1.92-3.14-2.53-6.3-1.45-7.28v-.11l1.33-.67c-1.01,1.03-1.31,4.05,.58,7.14,2.02,3.3,5.38,5.53,6.68,4.74h.13Z"/>
      <path d="M19.18,10.74s-.08-.02-.11-.06c-.96-1.55-1.52-3.16-1.46-4.19,0-.07,.07-.13,.13-.12,.07,0,.12,.06,.12,.13-.06,.99,.49,2.54,1.43,4.05,.04,.06,.02,.14-.04,.17-.02,.01-.04,.02-.07,.02Z"/>
      <path d="M23.86,16.6c-1.48,0-3.7-1.86-5.48-4.72-2.11-3.39-2.68-6.72-1.3-7.58,.06-.04,.13-.02,.17,.04,.04,.06,.02,.14-.04,.17-1.22,.76-.59,4.07,1.38,7.23,2,3.22,4.62,5.21,5.87,4.44,.06-.04,.14-.02,.17,.04,.04,.06,.02,.13-.04,.17-.22,.13-.46,.2-.74,.2Z"/>
      <path d="M22.46,17.31c-.6,0-1.34-.31-2.15-.92-1.15-.86-2.32-2.22-3.3-3.83-.98-1.61-1.66-3.27-1.91-4.69-.25-1.45-.02-2.48,.66-2.9,.06-.04,.14-.02,.17,.04,.04,.06,.02,.14-.04,.17-.58,.35-.77,1.32-.54,2.64,.24,1.38,.9,3.02,1.87,4.6,.97,1.58,2.12,2.92,3.24,3.76,1.08,.81,2.02,1.07,2.6,.72,.06-.04,.14-.02,.17,.04,.04,.06,.02,.14-.04,.17-.21,.13-.45,.19-.73,.19Z"/>
      <path d="M24.98,16.04s-.08-.02-.1-.05c-.04-.06-.03-.13,.03-.17,.36-.25,.56-.75,.56-1.44,0-.07,.06-.12,.12-.12h0c.07,0,.12,.06,.12,.12,0,.78-.23,1.35-.67,1.65-.02,.02-.05,.02-.07,.02Z"/>
      <path d="M18.79,4.37s-.03,0-.05,0c-.43-.18-.8-.2-1.11-.06-.06,.03-.14,0-.17-.06-.03-.06,0-.14,.06-.17,.38-.17,.82-.15,1.31,.06,.06,.03,.09,.1,.07,.16-.02,.05-.07,.08-.12,.08Z"/>
      <path d="M23.94,15.46s-.08-.02-.1-.06c-.04-.06-.02-.14,.04-.17l1.5-.98c1.04-.65,.5-3.48-1.19-6.19-.84-1.35-1.83-2.49-2.8-3.21-.92-.68-1.73-.9-2.22-.6l-1.35,.92c-.06,.04-.13,.02-.17-.03-.04-.06-.02-.13,.03-.17l1.36-.92c.59-.37,1.48-.15,2.5,.61,.99,.74,2.01,1.9,2.87,3.28,1.82,2.92,2.3,5.79,1.11,6.54l-1.49,.97s-.04,.02-.07,.02Z"/>
      <circle cx="19.6" cy="11.17" r=".22"/>
      <ellipse class="cls-9" cx="14.27" cy="14.94" rx=".61" ry=".44" transform="translate(-5.36 8.49) rotate(-28.12)"/>
      <path d="M14.11,15.5s-.06,0-.09,0c-.17-.02-.29-.1-.36-.23-.05-.1-.06-.22-.02-.34,.05-.18,.2-.34,.39-.44,.19-.1,.4-.13,.58-.08,.12,.04,.21,.11,.27,.21,.13,.25-.03,.59-.37,.78h0c-.13,.07-.27,.1-.4,.1Zm.31-.97c-.11,0-.22,.03-.33,.09-.16,.08-.28,.21-.32,.35-.03,.08-.02,.16,.01,.22,.04,.08,.13,.13,.25,.15,.13,.02,.27-.01,.4-.08h0c.26-.14,.4-.4,.3-.57-.03-.06-.1-.11-.18-.14-.04-.01-.09-.02-.14-.02Zm.05,.8h0Z"/>
      <path class="cls-3" d="M2.39,20.74c-.03-.06-.07-.11-.12-.15-.05-.04-.11-.06-.19-.07-.07,0-.14,0-.19,.03-.05,.03-.1,.07-.13,.12-.03,.05-.05,.11-.05,.19,0,.09,.01,.16,.05,.22,.04,.06,.09,.11,.16,.16,.07,.04,.13,.08,.2,.12,.05,.02,.1,.05,.15,.09,.05,.03,.1,.08,.14,.13,.04,.05,.08,.11,.1,.18,.03,.07,.04,.15,.03,.24,0,.11-.03,.21-.07,.3s-.1,.16-.18,.2c-.08,.05-.18,.07-.3,.06-.1,0-.19-.04-.27-.09-.08-.06-.14-.13-.19-.23-.05-.09-.09-.2-.12-.31l.13-.08c.03,.1,.06,.19,.1,.27,.04,.08,.09,.15,.15,.2,.06,.05,.13,.08,.22,.08,.09,0,.16-.01,.21-.04,.06-.03,.1-.08,.13-.14,.03-.06,.05-.13,.05-.22,0-.1-.01-.18-.05-.25s-.09-.12-.15-.17c-.06-.04-.13-.08-.19-.12-.05-.02-.1-.05-.15-.08-.05-.03-.1-.08-.15-.13-.04-.05-.08-.11-.11-.18-.03-.07-.04-.15-.03-.24,0-.1,.03-.18,.08-.26,.05-.08,.11-.13,.19-.17,.08-.04,.16-.06,.25-.05,.1,0,.18,.03,.25,.08,.07,.05,.12,.11,.17,.19,.04,.08,.07,.15,.09,.22l-.12,.08c-.02-.06-.04-.13-.08-.19Zm-.34,1.71l-.02,.43h-.13s.02-.43,.02-.43h.13Zm.12-2.42l-.02,.42h-.12s.02-.43,.02-.43h.12Z"/>
      <path class="cls-3" d="M19.98,23.12l.26,.33-.1,.07-.26-.33,.1-.07Zm.63,.41c-.06-.03-.13-.04-.19-.04-.06,0-.12,.02-.18,.07-.06,.04-.09,.09-.12,.14-.02,.05-.03,.11-.02,.17,.01,.06,.04,.12,.08,.17,.05,.07,.11,.11,.18,.13,.07,.02,.14,.03,.22,.02,.08,0,.15-.02,.23-.04,.05-.01,.11-.02,.17-.02,.06,0,.12,0,.19,.01,.06,.01,.13,.04,.19,.07,.06,.04,.12,.09,.18,.17,.07,.09,.12,.18,.14,.27,.03,.09,.02,.18,0,.27-.03,.08-.09,.16-.18,.23-.08,.06-.17,.09-.26,.09-.09,0-.19-.01-.29-.05-.1-.04-.19-.09-.29-.16l.04-.13c.08,.06,.17,.11,.25,.14,.08,.04,.16,.06,.24,.06,.08,0,.15-.02,.21-.07s.11-.1,.13-.16c.02-.06,.02-.12,0-.19s-.05-.13-.1-.2c-.06-.08-.12-.13-.2-.15-.07-.03-.15-.04-.22-.03s-.15,.02-.22,.03c-.05,.01-.1,.02-.16,.03s-.12,0-.19,0c-.07-.01-.13-.03-.19-.07-.06-.04-.12-.09-.18-.16-.06-.08-.1-.16-.11-.25-.01-.09,0-.17,.03-.24,.03-.08,.08-.14,.15-.19,.08-.06,.16-.09,.24-.09,.08,0,.17,0,.24,.04s.15,.07,.21,.12l-.04,.13c-.06-.04-.12-.07-.18-.1Zm.85,1.5l.26,.34-.1,.07-.26-.34,.1-.07Z"/>
      <path class="cls-3" d="M12.85,1.91c-.03-.06-.07-.11-.12-.15-.05-.04-.11-.06-.18-.06-.07,0-.13,0-.18,.04-.05,.03-.09,.06-.12,.11-.03,.05-.04,.11-.05,.18,0,.08,.01,.15,.05,.21,.04,.06,.09,.11,.15,.15,.06,.04,.13,.08,.2,.11,.05,.02,.1,.05,.15,.08s.09,.07,.14,.12c.04,.05,.07,.1,.1,.17,.02,.07,.04,.14,.03,.23,0,.11-.03,.21-.07,.29s-.1,.15-.17,.2-.17,.07-.29,.06c-.1,0-.18-.03-.26-.09s-.14-.13-.19-.22c-.05-.09-.09-.19-.12-.3l.12-.08c.03,.09,.06,.18,.1,.26,.04,.08,.09,.14,.15,.19,.06,.05,.13,.07,.21,.08,.08,0,.15-.01,.21-.04,.05-.03,.09-.08,.12-.14,.03-.06,.04-.13,.05-.21,0-.09-.01-.17-.05-.24-.04-.06-.09-.12-.15-.16-.06-.04-.12-.08-.19-.11-.04-.02-.09-.05-.14-.08-.05-.03-.1-.07-.14-.12-.04-.05-.08-.1-.11-.17-.03-.06-.04-.14-.03-.23,0-.09,.03-.18,.07-.25,.04-.07,.1-.13,.18-.17s.16-.06,.24-.05c.1,0,.18,.03,.24,.08s.12,.11,.16,.18,.07,.14,.09,.21l-.12,.08c-.02-.06-.04-.12-.08-.18Zm-.31,1.65l-.02,.41h-.12s.02-.42,.02-.42h.12Zm.09-2.33l-.02,.41h-.12s.02-.41,.02-.41h.12Z"/>
      <path class="cls-14" d="M24.32,12.16c-.11,0-.21-.07-.24-.18-.1-.39-.23-.77-.36-1.13-.05-.13,.02-.27,.15-.32,.13-.05,.27,.02,.32,.15,.14,.38,.27,.78,.38,1.18,.04,.13-.04,.27-.18,.31-.02,0-.04,0-.07,0Z"/>
      <path class="cls-14" d="M23.01,9.01c-.08,0-.17-.04-.22-.12-.99-1.69-2.05-2.46-2.06-2.47-.11-.08-.14-.24-.06-.35,.08-.11,.24-.14,.35-.06,.05,.03,1.14,.84,2.2,2.62,.07,.12,.03,.27-.09,.34-.04,.02-.08,.03-.13,.03Z"/>
      <path class="cls-2" d="M19.05,6.19s-.02,0-.04,0c-.14-.02-.23-.15-.21-.28,0-.04,.06-.39,.36-.57,.14-.08,.37-.16,.71-.05,.13,.04,.2,.18,.16,.31-.04,.13-.18,.2-.31,.16-.13-.04-.23-.04-.3,0-.1,.06-.13,.22-.13,.22-.02,.12-.12,.21-.25,.21Z"/>
      <path d="M23.84,13.71c-.97,0-2.49-1.31-3.74-3.31-.68-1.1-1.17-2.23-1.37-3.19-.21-1-.08-1.7,.36-1.98,.9-.56,2.73,.85,4.19,3.19,.04,.06,.02,.14-.04,.17s-.13,.02-.17-.04c-1.47-2.37-3.17-3.53-3.84-3.11-.34,.21-.43,.84-.25,1.71,.19,.93,.67,2.03,1.34,3.11,1.33,2.15,3.1,3.58,3.84,3.11,.47-.29,.46-1.35-.03-2.69-.02-.07,0-.14,.07-.16,.06-.03,.14,0,.16,.07,.55,1.5,.52,2.62-.07,2.99-.13,.08-.28,.12-.45,.12Z"/>
      <path class="cls-4" d="M18.76,18.6l-2.45,5.22c-6.64,.85-10.56-3.04-10.56-3.04l.61-5.55s3.88,3.41,12.4,3.36Z"/>
      <path class="cls-2" d="M8.53,16.64c-.39,1.92-.51,3.86-.59,5.64-.76-.4-1.29-.72-1.65-1.01-.3-.23-.46-.39-.46-.39l.61-5.55s.18,.16,.56,.41c.36,.24,.8,.55,1.53,.9Z"/>
      <path class="cls-10" d="M11.57,23.99s-.03,0-.05,0c-2.84-.57-4.24-1.67-4.3-1.72-.11-.09-.12-.24-.04-.35,.09-.11,.24-.13,.35-.04,.01,0,1.38,1.07,4.09,1.62,.13,.03,.22,.16,.2,.29-.02,.12-.13,.2-.25,.2Z"/>
      <path d="M14.48,24.04c-5.5,0-8.76-3.16-8.79-3.19-.03-.03-.04-.06-.04-.1l.61-5.55s.04-.09,.08-.1,.09,0,.13,.02c.02,.02,2.31,1.99,7.11,2.89,.07,.01,.11,.08,.1,.15-.01,.07-.08,.11-.15,.1-4.11-.77-6.41-2.32-7.05-2.8l-.58,5.27c.44,.41,4.26,3.71,10.35,2.97l2.33-4.98c-1.27,0-2.51-.08-3.69-.23-.07,0-.12-.07-.11-.14,0-.07,.06-.12,.14-.11,1.23,.16,2.54,.23,3.85,.23h0s.08,.02,.11,.06c.02,.04,.03,.08,0,.12l-2.45,5.22s-.05,.07-.1,.07c-.65,.08-1.27,.12-1.87,.12Z"/>
      <circle class="cls-8" cx="11.39" cy="20.51" r="1.92"/>
      <g>
        <path class="cls-12" d="M12.31,20.51c0,.05-.05,.19-.07,.24-.36-.02-.57-.19-.8-.33-.21-.12-.45-.23-.75-.28,.17-.11,.45-.25,.7-.25,.5,0,.92,.28,.92,.61Z"/>
        <path class="cls-12" d="M10.47,20.51c0-.05,.04-.17,.06-.22,.36,.02,.6,.14,.83,.27,.21,.12,.42,.28,.73,.33-.17,.11-.44,.22-.69,.22-.5,0-.92-.28-.92-.61Z"/>
      </g>
      <path class="cls-11" d="M12.17,28.62c-.97,0-1.95-.2-2-.21-.07-.01-.11-.08-.1-.15,.01-.07,.08-.11,.15-.1,.01,0,1.18,.25,2.2,.2h0c.07,0,.12,.05,.12,.12,0,.07-.05,.13-.12,.13-.09,0-.18,0-.27,0Z"/>
      <path d="M12.43,28.49c-.07,0-.12-.06-.12-.12s.06-.12,.12-.12c.15,0,.26-.01,.36-.04,.46-.09,.86-.4,1.06-.83l.32-.65c.03-.06,.11-.09,.17-.06,.06,.03,.09,.1,.06,.17l-.32,.65c-.24,.49-.7,.85-1.23,.96-.11,.04-.25,.05-.42,.05Z"/>
      <path d="M12.43,28.49c-1.32-.03-2.54-.21-3.63-.54-.07-.02-.1-.09-.08-.16,.02-.07,.09-.1,.16-.08,1.07,.32,2.27,.5,3.56,.53,.15,0,.26-.01,.36-.04,.03-.01,.08,0,.11,.02s.05,.06,.05,.1c0,.07-.06,.13-.12,.13-.11,.03-.24,.04-.4,.04Z"/>
    </g>
  </g>
</svg>