<?xml version="1.0" encoding="UTF-8"?>
<svg id="Layer_2" data-name="Layer 2" xmlns="http://www.w3.org/2000/svg" viewBox="0 0 269.92 305.91">
  <defs>
    <style>
      .cls-1 {
        fill: none;
        stroke: #191818;
        stroke-miterlimit: 10;
        stroke-width: .44px;
      }

      .cls-2 {
        fill: #f4c362;
      }

      .cls-3 {
        fill: #f9a5a5;
      }

      .cls-4 {
        fill: #e89176;
      }

      .cls-5 {
        fill: #f7991c;
      }

      .cls-6 {
        fill: #fdc6a2;
      }

      .cls-7 {
        fill: #ef941d;
      }

      .cls-8 {
        fill: #fff;
      }

      .cls-9 {
        fill: #ffdaa9;
      }

      .cls-10 {
        fill: #ef4625;
      }

      .cls-11 {
        fill: #ffbb59;
      }

      .cls-12 {
        fill: #ff4500;
      }

      .cls-13 {
        fill: #9c8da0;
      }

      .cls-14 {
        fill: #8f90fd;
      }

      .cls-15, .cls-16 {
        fill: #312135;
      }

      .cls-17 {
        fill: #b9cbde;
      }

      .cls-18 {
        fill: #adf476;
      }

      .cls-19 {
        fill: #cc1a02;
      }

      .cls-20 {
        fill: #ad6f00;
      }

      .cls-21 {
        fill: #d3d6fe;
      }

      .cls-22 {
        fill: #191818;
      }

      .cls-23 {
        fill: #6f6372;
      }

      .cls-24 {
        fill: #8892ed;
      }

      .cls-25 {
        fill: #63456b;
      }

      .cls-26 {
        fill: #4c55fc;
      }

      .cls-27 {
        fill: #70fc80;
      }

      .cls-28 {
        fill: #524056;
      }

      .cls-29 {
        opacity: .14;
      }

      .cls-30 {
        opacity: .22;
      }

      .cls-31 {
        opacity: .19;
      }

      .cls-32 {
        opacity: .3;
      }

      .cls-33 {
        opacity: .26;
      }

      .cls-34 {
        opacity: .61;
      }

      .cls-35 {
        opacity: .56;
      }

      .cls-36 {
        opacity: .5;
      }

      .cls-16 {
        opacity: .57;
      }
    </style>
  </defs>
  <g id="Layer_1-2" data-name="Layer 1">
    <g>
      <g class="cls-32">
        <g>
          <path class="cls-22" d="M215.08,189.53c8.53,0,17.07,0,25.6,0,.46,0,.46-.72,0-.72-8.53,0-17.07,0-25.6,0-.46,0-.46,.72,0,.72h0Z"/>
          <path class="cls-22" d="M229.78,178.25v21.08c0,.46,.72,.46,.72,0v-21.08c0-.46-.72-.46-.72,0h0Z"/>
          <path class="cls-22" d="M223.36,199.69h24.85c.46,0,.46-.72,0-.72h-24.85c-.46,0-.46,.72,0,.72h0Z"/>
          <path class="cls-22" d="M243.33,193.31c0,5.77,0,11.55,0,17.32,0,.46,.72,.46,.72,0,0-5.77,0-11.55,0-17.32,0-.46-.72-.46-.72,0h0Z"/>
          <path class="cls-22" d="M233.9,211.36c7.4,0,14.81,0,22.21,0,.46,0,.46-.72,0-.72-7.4,0-14.81,0-22.21,0-.46,0-.46,.72,0,.72h0Z"/>
        </g>
        <g>
          <path class="cls-22" d="M.77,200.54c8.53,0,17.07,0,25.6,0,.46,0,.46-.72,0-.72-8.53,0-17.07,0-25.6,0-.46,0-.46,.72,0,.72H.77Z"/>
          <path class="cls-22" d="M15.48,189.26v21.08c0,.46,.72,.46,.72,0v-21.08c0-.46-.72-.46-.72,0h0Z"/>
          <path class="cls-22" d="M9.06,210.7h24.85c.46,0,.46-.72,0-.72H9.06c-.46,0-.46,.72,0,.72h0Z"/>
          <path class="cls-22" d="M29.03,204.32c0,5.77,0,11.55,0,17.32,0,.46,.72,.46,.72,0,0-5.77,0-11.55,0-17.32,0-.46-.72-.46-.72,0h0Z"/>
          <path class="cls-22" d="M19.6,222.37c8.74,0,17.47,0,26.21,0,.46,0,.46-.72,0-.72-8.74,0-17.47,0-26.21,0-.46,0-.46,.72,0,.72h0Z"/>
        </g>
        <g>
          <path class="cls-22" d="M42.56,110.98H16.96c-.46,0-.46,.72,0,.72h25.6c.46,0,.46-.72,0-.72h0Z"/>
          <path class="cls-22" d="M27.86,122.25v-21.08c0-.46-.72-.46-.72,0v21.08c0,.46,.72,.46,.72,0h0Z"/>
          <path class="cls-22" d="M34.28,100.81H9.43c-.46,0-.46,.72,0,.72h24.85c.46,0,.46-.72,0-.72h0Z"/>
          <path class="cls-22" d="M14.31,107.19c0-5.77,0-11.55,0-17.32,0-.46-.72-.46-.72,0,0,5.77,0,11.55,0,17.32,0,.46,.72,.46,.72,0h0Z"/>
          <path class="cls-22" d="M23.74,89.14c-7.4,0-14.81,0-22.21,0-.46,0-.46,.72,0,.72,7.4,0,14.81,0,22.21,0,.46,0,.46-.72,0-.72h0Z"/>
        </g>
        <g>
          <path class="cls-22" d="M269.57,92.15c-8.53,0-17.07,0-25.6,0-.46,0-.46,.72,0,.72,8.53,0,17.07,0,25.6,0,.46,0,.46-.72,0-.72h0Z"/>
          <path class="cls-22" d="M254.87,103.43v-21.08c0-.46-.72-.46-.72,0v21.08c0,.46,.72,.46,.72,0h0Z"/>
          <path class="cls-22" d="M261.29,81.99h-24.85c-.46,0-.46,.72,0,.72h24.85c.46,0,.46-.72,0-.72h0Z"/>
          <path class="cls-22" d="M241.32,88.37c0-5.77,0-11.55,0-17.32,0-.46-.72-.46-.72,0,0,5.77,0,11.55,0,17.32,0,.46,.72,.46,.72,0h0Z"/>
          <path class="cls-22" d="M250.75,70.32c-7.4,0-14.81,0-22.21,0-.46,0-.46,.72,0,.72,7.4,0,14.81,0,22.21,0,.46,0,.46-.72,0-.72h0Z"/>
        </g>
      </g>
      <path class="cls-23" d="M163.43,164.32c-1.01,15.98,1.02,43.81,1.25,59.81l.09,1.69c3.46,21.09,5.15,35.43,8.61,56.52l3.82,.59c2.48,.39,5.01,.27,7.44-.35l3.6-1.34c-1.22-22.85,.7-54.99,.81-77.87l-1.36-10.75c1.41,17.2,6.36,34.1,14.45,49.34,3.42,6.45,7.39,12.59,11.35,18.71,3.73,5.76,7.58,11.84,11.31,17.6l5.08-2.75,3.6-4.09c-6.04-18.77-11.29-39.83-17.33-58.6l.02-2.4c-.66-5.99,1.1-11.97,3.15-17.63,2.05-5.66,4.44-11.3,5.11-17.29,.33-2.97,.23-6-.3-8.94l-60.71-2.26Z"/>
      <path class="cls-25" d="M219.33,192.52c-2.05,5.67-3.81,11.64-3.15,17.63l-.02,2.4c1.44,4.47,2.83,9.07,4.2,13.74-7.13-4.58-12.47-11.96-14.4-20.24-1.19-5.11-1.2-10.64-3.81-15.2-4.41-7.69-14.42-9.89-21.12-15.68-3.41-2.95-5.85-6.71-7.84-10.78l11.89,.45s-.05,.03-.08,.05c-2.63,1.94-5.16,4.29-6.95,7,13.93,3.28,28.87,2.3,42.23-2.86,1.39-.54,2.83-1.18,3.96-2.13,.44,2.75,.51,5.56,.2,8.34-.67,5.98-3.06,11.62-5.11,17.28Z"/>
      <path class="cls-8" d="M130.1,73.12c7.97-.96,14.15-1.76,22.12-2.73,1.56-.19,3.13-.87,4.43-1.79,3.31-2.33,2.52-7.45,1.89-11.56l-4.74-34.56-.31-1.81-1.54-13.56c-.45-3.93-3.98-6.77-7.92-6.36l-7.15,.74c-27.91,2.23-58.13,6.72-86.05,8.75-2.02,.15-6.74,.43-8.36,1.69-2.87,2.23-1.62,8-1.27,11.72,1.55,16.44,4.51,35.79,7.8,51.95,.29,1.43,1.39,2.87,2.33,3.96,1.45,1.68,3.9,1.86,6.04,1.59,2.9-.37,14.38-1.5,17.29-1.74l3.11-.07c15.43-1.46,26.73-2.71,42.16-4.16"/>
      <path class="cls-17" d="M43.71,43.38c.11-.25,.15-.54,.1-.87-1.52-9.01-2.79-18.02-2.85-27.18,0-.71,1.97-4.28,1.42-4.47-.62-.21-4.69,2.61-4.67,4.06s-.6,2.15-.43,3.62c.2,1.78,.31,3.56,.44,5.35l.87,12.16c.29,4,.64,7.92,1.6,11.82,.88,3.6,1.54,7.26,2.44,10.86,.4,1.6,3.08,1.32,2.95-.4-.39-5.01-.98-10.01-1.85-14.97Z"/>
      <path class="cls-22" d="M44.74,10.1c-2.92,.43-5.88,1.31-7.15,4.23-1.39,3.23-.78,7.09-.41,10.46,.89,8,1.76,16,2.95,23.97,.71,4.69,1.51,9.37,2.45,14.02,.09,.45,.78,.26,.69-.19-1.94-9.61-3.3-19.33-4.43-29.08-.53-4.58-1.31-9.25-1.37-13.86-.03-2.19,.15-4.84,1.7-6.54,1.44-1.58,3.73-2.01,5.75-2.31,.45-.07,.26-.76-.19-.69h0Z"/>
      <g class="cls-31">
        <path class="cls-22" d="M67.26,17.2c1.99,16.4,4.36,32.74,7.13,49.02,.08,.45,.77,.26,.69-.19-2.75-16.22-5.12-32.5-7.1-48.83-.05-.45-.77-.46-.72,0h0Z"/>
        <path class="cls-22" d="M82.22,15.51c1.99,16.4,4.36,32.74,7.13,49.02,.08,.45,.77,.26,.69-.19-2.75-16.22-5.12-32.5-7.1-48.83-.05-.45-.77-.46-.72,0h0Z"/>
        <path class="cls-22" d="M96.34,13.81c1.99,16.4,4.36,32.74,7.13,49.02,.08,.45,.77,.26,.69-.19-2.75-16.22-5.12-32.5-7.1-48.83-.05-.45-.77-.46-.72,0h0Z"/>
        <path class="cls-22" d="M123.73,10.71c1.99,16.4,4.36,32.74,7.13,49.02,.08,.45,.77,.26,.69-.19-2.75-16.22-5.12-32.5-7.1-48.83-.05-.45-.77-.46-.72,0h0Z"/>
        <path class="cls-22" d="M137.84,9.01c1.98,16.44,3.23,32.97,6,49.31,.08,.45,.77,.26,.69-.19-2.75-16.27-4-32.74-5.97-49.12-.05-.45-.77-.46-.72,0h0Z"/>
        <path class="cls-22" d="M109.89,12.4c1.99,16.4,4.36,32.74,7.13,49.02,.08,.45,.77,.26,.69-.19-2.75-16.22-5.12-32.5-7.1-48.83-.05-.45-.77-.46-.72,0h0Z"/>
      </g>
      <g class="cls-35">
        <path class="cls-27" d="M65.45,60.23c1.44-5.57,4.41-11.03,9.29-14.29,2.35-1.57,5.06-2.67,7.88-2.97,3.01-.32,5.77,.43,8.58,1.4s5.68,2.05,8.69,1.88,5.46-1.39,7.67-3.18c4.64-3.77,6.7-9.48,9.82-14.39,3.45-5.45,8.83-9.3,15.1-10.81,1.88-.45,1.08-3.34-.8-2.89-5.58,1.34-10.76,4.45-14.46,8.85-4,4.75-5.78,11.02-10.07,15.53-1.92,2.02-4.4,3.71-7.26,3.89-3.17,.2-6.19-1.23-9.13-2.19-5.87-1.93-11.95-1.28-17.2,2.06-5.74,3.66-9.33,9.83-11.01,16.31-.48,1.87,2.41,2.67,2.89,.8h0Z"/>
      </g>
      <path class="cls-21" d="M48.73,17.46c.77,9.32,1.7,18.63,3.08,27.88,.7,4.67,1.51,9.32,2.49,13.94,.48,2.26,.97,4.51,1.55,6.74,.42,1.63,1.1,3.32,2.66,4.18,1.79,.98,4.17,.4,6.08,.22,2.33-.22,4.65-.43,6.97-.65,4.76-.45,9.51-.92,14.26-1.4,9.47-.95,18.94-1.96,28.4-3.04,10.61-1.21,21.21-2.5,31.79-3.91,.81-.11,1.49-.61,1.5-1.5,0-.73-.7-1.61-1.5-1.5-18.09,2.4-36.22,4.48-54.37,6.35-9.01,.93-18.03,1.81-27.06,2.64-1.52,.14-4.35,1.02-5.29-.58s-1.14-3.96-1.55-5.77c-.99-4.38-1.82-8.78-2.54-13.21-1.63-10.08-2.64-20.24-3.49-30.41-.16-1.91-3.16-1.93-3,0h0Z"/>
      <path class="cls-11" d="M218.86,280.11c-3.5,4.88-5.74,10.67-6.43,16.63-.2,1.74-.19,3.75,1.08,4.96,1.14,1.09,2.89,1.15,4.46,1.07,10.21-.54,20.18-4.7,27.75-11.57,.88-.8,1.78-1.72,1.97-2.89,.15-.91-.14-1.82-.47-2.68-1.8-4.68-4.83-8.88-8.69-12.08"/>
      <path class="cls-5" d="M218.99,283.37c3.31,2.33,8.27,1.7,11.82,.28s6.81-4.07,8.83-7.49c.98-1.67-1.61-3.18-2.59-1.51-1.61,2.73-4.11,4.89-7.04,6.11s-6.85,1.9-9.51,.03c-1.58-1.11-3.08,1.49-1.51,2.59h0Z"/>
      <path class="cls-11" d="M167.05,284.29c-3.26,1.67-5.91,4.37-7.96,7.41s-2.65,5.52-3.99,8.93h0c-.29,1.09,.33,2.24,1.42,2.55,12.32,3.6,25.81,3.09,37.81-1.48,.39-.15,.8-.32,1.05-.65,.29-.39,.3-.91,.29-1.4-.14-5.24-1.6-10.44-4.2-14.98"/>
      <path class="cls-5" d="M166.46,286.59c3.26,2.89,7.84,3.24,12.01,3.25,4.57,0,9.16-.8,13.16-3.08,1.07-.61,.11-2.25-.96-1.64-3.6,2.05-7.69,2.78-11.79,2.82-3.71,.03-8.15-.09-11.07-2.69-.91-.81-2.27,.53-1.35,1.35h0Z"/>
      <path class="cls-23" d="M220.71,272.91c-1.21,1.51-1.83,3.48-1.69,5.42,.05,.76,.22,1.52,.62,2.18,.88,1.44,2.69,2.05,4.37,2.15,3.2,.19,6.35-1.04,9.01-2.82,1.8-1.21,3.47-2.71,4.46-4.65s1.21-4.34,.19-6.26-3.41-3.12-5.47-2.43"/>
      <path class="cls-23" d="M171.66,278.53c-1.27,.59-2.52,1.33-3.36,2.46s-1.19,2.7-.57,3.96c.7,1.43,2.38,2.06,3.94,2.43,5.2,1.24,10.75,1,15.82-.68,1.67-.56,3.43-1.39,4.19-2.99,.58-1.22,.42-2.73-.31-3.87s-1.98-1.9-3.31-2.12"/>
      <path class="cls-25" d="M220.54,234.24c2.82,10.23,5.34,20.54,8.61,30.64,.38,1.16,2.22,.66,1.84-.51-3.27-10.1-5.79-20.41-8.61-30.64-.33-1.18-2.16-.68-1.84,.51h0Z"/>
      <path class="cls-13" d="M165.01,216.93c-.17,7.98,1.09,15.92,2.46,23.76,.19,1.1,1.87,.63,1.68-.46-1.34-7.69-2.56-15.47-2.39-23.3,.02-1.12-1.72-1.12-1.74,0h0Z"/>
      <path class="cls-13" d="M163.27,168.27c0,8.1,.25,16.19,.42,24.28,.02,1.12,1.76,1.12,1.74,0-.17-8.09-.42-16.19-.42-24.28,0-1.12-1.74-1.12-1.74,0h0Z"/>
      <path class="cls-6" d="M108.66,76.12c-.76,2.65-.5,5.58,.72,8.05s3.37,4.47,5.93,5.5l2.22,.81c1.65-.23,3.15-1.11,4.42-2.19,4.02-3.42,5.89-8.89,5.89-14.17,0-1.89-.23-3.84-1.17-5.48s-2.7-2.92-4.58-2.83c-1.13,.05-2.19,.58-3.08,1.27-1.48,1.16-2.52,2.47-2.34,4.34,.15,1.61,.41,2.4,.68,2.87,.16,.28,.02,.54,.73,.52l-9.42,1.3Z"/>
      <path class="cls-4" d="M110.41,77.82c2.39-.2,4.78-.4,7.17-.6,.61-.05,1.2-.5,1.17-1.17-.03-.59-.52-1.22-1.17-1.17-2.39,.2-4.78,.4-7.17,.6-.61,.05-1.2,.5-1.17,1.17,.03,.59,.52,1.22,1.17,1.17h0Z"/>
      <path class="cls-14" d="M170.77,112.15c-6.09,3.56-19.38,7.42-26.43,7.06-1.08-.05-2.18-.17-3.14-.66-1.11-.57-1.91-1.58-2.68-2.56-6.63-8.49-13.27-16.97-19.9-25.46l3.89-2.97,3.24-4.18c7.81,5.77,16.29,12.52,24.1,18.29l1.15-.25c6.59-4.06,16.1-9.76,24.52-13.14"/>
      <path class="cls-26" d="M150.78,119.13c5.95-1.36,12.33-2.64,17.41-6.22,.66-.47,.97-1.31,.54-2.05-.38-.65-1.39-1.01-2.05-.54-4.88,3.44-10.99,4.61-16.7,5.92-1.88,.43-1.09,3.32,.8,2.89h0Z"/>
      <path class="cls-14" d="M205.22,75.66c4.95,2.98,8.99,7.39,11.11,13.32l-1.95,14.6c-4.26-.24-7.9-3.95-7.68-7.81,.23-3.86,4.31-6.8,8.57-6.63,1.58,.06,3,.65,4.41,1.31,5.1,2.36,8.2,6.8,11.37,11.12,3.46,4.71,6.64,11.13,8.85,16.42,.72,1.73,1.94,5.83,1.67,7.67-.23,1.56,.24,4.71-.42,6.19-1.98,4.42,.28,9.79-16.38,19.01l1.52-27.92c.23,12.46,.46,24.92,.69,37.39,.03,1.66,.04,3.39-.71,4.86-1.04,2.04-3.3,3.11-5.44,3.94-14.88,5.75-31.71,6.31-46.94,1.57-4.53-1.41-9.19-3.49-11.73-7.49v-.23c5.46-17.43,7.62-37.83,9.86-55.96,.67-5.46,1.29-11.39,3.03-16.61,1.75-5.22,4.24-9.55,8.43-13.12"/>
      <path class="cls-26" d="M170.76,114.06c-.8,8.29-1.71,16.57-3.17,24.77-1.35,7.57-3.18,15.05-5.15,22.48-.29,1.09-.61,2.21,0,3.25,.56,.95,1.67,1.47,2.59,2,2.39,1.38,4.86,2.6,7.4,3.7,1.75,.76,3.28-1.82,1.51-2.59-2.11-.91-4.18-1.91-6.19-3.02-.47-.26-.94-.52-1.4-.79-.27-.16-1.19-.5-1.27-.76-.06-.19,.2-.78,.26-.98,.15-.55,.29-1.1,.43-1.65,.96-3.67,1.89-7.35,2.73-11.05,1.57-6.92,2.77-13.91,3.68-20.95,.62-4.79,1.12-9.59,1.59-14.4,.18-1.92-2.82-1.91-3,0h0Z"/>
      <g class="cls-36">
        <path class="cls-26" d="M241.29,124.65c-.22,1.56,.81,5.8-.14,7.11-2.26,3.11,.94,9.32-14.68,17.98l-.73-26.6c.23,12.46,.46,24.92,.69,37.39,.03,1.65,.05,3.39-.71,4.86-1.04,2.04-3.3,3.11-5.44,3.94-13.36,5.16-28.3,6.14-42.23,2.86,1.79-2.71,4.32-5.06,6.95-7,4.65-3.42,9.91-6.15,13.79-10.42,6.39-7.02,8.08-17.14,7.94-26.63-.14-9.49-1.82-18.98-1-28.43,.54-6.25,2.44-12.69,6.03-17.72,1.64,2.05,3,4.4,3.96,7.05,1.22,.18,2.39,.58,3.49,1.09,5.11,2.36,8.67,6.46,11.85,10.78,3.46,4.71,6.76,12.86,8.96,18.15,.73,1.73,1.55,3.76,1.28,5.6Z"/>
      </g>
      <path class="cls-14" d="M188.77,73.69c-4.71,.55-6.3,3.81-6.16,6.02s1.92,4.54,4.06,5.64c2.14,1.11,4.66,1.46,7.13,1.5,2.86,.06,5.81-.29,8.28-1.6s4.35-3.7,4.27-6.27c-.09-2.86-2.87-5.45-6.05-5.63"/>
      <path class="cls-6" d="M200.02,69.63v6.6c0,3.12-2.53,5.65-5.65,5.65h0c-3.12,0-5.65-2.53-5.65-5.65v-5.6"/>
      <path class="cls-6" d="M178.49,24.33c-4.6,3-8.16,7.55-9.97,12.74s-1.86,10.96-.13,16.17c.69,2.08,1.65,4.07,2.79,5.94,2.69,4.4,6.54,8.26,11.37,10.05,2.24,.83,4.62,1.2,7,1.34,5.48,.32,11.09-.58,16.03-2.97,4.94-2.4,9.19-6.34,11.6-11.28"/>
      <path class="cls-6" d="M217.2,56.32s-1.83-2.99-.33-7.88V23.59l-38.38,.74"/>
      <path class="cls-6" d="M221.6,46.7c1.56-.16,3.18,.28,4.45,1.21s2.17,2.35,2.47,3.89c.1,.51,.14,1.03,.09,1.54-.19,1.97-1.13,3.51-2.76,4.63-.35,.24-1.21,.57-1.62,.71-.64,.21-2.12,.21-2.78,.12-1.22-.18-1.77-.47-2.78-1.18s-2.17-1.79-2.52-2.98l-.64-6.26"/>
      <path class="cls-2" d="M217.34,49.33c-1.51-2.6-2.17-5.68-1.87-8.67-3.16-.51-5.96-2.52-7.81-5.13s-2.84-5.75-3.26-8.93l3.96-2.59c-4.05,3.77-10.21,3.84-15.73,3.5-2.87-.18-5.76-.41-8.53-1.17-7.38-2.03-13.55-8.02-15.79-15.34l-.08-.29c4.32-4.61,10.75-8.15,17.02-8.91,7.61-.93,15.59-.19,22.44,3.25s12.45,11.31,13.87,18.85l-1.18-4.87c2.24-.26,4.46,1.01,5.81,2.81s1.96,4.05,2.27,6.28c.89,6.4-.49,13.09-3.84,18.61l-4.23,.42-3.06,2.19Z"/>
      <path class="cls-8" d="M180.9,35.05c-2.15-.06-5.39,1.76-5.86,3.85-.18,.81-.14,1.65,.01,2.47,.13,.71,.36,1.41,.77,2,.46,.67,1.14,1.16,1.88,1.5,1.61,.73,3.55,.69,5.09-.18s2.6-2.55,2.62-4.31-.94-3.52-2.53-4.27"/>
      <path class="cls-8" d="M192.37,38.16c-2.15-.06-5,1.76-5.47,3.85-.18,.81-.14,1.65,.01,2.47,.13,.71,.36,1.41,.77,2,.46,.67,1.14,1.16,1.88,1.5,1.61,.73,3.55,.69,5.09-.18s2.6-2.55,2.62-4.31-1.02-3.52-2.61-4.26"/>
      <path class="cls-22" d="M186.45,241.87c.14-3.57,.27-7.13,.41-10.7l.06-1.54c.02-.46-.7-.46-.72,0-.14,3.57-.27,7.13-.41,10.7l-.06,1.54c-.02,.46,.7,.46,.72,0h0Z"/>
      <path class="cls-22" d="M164.57,226.25c2.25,13.74,4.09,27.55,6.16,41.32,.64,4.28,1.32,8.57,2.02,12.84,.07,.45,.76,.26,.69-.19-2.25-13.74-4.09-27.55-6.16-41.32-.64-4.28-1.32-8.57-2.02-12.84-.07-.45-.76-.26-.69,.19h0Z"/>
      <path class="cls-22" d="M188.5,280.52c-1.06-20.23,.15-40.53,.74-60.75,.16-5.35,.28-10.7,.31-16.06,0-.46-.71-.46-.72,0-.11,20.26-1.42,40.5-1.43,60.76,0,5.35,.09,10.7,.37,16.04,.02,.46,.74,.46,.72,0h0Z"/>
      <path class="cls-22" d="M171.48,278.22c-2.31,1.1-4.9,3.09-4.36,6s4.34,3.59,6.79,3.96c3.42,.52,6.93,.44,10.32-.25,2.6-.52,6.29-1.3,7.67-3.89,1.57-2.97-.81-6.06-3.76-6.67-.45-.09-.64,.6-.19,.69,1.83,.38,3.41,1.6,3.67,3.55s-.93,3.22-2.49,4.03c-2.88,1.5-6.51,2.03-9.72,2.15s-6.73-.04-9.54-1.38c-1.63-.78-2.5-2.3-1.88-4.08s2.28-2.74,3.86-3.49c.42-.2,.05-.81-.36-.62h0Z"/>
      <path class="cls-22" d="M187.48,192.96c.99,11.85,3.61,23.54,7.8,34.67,4.35,11.55,10.6,22.03,17.28,32.36,3.98,6.16,7.97,12.32,11.95,18.48,.25,.39,.87,.03,.62-.36-6.86-10.61-14.07-21.07-20.35-32.04s-10.48-21.59-13.34-33.24c-1.61-6.53-2.68-13.18-3.25-19.87-.04-.46-.75-.46-.72,0h0Z"/>
      <path class="cls-22" d="M215.89,212.91c4.85,15.12,8.72,30.53,13.14,45.77,1.24,4.26,2.52,8.52,3.87,12.74,.14,.44,.83,.25,.69-.19-4.85-15.12-8.72-30.53-13.14-45.77-1.24-4.26-2.52-8.52-3.87-12.74-.14-.44-.83-.25-.69,.19h0Z"/>
      <path class="cls-22" d="M223.94,167c.7,4.05,.59,8.15-.27,12.17-.79,3.71-2.1,7.27-3.42,10.82-2.52,6.77-5.16,13.89-4.42,21.24,.05,.45,.76,.46,.72,0-.77-7.78,2.25-15.21,4.88-22.36s4.53-14.36,3.2-22.06c-.08-.45-.77-.26-.69,.19h0Z"/>
      <path class="cls-22" d="M220.4,272.73c-1.65,2.16-2.64,5.86-.88,8.25s5.34,2.3,7.89,1.73c5.31-1.19,12.4-6.09,11.12-12.37-.59-2.88-3.5-5.07-6.44-4.19-.44,.13-.25,.82,.19,.69,1.58-.47,3.24,.09,4.36,1.28,1.17,1.25,1.5,3.06,1.23,4.72-.55,3.29-3.27,5.67-5.99,7.28s-6.44,2.89-9.64,1.86c-3.96-1.27-3.28-6.2-1.22-8.88,.28-.37-.34-.72-.62-.36h0Z"/>
      <path class="cls-22" d="M218.89,280.12c-3.4,4.79-5.96,10.24-6.75,16.11-.26,1.97-.4,4.41,1.26,5.85,1.76,1.52,4.53,1.11,6.64,.9,5.56-.56,11-2.17,15.99-4.69,2.47-1.24,4.82-2.71,7.01-4.39,1.78-1.35,4.57-3.12,5-5.49,.26-1.4-.43-2.83-.97-4.09-.59-1.37-1.29-2.69-2.09-3.95-1.68-2.67-3.78-5.04-6.2-7.07-.35-.29-.86,.21-.51,.51,3.79,3.18,6.85,7.28,8.6,11.92,.65,1.72,.62,3.13-.69,4.53-.84,.89-1.82,1.68-2.77,2.44-1.97,1.58-4.08,2.98-6.29,4.2-4.32,2.39-9.04,4.06-13.91,4.92-2.27,.4-4.79,.84-7.1,.58-3.32-.37-3.65-3.3-3.29-6.03,.76-5.79,3.31-11.16,6.67-15.89,.27-.38-.35-.73-.62-.36h0Z"/>
      <path class="cls-22" d="M117.63,90.83c3.36-.58,6.05-3.24,7.76-6.05,1.8-2.96,2.68-6.45,2.8-9.89,.11-3.23-.46-7.06-3.57-8.79-2.85-1.59-6.14,.2-7.67,2.79-1.6,2.73-.48,6.93,3.14,7.02,.46,.01,.46-.7,0-.72-2.18-.05-3.52-2.26-3.15-4.29,.34-1.86,1.84-3.52,3.53-4.3,1.95-.9,4.02-.19,5.34,1.42,1.25,1.52,1.6,3.58,1.66,5.5,.1,3.4-.58,6.89-2.16,9.92s-4.32,6.09-7.88,6.7c-.45,.08-.26,.77,.19,.69h0Z"/>
      <g>
        <path class="cls-22" d="M125.75,83.65c8.11,6,15.99,12.29,24.1,18.29,.37,.27,.73-.35,.36-.62-8.11-6-15.99-12.29-24.1-18.29-.37-.27-.73,.35-.36,.62h0Z"/>
        <path class="cls-22" d="M151.37,101.7c8.1-4.62,16.26-9.15,24.47-13.57,.41-.22,.04-.84-.36-.62-8.22,4.42-16.37,8.95-24.47,13.57-.4,.23-.04,.85,.36,.62h0Z"/>
        <path class="cls-22" d="M118.55,90.75c6.78,8.67,13.38,17.54,20.37,26.05,1.31,1.59,2.73,2.47,4.8,2.67,1.65,.16,3.32,.06,4.96-.12,3.85-.44,7.65-1.36,11.34-2.49s7.72-2.57,11.22-4.59c.4-.23,.04-.85-.36-.62-2.97,1.71-6.22,2.95-9.47,4.02-3.6,1.18-7.29,2.15-11.04,2.73-1.67,.26-3.36,.44-5.05,.43-2.37-.02-4.2-.53-5.76-2.4-3.28-3.92-6.32-8.06-9.47-12.09l-11.02-14.1c-.28-.36-.79,.15-.51,.51h0Z"/>
      </g>
      <g>
        <path class="cls-22" d="M77.77,79.34c14.06-1.33,28.1-2.84,42.16-4.16,.45-.04,.46-.76,0-.72-14.06,1.33-28.1,2.84-42.16,4.16-.45,.04-.46,.76,0,.72h0Z"/>
        <path class="cls-22" d="M130.1,73.1c4.63-.56,9.26-1.14,13.88-1.72,2.26-.28,4.53-.56,6.79-.84,2.13-.26,4.07-.65,5.88-1.89,4.13-2.82,2.7-8.69,2.13-12.85-1.14-8.35-2.29-16.71-3.43-25.06-.4-2.91-.8-5.83-1.2-8.74-.06-.45-.75-.26-.69,.19,.92,6.74,1.85,13.48,2.77,20.23l1.62,11.84c.49,3.6,1.64,7.64,.43,11.15-.8,2.33-3.2,3.69-5.52,4.14-2.59,.51-5.29,.67-7.9,1-4.92,.61-9.84,1.23-14.76,1.83-.45,.05-.46,.77,0,.72h0Z"/>
        <path class="cls-22" d="M74.67,78.69c-5.16,.43-10.32,.96-15.46,1.53-1.15,.13-2.31,.33-3.47,.31-2.56-.02-4.16-1.25-5.49-3.37-1.14-1.81-1.32-4.13-1.72-6.2s-.82-4.31-1.21-6.47c-1.62-8.99-3.01-18.03-4.17-27.09-.56-4.35-1.06-8.71-1.48-13.07-.32-3.24-1.21-6.85-.4-10.07,.89-3.52,4.95-3.74,7.98-4.11,4.09-.5,8.19-.91,12.28-1.35,9.46-1.03,18.92-2.04,28.39-3s18.96-1.89,28.45-2.75c7.2-.65,14.42-1.15,21.61-1.9,2-.21,4.33-.75,6.32-.29,3.03,.69,4.98,3.24,5.34,6.24,.47,4,.91,8,1.37,12l.14,1.2c.05,.45,.77,.46,.72,0-.44-3.9-.89-7.81-1.33-11.71-.21-1.87-.37-3.68-1.48-5.29-1.62-2.36-4.36-3.53-7.17-3.26-15.9,1.52-31.82,2.84-47.71,4.42-10.05,1-20.09,2.06-30.14,3.14-5.02,.54-10.03,1.09-15.05,1.65-2.67,.29-5.96,.37-8.32,1.77-2.66,1.58-2.5,5.41-2.27,8.07,.35,3.97,.82,7.94,1.27,11.9,1.07,9.42,2.43,18.81,4.01,28.16,.77,4.57,1.6,9.14,2.5,13.69,.42,2.11,.78,3.86,2.11,5.61,1.1,1.45,2.29,2.4,4.13,2.69,2.55,.4,5.45-.29,8-.55,3.08-.32,6.17-.62,9.25-.91,1-.09,2-.19,3.01-.27,.46-.04,.46-.75,0-.72h0Z"/>
      </g>
      <path class="cls-22" d="M179.74,34.89c-1.89-.02-3.71,1.07-4.6,2.74-1,1.87-.73,4.69,.68,6.31s3.88,2.13,5.89,1.57,3.59-2.23,3.97-4.27c.4-2.17-.7-4.46-2.7-5.43-.41-.2-.77,.42-.36,.62,1.51,.74,2.49,2.34,2.43,4.03s-1.19,3.34-2.75,4.08c-1.69,.8-3.87,.59-5.37-.53s-2.04-3.65-1.43-5.43,2.38-2.99,4.23-2.97c.46,0,.46-.71,0-.72h0Z"/>
      <path class="cls-22" d="M191.6,38c-1.89-.02-3.71,1.07-4.6,2.74-1,1.87-.73,4.69,.68,6.31s3.88,2.13,5.89,1.57,3.59-2.23,3.97-4.27c.4-2.17-.7-4.46-2.7-5.43-.41-.2-.77,.42-.36,.62,1.51,.74,2.49,2.34,2.43,4.03s-1.19,3.34-2.75,4.08c-1.69,.8-3.87,.59-5.37-.53s-2.04-3.65-1.43-5.43,2.38-2.99,4.23-2.97c.46,0,.46-.71,0-.72h0Z"/>
      <path class="cls-22" d="M184.04,34.06c-1.22-.87-2.7-1.24-4.19-1.05-.8,.1-1.57,.33-2.36,.5-.72,.16-2.06,.53-2.03-.62,.04-1.5,1.97-2.38,3.2-2.7,1.46-.37,3.06-.31,4.51,.04,.78,.19,1.65,.53,2.06,1.26,.33,.59,.32,1.48-.31,1.88-.39,.25-.03,.87,.36,.62,1.34-.85,.99-2.75-.11-3.63-1.34-1.07-3.51-1.23-5.16-1.11s-3.58,.71-4.66,2.1c-.48,.62-.79,1.47-.48,2.24,.34,.85,1.21,.86,1.99,.75,1.19-.17,2.33-.63,3.53-.67s2.31,.32,3.27,1c.38,.27,.73-.35,.36-.62h0Z"/>
      <path class="cls-22" d="M183.86,34.37c-.99-.73-2.23-1.1-3.45-1.05-1.35,.06-2.64,.62-4,.73-.3,.02-.62,.02-.87-.14-.28-.18-.41-.53-.43-.86-.05-.9,.6-1.7,1.33-2.23,1.78-1.26,4.13-1.42,6.28-1.04,.99,.18,2.02,.5,2.65,1.28s.61,2.13-.26,2.63"/>
      <path class="cls-22" d="M196.95,37.45c-1.02-1.01-2.35-1.62-3.78-1.72-.84-.06-1.68,.05-2.51,.1-.69,.04-2.11,.25-2.01-.79,.14-1.58,2.39-2.19,3.67-2.29,1.53-.12,3.18,.21,4.57,.85,.71,.33,1.48,.84,1.69,1.64,.17,.66-.05,1.4-.7,1.68-.42,.18-.06,.8,.36,.62,1.39-.6,1.34-2.49,.48-3.5-1.12-1.33-3.26-1.82-4.9-1.99-1.73-.18-3.82,.11-5.1,1.39-.53,.52-.93,1.31-.75,2.06,.21,.88,1.04,1.03,1.83,1.05,1.21,.03,2.41-.24,3.61-.1s2.22,.68,3.05,1.49c.33,.32,.83-.18,.51-.51h0Z"/>
      <path class="cls-22" d="M196.7,37.71c-.86-.88-2.02-1.45-3.24-1.59-1.35-.16-2.71,.18-4.06,.08-.3-.02-.61-.08-.83-.28-.25-.22-.32-.59-.28-.92,.1-.9,.86-1.58,1.68-1.98,1.96-.96,4.31-.74,6.36-.01,.94,.33,1.91,.82,2.41,1.69s.26,2.2-.68,2.55"/>
      <path class="cls-22" d="M178.57,45.1c-.22-.76-.23-1.58-.04-2.35,.05-.18,.1-.36,.06-.54-.04-.2-.2-.36-.34-.5-.47-.46-.94-.92-1.4-1.38,.8-.13,1.62-.15,2.43-.06-.04-1.67,.45-3.35,1.4-4.74-1.46-.49-3.17-.1-4.28,.96-1.07,1.03-1.53,2.59-1.4,4.06s.81,2.86,1.73,4.02"/>
      <path class="cls-22" d="M190.53,48.28c-.22-.76-.23-1.58-.04-2.35,.05-.18,.1-.36,.06-.54-.04-.2-.2-.36-.34-.5-.47-.46-.94-.92-1.4-1.38,.8-.13,1.62-.15,2.43-.06-.04-1.67,.45-3.35,1.4-4.74-1.46-.49-3.17-.1-4.28,.96-1.07,1.03-1.53,2.59-1.4,4.06s.81,2.86,1.73,4.02"/>
      <path class="cls-22" d="M190.49,38.84c.06-.01,.12-.02,.17-.03,.04,0,.09-.01,.13-.02,.02,0,.16-.02,.08-.01,.26-.03,.52-.05,.78-.06,.6-.01,1.21,.05,1.74,.33,.4,.22,.77-.4,.36-.62-1.04-.57-2.33-.49-3.46-.28-.19,.04-.3,.26-.25,.44,.05,.2,.25,.29,.44,.25h0Z"/>
      <path class="cls-22" d="M178.74,35.73c.06-.01,.12-.02,.17-.03,.04,0,.09-.01,.13-.02,.02,0,.16-.02,.08-.01,.26-.03,.52-.05,.78-.06,.6-.01,1.21,.05,1.74,.33,.4,.22,.77-.4,.36-.62-1.04-.57-2.33-.49-3.46-.28-.19,.04-.3,.26-.25,.44,.05,.2,.25,.29,.44,.25h0Z"/>
      <path class="cls-8" d="M177.48,38.73c.97,0,.97-1.5,0-1.5s-.97,1.5,0,1.5h0Z"/>
      <path class="cls-8" d="M189.34,41.62c.97,0,.97-1.5,0-1.5s-.97,1.5,0,1.5h0Z"/>
      <path class="cls-22" d="M50.99,17.22c.94,9.11,2.11,18.19,3.51,27.24,.72,4.67,1.51,9.33,2.36,13.97,.41,2.24,.81,4.49,1.27,6.72,.26,1.27,.68,2.65,2.08,3.04,.79,.22,1.63,.09,2.43,0,1.24-.13,2.48-.27,3.72-.41,2.39-.26,4.79-.53,7.18-.79,4.71-.52,9.41-1.04,14.12-1.55,9.41-1.04,18.82-2.07,28.24-3.11,10.65-1.17,21.3-2.34,31.95-3.52,.45-.05,.46-.77,0-.72-18.08,1.99-36.16,3.98-54.24,5.97-9.08,1-18.16,2-27.25,3-1.07,.12-2.15,.24-3.22,.35-1.22,.13-2.93,.55-3.74-.67-.47-.71-.56-1.68-.72-2.5-.23-1.2-.46-2.4-.69-3.6-.81-4.32-1.56-8.66-2.27-13-1.63-10.1-2.97-20.25-4.02-30.42-.05-.45-.76-.46-.72,0h0Z"/>
      <path class="cls-22" d="M63.87,60.97c.63-5.8,3.59-11.23,8.12-14.9,2.5-2.03,5.51-3.54,8.69-4.1,3.58-.63,6.93,.3,10.36,1.25,4.97,1.37,11.02,2.37,15.52-.85,2.25-1.61,3.64-4.04,4.9-6.44,1.33-2.53,2.69-5.03,4.31-7.39,3.67-5.35,8.54-10.06,14.85-12.04,.44-.14,.25-.83-.19-.69-5.44,1.71-9.88,5.39-13.38,9.81-1.78,2.25-3.34,4.67-4.73,7.18-1.48,2.67-2.67,5.64-4.84,7.85-4.92,5-12.4,2.89-18.29,1.31-3.16-.85-6.3-1.26-9.53-.5-2.86,.67-5.54,2.05-7.84,3.85-4.86,3.81-7.99,9.54-8.66,15.67-.05,.46,.67,.45,.72,0h0Z"/>
      <path class="cls-22" d="M183.69,173.03c-.15,2.08-.24,4.16-.25,6.24-.01,1.83-.17,3.84,.26,5.64,.34,1.44,1.41,2.51,2.84,2.87,1.57,.4,3.18-.16,4.44-1.11,.36-.28,0-.9-.36-.62-1.22,.93-2.79,1.49-4.29,.91-1.64-.63-2.04-2.17-2.11-3.77-.15-3.38-.05-6.79,.19-10.16,.03-.46-.68-.46-.72,0h0Z"/>
      <path class="cls-22" d="M181.21,181.25l5.66,.89c.45,.07,.64-.62,.19-.69l-5.66-.89c-.45-.07-.64,.62-.19,.69h0Z"/>
      <path class="cls-22" d="M181,177.25c1.76,.35,3.53,.69,5.29,1.04,.45,.09,.64-.6,.19-.69-1.76-.35-3.53-.69-5.29-1.04-.45-.09-.64,.6-.19,.69h0Z"/>
      <path class="cls-22" d="M206.99,176.3c4.87-.09,9.66-1.29,14-3.51,.41-.21,.05-.83-.36-.62-4.23,2.16-8.89,3.32-13.64,3.41-.46,0-.46,.72,0,.72h0Z"/>
      <path class="cls-22" d="M218.07,157.94c.96,1.05,1.92,2.1,2.88,3.15,.31,.34,.82-.17,.51-.51-.96-1.05-1.92-2.1-2.88-3.15-.31-.34-.82,.17-.51,.51h0Z"/>
      <path class="cls-22" d="M217.14,160.38c1.26,1.32,2.6,2.55,4.02,3.7,.15,.12,.36,.15,.51,0,.13-.13,.15-.38,0-.51-1.41-1.15-2.76-2.38-4.02-3.7-.32-.33-.82,.17-.51,.51h0Z"/>
      <path class="cls-22" d="M162.66,161.06c13.03,8.68,29.54,11.52,44.72,7.72,.45-.11,.26-.8-.19-.69-15,3.75-31.3,.92-44.17-7.65-.38-.26-.74,.36-.36,.62h0Z"/>
      <path class="cls-22" d="M218.74,15.49c.37-2.27,1.55-4.34,3.33-5.81,.35-.29-.15-.8-.51-.51-1.86,1.54-3.12,3.75-3.51,6.12-.07,.45,.62,.64,.69,.19h0Z"/>
      <path class="cls-22" d="M218.95,16.1c1.01-.57,2.22-.64,3.3-.23,.18,.07,.39-.08,.44-.25,.06-.2-.07-.37-.25-.44-1.25-.48-2.69-.36-3.85,.3-.4,.23-.04,.84,.36,.62h0Z"/>
      <path class="cls-22" d="M177.13,8.14c1.85-.85,3.84-1.37,5.86-1.55,.45-.04,.46-.76,0-.72-2.16,.19-4.25,.75-6.22,1.65-.42,.19-.05,.81,.36,.62h0Z"/>
      <path class="cls-22" d="M181.56,8.34l2.07-.36c.18-.03,.31-.27,.25-.44-.06-.2-.24-.28-.44-.25l-2.07,.36c-.18,.03-.31,.27-.25,.44,.06,.2,.24,.28,.44,.25h0Z"/>
      <path class="cls-22" d="M185.88,78.67c.27,1.84,1.41,3.5,3,4.46,.4,.24,.76-.38,.36-.62-1.45-.87-2.42-2.37-2.67-4.03-.03-.19-.27-.3-.44-.25-.2,.06-.28,.25-.25,.44h0Z"/>
      <path class="cls-22" d="M163.15,165.59c-.96,15.57,.3,31.27,.94,46.83,.17,4.01,.31,8.03,.37,12.04,0,.46,.72,.46,.72,0-.23-15.62-1.49-31.21-1.59-46.84-.03-4.01,.02-8.02,.27-12.03,.03-.46-.69-.46-.72,0h0Z"/>
      <path class="cls-22" d="M219.76,297.9c5.08-1.01,10.07-2.45,14.71-4.8,2.34-1.19,4.57-2.59,6.68-4.15s3.94-3.19,5.15-5.45c.22-.41-.4-.77-.62-.36-1.28,2.4-3.37,4.12-5.56,5.68-2.02,1.45-4.15,2.74-6.37,3.85-4.48,2.22-9.29,3.58-14.18,4.55-.45,.09-.26,.78,.19,.69h0Z"/>
      <path class="cls-8" d="M170.05,11.65c3.83,9.39,13.41,15.27,23.55,14.15,1.2-.13,1.22-2.04,0-1.9-9.23,1.02-18.19-4.1-21.71-12.75-.46-1.12-2.3-.63-1.84,.51h0Z"/>
      <path class="cls-8" d="M198.23,25.2c1.23,0,1.23-1.9,0-1.9s-1.23,1.9,0,1.9h0Z"/>
      <g class="cls-34">
        <path class="cls-20" d="M205.71,27.87c1.36-.36,2.61-1.08,3.61-2.07,.36-.35,.38-1,0-1.35s-.97-.37-1.35,0c-.16,.15-.32,.3-.49,.44-.05,.04-.23,.16,0,0-.04,.03-.08,.06-.13,.1-.09,.06-.17,.12-.26,.18-.37,.24-.76,.45-1.17,.63l.23-.1c-.31,.13-.63,.24-.95,.33-.48,.13-.82,.68-.67,1.17s.66,.8,1.17,.67h0Z"/>
        <path class="cls-20" d="M204.54,27.63c.6,3.14,1.87,6.27,3.87,8.79,1.86,2.36,4.59,3.78,7.55,4.14,.51,.06,.95-.48,.95-.95,0-.57-.44-.89-.95-.95-5.71-.69-8.61-6.44-9.58-11.52-.23-1.2-2.07-.69-1.84,.51h0Z"/>
        <path class="cls-20" d="M218.14,47.54c-.07-.11-.13-.23-.19-.35,0,0-.1-.22-.06-.12,.04,.11-.04-.11-.05-.13-.11-.3-.2-.62-.27-.93-.18-.74-.26-1.36-.33-2.08s-.09-1.46-.09-2.2c0-.33,.01-.65,.04-.98,0-.15,.02-.29,.04-.44,0-.07,.02-.13,.02-.2,.02-.21-.03,.17,0-.04,.08-.51-.13-1.02-.67-1.17-.45-.12-1.09,.15-1.17,.67-.23,1.48-.21,2.99-.07,4.48s.35,3.14,1.14,4.45c.63,1.05,2.28,.09,1.64-.96h0Z"/>
      </g>
      <g class="cls-34">
        <path class="cls-20" d="M221.31,21.04c2.26,.15,3.58,2.39,4.23,4.33,.83,2.47,.95,5.31,1.01,7.91,.09,4.36-1.28,8.84-3.45,12.59-.62,1.06,1.03,2.02,1.64,.96,2.71-4.67,4-10.07,3.61-15.46-.33-4.54-1.18-11.83-7.05-12.24-1.22-.08-1.22,1.82,0,1.9h0Z"/>
      </g>
      <path class="cls-22" d="M168.48,11.06c3.05-3.2,6.84-5.7,10.96-7.31s8.47-2.02,12.83-1.95c8.76,.15,17.5,2.89,23.13,9.9,2.88,3.59,4.93,7.87,5.82,12.39,.09,.45,.78,.26,.69-.19-1.55-7.94-6.75-15.76-14.14-19.35-4.22-2.05-8.87-3.1-13.54-3.39s-9.29-.04-13.63,1.41c-4.76,1.59-9.16,4.35-12.62,7.98-.32,.33,.19,.84,.51,.51h0Z"/>
      <path class="cls-22" d="M220.38,19.48c6.28-.5,7.88,7.2,7.99,11.95,.12,5.35-1.31,10.62-4.05,15.21-.24,.4,.38,.76,.62,.36,3.09-5.18,4.56-11.27,4.05-17.29-.4-4.79-2.63-11.42-8.61-10.94-.46,.04-.46,.75,0,.72h0Z"/>
      <path class="cls-4" d="M178.02,26c7.68,4.34,17.24,4.82,25.74,3.12l-1.44-.82c1.05,3.29,2.22,6.78,4.29,9.58,1.82,2.47,4.5,4.04,7.48,4.68,1.47,.32,2.1-1.94,.62-2.26-2.66-.57-5-1.93-6.51-4.23-1.68-2.55-2.7-5.51-3.62-8.4-.2-.63-.8-.95-1.44-.82-7.88,1.57-16.84,1.13-23.94-2.88-1.31-.74-2.49,1.28-1.18,2.02h0Z"/>
      <path class="cls-22" d="M204.06,26.79c.89,6.37,4.43,13.08,11.32,14.3l-.26-.34c-.28,3.1,.39,6.14,1.92,8.85,.23,.4,.84,.04,.62-.36-1.47-2.61-2.08-5.51-1.82-8.49,.01-.14-.12-.32-.26-.34-6.66-1.19-9.96-7.66-10.82-13.81-.06-.45-.75-.26-.69,.19h0Z"/>
      <path class="cls-22" d="M167.96,11.2c1.83,5.79,5.91,10.73,11.24,13.64,2.91,1.59,6.08,2.4,9.36,2.79,3.54,.42,7.22,.66,10.78,.34s6.69-1.29,9.27-3.61c.34-.31-.16-.81-.51-.51-2.98,2.68-6.98,3.42-10.88,3.51-4.35,.1-9.02-.13-13.22-1.32-7.23-2.05-13.11-7.89-15.37-15.04-.14-.44-.83-.25-.69,.19h0Z"/>
      <path class="cls-22" d="M182.72,47.98c-.31,.8,.1,1.72,.75,2.22,.74,.58,1.73,.65,2.63,.54,.19-.02,.36-.15,.36-.36,0-.17-.16-.38-.36-.36-.72,.09-1.53,.09-2.15-.35-.22-.15-.42-.42-.52-.66-.12-.3-.13-.56-.02-.85,.07-.18-.08-.39-.25-.44-.2-.06-.37,.07-.44,.25h0Z"/>
      <path class="cls-8" d="M170.37,44.52c1.23,0,1.23-1.9,0-1.9s-1.23,1.9,0,1.9h0Z"/>
      <path class="cls-8" d="M171.62,38.73c.06-.33,.16-.65,.29-.96,.02-.04,.03-.08,.05-.12-.05,.12-.06,.14-.02,.04,.03-.06,.06-.12,.08-.18,.07-.15,.15-.3,.22-.45,.3-.59,.65-1.16,1.02-1.71,.28-.41,.09-1.08-.34-1.3-.49-.26-1-.1-1.3,.34-.39,.56-.74,1.15-1.05,1.77-.33,.66-.65,1.35-.79,2.08-.1,.49,.14,1.05,.67,1.17,.47,.11,1.07-.14,1.17-.67h0Z"/>
      <path class="cls-4" d="M196.47,70.1c8.32-1.12,15.88-6.03,20.42-13.06,.82-1.27-1.21-2.44-2.02-1.18-4.23,6.57-11.29,10.95-19.02,11.99-.63,.08-.96,.89-.82,1.44,.18,.68,.82,.9,1.44,.82h0Z"/>
      <path class="cls-22" d="M216.3,54.64c.78,2.53,2.85,4.36,5.53,4.56,2.4,.18,4.63-.68,6.04-2.69,1.58-2.26,1.42-5.32-.22-7.5-1.11-1.48-2.58-2.17-4.39-2.34-2.56-.25-4.9,.83-6.42,2.89-.27,.37,.35,.73,.62,.36,1.2-1.64,3.02-2.57,5.05-2.57,1.3,0,2.72,.29,3.71,1.17,1.91,1.68,2.61,4.46,1.52,6.79-.9,1.91-2.78,3.15-4.88,3.21-1.16,.03-2.3-.12-3.31-.73-1.3-.79-2.11-1.88-2.56-3.33-.13-.44-.82-.25-.69,.19h0Z"/>
      <path class="cls-4" d="M221.21,51.95c.15,.04,.29,.09,.43,.15l-.28-.12c.31,.13,.59,.3,.85,.5l-.24-.18c.26,.2,.5,.44,.7,.7l-.18-.24c.21,.28,.39,.57,.52,.89l-.12-.28c.12,.29,.2,.6,.25,.91,.04,.27,.32,.57,.54,.7,.25,.15,.62,.21,.9,.12s.56-.27,.7-.54l.12-.28c.06-.21,.06-.41,0-.62-.13-.93-.6-1.79-1.21-2.5s-1.46-1.22-2.35-1.47c-.59-.16-1.3,.2-1.44,.82s.19,1.26,.82,1.44h0Z"/>
      <path class="cls-22" d="M221.83,54.82c-.09-1.39,.62-2.76,1.83-3.47,.4-.23,.04-.85-.36-.62-1.41,.82-2.29,2.45-2.18,4.08,.01,.19,.16,.36,.36,.36,.18,0,.37-.16,.36-.36h0Z"/>
      <path class="cls-22" d="M221.46,49.76c1.9,.58,3.3,2.43,3.35,4.41,.01,.46,.73,.46,.72,0-.06-2.31-1.67-4.43-3.88-5.1-.44-.13-.63,.56-.19,.69h0Z"/>
      <path class="cls-4" d="M189.45,73.07c3.3,.49,6.65,.26,9.83-.78,.6-.2,.99-.81,.82-1.44-.16-.59-.84-1.01-1.44-.82-2.76,.9-5.71,1.2-8.58,.78-.62-.09-1.26,.16-1.44,.82-.15,.55,.19,1.35,.82,1.44h0Z"/>
      <path class="cls-22" d="M178.31,24.03c-5.04,3.35-8.85,8.39-10.54,14.22-1.86,6.42-1.04,13.3,2.03,19.21,2.67,5.13,6.83,9.82,12.31,11.99,6.24,2.46,14.03,1.98,20.3-.15s12.05-6.66,15.11-12.79c.2-.41-.41-.77-.62-.36-5.65,11.31-19.71,16.16-31.66,13.5-12.29-2.74-19.58-17.26-17.29-29.04,1.27-6.52,5.21-12.29,10.73-15.95,.38-.25,.02-.87-.36-.62h0Z"/>
      <path class="cls-22" d="M199.66,69.63v4.32c0,1.67,.17,3.39-.7,4.9-1.4,2.44-4.59,3.38-7.08,2.05-1.18-.63-2.11-1.71-2.53-2.98-.25-.75-.28-1.51-.28-2.29v-5c0-.46-.72-.46-.72,0v4.84c0,.84,0,1.67,.25,2.49,.39,1.29,1.21,2.41,2.3,3.19,2.26,1.6,5.41,1.39,7.47-.45,1.03-.92,1.72-2.21,1.92-3.58,.1-.65,.07-1.32,.07-1.98,0-1.83,0-3.67,0-5.5,0-.46-.72-.46-.72,0h0Z"/>
      <path class="cls-22" d="M108.32,76.02c-1.58,5.74,1.41,11.74,6.9,13.99,.43,.17,.61-.52,.19-.69-5.13-2.11-7.86-7.78-6.4-13.11,.12-.44-.57-.63-.69-.19h0Z"/>
      <g>
        <path class="cls-22" d="M162.15,162.93c3.49-11.23,5.51-22.86,7.14-34.49,.79-5.67,1.48-11.35,2.18-17.02,.75-6.15,1.36-12.38,3.04-18.37s3.99-11.36,8.56-15.34c.35-.3-.16-.81-.51-.51-8.39,7.3-10.03,19.71-11.3,30.1-1.48,12.03-2.84,24.1-5.08,36.02-1.23,6.55-2.73,13.05-4.71,19.41-.14,.44,.55,.63,.69,.19h0Z"/>
        <path class="cls-22" d="M161.49,163.25c3.59,5.44,10.47,7.47,16.47,8.9,7.28,1.74,14.84,2.32,22.3,1.74s14.63-2.1,21.33-4.97c2.62-1.12,4.83-2.8,5.28-5.78,.27-1.79,.11-3.65,.07-5.45-.04-2.08-.08-4.15-.11-6.23-.18-9.55-.35-19.11-.53-28.66,0-.46-.72-.46-.72,0,.14,7.81,.29,15.62,.43,23.43,.07,3.9,.14,7.81,.22,11.71,.03,1.79,.23,3.7-.13,5.46s-1.56,3.12-3.14,4.05c-2.83,1.65-6.23,2.57-9.37,3.42-3.49,.95-7.06,1.64-10.65,2.05-7,.8-14.13,.58-21.06-.68-3.66-.67-7.33-1.58-10.81-2.9s-6.85-3.26-8.95-6.45c-.25-.38-.87-.02-.62,.36h0Z"/>
        <path class="cls-22" d="M206.7,95.63c.23-2.6,2.06-4.75,4.36-5.86,2.8-1.35,5.83-.82,8.53,.5,4.8,2.33,8.14,6.65,11.23,10.84,.27,.37,.89,.01,.62-.36-3.56-4.83-7.58-9.99-13.51-11.94-2.7-.88-5.55-.74-8,.76-2.16,1.33-3.72,3.49-3.94,6.05-.04,.46,.68,.46,.72,0h0Z"/>
        <path class="cls-22" d="M204.69,75.83c4.96,3,8.83,7.32,10.81,12.81,.16,.43,.85,.24,.69-.19-2.05-5.67-6.01-10.13-11.14-13.24-.39-.24-.75,.38-.36,.62h0Z"/>
      </g>
      <path class="cls-26" d="M191.2,90.31c5.15,.77,11.34,.06,14.94-4.13,.53-.61,.6-1.52,0-2.12-.54-.54-1.59-.62-2.12,0-2.86,3.32-7.9,3.97-12.02,3.36-.8-.12-1.61,.2-1.85,1.05-.19,.71,.24,1.72,1.05,1.85h0Z"/>
      <path class="cls-22" d="M188.47,73.22c-2.84,.4-5.35,2.07-6.04,4.98-.74,3.08,1.14,6.21,3.76,7.78,3.51,2.11,8.49,2.2,12.4,1.39,3.6-.74,7.42-3.1,8.05-7.02s-2.72-7.4-6.43-7.73c-.46-.04-.46,.67,0,.72,2.19,.2,4.12,1.63,5.13,3.56s.72,4.24-.58,6.05c-2.71,3.76-7.92,4.34-12.2,4.05s-9.48-2.31-9.61-7.21c-.09-3.33,2.62-5.45,5.7-5.88,.45-.06,.26-.75-.19-.69h0Z"/>
      <path class="cls-22" d="M206.37,99.05c.92,3.69,3.62,6.77,7.12,8.23,.42,.18,.61-.52,.19-.69-3.27-1.36-5.77-4.3-6.63-7.73-.11-.45-.8-.26-.69,.19h0Z"/>
      <path class="cls-22" d="M120.24,92.15c2.89-.33,4.92-2.5,6.51-4.75,.27-.38-.35-.73-.62-.36-1.43,2.01-3.3,4.1-5.9,4.39-.45,.05-.46,.77,0,.72h0Z"/>
      <path class="cls-25" d="M171.34,283.43c6.1,1.51,12.56,1.22,18.48-.88,1.15-.41,.65-2.25-.51-1.84-5.62,2-11.68,2.32-17.47,.88-1.19-.3-1.7,1.54-.51,1.84h0Z"/>
      <path class="cls-25" d="M223.87,280.63c2.84,.09,5.21-2.06,7.3-3.7,1.91-1.49,4.19-3.2,4.57-5.78,.07-.51-.13-1.02-.67-1.17-.45-.12-1.1,.15-1.17,.67-.32,2.16-2.31,3.55-3.91,4.81-.97,.76-1.94,1.53-2.98,2.2-.96,.62-1.97,1.11-3.14,1.08-1.23-.04-1.22,1.86,0,1.9h0Z"/>
      <path class="cls-22" d="M223.09,279c2.71,.07,5.04-1.78,7.08-3.34,1.89-1.45,3.72-3.16,4.31-5.56,.11-.45-.58-.64-.69-.19-.56,2.26-2.33,3.88-4.12,5.23-1.9,1.44-4.07,3.21-6.59,3.14-.46-.01-.46,.7,0,.72h0Z"/>
      <path class="cls-22" d="M171.06,281.12c2.68,1.69,6.21,1.6,9.27,1.58s6.4-.48,9.16-2.15c.39-.24,.03-.86-.36-.62-2.66,1.61-5.74,2.03-8.8,2.05s-6.34,.13-8.91-1.48c-.39-.25-.75,.37-.36,.62h0Z"/>
      <path class="cls-5" d="M172.68,303.27c7.64-.02,15.75-.62,22.7-4.05,1.1-.54,.14-2.18-.96-1.64-6.64,3.27-14.46,3.77-21.74,3.79-1.23,0-1.23,1.91,0,1.9h0Z"/>
      <path class="cls-22" d="M191.16,284.85c1.38,2.45,2.45,5.05,3.16,7.78,.34,1.31,.6,2.64,.76,3.98s.76,3.8-.6,4.64c-1.03,.64-2.5,.93-3.66,1.29-1.44,.45-2.89,.84-4.36,1.17-2.76,.63-5.55,1.06-8.37,1.29-5.59,.45-11.24,.13-16.74-.99-2.36-.48-6.49-.93-5.71-4.34,.34-1.49,1.06-2.97,1.76-4.32,2.31-4.47,5.87-8.09,10.24-10.57,.4-.23,.04-.85-.36-.62-4.39,2.49-8,6.12-10.36,10.58-1.46,2.76-3.83,7.64,.52,9.08,2.99,.99,6.28,1.43,9.4,1.76s6.46,.42,9.69,.25,6.21-.58,9.26-1.23,6.28-1.34,9.03-2.7c1.15-.57,1.25-1.49,1.21-2.68-.06-1.63-.26-3.26-.57-4.86-.67-3.47-1.93-6.79-3.67-9.87-.23-.4-.84-.04-.62,.36h0Z"/>
      <path class="cls-22" d="M171.7,301.67c4.3,.22,8.61-.08,12.86-.74,3.76-.59,7.88-1.17,10.99-3.55,.36-.28,0-.9-.36-.62-3.05,2.34-7.12,2.91-10.82,3.48-4.19,.65-8.43,.94-12.67,.72-.46-.02-.46,.69,0,.72h0Z"/>
      <path class="cls-22" d="M227,149.97c7.97-3.55,13.65-11.06,14.75-19.74,.59-4.64-.2-9.3-1.98-13.61-1.11-2.69-2.51-5.26-3.89-7.82-1.12-2.07-2.24-4.14-3.35-6.22-.22-.41-.84-.04-.62,.36,1.97,3.64,4,7.26,5.84,10.97,2.04,4.11,3.48,8.46,3.49,13.09s-1.3,9.22-3.79,13.11-6.4,7.27-10.81,9.23c-.42,.19-.06,.8,.36,.62h0Z"/>
      <path class="cls-22" d="M212.97,174.26c1.69,4.35,6.3,7.28,10.97,6.87,.45-.04,.46-.76,0-.72-4.33,.38-8.7-2.27-10.28-6.34-.16-.42-.86-.24-.69,.19h0Z"/>
      <path class="cls-22" d="M171.28,255.25c.79,5.13,1.54,10.27,2.26,15.41,.06,.45,.75,.26,.69-.19-.72-5.14-1.47-10.28-2.26-15.41-.07-.45-.76-.26-.69,.19h0Z"/>
      <path class="cls-8" d="M160.31,297.24c.39-.75,.83-1.47,1.32-2.15,.06-.08,.11-.16,.17-.24,.03-.04,.06-.08,.09-.12,.07-.09,.07-.12,0-.01,.1-.17,.27-.33,.39-.48,.28-.33,.56-.64,.86-.95,.35-.36,.38-1,0-1.35s-.98-.38-1.35,0c-1.25,1.28-2.32,2.75-3.14,4.34-.23,.44-.13,1.05,.34,1.3,.44,.23,1.06,.13,1.3-.34h0Z"/>
      <path class="cls-8" d="M165.1,292.05c1.23,0,1.23-1.9,0-1.9s-1.23,1.9,0,1.9h0Z"/>
      <path class="cls-8" d="M217.78,286.5c-1.27,2.22-2.16,4.65-2.59,7.17-.09,.51,.13,1.03,.67,1.17,.46,.13,1.08-.16,1.17-.67,.4-2.37,1.2-4.63,2.4-6.71,.26-.45,.1-1.04-.34-1.3s-1.05-.11-1.3,.34h0Z"/>
      <path class="cls-8" d="M214.5,297.39l-.19,.19c-.09,.09-.16,.19-.2,.31-.06,.11-.09,.24-.08,.37,0,.13,.02,.25,.08,.37,.04,.12,.1,.22,.2,.31l.19,.15c.15,.09,.31,.13,.48,.13l.25-.03c.16-.05,.3-.13,.42-.24l.19-.19c.09-.09,.16-.19,.2-.31,.06-.11,.09-.24,.08-.37,0-.13-.02-.25-.08-.37-.04-.12-.1-.22-.2-.31l-.19-.15c-.15-.09-.31-.13-.48-.13l-.25,.03c-.16,.05-.3,.13-.42,.24h0Z"/>
      <path class="cls-8" d="M180.88,84.29c-2.04,2.57-3.49,5.55-4.15,8.77-.1,.5,.15,1.03,.67,1.17,.47,.13,1.07-.16,1.17-.67,.59-2.88,1.82-5.63,3.66-7.93,.32-.4,.39-.95,0-1.35-.33-.33-1.02-.4-1.35,0h0Z"/>
      <path class="cls-8" d="M177.06,97.51c1.23,0,1.23-1.9,0-1.9s-1.23,1.9,0,1.9h0Z"/>
      <g>
        <path class="cls-8" d="M191.28,52.72c-3.37,1.46-7.35,1.46-10.72,0-1.17-.51-2.39-1.2-3.64-.94-1.59,.33-2.49,2.18-2.26,3.79s1.33,2.95,2.52,4.04c4.19,3.83,10.27,5.49,15.83,4.32,2.43-.51,4.84-1.61,6.35-3.58s1.87-4.94,.37-6.92c-1.43-1.89-4.4-2.38-6.35-1.04"/>
        <g class="cls-30">
          <path class="cls-14" d="M176.01,58.5c3.93,5.59,11.73,6.41,17.95,4.97,2.88-.67,5.73-2.49,6.56-5.49,.76-2.74-.77-5.85-3.59-6.58-1.87-.48-2.67,2.41-.8,2.89s1.89,2.63,.99,3.95c-1.28,1.87-3.73,2.42-5.85,2.63-4.42,.45-9.87,.1-12.67-3.89-1.1-1.57-3.7-.07-2.59,1.51h0Z"/>
        </g>
        <g>
          <path class="cls-22" d="M191.18,52.38c-2.7,1.12-5.68,1.4-8.53,.68-1.96-.5-4.29-2.37-6.37-1.44-1.5,.67-2.2,2.48-1.97,4.04,.33,2.22,2.17,3.96,3.87,5.24,3.65,2.76,8.36,4.1,12.91,3.67,4.21-.4,9.22-2.49,9.88-7.22,.28-1.99-.39-4.08-2.12-5.21s-3.95-1.14-5.67-.06c-.39,.24-.03,.86,.36,.62,1.55-.97,3.59-.94,5.08,.15,1.74,1.27,2.02,3.67,1.35,5.59-1.42,4.04-6.38,5.42-10.23,5.49s-7.5-1.05-10.57-3.19c-1.69-1.18-3.59-2.78-4.09-4.88-.23-.97-.04-2.06,.58-2.84,.93-1.17,2.31-1.01,3.57-.49,1.92,.79,3.73,1.5,5.84,1.63s4.31-.25,6.3-1.08c.42-.17,.24-.87-.19-.69h0Z"/>
          <path class="cls-22" d="M178.07,59.94c-.64-2.59,0-5.25,1.62-7.34,.28-.36-.34-.72-.62-.36-1.73,2.24-2.38,5.14-1.7,7.89,.11,.45,.8,.26,.69-.19h0Z"/>
          <path class="cls-22" d="M186.55,63.77c-1.39-3.07-1.73-6.55-.97-9.84,.1-.45-.59-.64-.69-.19-.81,3.48-.44,7.13,1.04,10.39,.19,.42,.81,.06,.62-.36h0Z"/>
          <path class="cls-22" d="M181.97,62.42c-.63-2.91-.79-6.08,.55-8.82,.2-.41-.41-.77-.62-.36-1.43,2.93-1.3,6.26-.63,9.37,.1,.45,.79,.26,.69-.19h0Z"/>
          <path class="cls-22" d="M189.32,53.33c-.3,.9-.21,1.82-.05,2.73s.36,1.88,.59,2.81c.44,1.77,1.09,3.5,2.2,4.97,.27,.36,.89,0,.62-.36-1.04-1.38-1.65-2.97-2.08-4.63-.21-.81-.38-1.62-.53-2.44-.18-.96-.36-1.93-.05-2.88,.14-.44-.55-.63-.69-.19h0Z"/>
          <path class="cls-22" d="M194.01,51.98c-.2,3.57,.84,7.14,2.93,10.04,.27,.37,.89,.01,.62-.36-2.02-2.81-3.02-6.23-2.83-9.68,.03-.46-.69-.46-.72,0h0Z"/>
        </g>
      </g>
      <g>
        <path class="cls-22" d="M67.62,60.61l2.92,1.84c.39,.25,.75-.37,.36-.62l-2.92-1.84c-.39-.25-.75,.37-.36,.62h0Z"/>
        <path class="cls-22" d="M68.68,62.67c.37-.95,1.02-1.79,1.83-2.44,.15-.12,.13-.38,0-.51-.15-.15-.35-.12-.51,0-.91,.72-1.59,1.68-2.01,2.76-.07,.18,.08,.39,.25,.44,.2,.06,.37-.07,.44-.25h0Z"/>
      </g>
      <g>
        <path class="cls-22" d="M94.61,38.09l2.92,1.84c.39,.25,.75-.37,.36-.62l-2.92-1.84c-.39-.25-.75,.37-.36,.62h0Z"/>
        <path class="cls-22" d="M95.68,40.15c.37-.95,1.02-1.79,1.83-2.44,.15-.12,.13-.38,0-.51-.15-.15-.35-.12-.51,0-.91,.72-1.59,1.68-2.01,2.76-.07,.18,.08,.39,.25,.44,.2,.06,.37-.07,.44-.25h0Z"/>
      </g>
      <g>
        <path class="cls-22" d="M123.98,12.49l2.92,1.84c.39,.25,.75-.37,.36-.62l-2.92-1.84c-.39-.25-.75,.37-.36,.62h0Z"/>
        <path class="cls-22" d="M125.04,14.55c.37-.95,1.02-1.79,1.83-2.44,.15-.12,.13-.38,0-.51-.15-.15-.35-.12-.51,0-.91,.72-1.59,1.68-2.01,2.76-.07,.18,.08,.39,.25,.44,.2,.06,.37-.07,.44-.25h0Z"/>
      </g>
      <path class="cls-22" d="M207.12,28.37c.53,2.65,1.87,5.1,3.8,6.98,.33,.32,.84-.18,.51-.51-1.85-1.81-3.11-4.13-3.61-6.67-.09-.45-.78-.26-.69,.19h0Z"/>
      <path class="cls-22" d="M212.18,36.13l.49,.29s.09,.04,.13,.04c.05,.01,.1,0,.14,0,.05-.01,.09-.03,.12-.06,.04-.03,.07-.06,.09-.1,.04-.08,.07-.18,.04-.28s-.08-.16-.16-.21l-.49-.29s-.09-.04-.13-.04c-.05-.01-.1,0-.14,0-.05,.01-.09,.03-.12,.06-.04,.03-.07,.06-.09,.1-.04,.08-.07,.18-.04,.28s.08,.16,.16,.21h0Z"/>
      <path class="cls-23" d="M147.22,130.61c-33.69,0-72.24,0-105.93,0v148.14h105.93V130.61Z"/>
      <rect class="cls-28" x="41.3" y="129.95" width="32.61" height="148.18"/>
      <path class="cls-22" d="M147.22,129.97c-27.7,0-55.41,0-83.11,0-7.61,0-15.21,0-22.82,0-.19,0-.36,.16-.36,.36v142.11c0,1.89-.19,3.9,0,5.78,0,.08,0,.16,0,.24,0,.19,.16,.36,.36,.36h101.59c1.33,0,2.83,.2,4.15,0,.06,0,.13,0,.19,0,.19,0,.36-.16,.36-.36v-14.8c0-11.76,0-23.52,0-35.29v-92.02c0-1.89,.19-3.9,0-5.78,0-.08,0-.16,0-.24,0-.46-.72-.46-.72,0v14.8c0,11.76,0,23.52,0,35.29v95.79c0,.58-.17,1.46,0,2.02,.02,.07,0,.17,0,.24l.36-.36H42.91c-.34,0-1.12-.15-1.43,0-.04,.02-.14,0-.19,0l.36,.36V132.59c0-.58,.17-1.46,0-2.02-.02-.07,0-.17,0-.24l-.36,.36c27.7,0,55.41,0,83.11,0h22.82c.46,0,.46-.72,0-.72Z"/>
      <path class="cls-22" d="M73.55,130.61v141.49c0,1.9-.19,3.91,0,5.8,0,.08,0,.16,0,.24,0,.46,.72,.46,.72,0V136.65c0-1.9,.19-3.91,0-5.8,0-.08,0-.16,0-.24,0-.46-.72-.46-.72,0h0Z"/>
      <g>
        <path class="cls-22" d="M48.75,130.51v141.92c0,1.91-.13,3.88,0,5.79,0,.08,0,.16,0,.24,0,.69,1.07,.69,1.07,0V136.55c0-1.91,.13-3.88,0-5.79,0-.08,0-.16,0-.24,0-.69-1.07-.69-1.07,0h0Z"/>
        <path class="cls-22" d="M53.44,130.51v141.92c0,1.91-.13,3.88,0,5.79,0,.08,0,.16,0,.24,0,.69,1.07,.69,1.07,0V136.55c0-1.91,.13-3.88,0-5.79,0-.08,0-.16,0-.24,0-.69-1.07-.69-1.07,0h0Z"/>
        <path class="cls-22" d="M58.13,130.51v141.92c0,1.91-.13,3.88,0,5.79,0,.08,0,.16,0,.24,0,.69,1.07,.69,1.07,0V136.55c0-1.91,.13-3.88,0-5.79,0-.08,0-.16,0-.24,0-.69-1.07-.69-1.07,0h0Z"/>
        <path class="cls-22" d="M62.82,130.51v141.92c0,1.91-.13,3.88,0,5.79,0,.08,0,.16,0,.24,0,.69,1.07,.69,1.07,0V136.55c0-1.91,.13-3.88,0-5.79,0-.08,0-.16,0-.24,0-.69-1.07-.69-1.07,0h0Z"/>
      </g>
      <g class="cls-33">
        <path class="cls-22" d="M46.8,131.68v14.62c0,11.61,0,23.23,0,34.84v78.82c0,5.93-.2,11.9,0,17.82,0,.08,0,.16,0,.25,0,1.93,3,1.93,3,0V149.75c0-5.93,.2-11.9,0-17.82,0-.08,0-.16,0-.25,0-1.93-3-1.93-3,0h0Z"/>
        <path class="cls-22" d="M51.49,131.68v128.28c0,5.93-.2,11.9,0,17.82,0,.08,0,.16,0,.25,0,1.93,3,1.93,3,0V149.75c0-5.93,.2-11.9,0-17.82,0-.08,0-.16,0-.25,0-1.93-3-1.93-3,0h0Z"/>
        <path class="cls-22" d="M56.18,131.68v128.28c0,5.93-.2,11.9,0,17.82,0,.08,0,.16,0,.25,0,1.93,3,1.93,3,0V149.75c0-5.93,.2-11.9,0-17.82,0-.08,0-.16,0-.25,0-1.93-3-1.93-3,0h0Z"/>
        <path class="cls-22" d="M60.87,131.68v128.28c0,5.93-.2,11.9,0,17.82,0,.08,0,.16,0,.25,0,1.93,3,1.93,3,0V149.75c0-5.93,.2-11.9,0-17.82,0-.08,0-.16,0-.25,0-1.93-3-1.93-3,0h0Z"/>
      </g>
      <path class="cls-22" d="M147.22,129.97c-27.7,0-55.41,0-83.11,0-7.61,0-15.21,0-22.82,0-.19,0-.36,.16-.36,.36v142.11c0,1.89-.19,3.9,0,5.78,0,.08,0,.16,0,.24,0,.19,.16,.36,.36,.36h101.59c1.33,0,2.83,.2,4.15,0,.06,0,.13,0,.19,0,.19,0,.36-.16,.36-.36v-14.8c0-11.76,0-23.52,0-35.29v-92.02c0-1.89,.19-3.9,0-5.78,0-.08,0-.16,0-.24,0-.46-.72-.46-.72,0v14.8c0,11.76,0,23.52,0,35.29v95.79c0,.58-.17,1.46,0,2.02,.02,.07,0,.17,0,.24l.36-.36H42.91c-.34,0-1.12-.15-1.43,0-.04,.02-.14,0-.19,0l.36,.36V132.59c0-.58,.17-1.46,0-2.02-.02-.07,0-.17,0-.24l-.36,.36c27.7,0,55.41,0,83.11,0h22.82c.46,0,.46-.72,0-.72Z"/>
      <path class="cls-22" d="M73.55,136.82v13.91c0,11.13,0,22.27,0,33.4,0,13.47,0,26.94,0,40.41,0,11.64,0,23.28,0,34.93v11.5c0,1.78-.19,3.68,0,5.45,0,.08,0,.16,0,.23,0,.46,.72,.46,.72,0v-13.91c0-11.13,0-22.27,0-33.4,0-13.47,0-26.94,0-40.41,0-11.64,0-23.28,0-34.93v-11.5c0-1.78,.19-3.68,0-5.45,0-.08,0-.16,0-.23,0-.46-.72-.46-.72,0h0Z"/>
      <g>
        <path class="cls-22" d="M66.54,274.38l2.95,1.8c.39,.24,.75-.38,.36-.62l-2.95-1.8c-.39-.24-.75,.38-.36,.62h0Z"/>
        <path class="cls-22" d="M68.92,273.8c.94,.68,2.05,1.1,2.99,1.78,.16,.11,.4,.03,.49-.13,.11-.18,.03-.38-.13-.49-.94-.68-2.05-1.1-2.99-1.78-.16-.11-.4-.03-.49,.13-.11,.18-.03,.38,.13,.49h0Z"/>
      </g>
      <g>
        <rect class="cls-21" x="82.77" y="229.26" width="57.32" height="14.68"/>
        <rect class="cls-24" x="133.67" y="229.26" width="6.42" height="14.68"/>
        <g>
          <path class="cls-22" d="M140.44,243.62h-19.32c-10.31,0-20.62,0-30.93,0h-7.07l.36,.36v-14.68l-.36,.36h57.32l-.36-.36v14.68c0,.46,.72,.46,.72,0v-14.68c0-.19-.16-.36-.36-.36h-57.32c-.19,0-.36,.16-.36,.36v14.68c0,.19,.16,.36,.36,.36h57.32c.46,0,.46-.72,0-.72Z"/>
          <g>
            <path class="cls-22" d="M88.25,229.3v14.82c0,.31,.47,.31,.47,0v-14.82c0-.31-.47-.31-.47,0h0Z"/>
            <path class="cls-22" d="M96.07,229.3v14.82c0,.31,.47,.31,.47,0v-14.82c0-.31-.47-.31-.47,0h0Z"/>
            <path class="cls-22" d="M103.88,229.3v14.82c0,.31,.47,.31,.47,0v-14.82c0-.31-.47-.31-.47,0h0Z"/>
            <path class="cls-22" d="M111.69,229.3v14.82c0,.31,.47,.31,.47,0v-14.82c0-.31-.47-.31-.47,0h0Z"/>
            <path class="cls-22" d="M119.5,229.3v14.82c0,.31,.47,.31,.47,0v-14.82c0-.31-.47-.31-.47,0h0Z"/>
            <path class="cls-22" d="M127.31,229.3v14.82c0,.31,.47,.31,.47,0v-14.82c0-.31-.47-.31-.47,0h0Z"/>
            <path class="cls-22" d="M135.12,229.3v14.82c0,.31,.47,.31,.47,0v-14.82c0-.31-.47-.31-.47,0h0Z"/>
          </g>
          <path class="cls-22" d="M139.38,229.58v14.12c0,.46,.72,.46,.72,0v-14.12c0-.46-.72-.46-.72,0h0Z"/>
          <path class="cls-22" d="M138.82,229.58v14.12c0,.46,.72,.46,.72,0v-14.12c0-.46-.72-.46-.72,0h0Z"/>
        </g>
      </g>
      <g>
        <rect class="cls-21" x="82.77" y="251.18" width="57.32" height="14.68"/>
        <rect class="cls-24" x="133.67" y="251.18" width="6.42" height="14.68"/>
        <g>
          <path class="cls-22" d="M140.44,265.54h-57.32l.36,.36v-14.68l-.36,.36h57.32l-.36-.36v14.68c0,.46,.72,.46,.72,0v-14.68c0-.19-.16-.36-.36-.36h-19.32c-10.31,0-20.62,0-30.93,0h-7.07c-.19,0-.36,.16-.36,.36v14.68c0,.19,.16,.36,.36,.36h57.32c.46,0,.46-.72,0-.72Z"/>
          <g>
            <path class="cls-22" d="M88.25,251.22v14.82c0,.31,.47,.31,.47,0v-14.82c0-.31-.47-.31-.47,0h0Z"/>
            <path class="cls-22" d="M96.07,251.22v14.82c0,.31,.47,.31,.47,0v-14.82c0-.31-.47-.31-.47,0h0Z"/>
            <path class="cls-22" d="M103.88,251.22v14.82c0,.31,.47,.31,.47,0v-14.82c0-.31-.47-.31-.47,0h0Z"/>
            <path class="cls-22" d="M111.69,251.22v14.82c0,.31,.47,.31,.47,0v-14.82c0-.31-.47-.31-.47,0h0Z"/>
            <path class="cls-22" d="M119.5,251.22v14.82c0,.31,.47,.31,.47,0v-14.82c0-.31-.47-.31-.47,0h0Z"/>
            <path class="cls-22" d="M127.31,251.22v14.82c0,.31,.47,.31,.47,0v-14.82c0-.31-.47-.31-.47,0h0Z"/>
            <path class="cls-22" d="M135.12,251.22v14.82c0,.31,.47,.31,.47,0v-14.82c0-.31-.47-.31-.47,0h0Z"/>
          </g>
          <path class="cls-22" d="M139.38,251.5v14.12c0,.46,.72,.46,.72,0v-14.12c0-.46-.72-.46-.72,0h0Z"/>
          <path class="cls-22" d="M138.82,251.5v14.12c0,.46,.72,.46,.72,0v-14.12c0-.46-.72-.46-.72,0h0Z"/>
        </g>
      </g>
      <g>
        <path class="cls-22" d="M83.13,168.54h57.04c.31,0,.31-.47,0-.47h-57.04c-.31,0-.31,.47,0,.47h0Z"/>
        <path class="cls-22" d="M83.13,173.9h57.04c.31,0,.31-.47,0-.47h-57.04c-.31,0-.31,.47,0,.47h0Z"/>
      </g>
      <g>
        <path class="cls-22" d="M83.13,190.28h57.04c.31,0,.31-.47,0-.47h-57.04c-.31,0-.31,.47,0,.47h0Z"/>
        <path class="cls-22" d="M83.13,195.65h57.04c.31,0,.31-.47,0-.47h-57.04c-.31,0-.31,.47,0,.47h0Z"/>
      </g>
      <g>
        <path class="cls-22" d="M83.13,234.33h57.04c.31,0,.31-.47,0-.47h-57.04c-.31,0-.31,.47,0,.47h0Z"/>
        <path class="cls-22" d="M83.13,239.69h57.04c.31,0,.31-.47,0-.47h-57.04c-.31,0-.31,.47,0,.47h0Z"/>
      </g>
      <g>
        <path class="cls-22" d="M83.13,255.79h57.04c.31,0,.31-.47,0-.47h-57.04c-.31,0-.31,.47,0,.47h0Z"/>
        <path class="cls-22" d="M83.13,261.15h57.04c.31,0,.31-.47,0-.47h-57.04c-.31,0-.31,.47,0,.47h0Z"/>
      </g>
      <g>
        <rect class="cls-28" x="83.13" y="141.9" width="57.32" height="14.68"/>
        <path class="cls-16" d="M137.9,141.81s-10.45,14.35-20.19,14.35h22.54v-14.64s-2.49,.14-2.35,.28Z"/>
        <path class="cls-22" d="M140.44,155.95h-19.32c-10.31,0-20.62,0-30.93,0h-7.07l.36,.36v-14.68l-.36,.36h57.32l-.36-.36v14.68c0,.46,.72,.46,.72,0v-14.68c0-.19-.16-.36-.36-.36h-57.32c-.19,0-.36,.16-.36,.36v14.68c0,.19,.16,.36,.36,.36h57.32c.46,0,.46-.72,0-.72Z"/>
        <g>
          <g>
            <g>
              <rect class="cls-15" x="86.69" y="144.44" width="2.54" height="9.46" rx="1.27" ry="1.27"/>
              <rect class="cls-15" x="91.95" y="144.44" width="2.54" height="9.46" rx="1.27" ry="1.27"/>
              <rect class="cls-15" x="97.21" y="144.44" width="2.54" height="9.46" rx="1.27" ry="1.27"/>
              <rect class="cls-15" x="107.73" y="144.44" width="2.54" height="9.46" rx="1.27" ry="1.27"/>
              <rect class="cls-15" x="102.47" y="144.44" width="2.54" height="9.46" rx="1.27" ry="1.27"/>
            </g>
            <g>
              <rect class="cls-1" x="86.8" y="144.3" width="2.54" height="9.46" rx="1.27" ry="1.27"/>
              <rect class="cls-1" x="92.06" y="144.3" width="2.54" height="9.46" rx="1.27" ry="1.27"/>
              <rect class="cls-1" x="97.32" y="144.3" width="2.54" height="9.46" rx="1.27" ry="1.27"/>
              <rect class="cls-1" x="107.83" y="144.3" width="2.54" height="9.46" rx="1.27" ry="1.27"/>
              <rect class="cls-1" x="102.57" y="144.3" width="2.54" height="9.46" rx="1.27" ry="1.27"/>
            </g>
          </g>
          <g>
            <circle class="cls-18" cx="125.16" cy="149.17" r="2.47"/>
            <circle class="cls-18" cx="132.08" cy="149.17" r="2.47"/>
          </g>
          <g>
            <circle class="cls-1" cx="125.27" cy="149.17" r="2.47"/>
            <circle class="cls-1" cx="132.19" cy="149.17" r="2.47"/>
          </g>
        </g>
      </g>
      <g>
        <g>
          <rect class="cls-21" x="82.77" y="184.58" width="57.32" height="14.68"/>
          <rect class="cls-24" x="133.67" y="184.58" width="6.42" height="14.68"/>
          <g>
            <path class="cls-22" d="M140.44,198.94h-19.32c-10.31,0-20.62,0-30.93,0h-7.07l.36,.36v-14.68l-.36,.36h57.32l-.36-.36v14.68c0,.46,.72,.46,.72,0v-14.68c0-.19-.16-.36-.36-.36h-57.32c-.19,0-.36,.16-.36,.36v14.68c0,.19,.16,.36,.36,.36h57.32c.46,0,.46-.72,0-.72Z"/>
            <g>
              <path class="cls-22" d="M88.25,184.61v14.82c0,.31,.47,.31,.47,0v-14.82c0-.31-.47-.31-.47,0h0Z"/>
              <path class="cls-22" d="M96.07,184.61v14.82c0,.31,.47,.31,.47,0v-14.82c0-.31-.47-.31-.47,0h0Z"/>
              <path class="cls-22" d="M103.88,184.61v14.82c0,.31,.47,.31,.47,0v-14.82c0-.31-.47-.31-.47,0h0Z"/>
              <path class="cls-22" d="M111.69,184.61v14.82c0,.31,.47,.31,.47,0v-14.82c0-.31-.47-.31-.47,0h0Z"/>
              <path class="cls-22" d="M119.5,184.61v14.82c0,.31,.47,.31,.47,0v-14.82c0-.31-.47-.31-.47,0h0Z"/>
              <path class="cls-22" d="M127.31,184.61v14.82c0,.31,.47,.31,.47,0v-14.82c0-.31-.47-.31-.47,0h0Z"/>
              <path class="cls-22" d="M135.12,184.61v14.82c0,.31,.47,.31,.47,0v-14.82c0-.31-.47-.31-.47,0h0Z"/>
            </g>
            <path class="cls-22" d="M139.38,184.9v14.12c0,.46,.72,.46,.72,0v-14.12c0-.46-.72-.46-.72,0h0Z"/>
            <path class="cls-22" d="M138.82,184.9v14.12c0,.46,.72,.46,.72,0v-14.12c0-.46-.72-.46-.72,0h0Z"/>
          </g>
        </g>
        <g>
          <rect class="cls-28" x="81.33" y="184.91" width="57.32" height="14.68"/>
          <path class="cls-16" d="M136.11,184.82s-10.45,14.35-20.19,14.35h22.54v-14.64s-2.49,.14-2.35,.28Z"/>
          <path class="cls-22" d="M138.65,198.96h-57.32l.36,.36v-14.68l-.36,.36c6.44,0,12.88,0,19.32,0h38l-.36-.36v14.68c0,.46,.72,.46,.72,0v-14.68c0-.19-.16-.36-.36-.36h-57.32c-.19,0-.36,.16-.36,.36v14.68c0,.19,.16,.36,.36,.36h57.32c.46,0,.46-.72,0-.72Z"/>
          <g>
            <g>
              <g>
                <rect class="cls-15" x="84.9" y="187.46" width="2.54" height="9.46" rx="1.27" ry="1.27"/>
                <rect class="cls-15" x="90.15" y="187.46" width="2.54" height="9.46" rx="1.27" ry="1.27"/>
                <rect class="cls-15" x="95.41" y="187.46" width="2.54" height="9.46" rx="1.27" ry="1.27"/>
                <rect class="cls-15" x="105.93" y="187.46" width="2.54" height="9.46" rx="1.27" ry="1.27"/>
                <rect class="cls-15" x="100.67" y="187.46" width="2.54" height="9.46" rx="1.27" ry="1.27"/>
              </g>
              <g>
                <rect class="cls-1" x="85" y="187.31" width="2.54" height="9.46" rx="1.27" ry="1.27"/>
                <rect class="cls-1" x="90.26" y="187.31" width="2.54" height="9.46" rx="1.27" ry="1.27"/>
                <rect class="cls-1" x="95.52" y="187.31" width="2.54" height="9.46" rx="1.27" ry="1.27"/>
                <rect class="cls-1" x="106.04" y="187.31" width="2.54" height="9.46" rx="1.27" ry="1.27"/>
                <rect class="cls-1" x="100.78" y="187.31" width="2.54" height="9.46" rx="1.27" ry="1.27"/>
              </g>
            </g>
            <g>
              <circle class="cls-18" cx="123.37" cy="192.18" r="2.47"/>
              <circle class="cls-18" cx="130.28" cy="192.18" r="2.47"/>
            </g>
            <g>
              <circle class="cls-1" cx="123.47" cy="192.18" r="2.47"/>
              <circle class="cls-1" cx="130.39" cy="192.18" r="2.47"/>
            </g>
          </g>
        </g>
      </g>
      <g>
        <g>
          <rect class="cls-21" x="82.77" y="206.04" width="57.32" height="14.68"/>
          <rect class="cls-24" x="133.67" y="206.04" width="6.42" height="14.68"/>
          <g>
            <path class="cls-22" d="M140.44,220.4h-19.32c-10.31,0-20.62,0-30.93,0h-7.07l.36,.36v-14.68l-.36,.36h57.32l-.36-.36v14.68c0,.46,.72,.46,.72,0v-14.68c0-.19-.16-.36-.36-.36h-19.32c-10.31,0-20.62,0-30.93,0h-7.07c-.19,0-.36,.16-.36,.36v14.68c0,.19,.16,.36,.36,.36h57.32c.46,0,.46-.72,0-.72Z"/>
            <g>
              <path class="cls-22" d="M88.25,206.07v14.82c0,.31,.47,.31,.47,0v-14.82c0-.31-.47-.31-.47,0h0Z"/>
              <path class="cls-22" d="M96.07,206.07v14.82c0,.31,.47,.31,.47,0v-14.82c0-.31-.47-.31-.47,0h0Z"/>
              <path class="cls-22" d="M103.88,206.07v14.82c0,.31,.47,.31,.47,0v-14.82c0-.31-.47-.31-.47,0h0Z"/>
              <path class="cls-22" d="M111.69,206.07v14.82c0,.31,.47,.31,.47,0v-14.82c0-.31-.47-.31-.47,0h0Z"/>
              <path class="cls-22" d="M119.5,206.07v14.82c0,.31,.47,.31,.47,0v-14.82c0-.31-.47-.31-.47,0h0Z"/>
              <path class="cls-22" d="M127.31,206.07v14.82c0,.31,.47,.31,.47,0v-14.82c0-.31-.47-.31-.47,0h0Z"/>
              <path class="cls-22" d="M135.12,206.07v14.82c0,.31,.47,.31,.47,0v-14.82c0-.31-.47-.31-.47,0h0Z"/>
            </g>
            <path class="cls-22" d="M139.38,206.35v14.12c0,.46,.72,.46,.72,0v-14.12c0-.46-.72-.46-.72,0h0Z"/>
            <path class="cls-22" d="M138.82,206.35v14.12c0,.46,.72,.46,.72,0v-14.12c0-.46-.72-.46-.72,0h0Z"/>
          </g>
        </g>
        <g>
          <rect class="cls-28" x="81.33" y="206.37" width="57.32" height="14.68"/>
          <path class="cls-16" d="M136.11,206.28s-10.45,14.35-20.19,14.35h22.54v-14.64s-2.49,.14-2.35,.28Z"/>
          <path class="cls-22" d="M138.65,220.42h-19.32c-10.31,0-20.62,0-30.93,0h-7.07l.36,.36v-14.68l-.36,.36h57.32l-.36-.36v14.68c0,.46,.72,.46,.72,0v-14.68c0-.19-.16-.36-.36-.36h-19.32c-10.31,0-20.62,0-30.93,0h-7.07c-.19,0-.36,.16-.36,.36v14.68c0,.19,.16,.36,.36,.36h57.32c.46,0,.46-.72,0-.72Z"/>
          <g>
            <g>
              <g>
                <rect class="cls-15" x="84.9" y="208.91" width="2.54" height="9.46" rx="1.27" ry="1.27"/>
                <rect class="cls-15" x="90.15" y="208.91" width="2.54" height="9.46" rx="1.27" ry="1.27"/>
                <rect class="cls-15" x="95.41" y="208.91" width="2.54" height="9.46" rx="1.27" ry="1.27"/>
                <rect class="cls-15" x="105.93" y="208.91" width="2.54" height="9.46" rx="1.27" ry="1.27"/>
                <rect class="cls-15" x="100.67" y="208.91" width="2.54" height="9.46" rx="1.27" ry="1.27"/>
              </g>
              <g>
                <rect class="cls-1" x="85" y="208.77" width="2.54" height="9.46" rx="1.27" ry="1.27"/>
                <rect class="cls-1" x="90.26" y="208.77" width="2.54" height="9.46" rx="1.27" ry="1.27"/>
                <rect class="cls-1" x="95.52" y="208.77" width="2.54" height="9.46" rx="1.27" ry="1.27"/>
                <rect class="cls-1" x="106.04" y="208.77" width="2.54" height="9.46" rx="1.27" ry="1.27"/>
                <rect class="cls-1" x="100.78" y="208.77" width="2.54" height="9.46" rx="1.27" ry="1.27"/>
              </g>
            </g>
            <g>
              <circle class="cls-18" cx="123.37" cy="213.64" r="2.47"/>
              <circle class="cls-18" cx="130.28" cy="213.64" r="2.47"/>
            </g>
            <g>
              <circle class="cls-1" cx="123.47" cy="213.64" r="2.47"/>
              <circle class="cls-1" cx="130.39" cy="213.64" r="2.47"/>
            </g>
          </g>
        </g>
      </g>
      <g>
        <g>
          <rect class="cls-21" x="82.77" y="163.12" width="57.32" height="14.68"/>
          <rect class="cls-24" x="133.67" y="163.12" width="6.42" height="14.68"/>
          <g>
            <path class="cls-22" d="M140.44,177.48h-57.32l.36,.36v-14.68l-.36,.36h57.32l-.36-.36v14.68c0,.46,.72,.46,.72,0v-14.68c0-.19-.16-.36-.36-.36h-19.32c-10.31,0-20.62,0-30.93,0h-7.07c-.19,0-.36,.16-.36,.36v14.68c0,.19,.16,.36,.36,.36h57.32c.46,0,.46-.72,0-.72Z"/>
            <g>
              <path class="cls-22" d="M88.25,163.15v14.82c0,.31,.47,.31,.47,0v-14.82c0-.31-.47-.31-.47,0h0Z"/>
              <path class="cls-22" d="M96.07,163.15v14.82c0,.31,.47,.31,.47,0v-14.82c0-.31-.47-.31-.47,0h0Z"/>
              <path class="cls-22" d="M103.88,163.15v14.82c0,.31,.47,.31,.47,0v-14.82c0-.31-.47-.31-.47,0h0Z"/>
              <path class="cls-22" d="M111.69,163.15v14.82c0,.31,.47,.31,.47,0v-14.82c0-.31-.47-.31-.47,0h0Z"/>
              <path class="cls-22" d="M119.5,163.15v14.82c0,.31,.47,.31,.47,0v-14.82c0-.31-.47-.31-.47,0h0Z"/>
              <path class="cls-22" d="M127.31,163.15v14.82c0,.31,.47,.31,.47,0v-14.82c0-.31-.47-.31-.47,0h0Z"/>
              <path class="cls-22" d="M135.12,163.15v14.82c0,.31,.47,.31,.47,0v-14.82c0-.31-.47-.31-.47,0h0Z"/>
            </g>
            <path class="cls-22" d="M139.38,163.44v14.12c0,.46,.72,.46,.72,0v-14.12c0-.46-.72-.46-.72,0h0Z"/>
            <path class="cls-22" d="M138.82,163.44v14.12c0,.46,.72,.46,.72,0v-14.12c0-.46-.72-.46-.72,0h0Z"/>
          </g>
        </g>
        <g>
          <rect class="cls-28" x="81.33" y="163.46" width="57.32" height="14.68"/>
          <path class="cls-16" d="M136.11,163.36s-10.45,14.35-20.19,14.35h22.54v-14.64s-2.49,.14-2.35,.28Z"/>
          <path class="cls-22" d="M138.65,177.5h-57.32l.36,.36v-14.68l-.36,.36h57.32l-.36-.36v14.68c0,.46,.72,.46,.72,0v-14.68c0-.19-.16-.36-.36-.36h-19.32c-10.31,0-20.62,0-30.93,0h-7.07c-.19,0-.36,.16-.36,.36v14.68c0,.19,.16,.36,.36,.36h57.32c.46,0,.46-.72,0-.72Z"/>
          <g>
            <g>
              <g>
                <rect class="cls-15" x="84.9" y="166" width="2.54" height="9.46" rx="1.27" ry="1.27"/>
                <rect class="cls-15" x="90.15" y="166" width="2.54" height="9.46" rx="1.27" ry="1.27"/>
                <rect class="cls-15" x="95.41" y="166" width="2.54" height="9.46" rx="1.27" ry="1.27"/>
                <rect class="cls-15" x="105.93" y="166" width="2.54" height="9.46" rx="1.27" ry="1.27"/>
                <rect class="cls-15" x="100.67" y="166" width="2.54" height="9.46" rx="1.27" ry="1.27"/>
              </g>
              <g>
                <rect class="cls-1" x="85" y="165.86" width="2.54" height="9.46" rx="1.27" ry="1.27"/>
                <rect class="cls-1" x="90.26" y="165.86" width="2.54" height="9.46" rx="1.27" ry="1.27"/>
                <rect class="cls-1" x="95.52" y="165.86" width="2.54" height="9.46" rx="1.27" ry="1.27"/>
                <rect class="cls-1" x="106.04" y="165.86" width="2.54" height="9.46" rx="1.27" ry="1.27"/>
                <rect class="cls-1" x="100.78" y="165.86" width="2.54" height="9.46" rx="1.27" ry="1.27"/>
              </g>
            </g>
            <g>
              <circle class="cls-18" cx="123.37" cy="170.73" r="2.47"/>
              <circle class="cls-18" cx="130.28" cy="170.73" r="2.47"/>
            </g>
            <g>
              <circle class="cls-1" cx="123.47" cy="170.73" r="2.47"/>
              <circle class="cls-1" cx="130.39" cy="170.73" r="2.47"/>
            </g>
          </g>
        </g>
      </g>
      <g>
        <g>
          <rect class="cls-21" x="82.77" y="141.66" width="57.32" height="14.68"/>
          <rect class="cls-24" x="133.67" y="141.66" width="6.42" height="14.68"/>
          <g>
            <path class="cls-22" d="M140.44,156.02h-57.32l.36,.36v-14.68l-.36,.36h57.32l-.36-.36v14.68c0,.46,.72,.46,.72,0v-14.68c0-.19-.16-.36-.36-.36h-57.32c-.19,0-.36,.16-.36,.36v14.68c0,.19,.16,.36,.36,.36h57.32c.46,0,.46-.72,0-.72Z"/>
            <g>
              <path class="cls-22" d="M88.25,141.7v14.82c0,.31,.47,.31,.47,0v-14.82c0-.31-.47-.31-.47,0h0Z"/>
              <path class="cls-22" d="M96.07,141.7v14.82c0,.31,.47,.31,.47,0v-14.82c0-.31-.47-.31-.47,0h0Z"/>
              <path class="cls-22" d="M103.88,141.7v14.82c0,.31,.47,.31,.47,0v-14.82c0-.31-.47-.31-.47,0h0Z"/>
              <path class="cls-22" d="M111.69,141.7v14.82c0,.31,.47,.31,.47,0v-14.82c0-.31-.47-.31-.47,0h0Z"/>
              <path class="cls-22" d="M119.5,141.7v14.82c0,.31,.47,.31,.47,0v-14.82c0-.31-.47-.31-.47,0h0Z"/>
              <path class="cls-22" d="M127.31,141.7v14.82c0,.31,.47,.31,.47,0v-14.82c0-.31-.47-.31-.47,0h0Z"/>
              <path class="cls-22" d="M135.12,141.7v14.82c0,.31,.47,.31,.47,0v-14.82c0-.31-.47-.31-.47,0h0Z"/>
            </g>
            <path class="cls-22" d="M139.38,141.98v14.12c0,.46,.72,.46,.72,0v-14.12c0-.46-.72-.46-.72,0h0Z"/>
            <path class="cls-22" d="M138.82,141.98v14.12c0,.46,.72,.46,.72,0v-14.12c0-.46-.72-.46-.72,0h0Z"/>
          </g>
        </g>
        <g>
          <rect class="cls-28" x="81.33" y="142" width="57.32" height="14.68"/>
          <path class="cls-16" d="M136.11,141.9s-10.45,14.35-20.19,14.35h22.54v-14.64s-2.49,.14-2.35,.28Z"/>
          <path class="cls-22" d="M138.65,156.04h-19.32c-10.31,0-20.62,0-30.93,0h-7.07l.36,.36v-14.68l-.36,.36h57.32l-.36-.36v14.68c0,.46,.72,.46,.72,0v-14.68c0-.19-.16-.36-.36-.36h-57.32c-.19,0-.36,.16-.36,.36v14.68c0,.19,.16,.36,.36,.36h57.32c.46,0,.46-.72,0-.72Z"/>
          <g>
            <g>
              <g>
                <rect class="cls-15" x="84.9" y="144.54" width="2.54" height="9.46" rx="1.27" ry="1.27"/>
                <rect class="cls-15" x="90.15" y="144.54" width="2.54" height="9.46" rx="1.27" ry="1.27"/>
                <rect class="cls-15" x="95.41" y="144.54" width="2.54" height="9.46" rx="1.27" ry="1.27"/>
                <rect class="cls-15" x="105.93" y="144.54" width="2.54" height="9.46" rx="1.27" ry="1.27"/>
                <rect class="cls-15" x="100.67" y="144.54" width="2.54" height="9.46" rx="1.27" ry="1.27"/>
              </g>
              <g>
                <rect class="cls-1" x="85" y="144.4" width="2.54" height="9.46" rx="1.27" ry="1.27"/>
                <rect class="cls-1" x="90.26" y="144.4" width="2.54" height="9.46" rx="1.27" ry="1.27"/>
                <rect class="cls-1" x="95.52" y="144.4" width="2.54" height="9.46" rx="1.27" ry="1.27"/>
                <rect class="cls-1" x="106.04" y="144.4" width="2.54" height="9.46" rx="1.27" ry="1.27"/>
                <rect class="cls-1" x="100.78" y="144.4" width="2.54" height="9.46" rx="1.27" ry="1.27"/>
              </g>
            </g>
            <g>
              <circle class="cls-18" cx="123.37" cy="149.27" r="2.47"/>
              <circle class="cls-18" cx="130.28" cy="149.27" r="2.47"/>
            </g>
            <g>
              <circle class="cls-1" cx="123.47" cy="149.27" r="2.47"/>
              <circle class="cls-1" cx="130.39" cy="149.27" r="2.47"/>
            </g>
          </g>
        </g>
      </g>
      <g>
        <g>
          <polygon class="cls-10" points="67.85 113.32 58.02 104 48.11 113.32 48.11 73.23 67.85 73.23 67.85 113.32"/>
          <path class="cls-19" d="M48.52,93.3c5.71,3.62,13.1,3.63,18.76-.11,1.6-1.06,.1-3.66-1.51-2.59-4.81,3.19-10.87,3.19-15.73,.11-1.64-1.04-3.14,1.56-1.51,2.59h0Z"/>
          <path class="cls-22" d="M48.47,98.27v-25.04l-.36,.36h19.74l-.36-.36v40.09l.61-.25c-3.28-3.11-6.55-6.22-9.83-9.33-.14-.14-.36-.14-.51,0-3.3,3.11-6.61,6.22-9.91,9.33l.61,.25v-12.19c0-.46-.72-.46-.72,0v12.19c0,.32,.39,.46,.61,.25,3.3-3.11,6.61-6.22,9.91-9.33h-.51c3.28,3.11,6.55,6.22,9.83,9.33,.22,.21,.61,.06,.61-.25v-40.09c0-.19-.16-.36-.36-.36h-19.74c-.19,0-.36,.16-.36,.36v25.04c0,.46,.72,.46,.72,0h0Z"/>
          <circle class="cls-22" cx="48.1" cy="99.72" r=".42"/>
        </g>
        <g>
          <path class="cls-22" d="M45.97,57.62c-1.13,4.79-.34,10.84,3.74,14.08,1.77,1.41,4.04,1.9,6.17,1.01,2.26-.95,3.75-3.01,4.55-5.26,1.11-3.12,1.08-6.36,.89-9.61-.03-.46-.74-.46-.72,0,.26,4.54,.34,10.64-3.85,13.58-1.89,1.32-4.19,1.36-6.11,.09s-3.12-3.35-3.79-5.48c-.84-2.66-.84-5.51-.2-8.22,.11-.45-.58-.64-.69-.19h0Z"/>
          <circle class="cls-11" cx="58.35" cy="71.71" r="21.14"/>
          <path class="cls-22" d="M71.13,55.76c6.65,5.4,9.49,14.42,6.86,22.63s-10.54,14.2-19.27,14.42-16.93-5.26-19.98-13.47-.64-17.39,5.89-23.05c7.49-6.49,18.76-6.61,26.51-.52,.36,.28,.87-.22,.51-.51-7.06-5.54-16.96-6.28-24.67-1.56s-11.61,13.85-9.84,22.61,9.2,15.81,18.15,17.03,17.81-3.38,21.97-11.33c4.73-9.04,2.27-20.33-5.61-26.74-.35-.29-.86,.22-.51,.51Z"/>
          <circle class="cls-11" cx="57.8" cy="72.03" r="14.58"/>
          <path class="cls-9" d="M42,69.96c.01-.18,.03-.37,.04-.55,0-.09,.08-.57,.03-.3,.06-.4,.13-.8,.22-1.19,.18-.79,.43-1.57,.73-2.32,.03-.07,.09-.21,.02-.06,.04-.09,.08-.19,.12-.28,.09-.19,.18-.37,.27-.55,.19-.37,.39-.74,.61-1.09,.24-.39,.49-.76,.77-1.13,.16-.21-.1,.13,.06-.08,.07-.09,.14-.17,.21-.26,.16-.19,.32-.38,.49-.56,.53-.58,.62-1.55,0-2.12-.57-.53-1.56-.62-2.12,0-2.63,2.91-4.2,6.57-4.47,10.49-.05,.78,.73,1.53,1.5,1.5,.86-.04,1.44-.66,1.5-1.5h0Z"/>
          <path class="cls-8" d="M42.26,68.11c.2-.94,.49-1.85,.86-2.73l-.15,.36c.04-.09,.08-.18,.11-.27,.11-.17,.17-.36,.18-.56,.04-.2,.04-.4-.03-.6-.1-.35-.36-.73-.69-.9-.35-.18-.77-.28-1.16-.15-.35,.11-.74,.34-.9,.69-.48,1.09-.88,2.2-1.13,3.36-.09,.39-.06,.8,.15,1.16,.18,.31,.54,.61,.9,.69,.38,.09,.81,.07,1.16-.15,.32-.21,.61-.51,.69-.9h0Z"/>
          <path class="cls-7" d="M60.17,88.3c3.39-.48,6.68-1.95,9.23-4.25s4.13-5.32,4.93-8.56c.23-.94-1.21-1.34-1.45-.4-.74,3.02-2.22,5.81-4.54,7.9s-5.43,3.42-8.57,3.87c-.95,.13-.55,1.58,.4,1.45h0Z"/>
          <circle class="cls-12" cx="58.12" cy="72.02" r="14.56"/>
          <path class="cls-22" d="M44.2,74.59c-1.05-6.16,1.98-12.43,7.59-15.26,4.9-2.47,10.96-1.85,15.25,1.56s6.23,8.99,5.04,14.26-5.41,9.54-10.71,10.75c-6.52,1.5-13.15-1.86-16.06-7.82-.2-.41-.82-.05-.62,.36,2.74,5.61,8.71,9.09,14.96,8.46,5.68-.57,10.63-4.41,12.59-9.77s.57-11.63-3.5-15.68-10.41-5.45-15.84-3.39c-6.75,2.57-10.6,9.65-9.39,16.72,.08,.45,.77,.26,.69-.19h0Z"/>
          <circle class="cls-22" cx="44.28" cy="76.48" r=".59"/>
        </g>
      </g>
      <path class="cls-22" d="M33.9,279.67h118.07c1.59,0,3.23,.1,4.82,0,.07,0,.14,0,.22,0,1.04,0,1.04-1.61,0-1.61H38.94c-1.59,0-3.23-.1-4.82,0-.07,0-.14,0-.22,0-1.04,0-1.04,1.61,0,1.61h0Z"/>
      <path class="cls-8" d="M80.92,134.64h10.73c1.23,0,1.23-1.9,0-1.9h-10.73c-1.23,0-1.23,1.9,0,1.9h0Z"/>
      <path class="cls-8" d="M77.1,134.78c1.23,0,1.23-1.9,0-1.9s-1.23,1.9,0,1.9h0Z"/>
      <path class="cls-8" d="M111.19,83.49c.89,1.65,2.35,2.88,4.08,3.56,.22,.09,.54,.02,.73-.1s.39-.34,.44-.57c.06-.24,.04-.52-.1-.73s-.33-.34-.57-.44c-.07-.03-.21-.12,.03,.01-.04-.02-.08-.04-.12-.06-.09-.04-.18-.08-.27-.13-.16-.08-.32-.17-.48-.27-.17-.11-.33-.22-.5-.34-.13-.1,.13,.11,.04,.03-.04-.03-.07-.06-.11-.09-.08-.06-.15-.13-.23-.2-.29-.26-.54-.54-.79-.83-.07-.09,.13,.17,.03,.04-.03-.04-.07-.09-.1-.13-.05-.07-.1-.15-.15-.22-.11-.17-.21-.34-.31-.52-.24-.44-.88-.61-1.3-.34-.45,.29-.59,.83-.34,1.3h0Z"/>
      <path class="cls-8" d="M118.77,87.93c1.23,0,1.23-1.9,0-1.9s-1.23,1.9,0,1.9h0Z"/>
      <g class="cls-29">
        <path class="cls-3" d="M6.34,188.27c-1.35,3.67-3.5,6.99-6.28,9.74-.19,.19,.1,.49,.3,.3,2.83-2.8,5.01-6.19,6.39-9.93,.09-.25-.31-.36-.4-.11h0Z"/>
      </g>
    </g>
  </g>
</svg>