<?xml version="1.0" encoding="UTF-8"?>
<svg id="Layer_2" data-name="Layer 2" xmlns="http://www.w3.org/2000/svg" viewBox="0 0 109.08 95.35">
  <defs>
    <style>
      .cls-1 {
        stroke-width: .39px;
      }

      .cls-1, .cls-2, .cls-3, .cls-4, .cls-5, .cls-6, .cls-7, .cls-8, .cls-9, .cls-10, .cls-11, .cls-12, .cls-13, .cls-14, .cls-15, .cls-16, .cls-17, .cls-18, .cls-19, .cls-20, .cls-21, .cls-22, .cls-23, .cls-24, .cls-25, .cls-26, .cls-27, .cls-28, .cls-29, .cls-30, .cls-31, .cls-32, .cls-33, .cls-34 {
        stroke-linecap: round;
        stroke-linejoin: round;
      }

      .cls-1, .cls-2, .cls-3, .cls-4, .cls-5, .cls-6, .cls-7, .cls-8, .cls-9, .cls-10, .cls-11, .cls-12, .cls-13, .cls-14, .cls-15, .cls-16, .cls-17, .cls-18, .cls-19, .cls-20, .cls-21, .cls-22, .cls-23, .cls-24, .cls-25, .cls-26, .cls-27, .cls-28, .cls-29, .cls-30, .cls-31, .cls-32, .cls-33, .cls-34, .cls-35 {
        fill: none;
      }

      .cls-1, .cls-12, .cls-15 {
        stroke: #fff;
      }

      .cls-2 {
        stroke-width: .64px;
      }

      .cls-2, .cls-26 {
        stroke: #ff9976;
      }

      .cls-3 {
        stroke-width: .33px;
      }

      .cls-3, .cls-4, .cls-5, .cls-6, .cls-7, .cls-8, .cls-9, .cls-10, .cls-11, .cls-13, .cls-14, .cls-16, .cls-17, .cls-18, .cls-20, .cls-22, .cls-23, .cls-24, .cls-25, .cls-27, .cls-28, .cls-29, .cls-30, .cls-31, .cls-32, .cls-33, .cls-34 {
        stroke: #000201;
      }

      .cls-36, .cls-37, .cls-38 {
        fill: #f8a547;
      }

      .cls-39 {
        fill: #000201;
      }

      .cls-40 {
        fill: #eef47a;
      }

      .cls-41 {
        fill: #fdc6a2;
      }

      .cls-42, .cls-43, .cls-44, .cls-45, .cls-46 {
        fill: #fff;
      }

      .cls-47 {
        fill: #ffe8dc;
      }

      .cls-48 {
        fill: #ffc871;
      }

      .cls-49, .cls-50, .cls-51, .cls-52 {
        fill: #ff9976;
      }

      .cls-53, .cls-54 {
        fill: #e78427;
      }

      .cls-55 {
        fill: #faff9f;
      }

      .cls-56 {
        fill: #fbd947;
      }

      .cls-57, .cls-58, .cls-59, .cls-60 {
        fill: #6a9bc9;
      }

      .cls-61, .cls-62 {
        fill: #303030;
      }

      .cls-63 {
        fill: #def6ff;
      }

      .cls-64 {
        fill: #d3d4d8;
      }

      .cls-65 {
        fill: #1f1712;
      }

      .cls-66 {
        fill: #3eacec;
      }

      .cls-67 {
        fill: #1b3c47;
      }

      .cls-68, .cls-69 {
        fill: #a1c92f;
      }

      .cls-70 {
        fill: #62c6f9;
      }

      .cls-71, .cls-72 {
        fill: #353535;
      }

      .cls-73 {
        fill: #2e99ce;
      }

      .cls-74 {
        fill: #5e5e5e;
      }

      .cls-4 {
        stroke-width: .32px;
      }

      .cls-5 {
        stroke-width: .46px;
      }

      .cls-6 {
        stroke-width: .29px;
      }

      .cls-7 {
        stroke-width: .29px;
      }

      .cls-8 {
        stroke-width: .55px;
      }

      .cls-9 {
        stroke-width: .31px;
      }

      .cls-10 {
        stroke-width: .31px;
      }

      .cls-11 {
        stroke-width: .31px;
      }

      .cls-12 {
        stroke-width: .52px;
      }

      .cls-13 {
        stroke-width: .52px;
      }

      .cls-14 {
        stroke-width: .4px;
      }

      .cls-43 {
        isolation: isolate;
        opacity: .55;
      }

      .cls-15 {
        stroke-width: .79px;
      }

      .cls-16 {
        stroke-width: .39px;
      }

      .cls-17 {
        stroke-width: .48px;
      }

      .cls-18 {
        stroke-width: .42px;
      }

      .cls-75 {
        opacity: .21;
      }

      .cls-75, .cls-76, .cls-77 {
        fill: #1784af;
      }

      .cls-19 {
        stroke-width: .5px;
      }

      .cls-19, .cls-21 {
        stroke: #1f1712;
      }

      .cls-20 {
        stroke-width: .5px;
      }

      .cls-21 {
        stroke-width: .45px;
      }

      .cls-22 {
        stroke-width: .51px;
      }

      .cls-78 {
        opacity: .15;
      }

      .cls-23 {
        stroke-width: .35px;
      }

      .cls-79, .cls-37, .cls-58 {
        opacity: .5;
      }

      .cls-24 {
        stroke-width: .33px;
      }

      .cls-25 {
        stroke-width: .33px;
      }

      .cls-26 {
        stroke-width: .85px;
      }

      .cls-27 {
        stroke-width: .41px;
      }

      .cls-28 {
        stroke-width: .43px;
      }

      .cls-29 {
        stroke-width: .43px;
      }

      .cls-30 {
        stroke-width: .42px;
      }

      .cls-31 {
        stroke-width: .39px;
      }

      .cls-32 {
        stroke-width: .39px;
      }

      .cls-33 {
        stroke-width: .39px;
      }

      .cls-44 {
        opacity: .6;
      }

      .cls-50 {
        opacity: .53;
      }

      .cls-76 {
        opacity: .75;
      }

      .cls-62 {
        opacity: .29;
      }

      .cls-59 {
        opacity: .27;
      }

      .cls-34 {
        stroke-width: .38px;
      }

      .cls-51 {
        opacity: .25;
      }

      .cls-35 {
        stroke: #75c8db;
        stroke-miterlimit: 10;
        stroke-width: .98px;
      }

      .cls-69 {
        opacity: .47;
      }

      .cls-38, .cls-52, .cls-54, .cls-60 {
        opacity: .4;
      }

      .cls-45 {
        opacity: .41;
      }

      .cls-80 {
        fill: #9ea4b7;
        opacity: .39;
      }

      .cls-46 {
        opacity: .35;
      }

      .cls-72 {
        opacity: .63;
      }

      .cls-77 {
        opacity: .65;
      }
    </style>
  </defs>
  <g id="Layer_1-2" data-name="Layer 1">
    <g>
      <polyline class="cls-25" points="61.07 10.04 59.39 8.03 60.84 5.11 57.49 .97"/>
      <circle class="cls-39" cx="57.37" cy=".78" r=".78"/>
      <ellipse class="cls-80" cx="21.04" cy="91.74" rx="21.04" ry="3.59"/>
      <polygon class="cls-71" points="108.96 49.91 51.07 49.94 51.07 10.35 108.86 10.35 108.96 49.91"/>
      <polyline class="cls-29" points="51.07 49.94 51.07 10.35 108.86 10.35 108.86 49.94 107.43 49.94"/>
      <rect class="cls-74" x="48.11" y="10.24" width="58.52" height="39.59"/>
      <rect class="cls-72" x="48.3" y="48.08" width="58.52" height="1.75"/>
      <rect class="cls-72" x="48.26" y="44.14" width="2.03" height="5.68"/>
      <rect class="cls-72" x="48.26" y="40.2" width="2.03" height="5.68"/>
      <rect class="cls-72" x="104.42" y="44.14" width="2.03" height="5.68"/>
      <rect class="cls-63" x="50.44" y="12.4" width="53.93" height="35.49"/>
      <rect class="cls-35" x="50.82" y="12.89" width="53.16" height="34.47"/>
      <polyline class="cls-29" points="53.19 49.94 48.15 49.94 48.15 10.35 106.66 10.35 106.66 49.94 55.45 49.94"/>
      <polygon class="cls-42" points="60.08 47.72 55.99 47.72 67.67 12.67 71.76 12.67 60.08 47.72"/>
      <polygon class="cls-45" points="65.04 47.72 62.7 47.72 74.39 12.67 76.73 12.67 65.04 47.72"/>
      <rect class="cls-16" x="50.44" y="12.4" width="53.93" height="35.49"/>
      <g>
        <ellipse class="cls-64" cx="26.48" cy="74.45" rx="19.93" ry="25.73" transform="translate(-52.54 75.03) rotate(-70.84)"/>
        <path class="cls-15" d="M3.29,64.93s-3.03,6.06,.32,12.64"/>
        <path class="cls-20" d="M15.37,91.3c1.44,.76,2.96,1.42,4.57,1.98,13.42,4.66,27.24,.02,30.85-10.38,3.61-10.4-4.34-22.61-17.77-27.27-13.42-4.66-27.24-.02-30.85,10.38-2.01,5.78-.44,12.12,3.65,17.41"/>
        <path class="cls-20" d="M8.38,86.27c1.56,1.51,3.35,2.89,5.34,4.1"/>
        <g>
          <circle class="cls-42" cx="2.85" cy="71.19" r=".74"/>
          <circle class="cls-44" cx="4.53" cy="70.24" r=".43"/>
          <circle class="cls-44" cx="3.16" cy="73.35" r=".52"/>
          <circle class="cls-46" cx="4.34" cy="71.83" r=".35"/>
        </g>
        <circle class="cls-39" cx="7.05" cy="84.85" r=".48"/>
      </g>
      <path class="cls-41" d="M49.63,64.13c-4.6,0-8.42-.81-8.68-.87l.85-3.91c.09,.02,9.57,2.02,15.77-.48l1.5,3.71c-2.94,1.19-6.37,1.55-9.44,1.55Z"/>
      <path class="cls-41" d="M49.63,64.13c-4.6,0-8.42-.81-8.68-.87l.85-3.91c.09,.02,9.57,2.02,15.77-.48l1.5,3.71c-2.94,1.19-6.37,1.55-9.44,1.55Z"/>
      <path class="cls-49" d="M58.78,62.43c-2.94,1.19-6.36,1.55-9.43,1.55-4.6,0-8.42-.81-8.68-.87l.3-1.4c1.02,.21,4.41,.81,8.38,.81,2.9,0,6.1-.32,8.92-1.36l.51,1.27Z"/>
      <path class="cls-30" d="M49.63,64.13c-4.6,0-8.42-.81-8.68-.87l.85-3.91c.09,.02,9.57,2.02,15.77-.48l1.5,3.71c-2.94,1.19-6.37,1.55-9.44,1.55Z"/>
      <g class="cls-78">
        <path class="cls-67" d="M101.49,6.85h-2.17V3.18h6.46c.14-.04,.29,.04,.34,.18,.04,.14-.04,.29-.18,.34-.05,.01-.1,.01-.15,0h-5.94v2.63h1.65c.14-.04,.29,.04,.34,.18,.04,.14-.04,.29-.18,.34-.05,.01-.1,.01-.15,0h0Z"/>
        <path class="cls-67" d="M103.2,6.85h-.93c-.14,.04-.29-.04-.34-.18-.04-.14,.04-.29,.18-.34,.05-.01,.1-.01,.15,0h.93c.14-.04,.29,.04,.34,.18,.04,.14-.04,.29-.18,.34-.05,.01-.1,.01-.15,0Z"/>
        <path class="cls-67" d="M103.93,6.85h-.02c-.14,.04-.29-.04-.34-.18-.04-.14,.04-.29,.18-.34,.05-.01,.1-.01,.15,0h.02c.14,.04,.23,.19,.18,.34-.03,.09-.1,.16-.18,.18Z"/>
        <path class="cls-67" d="M108.5,6.85h-3.84c-.14-.04-.23-.19-.18-.34,.03-.09,.1-.16,.18-.18h3.32V3.7h-1.15c-.14,.04-.29-.04-.34-.18-.04-.14,.04-.29,.18-.34,.05-.01,.1-.01,.15,0h1.68v3.67Z"/>
        <path class="cls-67" d="M104.1,3.7h-9.18V.03h9.18V3.7Zm-8.67-.52h8.13V.56h-8.13V3.18Z"/>
      </g>
      <g class="cls-78">
        <path class="cls-67" d="M99.4,76.25h-2.17v-3.67h6.46c.14-.04,.29,.04,.34,.18,.04,.14-.04,.29-.18,.34-.05,.01-.1,.01-.15,0h-5.94v2.63h1.65c.14-.04,.29,.04,.34,.18,.04,.14-.04,.29-.18,.34-.05,.01-.1,.01-.15,0h0Z"/>
        <path class="cls-67" d="M101.1,76.25h-.93c-.14,.04-.29-.04-.34-.18-.04-.14,.04-.29,.18-.34,.05-.01,.1-.01,.15,0h.93c.14-.04,.29,.04,.34,.18,.04,.14-.04,.29-.18,.34-.05,.01-.1,.01-.15,0Z"/>
        <path class="cls-67" d="M101.84,76.25h-.02c-.14,.04-.29-.04-.34-.18-.04-.14,.04-.29,.18-.34,.05-.01,.1-.01,.15,0h.02c.14,.04,.23,.19,.18,.34-.03,.09-.1,.16-.18,.18Z"/>
        <path class="cls-67" d="M106.41,76.25h-3.84c-.14-.04-.23-.19-.18-.34,.03-.09,.1-.16,.18-.18h3.32v-2.63h-1.15c-.14,.04-.29-.04-.34-.18-.04-.14,.04-.29,.18-.34,.05-.01,.1-.01,.15,0h1.68v3.67Z"/>
        <path class="cls-67" d="M102.01,73.1h-9.18v-3.66h9.18v3.66Zm-8.67-.52h8.13v-2.62h-8.13v2.62Z"/>
      </g>
      <g class="cls-78">
        <path class="cls-67" d="M81.88,58.06h-.05c-.14,.04-.29-.04-.34-.18-.04-.14,.04-.29,.18-.34,.05-.01,.1-.01,.15,0h.05c.14,.04,.23,.19,.18,.34-.03,.09-.1,.16-.18,.18Z"/>
        <path class="cls-67" d="M83.78,58.06h-1.05c-.14,.04-.29-.04-.34-.18-.04-.14,.04-.29,.18-.34,.05-.01,.1-.01,.15,0h.52v-2.62h-8.13v2.62h4.73c.14,.04,.23,.19,.18,.34-.03,.09-.1,.16-.18,.18h-5.26v-3.66h9.18v3.66Z"/>
        <path class="cls-67" d="M81.12,58.06h-.46c-.14,.04-.29-.04-.34-.18-.04-.14,.04-.29,.18-.34,.05-.01,.1-.01,.15,0h.46c.14,.04,.23,.19,.18,.34-.03,.09-.1,.16-.18,.18h0Z"/>
        <path class="cls-67" d="M76.77,64.36h-2.17v-3.68h6.46c.14-.04,.29,.05,.33,.19,.04,.14-.05,.29-.19,.33-.05,.01-.1,.01-.14,0h-5.95v2.62h1.65c.14,.04,.23,.19,.19,.33-.03,.09-.1,.17-.19,.19v.02Z"/>
        <path class="cls-67" d="M78.48,64.36h-.95c-.14-.04-.23-.19-.19-.33,.03-.09,.1-.17,.19-.19h.95c.14,.04,.23,.19,.19,.33-.03,.09-.1,.17-.19,.19Z"/>
        <path class="cls-67" d="M79.19,64.36h-.02c-.14-.04-.23-.19-.19-.33,.03-.09,.1-.17,.19-.19h.02c.14-.04,.29,.05,.33,.19,.04,.14-.05,.29-.19,.33-.05,.01-.1,.01-.14,0Z"/>
        <path class="cls-67" d="M83.78,64.36h-3.85c-.14-.04-.23-.19-.19-.33,.03-.09,.1-.17,.19-.19h3.32v-2.62h-1.15c-.14,.04-.29-.05-.33-.19-.04-.14,.05-.29,.19-.33,.05-.01,.1-.01,.14,0h1.68v3.67Z"/>
        <path class="cls-67" d="M79.38,61.21h-9.18v-3.66h9.18v3.66Zm-8.67-.52h8.13v-2.61h-8.13v2.61Z"/>
      </g>
      <g class="cls-78">
        <path class="cls-67" d="M42.84,11.26h-.05c-.14,.04-.29-.04-.34-.18-.04-.14,.04-.29,.18-.34,.05-.01,.1-.01,.15,0h.05c.14,.04,.23,.19,.18,.34-.03,.09-.1,.16-.18,.18Z"/>
        <path class="cls-67" d="M44.74,11.26h-1.05c-.14,.04-.29-.04-.34-.18-.04-.14,.04-.29,.18-.34,.05-.01,.1-.01,.15,0h.52v-2.62h-8.13v2.62h4.73c.14,.04,.23,.19,.18,.34-.03,.09-.1,.16-.18,.18h-5.26v-3.66h9.18v3.66Z"/>
        <path class="cls-67" d="M42.08,11.26h-.46c-.14,.04-.29-.04-.34-.18-.04-.14,.04-.29,.18-.34,.05-.01,.1-.01,.15,0h.46c.14,.04,.23,.19,.18,.34-.03,.09-.1,.16-.18,.18h0Z"/>
        <path class="cls-67" d="M37.73,17.56h-2.17v-3.68h6.46c.14-.04,.29,.05,.33,.19,.04,.14-.05,.29-.19,.33-.05,.01-.1,.01-.14,0h-5.95v2.62h1.65c.14,.04,.23,.19,.19,.33-.03,.09-.1,.17-.19,.19v.02Z"/>
        <path class="cls-67" d="M39.44,17.56h-.95c-.14-.04-.23-.19-.19-.33,.03-.09,.1-.17,.19-.19h.95c.14,.04,.23,.19,.19,.33-.03,.09-.1,.17-.19,.19Z"/>
        <path class="cls-67" d="M40.15,17.56h-.02c-.14-.04-.23-.19-.19-.33,.03-.09,.1-.17,.19-.19h.02c.14-.04,.29,.05,.33,.19,.04,.14-.05,.29-.19,.33-.05,.01-.1,.01-.14,0Z"/>
        <path class="cls-67" d="M44.74,17.56h-3.85c-.14-.04-.23-.19-.19-.33,.03-.09,.1-.17,.19-.19h3.32v-2.62h-1.15c-.14,.04-.29-.05-.33-.19-.04-.14,.05-.29,.19-.33,.05-.01,.1-.01,.14,0h1.68v3.67Z"/>
        <path class="cls-67" d="M40.34,14.4h-9.18v-3.66h9.18v3.66Zm-8.67-.52h8.13v-2.61h-8.13v2.61Z"/>
      </g>
      <ellipse class="cls-64" cx="27.08" cy="67.01" rx="13.05" ry="16.85" transform="translate(-34.14 28.59) rotate(-35.89)"/>
      <path class="cls-12" d="M18.21,53.19s-3.9,2.12-4.57,6.9"/>
      <rect class="cls-73" x="49.18" y="71.43" width="20.64" height="6.49" rx="3.25" ry="3.25" transform="translate(139.85 23.08) rotate(95.84)"/>
      <path class="cls-76" d="M62.01,82.05l1.44-14.08c.18-1.78-.55,8.62-3.9,10.96l-3.74,2.57c-.34-.96,1.36-15.98,1.18-14.19l-1.44,14.08c-.18,1.78,1.12,3.38,2.9,3.56h0c1.78,.18,3.38-1.12,3.56-2.9Z"/>
      <rect class="cls-21" x="49.18" y="71.43" width="20.64" height="6.49" rx="3.25" ry="3.25" transform="translate(139.85 23.08) rotate(95.84)"/>
      <g>
        <path class="cls-65" d="M59.12,80.36h3c2.44,0,4.43,1.98,4.43,4.43v.81c0,.64-.52,1.16-1.16,1.16h-10.9c-.36,0-.65-.29-.65-.65v-.47c0-2.92,2.37-5.28,5.28-5.28Z" transform="translate(7.53 -4.94) rotate(5.01)"/>
        <path class="cls-65" d="M58.78,78.24h.68c1.3,0,2.35,1.05,2.35,2.35v1.18h-5.38v-1.18c0-1.3,1.05-2.35,2.35-2.35Z" transform="translate(7.21 -4.86) rotate(5.01)"/>
      </g>
      <rect class="cls-73" x="40.34" y="66.73" width="23.61" height="6.94" rx="3.47" ry="3.47" transform="translate(131.06 107.9) rotate(152.14)"/>
      <rect class="cls-19" x="40.34" y="66.73" width="23.61" height="6.94" rx="3.47" ry="3.47" transform="translate(131.06 107.9) rotate(152.14)"/>
      <rect class="cls-66" x="52.7" y="71.51" width="20.64" height="6.49" rx="3.25" ry="3.25" transform="translate(54.48 -22.64) rotate(35.12)"/>
      <path class="cls-77" d="M51.84,70.44c.14,.39,.34,.75,.63,1.05l4.34,3.06c1.46,1.03,3.49,.68,4.52-.79,.63-.89,.74-2,.4-2.96-.14-.39-.34-.75-.63-1.05l-4.34-3.05c-1.47-1.04-3.49-.68-4.52,.78-.64,.9-.74,2-.4,2.96Z"/>
      <path class="cls-58" d="M20.52,72.17c1.09,1.51,1.16,4.08,.26,6.78-1.85,5.55,13.66,1.55,17.53-1.24,5-3.61,5.13-11.96,.3-18.63-4.83-6.67-12.79-9.15-17.79-5.54-5,3.61-5.13,11.96-.3,18.63Z"/>
      <path class="cls-20" d="M14.8,71.88c.49,.95,1.06,1.87,1.71,2.78,5.46,7.54,14.61,10.23,20.45,6,5.84-4.23,6.15-13.76,.7-21.3s-14.61-10.23-20.45-6c-3.25,2.35-4.78,6.34-4.57,10.71"/>
      <path class="cls-20" d="M12.93,66.56c.27,1.4,.71,2.81,1.33,4.2"/>
      <rect class="cls-21" x="52.7" y="71.51" width="20.64" height="6.49" rx="3.25" ry="3.25" transform="translate(54.48 -22.64) rotate(35.12)"/>
      <g>
        <path class="cls-65" d="M71.57,75.37h3c2.44,0,4.43,1.98,4.43,4.43v.81c0,.64-.52,1.16-1.16,1.16h-10.9c-.36,0-.65-.29-.65-.65v-.47c0-2.92,2.37-5.28,5.28-5.28Z" transform="translate(-31.66 54.66) rotate(-34.33)"/>
        <path class="cls-65" d="M69.21,74.74h.68c1.3,0,2.35,1.05,2.35,2.35v1.18h-5.38v-1.18c0-1.3,1.05-2.35,2.35-2.35Z" transform="translate(-31.03 52.56) rotate(-34.33)"/>
      </g>
      <rect class="cls-66" x="37.5" y="70.93" width="23.61" height="6.94" rx="3.47" ry="3.47" transform="translate(127.67 117.13) rotate(152.14)"/>
      <path class="cls-77" d="M56.79,72.62l-15.03,7.74c-1.7,.9-3.78-2.14-2.89-.45h0c.9,1.7,3,2.34,4.69,1.45l14.74-7.79c1.7-.9,2.7-.96,1.81-2.65"/>
      <path class="cls-75" d="M60.11,70.92c.9,1.7-.11,1.76-1.81,2.65l-14.74,7.79c-1.7,.9-3.8,.25-4.69-1.45h0c-.9-1.7,1.19,1.35,2.89,.45l8.37-5.84c2.95-2.06,6.39-3.3,9.98-3.6h0"/>
      <rect class="cls-19" x="37.5" y="70.93" width="23.61" height="6.94" rx="3.47" ry="3.47" transform="translate(127.67 117.13) rotate(152.14)"/>
      <g>
        <path class="cls-48" d="M34.12,52.67h5.25c.77,0,1.4,.63,1.4,1.4v5.47c0,2.22-1.8,4.02-4.02,4.02h0c-2.22,0-4.02-1.8-4.02-4.02v-5.47c0-.77,.63-1.4,1.4-1.4Z" transform="translate(105.33 53.24) rotate(118.23)"/>
        <path class="cls-22" d="M40.3,63l2.48-4.62c.37-.68,.11-1.53-.57-1.9l-4.82-2.59c-1.96-1.05-4.4-.32-5.45,1.64l-.47,.88c-1.05,1.96,.16,3.52,2.11,4.57l4.82,2.59c.68,.37,1.53,.11,1.9-.57Z"/>
      </g>
      <g>
        <path class="cls-66" d="M34.19,67.69h0c4.88,0,8.83,3.96,8.83,8.83v6.18H25.36v-6.18c0-4.88,3.96-8.83,8.83-8.83Z" transform="translate(91.67 134.53) rotate(160.36)"/>
        <path class="cls-8" d="M34.19,67.69h0c4.88,0,8.83,3.96,8.83,8.83v6.18H25.36v-6.18c0-4.88,3.96-8.83,8.83-8.83Z" transform="translate(91.67 134.53) rotate(160.36)"/>
      </g>
      <rect class="cls-56" x="20.57" y="51.22" width="19.75" height="25.89" rx="9.88" ry="9.88" transform="translate(80.68 114.37) rotate(160.36)"/>
      <path class="cls-37" d="M34.79,76.36l-2.32,1.37c1.85,.19,5.21-5.19,8.43-6.81l-5.61-4.2c-.92-2.57-5.18-5.1-7.15-6.99-2.33-2.24-1.76-6.82-5.8-5.38l3.75-2.38c-5.14,1.83-7.82,7.48-5.98,12.62l2.06,5.78c1.83,5.14,7.48,7.82,12.62,5.98Z"/>
      <path class="cls-42" d="M33.77,76.68c.32-.08,.65-.18,.97-.29,5.14-1.84,7.82-7.49,5.99-12.63l-2.06-5.78c-1.84-5.14-7.49-7.82-12.63-5.99-.32,.11-.63,.25-.93,.39,4.86-1.18,10.86,1.14,12.58,5.95l2.06,5.78c1.72,4.81-1.46,10.41-5.97,12.57Z"/>
      <path class="cls-53" d="M20.02,64.36l2.06,5.78c1.83,5.13,7.48,7.81,12.62,5.98,.41-.14,.8-.32,1.18-.51-4.78,1.04-9.71-1.6-11.39-6.33l-2.06-5.78c-.92-2.57-.71-5.26,.38-7.55,.92-1.93,2.44-3.55,4.43-4.57-.41,.09-.83,.21-1.23,.35-2.56,.91-4.52,2.78-5.6,5.07-1.08,2.28-1.29,4.98-.38,7.55Z"/>
      <path class="cls-22" d="M34.79,76.36h0c5.14-1.83,7.82-7.48,5.98-12.62l-1.03-2.89-1.03-2.89c-.44-1.24-1.11-2.34-1.94-3.27-2.6-2.9-6.79-4.1-10.68-2.71h0c-5.14,1.83-7.82,7.48-5.98,12.62l2.06,5.78c1.83,5.14,7.48,7.82,12.62,5.98Z"/>
      <g>
        <rect class="cls-42" x="36.2" y="57.6" width=".56" height="1.7" rx=".25" ry=".25" transform="translate(90.49 101.24) rotate(160.36)"/>
        <circle class="cls-42" cx="37.01" cy="59.91" r=".35"/>
      </g>
      <path class="cls-41" d="M26.76,45.85h0c1.26,0,2.28,1.02,2.28,2.28v5.77h-4.56v-5.77c0-1.26,1.02-2.28,2.28-2.28Z" transform="translate(68.72 87.86) rotate(160.36)"/>
      <path class="cls-49" d="M25.84,43.3h0c1.26,0,2.28,1.02,2.28,2.28v5.77h-4.56v-5.77c0-1.26,1.02-2.28,2.28-2.28Z" transform="translate(66.09 83.21) rotate(160.36)"/>
      <path class="cls-32" d="M26.76,45.85h0c1.26,0,2.28,1.02,2.28,2.28v5.77h-4.56v-5.77c0-1.26,1.02-2.28,2.28-2.28Z" transform="translate(68.72 87.86) rotate(160.36)"/>
      <path class="cls-41" d="M26.11,73.54c.27-.08,.53-.2,.78-.36l10.01-6.08-2.09-3.44-9.39,5.7c-.89-6.73-.93-6.78-1.38-7.33l-3.1,2.56c-.27-.33-.36-.65-.37-.71,.04,.16,.22,1.14,.96,6.73,.16,1.19,.89,2.21,1.98,2.73,.82,.39,1.74,.45,2.59,.19Z"/>
      <path class="cls-49" d="M23.57,73.22c.82,.4,1.74,.45,2.59,.19,.27-.09,.53-.21,.79-.37l10.01-6.07-.26-1.12-8.34,5.16c-.25,.15-1.52,1-1.79,1.09-.85,.26-2.14,.33-2.96-.07-1.08-.51-.94-2.89-1.1-4.08-.24-1.9-.43-3.27-.58-4.24l-.92,.76c-.27-.33-.35-.64-.37-.71,.04,.17,.23,1.14,.97,6.73,.15,1.19,.89,2.21,1.97,2.73Z"/>
      <path class="cls-30" d="M26.11,73.54c.27-.08,.53-.2,.78-.36l10.01-6.08-2.09-3.44-9.39,5.7c-.89-6.73-.93-6.78-1.38-7.33l-3.1,2.56c-.27-.33-.36-.65-.37-.71,.04,.16,.22,1.14,.96,6.73,.16,1.19,.89,2.21,1.98,2.73,.82,.39,1.74,.45,2.59,.19Z"/>
      <path class="cls-56" d="M20.53,56.46h4.96c.73,0,1.32,.59,1.32,1.32v5.17c0,2.1-1.7,3.8-3.8,3.8h0c-2.1,0-3.8-1.7-3.8-3.8v-5.17c0-.73,.59-1.32,1.32-1.32Z" transform="translate(50.36 121.43) rotate(175.91)"/>
      <ellipse class="cls-64" cx="32.88" cy="79.69" rx="13.26" ry="7.8" transform="translate(-14.54 7.69) rotate(-10.95)"/>
      <path class="cls-59" d="M34.14,87.58c7.18-1.38,12.35-5.95,11.53-10.18-.24-1.2-.92-2.24-1.95-3.09-.87,3.6-5.45,7.01-11.45,8.16-5.16,1-9.96,.07-12.57-2.13-.18,.7-.2,1.4-.07,2.1,.82,4.23,7.31,6.54,14.5,5.14Z"/>
      <path class="cls-57" d="M34.33,87.25c7.18-1.38,12.35-5.95,11.53-10.18-.18-.92-.63-1.76-1.31-2.48,.46,4.95-4.43,9.87-11.3,11.19-5.63,1.09-10.94-.56-13.44-3.81,0,.05,.01,.09,.02,.14,.82,4.23,7.31,6.54,14.5,5.14Z"/>
      <rect class="cls-70" x="50.32" y="69.36" width="5.81" height="1.46" rx=".73" ry=".73" transform="translate(133.3 106.63) rotate(151.74)"/>
      <rect class="cls-70" x="45.15" y="72.74" width="3.84" height=".97" rx=".48" ry=".48" transform="translate(123.2 115.42) rotate(151.74)"/>
      <rect class="cls-70" x="55.65" y="69.38" width="3.04" height=".77" rx=".38" ry=".38" transform="translate(140.56 104.13) rotate(151.74)"/>
      <rect class="cls-70" x="62.81" y="73.38" width="4.8" height="1.21" rx=".6" ry=".6" transform="translate(74.86 172.13) rotate(-144.22)"/>
      <path class="cls-12" d="M38.31,72.29s-6.37-1.34-12.78,2.29"/>
      <g>
        <circle class="cls-42" cx="33.07" cy="72.59" r=".37"/>
        <circle class="cls-44" cx="33.83" cy="73.16" r=".21"/>
        <circle class="cls-44" cx="32.15" cy="73.16" r=".26"/>
        <circle class="cls-46" cx="33.07" cy="73.39" r=".17"/>
      </g>
      <g>
        <circle class="cls-42" cx="15.62" cy="56.39" r=".48"/>
        <circle class="cls-44" cx="16.88" cy="56.51" r=".28"/>
        <circle class="cls-44" cx="14.98" cy="57.66" r=".34"/>
        <circle class="cls-46" cx="16.18" cy="57.29" r=".23"/>
      </g>
      <g>
        <path class="cls-39" d="M42.48,76.63s.05-.02,.06-.04c.08-.08,.08-.2,0-.28,0,0,0,0,0,0l-1.97-1.94c-.08-.08-.2-.08-.28,0-.08,.08-.08,.2,0,.28l1.97,1.94c.06,.06,.14,.08,.22,.05Z"/>
        <path class="cls-39" d="M40.68,76.04s.05-.02,.06-.04c.08-.08,.08-.2,0-.28,0,0,0,0,0,0l-1.05-1.04c-.08-.08-.2-.08-.28,0-.08,.08-.08,.2,0,.28l1.05,1.04c.06,.06,.14,.08,.22,.05Z"/>
      </g>
      <ellipse class="cls-20" cx="32.88" cy="79.69" rx="13.26" ry="7.8" transform="translate(-14.54 7.69) rotate(-10.95)"/>
      <g>
        <g class="cls-79">
          <path class="cls-36" d="M20.54,56.38h4.96c.73,0,1.32,.59,1.32,1.32v5.17c0,2.1-1.7,3.8-3.8,3.8h0c-2.1,0-3.8-1.7-3.8-3.8v-5.17c0-.73,.59-1.32,1.32-1.32Z" transform="translate(50.37 121.27) rotate(175.91)"/>
        </g>
        <path class="cls-37" d="M19.2,60.45l.37,5.16c.05,.74,.69,1.28,1.41,1.23l1.77-.13c-.73,.05-1.36-.49-1.41-1.23l-.37-5.16c-.07-1.05,.28-2.02,.92-2.76,.45-.52,1.04-.92,1.72-1.14-.29-.05-.59-.06-.89-.04-1.05,.07-1.97,.57-2.6,1.3-.64,.74-1,1.71-.92,2.76Z"/>
        <path class="cls-17" d="M22.65,56.4h0c-2.09,.15-3.67,1.97-3.52,4.06l.37,5.16c.05,.73,.69,1.28,1.41,1.23l4.95-.35c.73-.05,1.28-.69,1.23-1.41"/>
        <g>
          <g>
            <circle class="cls-36" cx="21.07" cy="62.29" r=".8" transform="translate(-8.14 3.38) rotate(-7.68)"/>
            <circle class="cls-36" cx="22.7" cy="61.54" r=".27" transform="translate(-8.02 3.59) rotate(-7.68)"/>
            <circle class="cls-36" cx="20.97" cy="64.18" r=".27" transform="translate(-8.39 3.38) rotate(-7.68)"/>
            <circle class="cls-36" cx="21.65" cy="60.2" r=".33" transform="translate(-7.85 3.43) rotate(-7.68)"/>
          </g>
          <g>
            <circle class="cls-38" cx="21.94" cy="63.83" r=".23" transform="translate(-8.33 3.5) rotate(-7.68)"/>
            <circle class="cls-38" cx="22.51" cy="63.05" r=".24" transform="translate(-8.22 3.57) rotate(-7.68)"/>
            <circle class="cls-38" cx="23.5" cy="62.94" r=".09" transform="translate(-8.2 3.71) rotate(-7.68)"/>
          </g>
        </g>
      </g>
      <g>
        <g>
          <circle class="cls-57" cx="33.65" cy="85.74" r=".8" transform="translate(-11.16 5.27) rotate(-7.68)"/>
          <circle class="cls-57" cx="32.9" cy="84.11" r=".27" transform="translate(-10.95 5.15) rotate(-7.68)"/>
          <circle class="cls-57" cx="35.54" cy="85.84" r=".27" transform="translate(-11.15 5.52) rotate(-7.68)"/>
          <circle class="cls-57" cx="31.56" cy="85.16" r=".33" transform="translate(-11.1 4.98) rotate(-7.68)"/>
        </g>
        <g>
          <circle class="cls-60" cx="35.19" cy="84.87" r=".23" transform="translate(-11.03 5.46) rotate(-7.68)"/>
          <circle class="cls-60" cx="34.41" cy="84.3" r=".24" transform="translate(-10.96 5.36) rotate(-7.68)"/>
          <circle class="cls-60" cx="34.3" cy="83.31" r=".09" transform="translate(-10.83 5.33) rotate(-7.68)"/>
        </g>
      </g>
      <g>
        <path class="cls-39" d="M35.01,55.32s.03-.03,.05-.05c.05-.08,.03-.18-.05-.23,0,0,0,0,0,0l-2.02-1.25c-.08-.05-.18-.03-.23,.05-.05,.08-.02,.18,.06,.23l2.02,1.25c.06,.04,.13,.04,.19,0Z"/>
        <path class="cls-39" d="M33.4,55.17s.03-.03,.05-.05c.05-.08,.03-.18-.05-.23,0,0,0,0,0,0l-1.08-.67c-.08-.05-.18-.03-.23,.05-.05,.08-.02,.18,.06,.23l1.08,.67c.06,.04,.13,.04,.19,0Z"/>
      </g>
      <g>
        <path class="cls-39" d="M56.63,16.37s.03-.03,.05-.05c.05-.08,.03-.18-.05-.23,0,0,0,0,0,0l-2.02-1.25c-.08-.05-.18-.03-.23,.05-.05,.08-.02,.18,.06,.23l2.02,1.25c.06,.04,.13,.04,.19,0Z"/>
        <path class="cls-39" d="M55.02,16.22s.03-.03,.05-.05c.05-.08,.03-.18-.05-.23,0,0,0,0,0,0l-1.08-.67c-.08-.05-.18-.03-.23,.05-.05,.08-.02,.18,.06,.23l1.08,.67c.06,.04,.13,.04,.19,0Z"/>
      </g>
      <g>
        <circle class="cls-42" cx="58.83" cy="61.16" r="2.51"/>
        <ellipse class="cls-41" cx="58.57" cy="61.55" rx="1.94" ry="2.02" transform="translate(-18.15 25.05) rotate(-20.98)"/>
        <circle class="cls-30" cx="58.79" cy="60.97" r="2.51"/>
      </g>
      <g>
        <g>
          <g>
            <circle class="cls-64" cx="36.62" cy="30.64" r="1.47"/>
            <circle class="cls-58" cx="36.48" cy="30.62" r=".83"/>
            <circle class="cls-14" cx="36.62" cy="30.64" r="1.47"/>
          </g>
          <g>
            <path class="cls-42" d="M15.64,37.97c-.17-.22-.41-.37-.69-.41-.23-.02-.24-.38,0-.36,.37,.04,.71,.22,.94,.51,.15,.18-.1,.44-.25,.27h0Z"/>
            <ellipse class="cls-42" cx="16.23" cy="38.5" rx=".23" ry=".29" transform="translate(-14.74 10.46) rotate(-24.99)"/>
          </g>
          <path class="cls-20" d="M12.25,34.02l-.35-1.17"/>
          <path class="cls-12" d="M10.06,25.64s1.13,1.31,1.14,2.98"/>
          <circle class="cls-44" cx="10.56" cy="23.4" r=".26"/>
          <circle class="cls-44" cx="9.96" cy="26.72" r=".17"/>
          <circle class="cls-46" cx="10.06" cy="27.61" r=".17"/>
          <path class="cls-41" d="M12.27,36.98l-1.18,.38c-1.54,.49-2.39,2.13-1.9,3.67h0c.49,1.53,2.12,2.38,3.65,1.9,0,0,0,0,0,0h0l1.18-.38c1.53-.49,2.38-2.13,1.9-3.66h0c-.49-1.53-2.12-2.38-3.65-1.9,0,0,0,0,0,0h0Z"/>
          <path class="cls-5" d="M12.27,36.98l-1.18,.38c-1.54,.49-2.39,2.13-1.9,3.67h0c.49,1.53,2.12,2.38,3.65,1.9,0,0,0,0,0,0h0l1.18-.38c1.53-.49,2.38-2.13,1.9-3.66h0c-.49-1.53-2.12-2.38-3.65-1.9,0,0,0,0,0,0h0Z"/>
          <path class="cls-49" d="M12.27,38.39l-.61,.2c-.8,.26-1.23,1.11-.98,1.91h0c.26,.8,1.11,1.23,1.9,.98l.61-.2c.8-.26,1.24-1.11,.98-1.91h0c-.26-.8-1.11-1.23-1.9-.98Z"/>
          <path class="cls-41" d="M11.57,22.87c-.09,.14-.16,.28-.24,.43-1.37,2.53-1.68,5.5-.85,8.26l3.19,10.72c1.69,5.74,7.72,9.03,13.46,7.34,5.68-1.67,8.97-7.6,7.39-13.31l-3.26-10.94c-.87-2.92-2.92-5.34-5.67-6.67-4.39-2.13-11.49,0-14.02,4.17Z"/>
          <path class="cls-51" d="M10.47,31.57l3.19,10.72c1.69,5.75,7.71,9.03,13.46,7.34h.04s-9.29-31.19-9.29-31.19c-2.64,.79-5.04,2.36-6.31,4.44-.09,.14-.16,.28-.24,.43-1.37,2.53-1.68,5.51-.85,8.26Z"/>
          <g>
            <ellipse class="cls-42" cx="28.07" cy="26.48" rx=".31" ry=".54" transform="translate(-10.1 20.84) rotate(-34.93)"/>
            <circle class="cls-43" cx="27.22" cy="27.04" r=".17"/>
            <path class="cls-43" d="M27.78,27.06c-.07,.02-.11,.1-.09,.17s.1,.11,.17,.09,.11-.1,.09-.17-.1-.11-.17-.09h0Z"/>
            <circle class="cls-43" cx="27.29" cy="26.05" r=".18"/>
          </g>
          <path class="cls-49" d="M10.44,31.45l3.19,10.72c1.69,5.75,7.72,9.03,13.46,7.34,.26-.08,.51-.16,.75-.25-5.52,1.23-11.59-1.88-13.22-7.39l-3.19-10.72c-.83-2.76-.04-5.87,1.32-8.4,.08-.15,.15-.29,.24-.43,1.15-1.9,3.25-3.37,5.6-4.21-2.93,.69-5.69,2.37-7.08,4.65-.09,.14-.16,.28-.24,.42-1.37,2.53-1.68,5.5-.86,8.26Z"/>
          <path class="cls-42" d="M26.69,49.74c.19-.04,.38-.09,.57-.15,5.73-1.73,8.98-7.78,7.39-13.06l-3.19-10.72c-.95-3.21-2.84-5.53-5.37-6.9-.15-.08-.28-.16-.43-.22-2.36-1.13-5.5-1.04-8.29-.08,2.47-.62,5.1-.55,7.14,.42,.15,.07,.29,.14,.43,.22,2.53,1.37,4.42,3.69,5.24,6.45l3.19,10.72c1.67,5.54-1.31,11.38-6.68,13.32Z"/>
          <path class="cls-20" d="M31.3,25.35c-.87-2.92-2.92-5.34-5.67-6.67-4.39-2.13-11.49,0-14.02,4.17-.09,.14-.16,.28-.24,.43-1.37,2.53-1.68,5.5-.85,8.26l.67,2.24,.6,2.02,1.93,6.46c1.69,5.74,7.72,9.03,13.46,7.34,2.49-.73,4.53-2.29,5.89-4.28"/>
          <rect class="cls-47" x="28.7" y="27.98" width=".88" height="4.76" rx=".44" ry=".44" transform="translate(-7.46 9.58) rotate(-16.59)"/>
          <g>
            <path class="cls-74" d="M11.17,37.38h0c-.4,.12-.83-.11-.95-.51l-.92-5.7c-.12-.4-.61-.62-.2-.74h0c.4-.12,.83,.11,.95,.51l1.63,5.49c.12,.4-.11,.83-.51,.95Z"/>
            <path class="cls-18" d="M11.17,37.38h0c-.4,.12-.83-.11-.95-.51l-.92-5.7c-.12-.4-.61-.62-.2-.74h0c.4-.12,.83,.11,.95,.51l1.63,5.49c.12,.4-.11,.83-.51,.95Z"/>
          </g>
          <path class="cls-74" d="M13.54,37.78h0c-.54,.22-1.15-.03-1.37-.57l-2.06-7.69c-.22-.54-.92-.76-.38-.98h0c.54-.22,1.15,.03,1.37,.57l3.01,7.3c.22,.54-.03,1.15-.57,1.37Z"/>
          <path class="cls-74" d="M6.33,18.82c-.73,.22,.63-1.39,1.23-1.87,1.84-1.49,4.44-1.99,6.7-1.29l-1.59-1.49c.09-.61,.55-1.12,1.1-1.39s1.18-.34,1.79-.31c2,.09,3.94,1.15,5.09,2.79l1.09-.58c.98-.38,2.04-.62,3.11-.64,1.14-.02,2.41,.17,3.39,.76,.78,.47,1.34,1.24,1.73,2.06,.24,.49,.39,1.16-.02,1.53-.2,.18-.49,.23-.76,.31-.07,.02-.15,.05-.2,.1-.17,.17,0,.46,.14,.65,.67,.85,1.14,1.85,1.37,2.91,.07,.3,.11,.62,.02,.91-.18,.56-.83,.84-1.42,.9-1.51,.15-3.03-.81-3.63-2.18l-.91,.16c-.41,.28-.89,.44-1.38,.38-.75-.1-1.32-.68-1.84-1.23-.55-.58-1.1-1.17-1.65-1.75-.03,1.16-.29,2.32-.78,3.38-.33,.72-.79,1.42-1.5,1.78-.55,.28-1.26,.27-1.76-.06l-.79,.18c-.23,1.25-.94,2.41-1.96,3.18-.08,.06-.16,.11-.2,.19-.07,.11-.07,.24-.07,.37-.04,1.87-.7,3.73-1.86,5.2-.38,.48-.86,.95-1.47,.98-.53,.02-1.01-.3-1.36-.69-1.04-1.17-1.13-2.9-1.01-4.47,.09-1.16,.33-2.42,1.25-3.13l-.09-.04c-.4,.25-.82,.47-1.28,.57s-.96,.06-1.35-.19c-.45-.29-.69-.82-.8-1.34-.18-.87-.04-1.8,.38-2.59,.73-1.36,2.19-2.14,3.62-2.72,1.1-.44,2.27-.81,3.45-.77,0,0-3.34-1.24-5.77-.52Z"/>
          <path class="cls-61" d="M6.89,29.52c-.12,1.57-.04,3.3,1.01,4.47,.35,.39,.84,.72,1.36,.69,.61-.03,1.1-.5,1.47-.98,1.16-1.47,1.82-3.33,1.86-5.2,0-.12,0-.26,.07-.36,.05-.08,.13-.13,.2-.19,1.02-.76,1.73-1.92,1.96-3.18l.79-.18c-.09-.05-.17-.09-.26-.13-.26-.11-.54-.2-.82-.19-.71,.03-1.25,.64-1.92,.87-.53,.17-1.16,.08-1.59-.28-.43-.35-.66-.95-.55-1.5,.15-.67,.75-1.15,1.05-1.78,.34-.71,.24-1.61-.24-2.23-.91,.09-1.81,.39-2.67,.74-1.43,.57-2.89,1.36-3.62,2.72-.42,.78-.56,1.71-.38,2.59,.1,.52,.34,1.05,.79,1.34,.39,.25,.9,.29,1.36,.19,.46-.1,.88-.33,1.28-.57l.09,.04c-.92,.71-1.16,1.98-1.25,3.13Z"/>
          <path class="cls-62" d="M15.65,24.62c.5,.32,1.21,.33,1.76,.06,.71-.36,1.17-1.06,1.5-1.78,.21-.46,.38-.94,.51-1.44-.68-.84-1.57-1.51-2.57-1.9-.64-.24-1.31-.39-1.94-.67-1.42-.63-2.48-2.01-2.77-3.54-1.65,.01-3.29,.57-4.57,1.6-.59,.48-1.96,2.09-1.23,1.87,2.42-.72,5.77,.52,5.77,.52-.27,0-.54,0-.8,.03,.46,.62,.55,1.5,.22,2.2-.3,.62-.9,1.1-1.05,1.78-.12,.55,.11,1.15,.55,1.5,.44,.35,1.06,.45,1.59,.28,.67-.23,1.21-.84,1.92-.87,.28,0,.57,.08,.82,.19,.09,.04,.18,.08,.26,.13"/>
          <circle class="cls-39" cx="21.57" cy="14.77" r=".32"/>
          <circle class="cls-39" cx="5.5" cy="22.1" r=".32"/>
          <circle class="cls-39" cx="9.92" cy="18.67" r=".32"/>
          <circle class="cls-39" cx="6.89" cy="29.67" r=".32"/>
          <circle class="cls-61" cx="12.73" cy="24.84" r=".76"/>
          <circle class="cls-61" cx="11.57" cy="21.08" r=".65"/>
          <circle class="cls-61" cx="12.9" cy="21.3" r=".33"/>
          <circle class="cls-61" cx="17.01" cy="24.09" r=".61"/>
          <path class="cls-13" d="M6.31,21.41c.7-.54,1.53-.94,2.34-1.27,1.1-.44,2.27-.81,3.45-.77"/>
          <path class="cls-13" d="M7.03,28.64c.12-.87,.38-1.72,1.05-2.24h0c-.4,.26-.82,.49-1.28,.59s-.96,.06-1.35-.19c-.45-.29-.69-.82-.8-1.34-.16-.8-.07-1.64,.27-2.38"/>
          <path class="cls-13" d="M20.66,15.29c-1.15-1.64-3.09-2.7-5.09-2.79-.61-.03-1.24,.04-1.79,.31-.28,.14-.53,.34-.73,.58-.3,.38-.2,.94,.19,1.22h0"/>
          <path class="cls-13" d="M14.27,15.69c-2.26-.7-4.86-.2-6.7,1.29-.59,.48-1.14,1.11-1.23,1.87,0,0,1.28-.26,2.43-.26"/>
          <path class="cls-12" d="M28.84,15.99s-1.58-1.88-4.84-1.35"/>
          <circle class="cls-42" cx="22.87" cy="14.84" r=".34"/>
          <path class="cls-13" d="M22.59,14.41c.8-.25,1.43-.33,2.28-.35,1.14-.02,2.41,.17,3.39,.76,.37,.22,.69,.51,.96,.84"/>
          <g>
            <circle class="cls-42" cx="25.94" cy="15.13" r=".37"/>
            <circle class="cls-44" cx="26.64" cy="15.78" r=".21"/>
            <circle class="cls-44" cx="24.96" cy="15.6" r=".26"/>
            <circle class="cls-46" cx="25.86" cy="15.93" r=".17"/>
          </g>
          <circle class="cls-44" cx="29.24" cy="23.45" r=".26"/>
          <g>
            <path class="cls-39" d="M27.68,21.14s.05-.02,.07-.04c.08-.07,.1-.19,.03-.28,0,0,0,0,0,0l-1.76-2.13c-.07-.08-.19-.1-.28-.03-.08,.07-.1,.19-.03,.28l1.76,2.13c.05,.06,.13,.09,.21,.07Z"/>
            <path class="cls-39" d="M25.95,20.37s.05-.02,.07-.04c.08-.07,.1-.19,.03-.28,0,0,0,0,0,0l-.94-1.14c-.07-.08-.19-.1-.28-.03-.08,.07-.1,.19-.03,.28l.94,1.14c.05,.06,.13,.09,.21,.07Z"/>
          </g>
          <rect class="cls-49" x="20.25" y="36.31" width="12.88" height="1.02" transform="translate(-9.4 9.15) rotate(-16.59)"/>
          <path class="cls-20" d="M34.08,43.48c.94-2.19,1.17-4.71,.48-7.18l-2.64-8.85"/>
          <rect class="cls-68" x="19.43" y="31.84" width="9.87" height="4.87" transform="translate(57.5 60.17) rotate(163.41)"/>
          <g>
            <path class="cls-42" d="M27.04,38.58h0c3.27,0,5.93,2.66,5.93,5.93v1.16h-11.86v-1.16c0-3.27,2.66-5.93,5.93-5.93Z" transform="translate(65.18 74.53) rotate(163.04)"/>
            <path class="cls-28" d="M27.04,38.58h0c3.27,0,5.93,2.66,5.93,5.93v1.16h-11.86v-1.16c0-3.27,2.66-5.93,5.93-5.93Z" transform="translate(65.18 74.53) rotate(163.04)"/>
          </g>
          <g>
            <circle class="cls-64" cx="18.9" cy="35.67" r="1.47"/>
            <circle class="cls-58" cx="19.01" cy="35.59" r=".83"/>
            <circle class="cls-14" cx="18.9" cy="35.67" r="1.47"/>
          </g>
          <path class="cls-40" d="M20.08,30.74h16.81v4.87H20.08c-.45,0-.81-.37-.81-.81v-3.25c0-.45,.37-.81,.81-.81Z" transform="translate(64.45 56.95) rotate(163.41)"/>
          <rect class="cls-68" x="19.48" y="32.2" width="7.37" height="4.87" transform="translate(55.25 61.22) rotate(163.41)"/>
          <rect class="cls-69" x="19.41" y="31.74" width="10.57" height="4.87" transform="translate(58.12 59.89) rotate(163.41)"/>
          <rect class="cls-55" x="32.49" y="29.36" width=".44" height="4.87" transform="translate(73.13 52.92) rotate(163.41)"/>
          <rect class="cls-42" x="34.66" y="28.82" width=".44" height="4.87" transform="translate(77.24 51.26) rotate(163.41)"/>
          <rect class="cls-42" x="33.69" y="29.16" width=".44" height="4.87" transform="translate(75.44 52.2) rotate(163.41)"/>
          <rect class="cls-55" x="31.22" y="29.73" width=".44" height="4.87" transform="translate(70.77 54.02) rotate(163.41)"/>
          <path class="cls-20" d="M22.66,32.24l-3.1,.92c-.43,.13-.68,.58-.55,1.01l.93,3.11c.13,.43,.58,.68,1.01,.55l15.33-4.57c.43-.13,.68-.58,.55-1.01l-.93-3.11c-.13-.43-.58-.68-1.01-.55l-9.66,2.91"/>
          <path class="cls-13" d="M29.98,16.88c.24,.49,.39,1.16-.02,1.53-.2,.18-.49,.23-.76,.31-.07,.02-.15,.05-.2,.1-.17,.17,0,.46,.14,.65,.67,.85,1.14,1.85,1.37,2.91,.07,.3,.11,.62,.02,.91-.18,.56-.83,.84-1.42,.9-1.51,.15-3.03-.81-3.63-2.18"/>
          <path class="cls-26" d="M15.14,25.7s-.43,2.1-2.01,2.62c0,0,.25,2.01-.39,3.03"/>
          <path class="cls-13" d="M14.87,24.82c-.23,1.25-.94,2.41-1.96,3.18-.08,.06-.16,.11-.2,.19-.07,.11-.07,.24-.07,.37-.04,1.87-.7,3.73-1.86,5.2-.38,.48-.86,.95-1.47,.98-.53,.02-1.01-.3-1.36-.69-.79-.89-1.03-2.1-1.05-3.31"/>
          <path class="cls-26" d="M19.91,20.29s-.18,4.05-2.83,4.9"/>
          <path class="cls-26" d="M24.5,22.61s-1.95,1.32-4.32-2.27"/>
          <path class="cls-13" d="M24.57,22.15c-.41,.28-.89,.44-1.38,.38-.75-.1-1.32-.68-1.84-1.23-.55-.58-1.1-1.17-1.65-1.75-.03,1.16-.29,2.32-.78,3.38-.33,.72-.79,1.42-1.5,1.78-.55,.28-1.26,.27-1.76-.06"/>
          <path class="cls-26" d="M12.96,32.55l1.64,3.99s.68,1.59-.82,1.6"/>
          <path class="cls-27" d="M12.51,32.53l1.6,3.87c.22,.54-.03,1.15-.57,1.37h0c-.54,.22-1.15-.03-1.37-.57l-.97-3.62"/>
          <circle class="cls-39" cx="24.08" cy="31.84" r=".32"/>
        </g>
        <circle class="cls-39" cx="33.64" cy="44.39" r=".32"/>
      </g>
      <circle class="cls-39" cx="12.75" cy="65.3" r=".32"/>
      <g>
        <rect class="cls-74" x="36.27" y="58.87" width="6.57" height="9.64" transform="translate(7.63 -4.15) rotate(6.64)"/>
        <rect class="cls-30" x="36.27" y="58.87" width="6.57" height="9.64" transform="translate(7.63 -4.15) rotate(6.64)"/>
      </g>
      <g>
        <circle class="cls-42" cx="36.4" cy="65.11" r="2.51"/>
        <ellipse class="cls-41" cx="36.13" cy="65.5" rx="1.94" ry="2.02" transform="translate(-21.06 17.28) rotate(-20.98)"/>
        <circle class="cls-30" cx="36.36" cy="64.92" r="2.51"/>
      </g>
      <path class="cls-41" d="M78.69,51.23c-.17,0-.34,0-.51-.03-1.01-.15-1.82-.83-2.14-1.77l-4.4-8.57,3.25-1.67,3.68,7.17c.41-.81,.85-1.7,1.26-2.54,1.82-3.7,1.98-3.98,2.46-4.34l2.18,2.93c.22-.17,.33-.33,.35-.35-.21,.33-1.05,2.02-1.71,3.37-.81,1.65-1.65,3.36-2.24,4.43-.46,.82-1.28,1.33-2.19,1.37Z"/>
      <path class="cls-49" d="M84.73,41.95c-.24,.41-1.03,2.03-1.68,3.33-.81,1.65-1.65,3.36-2.24,4.43-.46,.82-1.28,1.33-2.19,1.37-.17,0-.34,0-.51-.03-1.01-.14-1.82-.83-2.14-1.77l-4.4-8.57,.89-.46,3.51,6.84c.54,.92,1.13,2.63,2.14,2.77,.17,.03,.34,.03,.51,.03,.91-.05,1.73-1.55,2.19-2.37,.59-1.07,1.43-2.78,2.24-4.43,.26-.52,.53-1.08,.79-1.6l.57,.77c.17-.13,.28-.25,.32-.31Z"/>
      <path class="cls-33" d="M78.69,51.23c-.17,0-.34,0-.51-.03-1.01-.15-1.82-.83-2.14-1.77l-4.4-8.57,3.25-1.67,3.68,7.17c.41-.81,.85-1.7,1.26-2.54,1.82-3.7,1.98-3.98,2.46-4.34l2.18,2.93c.22-.17,.33-.33,.35-.35-.21,.33-1.05,2.02-1.71,3.37-.81,1.65-1.65,3.36-2.24,4.43-.46,.82-1.28,1.33-2.19,1.37Z"/>
      <g>
        <circle class="cls-42" cx="73.52" cy="40.05" r="2.29"/>
        <ellipse class="cls-41" cx="73.29" cy="40.42" rx="1.77" ry="1.84" transform="translate(-10.05 32.7) rotate(-23.59)"/>
        <circle class="cls-33" cx="73.48" cy="39.88" r="2.29"/>
      </g>
      <path class="cls-56" d="M81.1,37.86h4.33c.64,0,1.15,.52,1.15,1.15v4.51c0,1.83-1.49,3.32-3.32,3.32h0c-1.83,0-3.32-1.49-3.32-3.32v-4.51c0-.64,.52-1.15,1.15-1.15Z" transform="translate(134.42 120.52) rotate(-150.16)"/>
      <path class="cls-30" d="M86.75,39.52c-.28-.51-.71-.96-1.25-1.27h0c-1.59-.91-3.62-.36-4.53,1.23l-2.25,3.91c-.32,.55-.13,1.26,.43,1.58l3.75,2.15c.55,.32,1.26,.13,1.58-.43"/>
      <path class="cls-56" d="M97.01,43.21v4.66h-15.76v-4.66c0-.4,.03-.78,.09-1.17,.02-.13,.04-.25,.06-.38,.06-.27,.12-.53,.21-.8,.03-.13,.08-.25,.12-.37,.03-.1,.06-.18,.1-.27,.06-.15,.13-.3,.2-.44,.03-.08,.08-.16,.12-.24,.24-.46,.53-.9,.85-1.3,.12-.15,.25-.3,.38-.43,.13-.14,.26-.28,.41-.41,.02,0,.02-.02,.04-.04,.13-.11,.26-.22,.38-.32,.16-.13,.34-.24,.51-.36,.03-.02,.05-.04,.08-.06,.09-.06,.17-.13,.26-.18,.09-.05,.18-.1,.27-.15,.02-.02,.06-.04,.09-.05,.1-.05,.19-.1,.29-.14,.1-.04,.18-.08,.27-.12,.04-.03,.09-.05,.14-.06,.06-.02,.12-.05,.18-.07,.06-.02,.1-.04,.16-.06,.02-.02,.06-.03,.09-.03,.1-.03,.18-.06,.28-.1,.18-.06,.38-.11,.57-.15,.35-.08,.72-.14,1.09-.17h.03c.06,0,.13,0,.19-.02h.18s0,0,.02,0c.07,0,.14,0,.22,0,.27,0,.53,.02,.8,.04h0c1.85,.19,3.51,1.02,4.77,2.27,1.33,1.34,2.2,3.15,2.3,5.17,0,.14,0,.27,0,.41Z"/>
      <path class="cls-42" d="M89.98,35.36s-.03,0-.05,0h0c-.19,.02-.38,.05-.57,.09-3.66,.68-7.23,3.89-7.23,7.75v4.66h-.84v-4.66c0-3.11,1.8-5.81,4.42-7.1,.1-.04,.18-.08,.27-.12,.04-.03,.09-.05,.14-.06,.06-.02,.12-.05,.18-.07,.06-.02,.1-.04,.16-.06,.02-.02,.06-.03,.09-.03,.1-.03,.18-.06,.28-.1,.18-.06,.38-.11,.57-.15,.35-.08,.72-.14,1.09-.17h.02c.07,0,.14-.02,.21-.02,.05,0,.1,0,.15,0,.1,0,.2,0,.3,0,.27,0,.54,.02,.81,.04Z"/>
      <path class="cls-53" d="M97.01,43v4.87h-2.04v-4.87c0-2.18-.88-4.14-2.31-5.57-.91-.91-2.04-1.6-3.3-1.97-.15-.05-.3-.09-.45-.12t-.02,0s-.02,0-.02,0c-.25-.06-.5-.11-.77-.14,.34-.04,.68-.06,1.02-.06,2.17,0,4.14,.88,5.57,2.31,1.38,1.39,2.25,3.27,2.3,5.37,0,.06,0,.14,0,.2Z"/>
      <path class="cls-9" d="M97.01,43.21v4.66h-15.76v-4.66c0-.4,.03-.78,.09-1.17,.02-.13,.04-.25,.06-.38,.06-.27,.12-.53,.21-.8,.03-.13,.08-.25,.12-.37,.03-.1,.06-.18,.1-.27,.06-.15,.13-.3,.2-.44,.03-.08,.08-.16,.12-.24,.24-.46,.53-.9,.85-1.3,.12-.15,.25-.3,.38-.43,.13-.14,.26-.28,.41-.41,.02,0,.02-.02,.04-.04,.13-.11,.26-.22,.38-.32,.16-.13,.34-.24,.51-.36,.03-.02,.05-.04,.08-.06,.09-.06,.17-.13,.26-.18,.09-.05,.18-.1,.27-.15,.02-.02,.06-.04,.09-.05,.1-.05,.19-.1,.29-.14,.1-.04,.18-.08,.27-.12,.04-.03,.09-.05,.14-.06,.06-.02,.12-.05,.18-.07,.06-.02,.1-.04,.16-.06,.02-.02,.06-.03,.09-.03,.1-.03,.18-.06,.28-.1,.18-.06,.38-.11,.57-.15,.36-.08,.73-.14,1.09-.17h.03c.13,0,.25-.02,.37-.02t.02,0c.07,0,.14,0,.22,0,.27,0,.53,.02,.8,.04h0c1.85,.19,3.51,1.02,4.77,2.27,1.33,1.34,2.2,3.15,2.3,5.17,0,.14,0,.27,0,.41Z"/>
      <path class="cls-41" d="M87.27,31.1h3.45v4.36c0,.95-.77,1.72-1.72,1.72h0c-.95,0-1.72-.77-1.72-1.72v-4.36h0Z" transform="translate(.16 -.41) rotate(.26)"/>
      <path class="cls-50" d="M87.28,29.85h3.45v4.36c0,.95-.77,1.72-1.72,1.72h0c-.95,0-1.72-.77-1.72-1.72v-4.36h0Z" transform="translate(.15 -.41) rotate(.26)"/>
      <path class="cls-6" d="M87.27,31.1h3.45v4.36c0,.95-.77,1.72-1.72,1.72h0c-.95,0-1.72-.77-1.72-1.72v-4.36h0Z" transform="translate(.16 -.41) rotate(.26)"/>
      <g>
        <path class="cls-42" d="M94.33,23.87c.07-.2,.22-.36,.4-.45,.16-.06,.09-.33-.08-.26-.26,.11-.46,.32-.57,.58-.07,.16,.17,.3,.24,.14h0Z"/>
        <ellipse class="cls-42" cx="94.02" cy="24.39" rx=".22" ry=".17" transform="translate(57.04 114.2) rotate(-82.16)"/>
      </g>
      <path class="cls-34" d="M95.9,20.26v-.92"/>
      <path class="cls-1" d="M95.61,13.73s-.53,1.19-.16,2.4"/>
      <circle class="cls-44" cx="94.75" cy="12.23" r=".19"/>
      <circle class="cls-44" cx="95.92" cy="14.48" r=".13"/>
      <circle class="cls-46" cx="96.05" cy="15.15" r=".13"/>
      <path class="cls-41" d="M95.74,22.41h.93c1.22,.02,2.2,1.02,2.19,2.24h0c0,1.21-1,2.19-2.21,2.18,0,0,0,0,0,0h-.93c-1.22-.02-2.19-1.02-2.19-2.23h0c0-1.21,1-2.19,2.21-2.18,0,0,0,0,0,0h0Z"/>
      <path class="cls-23" d="M95.74,22.41h.93c1.22,.02,2.2,1.02,2.19,2.24h0c0,1.21-1,2.19-2.21,2.18,0,0,0,0,0,0h-.93c-1.22-.02-2.19-1.02-2.19-2.23h0c0-1.21,1-2.19,2.21-2.18,0,0,0,0,0,0h0Z"/>
      <path class="cls-49" d="M96.06,23.42h.49c.63,.01,1.14,.53,1.13,1.16h0c0,.63-.52,1.14-1.16,1.13h-.49c-.63-.01-1.14-.53-1.13-1.16h0c0-.63,.52-1.14,1.16-1.13Z"/>
      <path class="cls-41" d="M93.9,12.07c.1,.08,.18,.17,.27,.25,1.55,1.52,2.44,3.6,2.46,5.77l.08,8.45c.06,4.52-3.56,8.24-8.08,8.3-4.47,.06-8.17-3.48-8.29-7.96l-.08-8.62c-.03-2.3,.92-4.51,2.6-6.07,2.7-2.51,8.29-2.55,11.05-.11Z"/>
      <path class="cls-51" d="M96.64,18.1l.08,8.45c.06,4.52-3.56,8.23-8.08,8.29h-.03s0,0,0,0c2.77-6.53,3.12-13.84,1-20.61l-1.24-3.96c2.08-.02,4.16,.58,5.54,1.8,.1,.08,.18,.17,.27,.26,1.55,1.52,2.44,3.6,2.45,5.77Z"/>
      <g>
        <ellipse class="cls-42" cx="81.13" cy="18.54" rx=".41" ry=".23" transform="translate(38.71 90.14) rotate(-72.22)"/>
        <circle class="cls-43" cx="81.86" cy="18.76" r=".13"/>
        <path class="cls-43" d="M81.47,18.9c.06,0,.1,.04,.1,.1s-.04,.1-.1,.1-.1-.04-.1-.1,.04-.1,.1-.1h0Z"/>
        <circle class="cls-43" cx="81.59" cy="18.06" r=".13"/>
      </g>
      <path class="cls-49" d="M96.63,18.01l.08,8.45c.06,4.52-3.56,8.24-8.08,8.3-.2,0-.4,0-.6-.01,4.26-.35,7.95-3.94,7.89-8.27l-.08-8.45c-.02-2.17-1.28-4.25-2.83-5.77-.09-.09-.18-.17-.27-.25-1.25-1.11-3.09-1.71-4.98-1.79,2.27-.15,4.63,.44,6.14,1.78,.1,.08,.18,.17,.27,.25,1.55,1.52,2.44,3.6,2.46,5.77Z"/>
      <path class="cls-42" d="M88.98,34.83c-.15,.01-.3,.02-.45,.02-4.52,.03-8.21-3.61-8.24-7.78l-.08-8.45c-.03-2.53,.82-4.62,2.34-6.17,.09-.09,.17-.18,.26-.26,1.45-1.34,3.73-1.98,5.96-1.91-1.92,.1-3.8,.74-5.06,1.9-.09,.08-.18,.17-.26,.26-1.52,1.55-2.37,3.64-2.34,5.82l.08,8.45c.03,4.37,3.48,7.92,7.79,8.13Z"/>
      <path class="cls-34" d="M80.22,18.25c-.03-2.3,.92-4.51,2.6-6.07,2.7-2.51,8.29-2.55,11.05-.11,.1,.08,.18,.17,.27,.25,1.55,1.52,2.44,3.6,2.46,5.77l.02,1.76,.02,1.59,.05,5.09c.06,4.52-3.56,8.24-8.08,8.3-1.96,.03-3.78-.64-5.2-1.78"/>
      <rect class="cls-47" x="81.45" y="21.61" width=".48" height="2.57" rx=".24" ry=".24" transform="translate(-.22 .81) rotate(-.56)"/>
      <rect class="cls-47" x="81.76" y="26.04" width=".38" height="2.05" rx=".19" ry=".19" transform="translate(-.26 .81) rotate(-.56)"/>
      <g>
        <path class="cls-74" d="M97.42,22.45h0c.32,0,.57-.26,.57-.58l-.61-4.32c0-.32,.3-.58-.02-.58h0c-.32,0-.57,.26-.57,.58l.04,4.32c0,.32,.26,.57,.58,.57Z"/>
        <path class="cls-4" d="M97.42,22.45h0c.32,0,.57-.26,.57-.58l-.61-4.32c0-.32,.3-.58-.02-.58h0c-.32,0-.57,.26-.57,.58l.04,4.32c0,.32,.26,.57,.58,.57Z"/>
      </g>
      <path class="cls-74" d="M95.8,23.26h0c.44,.04,.82-.28,.86-.72l-.23-6.01c.04-.44,.49-.75,.06-.79h0c-.44-.04-.82,.28-.86,.72l-.55,5.94c-.04,.44,.28,.82,.72,.86Z"/>
      <path class="cls-74" d="M96.78,7.98c.58,0-.76-.86-1.3-1.08-1.66-.66-3.64-.45-5.12,.56l.82-1.43c-.2-.42-.64-.68-1.1-.76s-.93,.02-1.36,.17c-1.43,.51-2.59,1.71-3.05,3.15l-.92-.18c-.8-.06-1.61,0-2.39,.23-.83,.24-1.7,.66-2.28,1.31-.46,.51-.69,1.19-.79,1.87-.06,.41-.02,.92,.36,1.1,.19,.09,.41,.06,.62,.05,.06,0,.12,0,.17,.03,.16,.09,.11,.33,.04,.5-.29,.76-.41,1.59-.34,2.4,.02,.23,.06,.47,.19,.66,.26,.36,.78,.42,1.22,.33,1.12-.23,2-1.26,2.13-2.38l.69-.09c.36,.11,.74,.12,1.08-.04,.52-.24,.8-.79,1.05-1.3,.27-.54,.53-1.09,.8-1.63,.28,.83,.73,1.61,1.32,2.27,.4,.44,.89,.85,1.48,.95,.46,.08,.97-.09,1.25-.43l.61-.05c.45,.85,1.22,1.53,2.12,1.86,.07,.02,.14,.05,.19,.09,.07,.06,.1,.16,.13,.25,.45,1.34,1.34,2.53,2.5,3.34,.38,.26,.84,.49,1.28,.38,.39-.1,.67-.44,.83-.8,.49-1.08,.17-2.35-.26-3.45-.32-.81-.78-1.68-1.6-1.98l.05-.05c.34,.09,.7,.16,1.05,.13s.71-.17,.93-.44c.26-.31,.32-.74,.28-1.15-.06-.67-.37-1.31-.85-1.78-.83-.82-2.06-1.06-3.21-1.16-.89-.07-1.82-.08-2.66,.21,0,0,2.14-1.64,4.05-1.66Z"/>
      <path class="cls-61" d="M98.76,15.82c.44,1.11,.76,2.37,.26,3.45-.16,.36-.44,.71-.83,.8-.45,.12-.9-.12-1.28-.38-1.17-.8-2.05-1.99-2.5-3.34-.03-.09-.06-.18-.13-.25-.06-.05-.13-.07-.19-.09-.91-.32-1.68-1-2.13-1.86l-.61,.05c.05-.06,.11-.11,.16-.15,.16-.14,.34-.27,.55-.32,.52-.14,1.04,.18,1.58,.2,.42,0,.85-.2,1.09-.55,.24-.35,.27-.83,.06-1.2-.26-.45-.8-.67-1.15-1.05-.4-.44-.53-1.11-.32-1.66,.68-.14,1.4-.12,2.09-.06,1.16,.09,2.39,.34,3.22,1.16,.48,.47,.79,1.11,.85,1.79,.04,.4-.01,.83-.27,1.15-.23,.27-.58,.41-.94,.44-.35,.03-.71-.04-1.05-.13l-.05,.05c.82,.31,1.27,1.17,1.6,1.98Z"/>
      <path class="cls-62" d="M91.35,14.24c-.29,.34-.8,.51-1.25,.43-.59-.1-1.08-.51-1.48-.95-.26-.29-.49-.59-.69-.92,.3-.76,.79-1.44,1.43-1.95,.41-.32,.86-.58,1.25-.92,.88-.77,1.34-2,1.21-3.17,1.19-.36,2.5-.32,3.66,.14,.54,.22,1.88,1.07,1.3,1.08-1.91,.02-4.05,1.66-4.05,1.66,.19-.07,.39-.12,.58-.16-.19,.55-.07,1.2,.33,1.63,.35,.38,.9,.6,1.15,1.05,.21,.37,.17,.86-.06,1.2-.24,.35-.66,.56-1.09,.55-.53-.01-1.06-.34-1.58-.2-.21,.06-.39,.18-.55,.32-.05,.05-.11,.1-.16,.15"/>
      <circle class="cls-39" cx="84.88" cy="8.45" r=".24"/>
      <circle class="cls-39" cx="98.11" cy="10.16" r=".24"/>
      <circle class="cls-39" cx="94.16" cy="8.67" r=".24"/>
      <circle class="cls-39" cx="98.8" cy="15.94" r=".24"/>
      <circle class="cls-61" cx="93.5" cy="13.75" r=".57"/>
      <g>
        <circle class="cls-61" cx="93.51" cy="10.77" r=".49"/>
        <circle class="cls-61" cx="92.59" cy="11.23" r=".25"/>
      </g>
      <circle class="cls-61" cx="90.25" cy="14.16" r=".46"/>
      <path class="cls-31" d="M97.37,9.84c-.62-.23-1.31-.34-1.97-.39-.89-.07-1.82-.08-2.66,.21"/>
      <path class="cls-31" d="M98.46,15.22c-.28-.6-.66-1.16-1.26-1.38h0c.34,.1,.7,.17,1.05,.14s.71-.17,.93-.44c.26-.31,.32-.74,.28-1.15-.06-.61-.32-1.2-.73-1.66"/>
      <path class="cls-31" d="M85.65,8.62c.46-1.44,1.63-2.64,3.05-3.15,.44-.16,.91-.25,1.36-.17,.23,.04,.46,.13,.65,.26,.3,.2,.35,.63,.13,.92h0"/>
      <path class="cls-31" d="M90.35,7.48c1.48-1.01,3.46-1.22,5.12-.56,.54,.21,1.07,.55,1.3,1.08,0,0-.98,.1-1.81,.35"/>
      <path class="cls-1" d="M79.91,10.95s.72-1.71,3.19-2.05"/>
      <circle class="cls-42" cx="83.96" cy="8.79" r=".26"/>
      <path class="cls-31" d="M84.07,8.42c-.63,0-1.11,.08-1.72,.25-.83,.24-1.7,.66-2.28,1.31-.22,.24-.38,.52-.51,.82"/>
      <g>
        <circle class="cls-42" cx="81.81" cy="9.68" r=".28"/>
        <circle class="cls-44" cx="81.44" cy="10.31" r=".16"/>
        <circle class="cls-44" cx="82.62" cy="9.81" r=".19"/>
        <circle class="cls-46" cx="82.04" cy="10.24" r=".13"/>
      </g>
      <circle class="cls-44" cx="81.28" cy="16.43" r=".19"/>
      <g>
        <path class="cls-39" d="M81.89,14.4s-.04,0-.06-.01c-.08-.03-.11-.12-.08-.19,0,0,0,0,0,0l.79-1.93c.03-.08,.12-.11,.19-.08,.08,.03,.11,.12,.08,.19l-.79,1.93c-.02,.06-.08,.1-.14,.1Z"/>
        <path class="cls-39" d="M82.97,13.46s-.04,0-.06-.01c-.08-.03-.11-.12-.08-.19,0,0,0,0,0,0l.42-1.03c.03-.08,.12-.11,.19-.08,.08,.03,.11,.12,.08,.19l-.43,1.03c-.02,.06-.08,.1-.14,.1Z"/>
      </g>
      <path class="cls-34" d="M82.25,31.95c-1.17-1.37-1.89-3.14-1.95-5.08l-.07-6.97"/>
      <g>
        <path class="cls-42" d="M82.55,25.13h8.96v.88c0,2.47-2.01,4.48-4.48,4.48h0c-2.47,0-4.48-2.01-4.48-4.48v-.88h0Z" transform="translate(-.09 .29) rotate(-.19)"/>
        <path class="cls-3" d="M82.55,25.13h8.96v.88c0,2.47-2.01,4.48-4.48,4.48h0c-2.47,0-4.48-2.01-4.48-4.48v-.88h0Z" transform="translate(-.09 .29) rotate(-.19)"/>
      </g>
      <line class="cls-42" x1="79.87" y1="21.5" x2="79.91" y2="25.18"/>
      <path class="cls-31" d="M79.28,11.85c-.06,.41-.02,.92,.36,1.1,.19,.09,.41,.06,.62,.05,.06,0,.12,0,.17,.03,.16,.09,.11,.33,.04,.5-.29,.76-.41,1.59-.34,2.4,.02,.23,.06,.47,.19,.66,.26,.36,.78,.42,1.22,.33,1.12-.23,2-1.26,2.13-2.38"/>
      <path class="cls-2" d="M91.96,14.91s.78,1.42,2.03,1.44c0,0,.27,1.5,.95,2.1"/>
      <path class="cls-31" d="M91.95,14.21c.45,.85,1.22,1.53,2.12,1.86,.07,.02,.14,.05,.19,.09,.07,.06,.1,.16,.13,.25,.45,1.34,1.34,2.53,2.5,3.34,.38,.26,.84,.49,1.28,.38,.39-.1,.67-.44,.83-.8,.37-.82,.28-1.74,.02-2.63"/>
      <path class="cls-2" d="M87.31,12.06s1.03,2.88,3.13,2.91"/>
      <path class="cls-2" d="M84.52,14.76s1.7,.52,2.61-2.6"/>
      <path class="cls-31" d="M84.36,14.44c.36,.11,.74,.12,1.08-.04,.52-.24,.8-.79,1.05-1.3,.27-.54,.53-1.09,.8-1.63,.28,.83,.73,1.61,1.32,2.27,.4,.44,.89,.85,1.48,.95,.46,.08,.97-.09,1.25-.43"/>
      <path class="cls-2" d="M95.06,19.36l-.3,3.24s-.14,1.3,.95,.97"/>
      <path class="cls-11" d="M95.37,19.25l-.29,3.15c-.04,.44,.28,.82,.72,.86h0c.44,.04,.82-.28,.86-.72l-.11-2.83"/>
      <circle class="cls-39" cx="82.77" cy="32.52" r=".24"/>
      <circle class="cls-39" cx="54.23" cy="49.95" r=".24"/>
      <g>
        <rect class="cls-39" x="84.21" y="21.91" width="1.22" height="2.24" rx=".61" ry=".61"/>
        <circle class="cls-42" cx="84.57" cy="22.57" r=".2"/>
      </g>
      <g>
        <rect class="cls-39" x="87.36" y="21.91" width="1.22" height="2.24" rx=".61" ry=".61"/>
        <circle class="cls-42" cx="87.76" cy="22.57" r=".2"/>
      </g>
      <line class="cls-2" x1="87.94" y1="21.07" x2="90.34" y2="21.48"/>
      <line class="cls-2" x1="85.05" y1="21.05" x2="82.66" y2="21.46"/>
      <g>
        <g>
          <g>
            <rect class="cls-74" x="87.36" y="19.7" width="3.81" height="1.36" rx=".68" ry=".68" transform="translate(4.52 -14.29) rotate(9.39)"/>
            <path class="cls-62" d="M91.18,20.66c-.06,.37-.41,.62-.78,.56l-2.42-.4c-.37-.06-.62-.41-.56-.78,.02-.1,.06-.2,.12-.28,.06,.25,.27,.44,.53,.48l2.42,.4c.27,.04,.52-.08,.66-.29,.03,.09,.04,.2,.02,.3Z"/>
            <rect class="cls-11" x="87.36" y="19.7" width="3.81" height="1.36" rx=".68" ry=".68" transform="translate(4.52 -14.29) rotate(9.39)"/>
          </g>
          <g>
            <circle class="cls-61" cx="90.06" cy="20.73" r=".2"/>
            <circle class="cls-61" cx="89.81" cy="20.39" r=".1"/>
          </g>
        </g>
        <g>
          <g>
            <rect class="cls-74" x="81.82" y="19.7" width="3.81" height="1.36" rx=".68" ry=".68" transform="translate(169.65 26.83) rotate(170.61)"/>
            <path class="cls-62" d="M81.8,20.66c.06,.37,.41,.62,.78,.56l2.42-.4c.37-.06,.62-.41,.56-.78-.02-.1-.06-.2-.12-.28-.06,.25-.27,.44-.53,.48l-2.42,.4c-.27,.04-.52-.08-.66-.29-.03,.09-.04,.2-.02,.3Z"/>
            <rect class="cls-11" x="81.82" y="19.7" width="3.81" height="1.36" rx=".68" ry=".68" transform="translate(169.65 26.83) rotate(170.61)"/>
          </g>
          <g>
            <circle class="cls-61" cx="82.92" cy="20.73" r=".2"/>
            <circle class="cls-61" cx="83.17" cy="20.39" r=".1"/>
          </g>
        </g>
      </g>
      <line class="cls-3" x1="86.37" y1="23" x2="86.37" y2="25.7"/>
      <g>
        <g>
          <circle class="cls-49" cx="94.12" cy="30.79" r=".54" transform="translate(12.57 86.98) rotate(-52.68)"/>
          <circle class="cls-49" cx="93" cy="30.38" r=".18" transform="translate(12.46 85.92) rotate(-52.68)"/>
          <circle class="cls-49" cx="95.07" cy="29.95" r=".18" transform="translate(13.62 87.4) rotate(-52.68)"/>
          <circle class="cls-49" cx="92.86" cy="31.51" r=".22" transform="translate(11.51 86.25) rotate(-52.68)"/>
        </g>
        <g>
          <circle class="cls-52" cx="94.44" cy="29.65" r=".15" transform="translate(13.61 86.78) rotate(-52.68)"/>
          <circle class="cls-52" cx="93.8" cy="29.75" r=".16" transform="translate(13.27 86.31) rotate(-52.68)"/>
          <circle class="cls-52" cx="93.28" cy="29.33" r=".06" transform="translate(13.4 85.73) rotate(-52.68)"/>
        </g>
      </g>
      <g>
        <rect class="cls-41" x="94.58" y="43.63" width="3.72" height="4.28"/>
        <rect class="cls-10" x="94.58" y="43.63" width="3.72" height="4.28"/>
      </g>
      <g>
        <path class="cls-56" d="M98.04,45.51l-3.34,.9c-.49,.13-1-.16-1.13-.65l-1.34-4.46c-.38-1.41,.45-2.87,1.87-3.25h0c1.41-.38,2.87,.45,3.25,1.87l1.34,4.46c.13,.49-.16,1-.65,1.13Z"/>
        <path class="cls-53" d="M97.3,39.93l1.34,4.46c.13,.5-.16,1-.65,1.13l-1.2,.32c.49-.13,.78-.64,.65-1.13l-1.34-4.46c-.19-.71-.65-1.27-1.24-1.6-.41-.24-.9-.37-1.39-.35,.18-.1,.38-.18,.58-.23,.71-.19,1.43-.08,2.01,.26,.59,.34,1.05,.9,1.24,1.6Z"/>
        <path class="cls-24" d="M94.09,38.05h0c1.41-.38,2.87,.45,3.25,1.87l1.34,4.46c.13,.49-.16,1-.65,1.13l-3.34,.9c-.49,.13-1-.16-1.13-.65"/>
        <g>
          <g>
            <circle class="cls-53" cx="96.49" cy="41.57" r=".56" transform="translate(-6.36 20.13) rotate(-11.53)"/>
            <circle class="cls-53" cx="95.24" cy="41.45" r=".19" transform="translate(-6.36 19.88) rotate(-11.53)"/>
            <circle class="cls-53" cx="96.99" cy="42.79" r=".19" transform="translate(-6.6 20.25) rotate(-11.53)"/>
            <circle class="cls-53" cx="95.62" cy="40.33" r=".23" transform="translate(-6.13 19.93) rotate(-11.53)"/>
          </g>
          <g>
            <circle class="cls-54" cx="96.27" cy="42.78" r=".16" transform="translate(-6.61 20.11) rotate(-11.53)"/>
            <circle class="cls-54" cx="95.71" cy="42.4" r=".17" transform="translate(-6.54 19.99) rotate(-11.53)"/>
            <circle class="cls-54" cx="95.03" cy="42.56" r=".06" transform="translate(-6.59 19.86) rotate(-11.53)"/>
          </g>
        </g>
      </g>
      <g>
        <line class="cls-7" x1="49.05" y1="18.27" x2="49.05" y2="21.87"/>
        <line class="cls-7" x1="49.71" y1="20.86" x2="49.71" y2="22.64"/>
      </g>
      <g>
        <line class="cls-7" x1="105.13" y1="39.59" x2="105.13" y2="43.2"/>
        <line class="cls-7" x1="105.79" y1="42.19" x2="105.79" y2="43.96"/>
      </g>
      <line class="cls-7" x1="107.71" y1="10.48" x2="107.71" y2="14.08"/>
    </g>
  </g>
</svg>