<?xml version="1.0" encoding="UTF-8"?>
<svg id="Layer_2" data-name="Layer 2" xmlns="http://www.w3.org/2000/svg" viewBox="0 0 464.62 285.02">
  <defs>
    <style>
      .cls-1, .cls-2, .cls-3, .cls-4, .cls-5, .cls-6, .cls-7, .cls-8, .cls-9, .cls-10, .cls-11, .cls-12, .cls-13, .cls-14, .cls-15, .cls-16, .cls-17, .cls-18, .cls-19, .cls-20, .cls-21, .cls-22, .cls-23, .cls-24, .cls-25, .cls-26, .cls-27, .cls-28, .cls-29, .cls-30, .cls-31, .cls-32, .cls-33, .cls-34, .cls-35, .cls-36, .cls-37, .cls-38, .cls-39, .cls-40, .cls-41, .cls-42, .cls-43, .cls-44, .cls-45, .cls-46, .cls-47, .cls-48, .cls-49, .cls-50, .cls-51, .cls-52, .cls-53, .cls-54, .cls-55, .cls-56 {
        fill: none;
      }

      .cls-2 {
        stroke-width: 1.48px;
      }

      .cls-2, .cls-3, .cls-4, .cls-5, .cls-6, .cls-7, .cls-8, .cls-9, .cls-10, .cls-11, .cls-12, .cls-13, .cls-14, .cls-15, .cls-16, .cls-17, .cls-18, .cls-19, .cls-20, .cls-21, .cls-22, .cls-23, .cls-24, .cls-26, .cls-27, .cls-28, .cls-29, .cls-30, .cls-31, .cls-32, .cls-33, .cls-34, .cls-35, .cls-36, .cls-37, .cls-38, .cls-39, .cls-40, .cls-41, .cls-42, .cls-43, .cls-44, .cls-45, .cls-46, .cls-47, .cls-48, .cls-49, .cls-50, .cls-51, .cls-52, .cls-53, .cls-54, .cls-55, .cls-56 {
        stroke-linecap: round;
        stroke-linejoin: round;
      }

      .cls-2, .cls-5, .cls-8, .cls-13, .cls-18, .cls-19, .cls-22, .cls-26, .cls-35, .cls-41, .cls-42, .cls-45, .cls-46, .cls-48, .cls-49, .cls-50, .cls-54, .cls-55 {
        stroke: #000201;
      }

      .cls-3 {
        stroke: #4c404f;
      }

      .cls-3, .cls-43, .cls-53 {
        stroke-width: 3px;
      }

      .cls-4 {
        stroke-width: 1.44px;
      }

      .cls-4, .cls-9, .cls-20, .cls-23, .cls-27, .cls-28, .cls-29, .cls-32, .cls-56 {
        stroke: #fff;
      }

      .cls-5 {
        stroke-width: 1.29px;
      }

      .cls-6, .cls-7 {
        opacity: .52;
      }

      .cls-6, .cls-9, .cls-10, .cls-11, .cls-27 {
        stroke-width: 3.78px;
      }

      .cls-6, .cls-10, .cls-15, .cls-25 {
        stroke: #8080ba;
      }

      .cls-7, .cls-11, .cls-14, .cls-34, .cls-37, .cls-38 {
        stroke: #5ccde9;
      }

      .cls-7, .cls-14, .cls-15, .cls-28 {
        stroke-width: 3.6px;
      }

      .cls-8 {
        stroke-width: 1.43px;
      }

      .cls-57 {
        fill: #f91c46;
      }

      .cls-58 {
        fill: #000201;
      }

      .cls-59 {
        fill: #fff;
      }

      .cls-60 {
        fill: #fcb670;
      }

      .cls-61 {
        fill: #ff3e6c;
      }

      .cls-62 {
        fill: #ff5f85;
      }

      .cls-63 {
        fill: #2ff483;
      }

      .cls-64 {
        fill: #bfe2cf;
      }

      .cls-65 {
        fill: #cacad8;
      }

      .cls-66 {
        fill: #dcf0ff;
      }

      .cls-67 {
        fill: #147ddb;
      }

      .cls-68 {
        fill: #3490f4;
      }

      .cls-69 {
        fill: #6f6372;
      }

      .cls-70 {
        fill: #61ffa1;
      }

      .cls-71 {
        fill: #5ccde9;
      }

      .cls-12 {
        stroke: #e3ffef;
        stroke-width: 5px;
      }

      .cls-13 {
        stroke-width: 1.8px;
      }

      .cls-16 {
        opacity: .73;
        stroke-width: 2px;
      }

      .cls-16, .cls-17, .cls-44, .cls-47 {
        stroke: #d17828;
      }

      .cls-17, .cls-47 {
        stroke-width: 4.89px;
      }

      .cls-18 {
        stroke-width: 1.04px;
      }

      .cls-19 {
        stroke-width: 1.02px;
      }

      .cls-20, .cls-31 {
        stroke-width: 4px;
      }

      .cls-21 {
        stroke: #9d9dc6;
        stroke-width: 2.07px;
      }

      .cls-22 {
        stroke-width: .94px;
      }

      .cls-23, .cls-24 {
        stroke-width: 5.45px;
      }

      .cls-24, .cls-33 {
        stroke: #e4e4ef;
      }

      .cls-25 {
        stroke-miterlimit: 10;
        stroke-width: 3.98px;
      }

      .cls-26, .cls-34 {
        stroke-width: .98px;
      }

      .cls-27, .cls-28 {
        opacity: .53;
      }

      .cls-29 {
        stroke-width: 2.74px;
      }

      .cls-30 {
        stroke-width: 1.94px;
      }

      .cls-30, .cls-36 {
        stroke: #b70034;
      }

      .cls-31 {
        stroke: #87cca5;
      }

      .cls-32, .cls-33 {
        stroke-width: 5.71px;
      }

      .cls-35 {
        stroke-width: 1.75px;
      }

      .cls-36 {
        stroke-width: 2.13px;
      }

      .cls-37 {
        stroke-width: 2.77px;
      }

      .cls-38 {
        stroke-width: 1.95px;
      }

      .cls-39, .cls-40 {
        stroke-width: 7.01px;
      }

      .cls-39, .cls-51 {
        stroke: #ffc68d;
      }

      .cls-40, .cls-52 {
        stroke: #ffe1c5;
      }

      .cls-41 {
        stroke-width: 1.3px;
      }

      .cls-42 {
        stroke-width: 1.32px;
      }

      .cls-43 {
        opacity: .6;
      }

      .cls-43, .cls-53 {
        stroke: #06cc56;
      }

      .cls-44 {
        stroke-width: 3.48px;
      }

      .cls-45 {
        stroke-width: 1.62px;
      }

      .cls-46 {
        stroke-width: .85px;
      }

      .cls-47 {
        opacity: .62;
      }

      .cls-48 {
        stroke-width: 1.7px;
      }

      .cls-49 {
        stroke-width: 1.54px;
      }

      .cls-50 {
        stroke-width: 1.51px;
      }

      .cls-51, .cls-52 {
        stroke-width: 3.67px;
      }

      .cls-72 {
        fill: #b70034;
        opacity: .49;
      }

      .cls-54 {
        stroke-width: 1.51px;
      }

      .cls-55 {
        stroke-width: 1.49px;
      }

      .cls-56 {
        stroke-width: 6px;
      }
    </style>
  </defs>
  <g id="Layer_2-2" data-name="Layer 2">
    <g>
      <g>
        <g>
          <polygon class="cls-66" points="276.85 216.85 276.85 270.61 249.19 277.23 225.78 272.04 215.97 270.32 215.83 270.51 190.56 277.78 190.56 223.75 216.29 218.35 218.68 218.35 248.27 222.83 250.66 222.64 276.85 216.85"/>
          <path class="cls-68" d="M212.81,271.08l-21.87,6.29v-22.91c3.88-.54,21.84-2.03,21.87,16.62Z"/>
          <path class="cls-67" d="M206.99,273.49l-15.98,4.6v-16.74c2.83-.39,15.96-1.48,15.98,12.14Z"/>
          <polyline class="cls-38" points="213.9 270.59 217.3 269.6 248.41 276.45"/>
          <path class="cls-71" d="M233.77,258.5c-.22,.87-.42,1.58-.57,2.12-.21,.75-.77,1.35-1.51,1.6-.24,.08-.49,.12-.74,.12-.51,0-1.02-.17-1.44-.49-4.74-3.67-25.41-20.07-38.59-37.05v-.68l5.18-1.08c13.2,16.29,32.52,31.62,37.08,35.15,.18,.14,.37,.24,.58,.32Z"/>
          <line class="cls-1" x1="218.77" y1="270.52" x2="247.9" y2="276.86"/>
          <polyline class="cls-5" points="215.83 270.89 190.56 278.15 190.56 224.11 216.29 216.76"/>
          <line class="cls-5" x1="218.77" y1="270.89" x2="247.9" y2="277.23"/>
          <line class="cls-5" x1="217.39" y1="220.07" x2="217.39" y2="268.59"/>
          <line class="cls-4" x1="276.85" y1="218.32" x2="251.67" y2="223.93"/>
          <path class="cls-5" d="M190.56,254.99s22.61-4.41,22.61,16.54"/>
          <polyline class="cls-26" points="276.93 224.1 259.99 244.64 250.66 245.61 245.79 245.61 245.79 276.45"/>
          <path class="cls-26" d="M217.39,263.63c1.1,.14,27.73,5.83,27.73,5.83"/>
          <path class="cls-26" d="M217.39,247.34c1.1,.14,28.4,5.57,28.4,5.57"/>
          <polyline class="cls-26" points="250.66 231.27 262.61 228.75 262.61 220.56"/>
          <polygon class="cls-63" points="277.35 270.2 260.11 274.49 259.99 257.92 277.27 238.04 277.35 270.2"/>
          <line class="cls-5" x1="218.68" y1="216.76" x2="248.27" y2="223.19"/>
          <path class="cls-61" d="M204.57,163.11c15.5-5.17,33.03,5.51,38.21,21.01,7.14,21.39-4.15,64.7-6.27,72.45-.21,.75-.77,1.35-1.52,1.6h0c-.74,.25-1.55,.11-2.17-.37-6.36-4.92-41.4-32.77-48.54-54.16-5.17-15.5,2.43-34.57,17.93-39.75"/>
          <path class="cls-72" d="M236.34,256.4c-.21,.76-.77,1.34-1.51,1.59l-34.39-93.65c.52-.23,1.06-.43,1.61-.61l2.36-.79c15.5-5.18,33.03,5.51,38.21,21.01,7.14,21.39-4.14,64.7-6.27,72.45Z"/>
          <circle class="cls-59" cx="213.61" cy="194.11" r="19.87"/>
          <path class="cls-37" d="M195.79,200.06c-3.29-9.84,2.03-20.49,11.87-23.77,9.84-3.29,20.49,2.03,23.77,11.87"/>
          <path class="cls-30" d="M240.05,235.76c-1.74,8.97-3.64,16.15-4.36,18.79-.19,.68-.37,2.24-1.04,2.46h0c-.67,.22-1.75-.91-2.31-1.34-2.26-1.75-8.53-6.71-15.71-13.25"/>
          <path class="cls-36" d="M230.01,208.27c-2.51,2.47-5.46,4.79-9.33,6.08-3.53,1.18-7.14,1.49-10.61,1.04"/>
          <circle class="cls-58" cx="205.95" cy="233.92" r=".83"/>
          <circle class="cls-58" cx="186.92" cy="209.78" r=".83"/>
          <circle class="cls-58" cx="232.22" cy="201.58" r=".83"/>
          <path class="cls-36" d="M195.26,183.81c2.3-4.37,6.23-7.89,11.28-9.58"/>
          <path class="cls-2" d="M230.35,204.83c-2.36,3.7-5.96,6.64-10.45,8.14-10.41,3.48-21.67-2.15-25.14-12.56-1.17-3.5-1.31-7.09-.59-10.45"/>
          <path class="cls-36" d="M243.55,210.06c-.52,7.12-1.56,14.38-2.75,21"/>
          <path class="cls-29" d="M184.1,191.19s.44-12.95,9.83-21.27"/>
          <path class="cls-29" d="M203.84,230.21c-3.73-3.93-7.33-8.05-10.44-12.19"/>
          <path class="cls-2" d="M204.57,163.11c15.5-5.17,33.03,5.51,38.21,21.01,7.14,21.39-4.15,64.7-6.27,72.45-.21,.75-.77,1.35-1.52,1.6h0c-.74,.25-1.55,.11-2.17-.37-3.28-2.54-14.16-11.15-24.92-21.84"/>
          <path class="cls-2" d="M185.75,207.31c-.57-1.24-1.06-2.46-1.46-3.66-5.17-15.5,2.43-34.57,17.93-39.75"/>
          <path class="cls-2" d="M203.71,231.69c-5.84-6.15-11.34-12.76-15.2-19.18"/>
          <path class="cls-2" d="M196.03,184.84c2.3-4.37,6.23-7.89,11.28-9.58,10.41-3.48,21.67,2.15,25.14,12.56,1.11,3.32,1.29,6.72,.69,9.93"/>
          <line class="cls-5" x1="277.26" y1="220.98" x2="277.26" y2="271.99"/>
          <line class="cls-34" x1="249.6" y1="222.76" x2="249.6" y2="276.99"/>
          <polyline class="cls-26" points="276.94 237.71 260.03 257.84 260.03 274.44"/>
          <polyline class="cls-5" points="276.85 270.98 250.66 276.77 250.66 223.01 276.85 217.22"/>
          <line class="cls-46" x1="277.35" y1="259.81" x2="260.1" y2="263.63"/>
          <line class="cls-46" x1="266.74" y1="262.45" x2="266.74" y2="272.72"/>
          <path class="cls-26" d="M190.94,238.04h6.79c0,6.54,5.3,9.88,11.83,9.88h1.58v7.17h6.25"/>
        </g>
        <g>
          <circle class="cls-63" cx="253.51" cy="183.81" r="23.15"/>
          <g>
            <circle class="cls-70" cx="244.18" cy="170.44" r="3.06"/>
            <circle class="cls-70" cx="248.49" cy="175.11" r="1.66"/>
          </g>
          <polyline class="cls-20" points="245.02 184.57 252.17 190.97 262 178.65"/>
          <circle class="cls-58" cx="235.14" cy="169.82" r="1"/>
          <path class="cls-53" d="M257.73,205.21s9.18-1.01,14.82-10.82"/>
          <path class="cls-53" d="M275.47,184.22s-.24,3.01-.85,4.75"/>
          <path class="cls-43" d="M249.84,204.91s-2.97-.56-4.63-1.35"/>
          <path class="cls-13" d="M237.21,167.37c4.18-4.15,9.94-6.71,16.3-6.71,12.79,0,23.15,10.37,23.15,23.15s-10.37,23.15-23.15,23.15-23.15-10.37-23.15-23.15c0-4.12,1.08-7.99,2.96-11.34"/>
        </g>
      </g>
      <line class="cls-39" x1="383.39" y1="171.1" x2="393.31" y2="171.1"/>
      <polygon class="cls-57" points="355.05 167.31 355.5 190.06 384.63 190.06 384.63 167.4 355.05 167.31"/>
      <polyline class="cls-49" points="355.85 168.23 355.85 190.06 384.99 190.06 384.99 168.39"/>
      <g>
        <circle class="cls-62" cx="364.49" cy="176.12" r="3.06"/>
        <circle class="cls-62" cx="368.8" cy="180.79" r="1.66"/>
      </g>
      <rect class="cls-60" x="353.58" y="167.4" width="72.6" height="67.31"/>
      <line class="cls-40" x1="364.99" y1="170.81" x2="388.92" y2="170.81"/>
      <line class="cls-39" x1="402.55" y1="171.01" x2="412.47" y2="171.01"/>
      <line class="cls-44" x1="365.91" y1="232.14" x2="413.2" y2="232.14"/>
      <polygon class="cls-57" points="374.2 167.22 374.65 189.96 389.66 183.82 403.78 189.96 403.78 167.31 374.2 167.22"/>
      <polyline class="cls-49" points="375.01 168.14 375.01 189.96 389.37 183.63 404.14 189.96 404.14 168.29"/>
      <polyline class="cls-13" points="353.58 182.18 353.58 167.4 379.51 167.4"/>
      <g>
        <circle class="cls-62" cx="384.01" cy="174.08" r="3.06"/>
        <circle class="cls-62" cx="388.32" cy="178.75" r="1.66"/>
      </g>
      <polyline class="cls-13" points="388.58 167.4 426.17 167.4 426.17 234.71 353.58 234.71 353.58 193.89"/>
      <g>
        <line class="cls-18" x1="414.85" y1="214.92" x2="413.16" y2="220.8"/>
        <line class="cls-18" x1="418.64" y1="213.17" x2="415.29" y2="224.84"/>
      </g>
      <line class="cls-13" x1="353.56" y1="186.37" x2="353.56" y2="189.27"/>
      <rect class="cls-59" x="360.06" y="209.28" width="28.24" height="16.24"/>
      <rect class="cls-49" x="360.06" y="209" width="28.24" height="16.24"/>
      <g>
        <line class="cls-22" x1="364.9" y1="214.03" x2="381.75" y2="214.03"/>
        <line class="cls-22" x1="364.9" y1="217.47" x2="377.7" y2="217.47"/>
        <line class="cls-22" x1="364.9" y1="220.9" x2="372.48" y2="220.9"/>
      </g>
      <polygon class="cls-64" points="403.01 121.36 372.75 121.36 375.75 99.99 400.01 99.99 403.01 121.36"/>
      <line class="cls-31" x1="393.61" y1="106.94" x2="381.3" y2="106.94"/>
      <rect class="cls-60" x="24.18" y="53.23" width="38" height="35.23"/>
      <line class="cls-52" x1="30.15" y1="55.02" x2="42.68" y2="55.02"/>
      <line class="cls-51" x1="49.81" y1="55.12" x2="55" y2="55.12"/>
      <line class="cls-17" x1="30.63" y1="85.9" x2="55.38" y2="85.9"/>
      <polygon class="cls-57" points="34.97 53.14 35.21 65.04 50.46 65.04 50.46 53.18 34.97 53.14"/>
      <polyline class="cls-13" points="35.4 53.62 35.4 65.04 50.64 65.04 50.64 53.7"/>
      <polyline class="cls-13" points="24.18 60.97 24.18 53.23 37.75 53.23"/>
      <g>
        <line class="cls-47" x1="60.06" y1="64.52" x2="60.06" y2="76.2"/>
        <line class="cls-47" x1="60.06" y1="69.61" x2="60.06" y2="71.68"/>
      </g>
      <g>
        <circle class="cls-62" cx="39.91" cy="57.75" r="1.6"/>
        <circle class="cls-62" cx="42.17" cy="60.2" r=".87"/>
      </g>
      <polyline class="cls-16" points="24.24 71.4 32.43 71.4 36.95 75.91 47.54 75.91"/>
      <polyline class="cls-13" points="42.5 53.23 62.17 53.23 62.17 88.46 24.18 88.46 24.18 67.1"/>
      <rect class="cls-60" x="84.79" y="53.23" width="38" height="35.23"/>
      <line class="cls-51" x1="90.76" y1="55.02" x2="103.29" y2="55.02"/>
      <line class="cls-51" x1="110.42" y1="55.12" x2="115.61" y2="55.12"/>
      <g>
        <line class="cls-47" x1="121.09" y1="64.52" x2="121.09" y2="76.2"/>
        <line class="cls-47" x1="121.09" y1="69.61" x2="121.09" y2="71.68"/>
      </g>
      <g>
        <polygon class="cls-57" points="93.89 53.14 94.13 65.04 109.37 65.04 109.37 53.18 93.89 53.14"/>
        <polyline class="cls-13" points="94.31 53.62 94.31 65.04 109.56 65.04 109.56 53.18"/>
      </g>
      <line class="cls-17" x1="91.25" y1="85.9" x2="115.99" y2="85.9"/>
      <g>
        <polyline class="cls-65" points="50.28 21.34 61.34 32.4 61.34 44.52 54.28 44.52 54.28 36.3 47.36 29.38 37.6 29.38 30.68 36.3 30.68 44.74 23.62 44.74 23.62 32.4 34.68 21.34"/>
        <g>
          <g>
            <polyline class="cls-13" points="34.68 21.34 23.62 32.4 23.62 44.9 30.68 44.9"/>
            <polyline class="cls-13" points="61.34 44.9 61.34 32.4 50.28 21.34"/>
          </g>
          <g>
            <polyline class="cls-13" points="30.68 44.9 30.68 36.3 37.6 29.38"/>
            <polyline class="cls-13" points="47.36 29.38 54.28 36.3 54.28 44.9 61.34 44.9"/>
          </g>
        </g>
        <rect class="cls-65" x="38.13" y=".9" width="8.75" height="28.1"/>
        <rect class="cls-59" x="38.13" y=".9" width="8.75" height="2.85"/>
        <polyline class="cls-13" points="38.13 8.85 38.13 .9 46.88 .9 46.88 29 38.13 29 38.13 14.69"/>
        <circle class="cls-58" cx="42.49" cy="10.23" r="1.33"/>
        <circle class="cls-58" cx="42.53" cy="20.71" r="1.33"/>
        <circle class="cls-58" cx="42.53" cy="15.47" r="1.33"/>
        <polyline class="cls-21" points="34.8 26.63 27.02 34.28 27.02 41.93"/>
        <polyline class="cls-21" points="49.89 26.63 57.67 34.28 57.67 41.93"/>
      </g>
      <g>
        <polyline class="cls-65" points="110.63 21.34 121.69 32.4 121.69 44.52 114.63 44.52 114.63 36.3 107.71 29.38 97.95 29.38 91.03 36.3 91.03 44.74 83.96 44.74 83.96 32.4 95.03 21.34"/>
        <g>
          <g>
            <polyline class="cls-13" points="95.03 21.34 83.96 32.4 83.96 44.9 91.03 44.9"/>
            <polyline class="cls-13" points="121.69 44.9 121.69 32.4 110.63 21.34"/>
          </g>
          <g>
            <polyline class="cls-13" points="91.03 44.9 91.03 36.3 97.95 29.38"/>
            <polyline class="cls-13" points="107.71 29.38 114.63 36.3 114.63 44.9 121.69 44.9"/>
          </g>
        </g>
        <rect class="cls-65" x="98.48" y=".9" width="8.75" height="28.1"/>
        <rect class="cls-59" x="98.48" y=".9" width="8.75" height="2.85"/>
        <polyline class="cls-13" points="98.48 8.85 98.48 .9 107.23 .9 107.23 29 98.48 29 98.48 14.69"/>
        <circle class="cls-58" cx="102.84" cy="10.23" r="1.33"/>
        <circle class="cls-58" cx="102.88" cy="20.71" r="1.33"/>
        <circle class="cls-58" cx="102.88" cy="15.47" r="1.33"/>
        <polyline class="cls-21" points="95.15 26.63 87.37 34.28 87.37 41.93"/>
        <polyline class="cls-21" points="110.24 26.63 118.02 34.28 118.02 41.93"/>
      </g>
      <g>
        <circle class="cls-62" cx="98.64" cy="57.75" r="1.6"/>
        <circle class="cls-62" cx="100.9" cy="60.2" r=".87"/>
      </g>
      <polyline class="cls-13" points="84.79 64.97 84.79 53.23 98.36 53.23"/>
      <polyline class="cls-16" points="85.67 71.4 92.86 71.4 97.37 75.91 107.96 75.91"/>
      <polyline class="cls-13" points="103.11 53.23 122.79 53.23 122.79 88.46 84.79 88.46 84.79 70.1"/>
      <rect class="cls-65" x=".9" y="87.23" width="147.02" height="38.21" rx="19.1" ry="19.1"/>
      <rect class="cls-25" x="2.6" y="88.83" width="143.63" height="35.55" rx="17.53" ry="17.53"/>
      <path class="cls-13" d="M77.47,87.23h51.35c10.55,0,19.1,8.55,19.1,19.1h0c0,10.55-8.55,19.1-19.1,19.1H20c-10.55,0-19.1-8.55-19.1-19.1H.9c0-10.55,8.55-19.1,19.1-19.1h15.49"/>
      <rect class="cls-69" x="8.75" y="93.87" width="131.33" height="24.36" rx="12.18" ry="12.18"/>
      <rect class="cls-69" x="9.03" y="93.87" width="131.33" height="24.36" rx="12.18" ry="12.18"/>
      <line class="cls-3" x1="47.73" y1="117.14" x2="64" y2="117.14"/>
      <line class="cls-3" x1="20.71" y1="117.14" x2="33" y2="117.23"/>
      <line class="cls-3" x1="115.96" y1="117.14" x2="128.24" y2="117.23"/>
      <line class="cls-3" x1="93.09" y1="117.14" x2="114.02" y2="117.14"/>
      <line class="cls-3" x1="90.41" y1="95.96" x2="102.46" y2="95.96"/>
      <line class="cls-3" x1="47.77" y1="95.96" x2="59.82" y2="95.96"/>
      <rect class="cls-13" x="8.75" y="94.16" width="131.33" height="24.36" rx="12.18" ry="12.18"/>
      <circle class="cls-65" cx="35.39" cy="106.24" r="11.37"/>
      <path class="cls-35" d="M24.02,106.05c0-6.28,5.09-11.37,11.37-11.37s11.37,5.09,11.37,11.37-5.09,11.37-11.37,11.37c-4.8,0-8.91-2.98-10.57-7.19"/>
      <circle class="cls-59" cx="35.39" cy="106.15" r="5.27"/>
      <circle class="cls-35" cx="35.34" cy="106.04" r="5.27"/>
      <g>
        <circle class="cls-65" cx="117.64" cy="106.24" r="11.37"/>
        <circle class="cls-35" cx="117.64" cy="106.05" r="11.37"/>
        <g>
          <circle class="cls-59" cx="117.64" cy="106.15" r="5.27"/>
          <circle class="cls-35" cx="117.64" cy="106.05" r="5.27"/>
        </g>
      </g>
      <circle class="cls-65" cx="76.51" cy="106.24" r="11.37"/>
      <circle class="cls-35" cx="76.51" cy="106.05" r="11.37"/>
      <circle class="cls-59" cx="76.51" cy="106.15" r="5.27"/>
      <path class="cls-35" d="M76.51,100.78c2.91,0,5.27,2.36,5.27,5.27s-2.36,5.27-5.27,5.27-5.27-2.36-5.27-5.27"/>
      <g>
        <path class="cls-59" d="M29.01,103.7c.03-.14,.07-.28,.12-.42,.02-.07,.05-.14,.07-.21,.02-.05,.15-.37,.04-.1s0-.01,.03-.07c.03-.07,.07-.14,.1-.21,.07-.14,.15-.28,.23-.42,.09-.15,.19-.3,.29-.44,.05-.07,.1-.13,.15-.2-.09,.14-.18,.23-.03,.04,.22-.27,.46-.52,.71-.75,.13-.12,.27-.24,.4-.35,.25-.21-.28,.2-.02,.01,.07-.05,.15-.11,.22-.16,.31-.21,.64-.4,.97-.57,.09-.04,.17-.09,.26-.13,.06-.03,.12-.05,.18-.08l-.18,.07c.03-.08,.48-.18,.56-.21,.43-.14,.87-.25,1.31-.33,.77-.14,1.28-1.12,1.05-1.85-.27-.83-1.02-1.2-1.85-1.05-3.42,.62-6.7,3.14-7.54,6.62-.18,.76,.24,1.66,1.05,1.85s1.65-.23,1.85-1.05h0Z"/>
        <circle class="cls-59" cx="37.99" cy="97.98" r="1.55"/>
      </g>
      <g>
        <path class="cls-59" d="M111.6,103.7c.03-.14,.07-.28,.12-.42,.02-.07,.05-.14,.07-.21,.02-.05,.15-.37,.04-.1s0-.01,.03-.07c.03-.07,.07-.14,.1-.21,.07-.14,.15-.28,.23-.42,.09-.15,.19-.3,.29-.44,.05-.07,.1-.13,.15-.2-.09,.14-.18,.23-.03,.04,.22-.27,.46-.52,.71-.75,.13-.12,.27-.24,.4-.35,.25-.21-.28,.2-.02,.01,.07-.05,.15-.11,.22-.16,.31-.21,.64-.4,.97-.57,.09-.04,.17-.09,.26-.13,.06-.03,.12-.05,.18-.08l-.18,.07c.03-.08,.48-.18,.56-.21,.43-.14,.87-.25,1.31-.33,.77-.14,1.28-1.12,1.05-1.85-.27-.83-1.02-1.2-1.85-1.05-3.42,.62-6.7,3.14-7.54,6.62-.18,.76,.24,1.66,1.05,1.85s1.65-.23,1.85-1.05h0Z"/>
        <circle class="cls-59" cx="120.57" cy="97.98" r="1.55"/>
      </g>
      <line class="cls-13" x1="43.91" y1="87.23" x2="67.3" y2="87.23"/>
      <circle class="cls-58" cx="35.34" cy="106.04" r="2.13"/>
      <circle class="cls-58" cx="76.38" cy="106.04" r="2.13"/>
      <circle class="cls-58" cx="117.6" cy="106.04" r="2.13"/>
      <circle class="cls-58" cx="71.96" cy="86.85" r="1.33"/>
      <g>
        <rect class="cls-65" x="316.7" y="242.03" width="147.02" height="38.21" rx="19.1" ry="19.1"/>
        <rect class="cls-25" x="318.39" y="243.64" width="143.63" height="35.55" rx="17.53" ry="17.53"/>
        <path class="cls-13" d="M393.27,242.03h51.35c10.55,0,19.1,8.55,19.1,19.1h0c0,10.55-8.55,19.1-19.1,19.1h-108.81c-10.55,0-19.1-8.55-19.1-19.1h0c0-10.55,8.55-19.1,19.1-19.1h15.49"/>
        <rect class="cls-69" x="324.54" y="248.67" width="131.33" height="24.36" rx="12.18" ry="12.18"/>
        <rect class="cls-69" x="324.83" y="248.67" width="131.33" height="24.36" rx="12.18" ry="12.18"/>
        <line class="cls-3" x1="363.52" y1="271.94" x2="379.79" y2="271.94"/>
        <line class="cls-3" x1="336.51" y1="271.94" x2="348.79" y2="272.03"/>
        <line class="cls-3" x1="431.76" y1="271.94" x2="444.04" y2="272.03"/>
        <line class="cls-3" x1="408.89" y1="271.94" x2="429.82" y2="271.94"/>
        <line class="cls-3" x1="406.21" y1="250.76" x2="418.25" y2="250.76"/>
        <line class="cls-3" x1="363.57" y1="250.76" x2="375.62" y2="250.76"/>
        <rect class="cls-13" x="324.54" y="248.96" width="131.33" height="24.36" rx="12.18" ry="12.18"/>
        <circle class="cls-65" cx="351.18" cy="261.04" r="11.37"/>
        <path class="cls-35" d="M339.82,260.85c0-6.28,5.09-11.37,11.37-11.37s11.37,5.09,11.37,11.37-5.09,11.37-11.37,11.37c-4.8,0-8.91-2.98-10.57-7.19"/>
        <circle class="cls-59" cx="351.18" cy="260.95" r="5.27"/>
        <circle class="cls-35" cx="351.14" cy="260.84" r="5.27"/>
        <g>
          <circle class="cls-65" cx="433.44" cy="261.04" r="11.37"/>
          <circle class="cls-35" cx="433.44" cy="260.85" r="11.37"/>
          <g>
            <circle class="cls-59" cx="433.44" cy="260.95" r="5.27"/>
            <circle class="cls-35" cx="433.44" cy="260.85" r="5.27"/>
          </g>
        </g>
        <circle class="cls-65" cx="392.31" cy="261.04" r="11.37"/>
        <circle class="cls-35" cx="392.31" cy="260.85" r="11.37"/>
        <circle class="cls-59" cx="392.31" cy="260.95" r="5.27"/>
        <path class="cls-35" d="M392.31,255.58c2.91,0,5.27,2.36,5.27,5.27s-2.36,5.27-5.27,5.27-5.27-2.36-5.27-5.27"/>
        <g>
          <path class="cls-59" d="M344.81,258.5c.03-.14,.07-.28,.12-.42,.02-.07,.05-.14,.07-.21,.02-.05,.15-.37,.04-.1s0-.01,.03-.07c.03-.07,.07-.14,.1-.21,.07-.14,.15-.28,.23-.42,.09-.15,.19-.3,.29-.44,.05-.07,.1-.13,.15-.2-.09,.14-.18,.23-.03,.04,.22-.27,.46-.52,.71-.75,.13-.12,.27-.24,.4-.35,.25-.21-.28,.2-.02,.01,.07-.05,.15-.11,.22-.16,.31-.21,.64-.4,.97-.57,.09-.04,.17-.09,.26-.13,.06-.03,.12-.05,.18-.08l-.18,.07c.03-.08,.48-.18,.56-.21,.43-.14,.87-.25,1.31-.33,.77-.14,1.28-1.12,1.05-1.85-.27-.83-1.02-1.2-1.85-1.05-3.42,.62-6.7,3.14-7.54,6.62-.18,.76,.24,1.66,1.05,1.85s1.65-.23,1.85-1.05h0Z"/>
          <circle class="cls-59" cx="353.78" cy="252.79" r="1.55"/>
        </g>
        <g>
          <path class="cls-59" d="M427.39,258.5c.03-.14,.07-.28,.12-.42,.02-.07,.05-.14,.07-.21,.02-.05,.15-.37,.04-.1s0-.01,.03-.07c.03-.07,.07-.14,.1-.21,.07-.14,.15-.28,.23-.42,.09-.15,.19-.3,.29-.44,.05-.07,.1-.13,.15-.2-.09,.14-.18,.23-.03,.04,.22-.27,.46-.52,.71-.75,.13-.12,.27-.24,.4-.35,.25-.21-.28,.2-.02,.01,.07-.05,.15-.11,.22-.16,.31-.21,.64-.4,.97-.57,.09-.04,.17-.09,.26-.13,.06-.03,.12-.05,.18-.08l-.18,.07c.03-.08,.48-.18,.56-.21,.43-.14,.87-.25,1.31-.33,.77-.14,1.28-1.12,1.05-1.85-.27-.83-1.02-1.2-1.85-1.05-3.42,.62-6.7,3.14-7.54,6.62-.18,.76,.24,1.66,1.05,1.85s1.65-.23,1.85-1.05h0Z"/>
          <circle class="cls-59" cx="436.37" cy="252.79" r="1.55"/>
        </g>
        <line class="cls-13" x1="359.71" y1="242.03" x2="383.1" y2="242.03"/>
        <circle class="cls-58" cx="351.14" cy="260.84" r="2.13"/>
        <circle class="cls-58" cx="392.18" cy="260.84" r="2.13"/>
        <circle class="cls-58" cx="433.4" cy="260.84" r="2.13"/>
        <circle class="cls-58" cx="387.76" cy="241.66" r="1.33"/>
      </g>
      <rect class="cls-65" x="226.08" y="101.65" width="14.4" height="14.76"/>
      <line class="cls-10" x1="239.51" y1="109.67" x2="227.21" y2="109.67"/>
      <rect class="cls-48" x="226.08" y="102.6" width="14.4" height="14.76"/>
      <rect class="cls-65" x="172.17" y="13.51" width="122.21" height="94.65" rx="7.13" ry="7.13"/>
      <rect class="cls-66" x="179.27" y="20.94" width="108.01" height="80.85" rx="3.11" ry="3.11"/>
      <rect class="cls-65" x="210.51" y="116.6" width="45.54" height="8.53" rx="4.27" ry="4.27"/>
      <g>
        <line class="cls-11" x1="252.3" y1="98.65" x2="265.74" y2="98.65"/>
        <line class="cls-27" x1="257.93" y1="98.65" x2="260.58" y2="98.65"/>
      </g>
      <line class="cls-11" x1="265.63" y1="22.67" x2="274.35" y2="22.67"/>
      <line class="cls-11" x1="276.65" y1="98.65" x2="285.37" y2="98.65"/>
      <line class="cls-11" x1="180.37" y1="98.65" x2="243" y2="98.65"/>
      <g>
        <polygon class="cls-59" points="216.8 101.32 212.66 101.32 227.55 20.67 231.69 20.67 216.8 101.32"/>
        <polygon class="cls-59" points="240.47 101.32 223.09 101.32 237.99 20.67 255.36 20.67 240.47 101.32"/>
      </g>
      <g>
        <line class="cls-8" x1="190.63" y1="31.42" x2="188.32" y2="39.48"/>
        <line class="cls-8" x1="195.82" y1="29.03" x2="191.24" y2="45.02"/>
      </g>
      <line class="cls-48" x1="172.15" y1="49.95" x2="172.15" y2="55.64"/>
      <line class="cls-48" x1="287.22" y1="46.48" x2="287.22" y2="51.23"/>
      <line class="cls-6" x1="250.09" y1="123.27" x2="239.28" y2="123.27"/>
      <g>
        <line class="cls-10" x1="204.81" y1="102.51" x2="194" y2="102.51"/>
        <line class="cls-10" x1="269.06" y1="102.51" x2="258.26" y2="102.51"/>
        <line class="cls-10" x1="246.5" y1="102.51" x2="215.86" y2="102.51"/>
      </g>
      <path class="cls-48" d="M220.05,116.6h31.73c2.36,0,4.27,1.91,4.27,4.27h0c0,2.36-1.91,4.27-4.27,4.27h-37.01c-2.36,0-4.27-1.91-4.27-4.27h0c0-2.36,1.91-4.27,4.27-4.27"/>
      <line class="cls-33" x1="230.01" y1="16.64" x2="207.79" y2="16.64"/>
      <line class="cls-33" x1="248.64" y1="16.64" x2="240.58" y2="16.64"/>
      <line class="cls-33" x1="198.52" y1="16.64" x2="190.46" y2="16.64"/>
      <line class="cls-32" x1="221.98" y1="16.64" x2="215.81" y2="16.64"/>
      <path class="cls-48" d="M172.17,44.26V20.64c0-3.94,3.19-7.13,7.13-7.13h107.96c3.94,0,7.13,3.19,7.13,7.13V101.03c0,3.94-3.19,7.13-7.13,7.13h-107.96c-3.94,0-7.13-3.19-7.13-7.13V60.82"/>
      <path class="cls-48" d="M179.27,34.31v-10.79c0-1.72,1.39-3.11,3.11-3.11h101.79c1.72,0,3.11,1.39,3.11,3.11v17.37"/>
      <line class="cls-48" x1="179.27" y1="68.79" x2="179.27" y2="41.42"/>
      <path class="cls-48" d="M287.28,59.5v38.65c0,1.72-1.39,3.11-3.11,3.11h-101.79c-1.72,0-3.11-1.39-3.11-3.11v-22.9"/>
      <line class="cls-9" x1="175.88" y1="23.29" x2="175.88" y2="42.13"/>
      <polygon class="cls-48" points="403.01 121.36 372.75 121.36 375.75 99.99 400.01 99.99 403.01 121.36"/>
      <line class="cls-48" x1="406.01" y1="121.36" x2="412.75" y2="121.36"/>
      <line class="cls-48" x1="362.95" y1="121.36" x2="369.69" y2="121.36"/>
      <rect class="cls-64" x="325.77" y="12.95" width="122.21" height="91.65" rx="7.13" ry="7.13"/>
      <rect class="cls-66" x="332.87" y="20.38" width="108.01" height="77.85" rx="3.11" ry="3.11"/>
      <line class="cls-11" x1="419.23" y1="22.1" x2="427.95" y2="22.1"/>
      <g>
        <polygon class="cls-59" points="370.4 97.75 366.26 97.75 381.15 20.11 385.29 20.11 370.4 97.75"/>
        <polygon class="cls-59" points="394.07 97.75 376.69 97.75 391.59 20.11 408.96 20.11 394.07 97.75"/>
      </g>
      <line class="cls-48" x1="325.75" y1="49.39" x2="325.75" y2="55.07"/>
      <line class="cls-48" x1="440.82" y1="45.92" x2="440.82" y2="50.66"/>
      <line class="cls-48" x1="440.82" y1="55.33" x2="440.82" y2="77.08"/>
      <line class="cls-12" x1="383.61" y1="16.08" x2="361.39" y2="16.08"/>
      <line class="cls-12" x1="402.24" y1="16.08" x2="394.18" y2="16.08"/>
      <line class="cls-12" x1="352.12" y1="16.08" x2="344.06" y2="16.08"/>
      <line class="cls-32" x1="375.58" y1="16.08" x2="369.41" y2="16.08"/>
      <path class="cls-48" d="M325.77,43.7V20.08c0-3.94,3.19-7.13,7.13-7.13h107.96c3.94,0,7.13,3.19,7.13,7.13V97.47c0,3.94-3.19,7.13-7.13,7.13h-107.96c-3.94,0-7.13-3.19-7.13-7.13V60.25"/>
      <path class="cls-48" d="M332.87,33.74v-10.79c0-1.72,1.39-3.11,3.11-3.11h101.79c1.72,0,3.11,1.39,3.11,3.11v17.37"/>
      <line class="cls-48" x1="332.87" y1="77.23" x2="332.87" y2="40.85"/>
      <path class="cls-64" d="M441.16,82.69v12.71c0,1.78-1.4,3.22-3.14,3.22h-102.74c-1.74,0-3.14-1.44-3.14-3.22v-12.71h109.01Z"/>
      <g>
        <line class="cls-31" x1="429.28" y1="85.1" x2="416.98" y2="85.1"/>
        <line class="cls-31" x1="405.94" y1="85.1" x2="363.63" y2="85.1"/>
      </g>
      <line class="cls-31" x1="351.14" y1="85.21" x2="338.83" y2="85.21"/>
      <g>
        <ellipse class="cls-59" cx="387.96" cy="93.42" rx="3.95" ry="3.72"/>
        <circle class="cls-48" cx="387.96" cy="93.09" r="4.39"/>
      </g>
      <g>
        <line class="cls-11" x1="341.95" y1="79.96" x2="355.39" y2="79.96"/>
        <line class="cls-27" x1="347.58" y1="79.96" x2="350.23" y2="79.96"/>
      </g>
      <line class="cls-11" x1="405.18" y1="79.74" x2="432.9" y2="79.74"/>
      <line class="cls-48" x1="333.47" y1="82.41" x2="439.95" y2="82.41"/>
      <line class="cls-9" x1="329.34" y1="30.21" x2="329.34" y2="49.05"/>
      <line class="cls-41" x1="374.22" y1="116.01" x2="381.93" y2="116.01"/>
      <line class="cls-41" x1="385.07" y1="116.01" x2="387.77" y2="116.01"/>
      <g>
        <rect class="cls-57" x="210.17" y="60.44" width="12.28" height="21.85"/>
        <rect class="cls-57" x="243.07" y="47.85" width="12.28" height="34.45"/>
        <rect class="cls-57" x="226.62" y="53.16" width="12.28" height="29.14"/>
      </g>
      <g>
        <rect class="cls-55" x="210.17" y="60.44" width="12.28" height="21.85"/>
        <rect class="cls-55" x="243.07" y="47.85" width="12.28" height="34.45"/>
        <rect class="cls-55" x="226.62" y="53.16" width="12.28" height="29.14"/>
      </g>
      <polyline class="cls-54" points="213.56 54.62 231.2 44.72 250.27 42.2"/>
      <g>
        <circle class="cls-63" cx="355.88" cy="25.66" r="23.15"/>
        <g>
          <circle class="cls-70" cx="346.55" cy="12.29" r="3.06"/>
          <circle class="cls-70" cx="350.87" cy="16.97" r="1.66"/>
        </g>
        <polyline class="cls-20" points="347.39 26.42 354.54 32.82 364.37 20.51"/>
        <circle class="cls-58" cx="337.51" cy="11.68" r="1"/>
        <path class="cls-53" d="M360.1,47.07s9.18-1.01,14.82-10.82"/>
        <path class="cls-53" d="M377.84,26.08s-.24,3.01-.85,4.75"/>
        <path class="cls-43" d="M352.21,46.77s-2.97-.56-4.63-1.35"/>
        <path class="cls-13" d="M339.58,9.22c4.18-4.15,9.94-6.71,16.3-6.71,12.79,0,23.15,10.37,23.15,23.15s-10.37,23.15-23.15,23.15-23.15-10.37-23.15-23.15c0-4.12,1.08-7.99,2.96-11.34"/>
      </g>
      <g>
        <rect class="cls-65" x="8.76" y="189.28" width="116.58" height="73.29" rx="6.8" ry="6.8" transform="translate(292.97 158.88) rotate(90)"/>
        <rect class="cls-66" x="15.02" y="195.86" width="103.03" height="60.13" rx="2.96" ry="2.96" transform="translate(292.46 159.38) rotate(90)"/>
        <g>
          <line class="cls-14" x1="39.47" y1="267.3" x2="39.47" y2="275.62"/>
          <g>
            <g>
              <line class="cls-14" x1="39.47" y1="244.07" x2="39.47" y2="256.89"/>
              <line class="cls-28" x1="39.47" y1="249.44" x2="39.47" y2="251.96"/>
            </g>
            <line class="cls-14" x1="39.47" y1="175.45" x2="39.47" y2="235.2"/>
          </g>
        </g>
        <g>
          <polygon class="cls-59" points="78.01 175.19 81.96 175.19 67.75 277.79 63.81 277.79 78.01 175.19"/>
          <polygon class="cls-59" points="55.43 175.19 72.01 175.19 57.8 277.79 42.23 277.79 55.43 175.19"/>
        </g>
        <line class="cls-45" x1="72.93" y1="167.61" x2="67.51" y2="167.61"/>
        <line class="cls-45" x1="76.24" y1="277.37" x2="71.71" y2="277.37"/>
        <line class="cls-42" x1="75.16" y1="273.42" x2="58.64" y2="273.42"/>
        <g>
          <line class="cls-15" x1="35.8" y1="198.77" x2="35.8" y2="188.46"/>
          <line class="cls-15" x1="35.8" y1="260.06" x2="35.8" y2="249.75"/>
          <line class="cls-15" x1="35.8" y1="238.54" x2="35.8" y2="209.31"/>
        </g>
        <line class="cls-24" x1="100.71" y1="222.81" x2="100.71" y2="201.61"/>
        <line class="cls-24" x1="100.71" y1="240.58" x2="100.71" y2="232.89"/>
        <line class="cls-24" x1="100.71" y1="192.77" x2="100.71" y2="185.08"/>
        <line class="cls-23" x1="100.71" y1="215.15" x2="100.71" y2="209.26"/>
        <line class="cls-56" x1="49.62" y1="171.17" x2="40.59" y2="171.17"/>
        <path class="cls-65" d="M57.1,174.16v1.69c0,2.23,1.51,4.04,3.36,4.04h15.77c1.86,0,3.36-1.81,3.36-4.04v-1.69"/>
        <path class="cls-50" d="M57.6,176.94c0,1.79,1.45,3.24,3.24,3.24h15.19c1.79,0,3.24-1.45,3.24-3.24"/>
        <g>
          <circle class="cls-58" cx="63.78" cy="175.85" r="1.04"/>
          <line class="cls-19" x1="67.51" y1="175.85" x2="73.03" y2="175.85"/>
        </g>
        <path class="cls-45" d="M56.91,174.41h-16.97c-1.64,0-2.96,1.33-2.96,2.96v97.1c0,1.64,1.33,2.96,2.96,2.96h54.2c1.64,0,2.96-1.33,2.96-2.96v-97.1c0-1.64-1.33-2.96-2.96-2.96h-13.89"/>
        <path class="cls-45" d="M78.36,167.63h18.53c3.76,0,6.8,3.04,6.8,6.8v102.98c0,3.76-3.04,6.8-6.8,6.8H37.2c-3.76,0-6.8-3.04-6.8-6.8v-102.98c0-3.76,3.04-6.8,6.8-6.8h25.36"/>
        <rect class="cls-59" x="51.74" y="199.19" width="63.25" height="44.8" rx="4.28" ry="4.28"/>
        <g>
          <line class="cls-45" x1="58.61" y1="205.4" x2="87.69" y2="205.4"/>
          <line class="cls-45" x1="58.61" y1="211.33" x2="80.69" y2="211.33"/>
          <line class="cls-45" x1="58.61" y1="217.26" x2="71.69" y2="217.26"/>
        </g>
        <g>
          <line class="cls-7" x1="71.7" y1="241.75" x2="60.89" y2="241.75"/>
          <line class="cls-7" x1="104.74" y1="241.75" x2="93.93" y2="241.75"/>
          <line class="cls-7" x1="84.48" y1="241.75" x2="79.67" y2="241.75"/>
        </g>
        <rect class="cls-45" x="51.74" y="198.81" width="63.25" height="44.8" rx="4.28" ry="4.28"/>
        <g>
          <circle class="cls-63" cx="99.47" cy="257.25" r="23.15"/>
          <g>
            <circle class="cls-70" cx="90.14" cy="243.88" r="3.06"/>
            <circle class="cls-70" cx="94.46" cy="248.56" r="1.66"/>
          </g>
          <polyline class="cls-20" points="90.98 258.01 98.14 264.41 107.96 252.1"/>
          <circle class="cls-58" cx="81.11" cy="243.27" r="1"/>
          <path class="cls-53" d="M103.7,278.66s9.18-1.01,14.82-10.82"/>
          <path class="cls-53" d="M121.44,257.67s-.24,3.01-.85,4.75"/>
          <path class="cls-43" d="M95.8,278.36s-2.97-.56-4.63-1.35"/>
          <path class="cls-13" d="M83.17,240.81c4.18-4.15,9.94-6.71,16.3-6.71,12.79,0,23.15,10.37,23.15,23.15s-10.37,23.15-23.15,23.15-23.15-10.37-23.15-23.15c0-4.12,1.08-7.99,2.96-11.34"/>
        </g>
      </g>
      <g>
        <circle class="cls-63" cx="423.84" cy="180.28" r="23.15"/>
        <g>
          <circle class="cls-70" cx="414.51" cy="166.91" r="3.06"/>
          <circle class="cls-70" cx="418.82" cy="171.59" r="1.66"/>
        </g>
        <polyline class="cls-20" points="415.35 181.04 422.5 187.44 432.33 175.13"/>
        <circle class="cls-58" cx="405.47" cy="166.3" r="1"/>
        <path class="cls-53" d="M428.06,201.69s9.18-1.01,14.82-10.82"/>
        <path class="cls-53" d="M445.8,180.7s-.24,3.01-.85,4.75"/>
        <path class="cls-43" d="M420.17,201.39s-2.97-.56-4.63-1.35"/>
        <path class="cls-13" d="M407.54,163.84c4.18-4.15,9.94-6.71,16.3-6.71,12.79,0,23.15,10.37,23.15,23.15s-10.37,23.15-23.15,23.15-23.15-10.37-23.15-23.15c0-4.12,1.08-7.99,2.96-11.34"/>
      </g>
    </g>
  </g>
</svg>