<svg xmlns="http://www.w3.org/2000/svg" viewBox="0 0 475.59 304.51"><defs><style>.cls-1{fill:#564759;}.cls-12,.cls-13,.cls-14,.cls-15,.cls-18,.cls-19,.cls-2,.cls-20,.cls-21,.cls-6{fill:none;stroke:#000;}.cls-12,.cls-13,.cls-14,.cls-18,.cls-19,.cls-2,.cls-21,.cls-6{stroke-miterlimit:10;}.cls-13,.cls-14,.cls-2,.cls-21,.cls-6{stroke-width:4.06px;}.cls-3{fill:#6f6372;}.cls-17,.cls-4{fill:#fff;}.cls-5{fill:#92bcff;}.cls-17,.cls-6,.cls-7{opacity:0.5;}.cls-8{fill:#a7a0aa;}.cls-9{fill:#5cb2c7;}.cls-10{fill:#e92c20;}.cls-11{fill:#c3e921;}.cls-12,.cls-15{stroke-width:3.04px;}.cls-13{opacity:0.4;}.cls-14{opacity:0.2;}.cls-15,.cls-20,.cls-21{stroke-linecap:round;}.cls-15,.cls-20{stroke-linejoin:round;}.cls-16{opacity:0.7;}.cls-18,.cls-20{stroke-width:2.03px;}.cls-19{stroke-width:1.01px;}.cls-22{fill:#85dae8;}.cls-23{fill:#e9ff64;}.cls-24{fill:#b4d300;}.cls-25{fill:#3e9dad;}</style></defs><title>Asset 347</title><g id="Layer_2" data-name="Layer 2"><g id="Layer_1-2" data-name="Layer 1"><path class="cls-1" d="M33.36,177.32H61.77a0,0,0,0,1,0,0v70.22a0,0,0,0,1,0,0H33.36A5.36,5.36,0,0,1,28,242.17v-59.5A5.36,5.36,0,0,1,33.36,177.32Z"/><path class="cls-2" d="M33.36,177.32H61.77a0,0,0,0,1,0,0v70.22a0,0,0,0,1,0,0H33.36A5.36,5.36,0,0,1,28,242.17v-59.5A5.36,5.36,0,0,1,33.36,177.32Z"/><path class="cls-1" d="M420.89,28.71H449.3a0,0,0,0,1,0,0V98.93a0,0,0,0,1,0,0H420.89a5.36,5.36,0,0,1-5.36-5.36V34.07a5.36,5.36,0,0,1,5.36-5.36Z" transform="translate(864.83 127.64) rotate(-180)"/><path class="cls-2" d="M420.89,28.71H449.3a0,0,0,0,1,0,0V98.93a0,0,0,0,1,0,0H420.89a5.36,5.36,0,0,1-5.36-5.36V34.07a5.36,5.36,0,0,1,5.36-5.36Z" transform="translate(864.83 127.64) rotate(-180)"/><path class="cls-1" d="M231.15,115.33h31.4a0,0,0,0,1,0,0V391.78a0,0,0,0,1,0,0h-31.4a11,11,0,0,1-11-11V126.37a11,11,0,0,1,11-11Z" transform="translate(-12.23 494.88) rotate(-90)"/><path class="cls-2" d="M231.15,115.33h31.4a0,0,0,0,1,0,0V391.78a0,0,0,0,1,0,0h-31.4a11,11,0,0,1-11-11V126.37a11,11,0,0,1,11-11Z" transform="translate(-12.23 494.88) rotate(-90)"/><rect class="cls-3" x="37.48" y="2.03" width="403.63" height="259.48" rx="11.14"/><rect class="cls-4" x="62.95" y="28.49" width="352.68" height="151.86" rx="6.69"/><rect class="cls-5" x="114.59" y="72.19" width="246.84" height="79.78" rx="8.01"/><circle class="cls-2" cx="426.39" cy="16.44" r="6.02"/><circle class="cls-2" cx="50.74" cy="16.44" r="6.02"/><circle class="cls-2" cx="50.74" cy="247.53" r="6.02"/><circle class="cls-2" cx="145.3" cy="243.73" r="8.63"/><circle class="cls-6" cx="145.3" cy="243.73" r="5.55"/><circle class="cls-2" cx="335.38" cy="243.73" r="8.63"/><circle class="cls-6" cx="335.38" cy="243.73" r="5.55"/><path class="cls-2" d="M379.55,261.51l-16.84-58.07a12,12,0,0,0-11.54-8.68H126.39a12,12,0,0,0-11.55,8.68L98,261.51"/><path class="cls-6" d="M377,261.51l-16.47-55.73a11.73,11.73,0,0,0-11.3-8.32H129.33a11.74,11.74,0,0,0-11.3,8.32l-16.47,55.73"/><rect class="cls-4" x="114.59" y="63.82" width="246.84" height="79.78" rx="8.01"/><circle class="cls-7" cx="153.93" cy="106.28" r="21.13"/><circle class="cls-7" cx="320.45" cy="107.05" r="21.13"/><circle class="cls-2" cx="153.93" cy="106.28" r="21.13"/><rect class="cls-8" x="83.29" y="2.03" width="58.06" height="8.39" rx="4.2"/><rect class="cls-8" x="149.78" y="2.03" width="49.94" height="8.39" rx="4.2"/><rect class="cls-8" x="37.48" y="116.8" width="8.39" height="49.94" rx="4.2"/><rect class="cls-1" x="432.42" y="115.08" width="8.39" height="49.94" rx="4.2"/><rect class="cls-1" x="432.42" y="38.85" width="8.39" height="49.94" rx="4.2"/><rect class="cls-1" x="432.42" y="205.14" width="8.39" height="49.94" rx="4.2"/><rect class="cls-4" x="37.48" y="66.03" width="5.55" height="33.06" rx="2.78"/><rect class="cls-8" x="335.38" y="2.03" width="58.06" height="8.39" rx="4.2"/><line class="cls-2" x1="228.63" y1="2.03" x2="305.6" y2="2.03"/><path class="cls-2" d="M315.2,2H430a11.13,11.13,0,0,1,11.14,11.14v237.2A11.14,11.14,0,0,1,430,261.51H48.62a11.14,11.14,0,0,1-11.14-11.14V13.17A11.14,11.14,0,0,1,48.62,2h172.9"/><circle class="cls-2" cx="175.06" cy="215.97" r="5.55"/><circle class="cls-6" cx="175.06" cy="215.97" r="3.57"/><circle class="cls-2" cx="311.33" cy="215.97" r="5.55"/><circle class="cls-6" cx="311.33" cy="215.97" r="3.57"/><rect class="cls-9" x="62.95" y="89.06" width="51.64" height="10.66"/><rect class="cls-9" x="361.43" y="89.06" width="54.21" height="10.66"/><rect class="cls-10" x="62.95" y="109.75" width="51.64" height="10.66"/><rect class="cls-10" x="361.43" y="109.75" width="54.21" height="10.66"/><rect class="cls-11" x="62.95" y="99.09" width="51.64" height="10.66"/><rect class="cls-11" x="361.43" y="99.09" width="54.21" height="10.66"/><path class="cls-2" d="M337.62,180.35h-268a6.69,6.69,0,0,1-6.7-6.69V35.18a6.7,6.7,0,0,1,6.7-6.69h46.72"/><path class="cls-2" d="M128.66,28.49H409a6.7,6.7,0,0,1,6.69,6.69V173.66a6.69,6.69,0,0,1-6.69,6.69H357"/><rect class="cls-12" x="114.59" y="63.82" width="246.84" height="79.78" rx="8.01"/><circle class="cls-2" cx="320.45" cy="106.28" r="21.13"/><circle class="cls-13" cx="320.45" cy="106.28" r="17.54"/><circle class="cls-13" cx="153.93" cy="106.28" r="17.54"/><circle class="cls-14" cx="153.93" cy="106.28" r="13.47"/><circle class="cls-14" cx="320.22" cy="106.28" r="13.47"/><line class="cls-15" x1="153.93" y1="85.15" x2="153.93" y2="96.85"/><line class="cls-15" x1="153.93" y1="115.08" x2="153.93" y2="126.79"/><line class="cls-15" x1="174.75" y1="105.97" x2="163.04" y2="105.97"/><line class="cls-15" x1="144.81" y1="105.97" x2="133.11" y2="105.97"/><line class="cls-15" x1="320.45" y1="85.15" x2="320.45" y2="96.85"/><line class="cls-15" x1="320.45" y1="115.08" x2="320.45" y2="126.79"/><line class="cls-15" x1="341.27" y1="105.97" x2="329.56" y2="105.97"/><line class="cls-15" x1="311.33" y1="105.97" x2="299.63" y2="105.97"/><rect x="371.39" y="39.25" width="34.28" height="10.19" rx="5.09"/><rect x="45.81" y="219.75" width="34.28" height="10.19" rx="5.09"/><circle cx="91.14" cy="224.93" r="5.18"/><rect class="cls-3" x="192.72" y="85.15" width="92.12" height="42.26"/><path class="cls-16" d="M192.72,127.41c9.25,0,16.76-9.46,16.76-21.13S202,85.15,192.72,85.15Z"/><path class="cls-16" d="M284.84,127.41c-9.12,0-16.52-9.46-16.52-21.13s7.4-21.13,16.52-21.13Z"/><polygon class="cls-4" points="215.28 126.79 211.72 126.79 219.84 85.15 223.39 85.15 215.28 126.79"/><polygon class="cls-17" points="244.88 126.79 241.32 126.79 249.44 85.15 252.99 85.15 244.88 126.79"/><polygon class="cls-17" points="256.92 126.79 249.31 126.79 257.43 85.15 265.04 85.15 256.92 126.79"/><rect class="cls-2" x="192.72" y="85.15" width="92.12" height="42.26"/><rect class="cls-5" x="127.65" y="149.01" width="27.4" height="5.92" rx="2.96"/><rect class="cls-5" x="163.04" y="149.01" width="27.4" height="5.92" rx="2.96"/><rect class="cls-5" x="284.82" y="149.01" width="27.4" height="5.92" rx="2.96"/><rect class="cls-5" x="320.22" y="149.01" width="27.4" height="5.92" rx="2.96"/><line class="cls-15" x1="138.96" y1="120.42" x2="144.81" y2="115.08"/><line class="cls-15" x1="162.28" y1="97.1" x2="168.13" y2="91.77"/><line class="cls-15" x1="168.13" y1="120.42" x2="162.28" y2="115.08"/><line class="cls-15" x1="144.81" y1="97.1" x2="138.96" y2="91.77"/><line class="cls-15" x1="305.63" y1="120.42" x2="311.48" y2="115.08"/><line class="cls-15" x1="328.95" y1="97.1" x2="334.8" y2="91.77"/><line class="cls-15" x1="334.8" y1="120.42" x2="328.95" y2="115.08"/><line class="cls-15" x1="311.48" y1="97.1" x2="305.63" y2="91.77"/><line class="cls-18" x1="103.89" y1="267.8" x2="163.04" y2="267.8"/><line class="cls-18" x1="166.29" y1="267.8" x2="180.83" y2="267.8"/><line class="cls-19" x1="32.94" y1="178.58" x2="32.94" y2="209.34"/><line class="cls-19" x1="32.94" y1="212.59" x2="32.94" y2="223.07"/><line class="cls-18" x1="37.48" y1="189.95" x2="96.63" y2="189.95"/><line class="cls-18" x1="99.88" y1="189.95" x2="114.42" y2="189.95"/><line class="cls-18" x1="364.4" y1="189.95" x2="423.56" y2="189.95"/><line class="cls-18" x1="426.81" y1="189.95" x2="441.34" y2="189.95"/><path class="cls-12" d="M188.05,76.81H321.81A29.16,29.16,0,0,1,351,106h0a29.17,29.17,0,0,1-29.16,29.16H154.22A29.16,29.16,0,0,1,125.06,106h0a29.15,29.15,0,0,1,29.16-29.16h24.41"/><path d="M149.78,28.49h40.66a0,0,0,0,1,0,0v0a6.71,6.71,0,0,1-6.71,6.71H156.48a6.71,6.71,0,0,1-6.71-6.71v0A0,0,0,0,1,149.78,28.49Z"/><path d="M279,28.49h40.66a0,0,0,0,1,0,0v0a6.71,6.71,0,0,1-6.71,6.71H285.69A6.71,6.71,0,0,1,279,28.49v0A0,0,0,0,1,279,28.49Z"/><path class="cls-20" d="M145.46,228.86a14.88,14.88,0,0,1,14.88,14.87"/><path class="cls-20" d="M335.38,228.86a14.87,14.87,0,0,1,14.87,14.87"/><circle class="cls-2" cx="426.39" cy="247.53" r="6.02"/><path class="cls-2" d="M52.32,273.45a25.15,25.15,0,0,1,50.29,0"/><path class="cls-2" d="M152.9,273.29a25.15,25.15,0,0,1-50.29,0"/><path class="cls-21" d="M52.32,273.29a25.15,25.15,0,0,1-50.29,0"/><path class="cls-2" d="M373,277.51a25.15,25.15,0,1,1,50.29,0"/><path class="cls-2" d="M473.56,277.34a25.15,25.15,0,1,1-50.29,0"/><path class="cls-21" d="M373,277.34a25.15,25.15,0,1,1-50.29,0"/><path class="cls-2" d="M215.68,276.73a25.15,25.15,0,1,1,50.29,0"/><path class="cls-2" d="M316.26,276.56a25.15,25.15,0,1,1-50.29,0"/><path class="cls-21" d="M215.68,276.56a25.15,25.15,0,1,1-50.29,0"/><path class="cls-2" d="M174.58,276.73a25.15,25.15,0,1,1,50.29,0"/><path class="cls-2" d="M275.16,276.56a25.15,25.15,0,1,1-50.29,0"/><path class="cls-21" d="M174.58,276.56a25.15,25.15,0,1,1-50.29,0"/><path class="cls-2" d="M250,276.73a25.15,25.15,0,1,1,50.29,0"/><path class="cls-2" d="M350.6,276.56a25.15,25.15,0,0,1-50.3,0"/><path class="cls-21" d="M250,276.56a25.15,25.15,0,1,1-50.29,0"/><rect class="cls-22" x="86.09" y="89.06" width="23.16" height="3.18" rx="1.59"/><rect class="cls-23" x="67.91" y="99.09" width="19.1" height="3.18" rx="1.59"/><rect class="cls-24" x="386.57" y="99.09" width="19.1" height="3.18" rx="1.59"/><rect class="cls-25" x="373.49" y="95.91" width="19.1" height="3.18" rx="1.59"/><rect class="cls-4" x="71.07" y="113.49" width="19.1" height="3.18" rx="1.59"/></g></g></svg>